<?xml version="1.0" encoding="utf-8"?>
<!-- Generator: Adobe Illustrator 21.1.0, SVG Export Plug-In . SVG Version: 6.00 Build 0)  -->
<svg version="1.1" id="Layer_1" xmlns="http://www.w3.org/2000/svg" xmlns:xlink="http://www.w3.org/1999/xlink" x="0px" y="0px"
	 viewBox="0 0 50 50" style="enable-background:new 0 0 50 50;" xml:space="preserve">
<style type="text/css">
	.st0{fill:#FFFFFF;}
	.st1{fill:#34AD07;}
</style>
<circle class="st0" cx="25" cy="25" r="24.2"/>
<path class="st1" d="M38,16.3H12c-1.6,0-2.9,1.3-2.9,2.9v11.6c0,1.6,1.3,2.9,2.9,2.9h26c1.6,0,2.9-1.3,2.9-2.9V19.2
	C40.9,17.6,39.6,16.3,38,16.3z M23.6,26.4h-4.3v4.3h-2.9v-4.3H12v-2.9h4.3v-4.3h2.9v4.3h4.3V26.4z M30.1,29.3c-1.2,0-2.2-1-2.2-2.2
	s1-2.2,2.2-2.2s2.2,1,2.2,2.2S31.3,29.3,30.1,29.3z M35.9,25c-1.2,0-2.2-1-2.2-2.2s1-2.2,2.2-2.2s2.2,1,2.2,2.2S37.1,25,35.9,25z"/>
</svg>
