<?xml version="1.0" encoding="utf-8"?>
<!-- Generator: Adobe Illustrator 19.2.1, SVG Export Plug-In . SVG Version: 6.00 Build 0)  -->
<svg version="1.1" id="Group_1_xA0_Image_1_" xmlns="http://www.w3.org/2000/svg" xmlns:xlink="http://www.w3.org/1999/xlink"
	 x="0px" y="0px" viewBox="0 0 200 200" style="enable-background:new 0 0 200 200;" xml:space="preserve">
<style type="text/css">
	.st0{fill:#2AABE4;}
	.st1{fill:#0071BD;}
	.st2{fill:#2E3192;}
</style>
<g>
	<polygon class="st0" points="102.2,123.3 175.4,49.3 175.1,49 102.2,49 	"/>
	<polygon class="st0" points="24.6,49 102.2,123.3 102.2,49 	"/>
	<polygon class="st0" points="102.2,3 102.2,49 175.1,49 132.8,3 	"/>
	<polygon class="st1" points="102.2,3 67.7,3 24.6,49 24.6,49 102.2,49 	"/>
	<polygon class="st2" points="67.7,3 67.7,49 102.2,3 	"/>
	<polygon class="st2" points="133.4,3 133.4,49 102.2,3 	"/>
	<polygon class="st1" points="132.8,3 133.4,49 175.1,49 	"/>
	<polygon class="st1" points="102.2,49 102.2,123.3 133.4,49 	"/>
	<polygon class="st2" points="102.1,49 102.1,123.3 67.6,49 	"/>
</g>
</svg>
