<?xml version="1.0" encoding="utf-8"?>
<!-- Generator: Adobe Illustrator 21.1.0, SVG Export Plug-In . SVG Version: 6.00 Build 0)  -->
<svg version="1.1" id="Layer_1" xmlns="http://www.w3.org/2000/svg" xmlns:xlink="http://www.w3.org/1999/xlink" x="0px" y="0px"
	 viewBox="0 0 150 150" style="enable-background:new 0 0 150 150;" xml:space="preserve">
<style type="text/css">
	.st0{fill:#757575;}
</style>
<path class="st0" d="M143.7,61.7c0.9,4.8,1.4,9.8,1.4,15c0,40.9-27.4,69.9-68.7,69.9c-39.5,0-71.5-32-71.5-71.5s32-71.5,71.5-71.5
	c19.3,0,35.4,7.1,47.8,18.6l-20.2,20.2v0c-7.5-7.2-17-10.8-27.7-10.8c-23.6,0-42.8,19.9-42.8,43.5c0,23.6,19.2,43.6,42.8,43.6
	c21.4,0,36-12.2,39-29.1h-39V61.7L143.7,61.7L143.7,61.7z"/>
</svg>
