<?xml version="1.0" encoding="utf-8"?>
<!-- Generator: Adobe Illustrator 21.1.0, SVG Export Plug-In . SVG Version: 6.00 Build 0)  -->
<svg version="1.1" id="Layer_1" xmlns="http://www.w3.org/2000/svg" xmlns:xlink="http://www.w3.org/1999/xlink" x="0px" y="0px"
	 viewBox="0 0 500 610" style="enable-background:new 0 0 500 610;" xml:space="preserve">
<style type="text/css">
	.st0{fill:#F6F6F6;stroke:#999999;stroke-miterlimit:10;}
	.st1{opacity:0.7;fill:none;stroke:#E46161;stroke-width:2;stroke-miterlimit:10;}
	.st2{fill:url(#SVGID_1_);}
	.st3{fill:url(#SVGID_2_);}
	.st4{fill:url(#SVGID_3_);}
	.st5{fill:url(#SVGID_4_);}
	.st6{fill:url(#SVGID_5_);}
	.st7{fill:url(#SVGID_6_);}
	.st8{fill:url(#SVGID_7_);}
	.st9{fill:url(#SVGID_8_);}
	.st10{fill:url(#SVGID_9_);}
	.st11{fill:url(#SVGID_10_);}
	.st12{fill:url(#SVGID_11_);}
	.st13{fill:url(#SVGID_12_);}
	.st14{fill:url(#SVGID_13_);}
	.st15{fill:url(#SVGID_14_);}
	.st16{fill:url(#SVGID_15_);}
	.st17{fill:url(#SVGID_16_);}
	.st18{fill:url(#SVGID_17_);}
	.st19{fill:url(#SVGID_18_);}
	.st20{fill:url(#SVGID_19_);}
	.st21{fill:url(#SVGID_20_);}
	.st22{fill:url(#SVGID_21_);}
	.st23{fill:url(#SVGID_22_);}
	.st24{fill:url(#SVGID_23_);}
	.st25{fill:url(#SVGID_24_);}
	.st26{fill:url(#SVGID_25_);}
	.st27{fill:url(#SVGID_26_);}
	.st28{fill:url(#SVGID_27_);}
	.st29{fill:url(#SVGID_28_);}
	.st30{fill:url(#SVGID_29_);}
	.st31{fill:url(#SVGID_30_);}
	.st32{fill:url(#SVGID_31_);}
	.st33{fill:url(#SVGID_32_);}
	.st34{fill:url(#SVGID_33_);}
	.st35{fill:url(#SVGID_34_);}
	.st36{fill:url(#SVGID_35_);}
	.st37{fill:url(#SVGID_36_);}
	.st38{fill:url(#SVGID_37_);}
	.st39{fill:url(#SVGID_38_);}
	.st40{fill:url(#SVGID_39_);}
	.st41{fill:url(#SVGID_40_);}
	.st42{fill:url(#SVGID_41_);}
	.st43{fill:url(#SVGID_42_);}
</style>
<circle cx="20.5" cy="36.3" r="7.7"/>
<circle cx="20.5" cy="63.2" r="7.7"/>
<circle cx="20.5" cy="90" r="7.7"/>
<circle cx="20.5" cy="116.9" r="7.7"/>
<circle cx="20.5" cy="143.8" r="7.7"/>
<circle cx="20.5" cy="170.6" r="7.7"/>
<circle cx="20.5" cy="197.5" r="7.7"/>
<circle cx="20.5" cy="224.4" r="7.7"/>
<circle cx="20.5" cy="251.3" r="7.7"/>
<circle cx="20.5" cy="278.1" r="7.7"/>
<circle cx="20.5" cy="305" r="7.7"/>
<circle cx="20.5" cy="331.9" r="7.7"/>
<circle cx="20.5" cy="358.7" r="7.7"/>
<circle cx="20.5" cy="385.6" r="7.7"/>
<circle cx="20.5" cy="412.5" r="7.7"/>
<circle cx="20.5" cy="439.4" r="7.7"/>
<circle cx="20.5" cy="466.2" r="7.7"/>
<circle cx="20.5" cy="493.1" r="7.7"/>
<circle cx="20.5" cy="520" r="7.7"/>
<circle cx="20.5" cy="546.8" r="7.7"/>
<circle cx="20.5" cy="573.7" r="7.7"/>
<rect x="26.3" y="9" class="st0" width="461.8" height="592"/>
<line class="st1" x1="92.6" y1="9" x2="92.6" y2="600.3"/>
<g>
	<g>
		<circle cx="45.5" cy="36.3" r="7.7"/>
		<linearGradient id="SVGID_1_" gradientUnits="userSpaceOnUse" x1="33.2775" y1="35.1027" x2="33.2775" y2="30.633">
			<stop  offset="0" style="stop-color:#585858"/>
			<stop  offset="6.769966e-02" style="stop-color:#606060"/>
			<stop  offset="0.1734" style="stop-color:#767676"/>
			<stop  offset="0.3038" style="stop-color:#9A9A9A"/>
			<stop  offset="0.4525" style="stop-color:#CCCCCC"/>
			<stop  offset="0.586" style="stop-color:#FFFFFF"/>
			<stop  offset="0.8523" style="stop-color:#919191"/>
			<stop  offset="1" style="stop-color:#585858"/>
		</linearGradient>
		<path class="st2" d="M45.4,35.1H21.1c-1.2,0-2.2-1-2.2-2.2v-0.1c0-1.2,1-2.2,2.2-2.2h24.3c1.2,0,2.2,1,2.2,2.2v0.1
			C47.6,34.1,46.7,35.1,45.4,35.1z"/>
		<linearGradient id="SVGID_2_" gradientUnits="userSpaceOnUse" x1="33.2775" y1="41.8208" x2="33.2775" y2="37.3511">
			<stop  offset="0" style="stop-color:#585858"/>
			<stop  offset="6.769966e-02" style="stop-color:#606060"/>
			<stop  offset="0.1734" style="stop-color:#767676"/>
			<stop  offset="0.3038" style="stop-color:#9A9A9A"/>
			<stop  offset="0.4525" style="stop-color:#CCCCCC"/>
			<stop  offset="0.586" style="stop-color:#FFFFFF"/>
			<stop  offset="0.8523" style="stop-color:#919191"/>
			<stop  offset="1" style="stop-color:#585858"/>
		</linearGradient>
		<path class="st3" d="M45.4,41.8H21.1c-1.2,0-2.2-1-2.2-2.2v-0.1c0-1.2,1-2.2,2.2-2.2h24.3c1.2,0,2.2,1,2.2,2.2v0.1
			C47.6,40.8,46.7,41.8,45.4,41.8z"/>
	</g>
	<g>
		<circle cx="45.5" cy="63.2" r="7.7"/>
		<linearGradient id="SVGID_3_" gradientUnits="userSpaceOnUse" x1="33.2775" y1="61.9749" x2="33.2775" y2="57.5052">
			<stop  offset="0" style="stop-color:#585858"/>
			<stop  offset="6.769966e-02" style="stop-color:#606060"/>
			<stop  offset="0.1734" style="stop-color:#767676"/>
			<stop  offset="0.3038" style="stop-color:#9A9A9A"/>
			<stop  offset="0.4525" style="stop-color:#CCCCCC"/>
			<stop  offset="0.586" style="stop-color:#FFFFFF"/>
			<stop  offset="0.8523" style="stop-color:#919191"/>
			<stop  offset="1" style="stop-color:#585858"/>
		</linearGradient>
		<path class="st4" d="M45.4,62H21.1c-1.2,0-2.2-1-2.2-2.2v-0.1c0-1.2,1-2.2,2.2-2.2h24.3c1.2,0,2.2,1,2.2,2.2v0.1
			C47.6,61,46.7,62,45.4,62z"/>
		<linearGradient id="SVGID_4_" gradientUnits="userSpaceOnUse" x1="33.2775" y1="68.6929" x2="33.2775" y2="64.2232">
			<stop  offset="0" style="stop-color:#585858"/>
			<stop  offset="6.769966e-02" style="stop-color:#606060"/>
			<stop  offset="0.1734" style="stop-color:#767676"/>
			<stop  offset="0.3038" style="stop-color:#9A9A9A"/>
			<stop  offset="0.4525" style="stop-color:#CCCCCC"/>
			<stop  offset="0.586" style="stop-color:#FFFFFF"/>
			<stop  offset="0.8523" style="stop-color:#919191"/>
			<stop  offset="1" style="stop-color:#585858"/>
		</linearGradient>
		<path class="st5" d="M45.4,68.7H21.1c-1.2,0-2.2-1-2.2-2.2v-0.1c0-1.2,1-2.2,2.2-2.2h24.3c1.2,0,2.2,1,2.2,2.2v0.1
			C47.6,67.7,46.7,68.7,45.4,68.7z"/>
	</g>
	<g>
		<circle cx="45.5" cy="90" r="7.7"/>
		<linearGradient id="SVGID_5_" gradientUnits="userSpaceOnUse" x1="33.2775" y1="88.8471" x2="33.2775" y2="84.3773">
			<stop  offset="0" style="stop-color:#585858"/>
			<stop  offset="6.769966e-02" style="stop-color:#606060"/>
			<stop  offset="0.1734" style="stop-color:#767676"/>
			<stop  offset="0.3038" style="stop-color:#9A9A9A"/>
			<stop  offset="0.4525" style="stop-color:#CCCCCC"/>
			<stop  offset="0.586" style="stop-color:#FFFFFF"/>
			<stop  offset="0.8523" style="stop-color:#919191"/>
			<stop  offset="1" style="stop-color:#585858"/>
		</linearGradient>
		<path class="st6" d="M45.4,88.8H21.1c-1.2,0-2.2-1-2.2-2.2v-0.1c0-1.2,1-2.2,2.2-2.2h24.3c1.2,0,2.2,1,2.2,2.2v0.1
			C47.6,87.9,46.7,88.8,45.4,88.8z"/>
		<linearGradient id="SVGID_6_" gradientUnits="userSpaceOnUse" x1="33.2775" y1="95.5651" x2="33.2775" y2="91.0954">
			<stop  offset="0" style="stop-color:#585858"/>
			<stop  offset="6.769966e-02" style="stop-color:#606060"/>
			<stop  offset="0.1734" style="stop-color:#767676"/>
			<stop  offset="0.3038" style="stop-color:#9A9A9A"/>
			<stop  offset="0.4525" style="stop-color:#CCCCCC"/>
			<stop  offset="0.586" style="stop-color:#FFFFFF"/>
			<stop  offset="0.8523" style="stop-color:#919191"/>
			<stop  offset="1" style="stop-color:#585858"/>
		</linearGradient>
		<path class="st7" d="M45.4,95.6H21.1c-1.2,0-2.2-1-2.2-2.2v-0.1c0-1.2,1-2.2,2.2-2.2h24.3c1.2,0,2.2,1,2.2,2.2v0.1
			C47.6,94.6,46.7,95.6,45.4,95.6z"/>
	</g>
	<g>
		<circle cx="45.5" cy="116.9" r="7.7"/>
		<linearGradient id="SVGID_7_" gradientUnits="userSpaceOnUse" x1="33.2775" y1="115.7192" x2="33.2775" y2="111.2495">
			<stop  offset="0" style="stop-color:#585858"/>
			<stop  offset="6.769966e-02" style="stop-color:#606060"/>
			<stop  offset="0.1734" style="stop-color:#767676"/>
			<stop  offset="0.3038" style="stop-color:#9A9A9A"/>
			<stop  offset="0.4525" style="stop-color:#CCCCCC"/>
			<stop  offset="0.586" style="stop-color:#FFFFFF"/>
			<stop  offset="0.8523" style="stop-color:#919191"/>
			<stop  offset="1" style="stop-color:#585858"/>
		</linearGradient>
		<path class="st8" d="M45.4,115.7H21.1c-1.2,0-2.2-1-2.2-2.2v-0.1c0-1.2,1-2.2,2.2-2.2h24.3c1.2,0,2.2,1,2.2,2.2v0.1
			C47.6,114.7,46.7,115.7,45.4,115.7z"/>
		<linearGradient id="SVGID_8_" gradientUnits="userSpaceOnUse" x1="33.2775" y1="122.4373" x2="33.2775" y2="117.9676">
			<stop  offset="0" style="stop-color:#585858"/>
			<stop  offset="6.769966e-02" style="stop-color:#606060"/>
			<stop  offset="0.1734" style="stop-color:#767676"/>
			<stop  offset="0.3038" style="stop-color:#9A9A9A"/>
			<stop  offset="0.4525" style="stop-color:#CCCCCC"/>
			<stop  offset="0.586" style="stop-color:#FFFFFF"/>
			<stop  offset="0.8523" style="stop-color:#919191"/>
			<stop  offset="1" style="stop-color:#585858"/>
		</linearGradient>
		<path class="st9" d="M45.4,122.4H21.1c-1.2,0-2.2-1-2.2-2.2v-0.1c0-1.2,1-2.2,2.2-2.2h24.3c1.2,0,2.2,1,2.2,2.2v0.1
			C47.6,121.5,46.7,122.4,45.4,122.4z"/>
	</g>
	<g>
		<circle cx="45.5" cy="143.8" r="7.7"/>
		<linearGradient id="SVGID_9_" gradientUnits="userSpaceOnUse" x1="33.2775" y1="142.5914" x2="33.2775" y2="138.1217">
			<stop  offset="0" style="stop-color:#585858"/>
			<stop  offset="6.769966e-02" style="stop-color:#606060"/>
			<stop  offset="0.1734" style="stop-color:#767676"/>
			<stop  offset="0.3038" style="stop-color:#9A9A9A"/>
			<stop  offset="0.4525" style="stop-color:#CCCCCC"/>
			<stop  offset="0.586" style="stop-color:#FFFFFF"/>
			<stop  offset="0.8523" style="stop-color:#919191"/>
			<stop  offset="1" style="stop-color:#585858"/>
		</linearGradient>
		<path class="st10" d="M45.4,142.6H21.1c-1.2,0-2.2-1-2.2-2.2v-0.1c0-1.2,1-2.2,2.2-2.2h24.3c1.2,0,2.2,1,2.2,2.2v0.1
			C47.6,141.6,46.7,142.6,45.4,142.6z"/>
		<linearGradient id="SVGID_10_" gradientUnits="userSpaceOnUse" x1="33.2775" y1="149.3094" x2="33.2775" y2="144.8397">
			<stop  offset="0" style="stop-color:#585858"/>
			<stop  offset="6.769966e-02" style="stop-color:#606060"/>
			<stop  offset="0.1734" style="stop-color:#767676"/>
			<stop  offset="0.3038" style="stop-color:#9A9A9A"/>
			<stop  offset="0.4525" style="stop-color:#CCCCCC"/>
			<stop  offset="0.586" style="stop-color:#FFFFFF"/>
			<stop  offset="0.8523" style="stop-color:#919191"/>
			<stop  offset="1" style="stop-color:#585858"/>
		</linearGradient>
		<path class="st11" d="M45.4,149.3H21.1c-1.2,0-2.2-1-2.2-2.2V147c0-1.2,1-2.2,2.2-2.2h24.3c1.2,0,2.2,1,2.2,2.2v0.1
			C47.6,148.3,46.7,149.3,45.4,149.3z"/>
	</g>
	<g>
		<circle cx="45.5" cy="170.6" r="7.7"/>
		<linearGradient id="SVGID_11_" gradientUnits="userSpaceOnUse" x1="33.2775" y1="169.4635" x2="33.2775" y2="164.9938">
			<stop  offset="0" style="stop-color:#585858"/>
			<stop  offset="6.769966e-02" style="stop-color:#606060"/>
			<stop  offset="0.1734" style="stop-color:#767676"/>
			<stop  offset="0.3038" style="stop-color:#9A9A9A"/>
			<stop  offset="0.4525" style="stop-color:#CCCCCC"/>
			<stop  offset="0.586" style="stop-color:#FFFFFF"/>
			<stop  offset="0.8523" style="stop-color:#919191"/>
			<stop  offset="1" style="stop-color:#585858"/>
		</linearGradient>
		<path class="st12" d="M45.4,169.5H21.1c-1.2,0-2.2-1-2.2-2.2v-0.1c0-1.2,1-2.2,2.2-2.2h24.3c1.2,0,2.2,1,2.2,2.2v0.1
			C47.6,168.5,46.7,169.5,45.4,169.5z"/>
		<linearGradient id="SVGID_12_" gradientUnits="userSpaceOnUse" x1="33.2775" y1="176.1816" x2="33.2775" y2="171.7119">
			<stop  offset="0" style="stop-color:#585858"/>
			<stop  offset="6.769966e-02" style="stop-color:#606060"/>
			<stop  offset="0.1734" style="stop-color:#767676"/>
			<stop  offset="0.3038" style="stop-color:#9A9A9A"/>
			<stop  offset="0.4525" style="stop-color:#CCCCCC"/>
			<stop  offset="0.586" style="stop-color:#FFFFFF"/>
			<stop  offset="0.8523" style="stop-color:#919191"/>
			<stop  offset="1" style="stop-color:#585858"/>
		</linearGradient>
		<path class="st13" d="M45.4,176.2H21.1c-1.2,0-2.2-1-2.2-2.2v-0.1c0-1.2,1-2.2,2.2-2.2h24.3c1.2,0,2.2,1,2.2,2.2v0.1
			C47.6,175.2,46.7,176.2,45.4,176.2z"/>
	</g>
	<g>
		<circle cx="45.5" cy="197.5" r="7.7"/>
		<linearGradient id="SVGID_13_" gradientUnits="userSpaceOnUse" x1="33.2775" y1="196.3357" x2="33.2775" y2="191.866">
			<stop  offset="0" style="stop-color:#585858"/>
			<stop  offset="6.769966e-02" style="stop-color:#606060"/>
			<stop  offset="0.1734" style="stop-color:#767676"/>
			<stop  offset="0.3038" style="stop-color:#9A9A9A"/>
			<stop  offset="0.4525" style="stop-color:#CCCCCC"/>
			<stop  offset="0.586" style="stop-color:#FFFFFF"/>
			<stop  offset="0.8523" style="stop-color:#919191"/>
			<stop  offset="1" style="stop-color:#585858"/>
		</linearGradient>
		<path class="st14" d="M45.4,196.3H21.1c-1.2,0-2.2-1-2.2-2.2v-0.1c0-1.2,1-2.2,2.2-2.2h24.3c1.2,0,2.2,1,2.2,2.2v0.1
			C47.6,195.3,46.7,196.3,45.4,196.3z"/>
		<linearGradient id="SVGID_14_" gradientUnits="userSpaceOnUse" x1="33.2775" y1="203.0537" x2="33.2775" y2="198.584">
			<stop  offset="0" style="stop-color:#585858"/>
			<stop  offset="6.769966e-02" style="stop-color:#606060"/>
			<stop  offset="0.1734" style="stop-color:#767676"/>
			<stop  offset="0.3038" style="stop-color:#9A9A9A"/>
			<stop  offset="0.4525" style="stop-color:#CCCCCC"/>
			<stop  offset="0.586" style="stop-color:#FFFFFF"/>
			<stop  offset="0.8523" style="stop-color:#919191"/>
			<stop  offset="1" style="stop-color:#585858"/>
		</linearGradient>
		<path class="st15" d="M45.4,203.1H21.1c-1.2,0-2.2-1-2.2-2.2v-0.1c0-1.2,1-2.2,2.2-2.2h24.3c1.2,0,2.2,1,2.2,2.2v0.1
			C47.6,202.1,46.7,203.1,45.4,203.1z"/>
	</g>
	<g>
		<circle cx="45.5" cy="224.4" r="7.7"/>
		<linearGradient id="SVGID_15_" gradientUnits="userSpaceOnUse" x1="33.2775" y1="223.2079" x2="33.2775" y2="218.7381">
			<stop  offset="0" style="stop-color:#585858"/>
			<stop  offset="6.769966e-02" style="stop-color:#606060"/>
			<stop  offset="0.1734" style="stop-color:#767676"/>
			<stop  offset="0.3038" style="stop-color:#9A9A9A"/>
			<stop  offset="0.4525" style="stop-color:#CCCCCC"/>
			<stop  offset="0.586" style="stop-color:#FFFFFF"/>
			<stop  offset="0.8523" style="stop-color:#919191"/>
			<stop  offset="1" style="stop-color:#585858"/>
		</linearGradient>
		<path class="st16" d="M45.4,223.2H21.1c-1.2,0-2.2-1-2.2-2.2v-0.1c0-1.2,1-2.2,2.2-2.2h24.3c1.2,0,2.2,1,2.2,2.2v0.1
			C47.6,222.2,46.7,223.2,45.4,223.2z"/>
		<linearGradient id="SVGID_16_" gradientUnits="userSpaceOnUse" x1="33.2775" y1="229.9259" x2="33.2775" y2="225.4562">
			<stop  offset="0" style="stop-color:#585858"/>
			<stop  offset="6.769966e-02" style="stop-color:#606060"/>
			<stop  offset="0.1734" style="stop-color:#767676"/>
			<stop  offset="0.3038" style="stop-color:#9A9A9A"/>
			<stop  offset="0.4525" style="stop-color:#CCCCCC"/>
			<stop  offset="0.586" style="stop-color:#FFFFFF"/>
			<stop  offset="0.8523" style="stop-color:#919191"/>
			<stop  offset="1" style="stop-color:#585858"/>
		</linearGradient>
		<path class="st17" d="M45.4,229.9H21.1c-1.2,0-2.2-1-2.2-2.2v-0.1c0-1.2,1-2.2,2.2-2.2h24.3c1.2,0,2.2,1,2.2,2.2v0.1
			C47.6,228.9,46.7,229.9,45.4,229.9z"/>
	</g>
	<g>
		<circle cx="45.5" cy="251.3" r="7.7"/>
		<linearGradient id="SVGID_17_" gradientUnits="userSpaceOnUse" x1="33.2775" y1="250.08" x2="33.2775" y2="245.6103">
			<stop  offset="0" style="stop-color:#585858"/>
			<stop  offset="6.769966e-02" style="stop-color:#606060"/>
			<stop  offset="0.1734" style="stop-color:#767676"/>
			<stop  offset="0.3038" style="stop-color:#9A9A9A"/>
			<stop  offset="0.4525" style="stop-color:#CCCCCC"/>
			<stop  offset="0.586" style="stop-color:#FFFFFF"/>
			<stop  offset="0.8523" style="stop-color:#919191"/>
			<stop  offset="1" style="stop-color:#585858"/>
		</linearGradient>
		<path class="st18" d="M45.4,250.1H21.1c-1.2,0-2.2-1-2.2-2.2v-0.1c0-1.2,1-2.2,2.2-2.2h24.3c1.2,0,2.2,1,2.2,2.2v0.1
			C47.6,249.1,46.7,250.1,45.4,250.1z"/>
		<linearGradient id="SVGID_18_" gradientUnits="userSpaceOnUse" x1="33.2775" y1="256.7981" x2="33.2775" y2="252.3284">
			<stop  offset="0" style="stop-color:#585858"/>
			<stop  offset="6.769966e-02" style="stop-color:#606060"/>
			<stop  offset="0.1734" style="stop-color:#767676"/>
			<stop  offset="0.3038" style="stop-color:#9A9A9A"/>
			<stop  offset="0.4525" style="stop-color:#CCCCCC"/>
			<stop  offset="0.586" style="stop-color:#FFFFFF"/>
			<stop  offset="0.8523" style="stop-color:#919191"/>
			<stop  offset="1" style="stop-color:#585858"/>
		</linearGradient>
		<path class="st19" d="M45.4,256.8H21.1c-1.2,0-2.2-1-2.2-2.2v-0.1c0-1.2,1-2.2,2.2-2.2h24.3c1.2,0,2.2,1,2.2,2.2v0.1
			C47.6,255.8,46.7,256.8,45.4,256.8z"/>
	</g>
	<g>
		<circle cx="45.5" cy="278.1" r="7.7"/>
		<linearGradient id="SVGID_19_" gradientUnits="userSpaceOnUse" x1="33.2775" y1="276.9522" x2="33.2775" y2="272.4825">
			<stop  offset="0" style="stop-color:#585858"/>
			<stop  offset="6.769966e-02" style="stop-color:#606060"/>
			<stop  offset="0.1734" style="stop-color:#767676"/>
			<stop  offset="0.3038" style="stop-color:#9A9A9A"/>
			<stop  offset="0.4525" style="stop-color:#CCCCCC"/>
			<stop  offset="0.586" style="stop-color:#FFFFFF"/>
			<stop  offset="0.8523" style="stop-color:#919191"/>
			<stop  offset="1" style="stop-color:#585858"/>
		</linearGradient>
		<path class="st20" d="M45.4,277H21.1c-1.2,0-2.2-1-2.2-2.2v-0.1c0-1.2,1-2.2,2.2-2.2h24.3c1.2,0,2.2,1,2.2,2.2v0.1
			C47.6,276,46.7,277,45.4,277z"/>
		<linearGradient id="SVGID_20_" gradientUnits="userSpaceOnUse" x1="33.2775" y1="283.6702" x2="33.2775" y2="279.2005">
			<stop  offset="0" style="stop-color:#585858"/>
			<stop  offset="6.769966e-02" style="stop-color:#606060"/>
			<stop  offset="0.1734" style="stop-color:#767676"/>
			<stop  offset="0.3038" style="stop-color:#9A9A9A"/>
			<stop  offset="0.4525" style="stop-color:#CCCCCC"/>
			<stop  offset="0.586" style="stop-color:#FFFFFF"/>
			<stop  offset="0.8523" style="stop-color:#919191"/>
			<stop  offset="1" style="stop-color:#585858"/>
		</linearGradient>
		<path class="st21" d="M45.4,283.7H21.1c-1.2,0-2.2-1-2.2-2.2v-0.1c0-1.2,1-2.2,2.2-2.2h24.3c1.2,0,2.2,1,2.2,2.2v0.1
			C47.6,282.7,46.7,283.7,45.4,283.7z"/>
	</g>
	<g>
		<circle cx="45.5" cy="305" r="7.7"/>
		<linearGradient id="SVGID_21_" gradientUnits="userSpaceOnUse" x1="33.2775" y1="303.8243" x2="33.2775" y2="299.3546">
			<stop  offset="0" style="stop-color:#585858"/>
			<stop  offset="6.769966e-02" style="stop-color:#606060"/>
			<stop  offset="0.1734" style="stop-color:#767676"/>
			<stop  offset="0.3038" style="stop-color:#9A9A9A"/>
			<stop  offset="0.4525" style="stop-color:#CCCCCC"/>
			<stop  offset="0.586" style="stop-color:#FFFFFF"/>
			<stop  offset="0.8523" style="stop-color:#919191"/>
			<stop  offset="1" style="stop-color:#585858"/>
		</linearGradient>
		<path class="st22" d="M45.4,303.8H21.1c-1.2,0-2.2-1-2.2-2.2v-0.1c0-1.2,1-2.2,2.2-2.2h24.3c1.2,0,2.2,1,2.2,2.2v0.1
			C47.6,302.8,46.7,303.8,45.4,303.8z"/>
		<linearGradient id="SVGID_22_" gradientUnits="userSpaceOnUse" x1="33.2775" y1="310.5424" x2="33.2775" y2="306.0727">
			<stop  offset="0" style="stop-color:#585858"/>
			<stop  offset="6.769966e-02" style="stop-color:#606060"/>
			<stop  offset="0.1734" style="stop-color:#767676"/>
			<stop  offset="0.3038" style="stop-color:#9A9A9A"/>
			<stop  offset="0.4525" style="stop-color:#CCCCCC"/>
			<stop  offset="0.586" style="stop-color:#FFFFFF"/>
			<stop  offset="0.8523" style="stop-color:#919191"/>
			<stop  offset="1" style="stop-color:#585858"/>
		</linearGradient>
		<path class="st23" d="M45.4,310.5H21.1c-1.2,0-2.2-1-2.2-2.2v-0.1c0-1.2,1-2.2,2.2-2.2h24.3c1.2,0,2.2,1,2.2,2.2v0.1
			C47.6,309.6,46.7,310.5,45.4,310.5z"/>
	</g>
	<g>
		<circle cx="45.5" cy="331.9" r="7.7"/>
		<linearGradient id="SVGID_23_" gradientUnits="userSpaceOnUse" x1="33.2775" y1="330.6965" x2="33.2775" y2="326.2268">
			<stop  offset="0" style="stop-color:#585858"/>
			<stop  offset="6.769966e-02" style="stop-color:#606060"/>
			<stop  offset="0.1734" style="stop-color:#767676"/>
			<stop  offset="0.3038" style="stop-color:#9A9A9A"/>
			<stop  offset="0.4525" style="stop-color:#CCCCCC"/>
			<stop  offset="0.586" style="stop-color:#FFFFFF"/>
			<stop  offset="0.8523" style="stop-color:#919191"/>
			<stop  offset="1" style="stop-color:#585858"/>
		</linearGradient>
		<path class="st24" d="M45.4,330.7H21.1c-1.2,0-2.2-1-2.2-2.2v-0.1c0-1.2,1-2.2,2.2-2.2h24.3c1.2,0,2.2,1,2.2,2.2v0.1
			C47.6,329.7,46.7,330.7,45.4,330.7z"/>
		<linearGradient id="SVGID_24_" gradientUnits="userSpaceOnUse" x1="33.2775" y1="337.4146" x2="33.2775" y2="332.9448">
			<stop  offset="0" style="stop-color:#585858"/>
			<stop  offset="6.769966e-02" style="stop-color:#606060"/>
			<stop  offset="0.1734" style="stop-color:#767676"/>
			<stop  offset="0.3038" style="stop-color:#9A9A9A"/>
			<stop  offset="0.4525" style="stop-color:#CCCCCC"/>
			<stop  offset="0.586" style="stop-color:#FFFFFF"/>
			<stop  offset="0.8523" style="stop-color:#919191"/>
			<stop  offset="1" style="stop-color:#585858"/>
		</linearGradient>
		<path class="st25" d="M45.4,337.4H21.1c-1.2,0-2.2-1-2.2-2.2v-0.1c0-1.2,1-2.2,2.2-2.2h24.3c1.2,0,2.2,1,2.2,2.2v0.1
			C47.6,336.4,46.7,337.4,45.4,337.4z"/>
	</g>
	<g>
		<circle cx="45.5" cy="358.7" r="7.7"/>
		<linearGradient id="SVGID_25_" gradientUnits="userSpaceOnUse" x1="33.2775" y1="357.5687" x2="33.2775" y2="353.0989">
			<stop  offset="0" style="stop-color:#585858"/>
			<stop  offset="6.769966e-02" style="stop-color:#606060"/>
			<stop  offset="0.1734" style="stop-color:#767676"/>
			<stop  offset="0.3038" style="stop-color:#9A9A9A"/>
			<stop  offset="0.4525" style="stop-color:#CCCCCC"/>
			<stop  offset="0.586" style="stop-color:#FFFFFF"/>
			<stop  offset="0.8523" style="stop-color:#919191"/>
			<stop  offset="1" style="stop-color:#585858"/>
		</linearGradient>
		<path class="st26" d="M45.4,357.6H21.1c-1.2,0-2.2-1-2.2-2.2v-0.1c0-1.2,1-2.2,2.2-2.2h24.3c1.2,0,2.2,1,2.2,2.2v0.1
			C47.6,356.6,46.7,357.6,45.4,357.6z"/>
		<linearGradient id="SVGID_26_" gradientUnits="userSpaceOnUse" x1="33.2775" y1="364.2867" x2="33.2775" y2="359.817">
			<stop  offset="0" style="stop-color:#585858"/>
			<stop  offset="6.769966e-02" style="stop-color:#606060"/>
			<stop  offset="0.1734" style="stop-color:#767676"/>
			<stop  offset="0.3038" style="stop-color:#9A9A9A"/>
			<stop  offset="0.4525" style="stop-color:#CCCCCC"/>
			<stop  offset="0.586" style="stop-color:#FFFFFF"/>
			<stop  offset="0.8523" style="stop-color:#919191"/>
			<stop  offset="1" style="stop-color:#585858"/>
		</linearGradient>
		<path class="st27" d="M45.4,364.3H21.1c-1.2,0-2.2-1-2.2-2.2V362c0-1.2,1-2.2,2.2-2.2h24.3c1.2,0,2.2,1,2.2,2.2v0.1
			C47.6,363.3,46.7,364.3,45.4,364.3z"/>
	</g>
	<g>
		<circle cx="45.5" cy="385.6" r="7.7"/>
		<linearGradient id="SVGID_27_" gradientUnits="userSpaceOnUse" x1="33.2775" y1="384.4408" x2="33.2775" y2="379.9711">
			<stop  offset="0" style="stop-color:#585858"/>
			<stop  offset="6.769966e-02" style="stop-color:#606060"/>
			<stop  offset="0.1734" style="stop-color:#767676"/>
			<stop  offset="0.3038" style="stop-color:#9A9A9A"/>
			<stop  offset="0.4525" style="stop-color:#CCCCCC"/>
			<stop  offset="0.586" style="stop-color:#FFFFFF"/>
			<stop  offset="0.8523" style="stop-color:#919191"/>
			<stop  offset="1" style="stop-color:#585858"/>
		</linearGradient>
		<path class="st28" d="M45.4,384.4H21.1c-1.2,0-2.2-1-2.2-2.2v-0.1c0-1.2,1-2.2,2.2-2.2h24.3c1.2,0,2.2,1,2.2,2.2v0.1
			C47.6,383.5,46.7,384.4,45.4,384.4z"/>
		<linearGradient id="SVGID_28_" gradientUnits="userSpaceOnUse" x1="33.2775" y1="391.1589" x2="33.2775" y2="386.6891">
			<stop  offset="0" style="stop-color:#585858"/>
			<stop  offset="6.769966e-02" style="stop-color:#606060"/>
			<stop  offset="0.1734" style="stop-color:#767676"/>
			<stop  offset="0.3038" style="stop-color:#9A9A9A"/>
			<stop  offset="0.4525" style="stop-color:#CCCCCC"/>
			<stop  offset="0.586" style="stop-color:#FFFFFF"/>
			<stop  offset="0.8523" style="stop-color:#919191"/>
			<stop  offset="1" style="stop-color:#585858"/>
		</linearGradient>
		<path class="st29" d="M45.4,391.2H21.1c-1.2,0-2.2-1-2.2-2.2v-0.1c0-1.2,1-2.2,2.2-2.2h24.3c1.2,0,2.2,1,2.2,2.2v0.1
			C47.6,390.2,46.7,391.2,45.4,391.2z"/>
	</g>
	<g>
		<circle cx="45.5" cy="412.5" r="7.7"/>
		<linearGradient id="SVGID_29_" gradientUnits="userSpaceOnUse" x1="33.2775" y1="411.313" x2="33.2775" y2="406.8433">
			<stop  offset="0" style="stop-color:#585858"/>
			<stop  offset="6.769966e-02" style="stop-color:#606060"/>
			<stop  offset="0.1734" style="stop-color:#767676"/>
			<stop  offset="0.3038" style="stop-color:#9A9A9A"/>
			<stop  offset="0.4525" style="stop-color:#CCCCCC"/>
			<stop  offset="0.586" style="stop-color:#FFFFFF"/>
			<stop  offset="0.8523" style="stop-color:#919191"/>
			<stop  offset="1" style="stop-color:#585858"/>
		</linearGradient>
		<path class="st30" d="M45.4,411.3H21.1c-1.2,0-2.2-1-2.2-2.2V409c0-1.2,1-2.2,2.2-2.2h24.3c1.2,0,2.2,1,2.2,2.2v0.1
			C47.6,410.3,46.7,411.3,45.4,411.3z"/>
		<linearGradient id="SVGID_30_" gradientUnits="userSpaceOnUse" x1="33.2775" y1="418.031" x2="33.2775" y2="413.5613">
			<stop  offset="0" style="stop-color:#585858"/>
			<stop  offset="6.769966e-02" style="stop-color:#606060"/>
			<stop  offset="0.1734" style="stop-color:#767676"/>
			<stop  offset="0.3038" style="stop-color:#9A9A9A"/>
			<stop  offset="0.4525" style="stop-color:#CCCCCC"/>
			<stop  offset="0.586" style="stop-color:#FFFFFF"/>
			<stop  offset="0.8523" style="stop-color:#919191"/>
			<stop  offset="1" style="stop-color:#585858"/>
		</linearGradient>
		<path class="st31" d="M45.4,418H21.1c-1.2,0-2.2-1-2.2-2.2v-0.1c0-1.2,1-2.2,2.2-2.2h24.3c1.2,0,2.2,1,2.2,2.2v0.1
			C47.6,417,46.7,418,45.4,418z"/>
	</g>
	<g>
		<circle cx="45.5" cy="439.4" r="7.7"/>
		<linearGradient id="SVGID_31_" gradientUnits="userSpaceOnUse" x1="33.2775" y1="438.1852" x2="33.2775" y2="433.7154">
			<stop  offset="0" style="stop-color:#585858"/>
			<stop  offset="6.769966e-02" style="stop-color:#606060"/>
			<stop  offset="0.1734" style="stop-color:#767676"/>
			<stop  offset="0.3038" style="stop-color:#9A9A9A"/>
			<stop  offset="0.4525" style="stop-color:#CCCCCC"/>
			<stop  offset="0.586" style="stop-color:#FFFFFF"/>
			<stop  offset="0.8523" style="stop-color:#919191"/>
			<stop  offset="1" style="stop-color:#585858"/>
		</linearGradient>
		<path class="st32" d="M45.4,438.2H21.1c-1.2,0-2.2-1-2.2-2.2v-0.1c0-1.2,1-2.2,2.2-2.2h24.3c1.2,0,2.2,1,2.2,2.2v0.1
			C47.6,437.2,46.7,438.2,45.4,438.2z"/>
		<linearGradient id="SVGID_32_" gradientUnits="userSpaceOnUse" x1="33.2775" y1="444.9032" x2="33.2775" y2="440.4335">
			<stop  offset="0" style="stop-color:#585858"/>
			<stop  offset="6.769966e-02" style="stop-color:#606060"/>
			<stop  offset="0.1734" style="stop-color:#767676"/>
			<stop  offset="0.3038" style="stop-color:#9A9A9A"/>
			<stop  offset="0.4525" style="stop-color:#CCCCCC"/>
			<stop  offset="0.586" style="stop-color:#FFFFFF"/>
			<stop  offset="0.8523" style="stop-color:#919191"/>
			<stop  offset="1" style="stop-color:#585858"/>
		</linearGradient>
		<path class="st33" d="M45.4,444.9H21.1c-1.2,0-2.2-1-2.2-2.2v-0.1c0-1.2,1-2.2,2.2-2.2h24.3c1.2,0,2.2,1,2.2,2.2v0.1
			C47.6,443.9,46.7,444.9,45.4,444.9z"/>
	</g>
	<g>
		<circle cx="45.5" cy="466.2" r="7.7"/>
		<linearGradient id="SVGID_33_" gradientUnits="userSpaceOnUse" x1="33.2775" y1="465.0573" x2="33.2775" y2="460.5876">
			<stop  offset="0" style="stop-color:#585858"/>
			<stop  offset="6.769966e-02" style="stop-color:#606060"/>
			<stop  offset="0.1734" style="stop-color:#767676"/>
			<stop  offset="0.3038" style="stop-color:#9A9A9A"/>
			<stop  offset="0.4525" style="stop-color:#CCCCCC"/>
			<stop  offset="0.586" style="stop-color:#FFFFFF"/>
			<stop  offset="0.8523" style="stop-color:#919191"/>
			<stop  offset="1" style="stop-color:#585858"/>
		</linearGradient>
		<path class="st34" d="M45.4,465.1H21.1c-1.2,0-2.2-1-2.2-2.2v-0.1c0-1.2,1-2.2,2.2-2.2h24.3c1.2,0,2.2,1,2.2,2.2v0.1
			C47.6,464.1,46.7,465.1,45.4,465.1z"/>
		<linearGradient id="SVGID_34_" gradientUnits="userSpaceOnUse" x1="33.2775" y1="471.7753" x2="33.2775" y2="467.3056">
			<stop  offset="0" style="stop-color:#585858"/>
			<stop  offset="6.769966e-02" style="stop-color:#606060"/>
			<stop  offset="0.1734" style="stop-color:#767676"/>
			<stop  offset="0.3038" style="stop-color:#9A9A9A"/>
			<stop  offset="0.4525" style="stop-color:#CCCCCC"/>
			<stop  offset="0.586" style="stop-color:#FFFFFF"/>
			<stop  offset="0.8523" style="stop-color:#919191"/>
			<stop  offset="1" style="stop-color:#585858"/>
		</linearGradient>
		<path class="st35" d="M45.4,471.8H21.1c-1.2,0-2.2-1-2.2-2.2v-0.1c0-1.2,1-2.2,2.2-2.2h24.3c1.2,0,2.2,1,2.2,2.2v0.1
			C47.6,470.8,46.7,471.8,45.4,471.8z"/>
	</g>
	<g>
		<circle cx="45.5" cy="493.1" r="7.7"/>
		<linearGradient id="SVGID_35_" gradientUnits="userSpaceOnUse" x1="33.2775" y1="491.9295" x2="33.2775" y2="487.4597">
			<stop  offset="0" style="stop-color:#585858"/>
			<stop  offset="6.769966e-02" style="stop-color:#606060"/>
			<stop  offset="0.1734" style="stop-color:#767676"/>
			<stop  offset="0.3038" style="stop-color:#9A9A9A"/>
			<stop  offset="0.4525" style="stop-color:#CCCCCC"/>
			<stop  offset="0.586" style="stop-color:#FFFFFF"/>
			<stop  offset="0.8523" style="stop-color:#919191"/>
			<stop  offset="1" style="stop-color:#585858"/>
		</linearGradient>
		<path class="st36" d="M45.4,491.9H21.1c-1.2,0-2.2-1-2.2-2.2v-0.1c0-1.2,1-2.2,2.2-2.2h24.3c1.2,0,2.2,1,2.2,2.2v0.1
			C47.6,490.9,46.7,491.9,45.4,491.9z"/>
		<linearGradient id="SVGID_36_" gradientUnits="userSpaceOnUse" x1="33.2775" y1="498.6475" x2="33.2775" y2="494.1778">
			<stop  offset="0" style="stop-color:#585858"/>
			<stop  offset="6.769966e-02" style="stop-color:#606060"/>
			<stop  offset="0.1734" style="stop-color:#767676"/>
			<stop  offset="0.3038" style="stop-color:#9A9A9A"/>
			<stop  offset="0.4525" style="stop-color:#CCCCCC"/>
			<stop  offset="0.586" style="stop-color:#FFFFFF"/>
			<stop  offset="0.8523" style="stop-color:#919191"/>
			<stop  offset="1" style="stop-color:#585858"/>
		</linearGradient>
		<path class="st37" d="M45.4,498.6H21.1c-1.2,0-2.2-1-2.2-2.2v-0.1c0-1.2,1-2.2,2.2-2.2h24.3c1.2,0,2.2,1,2.2,2.2v0.1
			C47.6,497.7,46.7,498.6,45.4,498.6z"/>
	</g>
	<g>
		<circle cx="45.5" cy="520" r="7.7"/>
		<linearGradient id="SVGID_37_" gradientUnits="userSpaceOnUse" x1="33.2775" y1="518.8016" x2="33.2775" y2="514.3319">
			<stop  offset="0" style="stop-color:#585858"/>
			<stop  offset="6.769966e-02" style="stop-color:#606060"/>
			<stop  offset="0.1734" style="stop-color:#767676"/>
			<stop  offset="0.3038" style="stop-color:#9A9A9A"/>
			<stop  offset="0.4525" style="stop-color:#CCCCCC"/>
			<stop  offset="0.586" style="stop-color:#FFFFFF"/>
			<stop  offset="0.8523" style="stop-color:#919191"/>
			<stop  offset="1" style="stop-color:#585858"/>
		</linearGradient>
		<path class="st38" d="M45.4,518.8H21.1c-1.2,0-2.2-1-2.2-2.2v-0.1c0-1.2,1-2.2,2.2-2.2h24.3c1.2,0,2.2,1,2.2,2.2v0.1
			C47.6,517.8,46.7,518.8,45.4,518.8z"/>
		<linearGradient id="SVGID_38_" gradientUnits="userSpaceOnUse" x1="33.2775" y1="525.5197" x2="33.2775" y2="521.0499">
			<stop  offset="0" style="stop-color:#585858"/>
			<stop  offset="6.769966e-02" style="stop-color:#606060"/>
			<stop  offset="0.1734" style="stop-color:#767676"/>
			<stop  offset="0.3038" style="stop-color:#9A9A9A"/>
			<stop  offset="0.4525" style="stop-color:#CCCCCC"/>
			<stop  offset="0.586" style="stop-color:#FFFFFF"/>
			<stop  offset="0.8523" style="stop-color:#919191"/>
			<stop  offset="1" style="stop-color:#585858"/>
		</linearGradient>
		<path class="st39" d="M45.4,525.5H21.1c-1.2,0-2.2-1-2.2-2.2v-0.1c0-1.2,1-2.2,2.2-2.2h24.3c1.2,0,2.2,1,2.2,2.2v0.1
			C47.6,524.5,46.7,525.5,45.4,525.5z"/>
	</g>
	<g>
		<circle cx="45.5" cy="546.8" r="7.7"/>
		<linearGradient id="SVGID_39_" gradientUnits="userSpaceOnUse" x1="33.2775" y1="545.6738" x2="33.2775" y2="541.204">
			<stop  offset="0" style="stop-color:#585858"/>
			<stop  offset="6.769966e-02" style="stop-color:#606060"/>
			<stop  offset="0.1734" style="stop-color:#767676"/>
			<stop  offset="0.3038" style="stop-color:#9A9A9A"/>
			<stop  offset="0.4525" style="stop-color:#CCCCCC"/>
			<stop  offset="0.586" style="stop-color:#FFFFFF"/>
			<stop  offset="0.8523" style="stop-color:#919191"/>
			<stop  offset="1" style="stop-color:#585858"/>
		</linearGradient>
		<path class="st40" d="M45.4,545.7H21.1c-1.2,0-2.2-1-2.2-2.2v-0.1c0-1.2,1-2.2,2.2-2.2h24.3c1.2,0,2.2,1,2.2,2.2v0.1
			C47.6,544.7,46.7,545.7,45.4,545.7z"/>
		<linearGradient id="SVGID_40_" gradientUnits="userSpaceOnUse" x1="33.2775" y1="552.3918" x2="33.2775" y2="547.9221">
			<stop  offset="0" style="stop-color:#585858"/>
			<stop  offset="6.769966e-02" style="stop-color:#606060"/>
			<stop  offset="0.1734" style="stop-color:#767676"/>
			<stop  offset="0.3038" style="stop-color:#9A9A9A"/>
			<stop  offset="0.4525" style="stop-color:#CCCCCC"/>
			<stop  offset="0.586" style="stop-color:#FFFFFF"/>
			<stop  offset="0.8523" style="stop-color:#919191"/>
			<stop  offset="1" style="stop-color:#585858"/>
		</linearGradient>
		<path class="st41" d="M45.4,552.4H21.1c-1.2,0-2.2-1-2.2-2.2v-0.1c0-1.2,1-2.2,2.2-2.2h24.3c1.2,0,2.2,1,2.2,2.2v0.1
			C47.6,551.4,46.7,552.4,45.4,552.4z"/>
	</g>
	<g>
		<circle cx="45.5" cy="573.7" r="7.7"/>
		<linearGradient id="SVGID_41_" gradientUnits="userSpaceOnUse" x1="33.2775" y1="572.546" x2="33.2775" y2="568.0762">
			<stop  offset="0" style="stop-color:#585858"/>
			<stop  offset="6.769966e-02" style="stop-color:#606060"/>
			<stop  offset="0.1734" style="stop-color:#767676"/>
			<stop  offset="0.3038" style="stop-color:#9A9A9A"/>
			<stop  offset="0.4525" style="stop-color:#CCCCCC"/>
			<stop  offset="0.586" style="stop-color:#FFFFFF"/>
			<stop  offset="0.8523" style="stop-color:#919191"/>
			<stop  offset="1" style="stop-color:#585858"/>
		</linearGradient>
		<path class="st42" d="M45.4,572.5H21.1c-1.2,0-2.2-1-2.2-2.2v-0.1c0-1.2,1-2.2,2.2-2.2h24.3c1.2,0,2.2,1,2.2,2.2v0.1
			C47.6,571.6,46.7,572.5,45.4,572.5z"/>
		<linearGradient id="SVGID_42_" gradientUnits="userSpaceOnUse" x1="33.2775" y1="579.264" x2="33.2775" y2="574.7943">
			<stop  offset="0" style="stop-color:#585858"/>
			<stop  offset="6.769966e-02" style="stop-color:#606060"/>
			<stop  offset="0.1734" style="stop-color:#767676"/>
			<stop  offset="0.3038" style="stop-color:#9A9A9A"/>
			<stop  offset="0.4525" style="stop-color:#CCCCCC"/>
			<stop  offset="0.586" style="stop-color:#FFFFFF"/>
			<stop  offset="0.8523" style="stop-color:#919191"/>
			<stop  offset="1" style="stop-color:#585858"/>
		</linearGradient>
		<path class="st43" d="M45.4,579.3H21.1c-1.2,0-2.2-1-2.2-2.2V577c0-1.2,1-2.2,2.2-2.2h24.3c1.2,0,2.2,1,2.2,2.2v0.1
			C47.6,578.3,46.7,579.3,45.4,579.3z"/>
	</g>
</g>
</svg>
