<?xml version="1.0" encoding="utf-8"?>
<!-- Generator: Adobe Illustrator 21.1.0, SVG Export Plug-In . SVG Version: 6.00 Build 0)  -->
<svg version="1.1" id="Layer_1" xmlns="http://www.w3.org/2000/svg" xmlns:xlink="http://www.w3.org/1999/xlink" x="0px" y="0px"
	 viewBox="0 0 230 160" style="enable-background:new 0 0 230 160;" xml:space="preserve">
<style type="text/css">
	.st0{fill:#EEEEEE;}
	.st1{fill:#3E92D7;}
</style>
<path class="st0" d="M2,35.3c0-2.3,0.4-4.6,1-6.7c-0.9,2.4-1.3,5-1.3,7.7v22.3H2V35.3z"/>
<path class="st0" d="M24.7,13.3h181c12.7,0,23,10.4,23,23v22.3h0.3V35.3c0-12.6-10.3-23-23-23H25c-10.3,0-19.1,6.9-22,16.3
	C6.2,19.7,14.7,13.3,24.7,13.3z"/>
<path class="st1" d="M1,58.7h226.7V36.3c0-12.6-10.3-23-23-23h-181c-10,0-18.5,6.4-21.7,15.3c-0.6,2.1-1,4.4-1,6.7
	C1,35.3,1,58.7,1,58.7z"/>
<path class="st0" d="M24.7,157.7h181c10.3,0,19.1-6.9,22-16.3c-3.2,8.9-11.7,15.3-21.7,15.3H25c-12.6,0-23-10.3-23-23v-75H1.7v76
	C1.7,147.3,12,157.7,24.7,157.7z"/>
<path class="st0" d="M228.7,134.7c0,2.3-0.4,4.6-1,6.7c0.9-2.4,1.3-5,1.3-7.7v-75h-0.3V134.7z"/>
<path class="st0" d="M228.7,58.7H2v75c0,12.7,10.4,23,23,23h181c10,0,18.5-6.4,21.7-15.3c0.6-2.1,1-4.4,1-6.7V58.7z"/>
<path class="st0" d="M35.8,26.7L35.8,26.7c-4.9,0-8.8-4-8.8-8.8v-6.7c0-4.9,4-8.8,8.8-8.8l0,0c4.9,0,8.8,4,8.8,8.8v6.7
	C44.7,22.7,40.7,26.7,35.8,26.7z"/>
<path class="st0" d="M186.8,27L186.8,27c-4.9,0-8.8-4-8.8-8.8v-6.7c0-4.9,4-8.8,8.8-8.8l0,0c4.9,0,8.8,4,8.8,8.8v6.7
	C195.7,23,191.7,27,186.8,27z"/>
</svg>
