<?xml version="1.0" encoding="utf-8"?>
<!-- Generator: Adobe Illustrator 21.1.0, SVG Export Plug-In . SVG Version: 6.00 Build 0)  -->
<svg version="1.1" id="Layer_1" xmlns="http://www.w3.org/2000/svg" xmlns:xlink="http://www.w3.org/1999/xlink" x="0px" y="0px"
	 viewBox="0 0 371 70" style="enable-background:new 0 0 371 70;" xml:space="preserve">
<style type="text/css">
	.st0{fill:#575757;}
</style>
<g>
	<path class="st0" d="M94.2,38.2c0-3.9,0.1-7.9,0.7-11.8c0.4-2.4,1-4.8,2.2-7c1.8-3.4,4.5-5.5,8.2-6.5c3.6-0.9,7.3-1,10.9-0.2
		c5.3,1.2,8.5,4.6,9.7,9.8c0.6,2.3,0.7,4.6,0.7,7c0,0.4-0.1,0.6-0.6,0.6c-3,0-6,0-9,0c-0.5,0-0.6-0.2-0.6-0.7c0-1.8-0.1-3.7-0.6-5.4
		c-1-3.8-4.7-5.5-7.9-3.7c-1.5,0.8-2.2,2.3-2.6,3.9c-0.7,2.2-0.9,4.5-1,6.8c-0.2,4.1-0.3,8.3-0.1,12.4c0.1,3,0.3,6,1.1,8.9
		c0.2,0.5,0.3,1.1,0.6,1.6c1.4,3,5.4,4,8,1.9c0.9-0.7,1.4-1.6,1.8-2.7c1-2.6,1.1-5.4,1.1-8.1c0-1-0.2-0.9,0.9-0.9c2.8,0,5.7,0,8.5,0
		c0.5,0,0.7,0.1,0.7,0.7c-0.1,3.7-0.4,7.4-1.7,10.9c-2,5.1-5.8,7.7-11.1,8.4c-2.8,0.4-5.7,0.3-8.5-0.3c-5-1.1-8.2-4.2-9.8-9
		c-1-3-1.4-6.2-1.7-9.4C94.2,42.9,94.2,40.6,94.2,38.2z"/>
	<path class="st0" d="M339.9,39.6c1.6-2.3,3.2-4.6,4.8-6.9c1.5-2.2,3.1-4.5,4.6-6.7c0.2-0.3,0.4-0.5,0.7-0.5c3.3,0,6.7,0,10,0
		c0.1,0,0.1,0,0.3,0.1c-1,1.4-2,2.7-2.9,4.1c-2.5,3.4-5,6.8-7.5,10.2c-0.3,0.5-0.3,0.8-0.1,1.2c3.9,7.2,7.8,14.3,11.8,21.5
		c0.4,0.7,0.4,0.7-0.5,0.7c-3,0-6.1,0-9.1,0c-0.5,0-0.8-0.1-1-0.6c-2.4-4.6-4.8-9.3-7.2-13.9c-0.1-0.2-0.2-0.4-0.3-0.6
		c-0.1-0.3-0.2-0.4-0.5-0.1c-1,1.3-2,2.6-3,3.9c-0.2,0.3-0.2,0.5-0.2,0.8c0,3.3,0,6.5,0,9.8c0,0.5-0.1,0.7-0.7,0.7
		c-2.8,0-5.6,0-8.4,0c-0.5,0-0.6-0.1-0.6-0.6c0-16.3,0-32.6,0-48.9c0-0.5,0.1-0.6,0.6-0.6c2.9,0,5.7,0,8.6,0c0.5,0,0.6,0.2,0.6,0.6
		c0,4.3,0,8.6,0,12.8c0,4.2,0,8.4,0,12.5c0,0.1,0,0.2,0,0.3C339.8,39.5,339.9,39.6,339.9,39.6z"/>
	<path class="st0" d="M304,29.9c0.8-1,1.5-2,2.5-2.8c2.4-2,5.3-2.6,8.3-2.4c2.3,0.2,4.4,0.8,6,2.6c1.6,1.7,2.2,3.8,2.4,6
		c0.1,1.2,0.1,2.4,0.1,3.6c0,8.6,0,17.1,0,25.7c0,0.7-0.2,0.9-0.9,0.8c-2.7,0-5.3-0.1-8,0c-0.8,0-0.9-0.2-0.9-0.9
		c0-8.4,0-16.8,0-25.2c0-1.1-0.1-2.1-0.5-3.1c-0.4-1-1.1-1.6-2.1-1.9c-2.9-0.6-5.8,0.2-6.5,4c-0.1,0.7-0.2,1.3-0.2,2
		c0,8.1,0,16.2,0,24.3c0,0.6-0.2,0.8-0.8,0.8c-2.8,0-5.5,0-8.3,0c-0.5,0-0.6-0.1-0.6-0.6c0-12.2,0-24.3,0-36.5
		c0-0.6,0.2-0.7,0.7-0.7c2.7,0,5.3,0,8,0c0.5,0,0.6,0.1,0.6,0.6C304,27.4,304,28.6,304,29.9z"/>
	<path class="st0" d="M235.4,36.9c-1.2,0-2.5,0-3.7,0c-0.5,0-0.7-0.1-0.7-0.7c0-0.9-0.1-1.7-0.4-2.5c-0.4-1.4-1.4-2.2-2.8-2.4
		c-1.1-0.2-2.1-0.1-3.1,0.3c-1.3,0.6-2.2,1.5-2.4,3c-0.2,1.5,0.2,2.8,1.5,3.8c0.9,0.7,2,1.1,3.1,1.5c2.4,0.8,4.9,1.5,7.2,2.5
		c2.2,0.9,4.1,2.3,5.3,4.5c0.9,1.8,1.2,3.8,1.1,5.8c-0.1,4-1.6,7.3-5.1,9.5c-1.4,0.9-3,1.5-4.6,1.8c-3.7,0.7-7.5,0.6-11.1-0.5
		c-4-1.2-6.2-3.9-6.9-8c-0.2-1.2-0.2-2.5-0.2-3.8c0-0.5,0.1-0.7,0.6-0.7c2.5,0,5,0,7.6,0c0.5,0,0.6,0.1,0.6,0.6c0,0.6,0,1.2,0.1,1.8
		c0.5,3.2,2.9,4.8,6.2,4.2c3.2-0.6,4.1-3.2,3.4-5.7c-0.4-1.3-1.4-2.1-2.6-2.6c-1.8-0.7-3.6-1.3-5.5-2c-2-0.7-4.1-1.4-5.9-2.7
		c-2.6-1.9-4-4.4-4.2-7.6c-0.1-1.7,0-3.5,0.6-5.1c0.9-2.6,2.7-4.6,5.3-5.7c4.8-2.1,9.8-2.1,14.7-0.4c3.9,1.3,5.8,4.3,6.1,8.3
		c0.1,0.8,0,1.5,0.1,2.3c0,0.4-0.1,0.6-0.6,0.6C237.9,36.9,236.6,36.9,235.4,36.9C235.4,36.9,235.4,36.9,235.4,36.9z"/>
	<path class="st0" d="M204.2,36.9c-1.3,0-2.5,0-3.8,0c-0.5,0-0.6-0.2-0.6-0.6c0-1-0.1-2-0.6-3c-0.4-0.9-1-1.5-2-1.8
		c-1.2-0.4-2.4-0.4-3.6,0.1c-1.5,0.5-2.4,1.5-2.6,3.2c-0.2,1.6,0.4,2.9,1.7,3.8c0.8,0.5,1.6,0.9,2.5,1.2c2.5,0.8,5,1.6,7.4,2.6
		c4.7,1.8,6.6,4.8,6.7,9.9c0,3.4-0.9,6.5-3.5,8.8c-2,1.8-4.5,2.7-7.1,3.1c-3.3,0.5-6.6,0.4-9.9-0.5c-4.4-1.2-7-4.3-7.3-8.9
		c-0.1-1-0.1-2.1-0.1-3.1c0-0.4,0.1-0.6,0.6-0.6c2.5,0,5.1,0,7.6,0c0.4,0,0.6,0.1,0.6,0.5c-0.1,0.9,0,1.9,0.3,2.8
		c0.8,2.8,3.5,4,6.7,3.2c3.4-0.9,3.6-5,2.2-6.7c-0.7-0.9-1.7-1.4-2.7-1.7c-2.3-0.8-4.6-1.7-7-2.5c-2-0.7-3.8-1.7-5.3-3.3
		c-1.7-1.9-2.5-4.1-2.6-6.6c-0.1-3.5,0.9-6.7,3.7-9c1.8-1.5,3.9-2.2,6.2-2.6c3.4-0.5,6.7-0.5,10,0.5c4.2,1.3,6.7,4.5,6.9,8.9
		c0,0.6,0,1.2,0,1.9c0,0.5-0.1,0.7-0.7,0.7C206.7,36.8,205.5,36.9,204.2,36.9z"/>
	<path class="st0" d="M255.8,55c0.2,0,0.4,0,0.6,0c5.4,0,10.8,0,16.2,0c1,0,1,0,1,1c0,2.2,0,4.5,0,6.7c0,0.6-0.2,0.6-0.6,0.6
		c-3.5,0-7,0-10.5,0c-5.3,0-10.7,0-16,0c-0.7,0-0.8-0.2-0.8-0.8c0-16.2,0-32.3,0-48.5c0-0.7,0.2-0.8,0.9-0.8c2.8,0,5.7,0,8.5,0
		c0.2,0,0.9-0.3,0.7,0.5c0,0,0,0.1,0,0.1c0,0.1,0,0.2,0,0.3c0,5.7,0,11.3,0,17c0,7.8,0,15.5,0,23.3c0,0.2,0,0.5,0.2,0.7
		C255.7,55,255.8,55,255.8,55z"/>
	<path class="st0" d="M132.9,38.2c0-8,0-16,0-24c0-0.7,0.1-1,0.9-0.9c2.8,0.1,5.5,0,8.3,0c0.4,0,0.6,0.1,0.6,0.6c0,0.2,0,0.4,0,0.6
		c0,16,0,31.9,0,47.9c0,1.3,0,1.1-1.1,1.1c-2.6,0-5.3,0-7.9,0c-0.7,0-0.8-0.2-0.8-0.8C132.9,54.4,132.9,46.3,132.9,38.2z"/>
	<path class="st0" d="M287.9,44.4c0,6,0,12.1,0,18.1c0,0.6-0.1,0.8-0.8,0.8c-2.8,0-5.5,0-8.3,0c-0.5,0-0.7-0.1-0.7-0.7
		c0-12.1,0-24.3,0-36.4c0-0.6,0.2-0.7,0.7-0.7c2.8,0,5.5,0,8.3,0c0.6,0,0.7,0.1,0.7,0.7C287.9,32.3,287.9,38.4,287.9,44.4z"/>
	<path class="st0" d="M283.1,12.6c1.4,0,2.8,0,4.3,0c0.4,0,0.6,0.1,0.6,0.5c0,2.4,0,4.8,0,7.2c0,0.5-0.1,0.6-0.6,0.6
		c-2.8,0-5.7,0-8.5,0c-0.4,0-0.6-0.1-0.6-0.6c0-2.4,0-4.8,0-7.3c0-0.4,0.1-0.5,0.5-0.5C280.2,12.6,281.6,12.6,283.1,12.6
		C283.1,12.6,283.1,12.6,283.1,12.6z"/>
	<path class="st0" d="M255.7,13.7c0.2,0.2,0.1,0.5,0.1,0.8c0,13.2,0,26.4,0,39.6c0,0.3,0,0.6,0,0.9c0,0-0.1,0-0.1,0
		c-0.2,0-0.2-0.2-0.3-0.4c0-0.3,0-0.5,0-0.8c0-13.1,0-26.1,0-39.2C255.5,14.4,255.4,14,255.7,13.7L255.7,13.7z"/>
	<path class="st0" d="M176.4,57.9c0-6,0-12,0-18c0-2,0-4.1-0.1-6.1c-0.3-4.4-2.6-7.2-6.8-8.4c-3.7-1-7.5-1.1-11.2-0.4
		c-2.9,0.6-5.4,1.8-7.1,4.4c-1.5,2.2-1.8,4.7-1.8,7.2c0,0.5,0.3,0.4,0.6,0.4c2.5,0,5,0,7.5,0c0.6,0,0.7-0.2,0.7-0.7
		c-0.1-1,0.1-2,0.5-2.9c1.3-3,6-2.6,7.4-1.1c2,2.3,1.2,6.3-1.6,7.4c-0.5,0.2-1,0.3-1.6,0.5c-2.6,0.7-5.2,1.3-7.7,2.2
		c-2.6,1-4.8,2.4-5.9,5.1c-1.3,3.2-1.4,6.4-0.5,9.7c0.8,3,2.4,5.4,5.4,6.5c1.6,0.6,3.3,0.5,4.9,0.5c3.3-0.1,5.9-1.4,7.6-4.3
		c0.1-0.2,0.1-0.4,0.4-0.4c0.2,1.1,0.5,2.3,0.9,3.4c0.1,0.3,0.3,0.5,0.7,0.5c2.9,0,5.8,0,8.8,0C176.7,61.5,176.4,59.7,176.4,57.9z
		 M166.9,52.7c-0.3,3.7-4,5.2-6.4,4.9c-1.1-0.1-1.9-0.8-2.4-1.9c-0.9-2-0.9-4.1-0.1-6.2c0.3-0.8,0.9-1.5,1.7-2
		c0.6-0.4,1.3-0.7,2-0.9c1.8-0.5,3.7-1,5.3-2.2c0.1,0.6,0.1,1.1,0.1,1.5C167,48.2,167.1,50.5,166.9,52.7z"/>
	<path class="st0" d="M255.6,13.7c0,9.6,0,19.2,0,28.8c0,3.9,0,7.8,0,11.8c0,0.3-0.1,0.6,0.1,0.8c0,0.1,0,0.2,0,0.3
		c-0.1,0.1-0.1-0.1-0.2-0.1c-0.1-0.1-0.2-0.3-0.2-0.4c0.1-0.3,0.1-0.6,0.1-0.8c0-13.1,0-26.3,0-39.4c0-0.3-0.1-0.6,0.1-0.8
		C255.5,13.7,255.6,13.7,255.6,13.7z"/>
	<path class="st0" d="M255.5,13.7c0,13.4,0,26.8,0,40.2c0,0.3,0.1,0.6-0.1,0.9c0-13.4,0-26.8,0-40.2C255.4,14.3,255.2,14,255.5,13.7
		z"/>
	<path class="st0" d="M86.7,42.6c-1.8-6.1-6-10.1-11.8-12.5c-0.5-0.2-0.6-0.3-0.4-0.8c1.6-5.9,0.9-11.4-3.2-16.2
		c-2.7-3.2-6.2-4.7-10.1-5.6c-5-1.1-9.6-0.4-13.7,2.8c-2.4,1.9-4.2,4.3-5.6,7c-0.2,0.5-0.4,0.5-0.8,0.2c-2.6-2.1-5.5-3.4-8.9-3
		c-4.6,0.4-8.1,2.7-10.5,6.6c-1.6,2.6-1.5,5.5-0.9,8.4c0.1,0.5,0,0.7-0.5,0.9c-2.5,0.9-4.7,2.3-6.6,4c-3.9,3.5-5.7,8-5.7,13.2
		c0,3.4,0.9,6.6,3,9.3c1.5,1.9,3.3,3.3,5.5,4.4c3.2,1.6,6.5,2.7,10.1,2.6c2.1-0.1,4.1-0.1,6.2-0.1c7.5,0,14.9-0.1,22.4-0.1
		c4,0,7.9-0.1,11.9-0.1c0.8,0,1.5,0,2.3,0c3.2,0.1,6.2-0.6,9-1.9c4.1-1.8,7.3-4.6,8.6-9.1C87.9,49.3,87.7,45.9,86.7,42.6z
		 M64.6,47.2c-1.1,1.2-2.3,2.3-3.5,3.3c-3.5,2.8-7.5,4.8-11.9,5.6c-3.7,0.7-7.4,0.5-10.9-1C35.8,54,34,52.3,33,49.9
		c-0.2-0.4-0.4-0.6-0.7-0.7c-0.6-0.2-1.1-0.5-1.5-0.9c-1.6-1.3-1.8-3-1.2-4.9c0.4-1.5,1.3-2.8,2.3-3.9c0.4-0.4,0.6-0.8,0.8-1.3
		c1.9-5.2,5.4-9.2,9.9-12.4c1.2-0.9,2.6-1.1,4-1.1c1.2,0,2.5,0.5,3.9,0.8c-0.7,0.4-1.4,0.8-2,1.2c-3.9,2.3-7.2,5.2-9.6,9.1
		c-1.8,2.8-2.8,5.9-2.7,9.3c0.1,2.3,0.2,2.4,2.5,2.1c2.6-0.3,5.2-0.9,7.6-1.9c0.9-0.4,1-0.5,0.7-1.4c-0.3-1.2-1.1-2.1-2.2-2.7
		c-1.3-0.7-2.8-1.1-4.3-1.4c2.1,0,4.2-0.1,6.3-0.8c3-1.1,5.2-3.2,7.1-5.6c0.1-0.1,0.2-0.3,0.3-0.4c0.4-1,1.3-1.1,2.2-1
		c-0.6,1-1.1,2-1.7,3c-0.7,1.3-1.3,2.7-1.5,4.1c0,0.1,0,0.2-0.1,0.3c0,0.7-0.2,1.5,0.3,1.9c0.4,0.3,0.9-0.5,1.4-0.8
		c2-1.6,3.9-3.2,5.1-5.5c0.4-0.7,0.6-1.4,0.6-2.2c0-0.5-0.2-0.8-0.7-1c-0.7-0.3-1.4-0.4-2.2-0.3c-0.8,0.1-0.7-0.6-1-0.9
		c-0.3-0.4,0-0.6,0.2-0.8c0.6-0.6,1.1-1.2,1.6-1.9c0.2-0.3,0.5-0.4,0.9-0.3c1.1,0.3,2.2,0.7,3.1,1.4c1.7,1.2,2.3,2.8,1.9,4.8
		c-0.4,2.1-1.6,3.8-2.9,5.3c-1.8,2.1-3.9,3.8-6.2,5.5c1.7,1.6,3.5,2.9,5.5,3.9c0.3,0.1,0.4,0.1,0.6-0.1c0.5-0.5,0.9-0.9,1.4-1.4
		c0.4-0.4,1.4-0.4,1.8,0C65,46.9,64.7,47.1,64.6,47.2z M49.5,34.8c0,1.4-1.1,2.5-2.5,2.6c-1.4,0-2.6-1.2-2.6-2.6
		c0-1.4,1.1-2.6,2.6-2.6C48.4,32.2,49.5,33.3,49.5,34.8z"/>
	<path class="st0" d="M60,48.6c-2-0.9-4.1-1.6-6.2-2.2c-1.5-0.4-2.4,0.1-3.3,1.1C49,49.1,48,51,47,52.9c-0.6,1.1-0.6,1.1-1.9,0.9
		c0.6-1.6,1.1-3.1,1.5-4.8c0.1-0.6,0-0.7-0.5-0.5c-2.6,0.8-5.3,1.3-8,1.3c-0.5,0-0.5,0.2-0.2,0.5c0.5,0.8,1.2,1.5,1.9,2.1
		c2.3,1.8,5,2.5,7.9,2.6c5.3,0.2,9.2-2.7,12.9-6C60.4,48.8,60.2,48.7,60,48.6z"/>
	<path class="st0" d="M31.6,42.4c-0.6,0.9-0.9,1.8-1,2.8c-0.1,1,0.1,1.3,1.3,1.6C31.6,45.3,31.6,43.8,31.6,42.4z"/>
</g>
</svg>
