<?xml version="1.0" encoding="utf-8"?>
<!-- Generator: Adobe Illustrator 21.1.0, SVG Export Plug-In . SVG Version: 6.00 Build 0)  -->
<svg version="1.1" id="Layer_1" xmlns="http://www.w3.org/2000/svg" xmlns:xlink="http://www.w3.org/1999/xlink" x="0px" y="0px"
	 viewBox="0 0 371 122" style="enable-background:new 0 0 371 122;" xml:space="preserve">
<style type="text/css">
	.st0{fill:#575757;}
</style>
<g>
	<path class="st0" d="M58.5,109.9c-0.8,0-1.5,0-2.3,0c-0.1-0.1,0-0.2,0.1-0.3c0.7-0.2,1.4-0.2,2.2,0
		C58.5,109.7,58.5,109.8,58.5,109.9z"/>
	<path class="st0" d="M58.5,109.9c0,0,0-0.1,0-0.1c0.4-0.4,0.9-0.3,1.4-0.1c0.1,0.1,0.1,0.1,0.1,0.3C59.5,109.9,59,109.9,58.5,109.9
		z"/>
	<path class="st0" d="M53.8,109.9c0-0.1,0-0.1,0-0.2c0.3-0.3,0.7-0.3,1.1-0.1c0.1,0.1,0.1,0.1,0.1,0.2
		C54.5,109.9,54.1,109.9,53.8,109.9z"/>
	<path class="st0" d="M60,109.9c0,0,0-0.1,0-0.1c0.3-0.3,0.6-0.2,0.9-0.1c0.1,0.1,0.1,0.1,0.1,0.2C60.6,109.9,60.3,109.9,60,109.9z"
		/>
	<path class="st0" d="M56.2,109.8c0,0.1,0,0.1,0,0.2c-0.3,0-0.5,0-0.8,0c-0.1-0.1,0-0.2,0-0.2C55.7,109.5,56,109.5,56.2,109.8z"/>
	<path class="st0" d="M60.9,109.9c0-0.1,0-0.1,0-0.2c0.2-0.2,0.4-0.2,0.7,0c0,0.1,0,0.1,0,0.2C61.4,109.9,61.2,109.9,60.9,109.9z"/>
	<path class="st0" d="M55.4,109.8c0,0,0,0.1,0,0.1c-0.2,0-0.3,0-0.5,0c0,0,0-0.1,0-0.1C55,109.6,55.2,109.6,55.4,109.8z"/>
	<path class="st0" d="M55.4,109.8c-0.2,0-0.3,0-0.5,0c-0.4,0-0.8,0-1.1,0c-3.8-0.3-7.5-1-11.2-2.1c-15.1-4.7-26.6-16.5-31-31.7
		c-1-3.6-1.6-7.3-1.9-11c0-2.1,0-4.3,0-6.4c0.3-3.6,0.8-7.2,1.8-10.8c4.6-16.6,17.3-29.1,34-33.2c5.3-1.3,10.6-1.7,16-1.4
		c6.2,0.3,12.3,1.4,18.1,3.9c4.5,1.9,8.6,4.6,12.3,7.9c0.8,0.7,1.5,1.4,2.2,2.1c0.6,0.5,0.7,0.4,0.1,1.1c-1.7,2-3.5,4-5.2,6.1
		c-2.3,2.6-4.6,5.3-6.8,7.9c-0.5,0.5-0.5,0.5-1,0.1c-2.3-2-4.7-3.9-7.3-5.5c-3.4-2-6.9-3.5-10.8-4.1c-7.6-1.3-14.7,0.1-20.9,4.9
		c-4.7,3.6-7.8,8.3-9.6,13.9c-1,3-1.5,6.1-1.5,9.2c-0.1,6.9,1.5,13.2,5.4,18.9c4.3,6.2,10.1,10,17.6,11.2c2.4,0.4,4.8,0.3,7.2,0.1
		c6.5-0.5,12-3.2,17-7.2c1.2-1,2.4-2,3.6-3.1c0.5-0.5,0.5-0.6,1.1,0c2.7,2.7,5.3,5.4,8,8.1c1.4,1.4,2.8,2.8,4.1,4.2
		c0.4,0.4,0.4,0.4,0,0.8c-4.7,5-10,9.4-16.4,12.2c-3.7,1.6-7.6,2.7-11.6,3.4c-1.8,0.3-3.6,0.4-5.4,0.6c-0.2,0-0.4,0-0.7,0
		c-0.3,0-0.6,0-1,0c-0.5,0-1,0-1.5,0c-0.8,0-1.5,0-2.3,0C55.9,109.8,55.7,109.8,55.4,109.8z"/>
	<path class="st0" d="M256,37.3c-0.5,1.3-1,2.6-1.5,3.8c-8.7,22.4-17.4,44.9-26.2,67.3c-0.4,1.1-0.2,1-1.4,1c-2,0-4.1,0-6.1,0
		c-3.5,0-6.9,0-10.4,0c-0.9,0-0.8,0.1-1.2-0.8c-6.7-17.3-13.5-34.6-20.2-52c-2.4-6.1-4.7-12.1-7.1-18.2c-0.1-0.4-0.3-0.7-0.4-1.1
		c0.2-0.2,0.5-0.1,0.7-0.1c6.6,0,13.2,0,19.9,0c0.8,0,0.8,0,1,0.7c3.3,9.9,6.6,19.9,9.9,29.8c1.8,5.4,3.6,10.9,5.4,16.3
		c0.1,0.3,0.1,0.6,0.4,0.8c0.6-1.6,1.1-3.3,1.6-4.9c4.7-14,9.4-28.1,14.1-42.1c0.2-0.7,0.2-0.7,0.9-0.7c6.6,0,13.1,0,19.7,0
		C255.5,37.3,255.7,37.3,256,37.3z"/>
	<path class="st0" d="M117.4,60.9c0,15.9,0,31.8,0,47.7c0,1.2,0.1,1-1.1,1c-6.1,0-12.1,0-18.2,0c-1,0-0.9,0.1-0.9-0.9
		c0-31.9,0-63.8,0-95.8c0-0.1,0-0.1,0-0.2c0-0.7,0-0.7,0.7-0.7c6.2,0,12.5,0,18.7,0c0.7,0,0.7,0,0.7,0.8c0,1.9,0,3.8,0,5.7
		C117.4,32.7,117.4,46.8,117.4,60.9z"/>
	<path class="st0" d="M338.8,52c0.2-0.5,0.4-1,0.7-1.5c1.5-3.2,3.4-6.2,6.1-8.6c2.9-2.7,6.3-4.3,10.2-5c1.6-0.3,3.3-0.4,5-0.3
		c0.7,0,0.7,0,0.7,0.7c0,4.4,0,8.8,0,13.2c0,2.2,0,4.3,0,6.5c0,1.1,0.1,1-0.9,1c-2.4,0-4.8,0.2-7.2,0.9c-6.5,1.8-10.6,6.1-12.8,12.3
		c-1,2.9-1.5,6-1.7,9c-0.2,2.9-0.1,5.8-0.1,8.7c0,6.6,0,13.2,0,19.8c0,1,0.1,0.9-0.9,0.9c-6.1,0-12.3,0-18.4,0c-1,0-0.9,0.1-0.9-0.9
		c0-23.2,0-46.5,0-69.7c0-1.1-0.1-1,1-1c6.1,0,12.2,0,18.3,0c1,0,0.9-0.1,0.9,0.9c0,4.4,0,8.7,0,13.1C338.7,52,338.8,52,338.8,52z"
		/>
	<path class="st0" d="M157.9,109.8C157.9,109.8,157.9,109.8,157.9,109.8c-0.7,0-1.3,0-2,0c0,0,0,0,0,0c0,0,0,0,0,0
		c0,0.1,0,0.1,0,0.2c0.7,0,1.3,0,2,0C157.9,109.9,157.9,109.8,157.9,109.8C157.9,109.8,157.9,109.8,157.9,109.8z"/>
	<path class="st0" d="M154.6,109.8C154.6,109.8,154.6,109.8,154.6,109.8c-0.3,0-0.6,0-1,0c0,0.1,0,0.1,0,0.2c0.3,0,0.7,0,1,0
		C154.6,109.9,154.6,109.8,154.6,109.8C154.6,109.8,154.6,109.8,154.6,109.8z"/>
	<path class="st0" d="M159.2,109.9c0.3,0,0.7,0,1,0c0-0.1,0-0.1,0-0.2c-0.3,0-0.6,0-1,0C159.2,109.8,159.2,109.9,159.2,109.9z"/>
	<path class="st0" d="M155.9,109.8c-0.3,0-0.5,0-0.8,0c0,0,0,0,0,0c0,0,0,0,0,0c0,0,0,0.1,0,0.1c0.3,0,0.5,0,0.8,0
		C155.9,109.8,155.9,109.8,155.9,109.8z"/>
	<path class="st0" d="M155.9,109.8C155.9,109.8,155.9,109.8,155.9,109.8c0,0,0,0.1,0,0.2C155.9,109.9,155.9,109.8,155.9,109.8
		C155.9,109.8,155.9,109.8,155.9,109.8z"/>
	<path class="st0" d="M158.7,109.8C158.7,109.8,158.7,109.8,158.7,109.8c-0.3,0-0.5,0-0.8,0c0,0,0,0.1,0,0.2c0.3,0,0.5,0,0.8,0
		C158.7,109.9,158.7,109.8,158.7,109.8C158.7,109.8,158.7,109.8,158.7,109.8z"/>
	<path class="st0" d="M157.9,109.8C157.9,109.8,157.9,109.8,157.9,109.8C157.9,109.8,157.9,109.8,157.9,109.8c0,0.1,0,0.1,0,0.2
		C157.9,109.8,157.9,109.8,157.9,109.8z"/>
	<path class="st0" d="M155.1,109.8c-0.1,0-0.3,0-0.4,0c0,0,0,0.1,0,0.1c0.2,0,0.3,0,0.5,0C155.1,109.8,155.1,109.8,155.1,109.8z"/>
	<path class="st0" d="M154.6,109.8C154.6,109.8,154.6,109.8,154.6,109.8C154.6,109.8,154.6,109.8,154.6,109.8c0,0,0,0.1,0,0.1
		C154.6,109.9,154.6,109.8,154.6,109.8z"/>
	<path class="st0" d="M155.1,109.8C155.1,109.8,155.1,109.8,155.1,109.8c0,0,0,0.1,0,0.1C155.1,109.9,155.1,109.8,155.1,109.8
		C155.1,109.8,155.1,109.8,155.1,109.8z"/>
	<path class="st0" d="M159.2,109.8c-0.1,0-0.3,0-0.4,0c0,0,0,0.1,0,0.1c0.2,0,0.3,0,0.5,0C159.2,109.9,159.2,109.8,159.2,109.8z"/>
	<path class="st0" d="M159.2,109.8c0,0,0,0.1,0,0.1C159.2,109.9,159.2,109.8,159.2,109.8C159.2,109.8,159.2,109.8,159.2,109.8z"/>
	<path class="st0" d="M158.7,109.8C158.7,109.8,158.7,109.8,158.7,109.8C158.7,109.8,158.7,109.8,158.7,109.8c0,0,0,0.1,0,0.1
		C158.7,109.8,158.7,109.8,158.7,109.8z"/>
	<path class="st0" d="M188.8,65.1c-0.8-4.8-2.3-9.5-4.8-13.7c-3.2-5.6-7.6-10-13.5-12.8c-3.5-1.7-7.2-2.7-11.1-3.1
		c-3.6-0.4-7.3-0.3-10.9,0.3c-9.2,1.7-16.5,6.4-21.8,14c-4.7,6.6-6.8,14-7,22c-0.1,3.4,0.2,6.7,1,10.1c1.4,6.5,4.4,12.2,9,17
		c4.4,4.6,9.7,7.6,15.8,9.4c2.7,0.8,5.4,1.2,8.2,1.5c0.3-0.3,0.6-0.2,0.9-0.1c0,0,0.1,0.1,0.1,0.1c0.1-0.1,0.3-0.1,0.5,0
		c0,0,0-0.1,0.1-0.1c0.3-0.1,0.5-0.2,0.8,0.1c0,0,0-0.1,0.1-0.1c0.6-0.2,1.2-0.2,1.8,0c0,0,0.1,0.1,0.1,0.1c0.2-0.2,0.5-0.2,0.8-0.1
		c0,0,0.1,0.1,0.1,0.1c0.2-0.1,0.3-0.1,0.5,0c0,0,0-0.1,0.1-0.1c0.3-0.2,0.6-0.2,0.9,0.1c0.9-0.1,1.8-0.2,2.7-0.3
		c4.6-0.6,8.9-1.9,12.9-4.2c3.8-2.1,7-4.9,9.8-8.2c0.5-0.6,0.5-0.6,0-1c-0.1-0.1-0.2-0.1-0.2-0.2c-3.4-3-6.8-6-10.2-9.1
		c-0.7-0.6-0.5-0.6-1.2,0c-1.8,1.6-3.8,3.1-5.9,4.3c-4.4,2.3-9.2,3-14.1,2.3c-6.3-0.9-10.6-4.4-13-10.3c-0.4-1.1-0.8-2.2-1-3.3
		c0.4-0.1,0.7-0.1,1-0.1c15.8,0,31.5,0,47.3,0c0.2,0,0.4,0,0.7,0c0.3,0,0.5-0.1,0.5-0.5c0.1-1.4,0.2-2.9,0.3-4.3
		C189.6,71.5,189.3,68.3,188.8,65.1z M169.8,66.7c-10.1,0-20.1,0-30.2,0c-0.1-0.5,0.1-0.8,0.1-1.2c0.7-3.3,2-6.4,4.3-9.1
		c2.4-2.8,5.4-4.3,9.1-4.7c2.7-0.3,5.2,0,7.7,1.1c2.8,1.2,4.9,3.2,6.4,5.8c1.4,2.4,2.2,5,2.6,7.7C169.8,66.4,169.8,66.5,169.8,66.7z
		"/>
	<path class="st0" d="M155.9,109.8c0.7,0,1.3,0,2,0c0,0,0,0,0,0c0,0,0,0,0,0c0,0,0-0.1-0.1-0.1C157.2,109.4,156.6,109.4,155.9,109.8
		C155.9,109.7,155.9,109.7,155.9,109.8C155.9,109.8,155.9,109.8,155.9,109.8C155.9,109.8,155.9,109.8,155.9,109.8z"/>
	<path class="st0" d="M154.6,109.8C154.6,109.8,154.6,109.8,154.6,109.8c0-0.1,0-0.1,0-0.1c-0.3-0.1-0.6-0.2-0.9,0.1
		C154,109.8,154.3,109.8,154.6,109.8C154.6,109.8,154.6,109.8,154.6,109.8z"/>
	<path class="st0" d="M159.2,109.7C159.2,109.7,159.2,109.7,159.2,109.7c-0.1,0.1-0.1,0.1,0,0.1c0.3,0,0.6,0,1,0
		C159.9,109.5,159.6,109.5,159.2,109.7z"/>
	<path class="st0" d="M155.1,109.8c0.3,0,0.5,0,0.8,0c0,0,0,0,0,0C155.7,109.5,155.4,109.5,155.1,109.8
		C155.1,109.7,155.1,109.7,155.1,109.8C155.1,109.8,155.1,109.8,155.1,109.8C155.1,109.8,155.1,109.8,155.1,109.8z"/>
	<polygon class="st0" points="155.9,109.8 155.9,109.7 155.9,109.8 	"/>
	<path class="st0" d="M158.7,109.8C158.7,109.8,158.7,109.8,158.7,109.8C158.7,109.8,158.7,109.8,158.7,109.8
		C158.7,109.7,158.7,109.7,158.7,109.8c-0.3-0.2-0.6-0.2-0.8,0c0,0,0,0,0,0C158.2,109.8,158.4,109.8,158.7,109.8z"/>
	<polygon class="st0" points="157.9,109.8 157.9,109.7 157.9,109.8 	"/>
	<path class="st0" d="M155.1,109.8C155.1,109.8,155.1,109.8,155.1,109.8c-0.2-0.1-0.3-0.1-0.5,0c0,0,0,0,0,0
		C154.8,109.8,154.9,109.8,155.1,109.8z"/>
	<path class="st0" d="M154.6,109.8C154.6,109.8,154.6,109.8,154.6,109.8C154.6,109.8,154.6,109.8,154.6,109.8
		C154.6,109.8,154.6,109.8,154.6,109.8z"/>
	<polygon class="st0" points="155.1,109.8 155.1,109.7 155.1,109.8 	"/>
	<path class="st0" d="M159.2,109.8C159.2,109.8,159.2,109.8,159.2,109.8c-0.1-0.2-0.3-0.1-0.5,0c0,0,0,0,0,0
		C158.9,109.8,159,109.8,159.2,109.8z"/>
	<path class="st0" d="M159.2,109.8C159.2,109.8,159.2,109.8,159.2,109.8C159.2,109.8,159.2,109.8,159.2,109.8
		C159.2,109.8,159.2,109.8,159.2,109.8z"/>
	<path class="st0" d="M158.7,109.8C158.7,109.8,158.7,109.8,158.7,109.8C158.7,109.8,158.7,109.8,158.7,109.8
		C158.7,109.8,158.7,109.8,158.7,109.8z"/>
	<path class="st0" d="M285.2,109.8C285.2,109.8,285.2,109.8,285.2,109.8c-0.7,0-1.4,0-2.2,0c0,0,0,0,0,0c0,0,0,0,0,0
		c0,0,0,0.1,0,0.1c0.7,0,1.4,0,2.1,0C285.2,109.9,285.2,109.8,285.2,109.8C285.2,109.8,285.2,109.8,285.2,109.8z"/>
	<path class="st0" d="M283.1,109.8c-0.4,0-0.8,0-1.1,0c0,0,0,0,0,0c0,0,0,0,0,0c0,0,0,0.1,0,0.1c0.4,0,0.8,0,1.1,0
		C283.1,109.8,283.1,109.8,283.1,109.8z"/>
	<path class="st0" d="M283.1,109.8C283.1,109.8,283.1,109.8,283.1,109.8c0,0,0,0.1,0,0.1C283.1,109.9,283.1,109.8,283.1,109.8
		C283.1,109.8,283.1,109.8,283.1,109.8z"/>
	<path class="st0" d="M286.4,109.8C286.4,109.8,286.4,109.8,286.4,109.8c-0.4,0-0.8,0-1.1,0c0,0,0,0.1,0,0.2c0.4,0,0.8,0,1.1,0
		C286.4,109.9,286.4,109.8,286.4,109.8C286.4,109.8,286.4,109.8,286.4,109.8z"/>
	<path class="st0" d="M285.2,109.8C285.2,109.8,285.2,109.8,285.2,109.8C285.2,109.8,285.2,109.8,285.2,109.8c0,0.1,0,0.1,0,0.2
		C285.2,109.8,285.2,109.8,285.2,109.8z"/>
	<path class="st0" d="M286.4,109.9c0.4,0,0.8,0,1.1,0c0-0.1,0-0.1,0-0.2c-0.4,0-0.7,0-1.1,0C286.4,109.8,286.4,109.9,286.4,109.9z"
		/>
	<path class="st0" d="M286.4,109.8C286.4,109.8,286.4,109.8,286.4,109.8C286.4,109.8,286.4,109.8,286.4,109.8c0,0,0,0.1,0,0.1
		C286.4,109.9,286.4,109.8,286.4,109.8z"/>
	<path class="st0" d="M281.9,109.8c-0.2,0-0.4,0-0.6,0c0,0,0,0.1,0,0.1c0.2,0,0.4,0,0.7,0C281.9,109.8,281.9,109.8,281.9,109.8z"/>
	<path class="st0" d="M281.9,109.8C281.9,109.8,281.9,109.8,281.9,109.8c0,0,0,0.1,0,0.1C281.9,109.9,281.9,109.8,281.9,109.8
		C281.9,109.8,281.9,109.8,281.9,109.8z"/>
	<path class="st0" d="M281.3,109.8c-0.2,0-0.3,0-0.5,0c0,0.1,0,0.1,0,0.2c0.2,0,0.3,0,0.5,0C281.3,109.9,281.3,109.8,281.3,109.8z"
		/>
	<path class="st0" d="M281.3,109.8c0,0,0,0.1,0,0.1C281.3,109.9,281.3,109.8,281.3,109.8C281.3,109.8,281.3,109.8,281.3,109.8z"/>
	<path class="st0" d="M316.1,65.6c-0.8-5-2.3-9.7-4.8-14.1c-3.2-5.6-7.5-10-13.3-12.8c-3.6-1.8-7.4-2.8-11.4-3.2
		c-3.8-0.4-7.6-0.3-11.4,0.4c-8.8,1.8-15.9,6.3-21.1,13.6c-4.4,6-6.6,12.9-7.1,20.3c-0.3,4.2,0,8.3,0.9,12.4
		c1.5,6.6,4.5,12.3,9.3,17.1c4.7,4.7,10.3,7.7,16.6,9.3c2.3,0.6,4.6,0.9,6.9,1.1c0.2-0.1,0.3-0.1,0.5,0c0,0,0-0.1,0.1-0.1
		c0.2-0.1,0.4-0.1,0.6,0.1c0,0,0-0.1,0.1-0.1c0.4-0.2,0.7-0.2,1.1,0.1c0,0,0-0.1,0.1-0.1c0.7-0.2,1.3-0.2,2,0c0,0,0.1,0.1,0.1,0.1
		c0.3-0.3,0.7-0.3,1.1-0.1c0,0,0.1,0.1,0.1,0.1c0.4-0.3,0.7-0.3,1.1,0c1.7-0.2,3.4-0.4,5.1-0.7c6.7-1.4,12.6-4.3,17.5-9.1
		c1-1,1.9-2,2.8-3.1c0.3-0.3,0.3-0.5-0.1-0.7c-0.1,0-0.1-0.1-0.2-0.2c-3-2.7-6.1-5.4-9.1-8.1c-0.6-0.6-1.3-1.1-1.9-1.7
		c-0.4,0.3-0.7,0.6-1.1,0.9c-0.4,0.3-0.7,0.6-1.1,0.9c-5.7,4.8-12.3,6.4-19.6,5c-3.7-0.7-6.8-2.5-9.2-5.4c-1.9-2.3-3-4.9-3.6-7.8
		c0-0.1,0-0.2,0-0.4c0.4,0,0.7,0,1,0c15.8,0,31.5,0,47.3,0c0.2,0,0.5,0,0.7,0c0.3,0,0.4-0.1,0.4-0.4c0-0.8,0.1-1.6,0.2-2.4
		C316.9,73,316.7,69.3,316.1,65.6z M266.8,66.7c0.3-1.7,0.7-3.3,1.3-4.9c1.1-2.9,2.8-5.5,5.3-7.4c2.1-1.6,4.4-2.5,7.1-2.7
		c2.3-0.3,4.6,0,6.8,0.8c3.1,1.1,5.4,3.2,7.1,6.1c1.5,2.5,2.3,5.3,2.7,8.2C286.9,66.7,276.9,66.7,266.8,66.7z"/>
	<path class="st0" d="M283.1,109.8c0.7,0,1.4,0,2.2,0c0,0,0,0,0,0c0,0,0,0,0,0c0,0,0-0.1-0.1-0.1
		C284.5,109.4,283.8,109.4,283.1,109.8C283.1,109.7,283.1,109.7,283.1,109.8C283.1,109.8,283.1,109.8,283.1,109.8
		C283.1,109.8,283.1,109.8,283.1,109.8z"/>
	<path class="st0" d="M281.9,109.8c0.4,0,0.8,0,1.1,0c0,0,0,0,0,0C282.7,109.4,282.4,109.5,281.9,109.8
		C282,109.7,281.9,109.7,281.9,109.8C281.9,109.8,281.9,109.8,281.9,109.8C281.9,109.8,281.9,109.8,281.9,109.8z"/>
	<polygon class="st0" points="283.1,109.8 283.1,109.8 283.1,109.8 	"/>
	<path class="st0" d="M286.4,109.8C286.4,109.8,286.4,109.8,286.4,109.8C286.4,109.8,286.4,109.8,286.4,109.8c0,0,0-0.1-0.1-0.1
		c-0.4-0.2-0.7-0.2-1.1,0.1c0,0,0,0,0,0C285.6,109.8,286,109.8,286.4,109.8z"/>
	<polygon class="st0" points="285.2,109.8 285.2,109.8 285.2,109.8 	"/>
	<path class="st0" d="M286.4,109.8C286.4,109.8,286.4,109.8,286.4,109.8c0.4,0,0.7,0,1.1,0C287.1,109.5,286.8,109.4,286.4,109.8z"/>
	<polygon class="st0" points="286.4,109.8 286.4,109.8 286.4,109.8 	"/>
	<path class="st0" d="M281.9,109.8C281.9,109.8,281.9,109.8,281.9,109.8c-0.2-0.2-0.4-0.2-0.6-0.1c0,0,0,0-0.1,0.1c0,0,0,0,0,0
		C281.5,109.8,281.7,109.8,281.9,109.8z"/>
	<polygon class="st0" points="281.9,109.8 281.9,109.8 281.9,109.8 	"/>
	<path class="st0" d="M281.3,109.7c-0.2-0.1-0.3-0.1-0.5,0C281,109.8,281.1,109.8,281.3,109.7C281.3,109.8,281.3,109.8,281.3,109.7z
		"/>
	<path class="st0" d="M281.3,109.8C281.3,109.8,281.3,109.8,281.3,109.8C281.3,109.8,281.3,109.8,281.3,109.8
		C281.3,109.8,281.3,109.8,281.3,109.8z"/>
</g>
</svg>
