<?xml version="1.0" encoding="utf-8"?>
<!-- Generator: Adobe Illustrator 21.1.0, SVG Export Plug-In . SVG Version: 6.00 Build 0)  -->
<svg version="1.1" id="Layer_1" xmlns="http://www.w3.org/2000/svg" xmlns:xlink="http://www.w3.org/1999/xlink" x="0px" y="0px"
	 viewBox="0 0 50 50" style="enable-background:new 0 0 50 50;" xml:space="preserve">
<style type="text/css">
	.st0{fill:#757575;}
</style>
<g>
	<polygon class="st0" points="38,33.3 38,27.8 7,27.8 7,33.3 7,47.1 22.5,47.1 22.5,33.3 	"/>
	<path class="st0" d="M14.8,25c2.8,0,5.2-2.5,5.2-5.5S17.6,14,14.8,14s-5.2,2.5-5.2,5.5S11.9,25,14.8,25z"/>
</g>
<g>
	<path class="st0" d="M47.8,3H2.2C1.6,3,1.1,3.6,1.1,4.3v33.1c0,0.7,0.5,1.3,1.2,1.3h45.5c0.6,0,1.2-0.6,1.2-1.3V4.3
		C48.9,3.6,48.4,3,47.8,3z M46.6,34.9c0,0.7-0.5,1.3-1.2,1.3H4.6c-0.6,0-1.2-0.6-1.2-1.3v-28c0-0.7,0.5-1.3,1.2-1.3h40.8
		c0.6,0,1.2,0.6,1.2,1.3V34.9z"/>
	<path class="st0" d="M46.9,4.1H3.1C2.5,4.1,2,4.6,2,5.3v31.1c0,0.7,0.5,1.2,1.1,1.2h43.8c0.6,0,1.1-0.5,1.1-1.2V5.3
		C48,4.6,47.5,4.1,46.9,4.1z M45.8,34c0,0.7-0.5,1.2-1.1,1.2H5.4c-0.6,0-1.1-0.5-1.1-1.2V7.7c0-0.7,0.5-1.2,1.1-1.2h39.3
		c0.6,0,1.1,0.5,1.1,1.2V34z"/>
</g>
</svg>
