<?xml version="1.0" encoding="utf-8"?>
<!-- Generator: Adobe Illustrator 21.1.0, SVG Export Plug-In . SVG Version: 6.00 Build 0)  -->
<svg version="1.1" id="Layer_1" xmlns="http://www.w3.org/2000/svg" xmlns:xlink="http://www.w3.org/1999/xlink" x="0px" y="0px"
	 viewBox="0 0 200 200" style="enable-background:new 0 0 200 200;" xml:space="preserve">
<style type="text/css">
	.st0{fill:#DBDBDB;}
	.st1{fill:#BABABA;}
	.st2{fill:#FFFFFF;}
</style>
<rect x="-3" y="-2.5" class="st0" width="206" height="205"/>
<circle class="st1" cx="100" cy="100" r="46.5"/>
<g>
	<path class="st2" d="M77,92.4h1.7v12h5.8v1.5H77V92.4z"/>
	<path class="st2" d="M97.1,99c0,4.6-2.8,7.1-6.3,7.1c-3.6,0-6.1-2.8-6.1-6.8c0-4.3,2.7-7.1,6.3-7.1C94.8,92.2,97.1,95,97.1,99z
		 M86.7,99.2c0,2.9,1.6,5.5,4.3,5.5c2.8,0,4.3-2.5,4.3-5.6c0-2.7-1.4-5.5-4.3-5.5C88.1,93.6,86.7,96.2,86.7,99.2z"/>
	<path class="st2" d="M109.7,105.3c-0.8,0.3-2.3,0.7-4.1,0.7c-2,0-3.7-0.5-5-1.8c-1.2-1.1-1.9-2.9-1.9-5c0-4,2.8-7,7.3-7
		c1.6,0,2.8,0.3,3.4,0.6l-0.4,1.4c-0.7-0.3-1.6-0.6-3-0.6c-3.3,0-5.4,2-5.4,5.4c0,3.4,2.1,5.4,5.2,5.4c1.1,0,1.9-0.2,2.3-0.4v-4
		h-2.7v-1.4h4.4V105.3z"/>
	<path class="st2" d="M123.8,99c0,4.6-2.8,7.1-6.3,7.1c-3.6,0-6.1-2.8-6.1-6.8c0-4.3,2.7-7.1,6.3-7.1C121.5,92.2,123.8,95,123.8,99z
		 M113.4,99.2c0,2.9,1.6,5.5,4.3,5.5c2.8,0,4.3-2.5,4.3-5.6c0-2.7-1.4-5.5-4.3-5.5C114.8,93.6,113.4,96.2,113.4,99.2z"/>
</g>
</svg>
