<?xml version="1.0" encoding="utf-8"?>
<!-- Generator: Adobe Illustrator 21.1.0, SVG Export Plug-In . SVG Version: 6.00 Build 0)  -->
<svg version="1.1" id="Layer_1" xmlns="http://www.w3.org/2000/svg" xmlns:xlink="http://www.w3.org/1999/xlink" x="0px" y="0px"
	 viewBox="0 0 1300 800" style="enable-background:new 0 0 1300 800;" xml:space="preserve" preserveAspectRatio="none slice">
<style type="text/css">
	.st0{fill:#D7EEF7;}
	.st1{opacity:0.25;fill:#FFFFFF;enable-background:new    ;}
</style>
<g>
	<rect x="-2" y="-6" class="st0" width="1305" height="813"/>
</g>
<path class="st1" d="M226.2,56.5c0,2,0,4,0,6c-0.6,1.9-1,3.8-1.7,5.6c-4.9,12.5-18.8,20-34,18.4c-1.7-0.2-2.4,0.2-3.4,1.4
	c-2.3,2.9-4.6,5.9-7.4,8.4c-12.3,10.8-32.4,12.9-47.6,5.1c-2.8-1.5-5.4-3.3-8.2-5c-1.6,0.8-3.3,1.7-5.1,2.4
	c-16.5,6.6-36.1,2.7-47.5-9.5c-1.1-1.2-2-1.5-3.7-1c-6.3,1.8-12.8,2.1-19.2,0.8c-16.2-3.3-26.6-11.9-30.9-25.7
	c-0.5-1.5-0.8-2.9-1.2-4.4c0-2.4,0-4.7,0-7.1c0.1-0.3,0.3-0.6,0.4-1C19.3,35.3,32.9,23.4,51,21.3c2.1-0.2,2.9-0.9,3.5-2.6
	C59,4.7,74.4-5.7,91.4-6c12.6-0.3,23.1,3.8,31.5,11.9c0.5,0.5,1,0.9,1.5,1.3c8.9-5.9,15.7-7.6,20.7-8.3c25-3.6,47.7,10.3,52.1,31.7
	c0.2,1.2,0.8,1.6,2.1,1.8c10.9,1.6,19,6.6,23.9,15.1C224.5,50.4,225.2,53.6,226.2,56.5z"/>
<path class="st1" d="M470,140c0,2,0,4,0,6c-0.6,1.9-1,3.8-1.7,5.6c-4.9,12.5-18.8,20-34,18.4c-1.7-0.2-2.4,0.2-3.4,1.4
	c-2.3,2.9-4.6,5.9-7.4,8.4c-12.3,10.8-32.4,12.9-47.6,5.1c-2.8-1.5-5.4-3.3-8.2-5c-1.6,0.8-3.3,1.7-5.1,2.4
	c-16.5,6.6-36.1,2.7-47.5-9.5c-1.1-1.2-2-1.5-3.7-1c-6.3,1.8-12.8,2.1-19.2,0.8c-16.2-3.3-26.6-11.9-30.9-25.7
	c-0.5-1.5-0.8-2.9-1.2-4.4c0-2.4,0-4.7,0-7.1c0.1-0.3,0.3-0.6,0.4-1c2.6-15.6,16.2-27.5,34.3-29.6c2.1-0.2,2.9-0.9,3.5-2.6
	c4.5-14,19.9-24.4,36.9-24.7c12.6-0.3,23.1,3.8,31.5,11.9c0.5,0.5,1,0.9,1.5,1.3c8.9-5.9,15.7-7.6,20.7-8.3
	c25-3.6,47.7,10.3,52.1,31.7c0.2,1.2,0.8,1.6,2.1,1.8c10.9,1.6,19,6.6,23.9,15.1C468.3,133.9,469,137,470,140z"/>
<path class="st1" d="M618,349.3c0,2,0,4,0,6c-0.6,1.9-1,3.8-1.7,5.6c-4.9,12.5-18.8,20-34,18.4c-1.7-0.2-2.4,0.2-3.4,1.4
	c-2.3,2.9-4.6,5.9-7.4,8.4c-12.3,10.8-32.4,12.9-47.6,5.1c-2.8-1.5-5.4-3.3-8.2-5c-1.6,0.8-3.3,1.7-5.1,2.4
	c-16.5,6.6-36.1,2.7-47.5-9.5c-1.1-1.2-2-1.5-3.7-1c-6.3,1.8-12.8,2.1-19.2,0.8c-16.2-3.3-26.6-11.9-30.9-25.7
	c-0.5-1.5-0.8-2.9-1.2-4.4c0-2.4,0-4.7,0-7.1c0.1-0.3,0.3-0.6,0.4-1c2.6-15.6,16.2-27.5,34.3-29.6c2.1-0.2,2.9-0.9,3.5-2.6
	c4.5-14,19.9-24.4,36.9-24.7c12.6-0.3,23.1,3.8,31.5,11.9c0.5,0.5,1,0.9,1.5,1.3c8.9-5.9,15.7-7.6,20.7-8.3
	c25-3.6,47.7,10.3,52.1,31.7c0.2,1.2,0.8,1.6,2.1,1.8c10.9,1.6,19,6.6,23.9,15.1C616.3,343.2,617,346.3,618,349.3z"/>
<path class="st1" d="M856.9,456c0,2,0,4,0,6c-0.6,1.9-1,3.8-1.7,5.6c-4.9,12.5-18.8,20-34,18.4c-1.7-0.2-2.4,0.2-3.4,1.4
	c-2.3,2.9-4.6,5.9-7.4,8.4c-12.3,10.8-32.4,12.9-47.6,5.1c-2.8-1.5-5.4-3.3-8.2-5c-1.6,0.8-3.3,1.7-5.1,2.4
	c-16.5,6.6-36.1,2.7-47.5-9.5c-1.1-1.2-2-1.5-3.7-1c-6.3,1.8-12.8,2.1-19.2,0.8c-16.2-3.3-26.6-11.9-30.9-25.7
	c-0.5-1.5-0.8-2.9-1.2-4.4c0-2.4,0-4.7,0-7.1c0.1-0.3,0.3-0.6,0.4-1c2.6-15.6,16.2-27.5,34.3-29.6c2.1-0.2,2.9-0.9,3.5-2.6
	c4.5-14,19.9-24.4,36.9-24.7c12.6-0.3,23.1,3.8,31.5,11.9c0.5,0.5,1,0.9,1.5,1.3c8.9-5.9,15.7-7.6,20.7-8.3
	c25-3.6,47.7,10.3,52.1,31.7c0.2,1.2,0.8,1.6,2.1,1.8c10.9,1.6,19,6.6,23.9,15.1C855.2,449.9,855.9,453,856.9,456z"/>
<path class="st1" d="M205,319.5c0,2,0,4,0,6c-0.6,1.9-1,3.8-1.7,5.6c-4.9,12.5-18.8,20-34,18.4c-1.7-0.2-2.4,0.2-3.4,1.4
	c-2.3,2.9-4.6,5.9-7.4,8.4c-12.3,10.8-32.4,12.9-47.6,5.1c-2.8-1.5-5.4-3.3-8.2-5c-1.6,0.8-3.3,1.7-5.1,2.4
	c-16.5,6.6-36.1,2.7-47.5-9.5c-1.1-1.2-2-1.5-3.7-1c-6.3,1.8-12.8,2.1-19.2,0.8C11,348.8,0.6,340.2-3.7,326.4
	c-0.5-1.5-0.8-2.9-1.2-4.4c0-2.4,0-4.7,0-7.1c0.1-0.3,0.3-0.6,0.4-1c2.6-15.6,16.2-27.5,34.3-29.6c2.1-0.2,2.9-0.9,3.5-2.6
	c4.5-14,19.9-24.4,36.9-24.7c12.6-0.3,23.1,3.8,31.5,11.9c0.5,0.5,1,0.9,1.5,1.3c8.9-5.9,15.7-7.6,20.7-8.3
	c25-3.6,47.7,10.3,52.1,31.7c0.2,1.2,0.8,1.6,2.1,1.8c10.9,1.6,19,6.6,23.9,15.1C203.3,313.5,204,316.6,205,319.5z"/>
<path class="st1" d="M423,512.3c0,2,0,4,0,6c-0.6,1.9-1,3.8-1.7,5.6c-4.9,12.5-18.8,20-34,18.4c-1.7-0.2-2.4,0.2-3.4,1.4
	c-2.3,2.9-4.6,5.9-7.4,8.4c-12.3,10.8-32.4,12.9-47.6,5.1c-2.8-1.5-5.4-3.3-8.2-5c-1.6,0.8-3.3,1.7-5.1,2.4
	c-16.5,6.6-36.1,2.7-47.5-9.5c-1.1-1.2-2-1.5-3.7-1c-6.3,1.8-12.8,2.1-19.2,0.8c-16.2-3.3-26.6-11.9-30.9-25.7
	c-0.5-1.5-0.8-2.9-1.2-4.4c0-2.4,0-4.7,0-7.1c0.1-0.3,0.3-0.6,0.4-1c2.6-15.6,16.2-27.5,34.3-29.6c2.1-0.2,2.9-0.9,3.5-2.6
	c4.5-14,19.9-24.4,36.9-24.7c12.6-0.3,23.1,3.8,31.5,11.9c0.5,0.5,1,0.9,1.5,1.3c8.9-5.9,15.7-7.6,20.7-8.3
	c25-3.6,47.7,10.3,52.1,31.7c0.2,1.2,0.8,1.6,2.1,1.8c10.9,1.6,19,6.6,23.9,15.1C421.3,506.2,422,509.4,423,512.3z"/>
<path class="st1" d="M499.9,301.2c0,2,0,4,0,6c-0.6,1.9-1,3.8-1.7,5.6c-4.9,12.5-18.8,20-34,18.4c-1.7-0.2-2.4,0.2-3.4,1.4
	c-2.3,2.9-4.6,5.9-7.4,8.4c-12.3,10.8-32.4,12.9-47.6,5.1c-2.8-1.5-5.4-3.3-8.2-5c-1.6,0.8-3.3,1.7-5.1,2.4
	c-16.5,6.6-36.1,2.7-47.5-9.5c-1.1-1.2-2-1.5-3.7-1c-6.3,1.8-12.8,2.1-19.2,0.8c-16.2-3.3-26.6-11.9-30.9-25.7
	c-0.5-1.5-0.8-2.9-1.2-4.4c0-2.4,0-4.7,0-7.1c0.1-0.3,0.3-0.6,0.4-1c2.6-15.6,16.2-27.5,34.3-29.6c2.1-0.2,2.9-0.9,3.5-2.6
	c4.5-14,19.9-24.4,36.9-24.7c12.6-0.3,23.1,3.8,31.5,11.9c0.5,0.5,1,0.9,1.5,1.3c8.9-5.9,15.7-7.6,20.7-8.3
	c25-3.6,47.7,10.3,52.1,31.7c0.2,1.2,0.8,1.6,2.1,1.8c10.9,1.6,19,6.6,23.9,15.1C498.2,295.1,498.9,298.3,499.9,301.2z"/>
<path class="st1" d="M848.4,113.8c0,2,0,4,0,6c-0.6,1.9-1,3.8-1.7,5.6c-4.9,12.5-18.8,20-34,18.4c-1.7-0.2-2.4,0.2-3.4,1.4
	c-2.3,2.9-4.6,5.9-7.4,8.4c-12.3,10.8-32.4,12.9-47.6,5.1c-2.8-1.5-5.4-3.3-8.2-5c-1.6,0.8-3.3,1.7-5.1,2.4
	c-16.5,6.6-36.1,2.7-47.5-9.5c-1.1-1.2-2-1.5-3.7-1c-6.3,1.8-12.8,2.1-19.2,0.8c-16.2-3.3-26.6-11.9-30.9-25.7
	c-0.5-1.5-0.8-2.9-1.2-4.4c0-2.4,0-4.7,0-7.1c0.1-0.3,0.3-0.6,0.4-1c2.6-15.6,16.2-27.5,34.3-29.6c2.1-0.2,2.9-0.9,3.5-2.6
	c4.5-14,19.9-24.4,36.9-24.7c12.6-0.3,23.1,3.8,31.5,11.9c0.5,0.5,1,0.9,1.5,1.3c8.9-5.9,15.7-7.6,20.7-8.3
	c25-3.6,47.7,10.3,52.1,31.7c0.2,1.2,0.8,1.6,2.1,1.8c10.9,1.6,19,6.6,23.9,15.1C846.8,107.7,847.4,110.8,848.4,113.8z"/>
<path class="st1" d="M730.4,65.7c0,2,0,4,0,6c-0.6,1.9-1,3.8-1.7,5.6c-4.9,12.5-18.8,20-34,18.4c-1.7-0.2-2.4,0.2-3.4,1.4
	c-2.3,2.9-4.6,5.9-7.4,8.4c-12.3,10.8-32.4,12.9-47.6,5.1c-2.8-1.5-5.4-3.3-8.2-5c-1.6,0.8-3.3,1.7-5.1,2.4
	c-16.5,6.6-36.1,2.7-47.5-9.5c-1.1-1.2-2-1.5-3.7-1c-6.3,1.8-12.8,2.1-19.2,0.8C536.4,95,526,86.4,521.7,72.6
	c-0.5-1.5-0.8-2.9-1.2-4.4c0-2.4,0-4.7,0-7.1c0.1-0.3,0.3-0.6,0.4-1c2.6-15.6,16.2-27.5,34.3-29.6c2.1-0.2,2.9-0.9,3.5-2.6
	c4.5-14,19.9-24.4,36.9-24.7c12.4-0.2,22.9,3.9,31.3,12c0.5,0.5,1,0.9,1.5,1.3c8.9-5.9,15.7-7.6,20.7-8.3
	c25-3.6,47.7,10.3,52.1,31.7c0.2,1.2,0.8,1.6,2.1,1.8c10.9,1.6,19,6.6,23.9,15.1C728.7,59.6,729.3,62.7,730.4,65.7z"/>
<path class="st1" d="M905,308.9c0,2,0,4,0,6c-0.6,1.9-1,3.8-1.7,5.6c-4.9,12.5-18.8,20-34,18.4c-1.7-0.2-2.4,0.2-3.4,1.4
	c-2.3,2.9-4.6,5.9-7.4,8.4c-12.3,10.8-32.4,12.9-47.6,5.1c-2.8-1.5-5.4-3.3-8.2-5c-1.6,0.8-3.3,1.7-5.1,2.4
	c-16.5,6.6-36.1,2.7-47.5-9.5c-1.1-1.2-2-1.5-3.7-1c-6.3,1.8-12.8,2.1-19.2,0.8c-16.2-3.3-26.6-11.9-30.9-25.7
	c-0.5-1.5-0.8-2.9-1.2-4.4c0-2.4,0-4.7,0-7.1c0.1-0.3,0.3-0.6,0.4-1c2.6-15.6,16.2-27.5,34.3-29.6c2.1-0.2,2.9-0.9,3.5-2.6
	c4.5-14,19.9-24.4,36.9-24.7c12.6-0.3,23.1,3.8,31.5,11.9c0.5,0.5,1,0.9,1.5,1.3c8.9-5.9,15.7-7.6,20.7-8.3
	c25-3.6,47.7,10.3,52.1,31.7c0.2,1.2,0.8,1.6,2.1,1.8c10.9,1.6,19,6.6,23.9,15.1C903.3,302.8,904,306,905,308.9z"/>
<path class="st1" d="M213.2,638.5c0,2,0,4,0,6c-0.6,1.9-1,3.8-1.7,5.6c-4.9,12.5-18.8,20-34,18.4c-1.7-0.2-2.4,0.2-3.4,1.4
	c-2.3,2.9-4.6,5.9-7.4,8.4c-12.3,10.8-32.4,12.9-47.6,5.1c-2.8-1.5-5.4-3.3-8.2-5c-1.6,0.8-3.3,1.7-5.1,2.4
	c-16.5,6.6-36.1,2.7-47.5-9.5c-1.1-1.2-2-1.5-3.7-1c-6.3,1.8-12.8,2.1-19.2,0.8c-16.2-3.3-26.6-11.9-30.9-25.7
	c-0.5-1.5-0.8-2.9-1.2-4.4c0-2.4,0-4.7,0-7.1c0.1-0.3,0.3-0.6,0.4-1c2.6-15.6,16.2-27.5,34.3-29.6c2.1-0.2,2.9-0.9,3.5-2.6
	c4.5-14,19.9-24.4,36.9-24.7c12.6-0.3,23.1,3.8,31.5,11.9c0.5,0.5,1,0.9,1.5,1.3c8.9-5.9,15.7-7.6,20.7-8.3
	c25-3.6,47.7,10.3,52.1,31.7c0.2,1.2,0.8,1.6,2.1,1.8c10.9,1.6,19,6.6,23.9,15.1C211.5,632.4,212.2,635.6,213.2,638.5z"/>
<path class="st1" d="M457.2,734c0,2,0,4,0,6c-0.6,1.9-1,3.8-1.7,5.6c-4.9,12.5-18.8,20-34,18.4c-1.7-0.2-2.4,0.2-3.4,1.4
	c-2.3,2.9-4.6,5.9-7.4,8.4c-12.3,10.8-32.4,12.9-47.6,5.1c-2.8-1.5-5.4-3.3-8.2-5c-1.6,0.8-3.3,1.7-5.1,2.4
	c-16.5,6.6-36.1,2.7-47.5-9.5c-1.1-1.2-2-1.5-3.7-1c-6.3,1.8-12.8,2.1-19.2,0.8c-16.2-3.3-26.6-11.9-30.9-25.7
	c-0.5-1.5-0.8-2.9-1.2-4.4c0-2.4,0-4.7,0-7.1c0.1-0.3,0.3-0.6,0.4-1c2.6-15.6,16.2-27.5,34.3-29.6c2.1-0.2,2.9-0.9,3.5-2.6
	c4.5-14,19.9-24.4,36.9-24.7c12.6-0.3,23.1,3.8,31.5,11.9c0.5,0.5,1,0.9,1.5,1.3c8.9-5.9,15.7-7.6,20.7-8.3
	c25-3.6,47.7,10.3,52.1,31.7c0.2,1.2,0.8,1.6,2.1,1.8c10.9,1.6,19,6.6,23.9,15.1C455.5,727.9,456.1,731,457.2,734z"/>
<path class="st1" d="M835.4,695.8c0,2,0,4,0,6c-0.6,1.9-1,3.8-1.7,5.6c-4.9,12.5-18.8,20-34,18.4c-1.7-0.2-2.4,0.2-3.4,1.4
	c-2.3,2.9-4.6,5.9-7.4,8.4c-12.3,10.8-32.4,12.9-47.6,5.1c-2.8-1.5-5.4-3.3-8.2-5c-1.6,0.8-3.3,1.7-5.1,2.4
	c-16.5,6.6-36.1,2.7-47.5-9.5c-1.1-1.2-2-1.5-3.7-1c-6.3,1.8-12.8,2.1-19.2,0.8c-16.2-3.3-26.6-11.9-30.9-25.7
	c-0.5-1.5-0.8-2.9-1.2-4.4c0-2.4,0-4.7,0-7.1c0.1-0.3,0.3-0.6,0.4-1c2.6-15.6,16.2-27.5,34.3-29.6c2.1-0.2,2.9-0.9,3.5-2.6
	c4.5-14,19.9-24.4,36.9-24.7c12.6-0.3,23.1,3.8,31.5,11.9c0.5,0.5,1,0.9,1.5,1.3c8.9-5.9,15.7-7.6,20.7-8.3
	c25-3.6,47.7,10.3,52.1,31.7c0.2,1.2,0.8,1.6,2.1,1.8c10.9,1.6,19,6.6,23.9,15.1C833.8,689.7,834.4,692.8,835.4,695.8z"/>
<path class="st1" d="M717.4,647.7c0,2,0,4,0,6c-0.6,1.9-1,3.8-1.7,5.6c-4.9,12.5-18.8,20-34,18.4c-1.7-0.2-2.4,0.2-3.4,1.4
	c-2.3,2.9-4.6,5.9-7.4,8.4c-12.3,10.8-32.4,12.9-47.6,5.1c-2.8-1.5-5.4-3.3-8.2-5c-1.6,0.8-3.3,1.7-5.1,2.4
	c-16.5,6.6-36.1,2.7-47.5-9.5c-1.1-1.2-2-1.5-3.7-1c-6.3,1.8-12.8,2.1-19.2,0.8c-16.2-3.3-26.6-11.9-30.9-25.7
	c-0.5-1.5-0.8-2.9-1.2-4.4c0-2.4,0-4.7,0-7.1c0.1-0.3,0.3-0.6,0.4-1c2.6-15.6,16.2-27.5,34.3-29.6c2.1-0.2,2.9-0.9,3.5-2.6
	c4.5-14,19.9-24.4,36.9-24.7c12.6-0.3,23.1,3.8,31.5,11.9c0.5,0.5,1,0.9,1.5,1.3c8.9-5.9,15.7-7.6,20.7-8.3
	c25-3.6,47.7,10.3,52.1,31.7c0.2,1.2,0.8,1.6,2.1,1.8c10.9,1.6,19,6.6,23.9,15.1C715.7,641.6,716.3,644.7,717.4,647.7z"/>
<path class="st1" d="M1127,107.5c0,2,0,4,0,6c-0.6,1.9-1,3.8-1.7,5.6c-4.9,12.5-18.8,20-34,18.4c-1.7-0.2-2.4,0.2-3.4,1.4
	c-2.3,2.9-4.6,5.9-7.4,8.4c-12.3,10.8-32.4,12.9-47.6,5.1c-2.8-1.5-5.4-3.3-8.2-5c-1.6,0.8-3.3,1.7-5.1,2.4
	c-16.5,6.6-36.1,2.7-47.5-9.5c-1.1-1.2-2-1.5-3.7-1c-6.3,1.8-12.8,2.1-19.2,0.8c-16.2-3.3-26.6-11.9-30.9-25.7
	c-0.5-1.5-0.8-2.9-1.2-4.4c0-2.4,0-4.7,0-7.1c0.1-0.3,0.3-0.6,0.4-1c2.6-15.6,16.2-27.5,34.3-29.6c2.1-0.2,2.9-0.9,3.5-2.6
	c4.5-14,19.9-24.4,36.9-24.7c12.6-0.3,23.1,3.8,31.5,11.9c0.5,0.5,1,0.9,1.5,1.3c8.9-5.9,15.7-7.6,20.7-8.3
	c25-3.6,47.7,10.3,52.1,31.7c0.2,1.2,0.8,1.6,2.1,1.8c10.9,1.6,19,6.6,23.9,15.1C1125.3,101.5,1126,104.6,1127,107.5z"/>
<path class="st1" d="M1271.2,255.3c0,2,0,4,0,6c-0.6,1.9-1,3.8-1.7,5.6c-4.9,12.5-18.8,20-34,18.4c-1.7-0.2-2.4,0.2-3.4,1.4
	c-2.3,2.9-4.6,5.9-7.4,8.4c-12.3,10.8-32.4,12.9-47.6,5.1c-2.8-1.5-5.4-3.3-8.2-5c-1.6,0.8-3.3,1.7-5.1,2.4
	c-16.5,6.6-36.1,2.7-47.5-9.5c-1.1-1.2-2-1.5-3.7-1c-6.3,1.8-12.8,2.1-19.2,0.8c-16.2-3.3-26.6-11.9-30.9-25.7
	c-0.5-1.5-0.8-2.9-1.2-4.4c0-2.4,0-4.7,0-7.1c0.1-0.3,0.3-0.6,0.4-1c2.6-15.6,16.2-27.5,34.3-29.6c2.1-0.2,2.9-0.9,3.5-2.6
	c4.5-14,19.9-24.4,36.9-24.7c12.6-0.3,23.1,3.8,31.5,11.9c0.5,0.5,1,0.9,1.5,1.3c8.9-5.9,15.7-7.6,20.7-8.3
	c25-3.6,47.7,10.3,52.1,31.7c0.2,1.2,0.8,1.6,2.1,1.8c10.9,1.6,19,6.6,23.9,15.1C1269.6,249.2,1270.2,252.4,1271.2,255.3z"/>
<path class="st1" d="M1127,550.5c0,2,0,4,0,6c-0.6,1.9-1,3.8-1.7,5.6c-4.9,12.5-18.8,20-34,18.4c-1.7-0.2-2.4,0.2-3.4,1.4
	c-2.3,2.9-4.6,5.9-7.4,8.4c-12.3,10.8-32.4,12.9-47.6,5.1c-2.8-1.5-5.4-3.3-8.2-5c-1.6,0.8-3.3,1.7-5.1,2.4
	c-16.5,6.6-36.1,2.7-47.5-9.5c-1.1-1.2-2-1.5-3.7-1c-6.3,1.8-12.8,2.1-19.2,0.8c-16.2-3.3-26.6-11.9-30.9-25.7
	c-0.5-1.5-0.8-2.9-1.2-4.4c0-2.4,0-4.7,0-7.1c0.1-0.3,0.3-0.6,0.4-1c2.6-15.6,16.2-27.5,34.3-29.6c2.1-0.2,2.9-0.9,3.5-2.6
	c4.5-14,19.9-24.4,36.9-24.7c12.6-0.3,23.1,3.8,31.5,11.9c0.5,0.5,1,0.9,1.5,1.3c8.9-5.9,15.7-7.6,20.7-8.3
	c25-3.6,47.7,10.3,52.1,31.7c0.2,1.2,0.8,1.6,2.1,1.8c10.9,1.6,19,6.6,23.9,15.1C1125.3,544.5,1126,547.6,1127,550.5z"/>
<path class="st1" d="M1230,606.3c0,2,0,4,0,6c-0.6,1.9-1,3.8-1.7,5.6c-4.9,12.5-18.8,20-34,18.4c-1.7-0.2-2.4,0.2-3.4,1.4
	c-2.3,2.9-4.6,5.9-7.4,8.4c-12.3,10.8-32.4,12.9-47.6,5.1c-2.8-1.5-5.4-3.3-8.2-5c-1.6,0.8-3.3,1.7-5.1,2.4
	c-16.5,6.6-36.1,2.7-47.5-9.5c-1.1-1.2-2-1.5-3.7-1c-6.3,1.8-12.8,2.1-19.2,0.8c-16.2-3.3-26.6-11.9-30.9-25.7
	c-0.5-1.5-0.8-2.9-1.2-4.4c0-2.4,0-4.7,0-7.1c0.1-0.3,0.3-0.6,0.4-1c2.6-15.6,16.2-27.5,34.3-29.6c2.1-0.2,2.9-0.9,3.5-2.6
	c4.5-14,19.9-24.4,36.9-24.7c12.6-0.3,23.1,3.8,31.5,11.9c0.5,0.5,1,0.9,1.5,1.3c8.9-5.9,15.7-7.6,20.7-8.3
	c25-3.6,47.7,10.3,52.1,31.7c0.2,1.2,0.8,1.6,2.1,1.8c10.9,1.6,19,6.6,23.9,15.1C1228.3,600.2,1229,603.4,1230,606.3z"/>
<path class="st1" d="M1092,751.5c0,2,0,4,0,6c-0.6,1.9-1,3.8-1.7,5.6c-4.9,12.5-18.8,20-34,18.4c-1.7-0.2-2.4,0.2-3.4,1.4
	c-2.3,2.9-4.6,5.9-7.4,8.4c-12.3,10.8-32.4,12.9-47.6,5.1c-2.8-1.5-5.4-3.3-8.2-5c-1.6,0.8-3.3,1.7-5.1,2.4
	c-16.5,6.6-36.1,2.7-47.5-9.5c-1.1-1.2-2-1.5-3.7-1c-6.3,1.8-12.8,2.1-19.2,0.8c-16.2-3.3-26.6-11.9-30.9-25.7
	c-0.5-1.5-0.8-2.9-1.2-4.4c0-2.4,0-4.7,0-7.1c0.1-0.3,0.3-0.6,0.4-1c2.6-15.6,16.2-27.5,34.3-29.6c2.1-0.2,2.9-0.9,3.5-2.6
	c4.5-14,19.9-24.4,36.9-24.7c12.6-0.3,23.1,3.8,31.5,11.9c0.5,0.5,1,0.9,1.5,1.3c8.9-5.9,15.7-7.6,20.7-8.3
	c25-3.6,47.7,10.3,52.1,31.7c0.2,1.2,0.8,1.6,2.1,1.8c10.9,1.6,19,6.6,23.9,15.1C1090.3,745.5,1091,748.6,1092,751.5z"/>
<path class="st1" d="M1166,311c0,2,0,4,0,6c-0.6,1.9-1,3.8-1.7,5.6c-4.9,12.5-18.8,20-34,18.4c-1.7-0.2-2.4,0.2-3.4,1.4
	c-2.3,2.9-4.6,5.9-7.4,8.4c-12.3,10.8-32.4,12.9-47.6,5.1c-2.8-1.5-5.4-3.3-8.2-5c-1.6,0.8-3.3,1.7-5.1,2.4
	c-16.5,6.6-36.1,2.7-47.5-9.5c-1.1-1.2-2-1.5-3.7-1c-6.3,1.8-12.8,2.1-19.2,0.8c-16.2-3.3-26.6-11.9-30.9-25.7
	c-0.5-1.5-0.8-2.9-1.2-4.4c0-2.4,0-4.7,0-7.1c0.1-0.3,0.3-0.6,0.4-1c2.6-15.6,16.2-27.5,34.3-29.6c2.1-0.2,2.9-0.9,3.5-2.6
	c4.5-14,19.9-24.4,36.9-24.7c12.6-0.3,23.1,3.8,31.5,11.9c0.5,0.5,1,0.9,1.5,1.3c8.9-5.9,15.7-7.6,20.7-8.3
	c25-3.6,47.7,10.3,52.1,31.7c0.2,1.2,0.8,1.6,2.1,1.8c10.9,1.6,19,6.6,23.9,15.1C1164.3,304.9,1165,308,1166,311z"/>
<path class="st1" d="M1293.9,21.8c-16.9,0.3-32.3,10.7-36.9,24.7c-0.6,1.7-1.4,2.3-3.5,2.6c-18,2.1-31.7,14-34.3,29.6
	c-0.1,0.3-0.2,0.7-0.4,1c0,2.4,0,4.7,0,7.1c0.4,1.5,0.7,3,1.2,4.4c4.4,13.9,14.7,22.5,30.9,25.7c6.4,1.3,12.9,1,19.2-0.8
	c1.7-0.5,2.6-0.2,3.7,1c7.3,7.8,18,12.2,29,12.7V22.4C1300.1,21.9,1297.1,21.7,1293.9,21.8z"/>
<path class="st1" d="M1291.9,414c-0.5-0.4-1-0.9-1.5-1.3c-8.4-8.1-18.9-12.2-31.5-11.9c-16.9,0.3-32.3,10.7-36.9,24.7
	c-0.6,1.7-1.4,2.3-3.5,2.6c-18,2.1-31.7,14-34.3,29.6c-0.1,0.3-0.2,0.7-0.4,1c0,2.4,0,4.7,0,7.1c0.4,1.5,0.7,3,1.2,4.4
	c4.4,13.9,14.7,22.5,30.9,25.7c6.4,1.3,12.9,1,19.2-0.8c1.7-0.5,2.6-0.2,3.7,1c11.4,12.2,31.1,16.1,47.5,9.5
	c1.8-0.7,3.5-1.6,5.1-2.4c2.8,1.7,5.4,3.5,8.2,5c1,0.5,2.1,1,3.1,1.4V408.2C1299.7,409.4,1296,411.3,1291.9,414z"/>
<path class="st1" d="M1273,705.8c-16.9,0.3-32.3,10.7-36.9,24.7c-0.6,1.7-1.4,2.3-3.5,2.6c-18,2.1-31.7,14-34.3,29.6
	c-0.1,0.3-0.2,0.7-0.4,1c0,2.4,0,4.7,0,7.1c0.4,1.5,0.7,3,1.2,4.4c4.4,13.9,14.7,22.5,30.9,25.7c6.4,1.3,12.9,1,19.2-0.8
	c1.7-0.5,2.6-0.2,3.7,1c11.4,12.2,31.1,16.1,47.5,9.5c0.8-0.3,1.6-0.7,2.4-1.1v-93.2C1294.9,709.1,1284.9,705.6,1273,705.8z"/>
</svg>
