<?xml version="1.0" encoding="utf-8"?>
<!-- Generator: Adobe Illustrator 21.1.0, SVG Export Plug-In . SVG Version: 6.00 Build 0)  -->
<svg version="1.1" id="Layer_1" xmlns="http://www.w3.org/2000/svg" xmlns:xlink="http://www.w3.org/1999/xlink" x="0px" y="0px"
	 viewBox="0 0 317.7 100" style="enable-background:new 0 0 317.7 100;" xml:space="preserve">
<style type="text/css">
	.st0{fill:#39B54A;}
	.st1{fill:#FFFFFF;}
	.st2{fill:#00AAEC;}
</style>
<g>
	<circle class="st0" cx="35.8" cy="64.2" r="30"/>
	<path class="st1" d="M16.6,63.2c0,6.2,1.7,11.1,5,14.7c3.5,3.7,8.2,5.5,14.2,5.5c3.1,0,5.9-0.5,8.4-1.5c3.2-1.3,6-4,8.5-8.1
		l4.1,1.9c-2.9,5.4-7.3,9.1-13.2,11c-2.3,0.7-4.9,1.1-7.7,1.1c-6.8,0-12.5-2.2-16.9-6.7c-4.5-4.5-6.7-10.1-6.7-16.9
		c0-6.8,2.2-12.5,6.6-16.9c4.5-4.5,10.2-6.7,17-6.7c6.8,0,12.4,2.1,16.8,6.3c4.5,4.2,6.7,9.6,6.7,16.3H16.6z M47.8,48.7
		c-3.5-2.5-7.4-3.7-11.9-3.7c-9.4,0-15.6,4.6-18.5,13.8h37C53.5,54.6,51.4,51.3,47.8,48.7z"/>
	<g>
		<path class="st2" d="M93.2,49c-1.2-0.9-2.4-1.6-3.8-2.1c-1.3-0.5-2.7-0.8-4.2-0.8c-1.3,0-2.4,0.4-3.5,1.2
			c-1.1,0.8-2.1,1.7-2.9,2.9c-0.8,1.1-1.5,2.4-1.9,3.8c-0.5,1.4-0.7,2.7-0.7,3.9v30h-4.5V42.2h4.5v6.2c1-1.7,2.2-3.2,3.8-4.6
			c1.5-1.4,3.2-2.1,5.1-2.1c2.3,0,4.2,0.3,5.6,0.8c1.5,0.5,3.1,1.4,5,2.8L93.2,49z"/>
		<path class="st2" d="M100.2,64.1c0,6.2,1.7,11.1,5,14.7c3.5,3.7,8.2,5.5,14.2,5.5c3.1,0,5.9-0.5,8.4-1.5c3.2-1.3,6-4,8.5-8.1
			l4.1,1.9c-2.9,5.4-7.3,9.1-13.2,11c-2.3,0.7-4.9,1.1-7.7,1.1c-6.8,0-12.5-2.2-16.9-6.7c-4.5-4.5-6.7-10.1-6.7-16.9
			c0-6.8,2.2-12.5,6.6-16.9c4.5-4.5,10.2-6.7,17-6.7c6.8,0,12.4,2.1,16.8,6.3c4.5,4.2,6.7,9.6,6.7,16.3H100.2z M131.4,49.6
			c-3.5-2.5-7.4-3.8-11.9-3.8c-9.4,0-15.6,4.6-18.5,13.9h37C137.1,55.6,135,52.2,131.4,49.6z"/>
		<path class="st2" d="M164.2,10.7l-3-0.3c-4.1,0-6.2,2.4-6.2,7.3v24.6h10.8v4.5h-10.8v41.1h-4.5V46.8h-6.2v-4.5h6.2V16.3
			c0-7,3.5-10.5,10.6-10.5c1.6,0,2.6,0.1,3.1,0.2c0.9,0,1.9,0.3,3,0.8v4.5L164.2,10.7z"/>
		<path class="st2" d="M173.7,87.8V6.1h4.4v81.7H173.7z"/>
		<path class="st2" d="M194.6,64.1c0,6.2,1.7,11.1,5,14.7c3.5,3.7,8.2,5.5,14.2,5.5c3.1,0,5.9-0.5,8.4-1.5c3.2-1.3,6-4,8.5-8.1
			l4.1,1.9c-2.9,5.4-7.3,9.1-13.2,11c-2.3,0.7-4.9,1.1-7.7,1.1c-6.8,0-12.5-2.2-16.9-6.7c-4.5-4.5-6.7-10.1-6.7-16.9
			c0-6.8,2.2-12.5,6.6-16.9c4.5-4.5,10.2-6.7,17-6.7c6.8,0,12.4,2.1,16.8,6.3c4.5,4.2,6.7,9.6,6.7,16.3H194.6z M225.7,49.6
			c-3.5-2.5-7.4-3.8-11.9-3.8c-9.4,0-15.6,4.6-18.5,13.9h37C231.5,55.6,229.3,52.2,225.7,49.6z"/>
		<path class="st2" d="M269.3,88.7c-6.8,0-12.4-2.2-16.9-6.7c-4.5-4.5-6.7-10.1-6.7-16.9c0-6.8,2.2-12.4,6.7-16.9
			c4.5-4.5,10.1-6.7,16.9-6.7c5.8,0,10.4,1.3,13.9,4v5.4l-2.9-1.9l-3.1-1.7c-2.8-1-5.4-1.4-7.9-1.4c-5.7,0-10.3,1.8-13.8,5.3
			c-3.6,3.6-5.4,8.2-5.4,13.9c0,5.6,1.8,10.2,5.4,13.8c3.6,3.6,8.2,5.4,13.8,5.4c5.3,0,9.9-1.8,13.9-5.3v5.6
			C279.1,87.3,274.5,88.7,269.3,88.7z"/>
		<path class="st2" d="M303,46.8v41.1h-4.5V46.8h-6.2v-4.5h6.2v-20h4.5v20h10.6v4.5H303z"/>
	</g>
</g>
</svg>
