<?xml version="1.0" encoding="utf-8"?>
<!-- Generator: Adobe Illustrator 21.1.0, SVG Export Plug-In . SVG Version: 6.00 Build 0)  -->
<svg version="1.1" id="Layer_1" xmlns="http://www.w3.org/2000/svg" xmlns:xlink="http://www.w3.org/1999/xlink" x="0px" y="0px"
	 viewBox="0 0 200 200" style="enable-background:new 0 0 200 200;" xml:space="preserve">
<style type="text/css">
	.st0{fill:#3F93D8;}
	.st1{fill:#FFFFFF;}
</style>
<circle class="st0" cx="101.5" cy="100" r="67.5"/>
<path class="st1" d="M100,13.5c-47.8,0-86.5,38.7-86.5,86.5s38.7,86.5,86.5,86.5s86.5-38.7,86.5-86.5S147.8,13.5,100,13.5z
	 M128.3,65.2c-2.9,0-5.8,0.2-8.7,0c-4.3-0.4-8.6,4.1-8.3,8.4c0.1,1.3,0.1,2.6,0,3.9c-0.1,1.2,0.4,1.6,1.6,1.6c4.6-0.1,9.2,0,13.8,0
	c0.5,0,1,0,1.7,0c0,6.1,0,12.2,0,18.4c-5.5,0-11.1,0-16.9,0c0,18.7,0,37.3,0,56.1c-0.9,0-1.4,0-1.9,0c-6.7,0-13.5,0-20.2,0
	c-2.2,0-2.2,0-2.2-2.2c0-17.3,0-34.6,0-51.8c0-0.6,0-1.2,0-2c-0.7,0-1.2,0-1.7,0c-4.1,0-8.1,0-12.2,0c-1.1,0-1.5-0.3-1.5-1.5
	c0.1-5.2,0.1-10.4,0-15.5c0-1.2,0.5-1.5,1.6-1.4c4,0,8,0,12,0c0.5,0,1.1,0,1.7,0c0-0.6,0.1-1.1,0.1-1.6c0-3.2-0.1-6.5,0-9.7
	c0.3-8.6,5.4-16.1,13.6-19.5c3.1-1.3,6.2-1.7,9.5-1.7c4.5,0,9,0,13.5,0c1.5,0,3,0.2,4.6,0.3C128.3,53,128.3,59,128.3,65.2z"/>
</svg>
