<?xml version="1.0" encoding="utf-8"?>
<!-- Generator: Adobe Illustrator 21.1.0, SVG Export Plug-In . SVG Version: 6.00 Build 0)  -->
<svg version="1.1" id="Layer_1" xmlns="http://www.w3.org/2000/svg" xmlns:xlink="http://www.w3.org/1999/xlink" x="0px" y="0px"
	 viewBox="0 0 300 300" style="enable-background:new 0 0 300 300;" xml:space="preserve">
<style type="text/css">
	.st0{fill:#3E92D7;}
</style>
<g>
	<path class="st0" d="M271.8,15.1c0,6.6,0,13.1,0,19.7c0.1,42.5,0.2,85,0.4,127.5c0,5.4,0.1,10.8,0.3,16.2c0.1,2.5-0.8,4-2.7,5.4
		c-6.4,4.8-13.8,6.5-21.6,6.9c-12,0.6-23.3-2.7-34.6-6c-20.4-6.1-41.2-9.7-62.4-9.8c-22.7-0.1-44.7,3.7-65.1,14.4
		c-2.3,1.2-3.3,2.2-2.7,5.2c6.1,29,12,58.1,18,87.1c0.6,2.7,0.1,3.9-2.8,4.3c-5.6,0.9-11.2,2.2-16.8,3.5c-2.2,0.5-3.2-0.2-3.6-2.4
		C75,271,71.7,255,68.4,238.9c-6.8-32.9-13.5-65.9-20.3-98.8c-6.8-32.8-13.6-65.6-20.4-98.5c-0.5-2.3,0.1-3.3,2.6-3.7
		c5.5-0.9,10.9-2.8,16.5-3.2c11.8-0.8,21.7-7.1,32.6-10.4C97.1,19,115,14,133.4,11.8c20.9-2.5,41.6-2.3,61.4,6.4
		c8.1,3.6,15.9,7.9,24.1,11.1c9.6,3.8,19.6,5.1,29.9,2.7c9.8-2.3,16.9-8.3,21.9-17C271.1,15,271.4,15.1,271.8,15.1z M178.8,154.4
		c-2.4-12.6-4.7-24.6-7-36.4c11.5,0,21.3,4.9,30.8,10.3c0.9,0.5,2.1,1.5,2.2,2.3c1.2,10.3,2.4,20.5,3.3,30.8
		c0.5,5.4,0.3,5.4,5.5,6.9c1.8,0.5,3.5,1.1,5.3,1.4c7.1,1.4,14.2,2.8,21.5-0.2c0-1.2,0-2.4,0-3.5c0-10.3,0-20.5,0-30.8
		c0-2,0.5-2.7,2.7-2.9c5-0.5,10-1.4,14.9-2.5c4.6-1.1,4.8-1.7,5.1-6.4c0.5-8,1.2-15.9,1.8-23.9c0.4-5.7,0.7-11.3,1.1-17.3
		c-4.5,2-8.4,4-12.5,5.6c-4,1.5-8.3,2.6-12.9,4c0-12.7,0-24.4,0-36.3c-16.1,1.7-30.3-4.6-45.4-9.2c1.1,11.9,2.1,23.2,3.2,35.3
		c-9.6-8.6-20.4-13-32.1-15.3c-2.7-0.5-4-2.3-4.4-5.2c-1.2-9.7-2.6-19.4-4.1-29.1c-0.8-5.2-1-5.4-6.3-6.4c-16.4-3.1-32.4-1-48.2,3.7
		c-2.1,0.6-2.3,1.7-1.7,3.6c3,10.4,5.7,20.8,8.7,31.1c0.9,2.9-0.1,3.9-2.8,4.4c-10,1.6-18.9,5.9-27.2,11.5c-1.9,1.3-2.2,2.5-1.6,4.5
		c4.1,15.5,8.2,31.1,12.3,46.6c0.3,1.1,0.8,2.2,1.4,3.9c10.4-7.7,21.6-12.7,33.3-17.1c0.4,1,0.6,1.7,0.8,2.4
		c2.7,9.5,5.4,19.1,8.1,28.6c1.4,4.8,1.6,5.1,6.4,4.3c9.2-1.5,18.3-1.2,27.4,0C171.6,153.4,174.9,153.9,178.8,154.4z"/>
	<path class="st0" d="M171.3,115.6c-4.4-0.7-8.3-1.5-12.2-2c-10.3-1.4-20.5-1-30.5,1.6c-2.4,0.6-3-0.2-3.6-2.2
		c-4.2-14.1-8.3-28.1-12.6-42.1c-0.7-2.2-0.1-2.8,1.9-3.3c14.5-3.5,29.2-4.2,44-2.1c1.6,0.2,3.1,0.5,3.5,2.6
		C164.9,83.7,168,99.3,171.3,115.6z"/>
	<path class="st0" d="M199.7,83.5c6.6,1.7,12.8,3.5,19.1,4.8c5.5,1.1,11.1,1.7,16.6,2.5c2.4,0.3,3.5,1.2,3.4,3.9
		c-0.2,12.1-0.1,24.2-0.1,36.2c-6.7,0-13.9,0.2-21-0.1c-3.3-0.1-6.6-1-9.8-2c-1.1-0.3-2.4-1.9-2.5-3c-1.6-11.1-3.1-22.2-4.5-33.3
		C200.5,89.6,200.1,86.6,199.7,83.5z"/>
</g>
</svg>
