<?xml version="1.0" encoding="utf-8"?>
<!-- Generator: Adobe Illustrator 21.1.0, SVG Export Plug-In . SVG Version: 6.00 Build 0)  -->
<svg version="1.1" id="Layer_1" xmlns="http://www.w3.org/2000/svg" xmlns:xlink="http://www.w3.org/1999/xlink" x="0px" y="0px"
	 viewBox="0 0 60 60" style="enable-background:new 0 0 60 60;" xml:space="preserve">
<style type="text/css">
	.st0{fill:#FFFFFF;}
</style>
<g>
	<path class="st0" d="M29.9,55.1c-6.7,0-13.4,0-20.1,0c-4.3,0-7.2-2.9-7.2-7.2c0-11.9,0-23.9,0-35.8c0-4.2,2.9-7.2,7.2-7.2
		c13.5,0,27,0,40.4,0c4.2,0,7.2,3,7.2,7.2c0,12,0,23.9,0,35.9c0,4.2-3,7.1-7.1,7.1C43.5,55.1,36.7,55.1,29.9,55.1z M46,50.5
		c1.5,0,2.9,0,4.2,0c1.8,0,2.6-0.9,2.6-2.6c0-11.9,0-23.9,0-35.8c0-1.8-0.8-2.7-2.7-2.7c-13.5,0-26.9,0-40.4,0
		c-1.8,0-2.6,0.8-2.6,2.6c0,12,0,23.9,0,35.9c0,1.8,0.9,2.6,2.6,2.6c8,0,16,0,24,0c0.3,0,0.5,0,0.8,0c0-1.6,0-3.1,0-4.6
		c2,0,3.8,0,5.7,0c1.9,0,3.7,0,5.7,0C46,47.5,46,49,46,50.5z"/>
	<path class="st0" d="M46,39.1c-10.7,0-21.3,0-32,0c0-1.1,0.1-2.3,0-3.4c-0.1-1,0.3-1.5,1.1-1.9c2.2-1.3,4.5-1.8,7-1.1
		c0.3,0.1,0.7,0,0.9-0.2c4.4-3.3,9.8-3.3,14.1,0c0.2,0.2,0.6,0.2,0.9,0.1c2.7-0.7,5.2-0.3,7.5,1.5c0.4,0.3,0.5,0.6,0.5,1.1
		C45.9,36.4,46,37.7,46,39.1z"/>
	<path class="st0" d="M25.4,23.1c0-2.5,2.1-4.5,4.6-4.5c2.5,0,4.5,2.1,4.5,4.6c0,2.5-2.1,4.6-4.6,4.5C27.4,27.7,25.4,25.6,25.4,23.1
		z"/>
	<path class="st0" d="M19.7,30c-1.9,0-3.4-1.6-3.4-3.5c0-1.9,1.6-3.4,3.4-3.4c1.9,0,3.4,1.6,3.4,3.5C23.1,28.5,21.6,30,19.7,30z"/>
	<path class="st0" d="M40.2,23.2c1.9,0,3.5,1.5,3.4,3.4c0,1.9-1.5,3.4-3.4,3.4c-1.9,0-3.5-1.5-3.4-3.4
		C36.9,24.7,38.4,23.2,40.2,23.2z"/>
</g>
<text transform="matrix(1 0 0 1 750 500)" style="font-family:'MyriadPro-Regular'; font-size:12px;">C:\Users\Veda\Documents\Typesy\angular\svg logos</text>
</svg>
