<?xml version="1.0" encoding="utf-8"?>
<!-- Generator: Adobe Illustrator 21.1.0, SVG Export Plug-In . SVG Version: 6.00 Build 0)  -->
<svg version="1.1" id="Layer_1" xmlns="http://www.w3.org/2000/svg" xmlns:xlink="http://www.w3.org/1999/xlink" x="0px" y="0px"
	 viewBox="0 0 150 150" style="enable-background:new 0 0 150 150;" xml:space="preserve">
<style type="text/css">
	.st0{fill:#FFFFFF;}
</style>
<path class="st0" d="M119.1,91C106,91,93,91,80,91c0-7.1,0-14.2,0-21.3c21.5,0,43.1,0,64.7,0c-0.1,1.6-0.3,3.2-0.4,4.8
	c-0.2,2.5-0.5,5.1-0.7,7.6c-0.5,5.5-1.7,10.8-3.6,16c-4.6,12.8-12.2,23.3-22.9,31.7c-7.8,6.1-16.5,10.2-26,12.6
	c-7.2,1.8-14.5,2.4-21.9,1.7c-15.4-1.3-28.9-7.1-40.4-17.4c-10.5-9.3-17.5-20.8-21.1-34.4C5.6,85,5,77.6,5.5,70.1
	c1-14.1,5.9-26.8,14.7-37.9c8.6-10.9,19.6-18.6,32.7-23c5.1-1.7,10.4-2.8,15.8-3.2c5.5-0.5,11-0.3,16.5,0.6
	c10,1.6,19.2,5.1,27.6,10.7c3.2,2.1,6.2,4.5,9.1,7.1c-4.8,5.2-9.7,10.4-14.5,15.6c-0.5-0.4-1-0.9-1.4-1.3
	c-6.6-5.6-14.1-9.4-22.6-10.8c-14.2-2.4-27.1,0.6-38.5,9.5c-9,7.1-14.8,16.3-17.1,27.6c-2.7,12.8-0.6,24.8,6.4,35.9
	c5.2,8.3,12.4,14.3,21.3,18.3c6.5,2.9,13.4,4.2,20.5,3.9c11.5-0.4,21.5-4.4,30-12.1c5.9-5.4,10.2-11.9,13-19.4
	C119,91.4,119,91.2,119.1,91z"/>
</svg>
