<?xml version="1.0" encoding="utf-8"?>
<!-- Generator: Adobe Illustrator 21.1.0, SVG Export Plug-In . SVG Version: 6.00 Build 0)  -->
<svg version="1.1" id="Layer_1" xmlns="http://www.w3.org/2000/svg" xmlns:xlink="http://www.w3.org/1999/xlink" x="0px" y="0px"
	 viewBox="0 0 150 150" style="enable-background:new 0 0 150 150;" xml:space="preserve">
<style type="text/css">
	.st0{fill:#E94335;}
	.st1{fill:#34A753;}
	.st2{fill:#4284F3;}
	.st3{fill:#FABB05;}
</style>
<g>
	<path class="st0" d="M14.3,44.2c2-4.4,4.6-8.4,7.6-12.2c11.3-14.2,26-23,43.9-25.7c21-3.2,39.6,2.4,56,15.9
		c0.5,0.4,0.6,0.7,0.1,1.1c-6.4,6.3-12.7,12.7-19,19c-0.6,0.6-1,0.3-1.5-0.1c-5.9-4.5-12.5-7.4-19.9-8.2C69,32.9,58,36.4,48.7,44.8
		c-5,4.5-8.6,10.1-10.9,16.5c-0.1,0.3-0.2,0.5-0.4,0.8c-1.2-0.2-1.9-1.1-2.8-1.8c-6.4-5-12.9-9.8-19.3-14.8
		C14.9,45.1,14.4,44.8,14.3,44.2z"/>
	<path class="st1" d="M121.9,127.1c-6.9,6.5-15,11.1-23.9,14c-7.8,2.5-15.9,3.8-24.1,3.3c-26.6-1.7-46.4-14.3-59.2-37.8
		c-0.2-0.3-0.3-0.6-0.4-0.9c0.8-1.3,2.2-2,3.3-2.9c6.3-4.8,12.6-9.6,18.8-14.4c0.3-0.3,0.7-0.5,1.1-0.5c2.4,6.8,6.1,12.7,11.5,17.5
		c7.4,6.6,16.1,10.2,26.1,10.6c8.8,0.3,17.1-1.4,24.6-6c0.5-0.1,0.9,0.3,1.2,0.5c6.7,5.2,13.5,10.4,20.3,15.7
		C121.5,126.5,121.8,126.7,121.9,127.1z"/>
	<path class="st2" d="M121.9,127.1c-6.8-5.2-13.6-10.5-20.4-15.7c-0.6-0.5-1.2-0.9-1.8-1.4c4.5-3.1,8.3-6.8,10.9-11.7
		c1.3-2.5,2.2-5.1,3-7.9c0.3-1.2-0.1-1.2-1-1.2c-8.3,0-16.6,0-24.9,0c-3.3,0-6.7,0-10,0c-0.8,0-1.1-0.2-1.1-1.1c0-8.3,0-16.5,0-24.8
		c0-0.8,0.2-1.1,1-1.1c20.9,0,41.9,0,62.8,0c0.8,0,1,0.2,1.2,1c1.5,6.5,1.6,13.1,1,19.7c-0.8,9.1-3.1,17.7-7.1,25.9
		c-3.2,6.5-7.4,12.3-12.6,17.4C122.5,126.6,122.2,126.8,121.9,127.1z"/>
	<path class="st3" d="M37.5,87.9c-7.5,5.8-15.1,11.6-22.6,17.4c-0.2,0.2-0.4,0.3-0.6,0.4c-2.3-4.2-3.9-8.8-5-13.4
		c-4-16.2-2.5-31.9,4.5-47c0.2-0.3,0.4-0.7,0.6-1c3.6,2.8,7.2,5.5,10.8,8.3c4.1,3.2,8.3,6.4,12.4,9.5c-0.8,3.2-1.6,6.3-1.8,9.6
		C35.3,77.2,35.9,82.6,37.5,87.9z"/>
</g>
</svg>
