<?xml version="1.0" encoding="utf-8"?>
<!-- Generator: Adobe Illustrator 21.1.0, SVG Export Plug-In . SVG Version: 6.00 Build 0)  -->
<svg version="1.1" id="Layer_1" xmlns="http://www.w3.org/2000/svg" xmlns:xlink="http://www.w3.org/1999/xlink" x="0px" y="0px"
	 viewBox="0 0 200 200" style="enable-background:new 0 0 200 200;" xml:space="preserve">
<style type="text/css">
	.st0{fill:#FFFFFF;}
</style>
<path class="st0" d="M100,13.5c-47.8,0-86.5,38.7-86.5,86.5s38.7,86.5,86.5,86.5s86.5-38.7,86.5-86.5S147.8,13.5,100,13.5z
	 M116,101.2c-0.2,6.5-2,12.5-5.5,17.9c-4.3,6.7-10.1,11.5-17.5,14.4c-5,1.9-10.2,2.7-15.6,2.3c-8.3-0.7-15.5-3.8-21.6-9.4
	c-5.4-4.9-9-11-10.6-18.1c-2.7-12.3,0.1-23.2,8.5-32.5c4.8-5.3,10.7-8.8,17.6-10.5c4.8-1.2,9.6-1.4,14.5-0.6
	c6.9,1.1,12.9,4,18.1,8.6c0.1,0.1,0.2,0.2,0.4,0.4c-2.9,2.8-5.7,5.6-8.6,8.4c-0.6-0.5-1.3-1-1.9-1.4c-4.4-3.1-9.4-4.6-14.8-4.4
	c-11.1,0.5-20.5,8.7-22.5,19.6c-1.8,10.2,3,20.4,12.1,25.3c4.2,2.3,8.8,3.3,13.6,2.8c9-1,15.6-5.6,19.8-13.7c1-1.9,1.6-3.9,1.9-6.1
	c-4,0-8,0-12,0c-4,0-7.9,0-11.9,0c0-4,0-8,0-12c0.2,0,0.3,0,0.4,0c11.4,0,22.7,0,34.1,0c0.3,0,0.5,0.1,0.6,0.4
	C115.8,95.3,116.1,98.3,116,101.2z M155.8,100c-4,0-7.9,0-11.9,0c0,4,0,8,0,11.9c-2.7,0-5.3,0-8,0c0-4,0-7.9,0-11.9
	c-4,0-7.9,0-11.9,0c0-2.7,0-5.3,0-8c4,0,7.9,0,11.9,0c0-4,0-8,0-11.9c2.7,0,5.3,0,8,0c0,4,0,7.9,0,11.9c4,0,8,0,11.9,0
	C155.8,94.7,155.8,97.3,155.8,100z"/>
</svg>
