<?xml version="1.0" encoding="utf-8"?>
<!-- Generator: Adobe Illustrator 21.1.0, SVG Export Plug-In . SVG Version: 6.00 Build 0)  -->
<svg version="1.1" id="Layer_1" xmlns="http://www.w3.org/2000/svg" xmlns:xlink="http://www.w3.org/1999/xlink" x="0px" y="0px"
	 viewBox="0 0 200 200" style="enable-background:new 0 0 200 200;" xml:space="preserve">
<style type="text/css">
	.st0{fill:#FFFFFF;}
	.st1{fill:#3F93D8;}
</style>
<path class="st0" d="M100,13.5c-47.8,0-86.5,38.7-86.5,86.5s38.7,86.5,86.5,86.5s86.5-38.7,86.5-86.5S147.8,13.5,100,13.5z"/>
<g>
	<path class="st1" d="M144,100c0,5.5,0,11.1,0,16.6c-0.1,13.2-8.9,24-21.7,26.8c-1.8,0.4-3.7,0.6-5.5,0.6c-11.2,0.1-22.4,0.1-33.6,0
		c-13.1-0.1-23.9-9-26.6-21.7c-0.4-1.8-0.6-3.6-0.6-5.4C56,105.6,56,94.4,56,83.2c0.1-13,8.9-23.8,21.7-26.5
		c1.8-0.4,3.7-0.6,5.5-0.6c11.2-0.1,22.4-0.1,33.6,0c13.1,0.1,23.9,9,26.6,21.7c0.4,1.9,0.6,4,0.6,6C144,89.2,144,94.6,144,100z
		 M136.4,100.1c0-5.4,0-10.9,0-16.3c0-11.5-8.6-20.1-20.1-20.1c-10.8,0-21.6,0-32.4,0c-11.5,0-20.1,8.6-20.1,20.1
		c0,10.8,0,21.6,0,32.4c0,11.6,8.6,20.1,20.1,20.2c10.9,0,21.7,0,32.6,0c11.5,0,20-8.6,20.1-20.1
		C136.4,110.9,136.4,105.5,136.4,100.1z"/>
	<path class="st1" d="M100,121.9c-12,0-21.8-9.9-21.8-21.8c0-12,9.9-21.9,21.9-21.9c12,0,21.9,9.9,21.9,21.9
		C121.8,112,112,121.9,100,121.9z M114.2,100.1c0-7.9-6.3-14.3-14.1-14.4c-7.9-0.1-14.3,6.2-14.4,14.1c-0.1,7.9,6.3,14.4,14.2,14.4
		C107.8,114.3,114.2,107.9,114.2,100.1z"/>
	<path class="st1" d="M118.6,75.9c0.1-3,2.6-5.3,5.6-5.2c2.9,0.1,5.2,2.6,5.2,5.5c-0.1,2.9-2.6,5.4-5.5,5.3
		C120.9,81.5,118.5,79,118.6,75.9z"/>
</g>
</svg>
