<?xml version="1.0" encoding="utf-8"?>
<!-- Generator: Adobe Illustrator 21.1.0, SVG Export Plug-In . SVG Version: 6.00 Build 0)  -->
<svg version="1.1" id="Layer_1" xmlns="http://www.w3.org/2000/svg" xmlns:xlink="http://www.w3.org/1999/xlink" x="0px" y="0px"
	 viewBox="0 0 64.2 45.6" style="enable-background:new 0 0 64.2 45.6;" xml:space="preserve">
<style type="text/css">
	.st0{opacity:0.2;}
	.st1{fill:#34AD07;}
	.st2{fill:#3F93D8;stroke:#3F93D8;stroke-width:0.5402;stroke-miterlimit:10;}
	.st3{fill:#3F93D8;stroke:#3F93D8;stroke-width:0.7563;stroke-miterlimit:10;}
	.st4{fill:none;}
</style>
<g class="st0">
	<path class="st1" d="M32.2,12.8l-2.4-4.1c-0.3-0.5-0.1-1.2,0.5-1.6l2-1.2c-5.2-2.3-11.5-2.1-16.8,1c-5.3,3.1-8.4,8.5-9,14.2l2-1.2
		c0.6-0.3,1.3-0.2,1.6,0.3l2.4,4.1c0.3,0.5,0.1,1.2-0.5,1.6l-4.6,2.7c0.4,1.2,0.9,2.3,1.6,3.4c2.2,3.7,5.5,6.3,9.2,7.8l-0.7-1.2
		c-0.4-0.6-0.2-1.4,0.4-1.7l22.8-13.5c0.6-0.3,1.3-0.1,1.7,0.4l0.7,1.2c0.5-3.9-0.2-8.1-2.4-11.8c-0.7-1.1-1.4-2.1-2.3-3.1l-4.6,2.7
		C33.3,13.4,32.5,13.3,32.2,12.8z M20.9,14c-0.3-0.5-0.1-1.2,0.5-1.6l5.1-3c0.6-0.3,1.3-0.2,1.6,0.3l2.4,4.1
		c0.3,0.5,0.1,1.2-0.5,1.6l-5.1,3c-0.6,0.3-1.3,0.2-1.6-0.3L20.9,14z M12,19.2c-0.3-0.5-0.1-1.2,0.5-1.6l5.1-3
		c0.6-0.3,1.3-0.2,1.6,0.3l2.4,4.1c0.3,0.5,0.1,1.2-0.5,1.6l-5.1,3c-0.6,0.3-1.3,0.2-1.6-0.3L12,19.2z M22,29.8
		c0.3,0.5,0.1,1.2-0.5,1.6l-5.1,3c-0.6,0.3-1.3,0.2-1.6-0.3L12.3,30c-0.3-0.5-0.1-1.2,0.5-1.6l5.1-3c0.6-0.3,1.3-0.2,1.6,0.3
		L22,29.8z M30.7,24.7c0.3,0.5,0.1,1.2-0.5,1.6l-5.1,3c-0.6,0.3-1.3,0.2-1.6-0.3l-2.4-4.1c-0.3-0.5-0.1-1.2,0.5-1.6l5.1-3
		c0.6-0.3,1.3-0.2,1.6,0.3L30.7,24.7z M37.3,15.2l2.4,4.1c0.3,0.5,0.1,1.2-0.5,1.6l-5.1,3c-0.6,0.3-1.3,0.2-1.6-0.3L30,19.5
		c-0.3-0.5-0.1-1.2,0.5-1.6l5.1-3C36.2,14.6,36.9,14.7,37.3,15.2z"/>
	<path class="st1" d="M34.3,38.6c3.1-1.8,5.4-4.4,6.9-7.3l-16.7,9.9C27.8,41.3,31.2,40.4,34.3,38.6z"/>
</g>
<g>
	<g class="st0">
		<g>
			<path class="st2" d="M19.7,21.2v-0.7h4v0.7H22v6.3h-0.7v-6.3H19.7z"/>
			<path class="st2" d="M24.1,22.4h0.7l1.9,3.9l1.8-3.9h0.7l-3.2,7h-0.7l1-2.3L24.1,22.4z"/>
			<path class="st2" d="M30.3,22.4H31v0.9c0.3-0.4,0.6-0.6,0.9-0.8c0.4-0.2,0.8-0.3,1.2-0.3c0.8,0,1.4,0.3,2,0.8
				c0.5,0.5,0.8,1.2,0.8,1.9c0,0.8-0.3,1.4-0.8,1.9c-0.5,0.5-1.2,0.8-2,0.8c-0.4,0-0.8-0.1-1.2-0.3c-0.4-0.2-0.7-0.4-1-0.8v2.8h-0.7
				V22.4z M33,22.9c-0.6,0-1.1,0.2-1.5,0.6c-0.4,0.4-0.6,0.9-0.6,1.5c0,0.4,0.1,0.7,0.3,1c0.2,0.3,0.4,0.6,0.8,0.7
				c0.3,0.2,0.7,0.3,1.1,0.3c0.4,0,0.7-0.1,1.1-0.3c0.3-0.2,0.6-0.4,0.8-0.8c0.2-0.3,0.3-0.7,0.3-1c0-0.4-0.1-0.7-0.3-1
				c-0.2-0.3-0.5-0.6-0.8-0.8C33.8,23,33.4,22.9,33,22.9z"/>
			<path class="st3" d="M38.2,26.6c0.4,0.4,0.9,0.5,1.5,0.5c0.6,0,1.2-0.2,1.6-0.6c0.1-0.1,0.1-0.1,0.2-0.2l0.5,0.2
				c-0.1,0.1-0.2,0.2-0.3,0.3c-0.5,0.5-1.2,0.8-1.9,0.8c-0.8,0-1.4-0.3-1.9-0.8C37.2,26.3,37,25.7,37,25c0-0.7,0.3-1.3,0.8-1.8
				c0.5-0.5,1.2-0.8,1.9-0.8c0.6,0,1.2,0.2,1.7,0.6c0.1,0.1,0.2,0.1,0.2,0.2c0,0,0.1,0.1,0.1,0.1l-0.3,0.3L38.2,26.6z M41,23.3
				c-0.4-0.3-0.8-0.4-1.3-0.4c-0.6,0-1.1,0.2-1.6,0.6c-0.4,0.4-0.7,0.9-0.7,1.5c0,0.5,0.1,0.9,0.4,1.3L41,23.3z"/>
			<path class="st2" d="M46.6,22.9l-0.4,0.4c-0.4-0.3-0.7-0.5-1.1-0.5c-0.2,0-0.4,0.1-0.6,0.2c-0.2,0.1-0.2,0.3-0.2,0.5
				c0,0.2,0.1,0.3,0.2,0.5c0.1,0.2,0.4,0.3,0.8,0.5c0.5,0.3,0.9,0.5,1.1,0.7c0.2,0.2,0.3,0.5,0.3,0.8c0,0.4-0.2,0.8-0.5,1.1
				c-0.3,0.3-0.7,0.4-1.2,0.4c-0.3,0-0.6-0.1-0.9-0.2c-0.3-0.1-0.5-0.3-0.7-0.5l0.4-0.5c0.4,0.4,0.7,0.6,1.1,0.6
				c0.3,0,0.5-0.1,0.7-0.3c0.2-0.2,0.3-0.4,0.3-0.6c0-0.2-0.1-0.4-0.2-0.5c-0.1-0.1-0.4-0.3-0.9-0.5c-0.5-0.2-0.8-0.5-1-0.7
				c-0.2-0.2-0.3-0.5-0.3-0.8c0-0.4,0.1-0.7,0.4-1c0.3-0.3,0.6-0.4,1.1-0.4C45.6,22.2,46.1,22.5,46.6,22.9z"/>
			<path class="st2" d="M47.8,22.4h0.7l1.9,3.9l1.8-3.9h0.7l-3.2,7h-0.7l1-2.3L47.8,22.4z"/>
		</g>
		<g>
			<path class="st1" d="M16,22.4l-0.5-0.8c-0.1-0.1,0-0.2,0.1-0.3L16,21c-1.1-0.5-2.3-0.4-3.4,0.2c-1.1,0.6-1.7,1.7-1.8,2.9l0.4-0.2
				c0.1-0.1,0.3,0,0.3,0.1l0.5,0.8c0.1,0.1,0,0.2-0.1,0.3l-0.9,0.6c0.1,0.2,0.2,0.5,0.3,0.7c0.4,0.8,1.1,1.3,1.9,1.6L13,27.7
				c-0.1-0.1,0-0.3,0.1-0.3l4.7-2.8c0.1-0.1,0.3,0,0.3,0.1l0.1,0.3c0.1-0.8,0-1.7-0.5-2.4c-0.1-0.2-0.3-0.4-0.5-0.6l-0.9,0.6
				C16.2,22.5,16.1,22.5,16,22.4z M13.7,22.6c-0.1-0.1,0-0.2,0.1-0.3l1-0.6c0.1-0.1,0.3,0,0.3,0.1l0.5,0.8c0.1,0.1,0,0.2-0.1,0.3
				l-1,0.6c-0.1,0.1-0.3,0-0.3-0.1L13.7,22.6z M11.9,23.7c-0.1-0.1,0-0.2,0.1-0.3l1-0.6c0.1-0.1,0.3,0,0.3,0.1l0.5,0.8
				c0.1,0.1,0,0.2-0.1,0.3l-1,0.6c-0.1,0.1-0.3,0-0.3-0.1L11.9,23.7z M13.9,25.9c0.1,0.1,0,0.2-0.1,0.3l-1,0.6
				c-0.1,0.1-0.3,0-0.3-0.1l-0.5-0.8c-0.1-0.1,0-0.2,0.1-0.3l1-0.6c0.1-0.1,0.3,0,0.3,0.1L13.9,25.9z M15.7,24.8
				c0.1,0.1,0,0.2-0.1,0.3l-1,0.6c-0.1,0.1-0.3,0-0.3-0.1l-0.5-0.8c-0.1-0.1,0-0.2,0.1-0.3l1-0.6c0.1-0.1,0.3,0,0.3,0.1L15.7,24.8z
				 M17,22.9l0.5,0.8c0.1,0.1,0,0.2-0.1,0.3l-1,0.6c-0.1,0.1-0.3,0-0.3-0.1l-0.5-0.8c-0.1-0.1,0-0.2,0.1-0.3l1-0.6
				C16.8,22.7,17,22.8,17,22.9z"/>
			<path class="st1" d="M16.4,27.7c0.6-0.4,1.1-0.9,1.4-1.5l-3.4,2C15.1,28.2,15.8,28,16.4,27.7z"/>
		</g>
	</g>
	<g>
		<g>
			<path class="st2" d="M19.7,20.5v-0.7h4v0.7H22v6.3h-0.7v-6.3H19.7z"/>
			<path class="st2" d="M24.1,21.6h0.7l1.9,3.9l1.8-3.9h0.7l-3.2,7h-0.7l1-2.3L24.1,21.6z"/>
			<path class="st2" d="M30.3,21.6H31v0.9c0.3-0.4,0.6-0.6,0.9-0.8c0.4-0.2,0.8-0.3,1.2-0.3c0.8,0,1.4,0.3,2,0.8
				c0.5,0.5,0.8,1.2,0.8,1.9c0,0.8-0.3,1.4-0.8,1.9c-0.5,0.5-1.2,0.8-2,0.8c-0.4,0-0.8-0.1-1.2-0.3c-0.4-0.2-0.7-0.4-1-0.8v2.8h-0.7
				V21.6z M33,22.1c-0.6,0-1.1,0.2-1.5,0.6c-0.4,0.4-0.6,0.9-0.6,1.5c0,0.4,0.1,0.7,0.3,1c0.2,0.3,0.4,0.6,0.8,0.7
				c0.3,0.2,0.7,0.3,1.1,0.3c0.4,0,0.7-0.1,1.1-0.3c0.3-0.2,0.6-0.4,0.8-0.8c0.2-0.3,0.3-0.7,0.3-1c0-0.4-0.1-0.7-0.3-1
				c-0.2-0.3-0.5-0.6-0.8-0.8C33.8,22.2,33.4,22.1,33,22.1z"/>
			<path class="st3" d="M38.2,25.9c0.4,0.4,0.9,0.5,1.5,0.5c0.6,0,1.2-0.2,1.6-0.6c0.1-0.1,0.1-0.1,0.2-0.2l0.5,0.2
				c-0.1,0.1-0.2,0.2-0.3,0.3c-0.5,0.5-1.2,0.8-1.9,0.8c-0.8,0-1.4-0.3-1.9-0.8C37.2,25.6,37,25,37,24.3c0-0.7,0.3-1.3,0.8-1.8
				c0.5-0.5,1.2-0.8,1.9-0.8c0.6,0,1.2,0.2,1.7,0.6c0.1,0.1,0.2,0.1,0.2,0.2c0,0,0.1,0.1,0.1,0.1l-0.3,0.3L38.2,25.9z M41,22.6
				c-0.4-0.3-0.8-0.4-1.3-0.4c-0.6,0-1.1,0.2-1.6,0.6c-0.4,0.4-0.7,0.9-0.7,1.5c0,0.5,0.1,0.9,0.4,1.3L41,22.6z"/>
			<path class="st2" d="M46.6,22.2l-0.4,0.4c-0.4-0.3-0.7-0.5-1.1-0.5c-0.2,0-0.4,0.1-0.6,0.2c-0.2,0.1-0.2,0.3-0.2,0.5
				c0,0.2,0.1,0.3,0.2,0.5c0.1,0.2,0.4,0.3,0.8,0.5c0.5,0.3,0.9,0.5,1.1,0.7c0.2,0.2,0.3,0.5,0.3,0.8c0,0.4-0.2,0.8-0.5,1.1
				c-0.3,0.3-0.7,0.4-1.2,0.4c-0.3,0-0.6-0.1-0.9-0.2c-0.3-0.1-0.5-0.3-0.7-0.5l0.4-0.5c0.4,0.4,0.7,0.6,1.1,0.6
				c0.3,0,0.5-0.1,0.7-0.3c0.2-0.2,0.3-0.4,0.3-0.6c0-0.2-0.1-0.4-0.2-0.5c-0.1-0.1-0.4-0.3-0.9-0.5c-0.5-0.2-0.8-0.5-1-0.7
				c-0.2-0.2-0.3-0.5-0.3-0.8c0-0.4,0.1-0.7,0.4-1c0.3-0.3,0.6-0.4,1.1-0.4C45.6,21.5,46.1,21.7,46.6,22.2z"/>
			<path class="st2" d="M47.8,21.6h0.7l1.9,3.9l1.8-3.9h0.7l-3.2,7h-0.7l1-2.3L47.8,21.6z"/>
		</g>
		<g>
			<path class="st1" d="M16,21.6l-0.5-0.8c-0.1-0.1,0-0.2,0.1-0.3l0.4-0.2c-1.1-0.5-2.3-0.4-3.4,0.2c-1.1,0.6-1.7,1.7-1.8,2.9
				l0.4-0.2c0.1-0.1,0.3,0,0.3,0.1L12,24c0.1,0.1,0,0.2-0.1,0.3l-0.9,0.6c0.1,0.2,0.2,0.5,0.3,0.7c0.4,0.8,1.1,1.3,1.9,1.6L13,26.9
				c-0.1-0.1,0-0.3,0.1-0.3l4.7-2.8c0.1-0.1,0.3,0,0.3,0.1l0.1,0.3c0.1-0.8,0-1.7-0.5-2.4c-0.1-0.2-0.3-0.4-0.5-0.6l-0.9,0.6
				C16.2,21.7,16.1,21.7,16,21.6z M13.7,21.9c-0.1-0.1,0-0.2,0.1-0.3l1-0.6c0.1-0.1,0.3,0,0.3,0.1l0.5,0.8c0.1,0.1,0,0.2-0.1,0.3
				l-1,0.6c-0.1,0.1-0.3,0-0.3-0.1L13.7,21.9z M11.9,22.9c-0.1-0.1,0-0.2,0.1-0.3l1-0.6c0.1-0.1,0.3,0,0.3,0.1l0.5,0.8
				c0.1,0.1,0,0.2-0.1,0.3l-1,0.6c-0.1,0.1-0.3,0-0.3-0.1L11.9,22.9z M13.9,25.1c0.1,0.1,0,0.2-0.1,0.3l-1,0.6
				c-0.1,0.1-0.3,0-0.3-0.1l-0.5-0.8c-0.1-0.1,0-0.2,0.1-0.3l1-0.6c0.1-0.1,0.3,0,0.3,0.1L13.9,25.1z M15.7,24
				c0.1,0.1,0,0.2-0.1,0.3l-1,0.6c-0.1,0.1-0.3,0-0.3-0.1l-0.5-0.8c-0.1-0.1,0-0.2,0.1-0.3l1-0.6c0.1-0.1,0.3,0,0.3,0.1L15.7,24z
				 M17,22.1l0.5,0.8c0.1,0.1,0,0.2-0.1,0.3l-1,0.6c-0.1,0.1-0.3,0-0.3-0.1L15.6,23c-0.1-0.1,0-0.2,0.1-0.3l1-0.6
				C16.8,22,17,22,17,22.1z"/>
			<path class="st1" d="M16.4,26.9c0.6-0.4,1.1-0.9,1.4-1.5l-3.4,2C15.1,27.4,15.8,27.3,16.4,26.9z"/>
		</g>
		<rect id="_x3C_Slice_x3E__2_" x="10.6" y="18.5" class="st4" width="43" height="11.1"/>
	</g>
</g>
</svg>
