<?xml version="1.0" encoding="utf-8"?>
<!-- Generator: Adobe Illustrator 21.1.0, SVG Export Plug-In . SVG Version: 6.00 Build 0)  -->
<svg version="1.1" id="Layer_1" xmlns="http://www.w3.org/2000/svg" xmlns:xlink="http://www.w3.org/1999/xlink" x="0px" y="0px"
	 viewBox="0 0 800 220" style="enable-background:new 0 0 800 220;" xml:space="preserve">
<style type="text/css">
	.st0{fill:#F4BF2F;}
	.st1{fill:#D89A3A;}
	.st2{fill:#F9D01C;}
	.st3{fill:#93501B;}
	.st4{fill:#3F93D8;stroke:#3F93D8;stroke-width:2.5463;stroke-miterlimit:10;}
	.st5{fill:#FFFFFF;}
</style>
<g>
	<polygon class="st0" points="795,132.1 795,132.2 758.8,170.8 795,212.5 795,213 648,213 648,132.1 	"/>
	<polygon class="st0" points="5,132.1 5,132.2 41.2,170.8 5,212.5 5,213 152,213 152,132.1 	"/>
	<polygon class="st1" points="152,107.1 83.1,107.1 83.1,189.5 152,212.9 	"/>
	<polygon class="st1" points="647.8,106 716.7,106 716.7,188.5 647.8,211.9 	"/>
	<rect x="83.2" y="106" class="st2" width="633.8" height="80.9"/>
</g>
<g>
	<path class="st3" d="M149.6,132.4h-12.1V166h-4.9v-33.6h-12.1v-4.1h29.1V132.4z"/>
	<path class="st3" d="M167.1,147.2l9.8-18.9h5.6l-13,23.6V166h-5v-14.1l-13-23.6h5.7L167.1,147.2z"/>
	<path class="st3" d="M192.5,151.2V166h-5v-37.7h13.9c2.1,0,4,0.3,5.7,0.9c1.6,0.6,3,1.4,4.1,2.4s2,2.2,2.5,3.6s0.9,2.9,0.9,4.6
		c0,1.8-0.3,3.4-0.9,4.9c-0.6,1.4-1.4,2.6-2.5,3.6s-2.5,1.7-4.1,2.2s-3.5,0.8-5.7,0.8h-8.9V151.2z M192.5,147.2h8.9
		c1.4,0,2.7-0.2,3.7-0.5s1.9-0.9,2.6-1.5c0.7-0.6,1.2-1.4,1.5-2.3c0.3-0.9,0.5-1.9,0.5-2.9s-0.2-1.9-0.5-2.8
		c-0.3-0.9-0.8-1.7-1.5-2.4s-1.5-1.2-2.6-1.7s-2.3-0.6-3.7-0.6h-8.9V147.2z"/>
	<path class="st3" d="M242.2,148.6h-16.3V162h19v4.1H221v-37.7h23.7v4.1H226v12.1h16.3v4H242.2z"/>
	<path class="st3" d="M271.1,156.5c0-0.9-0.1-1.7-0.4-2.3c-0.3-0.7-0.7-1.3-1.4-1.9s-1.6-1.1-2.8-1.6c-1.2-0.5-2.6-1-4.4-1.5
		c-1.9-0.5-3.5-1.1-5.1-1.8c-1.5-0.7-2.8-1.5-3.9-2.4c-1.1-0.9-1.9-1.9-2.4-3s-0.9-2.4-0.9-3.9s0.3-2.8,0.9-4.1
		c0.6-1.3,1.5-2.3,2.6-3.3c1.1-0.9,2.5-1.6,4-2.2c1.6-0.5,3.3-0.8,5.3-0.8c2.1,0,4,0.3,5.7,1c1.7,0.6,3,1.5,4.2,2.5
		c1.1,1.1,2,2.3,2.6,3.6c0.6,1.4,0.9,2.8,0.9,4.3h-5c0-1.1-0.2-2-0.5-2.9s-0.8-1.7-1.5-2.3c-0.7-0.7-1.6-1.2-2.6-1.5
		c-1-0.4-2.3-0.5-3.7-0.5c-1.3,0-2.5,0.2-3.5,0.5s-1.8,0.7-2.4,1.3c-0.6,0.5-1.1,1.2-1.4,1.9s-0.5,1.6-0.5,2.4
		c0,0.8,0.2,1.5,0.5,2.2s0.9,1.3,1.6,1.8c0.7,0.6,1.6,1.1,2.7,1.5c1.1,0.5,2.4,0.9,4,1.3c2.1,0.6,4,1.3,5.5,2s2.8,1.6,3.8,2.5
		s1.8,2,2.3,3.1c0.5,1.2,0.7,2.5,0.7,3.9c0,1.5-0.3,2.9-0.9,4.2s-1.5,2.3-2.7,3.2c-1.1,0.9-2.5,1.6-4.1,2c-1.6,0.5-3.4,0.7-5.4,0.7
		c-1.2,0-2.3-0.1-3.5-0.3s-2.3-0.5-3.3-1c-1.1-0.4-2-1-3-1.6c-0.9-0.6-1.7-1.4-2.4-2.2s-1.2-1.8-1.6-2.8c-0.4-1.1-0.6-2.2-0.6-3.5h5
		c0,1.3,0.3,2.4,0.8,3.3c0.5,0.9,1.2,1.7,2,2.3c0.9,0.6,1.8,1,3,1.3c1.1,0.3,2.3,0.4,3.5,0.4c2.6,0,4.6-0.5,6-1.6
		C270.4,159.8,271.1,158.3,271.1,156.5z"/>
	<path class="st3" d="M294,147.2l9.8-18.9h5.6l-13,23.6V166h-5v-14.1l-13-23.6h5.7L294,147.2z"/>
	<path class="st3" d="M356.4,166h-5v-17.4h-19V166h-5v-37.7h5v16.2h19v-16.2h5V166z"/>
	<path class="st3" d="M386.5,156.2h-15.8l-3.5,9.8H362l14.4-37.7h4.3l14.4,37.7H390L386.5,156.2z M372.2,152.1H385l-6.4-17.6
		L372.2,152.1z"/>
	<path class="st3" d="M405.3,161.9h17.9v4.1h-22.9v-37.7h5V161.9z"/>
	<path class="st3" d="M433.8,161.9h17.9v4.1h-22.9v-37.7h5V161.9z"/>
	<path class="st3" d="M499.4,148.4c0,2.8-0.4,5.4-1.1,7.6c-0.7,2.2-1.7,4.1-3,5.7c-1.3,1.6-2.9,2.8-4.8,3.6s-3.9,1.2-6.2,1.2
		c-2.2,0-4.3-0.4-6.1-1.2s-3.5-2-4.8-3.6s-2.4-3.5-3.1-5.7s-1.1-4.8-1.1-7.6V146c0-2.8,0.4-5.3,1.1-7.6s1.8-4.2,3.1-5.7
		s2.9-2.8,4.8-3.6s3.9-1.3,6.1-1.3c2.3,0,4.4,0.4,6.2,1.3c1.9,0.8,3.5,2,4.8,3.6s2.3,3.5,3.1,5.7c0.7,2.3,1.1,4.8,1.1,7.6v2.4H499.4
		z M494.5,145.9c0-2.2-0.2-4.2-0.7-6c-0.5-1.7-1.1-3.2-2-4.3c-0.9-1.2-2-2.1-3.2-2.7c-1.3-0.6-2.7-0.9-4.3-0.9
		c-1.5,0-2.9,0.3-4.2,0.9s-2.3,1.5-3.2,2.7c-0.9,1.2-1.6,2.6-2.1,4.3s-0.7,3.7-0.7,6v2.4c0,2.3,0.2,4.3,0.7,6s1.2,3.2,2.1,4.4
		s2,2.1,3.2,2.7c1.3,0.6,2.7,0.9,4.2,0.9c1.6,0,3.1-0.3,4.3-0.9c1.3-0.6,2.3-1.5,3.2-2.7s1.5-2.6,2-4.4c0.4-1.7,0.7-3.7,0.7-6V145.9
		z"/>
	<path class="st3" d="M527.6,149.4h-15.8V166h-5v-37.7h23.3v4.1h-18.4v12.9h15.8L527.6,149.4L527.6,149.4z"/>
	<path class="st3" d="M570.1,149.4h-15.8V166h-5v-37.7h23.3v4.1h-18.4v12.9H570v4.1H570.1z"/>
	<path class="st3" d="M595,156.2h-15.8l-3.5,9.8h-5.1l14.4-37.7h4.3l14.4,37.7h-5.1L595,156.2z M580.7,152.1h12.8l-6.4-17.6
		L580.7,152.1z"/>
	<path class="st3" d="M615.2,128.3l12.3,30.7l12.3-30.7h6.4V166h-5v-14.7l0.5-15.8L629.4,166h-3.8l-12.3-30.4l0.5,15.8V166h-5v-37.7
		H615.2z"/>
	<path class="st3" d="M676.3,148.6H660V162h19v4.1h-24v-37.7h23.7v4.1H660v12.1h16.3V148.6z"/>
</g>
<circle class="st4" cx="400" cy="63.5" r="57.5"/>
<path class="st0" d="M404.9,75v-1.8c1.3-0.8,2.6-1.8,3.7-3.1c5-0.2,10.6-2.9,15-7.4c7.8-7.9,9.8-18.2,4.3-23.7c-1.7-1.7-4-2.7-6.6-3
	l0.9-2.2c0.1-0.1,0.1-0.3,0-0.4c-0.1-0.1-0.3-0.2-0.5-0.2c-11.5,0-32.1,0-43.7,0c-0.2,0-0.4,0.1-0.5,0.2c-0.1,0.1-0.1,0.3,0,0.4
	l0.8,2.2c-2.6,0.3-4.9,1.3-6.6,3c-5.4,5.4-3.5,15.8,4.3,23.7c4.4,4.4,10,7.1,15,7.4c1.2,1.3,2.4,2.3,3.7,3.1V75
	c0,0.6,0.6,1.2,1.4,1.2h0.5c-0.4,3.4-2.7,7.7-5.4,10l-2.9,2.4c-2.2,0-4.4,0-6.8,0c-0.5,0-1,0.3-1.2,0.7l-3.1,5.6
	c-0.1,0.2-0.1,0.5,0,0.7s0.4,0.3,0.6,0.3c13.3,0,30.5,0,43.8,0c0.2,0,0.5-0.1,0.6-0.3c0.1-0.2,0.1-0.5,0-0.7l-3.1-5.6
	c-0.2-0.4-0.7-0.7-1.2-0.7c-2.4,0-4.6,0-6.8,0l-2.9-2.4c-2.7-2.3-5-6.6-5.4-10h0.5C404.3,76.1,404.9,75.6,404.9,75z M418.8,42.3
	c0.4,0.5,1,0.8,1.6,0.8c1.1,0,2.1-0.9,2.1-2.1c0-0.4-0.1-0.8-0.4-1.2c1.3,0.3,2.4,0.9,3.3,1.7c3.8,3.8,1.8,12.3-4.3,18.4
	c-2.8,2.8-6.1,4.8-9.3,5.7C415.2,60,417.8,51.8,418.8,42.3z M378.9,60.1c-6.2-6.2-8.2-14.6-4.3-18.4c0.9-0.9,2-1.4,3.3-1.7
	c-0.2,0.3-0.4,0.7-0.4,1.2c0,1.1,0.9,2.1,2.1,2.1c0.7,0,1.2-0.3,1.6-0.8c1.1,9.5,3.6,17.7,7,23.5C385,64.9,381.7,62.9,378.9,60.1z"
	/>
<ellipse class="st4" cx="399.9" cy="52" rx="10.1" ry="10.1"/>
<g>
	<path class="st5" d="M403.7,46.5l-1.3-2.2c-0.2-0.3,0-0.6,0.3-0.8l1.1-0.6c-2.8-1.2-6.1-1.1-9,0.5c-2.8,1.7-4.5,4.6-4.8,7.6
		l1.1-0.6c0.3-0.2,0.7-0.1,0.9,0.2l1.3,2.2c0.2,0.3,0,0.7-0.3,0.8l-2.5,1.5c0.2,0.6,0.5,1.3,0.9,1.8c1.2,2,2.9,3.4,4.9,4.2l-0.4-0.7
		c-0.2-0.3-0.1-0.7,0.2-0.9l12.2-7.2c0.3-0.2,0.7-0.1,0.9,0.2l0.4,0.7c0.3-2.1-0.1-4.3-1.3-6.3c-0.4-0.6-0.8-1.1-1.2-1.6l-2.5,1.5
		C404.2,46.9,403.8,46.8,403.7,46.5z M397.6,47.2c-0.2-0.3,0-0.6,0.3-0.8l2.7-1.6c0.3-0.2,0.7-0.1,0.9,0.2l1.3,2.2
		c0.2,0.3,0,0.7-0.3,0.8l-2.7,1.6c-0.3,0.2-0.7,0.1-0.9-0.2L397.6,47.2z M392.8,50c-0.2-0.3,0-0.7,0.3-0.8l2.7-1.6
		c0.3-0.2,0.7-0.1,0.9,0.2L398,50c0.2,0.3,0,0.7-0.3,0.8l-2.7,1.6c-0.3,0.2-0.7,0.1-0.9-0.2L392.8,50z M398.2,55.7
		c0.2,0.3,0,0.6-0.3,0.8l-2.7,1.6c-0.3,0.2-0.7,0.1-0.9-0.2l-1.3-2.2c-0.2-0.3,0-0.6,0.3-0.8l2.7-1.6c0.3-0.2,0.7-0.1,0.9,0.2
		L398.2,55.7z M402.9,52.9c0.2,0.3,0,0.7-0.3,0.8l-2.7,1.6c-0.3,0.2-0.7,0.1-0.9-0.2l-1.3-2.2c-0.2-0.3,0-0.7,0.3-0.8l2.7-1.6
		c0.3-0.2,0.7-0.1,0.9,0.2L402.9,52.9z M406.4,47.8l1.3,2.2c0.2,0.3,0,0.6-0.3,0.8l-2.7,1.6c-0.3,0.2-0.7,0.1-0.9-0.2l-1.3-2.2
		c-0.2-0.3,0-0.7,0.3-0.8l2.7-1.6C405.8,47.5,406.2,47.6,406.4,47.8z"/>
	<path class="st5" d="M404.8,60.4c1.6-1,2.9-2.3,3.7-3.9l-9,5.3C401.3,61.8,403.1,61.3,404.8,60.4z"/>
</g>
<g>
	<path class="st0" d="M398.9,15.2l-0.3,1.8c-0.1,0.4,0.2,0.5,0.5,0.4l1.6-0.9l1.6,0.9c0.3,0.2,0.6,0,0.5-0.4l-0.3-1.8l1.3-1.3
		c0.3-0.3,0.2-0.5-0.2-0.6l-1.8-0.3l-0.8-1.6c-0.2-0.3-0.4-0.3-0.6,0l-0.8,1.6l-1.8,0.3c-0.4,0.1-0.5,0.3-0.2,0.6L398.9,15.2z"/>
	<path class="st0" d="M401.1,111.9l0.3-1.8c0.1-0.4-0.2-0.5-0.5-0.4l-1.6,0.9l-1.6-0.9c-0.3-0.2-0.6,0-0.5,0.4l0.3,1.8l-1.3,1.3
		c-0.3,0.3-0.2,0.5,0.2,0.6l1.8,0.3l0.8,1.6c0.2,0.3,0.5,0.3,0.6,0l0.8-1.6l1.8-0.3c0.4-0.1,0.5-0.3,0.2-0.6L401.1,111.9z"/>
	<path class="st0" d="M382.4,17.1l1.6,0.8l0.3,1.8c0.1,0.4,0.3,0.5,0.6,0.2l1.3-1.3l1.8,0.3c0.4,0.1,0.5-0.2,0.4-0.5l-0.9-1.6
		l0.9-1.6c0.2-0.3,0-0.6-0.4-0.5l-1.8,0.3l-1.3-1.3c-0.3-0.3-0.5-0.2-0.6,0.2l-0.3,1.8l-1.6,0.8C382,16.7,382,17,382.4,17.1z"/>
	<path class="st0" d="M417.6,110l-1.6-0.8l-0.3-1.8c-0.1-0.4-0.3-0.5-0.6-0.2l-1.3,1.3l-1.8-0.3c-0.4-0.1-0.5,0.2-0.4,0.5l0.9,1.6
		l-0.9,1.6c-0.2,0.3,0,0.6,0.4,0.5l1.8-0.3l1.3,1.3c0.3,0.3,0.5,0.2,0.6-0.2l0.3-1.8l1.6-0.8C418,110.4,418,110.1,417.6,110z"/>
	<path class="st0" d="M368.9,24.8l1.8,0.3l0.8,1.6c0.2,0.3,0.5,0.3,0.6,0l0.8-1.6l1.8-0.3c0.4-0.1,0.5-0.3,0.2-0.6l-1.3-1.3l0.3-1.8
		c0.1-0.4-0.2-0.5-0.5-0.4l-1.6,0.9l-1.6-0.9c-0.3-0.2-0.6,0-0.5,0.4L370,23l-1.3,1.3C368.4,24.5,368.5,24.8,368.9,24.8z"/>
	<path class="st0" d="M431.1,102.3l-1.8-0.3l-0.8-1.6c-0.2-0.3-0.4-0.3-0.6,0l-0.8,1.6l-1.8,0.3c-0.4,0.1-0.5,0.3-0.2,0.6l1.3,1.3
		l-0.3,1.8c-0.1,0.4,0.2,0.5,0.5,0.4l1.6-0.9l1.6,0.9c0.3,0.2,0.6,0,0.5-0.4l-0.3-1.8l1.3-1.3C431.6,102.6,431.5,102.3,431.1,102.3z
		"/>
	<path class="st0" d="M358.4,36.4l1.8-0.3l1.3,1.3c0.3,0.3,0.5,0.2,0.6-0.2l0.3-1.8l1.6-0.8c0.3-0.2,0.3-0.4,0-0.6l-1.6-0.8
		l-0.3-1.8c-0.1-0.4-0.3-0.5-0.6-0.2l-1.3,1.3l-1.8-0.3c-0.4-0.1-0.5,0.2-0.4,0.5l0.9,1.6l-0.9,1.6
		C357.9,36.2,358.1,36.4,358.4,36.4z"/>
	<path class="st0" d="M441.6,90.7l-1.8,0.3l-1.3-1.3c-0.3-0.3-0.5-0.2-0.6,0.2l-0.3,1.8l-1.6,0.8c-0.3,0.2-0.3,0.4,0,0.6l1.6,0.8
		l0.3,1.8c0.1,0.4,0.3,0.5,0.6,0.2l1.3-1.3l1.8,0.3c0.4,0.1,0.5-0.2,0.4-0.5l-0.9-1.6l0.9-1.6C442.1,90.9,441.9,90.7,441.6,90.7z"/>
	<path class="st0" d="M356.6,46.5l-1.8-0.3l-0.8-1.6c-0.2-0.3-0.4-0.3-0.6,0l-0.8,1.6l-1.8,0.3c-0.4,0.1-0.5,0.3-0.2,0.6l1.3,1.3
		l-0.3,1.8c-0.1,0.4,0.2,0.5,0.5,0.4l1.6-0.9l1.6,0.9c0.3,0.2,0.6,0,0.5-0.4l-0.3-1.8l1.3-1.3C357.1,46.8,357,46.5,356.6,46.5z"/>
	<path class="st0" d="M448.1,78.7l0.3-1.8c0.1-0.4-0.2-0.5-0.5-0.4l-1.6,0.9l-1.6-0.9c-0.3-0.2-0.6,0-0.5,0.4l0.3,1.8l-1.3,1.3
		c-0.3,0.3-0.2,0.5,0.2,0.6l1.8,0.3l0.8,1.6c0.2,0.3,0.4,0.3,0.6,0l0.8-1.6l1.8-0.3c0.4-0.1,0.5-0.3,0.2-0.6L448.1,78.7z"/>
	<path class="st0" d="M350.4,66l1.3-1.3l1.8,0.3c0.4,0.1,0.5-0.2,0.4-0.5l-0.9-1.6l0.9-1.6c0.2-0.3,0-0.6-0.4-0.5l-1.8,0.3l-1.3-1.3
		c-0.3-0.3-0.5-0.2-0.6,0.2l-0.3,1.8l-1.6,0.8c-0.3,0.2-0.3,0.4,0,0.6l1.6,0.8l0.3,1.8C349.9,66.2,350.1,66.2,350.4,66z"/>
	<path class="st0" d="M452.1,63.9l-1.6-0.8l-0.3-1.8c-0.1-0.4-0.3-0.5-0.6-0.2l-1.3,1.3l-1.8-0.3c-0.4-0.1-0.5,0.2-0.4,0.5l0.9,1.6
		l-0.9,1.6c-0.2,0.3,0,0.6,0.4,0.5l1.8-0.3l1.3,1.3c0.3,0.3,0.5,0.2,0.6-0.2l0.3-1.8l1.6-0.8C452.4,64.4,452.4,64.1,452.1,63.9z"/>
	<path class="st0" d="M355.1,77.4l0.3-1.8c0.1-0.4-0.2-0.5-0.5-0.4l-1.6,0.9l-1.6-0.9c-0.3-0.2-0.6,0-0.5,0.4l0.3,1.8l-1.3,1.3
		c-0.3,0.3-0.2,0.5,0.2,0.6l1.8,0.3l0.8,1.6c0.2,0.3,0.4,0.3,0.6,0l0.8-1.6l1.8-0.3c0.4-0.1,0.5-0.3,0.2-0.6L355.1,77.4z"/>
	<path class="st0" d="M444.9,49.7l-0.3,1.8c-0.1,0.4,0.2,0.5,0.5,0.4l1.6-0.9l1.6,0.9c0.3,0.2,0.6,0,0.5-0.4l-0.3-1.8l1.3-1.3
		c0.3-0.3,0.2-0.5-0.2-0.6l-1.8-0.3l-0.8-1.6c-0.2-0.3-0.4-0.3-0.6,0l-0.8,1.6l-1.8,0.3c-0.4,0.1-0.5,0.3-0.2,0.6L444.9,49.7z"/>
	<path class="st0" d="M363.2,91.4l-1.6-0.8l-0.3-1.8c-0.1-0.4-0.3-0.5-0.6-0.2l-1.3,1.3l-1.8-0.3c-0.4-0.1-0.5,0.2-0.4,0.5l0.9,1.6
		l-0.9,1.6c-0.2,0.3,0,0.6,0.4,0.5l1.8-0.3l1.3,1.3c0.3,0.3,0.5,0.2,0.6-0.2l0.3-1.8l1.6-0.8C363.5,91.9,363.5,91.6,363.2,91.4z"/>
	<path class="st0" d="M442.4,33.2l-1.8,0.3l-1.3-1.3c-0.3-0.3-0.5-0.2-0.6,0.2l-0.3,1.8l-1.6,0.8c-0.3,0.2-0.3,0.5,0,0.6l1.6,0.8
		l0.3,1.8c0.1,0.4,0.3,0.5,0.6,0.2l1.3-1.3l1.8,0.3c0.4,0.1,0.5-0.2,0.4-0.5l-0.9-1.6l0.9-1.6C442.9,33.4,442.8,33.2,442.4,33.2z"/>
	<path class="st0" d="M373.6,101.4l-1.8-0.3l-0.8-1.6c-0.2-0.3-0.4-0.3-0.6,0l-0.8,1.6l-1.8,0.3c-0.4,0.1-0.5,0.3-0.2,0.6l1.3,1.3
		l-0.3,1.8c-0.1,0.4,0.2,0.5,0.5,0.4l1.6-0.9l1.6,0.9c0.3,0.2,0.6,0,0.5-0.4l-0.3-1.8l1.3-1.3C374.1,101.7,374,101.5,373.6,101.4z"
		/>
	<path class="st0" d="M426.4,25.7l1.8,0.3l0.8,1.6c0.2,0.3,0.4,0.3,0.6,0l0.8-1.6l1.8-0.3c0.4-0.1,0.5-0.3,0.2-0.6l-1.3-1.3l0.3-1.8
		c0.1-0.4-0.2-0.5-0.5-0.4l-1.6,0.9l-1.6-0.9c-0.3-0.2-0.6,0-0.5,0.4l0.3,1.8l-1.3,1.3C425.9,25.3,426,25.6,426.4,25.7z"/>
	<path class="st0" d="M386.6,107.7l-1.8,0.3l-1.3-1.3c-0.3-0.3-0.5-0.2-0.6,0.2l-0.3,1.8l-1.6,0.8c-0.3,0.2-0.3,0.4,0,0.6l1.6,0.8
		l0.3,1.8c0.1,0.4,0.3,0.5,0.6,0.2l1.3-1.3l1.8,0.3c0.4,0.1,0.5-0.2,0.4-0.5l-0.9-1.6l0.9-1.6C387.2,107.9,387,107.7,386.6,107.7z"
		/>
	<path class="st0" d="M413.9,17.2l-0.9,1.6c-0.2,0.3,0,0.6,0.4,0.5l1.8-0.3l1.3,1.3c0.3,0.3,0.5,0.2,0.6-0.2l0.3-1.8l1.6-0.8
		c0.3-0.2,0.3-0.4,0-0.6l-1.6-0.8l-0.3-1.8c-0.1-0.4-0.3-0.5-0.6-0.2l-1.3,1.3l-1.8-0.3c-0.4-0.1-0.5,0.2-0.4,0.5L413.9,17.2z"/>
</g>
</svg>
