<?xml version="1.0" encoding="utf-8"?>
<!-- Generator: Adobe Illustrator 21.1.0, SVG Export Plug-In . SVG Version: 6.00 Build 0)  -->
<svg version="1.1" id="Layer_1" xmlns="http://www.w3.org/2000/svg" xmlns:xlink="http://www.w3.org/1999/xlink" x="0px" y="0px"
	 viewBox="0 0 167 150" style="enable-background:new 0 0 167 150;" xml:space="preserve">
<style type="text/css">
	.st0{fill:#E7E7E7;stroke:#D3D3D3;stroke-width:0.9788;stroke-miterlimit:10;}
	.st1{fill:url(#SVGID_1_);stroke:#D3D3D3;stroke-width:0.9252;stroke-miterlimit:10;}
	.st2{fill:url(#SVGID_2_);}
</style>
<path class="st0" d="M154.5,142.5H12.5c-5.3,0-9.7-4.3-9.7-9.7V11.7C2.8,6.3,7.2,2,12.5,2h142.1c5.3,0,9.7,4.3,9.7,9.7v121.2
	C164.2,138.2,159.8,142.5,154.5,142.5z"/>
<g>
	<linearGradient id="SVGID_1_" gradientUnits="userSpaceOnUse" x1="3.4302" y1="72.4173" x2="11.7" y2="72.4173">
		<stop  offset="8.290155e-02" style="stop-color:#B3B3B3"/>
		<stop  offset="0.6399" style="stop-color:#F5F5F5"/>
		<stop  offset="0.8705" style="stop-color:#D4D5D7"/>
		<stop  offset="1" style="stop-color:#B3B3B3"/>
	</linearGradient>
	<path class="st1" d="M3.4,12.3v120.3c0,5.1,3.7,9.3,8.3,9.6V2.7C7.1,2.9,3.4,7.1,3.4,12.3z"/>
	<linearGradient id="SVGID_2_" gradientUnits="userSpaceOnUse" x1="3" y1="72.5" x2="12" y2="72.5">
		<stop  offset="8.290155e-02" style="stop-color:#B3B3B3"/>
		<stop  offset="0.6399" style="stop-color:#F5F5F5"/>
		<stop  offset="0.8705" style="stop-color:#D4D5D7"/>
		<stop  offset="1" style="stop-color:#B3B3B3"/>
	</linearGradient>
	<path class="st2" d="M3,12V133c0,5.1,4,9.4,9,9.6V2.3C7,2.6,3,6.8,3,12z"/>
</g>
</svg>
