<?xml version="1.0" encoding="utf-8"?>
<!-- Generator: Adobe Illustrator 21.1.0, SVG Export Plug-In . SVG Version: 6.00 Build 0)  -->
<svg version="1.1" id="Layer_1" xmlns="http://www.w3.org/2000/svg" xmlns:xlink="http://www.w3.org/1999/xlink" x="0px" y="0px"
	 viewBox="0 0 470 281" style="enable-background:new 0 0 470 281;" xml:space="preserve">
<style type="text/css">
	.st0{display:none;}
	.st1{display:inline;fill:#F7B359;}
	.st2{display:inline;opacity:0.11;fill:#1A1A1A;enable-background:new    ;}
	.st3{display:inline;}
	.st4{fill:#333333;}
	.st5{fill:#0071BC;}
	.st6{fill:#39B54A;}
	.st7{fill:#8CC63F;}
	.st8{fill:#FFE3B6;}
	.st9{fill:#1A1A1A;}
	.st10{fill:#D3A67F;}
	.st11{fill:#EDC094;}
	.st12{fill:#FAD69D;}
	.st13{fill:#808080;}
	.st14{fill:#008080;}
	.st15{fill:#666666;}
	.st16{display:inline;fill:#CE7A15;}
	.st17{display:inline;fill:#F7C179;}
	.st18{fill:#FFFFFF;}
	.st19{fill:#A8A7A7;}
	.st20{fill:#BBBAB8;}
	.st21{opacity:0.1;enable-background:new    ;}
	.st22{fill:#E7B89A;}
	.st23{fill:#E5E4E2;}
	.st24{opacity:0.5;enable-background:new    ;}
	.st25{fill:#6D6D6C;}
</style>
<g id="position_check" class="st0">
	<rect x="-4" y="-2" class="st1" width="480" height="286"/>
	<path class="st2" d="M778.2,145.4c-0.2-0.5-1.1-2.2-0.8-5.5C777.1,143.1,778,144.9,778.2,145.4z"/>
	<g class="st3">
		<g>
			<path class="st4" d="M343.5,255.2h-78.2c-2.2,0-4-1.8-4-4l0,0c0-2.2,1.8-4,4-4h78.2c2.2,0,4,1.8,4,4l0,0
				C347.6,253.4,345.7,255.2,343.5,255.2z"/>
			<g>
				<rect x="297" y="194.2" class="st4" width="14.8" height="53.8"/>
				<g>
					<ellipse class="st4" cx="270.5" cy="258.4" rx="7.4" ry="7.6"/>
					<ellipse class="st4" cx="304.4" cy="258.4" rx="7.4" ry="7.6"/>
					<ellipse class="st4" cx="338.4" cy="258.4" rx="7.4" ry="7.6"/>
				</g>
				<path class="st5" d="M342.5,194.2h-77c-3,0-5.5-2.5-5.5-5.5v-4.3c0-3,2.5-5.5,5.5-5.5h77c3,0,5.5,2.5,5.5,5.5v4.3
					C348,191.8,345.5,194.2,342.5,194.2z"/>
				<path class="st4" d="M342.5,193.3h-2.1c-3,0-5.5-2.5-5.5-5.5V145c0-3,2.5-5.5,5.5-5.5h2.1c3,0,5.5,2.5,5.5,5.5v42.8
					C348,190.9,345.5,193.3,342.5,193.3z"/>
				<path class="st5" d="M334.9,159.1v-47.6c0-3-2.5-5.5-5.5-5.5h-3.8c-3,0-5.5,2.5-5.5,5.5v47.6c0,3,2.5,5.5,5.5,5.5h3.8
					C332.5,164.6,334.9,162.2,334.9,159.1z"/>
			</g>
		</g>
		<g>
			<rect x="158.5" y="145" class="st4" width="19" height="116"/>
			<rect x="122" y="254" class="st4" width="90" height="12"/>
			<rect x="122" y="136" class="st4" width="134" height="9"/>
		</g>
		<g>
			<rect x="212" y="133" class="st4" width="40" height="2"/>
			<rect x="215" y="132" class="st4" width="4" height="2"/>
			<rect x="221" y="132" class="st4" width="4" height="2"/>
			<rect x="227" y="132" class="st4" width="4" height="2"/>
			<rect x="233" y="132" class="st4" width="4" height="2"/>
			<rect x="239" y="132" class="st4" width="4" height="2"/>
			<rect x="245" y="132" class="st4" width="4" height="2"/>
		</g>
		<rect x="147.5" y="132.4" class="st4" width="47.5" height="2.6"/>
		<path class="st4" d="M181.7,96.8h-14.8c2.8,4,4.4,9,4.4,14.5c0,9.2-4.7,17.2-11.5,21.1H181c-2-5-3.1-10.8-3.1-17
			C177.9,108.4,179.3,102,181.7,96.8z"/>
		<path class="st4" d="M180.6,69h-0.1c-2,5.4-3,11.9-2.5,18.8c0.4,6.2,2,12,4.3,16.8l0.8-0.1L180.6,69z"/>
		<ellipse class="st4" cx="174.6" cy="94.1" rx="8.6" ry="9.2"/>
		<g>
			<g>
				<g>
					<path class="st6" d="M222,254.9c2.2,0,3.4-0.4,5.1-1.7c0.9-0.7,1.9-1.4,2.9-2c2.8-1.6,6-2.7,7.6-5.5c0,0,0.1,0,0.1-0.1
						c0.8-0.8,1.9-0.8,2.8-0.3c0.1,0.1,0.2,0.1,0.3,0c0.2,0.5,0.5,1,0.8,1.5c0.7,1.2,1.9,1.7,3.2,1.9c1.4,0.2,3.3,0.4,4.5-0.4
						c0.5-0.4,0.8-0.9,1-1.5s0.5-1.1,0.9-1.5c0.1,0,0.2,0.1,0.3,0.2c1.9,3,1,7,2.5,10.3c0.4,0.3,0.4,1-0.2,1.5
						c-2,1.7-3.8,1.7-6.3,1.9c-3.3,0.3-6.6,0.1-9.8,0.5c-5.4,0.7-11.8,3.2-17,0.5C217.1,258.6,218,254.8,222,254.9z"/>
					<path class="st7" d="M221.8,254.9c-0.4,0.6,0.1,1.4,0.9,1.6c0.5,0.1,1.1,0.1,1.6,0.1c1.2,0.1,2.4-0.1,3.5-0.5
						c2.4-0.9,4.5-3,6.6-4.4c0.9-0.6,1.9-1,2.9-1.5c0.5-0.2,1-0.5,1.4-1c0.3-0.3,1.2-1.1,1.2-1.5c-0.1-0.7,1.1-1.5,1.6-0.9
						c-0.3-0.6-0.4-0.8-0.5-1c-0.2-0.4-0.3-0.7-0.5-1.1c-0.2-0.3-0.4-0.7-0.7-1c-0.6-0.6-1.7-0.5-1.9,0.4c0,0.2,0,0.5,0,0.8
						c-1.5,3.3-5,4.4-7.9,6.1c-1,0.6-2,1.3-2.9,2c-1.7,1.3-3,1.7-5.1,1.7C221.9,254.9,221.9,254.9,221.8,254.9z"/>
					<path class="st4" d="M254,255.9L254,255.9c-1.1,0.7-2.6,1-3.8,1.3c-2.5,0.5-5,0.7-7.5,0.8c-3,0.1-5.8,0.7-8.7,1.3
						c-5.3,1-10.7,0.7-15.6-1.9c0,1.1,0.7,2.2,2.3,3c5.2,2.7,11.6,0.2,17-0.5c3.2-0.4,6.5-0.2,9.8-0.5c2.5-0.3,4.3-0.3,6.3-1.9
						C254.4,257,254.4,256.2,254,255.9z"/>
				</g>
				<g>
					<path class="st8" d="M278.2,50.2c0.1-1,1.5-1.8,2-2.6c1-1.7,1.6-4.3,1.7-6.3c0-0.2,0.1-0.3,0.3-0.4c0-0.2,0.1-0.5,0.1-0.7
						c0.8-4.1,3.1-8.7,6.9-10.9c1.9-1.1,4.2-1.4,6.4-1.1c2.8,0.4,5.5,1.9,7.1,4.2c2,2.8,3.8,6.9,3.8,10.4c0.5-0.1,0.9,0,1.4,0.1
						c1.5,0.5,2,2.2,2.2,3.6c0.2,1.8-0.5,3.3-1.7,4.2c0.3,1.1,1,2,1.8,2.8s3.4,2.4,3.5,2.6c0.3,0.2-2.6,4.9,1.9,15.9
						c-12.5,2.9-16.9,6.2-16.9,6.2c1.3-4.3,1.7-10.4-2.9-12.6l0,0c-3.3,1.2-6.7,1.1-9.2-0.4c-1.9-1.1-3.3-3-3.8-5.7
						c-0.5-2.3-0.9-4.8-1-7.2C280,52.4,278,51.8,278.2,50.2z"/>
					<path class="st8" d="M305.3,75.2c-0.3-2.3-0.6-4.7-1.3-6.9c-0.5-1.5-1.1-3-2.3-4.1c-1.3-1.1-2.6-0.9-4-0.5c2-1.8,3.1-4.1,4-6.9
						c0.7-2,2-5.6,0-7.3c-2.1-1.8-6-1.6-8.5-1.8c-4-0.4-8.2-1.3-11.9-2.8c0.3-1.2,0.5-2.5,0.6-3.6c0-0.2,0.1-0.3,0.3-0.4
						c0-0.2,0.1-0.5,0.1-0.7c0.8-4.1,3.1-8.7,6.9-10.9c1.9-1.1,4.2-1.4,6.4-1.1c2.8,0.4,5.5,1.9,7.1,4.2c2,2.8,3.8,6.9,3.8,10.4
						c0.5-0.1,0.9,0,1.4,0.1c1.5,0.5,2,2.2,2.2,3.6c0.2,1.8-0.5,3.3-1.7,4.2c0.3,1.1,1,2,1.8,2.8s3.4,2.4,3.5,2.6
						c0.3,0.2-2.6,4.9,1.9,15.9C311.2,73.2,307.8,74.3,305.3,75.2z"/>
				</g>
				<path class="st9" d="M286.4,22.7c8.9-11.3,27.8-9.8,34.6,1.9c0.6,1,1.1,2.1,1.5,3.2c0.1,0.2,0.1,0.3,0.2,0.5
					c8.5-3.5,15.9,4.2,17.8,12.3c1.1,4.9,0.8,9.2-1.7,13.6c-1.5,2.6-3.1,5.1-3.9,8c-0.9,3.1-1.5,5.7-1.3,10c0,0-1.3-1.8-1.4-2.1
					c-0.4,3.4,0.6,5.2,0.8,5.7c0,0-7.2-6.2-8-17.2c-0.2-3.3,0.3-6.7,0.2-10c0-2-0.3-5.3-1.6-7.6c0.9,2.4,1.4,5,0.9,7.6
					c-0.7,3.8-3.5,6.6-7.3,7.3c-3.9,0.7-7-1.1-9.5-4c-0.9-1.1-1.4-1.8-0.4-3.1c1.2-1.8,2.7-4,0.4-5.8c-1.6-1.3-3.3,0.3-3.6,2
					c-0.1,0.6,0,1.3,0.1,1.9c0,0.5-0.6,0.6-0.8,0.2c-1-1.5-0.7-3-0.3-4.7c0.2-1,0.3-1,0.4-2c-0.5,0.3-23.8,0.3-23.9-1
					C279.5,37.1,277.1,26.7,286.4,22.7z"/>
				<path d="M321.9,28.5c0-1.3,0.6-2.2,1.5-1.9c0.1,0,0.3,0.3,0.4,0.4c0.3,0.2,0.5,0,0.7,0.4c0.2,0.5-0.4,1-0.5,1.5
					c-1.6,6.6,0.5,13.2,0.1,13.3C323.6,42.3,321.9,37.3,321.9,28.5z"/>
				<path class="st10" d="M249.3,249.4h-8.8c-11-25.1-22.2-57.9-23.1-79.2c-0.1-3.1,1.5-6,4.3-7.4c0,0,0,0,0.1,0
					c4.4-2.1,9.9-2.7,14.6-3.8c17.3-4.1,35.3-7.9,53.2-8.8c5.4-0.3,10.7-0.1,16,0.1c2.2,0.1,8.6,1.4,9,2.1c3,7,6.8,16.8,3.6,24.4
					c-3.6,8.5-13.8,8.5-21.6,8.5c-19.6,0-39.2-1.6-58.7-3.5C243.4,203.4,247.5,227.2,249.3,249.4z"/>
				<path class="st11" d="M251.3,251.2h-8.8c-11-25.1-22.2-57.9-23.1-79.2c-0.1-3.1,1.5-6,4.3-7.4c0,0,0,0,0.1,0
					c4.4-2.1,9.9-2.7,14.6-3.8c17.3-4.1,35.3-7.9,53.2-8.8c5.4-0.3,10.7-0.1,16,0.1c2.2,0.1,8.6,1.4,9,2.1c3,7,6.8,16.8,3.6,24.4
					c-3.6,8.5-13.8,8.5-21.6,8.5c-19.6,0-39.2-1.6-58.7-3.5C245.4,205.2,249.5,229,251.3,251.2z"/>
				<path class="st7" d="M242,248.9h0.1c0.2,0.4,0.3,0.7,0.5,1.1c0.7,1.2,1.9,1.7,3.2,1.9c1.4,0.2,3.3,0.4,4.5-0.4
					c0.5-0.4,0.8-0.9,1-1.5s0.5-1.1,0.9-1.5c0.1,0,0.2,0.1,0.3,0.2c0.3,0.5,0.5,1,0.7,1.5c-0.4,0.7-0.9,1.3-1.5,1.8
					c-1.3,1.1-3.2,1.2-4.9,1.2s-3.5-0.5-4.8-1.6c-0.7-0.5-1.2-1.2-1.7-1.8c-0.2-0.2-0.5-0.4-0.7-0.7
					C240.3,248.7,241.1,248.8,242,248.9z"/>
				<g>
					<path class="st6" d="M223,258c2.2,0,3.4-0.4,5.1-1.7c0.9-0.7,1.9-1.4,2.9-2c2.8-1.6,6-2.7,7.6-5.5c0,0,0.1,0,0.1-0.1
						c0.8-0.8,1.9-0.8,2.8-0.3c0.1,0.1,0.2,0.1,0.3,0c0.2,0.5,0.5,1,0.8,1.5c0.7,1.2,1.9,1.7,3.2,1.9c1.4,0.2,3.3,0.4,4.5-0.4
						c0.5-0.4,0.8-0.9,1-1.5s0.5-1.1,0.9-1.5c0.1,0,0.2,0.1,0.3,0.2c1.9,3,1,7,2.5,10.3c0.4,0.3,0.4,1-0.2,1.5
						c-2,1.7-3.8,1.7-6.3,1.9c-3.3,0.3-6.6,0.1-9.8,0.5c-5.4,0.7-11.8,3.2-17,0.5C218.1,261.7,219,257.9,223,258z"/>
					<path class="st7" d="M222.9,258c-0.4,0.6,0.1,1.4,0.9,1.6c0.5,0.1,1.1,0.1,1.6,0.1c1.2,0.1,2.4-0.1,3.5-0.5
						c2.4-0.9,4.5-3,6.6-4.4c0.9-0.6,1.9-1,2.9-1.5c0.5-0.2,1-0.5,1.4-1c0.3-0.3,1.2-1.1,1.2-1.5c-0.1-0.7,1.1-1.5,1.6-0.9
						c-0.3-0.6-0.4-0.8-0.5-1c-0.2-0.4-0.3-0.7-0.5-1.1c-0.2-0.3-0.4-0.7-0.7-1c-0.6-0.6-1.7-0.5-1.9,0.4c0,0.2,0,0.5,0,0.8
						c-1.5,3.3-5,4.4-7.9,6.1c-1,0.6-2,1.3-2.9,2c-1.7,1.3-3,1.7-5.1,1.7C223,258,222.9,258,222.9,258z"/>
					<path class="st4" d="M255,259L255,259c-1.1,0.7-2.6,1-3.8,1.3c-2.5,0.5-5,0.7-7.5,0.8c-3,0.1-5.8,0.7-8.7,1.3
						c-5.3,1-10.7,0.7-15.6-1.9c0,1.1,0.7,2.2,2.3,3c5.2,2.7,11.6,0.2,17-0.5c3.2-0.4,6.5-0.2,9.8-0.5c2.5-0.3,4.3-0.3,6.3-1.9
						C255.4,260.1,255.4,259.3,255,259z"/>
				</g>
				<path class="st7" d="M223.6,262.8c1.5,0.5,3,0.7,4.6,0.8c5.3,0.3,10.5-1.6,15.7-1.8c2.4-0.1,4.8,0.1,7.1-0.5c1-0.3,2-0.7,3-1.1
					c0.4-0.2,0.9-0.4,1.3-0.6c0-0.2-0.1-0.4-0.2-0.5c0,0,0,0,0-0.1c-1.1,0.8-2.6,1.1-3.8,1.3c-2.5,0.5-5,0.7-7.5,0.8
					c-3,0.1-5.8,0.7-8.7,1.3c-5.3,1-10.7,0.7-15.6-1.9c0,0.3,0,0.5,0.1,0.8C220.9,261.7,222.2,262.3,223.6,262.8z"/>
				<path class="st7" d="M251.1,250.5c0,0.8,0.4,1.5,0.9,2.1c0.6,0.6,1.3,1.1,1.9,1.6c-0.2-1.9-0.4-3.8-1.5-5.4
					c-0.1-0.1-0.2-0.2-0.3-0.2c-0.4,0.4-0.7,0.8-0.9,1.5C251.3,250.2,251.2,250.4,251.1,250.5z"/>
				<g>
					<path class="st12" d="M252.9,125.6c15.3-1.9,34.4,0,41.6,2.1c-0.8-9.5,0.8-21.9,2.1-29.7c4.7,0.1,9.4,0.9,13.5,2.8
						c-1.7,10.2-5.2,26-11.3,35.6c-0.2,0.3-26.4-3-46-7L252.9,125.6z"/>
					<path class="st12" d="M235.2,131.2c1.8-1.2,3-2.7,3.4-3.1c1.6-1.6,3.4-3.5,5.7-4c2.9-0.6,6.3,0.5,9,1.5
						c0.4,0.2,1.2,3.8,0.9,3.9c-2.5,0.8-4.9,0.8-7.4,0.2c-1.9-0.5-3.9-0.4-5.8,0.3c-0.9,0.3-1.8,0.8-2.6,1.3
						c-0.3,0.2-0.8,0.6-1.2,0.8c-0.6,0.3-1.2,0.5-1.7,0.2C235,132,234.8,131.5,235.2,131.2z"/>
				</g>
				<path class="st6" d="M280.6,101.3c-0.2-2.9,5-6.6,8.3-10.3c2.5-2.7,4-7,5.7-10.3c1.3-2.4,2.2-5.1,3.9-7.3c2-2.6,5.2-4.3,8.5-4.5
					c7.8-0.3,12.4,6.8,13.1,13.8c0.7,7.2-1.4,14.3-2.2,21.3c0,0.1,0,0.1,0,0.2c-3,13.6-4.7,28.2-2.6,42.2c0.2,0.6,0.5,1.1,0.9,1.6
					c0.4,0.4,1.1,0.8,1.3,1.3c0.2,0.6,0,1-0.4,1.3c0.3,0.8,0.7,1.4,1.3,2c0.3,0.3,0.7,0.7,0.9,1.1c0.3,0.6,0.4,1.5-0.2,2
					c-0.8,0.7-2.2,0.5-3.2,0.4c-1.5-0.2-3-0.6-4.5-1.1l0,0c-2.6-0.7-5.3-1.7-5.7-1.7c-5.9-1.2-12-1.7-18-1.3h-0.1
					c-3.4,0.2-4.4-0.6-4.4-1.4l3.9-37.2C282.7,108.8,280.9,106.3,280.6,101.3z"/>
				<path class="st13" d="M319.2,152.8c-0.4-0.7-6.9-2.4-9.1-2.6c-5.5-0.4-10.9-0.8-16.3-0.7c-18.3,0.4-36.9,4-54.6,8
					c-4.5,1-9.8,1.6-14.2,3.4l24.3,23.5c16.7,2.3,33.5,4.1,50.3,4.7c7.9,0.3,18.4,0.5,22.4-8.8C325.4,171.9,322,160.7,319.2,152.8z"
					/>
				<path class="st8" d="M295.8,125.8c-7.2-2.1-26.2-4-41.4-2.1c0.1,0,0.2,0.1,0.3,0.1c0.4,0.2,1.2,3.8,0.9,3.9
					c-0.1,0-0.3,0.1-0.4,0.1c19.4,3.9,44.8,7,44.9,6.8c2.5-3.9,4.6-8.9,6.3-14.1l-10.8-1.5C295.6,121.3,295.7,123.6,295.8,125.8z"/>
				<path class="st8" d="M254.3,123.7c0.1,0,0.1,0,0.2,0c-2.6-1-5.9-2-8.7-1.4c-2.3,0.5-4.1,2.3-5.7,4c-0.5,0.5-1.6,2-3.4,3.1
					c-0.4,0.3-0.2,0.8,0.2,1c0.6,0.3,1.2,0.1,1.7-0.2c0.4-0.2,0.9-0.6,1.2-0.8c0.8-0.5,1.7-0.9,2.6-1.3c1.9-0.7,3.9-0.8,5.8-0.3
					c2.4,0.6,4.7,0.7,7-0.1c-0.3-0.1-0.7-0.1-1-0.2L254.3,123.7z"/>
				<path class="st8" d="M254.7,123.8c-0.1,0-0.2-0.1-0.3-0.1s-0.1,0-0.2,0l-0.1,3.9c0.3,0.1,0.7,0.1,1,0.2c0.1,0,0.3-0.1,0.4-0.1
					C256,127.5,255.2,123.9,254.7,123.8z"/>
				<path class="st14" d="M311.2,100.6c0,0.2-0.1,0.4-0.1,0.6C311.1,101,311.2,100.8,311.2,100.6z"/>
				<path class="st14" d="M297.7,97.9c0.1-0.6,0.2-1.3,0.3-1.8C297.9,96.7,297.8,97.3,297.7,97.9z"/>
				<path class="st14" d="M310.5,104.6c-0.1,0.5-0.2,0.9-0.3,1.4C310.3,105.5,310.4,105.1,310.5,104.6z"/>
				<path class="st14" d="M297.7,98L297.7,98L297.7,98z"/>
				<path class="st14" d="M310.6,104.1c0,0.1-0.1,0.3-0.1,0.4C310.5,104.4,310.5,104.3,310.6,104.1z"/>
				<path class="st14" d="M311.1,101.2c-0.1,0.4-0.1,0.7-0.2,1.1C311,102,311,101.6,311.1,101.2z"/>
				<path class="st7" d="M304,75.8c1.8-3.1,4.5-5.3,7.4-6c-1.7-1.2-3.7-1.9-6-1.8c-3.5,0.2-6.9,2.6-9.1,6.3
					c-1.8,3.1-2.8,6.9-4.2,10.3c-0.5,1.4-1.1,2.9-1.6,4.4l8.2,0.1c0.4-1,0.7-2,1.1-2.9C301.2,82.7,302.2,78.9,304,75.8z"/>
				<path class="st9" d="M340.6,52c-1.7-7.5-8.3-14.7-16-12.9v6c2.6,0.8,5,2.8,6.5,5c2.6,3.8,1.6,8.1,0.1,12.1
					c-1.3,3.6-2.4,7-2.2,10.9c0.1,1.6,0.2,3.3,0.9,4.8c0.5,1.3,1.8,2.4,2.4,3.7l0,0l0,0c0.1,0.2,1.4,2.1,1.4,2.1
					c-0.2-4.3,0.4-7,1.3-10c0.8-3,2.4-5.4,3.9-8C341.4,61.2,341.7,56.8,340.6,52z"/>
				<path class="st9" d="M329.8,77.9c-0.6-1.5-0.8-3.2-0.9-4.8c-0.2-3.9,1-7.3,2.2-10.9c1.4-4,2.4-8.3-0.1-12.1
					c-1.5-2.2-3.9-4.2-6.5-5v9.6c0.5,1.9,0.7,4,0.7,5.4c0.1,3.3-0.5,6.7-0.2,10c0.7,11,8,17.2,8,17.2c-0.2-0.5-1.2-2.3-0.8-5.7l0,0
					C331.6,80.3,330.3,79.2,329.8,77.9z"/>
				<path class="st9" d="M329.8,77.9c-0.6-1.5-0.8-3.2-0.9-4.8c-0.2-3.9,1-7.3,2.2-10.9c1.4-4,2.4-8.3-0.1-12.1
					c-1.5-2.2-3.9-4.2-6.5-5v9.6c0.5,1.9,0.7,4,0.7,5.4c0.1,3.3-0.5,6.7-0.2,10c0.7,11,8,17.2,8,17.2c-0.2-0.5-1.2-2.3-0.8-5.7l0,0
					C331.6,80.3,330.3,79.2,329.8,77.9z"/>
			</g>
			
				<ellipse transform="matrix(0.1153 -0.9933 0.9933 0.1153 224.4982 343.2345)" class="st8" cx="304.9" cy="45.6" rx="5.5" ry="4.1"/>
		</g>
		
			<rect x="180.2" y="27.1" transform="matrix(0.9983 -5.907065e-02 5.907065e-02 0.9983 -4.1885 10.9171)" class="st15" width="4.7" height="98.4"/>
	</g>
</g>
<g class="st0">
	<rect x="-2" y="-1.3" class="st16" width="472.3" height="283.5"/>
	<path class="st17" d="M450.7,22.4c0-1-0.1-1.7-0.1-1.8l-0.1-1.2h-12.7c0.2-2.9,0.2-4.8,0.2-4.8h-62.9c0,0,0,1.9,0.2,4.8h-12.7
		l-0.1,1.3c0,0.3-0.8,7.5,2.1,15.4c3.7,10,11.6,16.3,23.1,18.5c3,3.4,6.8,6.1,11.4,7.8h-1c-1.1,0-2,0.9-2,2v0.2c0,1.1,0.9,2,2,2h4.2
		c0.5,2.1,2,12.5-11.6,18.6h-2.3c-0.6,0-1,0.5-1,1c0,0.1,0,0.2,0,0.3H385V100h-2.3v3.1h47V100h-2.3V86.4h-2.2c0-0.1,0-0.2,0-0.3
		c0-0.6-0.5-1-1-1H422c-0.1,0-0.3-0.1-0.4-0.2c0,0-0.1,0-0.2-0.1c-0.2-0.1-0.3-0.2-0.5-0.3c0,0-0.1,0-0.2-0.1
		c-0.2-0.1-0.3-0.2-0.5-0.3c0,0-0.1,0-0.1-0.1c-0.2-0.1-0.3-0.2-0.5-0.3h-0.1c-0.2-0.1-0.4-0.2-0.6-0.3l0,0c-0.8-0.5-1.5-1-2.2-1.5
		l0,0c-0.1-0.1-0.3-0.2-0.4-0.3l0,0c-0.1-0.1-0.3-0.2-0.4-0.3l0,0c-0.1-0.1-0.3-0.2-0.4-0.3l0,0c-0.1-0.1-0.3-0.3-0.4-0.4l0,0
		c-0.6-0.5-1-1.1-1.5-1.6l0,0c-0.1-0.1-0.2-0.3-0.3-0.4l0,0c-0.1-0.1-0.2-0.2-0.3-0.3l0,0c-0.1-0.1-0.2-0.2-0.2-0.3l0,0
		c-0.1-0.1-0.1-0.2-0.2-0.3l0,0c-0.1-0.1-0.1-0.3-0.2-0.4l0,0c-0.2-0.4-0.4-0.8-0.6-1.2c0,0,0,0,0-0.1s-0.1-0.2-0.1-0.3v-0.1
		c0-0.1-0.1-0.2-0.1-0.3c0,0,0-0.1,0-0.2s0-0.1-0.1-0.2c0,0,0-0.1,0-0.2c0,0,0-0.1,0-0.2s0-0.1-0.1-0.2v-0.1c0-0.1,0-0.2-0.1-0.3
		l0,0c-0.9-3.2-0.4-5.9-0.2-6.9h4.7c1.1,0,2-0.9,2-2v-0.2c0-0.6-0.3-1-0.6-1.4c-0.3-0.4-0.9-0.6-1.4-0.6h-0.7
		c4.6-1.6,8.3-4.4,11.2-7.7c11.4-2.1,19.3-8.5,23-18.5C450.6,30.4,450.8,25,450.7,22.4z M444.4,37c-0.1,0.3-0.2,0.5-0.3,0.7
		c-0.1,0.3-0.2,0.5-0.3,0.7c-0.2,0.3-0.3,0.6-0.5,0.9c-0.1,0.2-0.2,0.3-0.3,0.5c-0.2,0.3-0.4,0.7-0.6,1c0,0-0.1,0.1-0.1,0.2
		c-3.2,4.9-7.9,8.3-14,10.1c6.3-9.2,8.6-21.3,9.4-29h9.5c0,0.3,0,0.6,0,1c0,2.7-0.3,7.4-2.1,12.3C444.9,35.9,444.7,36.4,444.4,37z
		 M368.2,35.4c-2.1-5.6-2.2-11-2.1-13.4h9.5c0.8,7.7,3.1,19.9,9.5,29.1C376.8,48.7,371.1,43.4,368.2,35.4z"/>
</g>
<rect y="-1.3" class="st18" width="471" height="283.5"/>
<g>
	<path class="st19" d="M413.9,79.9c-1.4,0.1-2.7,0.6-3.8,1.6c-1,1-1.6,2.2-1.6,3.4c1.4-0.1,2.7-0.6,3.8-1.6
		C413.4,82.3,413.9,81.1,413.9,79.9z M415.7,88.4c-1.3,0.4-2.8,0.4-4.1-0.2c-1.3-0.5-2.3-1.5-2.8-2.6c1.3-0.4,2.8-0.4,4.1,0.2
		C414.2,86.2,415.2,87.2,415.7,88.4z M418.6,78.3c-1.3,0.3-2.6,1-3.5,2.1c-0.9,1.1-1.2,2.4-1,3.6c1.3-0.3,2.6-1,3.5-2.1
		C418.5,80.8,418.8,79.5,418.6,78.3z M421.8,86.3c-1.2,0.6-2.7,0.8-4.1,0.4c-1.4-0.3-2.6-1.2-3.3-2.2c1.2-0.6,2.7-0.8,4.1-0.4
		C420,84.5,421.1,85.3,421.8,86.3z M422.9,76c-1.3,0.4-2.4,1.3-3.1,2.5c-0.7,1.2-0.7,2.5-0.3,3.7c1.3-0.4,2.4-1.3,3.1-2.5
		C423.3,78.5,423.4,77.2,422.9,76z M427.6,83.5c-1.1,0.7-2.5,1.1-4,1c-1.5-0.1-2.7-0.8-3.6-1.7c1.1-0.7,2.5-1.1,4-1
		C425.4,81.9,426.7,82.6,427.6,83.5z M426.8,73.2c-1.2,0.6-2.2,1.6-2.6,2.9s-0.3,2.6,0.3,3.7c1.2-0.6,2.2-1.6,2.6-2.9
		C427.6,75.7,427.5,74.3,426.8,73.2z M432.7,80c-1,0.9-2.3,1.5-3.8,1.5c-1.4,0.1-2.8-0.3-3.9-1.2c1-0.9,2.3-1.5,3.8-1.5
		C430.3,78.7,431.7,79.1,432.7,80z M430.2,69.8c-1.1,0.8-1.9,1.9-2.1,3.3c-0.2,1.3,0.2,2.6,1,3.6c1.1-0.8,1.9-1.9,2.1-3.3
		C431.4,72.1,431,70.8,430.2,69.8z M437.2,75.7c-0.9,1.1-2.1,1.8-3.5,2c-1.5,0.3-2.9,0-4.1-0.6c0.9-1.1,2.1-1.8,3.5-2
		C434.6,74.8,436.1,75,437.2,75.7z M432.9,66.1c-1,0.9-1.5,2.2-1.5,3.5c0,1.3,0.6,2.5,1.6,3.4c1-0.9,1.5-2.1,1.5-3.5
		C434.5,68.1,433.9,67,432.9,66.1z M440.9,70.9c-0.6,1.1-1.7,2-3.1,2.5c-1.4,0.5-2.9,0.4-4.2,0c0.6-1.1,1.7-2,3.1-2.5
		C438.2,70.4,439.7,70.4,440.9,70.9z M435,62c-0.8,1-1.1,2.3-0.9,3.6c0.3,1.3,1,2.4,2.2,3.1c0.8-1,1.1-2.3,0.9-3.6
		C436.9,63.9,436.1,62.8,435,62z M443.7,65.6c-0.4,1.2-1.3,2.2-2.6,2.9c-1.3,0.7-2.8,0.8-4.1,0.5c0.4-1.2,1.3-2.2,2.6-2.9
		C440.9,65.5,442.4,65.4,443.7,65.6z M436.3,57.8c-0.6,1.1-0.7,2.4-0.2,3.7s1.5,2.2,2.7,2.8c0.6-1.1,0.7-2.4,0.2-3.7
		C438.5,59.3,437.5,58.3,436.3,57.8z M445.6,60.1c-0.2,1.2-0.9,2.4-2.1,3.2c-1.2,0.8-2.6,1.2-4,1.1c0.2-1.2,0.9-2.4,2.1-3.2
		C442.8,60.3,444.2,60,445.6,60.1z M436.9,53.4c-0.4,1.2-0.3,2.5,0.4,3.6c0.7,1.2,1.9,2,3.2,2.3c0.3-1.2,0.3-2.5-0.4-3.6
		C439.3,54.5,438.2,53.7,436.9,53.4z M446.5,54.4c0,1.2-0.5,2.5-1.5,3.5c-1,1-2.4,1.5-3.8,1.6c0-1.2,0.5-2.5,1.5-3.5
		C443.7,55,445.1,54.4,446.5,54.4z M442.5,48.6c0.9,1.1,1.4,2.5,1.2,4c-0.2,1.5-1.1,2.8-2.3,3.7c-0.9-1.1-1.4-2.5-1.2-4
		C440.4,50.8,441.3,49.5,442.5,48.6z M402.4,79.9c1.4,0.1,2.7,0.6,3.8,1.6c1,1,1.6,2.2,1.6,3.4c-1.4-0.1-2.7-0.6-3.8-1.6
		C403,82.3,402.5,81.1,402.4,79.9z M400.7,88.4c1.3,0.4,2.8,0.4,4.1-0.2c1.3-0.5,2.3-1.5,2.8-2.6c-1.3-0.4-2.8-0.4-4.1,0.2
		C402.2,86.2,401.2,87.2,400.7,88.4z M397.8,78.3c1.3,0.3,2.6,1,3.5,2.1c0.9,1.1,1.2,2.4,1,3.6c-1.3-0.3-2.6-1-3.5-2.1
		C397.9,80.8,397.6,79.5,397.8,78.3z M394.6,86.3c1.2,0.6,2.7,0.8,4.1,0.4c1.4-0.3,2.6-1.2,3.3-2.2c-1.2-0.6-2.7-0.8-4.1-0.4
		C396.4,84.5,395.3,85.3,394.6,86.3z M393.5,76c1.3,0.4,2.4,1.3,3.1,2.5c0.7,1.2,0.7,2.5,0.3,3.7c-1.3-0.4-2.4-1.3-3.1-2.5
		C393.1,78.5,393.1,77.2,393.5,76z M388.9,83.5c1.1,0.7,2.5,1.1,4,1c1.5-0.1,2.7-0.8,3.6-1.7c-1.1-0.7-2.5-1.1-4-1
		C391,81.9,389.7,82.6,388.9,83.5z M389.6,73.2c1.2,0.6,2.2,1.6,2.6,2.9c0.4,1.3,0.3,2.6-0.3,3.7c-1.2-0.6-2.2-1.6-2.6-2.9
		C388.8,75.6,388.9,74.3,389.6,73.2z M383.7,80c1,0.9,2.3,1.5,3.8,1.5c1.4,0.1,2.8-0.3,3.9-1.2c-1-0.9-2.3-1.5-3.8-1.5
		C386.1,78.7,384.7,79.1,383.7,80z M386.2,69.8c1.1,0.8,1.9,1.9,2.1,3.3c0.2,1.3-0.2,2.6-1,3.6c-1.1-0.8-1.9-1.9-2.1-3.3
		C385,72.1,385.4,70.8,386.2,69.8z M379.2,75.7c0.9,1.1,2.1,1.8,3.5,2c1.5,0.3,2.9,0,4.1-0.6c-0.9-1.1-2.1-1.8-3.5-2
		C381.8,74.8,380.4,75,379.2,75.7z M383.5,66.1c1,0.9,1.5,2.2,1.5,3.5c0,1.3-0.6,2.5-1.6,3.4c-1-0.9-1.5-2.1-1.5-3.5
		C381.9,68.1,382.5,67,383.5,66.1z M375.5,70.9c0.6,1.1,1.7,2,3.1,2.5c1.4,0.5,2.9,0.4,4.2,0c-0.6-1.1-1.7-2-3.1-2.5
		C378.2,70.4,376.8,70.4,375.5,70.9z M381.4,62c0.8,1,1.1,2.3,0.9,3.6c-0.3,1.3-1,2.4-2.2,3.1c-0.8-1-1.1-2.3-0.9-3.6
		C379.5,63.9,380.3,62.8,381.4,62z M372.7,65.6c0.4,1.2,1.3,2.2,2.6,2.9c1.3,0.7,2.8,0.8,4.1,0.5c-0.4-1.2-1.3-2.2-2.6-2.9
		C375.5,65.5,374,65.4,372.7,65.6z M380.1,57.8c0.6,1.1,0.7,2.4,0.2,3.7s-1.5,2.2-2.7,2.8c-0.6-1.1-0.7-2.4-0.2-3.7
		C377.9,59.3,378.9,58.3,380.1,57.8z M370.8,60.1c0.2,1.2,0.9,2.4,2.1,3.2c1.2,0.8,2.6,1.2,4,1.1c-0.2-1.2-0.9-2.4-2.1-3.2
		C373.6,60.4,372.2,60,370.8,60.1z M379.5,53.4c0.4,1.2,0.3,2.5-0.4,3.6c-0.7,1.2-1.9,2-3.2,2.3c-0.3-1.2-0.3-2.5,0.4-3.6
		C377.1,54.5,378.2,53.7,379.5,53.4z M369.9,54.4c0,1.2,0.5,2.5,1.5,3.5c1,1,2.4,1.5,3.8,1.6c0-1.2-0.5-2.5-1.5-3.5
		C372.6,55,371.3,54.4,369.9,54.4z M373.9,48.6c-0.9,1.1-1.4,2.5-1.2,4c0.2,1.5,1.1,2.8,2.3,3.7c0.9-1.1,1.4-2.5,1.2-4
		C376,50.8,375.2,49.5,373.9,48.6z"/>
	<g>
		<path class="st20" d="M412.2,66.6l-4-0.8h-0.1l-4,0.8c0,0,3.9,13.1-13.3,19.7h34.8C408.2,79.7,412.2,66.6,412.2,66.6z M439.8,15
			h-62.9c0,0-0.4,46.9,31.5,49.3C440.2,61.9,439.8,15,439.8,15z"/>
		<path class="st20" d="M416.8,67h-16.8c-1.1,0-2-0.9-2-2v-0.2c0-1.1,0.9-2,2-2h16.8c1.1,0,2,0.9,2,2V65
			C418.8,66.1,417.8,67,416.8,67z M425.1,55.4l-0.7-2.6c11.3-1.5,18.8-7.2,22.4-16.9c2.1-5.6,2.2-11,2.1-13.4h-15.8v-2.6h19.2
			l0.1,1.2c0,0.3,0.8,7.5-2.1,15.4C446.4,47.1,437.7,53.7,425.1,55.4z M391.6,55.4l0.7-2.6c-11.3-1.5-18.8-7.2-22.4-16.9
			c-2.1-5.6-2.2-11-2.1-13.4h15.8v-2.6h-19.2l-0.1,1.3c0,0.3-0.8,7.5,2.1,15.4C370.3,47.1,379.1,53.7,391.6,55.4z"/>
	</g>
	<path class="st21" d="M452.4,21.1l-0.1-1.2h-12.7c0.2-3,0.2-4.8,0.2-4.8h-31.7v71.2h17.4c-15.5-5.9-13.9-17-13.4-19.3h4.7
		c1.1,0,2-0.9,2-2v-0.2c0-1.1-0.9-2-2-2h-0.9c4.6-1.6,8.4-4.4,11.4-7.8c11.4-2.1,19.4-8.5,23-18.5C453.2,28.6,452.4,21.4,452.4,21.1
		L452.4,21.1z M446.8,35.8c-3,8-8.6,13.3-16.9,15.7c6.3-9.2,8.6-21.4,9.4-29.1h9.6C449,24.8,448.9,30.2,446.8,35.8z"/>
	<path class="st22" d="M411.1,97.7c0,0-5.4,0-6.9-0.4c-1.5-0.4-1.4,0.5,0.7,0.7c2,0.2,4.8,0.9,6.8,0.7L411.1,97.7L411.1,97.7z
		 M410.1,103.3c0-0.1-5.1-2.4-5.5-3.3c-0.4-0.9,6,3.4,6,3.4L410.1,103.3z"/>
	<path class="st23" d="M425.8,87.6h-35.6c-0.6,0-1-0.5-1-1s0.5-1,1-1h35.6c0.6,0,1,0.5,1,1C426.9,87.2,426.4,87.6,425.8,87.6z"/>
	<path class="st20" d="M386.7,86.8h42.3v14.9h-42.3V86.8z"/>
	<path class="st21" d="M408.1,86.8h21v14.9h-21V86.8z"/>
	<path class="st23" d="M384.4,100.4h47v3.1h-47V100.4z M389.5,88.4h37v10.7h-37V88.4z"/>
	<path class="st24" d="M414.4,29.1l-2.1-3.6c-0.3-0.4-0.1-1,0.4-1.3l1.7-1c-4.5-2-9.9-1.8-14.4,0.9c-4.6,2.7-7.3,7.3-7.7,12.2l1.7-1
		c0.5-0.3,1.1-0.2,1.4,0.3l2.1,3.6c0.3,0.4,0.1,1-0.4,1.3l-4,2.3c0.3,1,0.8,2,1.3,3c1.9,3.2,4.7,5.5,7.9,6.7l-0.7-1.1
		c-0.3-0.5-0.1-1.2,0.3-1.5l19.6-11.6c0.5-0.3,1.2-0.1,1.5,0.4l0.6,1c0.4-3.4-0.2-6.9-2.1-10.1c-0.6-1-1.2-1.8-2-2.6l-4,2.3
		C415.2,29.7,414.6,29.5,414.4,29.1L414.4,29.1z M404.6,30.1c-0.3-0.4-0.1-1,0.4-1.3l4.4-2.6c0.5-0.3,1.1-0.2,1.4,0.3l2.1,3.6
		c0.3,0.4,0.1,1-0.4,1.3l-4.4,2.6c-0.5,0.3-1.1,0.2-1.4-0.3L404.6,30.1z M396.9,34.6c-0.3-0.4-0.1-1,0.4-1.3l4.4-2.6
		c0.5-0.3,1.1-0.2,1.4,0.3l2.1,3.6c0.3,0.4,0.1,1-0.4,1.3l-4.4,2.6c-0.5,0.3-1.1,0.2-1.4-0.3L396.9,34.6z M405.5,43.7
		c0.3,0.4,0.1,1-0.4,1.3l-4.4,2.6c-0.5,0.3-1.1,0.2-1.4-0.3l-2.1-3.6c-0.3-0.4-0.1-1,0.4-1.3l4.4-2.6c0.5-0.3,1.1-0.2,1.4,0.3
		L405.5,43.7z M413.1,39.3c0.3,0.4,0.1,1-0.4,1.3l-4.4,2.6c-0.5,0.3-1.1,0.2-1.4-0.3l-2.1-3.6c-0.3-0.4-0.1-1,0.4-1.3l4.4-2.6
		c0.5-0.3,1.1-0.2,1.4,0.3L413.1,39.3z M418.7,31.2l2.1,3.6c0.3,0.4,0.1,1-0.4,1.3l-4.4,2.6c-0.5,0.3-1.1,0.2-1.4-0.3l-2.1-3.6
		c-0.3-0.4-0.1-1,0.4-1.3l4.4-2.6C417.8,30.6,418.4,30.7,418.7,31.2L418.7,31.2z M416.1,51.3c2.6-1.6,4.6-3.8,6-6.3l-14.4,8.5
		C410.6,53.6,413.5,52.9,416.1,51.3L416.1,51.3z"/>
	<path class="st25" d="M414.4,28.8l-2.1-3.6c-0.3-0.4-0.1-1,0.4-1.3l1.7-1c-4.5-2-9.9-1.8-14.4,0.9c-4.6,2.7-7.3,7.3-7.7,12.2l1.7-1
		c0.5-0.3,1.1-0.2,1.4,0.3l2.1,3.6c0.3,0.4,0.1,1-0.4,1.3l-4,2.3c0.3,1,0.8,2,1.3,3c1.9,3.2,4.7,5.5,7.9,6.7l-0.7-1.1
		c-0.3-0.5-0.1-1.2,0.3-1.5L421.6,38c0.5-0.3,1.2-0.1,1.5,0.4l0.6,1c0.4-3.4-0.2-6.9-2.1-10.1c-0.6-1-1.2-1.8-2-2.6l-4,2.3
		C415.3,29.4,414.7,29.2,414.4,28.8L414.4,28.8z M404.6,29.8c-0.3-0.4-0.1-1,0.4-1.3l4.4-2.6c0.5-0.3,1.1-0.2,1.4,0.3l2.1,3.6
		c0.3,0.4,0.1,1-0.4,1.3l-4.4,2.6c-0.5,0.3-1.1,0.2-1.4-0.3L404.6,29.8z M397,34.3c-0.3-0.4-0.1-1,0.4-1.3l4.4-2.6
		c0.5-0.3,1.1-0.2,1.4,0.3l2.1,3.6c0.3,0.4,0.1,1-0.4,1.3l-4.4,2.6c-0.5,0.3-1.1,0.2-1.4-0.3L397,34.3z M405.6,43.5
		c0.3,0.4,0.1,1-0.4,1.3l-4.4,2.6c-0.5,0.3-1.1,0.2-1.4-0.3l-2.1-3.6c-0.3-0.4-0.1-1,0.4-1.3l4.4-2.6c0.5-0.3,1.1-0.2,1.4,0.3
		L405.6,43.5z M413.1,39c0.3,0.4,0.1,1-0.4,1.3l-4.4,2.6c-0.5,0.3-1.1,0.2-1.4-0.3l-2.1-3.6c-0.3-0.4-0.1-1,0.4-1.3l4.4-2.6
		c0.5-0.3,1.1-0.2,1.4,0.3L413.1,39z M418.8,30.9l2.1,3.6c0.3,0.4,0.1,1-0.4,1.3l-4.4,2.6c-0.5,0.3-1.1,0.2-1.4-0.3l-2.1-3.6
		c-0.3-0.4-0.1-1,0.4-1.3l4.4-2.6C417.9,30.3,418.5,30.4,418.8,30.9z M416.2,51c2.6-1.6,4.6-3.8,6-6.3l-14.4,8.5
		C410.6,53.3,413.5,52.6,416.2,51L416.2,51z"/>
	<path class="st25" d="M390.8,91.5c0.3,0,0.9-0.1,1.6-0.1s1.2,0.1,1.6,0.4c0.3,0.3,0.5,0.7,0.5,1.2c0,0.5-0.2,0.9-0.5,1.2
		c-0.4,0.3-1,0.5-1.6,0.5c-0.1,0-0.3,0-0.4,0v1.8h-1.1V91.5L390.8,91.5z M391.9,93.8c0.1,0,0.2,0,0.4,0c0.6,0,1-0.3,1-0.8
		c0-0.5-0.3-0.7-0.9-0.7c-0.2,0-0.4,0-0.5,0V93.8L391.9,93.8z M395.2,91.4h1.1v4.1h2v1h-3.1V91.4L395.2,91.4z M400.2,95.2l-0.3,1.3
		h-1.2l1.6-5h1.5l1.6,5h-1.2l-0.4-1.3H400.2z M401.5,94.4l-0.3-1.1l-0.3-1c-0.1,0.3-0.1,0.7-0.2,1l-0.3,1.1H401.5z M404.3,92.4h-1.3
		v-1h3.9v1h-1.4v4.1h-1.1V92.4z M408.6,91.4v5h-1.1v-5H408.6z M409.6,96.5v-5h1.3l1,1.9c0.3,0.5,0.6,1.2,0.8,1.7h0
		c-0.1-0.7-0.1-1.3-0.1-2.1v-1.5h1v5h-1.3l-1.1-2c-0.3-0.5-0.7-1.2-0.9-1.8h0l0,2.2v1.5L409.6,96.5L409.6,96.5z M415.8,91.4v2.9
		c0,0.9,0.3,1.3,0.9,1.3c0.6,0,0.9-0.4,0.9-1.3v-2.9h1.1v2.8c0,1.6-0.8,2.3-2.1,2.3c-1.3,0-2-0.7-2-2.3v-2.8H415.8L415.8,91.4z
		 M424.1,94.6l0-2.1h0l-0.6,2l-0.6,2h-0.9l-0.5-2l-0.5-2l-0.1,2.1l-0.1,1.9h-1l0.3-5h1.5l0.5,1.7c0.2,0.6,0.3,1.2,0.4,1.8h0l0.5-1.8
		l0.5-1.7h1.5l0.3,5h-1.1V94.6z"/>
</g>
</svg>
