<?xml version="1.0" encoding="utf-8"?>
<!-- Generator: Adobe Illustrator 21.1.0, SVG Export Plug-In . SVG Version: 6.00 Build 0)  -->
<svg version="1.1" id="Layer_1" xmlns="http://www.w3.org/2000/svg" xmlns:xlink="http://www.w3.org/1999/xlink" x="0px" y="0px"
	 viewBox="0 0 470 281" style="enable-background:new 0 0 470 281;" xml:space="preserve">
<style type="text/css">
	.st0{display:none;}
	.st1{display:inline;fill:#F7B359;}
	.st2{display:inline;opacity:0.11;fill:#1A1A1A;enable-background:new    ;}
	.st3{display:inline;}
	.st4{fill:#333333;}
	.st5{fill:#0071BC;}
	.st6{fill:#39B54A;}
	.st7{fill:#8CC63F;}
	.st8{fill:#FFE3B6;}
	.st9{fill:#1A1A1A;}
	.st10{fill:#D3A67F;}
	.st11{fill:#EDC094;}
	.st12{fill:#FAD69D;}
	.st13{fill:#808080;}
	.st14{fill:#008080;}
	.st15{fill:#666666;}
	.st16{fill:#FFFFFF;}
	.st17{fill:#FC9D15;}
	.st18{opacity:0.1;enable-background:new    ;}
	.st19{fill:#E7B89A;}
	.st20{fill:#FECD4A;}
	.st21{opacity:0.5;enable-background:new    ;}
	.st22{fill:#CE7A15;}
</style>
<g id="position_check" class="st0">
	<rect x="-4" y="-2" class="st1" width="480" height="286"/>
	<path class="st2" d="M778.2,145.4c-0.2-0.5-1.1-2.2-0.8-5.5C777.1,143.1,778,144.9,778.2,145.4z"/>
	<g class="st3">
		<g>
			<path class="st4" d="M343.5,255.2h-78.2c-2.2,0-4-1.8-4-4l0,0c0-2.2,1.8-4,4-4h78.2c2.2,0,4,1.8,4,4l0,0
				C347.6,253.4,345.7,255.2,343.5,255.2z"/>
			<g>
				<rect x="297" y="194.2" class="st4" width="14.8" height="53.8"/>
				<g>
					<ellipse class="st4" cx="270.5" cy="258.4" rx="7.4" ry="7.6"/>
					<ellipse class="st4" cx="304.4" cy="258.4" rx="7.4" ry="7.6"/>
					<ellipse class="st4" cx="338.4" cy="258.4" rx="7.4" ry="7.6"/>
				</g>
				<path class="st5" d="M342.5,194.2h-77c-3,0-5.5-2.5-5.5-5.5v-4.3c0-3,2.5-5.5,5.5-5.5h77c3,0,5.5,2.5,5.5,5.5v4.3
					C348,191.8,345.5,194.2,342.5,194.2z"/>
				<path class="st4" d="M342.5,193.3h-2.1c-3,0-5.5-2.5-5.5-5.5V145c0-3,2.5-5.5,5.5-5.5h2.1c3,0,5.5,2.5,5.5,5.5v42.8
					C348,190.9,345.5,193.3,342.5,193.3z"/>
				<path class="st5" d="M334.9,159.1v-47.6c0-3-2.5-5.5-5.5-5.5h-3.8c-3,0-5.5,2.5-5.5,5.5v47.6c0,3,2.5,5.5,5.5,5.5h3.8
					C332.5,164.6,334.9,162.2,334.9,159.1z"/>
			</g>
		</g>
		<g>
			<rect x="158.5" y="145" class="st4" width="19" height="116"/>
			<rect x="122" y="254" class="st4" width="90" height="12"/>
			<rect x="122" y="136" class="st4" width="134" height="9"/>
		</g>
		<g>
			<rect x="212" y="133" class="st4" width="40" height="2"/>
			<rect x="215" y="132" class="st4" width="4" height="2"/>
			<rect x="221" y="132" class="st4" width="4" height="2"/>
			<rect x="227" y="132" class="st4" width="4" height="2"/>
			<rect x="233" y="132" class="st4" width="4" height="2"/>
			<rect x="239" y="132" class="st4" width="4" height="2"/>
			<rect x="245" y="132" class="st4" width="4" height="2"/>
		</g>
		<rect x="147.5" y="132.4" class="st4" width="47.5" height="2.6"/>
		<path class="st4" d="M181.7,96.8h-14.8c2.8,4,4.4,9,4.4,14.5c0,9.2-4.7,17.2-11.5,21.1H181c-2-5-3.1-10.8-3.1-17
			C177.9,108.4,179.3,102,181.7,96.8z"/>
		<path class="st4" d="M180.6,69h-0.1c-2,5.4-3,11.9-2.5,18.8c0.4,6.2,2,12,4.3,16.8l0.8-0.1L180.6,69z"/>
		<ellipse class="st4" cx="174.6" cy="94.1" rx="8.6" ry="9.2"/>
		<g>
			<g>
				<g>
					<path class="st6" d="M222,254.9c2.2,0,3.4-0.4,5.1-1.7c0.9-0.7,1.9-1.4,2.9-2c2.8-1.6,6-2.7,7.6-5.5c0,0,0.1,0,0.1-0.1
						c0.8-0.8,1.9-0.8,2.8-0.3c0.1,0.1,0.2,0.1,0.3,0c0.2,0.5,0.5,1,0.8,1.5c0.7,1.2,1.9,1.7,3.2,1.9c1.4,0.2,3.3,0.4,4.5-0.4
						c0.5-0.4,0.8-0.9,1-1.5s0.5-1.1,0.9-1.5c0.1,0,0.2,0.1,0.3,0.2c1.9,3,1,7,2.5,10.3c0.4,0.3,0.4,1-0.2,1.5
						c-2,1.7-3.8,1.7-6.3,1.9c-3.3,0.3-6.6,0.1-9.8,0.5c-5.4,0.7-11.8,3.2-17,0.5C217.1,258.6,218,254.8,222,254.9z"/>
					<path class="st7" d="M221.8,254.9c-0.4,0.6,0.1,1.4,0.9,1.6c0.5,0.1,1.1,0.1,1.6,0.1c1.2,0.1,2.4-0.1,3.5-0.5
						c2.4-0.9,4.5-3,6.6-4.4c0.9-0.6,1.9-1,2.9-1.5c0.5-0.2,1-0.5,1.4-1c0.3-0.3,1.2-1.1,1.2-1.5c-0.1-0.7,1.1-1.5,1.6-0.9
						c-0.3-0.6-0.4-0.8-0.5-1c-0.2-0.4-0.3-0.7-0.5-1.1c-0.2-0.3-0.4-0.7-0.7-1c-0.6-0.6-1.7-0.5-1.9,0.4c0,0.2,0,0.5,0,0.8
						c-1.5,3.3-5,4.4-7.9,6.1c-1,0.6-2,1.3-2.9,2c-1.7,1.3-3,1.7-5.1,1.7C221.9,254.9,221.9,254.9,221.8,254.9z"/>
					<path class="st4" d="M254,255.9L254,255.9c-1.1,0.7-2.6,1-3.8,1.3c-2.5,0.5-5,0.7-7.5,0.8c-3,0.1-5.8,0.7-8.7,1.3
						c-5.3,1-10.7,0.7-15.6-1.9c0,1.1,0.7,2.2,2.3,3c5.2,2.7,11.6,0.2,17-0.5c3.2-0.4,6.5-0.2,9.8-0.5c2.5-0.3,4.3-0.3,6.3-1.9
						C254.4,257,254.4,256.2,254,255.9z"/>
				</g>
				<g>
					<path class="st8" d="M278.2,50.2c0.1-1,1.5-1.8,2-2.6c1-1.7,1.6-4.3,1.7-6.3c0-0.2,0.1-0.3,0.3-0.4c0-0.2,0.1-0.5,0.1-0.7
						c0.8-4.1,3.1-8.7,6.9-10.9c1.9-1.1,4.2-1.4,6.4-1.1c2.8,0.4,5.5,1.9,7.1,4.2c2,2.8,3.8,6.9,3.8,10.4c0.5-0.1,0.9,0,1.4,0.1
						c1.5,0.5,2,2.2,2.2,3.6c0.2,1.8-0.5,3.3-1.7,4.2c0.3,1.1,1,2,1.8,2.8s3.4,2.4,3.5,2.6c0.3,0.2-2.6,4.9,1.9,15.9
						c-12.5,2.9-16.9,6.2-16.9,6.2c1.3-4.3,1.7-10.4-2.9-12.6l0,0c-3.3,1.2-6.7,1.1-9.2-0.4c-1.9-1.1-3.3-3-3.8-5.7
						c-0.5-2.3-0.9-4.8-1-7.2C280,52.4,278,51.8,278.2,50.2z"/>
					<path class="st8" d="M305.3,75.2c-0.3-2.3-0.6-4.7-1.3-6.9c-0.5-1.5-1.1-3-2.3-4.1c-1.3-1.1-2.6-0.9-4-0.5c2-1.8,3.1-4.1,4-6.9
						c0.7-2,2-5.6,0-7.3c-2.1-1.8-6-1.6-8.5-1.8c-4-0.4-8.2-1.3-11.9-2.8c0.3-1.2,0.5-2.5,0.6-3.6c0-0.2,0.1-0.3,0.3-0.4
						c0-0.2,0.1-0.5,0.1-0.7c0.8-4.1,3.1-8.7,6.9-10.9c1.9-1.1,4.2-1.4,6.4-1.1c2.8,0.4,5.5,1.9,7.1,4.2c2,2.8,3.8,6.9,3.8,10.4
						c0.5-0.1,0.9,0,1.4,0.1c1.5,0.5,2,2.2,2.2,3.6c0.2,1.8-0.5,3.3-1.7,4.2c0.3,1.1,1,2,1.8,2.8s3.4,2.4,3.5,2.6
						c0.3,0.2-2.6,4.9,1.9,15.9C311.2,73.2,307.8,74.3,305.3,75.2z"/>
				</g>
				<path class="st9" d="M286.4,22.7c8.9-11.3,27.8-9.8,34.6,1.9c0.6,1,1.1,2.1,1.5,3.2c0.1,0.2,0.1,0.3,0.2,0.5
					c8.5-3.5,15.9,4.2,17.8,12.3c1.1,4.9,0.8,9.2-1.7,13.6c-1.5,2.6-3.1,5.1-3.9,8c-0.9,3.1-1.5,5.7-1.3,10c0,0-1.3-1.8-1.4-2.1
					c-0.4,3.4,0.6,5.2,0.8,5.7c0,0-7.2-6.2-8-17.2c-0.2-3.3,0.3-6.7,0.2-10c0-2-0.3-5.3-1.6-7.6c0.9,2.4,1.4,5,0.9,7.6
					c-0.7,3.8-3.5,6.6-7.3,7.3c-3.9,0.7-7-1.1-9.5-4c-0.9-1.1-1.4-1.8-0.4-3.1c1.2-1.8,2.7-4,0.4-5.8c-1.6-1.3-3.3,0.3-3.6,2
					c-0.1,0.6,0,1.3,0.1,1.9c0,0.5-0.6,0.6-0.8,0.2c-1-1.5-0.7-3-0.3-4.7c0.2-1,0.3-1,0.4-2c-0.5,0.3-23.8,0.3-23.9-1
					C279.5,37.1,277.1,26.7,286.4,22.7z"/>
				<path d="M321.9,28.5c0-1.3,0.6-2.2,1.5-1.9c0.1,0,0.3,0.3,0.4,0.4c0.3,0.2,0.5,0,0.7,0.4c0.2,0.5-0.4,1-0.5,1.5
					c-1.6,6.6,0.5,13.2,0.1,13.3C323.6,42.3,321.9,37.3,321.9,28.5z"/>
				<path class="st10" d="M249.3,249.4h-8.8c-11-25.1-22.2-57.9-23.1-79.2c-0.1-3.1,1.5-6,4.3-7.4c0,0,0,0,0.1,0
					c4.4-2.1,9.9-2.7,14.6-3.8c17.3-4.1,35.3-7.9,53.2-8.8c5.4-0.3,10.7-0.1,16,0.1c2.2,0.1,8.6,1.4,9,2.1c3,7,6.8,16.8,3.6,24.4
					c-3.6,8.5-13.8,8.5-21.6,8.5c-19.6,0-39.2-1.6-58.7-3.5C243.4,203.4,247.5,227.2,249.3,249.4z"/>
				<path class="st11" d="M251.3,251.2h-8.8c-11-25.1-22.2-57.9-23.1-79.2c-0.1-3.1,1.5-6,4.3-7.4c0,0,0,0,0.1,0
					c4.4-2.1,9.9-2.7,14.6-3.8c17.3-4.1,35.3-7.9,53.2-8.8c5.4-0.3,10.7-0.1,16,0.1c2.2,0.1,8.6,1.4,9,2.1c3,7,6.8,16.8,3.6,24.4
					c-3.6,8.5-13.8,8.5-21.6,8.5c-19.6,0-39.2-1.6-58.7-3.5C245.4,205.2,249.5,229,251.3,251.2z"/>
				<path class="st7" d="M242,248.9h0.1c0.2,0.4,0.3,0.7,0.5,1.1c0.7,1.2,1.9,1.7,3.2,1.9c1.4,0.2,3.3,0.4,4.5-0.4
					c0.5-0.4,0.8-0.9,1-1.5s0.5-1.1,0.9-1.5c0.1,0,0.2,0.1,0.3,0.2c0.3,0.5,0.5,1,0.7,1.5c-0.4,0.7-0.9,1.3-1.5,1.8
					c-1.3,1.1-3.2,1.2-4.9,1.2s-3.5-0.5-4.8-1.6c-0.7-0.5-1.2-1.2-1.7-1.8c-0.2-0.2-0.5-0.4-0.7-0.7
					C240.3,248.7,241.1,248.8,242,248.9z"/>
				<g>
					<path class="st6" d="M223,258c2.2,0,3.4-0.4,5.1-1.7c0.9-0.7,1.9-1.4,2.9-2c2.8-1.6,6-2.7,7.6-5.5c0,0,0.1,0,0.1-0.1
						c0.8-0.8,1.9-0.8,2.8-0.3c0.1,0.1,0.2,0.1,0.3,0c0.2,0.5,0.5,1,0.8,1.5c0.7,1.2,1.9,1.7,3.2,1.9c1.4,0.2,3.3,0.4,4.5-0.4
						c0.5-0.4,0.8-0.9,1-1.5s0.5-1.1,0.9-1.5c0.1,0,0.2,0.1,0.3,0.2c1.9,3,1,7,2.5,10.3c0.4,0.3,0.4,1-0.2,1.5
						c-2,1.7-3.8,1.7-6.3,1.9c-3.3,0.3-6.6,0.1-9.8,0.5c-5.4,0.7-11.8,3.2-17,0.5C218.1,261.7,219,257.9,223,258z"/>
					<path class="st7" d="M222.9,258c-0.4,0.6,0.1,1.4,0.9,1.6c0.5,0.1,1.1,0.1,1.6,0.1c1.2,0.1,2.4-0.1,3.5-0.5
						c2.4-0.9,4.5-3,6.6-4.4c0.9-0.6,1.9-1,2.9-1.5c0.5-0.2,1-0.5,1.4-1c0.3-0.3,1.2-1.1,1.2-1.5c-0.1-0.7,1.1-1.5,1.6-0.9
						c-0.3-0.6-0.4-0.8-0.5-1c-0.2-0.4-0.3-0.7-0.5-1.1c-0.2-0.3-0.4-0.7-0.7-1c-0.6-0.6-1.7-0.5-1.9,0.4c0,0.2,0,0.5,0,0.8
						c-1.5,3.3-5,4.4-7.9,6.1c-1,0.6-2,1.3-2.9,2c-1.7,1.3-3,1.7-5.1,1.7C223,258,222.9,258,222.9,258z"/>
					<path class="st4" d="M255,259L255,259c-1.1,0.7-2.6,1-3.8,1.3c-2.5,0.5-5,0.7-7.5,0.8c-3,0.1-5.8,0.7-8.7,1.3
						c-5.3,1-10.7,0.7-15.6-1.9c0,1.1,0.7,2.2,2.3,3c5.2,2.7,11.6,0.2,17-0.5c3.2-0.4,6.5-0.2,9.8-0.5c2.5-0.3,4.3-0.3,6.3-1.9
						C255.4,260.1,255.4,259.3,255,259z"/>
				</g>
				<path class="st7" d="M223.6,262.8c1.5,0.5,3,0.7,4.6,0.8c5.3,0.3,10.5-1.6,15.7-1.8c2.4-0.1,4.8,0.1,7.1-0.5c1-0.3,2-0.7,3-1.1
					c0.4-0.2,0.9-0.4,1.3-0.6c0-0.2-0.1-0.4-0.2-0.5c0,0,0,0,0-0.1c-1.1,0.8-2.6,1.1-3.8,1.3c-2.5,0.5-5,0.7-7.5,0.8
					c-3,0.1-5.8,0.7-8.7,1.3c-5.3,1-10.7,0.7-15.6-1.9c0,0.3,0,0.5,0.1,0.8C220.9,261.7,222.2,262.3,223.6,262.8z"/>
				<path class="st7" d="M251.1,250.5c0,0.8,0.4,1.5,0.9,2.1c0.6,0.6,1.3,1.1,1.9,1.6c-0.2-1.9-0.4-3.8-1.5-5.4
					c-0.1-0.1-0.2-0.2-0.3-0.2c-0.4,0.4-0.7,0.8-0.9,1.5C251.3,250.2,251.2,250.4,251.1,250.5z"/>
				<g>
					<path class="st12" d="M252.9,125.6c15.3-1.9,34.4,0,41.6,2.1c-0.8-9.5,0.8-21.9,2.1-29.7c4.7,0.1,9.4,0.9,13.5,2.8
						c-1.7,10.2-5.2,26-11.3,35.6c-0.2,0.3-26.4-3-46-7L252.9,125.6z"/>
					<path class="st12" d="M235.2,131.2c1.8-1.2,3-2.7,3.4-3.1c1.6-1.6,3.4-3.5,5.7-4c2.9-0.6,6.3,0.5,9,1.5
						c0.4,0.2,1.2,3.8,0.9,3.9c-2.5,0.8-4.9,0.8-7.4,0.2c-1.9-0.5-3.9-0.4-5.8,0.3c-0.9,0.3-1.8,0.8-2.6,1.3
						c-0.3,0.2-0.8,0.6-1.2,0.8c-0.6,0.3-1.2,0.5-1.7,0.2C235,132,234.8,131.5,235.2,131.2z"/>
				</g>
				<path class="st6" d="M280.6,101.3c-0.2-2.9,5-6.6,8.3-10.3c2.5-2.7,4-7,5.7-10.3c1.3-2.4,2.2-5.1,3.9-7.3c2-2.6,5.2-4.3,8.5-4.5
					c7.8-0.3,12.4,6.8,13.1,13.8c0.7,7.2-1.4,14.3-2.2,21.3c0,0.1,0,0.1,0,0.2c-3,13.6-4.7,28.2-2.6,42.2c0.2,0.6,0.5,1.1,0.9,1.6
					c0.4,0.4,1.1,0.8,1.3,1.3c0.2,0.6,0,1-0.4,1.3c0.3,0.8,0.7,1.4,1.3,2c0.3,0.3,0.7,0.7,0.9,1.1c0.3,0.6,0.4,1.5-0.2,2
					c-0.8,0.7-2.2,0.5-3.2,0.4c-1.5-0.2-3-0.6-4.5-1.1l0,0c-2.6-0.7-5.3-1.7-5.7-1.7c-5.9-1.2-12-1.7-18-1.3h-0.1
					c-3.4,0.2-4.4-0.6-4.4-1.4l3.9-37.2C282.7,108.8,280.9,106.3,280.6,101.3z"/>
				<path class="st13" d="M319.2,152.8c-0.4-0.7-6.9-2.4-9.1-2.6c-5.5-0.4-10.9-0.8-16.3-0.7c-18.3,0.4-36.9,4-54.6,8
					c-4.5,1-9.8,1.6-14.2,3.4l24.3,23.5c16.7,2.3,33.5,4.1,50.3,4.7c7.9,0.3,18.4,0.5,22.4-8.8C325.4,171.9,322,160.7,319.2,152.8z"
					/>
				<path class="st8" d="M295.8,125.8c-7.2-2.1-26.2-4-41.4-2.1c0.1,0,0.2,0.1,0.3,0.1c0.4,0.2,1.2,3.8,0.9,3.9
					c-0.1,0-0.3,0.1-0.4,0.1c19.4,3.9,44.8,7,44.9,6.8c2.5-3.9,4.6-8.9,6.3-14.1l-10.8-1.5C295.6,121.3,295.7,123.6,295.8,125.8z"/>
				<path class="st8" d="M254.3,123.7c0.1,0,0.1,0,0.2,0c-2.6-1-5.9-2-8.7-1.4c-2.3,0.5-4.1,2.3-5.7,4c-0.5,0.5-1.6,2-3.4,3.1
					c-0.4,0.3-0.2,0.8,0.2,1c0.6,0.3,1.2,0.1,1.7-0.2c0.4-0.2,0.9-0.6,1.2-0.8c0.8-0.5,1.7-0.9,2.6-1.3c1.9-0.7,3.9-0.8,5.8-0.3
					c2.4,0.6,4.7,0.7,7-0.1c-0.3-0.1-0.7-0.1-1-0.2L254.3,123.7z"/>
				<path class="st8" d="M254.7,123.8c-0.1,0-0.2-0.1-0.3-0.1s-0.1,0-0.2,0l-0.1,3.9c0.3,0.1,0.7,0.1,1,0.2c0.1,0,0.3-0.1,0.4-0.1
					C256,127.5,255.2,123.9,254.7,123.8z"/>
				<path class="st14" d="M311.2,100.6c0,0.2-0.1,0.4-0.1,0.6C311.1,101,311.2,100.8,311.2,100.6z"/>
				<path class="st14" d="M297.7,97.9c0.1-0.6,0.2-1.3,0.3-1.8C297.9,96.7,297.8,97.3,297.7,97.9z"/>
				<path class="st14" d="M310.5,104.6c-0.1,0.5-0.2,0.9-0.3,1.4C310.3,105.5,310.4,105.1,310.5,104.6z"/>
				<path class="st14" d="M297.7,98L297.7,98L297.7,98z"/>
				<path class="st14" d="M310.6,104.1c0,0.1-0.1,0.3-0.1,0.4C310.5,104.4,310.5,104.3,310.6,104.1z"/>
				<path class="st14" d="M311.1,101.2c-0.1,0.4-0.1,0.7-0.2,1.1C311,102,311,101.6,311.1,101.2z"/>
				<path class="st7" d="M304,75.8c1.8-3.1,4.5-5.3,7.4-6c-1.7-1.2-3.7-1.9-6-1.8c-3.5,0.2-6.9,2.6-9.1,6.3
					c-1.8,3.1-2.8,6.9-4.2,10.3c-0.5,1.4-1.1,2.9-1.6,4.4l8.2,0.1c0.4-1,0.7-2,1.1-2.9C301.2,82.7,302.2,78.9,304,75.8z"/>
				<path class="st9" d="M340.6,52c-1.7-7.5-8.3-14.7-16-12.9v6c2.6,0.8,5,2.8,6.5,5c2.6,3.8,1.6,8.1,0.1,12.1
					c-1.3,3.6-2.4,7-2.2,10.9c0.1,1.6,0.2,3.3,0.9,4.8c0.5,1.3,1.8,2.4,2.4,3.7l0,0l0,0c0.1,0.2,1.4,2.1,1.4,2.1
					c-0.2-4.3,0.4-7,1.3-10c0.8-3,2.4-5.4,3.9-8C341.4,61.2,341.7,56.8,340.6,52z"/>
				<path class="st9" d="M329.8,77.9c-0.6-1.5-0.8-3.2-0.9-4.8c-0.2-3.9,1-7.3,2.2-10.9c1.4-4,2.4-8.3-0.1-12.1
					c-1.5-2.2-3.9-4.2-6.5-5v9.6c0.5,1.9,0.7,4,0.7,5.4c0.1,3.3-0.5,6.7-0.2,10c0.7,11,8,17.2,8,17.2c-0.2-0.5-1.2-2.3-0.8-5.7l0,0
					C331.6,80.3,330.3,79.2,329.8,77.9z"/>
				<path class="st9" d="M329.8,77.9c-0.6-1.5-0.8-3.2-0.9-4.8c-0.2-3.9,1-7.3,2.2-10.9c1.4-4,2.4-8.3-0.1-12.1
					c-1.5-2.2-3.9-4.2-6.5-5v9.6c0.5,1.9,0.7,4,0.7,5.4c0.1,3.3-0.5,6.7-0.2,10c0.7,11,8,17.2,8,17.2c-0.2-0.5-1.2-2.3-0.8-5.7l0,0
					C331.6,80.3,330.3,79.2,329.8,77.9z"/>
			</g>
			
				<ellipse transform="matrix(0.1153 -0.9933 0.9933 0.1153 224.4555 343.2869)" class="st8" cx="304.9" cy="45.6" rx="5.5" ry="4.1"/>
		</g>
		
			<rect x="180.2" y="27.1" transform="matrix(0.9983 -5.906793e-02 5.906793e-02 0.9983 -4.1884 10.9166)" class="st15" width="4.7" height="98.4"/>
	</g>
</g>
<g>
	<rect y="-1.3" class="st16" width="472.3" height="283.5"/>
	<g>
		<g>
			<path class="st17" d="M413.7,67l-4.1-0.8h-0.1l-4.1,0.8c0,0,4,13.2-13.4,19.9h35.1C409.6,80.3,413.7,67,413.7,67z M441.5,14.9
				h-63.5c0,0-0.4,47.3,31.8,49.8C442,62.3,441.5,14.9,441.5,14.9z"/>
			<path class="st17" d="M418.3,67.4h-17c-1.1,0-2-0.9-2-2v-0.2c0-1.1,0.9-2,2-2h17c1.1,0,2,0.9,2,2v0.2
				C420.3,66.5,419.4,67.4,418.3,67.4z M426.7,55.7L426,53c11.4-1.5,19-7.3,22.6-17.1c2.1-5.6,2.2-11.1,2.1-13.5h-16v-2.7h19.4
				l0.1,1.2c0,0.3,0.8,7.6-2.1,15.6C448.2,47.3,439.4,54,426.7,55.7z M392.9,55.7l0.7-2.6c-11.4-1.5-19-7.3-22.6-17.1
				c-2.1-5.6-2.2-11.1-2.1-13.5h16v-2.7h-19.4l-0.1,1.3c0,0.3-0.8,7.6,2.1,15.6C371.4,47.3,380.2,54,392.9,55.7z"/>
		</g>
		<path class="st18" d="M454.2,21.1l-0.1-1.2h-12.8c0.2-3,0.2-4.9,0.2-4.9h-32v71.9h17.6C411.5,81,413,69.7,413.6,67.5h4.7
			c1.1,0,2-0.9,2-2v-0.2c0-1.1-0.9-2-2-2h-0.9c4.7-1.7,8.5-4.4,11.5-7.8c11.5-2.1,19.5-8.6,23.3-18.7
			C455,28.7,454.3,21.4,454.2,21.1L454.2,21.1z M448.6,36c-3,8.1-8.7,13.4-17.1,15.9c6.4-9.3,8.7-21.6,9.5-29.3h9.7
			C450.8,24.9,450.7,30.3,448.6,36z"/>
		<path class="st19" d="M412.6,98.4c0,0-5.4,0-7-0.4c-1.5-0.4-1.4,0.5,0.7,0.7s4.8,0.9,6.8,0.7L412.6,98.4L412.6,98.4z M411.6,104.1
			c0-0.1-5.1-2.4-5.6-3.3c-0.4-0.9,6,3.5,6,3.5L411.6,104.1z"/>
		<path class="st20" d="M427.4,88.3h-35.9c-0.6,0-1.1-0.5-1.1-1.1s0.5-1.1,1.1-1.1h35.9c0.6,0,1.1,0.5,1.1,1.1
			C428.5,87.8,428,88.3,427.4,88.3z"/>
		<path class="st17" d="M387.9,87.5h42.7v15.1h-42.7V87.5z"/>
		<path class="st18" d="M409.5,87.5h21.2v15.1h-21.2V87.5z"/>
		<path class="st20" d="M385.6,101.1H433v3.2h-47.4V101.1z M390.8,89h37.4v10.8h-37.4V89z"/>
		<path class="st21" d="M415.8,29.6l-2.1-3.6c-0.3-0.4-0.1-1.1,0.4-1.4l1.7-1c-4.6-2-10-1.8-14.6,0.9s-7.4,7.4-7.8,12.4l1.7-1
			c0.5-0.3,1.1-0.2,1.4,0.3l2.1,3.6c0.3,0.4,0.1,1.1-0.4,1.4l-4,2.4c0.4,1,0.8,2,1.4,3c1.9,3.2,4.7,5.5,8,6.7l-0.7-1.1
			c-0.3-0.5-0.1-1.2,0.4-1.5l19.8-11.7c0.5-0.3,1.2-0.1,1.5,0.4l0.6,1.1c0.4-3.4-0.2-7-2.1-10.2c-0.6-1-1.2-1.8-2-2.6l-4,2.4
			C416.7,30.2,416.1,30,415.8,29.6L415.8,29.6z M405.9,30.6c-0.3-0.4-0.1-1.1,0.4-1.4l4.4-2.6c0.5-0.3,1.1-0.2,1.4,0.3l2.1,3.6
			c0.3,0.4,0.1,1.1-0.4,1.4l-4.4,2.6c-0.5,0.3-1.1,0.2-1.4-0.3L405.9,30.6z M398.2,35.2c-0.3-0.4-0.1-1.1,0.4-1.4l4.4-2.6
			c0.5-0.3,1.1-0.2,1.4,0.3l2.1,3.6c0.3,0.4,0.1,1.1-0.4,1.4l-4.4,2.6c-0.5,0.3-1.1,0.2-1.4-0.3L398.2,35.2z M406.9,44.4
			c0.3,0.4,0.1,1.1-0.4,1.4l-4.4,2.6c-0.5,0.3-1.1,0.2-1.4-0.3l-2.1-3.6c-0.3-0.4-0.1-1.1,0.4-1.4l4.4-2.6c0.5-0.3,1.1-0.2,1.4,0.3
			L406.9,44.4z M414.5,39.9c0.3,0.4,0.1,1.1-0.4,1.4l-4.4,2.6c-0.5,0.3-1.1,0.2-1.4-0.3l-2.1-3.6c-0.3-0.4-0.1-1.1,0.4-1.4l4.4-2.6
			c0.5-0.3,1.1-0.2,1.4,0.3L414.5,39.9z M420.2,31.7l2.1,3.6c0.3,0.4,0.1,1.1-0.4,1.4l-4.4,2.6c-0.5,0.3-1.1,0.2-1.4-0.3l-2.1-3.6
			c-0.3-0.4-0.1-1.1,0.4-1.4l4.4-2.6C419.3,31.1,419.9,31.3,420.2,31.7L420.2,31.7z M417.6,52c2.7-1.6,4.7-3.8,6-6.4l-14.5,8.6
			C412,54.3,414.9,53.6,417.6,52L417.6,52z"/>
		<path class="st22" d="M415.9,29.3l-2.1-3.6c-0.3-0.4-0.1-1.1,0.4-1.4l1.7-1c-4.6-2-10-1.8-14.6,0.9s-7.4,7.4-7.8,12.4l1.7-1
			c0.5-0.3,1.1-0.2,1.4,0.3l2.1,3.6c0.3,0.4,0.1,1.1-0.4,1.4l-4,2.4c0.4,1,0.8,2,1.4,3c1.9,3.2,4.7,5.5,8,6.7l-0.7-1.1
			c-0.3-0.5-0.1-1.2,0.4-1.5l19.8-11.7c0.5-0.3,1.2-0.1,1.5,0.4l0.6,1.1c0.4-3.4-0.2-7-2.1-10.2c-0.6-1-1.2-1.8-2-2.6l-4,2.4
			C416.8,29.9,416.2,29.7,415.9,29.3L415.9,29.3z M406,30.3c-0.3-0.4-0.1-1.1,0.4-1.4l4.4-2.6c0.5-0.3,1.1-0.2,1.4,0.3l2.1,3.6
			c0.3,0.4,0.1,1.1-0.4,1.4l-4.4,2.6c-0.5,0.3-1.1,0.2-1.4-0.3L406,30.3z M398.3,34.9c-0.3-0.4-0.1-1.1,0.4-1.4l4.4-2.6
			c0.5-0.3,1.1-0.2,1.4,0.3l2.1,3.6c0.3,0.4,0.1,1.1-0.4,1.4l-4.4,2.6c-0.5,0.3-1.1,0.2-1.4-0.3L398.3,34.9z M407,44.1
			c0.3,0.4,0.1,1.1-0.4,1.4l-4.4,2.6c-0.5,0.3-1.1,0.2-1.4-0.3l-2.1-3.6c-0.3-0.4-0.1-1.1,0.4-1.4l4.4-2.6c0.5-0.3,1.1-0.2,1.4,0.3
			L407,44.1z M414.6,39.6c0.3,0.4,0.1,1.1-0.4,1.4l-4.4,2.6c-0.5,0.3-1.1,0.2-1.4-0.3l-2.1-3.6c-0.3-0.4-0.1-1.1,0.4-1.4l4.4-2.6
			c0.5-0.3,1.1-0.2,1.4,0.3L414.6,39.6z M420.3,31.4l2.1,3.6c0.3,0.4,0.1,1.1-0.4,1.4l-4.4,2.6c-0.5,0.3-1.1,0.2-1.4-0.3l-2.1-3.6
			c-0.3-0.4-0.1-1.1,0.4-1.4l4.4-2.6C419.4,30.8,420,31,420.3,31.4z M417.7,51.7c2.7-1.6,4.7-3.8,6-6.4L409.2,54
			C412.1,54,415,53.3,417.7,51.7L417.7,51.7z"/>
		<path class="st22" d="M400.8,98.4c-0.6,0.2-1.7,0.5-2.8,0.5c-1.6,0-2.7-0.4-3.5-1.1c-0.8-0.7-1.2-1.8-1.2-3.1
			c0-2.8,2.1-4.5,4.9-4.5c1.1,0,2,0.2,2.4,0.4l-0.4,1.5c-0.5-0.2-1.1-0.4-2-0.4c-1.6,0-2.8,0.9-2.8,2.8c0,1.8,1.1,2.8,2.7,2.8
			c0.4,0,0.8,0,1-0.1v-1.8h-1.3v-1.5h3.2V98.4L400.8,98.4z M410.2,94.4c0,2.8-1.7,4.5-4.2,4.5c-2.5,0-4-1.9-4-4.3
			c0-2.6,1.6-4.5,4.2-4.5C408.7,90.1,410.2,92.1,410.2,94.4L410.2,94.4z M403.9,94.6c0,1.7,0.8,2.8,2.1,2.8c1.3,0,2.1-1.2,2.1-2.9
			c0-1.5-0.7-2.8-2.1-2.8C404.7,91.7,403.9,92.9,403.9,94.6z M411.4,90.3h1.9v6.9h3.4v1.6h-5.3V90.3z M417.9,90.4
			c0.7-0.1,1.6-0.2,2.6-0.2c1.6,0,2.7,0.3,3.5,0.9c0.9,0.7,1.4,1.7,1.4,3.2c0,1.6-0.6,2.8-1.4,3.5c-0.9,0.7-2.3,1.1-3.9,1.1
			c-1,0-1.7,0-2.2-0.1V90.4z M419.9,97.4c0.2,0,0.4,0,0.7,0c1.8,0,2.9-1,2.9-3c0-1.8-1.1-2.7-2.7-2.7c-0.4,0-0.7,0-0.9,0.1
			L419.9,97.4L419.9,97.4z"/>
	</g>
</g>
</svg>
