<?xml version="1.0" encoding="utf-8"?>
<!-- Generator: Adobe Illustrator 21.1.0, SVG Export Plug-In . SVG Version: 6.00 Build 0)  -->
<svg version="1.1" id="Layer_1" xmlns="http://www.w3.org/2000/svg" xmlns:xlink="http://www.w3.org/1999/xlink" x="0px" y="0px"
	 viewBox="0 0 470 281" style="enable-background:new 0 0 470 281;" xml:space="preserve">
<style type="text/css">
	.st0{display:none;}
	.st1{display:inline;fill:#F7B359;}
	.st2{display:inline;opacity:0.11;fill:#1A1A1A;enable-background:new    ;}
	.st3{display:inline;}
	.st4{fill:#333333;}
	.st5{fill:#0071BC;}
	.st6{fill:#39B54A;}
	.st7{fill:#8CC63F;}
	.st8{fill:#FFE3B6;}
	.st9{fill:#1A1A1A;}
	.st10{fill:#D3A67F;}
	.st11{fill:#EDC094;}
	.st12{fill:#FAD69D;}
	.st13{fill:#808080;}
	.st14{fill:#008080;}
	.st15{fill:#666666;}
	.st16{fill:#FFFFFF;}
	.st17{fill:#B3B7B5;}
	.st18{opacity:0.1;enable-background:new    ;}
	.st19{fill:#BBBAB8;}
	.st20{fill:#E7B89A;}
	.st21{fill:#E5E4E2;stroke:#A5A5A5;stroke-width:0.3419;stroke-miterlimit:10;}
	.st22{fill:#E5E4E2;}
	.st23{fill:#E5E4E2;stroke:#A5A5A5;stroke-width:0.3419;}
	.st24{opacity:0.5;}
	.st25{fill:#3E92D7;}
	.st26{fill:#34AD07;}
	.st27{opacity:0.1;}
	.st28{fill:#2AABE4;}
	.st29{fill:#0071BD;}
	.st30{fill:#2E3192;}
</style>
<g id="position_check" class="st0">
	<rect x="-4" y="-2" class="st1" width="480" height="286"/>
	<path class="st2" d="M778.2,145.4c-0.2-0.5-1.1-2.2-0.8-5.5C777.1,143.1,778,144.9,778.2,145.4z"/>
	<g class="st3">
		<g>
			<path class="st4" d="M343.5,255.2h-78.2c-2.2,0-4-1.8-4-4l0,0c0-2.2,1.8-4,4-4h78.2c2.2,0,4,1.8,4,4l0,0
				C347.6,253.4,345.7,255.2,343.5,255.2z"/>
			<g>
				<rect x="297" y="194.2" class="st4" width="14.8" height="53.8"/>
				<g>
					<ellipse class="st4" cx="270.5" cy="258.4" rx="7.4" ry="7.6"/>
					<ellipse class="st4" cx="304.4" cy="258.4" rx="7.4" ry="7.6"/>
					<ellipse class="st4" cx="338.4" cy="258.4" rx="7.4" ry="7.6"/>
				</g>
				<path class="st5" d="M342.5,194.2h-77c-3,0-5.5-2.5-5.5-5.5v-4.3c0-3,2.5-5.5,5.5-5.5h77c3,0,5.5,2.5,5.5,5.5v4.3
					C348,191.8,345.5,194.2,342.5,194.2z"/>
				<path class="st4" d="M342.5,193.3h-2.1c-3,0-5.5-2.5-5.5-5.5V145c0-3,2.5-5.5,5.5-5.5h2.1c3,0,5.5,2.5,5.5,5.5v42.8
					C348,190.9,345.5,193.3,342.5,193.3z"/>
				<path class="st5" d="M334.9,159.1v-47.6c0-3-2.5-5.5-5.5-5.5h-3.8c-3,0-5.5,2.5-5.5,5.5v47.6c0,3,2.5,5.5,5.5,5.5h3.8
					C332.5,164.6,334.9,162.2,334.9,159.1z"/>
			</g>
		</g>
		<g>
			<rect x="158.5" y="145" class="st4" width="19" height="116"/>
			<rect x="122" y="254" class="st4" width="90" height="12"/>
			<rect x="122" y="136" class="st4" width="134" height="9"/>
		</g>
		<g>
			<rect x="212" y="133" class="st4" width="40" height="2"/>
			<rect x="215" y="132" class="st4" width="4" height="2"/>
			<rect x="221" y="132" class="st4" width="4" height="2"/>
			<rect x="227" y="132" class="st4" width="4" height="2"/>
			<rect x="233" y="132" class="st4" width="4" height="2"/>
			<rect x="239" y="132" class="st4" width="4" height="2"/>
			<rect x="245" y="132" class="st4" width="4" height="2"/>
		</g>
		<rect x="147.5" y="132.4" class="st4" width="47.5" height="2.6"/>
		<path class="st4" d="M181.7,96.8h-14.8c2.8,4,4.4,9,4.4,14.5c0,9.2-4.7,17.2-11.5,21.1H181c-2-5-3.1-10.8-3.1-17
			C177.9,108.4,179.3,102,181.7,96.8z"/>
		<path class="st4" d="M180.6,69h-0.1c-2,5.4-3,11.9-2.5,18.8c0.4,6.2,2,12,4.3,16.8l0.8-0.1L180.6,69z"/>
		<ellipse class="st4" cx="174.6" cy="94.1" rx="8.6" ry="9.2"/>
		<g>
			<g>
				<g>
					<path class="st6" d="M222,254.9c2.2,0,3.4-0.4,5.1-1.7c0.9-0.7,1.9-1.4,2.9-2c2.8-1.6,6-2.7,7.6-5.5c0,0,0.1,0,0.1-0.1
						c0.8-0.8,1.9-0.8,2.8-0.3c0.1,0.1,0.2,0.1,0.3,0c0.2,0.5,0.5,1,0.8,1.5c0.7,1.2,1.9,1.7,3.2,1.9c1.4,0.2,3.3,0.4,4.5-0.4
						c0.5-0.4,0.8-0.9,1-1.5s0.5-1.1,0.9-1.5c0.1,0,0.2,0.1,0.3,0.2c1.9,3,1,7,2.5,10.3c0.4,0.3,0.4,1-0.2,1.5
						c-2,1.7-3.8,1.7-6.3,1.9c-3.3,0.3-6.6,0.1-9.8,0.5c-5.4,0.7-11.8,3.2-17,0.5C217.1,258.6,218,254.8,222,254.9z"/>
					<path class="st7" d="M221.8,254.9c-0.4,0.6,0.1,1.4,0.9,1.6c0.5,0.1,1.1,0.1,1.6,0.1c1.2,0.1,2.4-0.1,3.5-0.5
						c2.4-0.9,4.5-3,6.6-4.4c0.9-0.6,1.9-1,2.9-1.5c0.5-0.2,1-0.5,1.4-1c0.3-0.3,1.2-1.1,1.2-1.5c-0.1-0.7,1.1-1.5,1.6-0.9
						c-0.3-0.6-0.4-0.8-0.5-1c-0.2-0.4-0.3-0.7-0.5-1.1c-0.2-0.3-0.4-0.7-0.7-1c-0.6-0.6-1.7-0.5-1.9,0.4c0,0.2,0,0.5,0,0.8
						c-1.5,3.3-5,4.4-7.9,6.1c-1,0.6-2,1.3-2.9,2c-1.7,1.3-3,1.7-5.1,1.7C221.9,254.9,221.9,254.9,221.8,254.9z"/>
					<path class="st4" d="M254,255.9L254,255.9c-1.1,0.7-2.6,1-3.8,1.3c-2.5,0.5-5,0.7-7.5,0.8c-3,0.1-5.8,0.7-8.7,1.3
						c-5.3,1-10.7,0.7-15.6-1.9c0,1.1,0.7,2.2,2.3,3c5.2,2.7,11.6,0.2,17-0.5c3.2-0.4,6.5-0.2,9.8-0.5c2.5-0.3,4.3-0.3,6.3-1.9
						C254.4,257,254.4,256.2,254,255.9z"/>
				</g>
				<g>
					<path class="st8" d="M278.2,50.2c0.1-1,1.5-1.8,2-2.6c1-1.7,1.6-4.3,1.7-6.3c0-0.2,0.1-0.3,0.3-0.4c0-0.2,0.1-0.5,0.1-0.7
						c0.8-4.1,3.1-8.7,6.9-10.9c1.9-1.1,4.2-1.4,6.4-1.1c2.8,0.4,5.5,1.9,7.1,4.2c2,2.8,3.8,6.9,3.8,10.4c0.5-0.1,0.9,0,1.4,0.1
						c1.5,0.5,2,2.2,2.2,3.6c0.2,1.8-0.5,3.3-1.7,4.2c0.3,1.1,1,2,1.8,2.8s3.4,2.4,3.5,2.6c0.3,0.2-2.6,4.9,1.9,15.9
						c-12.5,2.9-16.9,6.2-16.9,6.2c1.3-4.3,1.7-10.4-2.9-12.6l0,0c-3.3,1.2-6.7,1.1-9.2-0.4c-1.9-1.1-3.3-3-3.8-5.7
						c-0.5-2.3-0.9-4.8-1-7.2C280,52.4,278,51.8,278.2,50.2z"/>
					<path class="st8" d="M305.3,75.2c-0.3-2.3-0.6-4.7-1.3-6.9c-0.5-1.5-1.1-3-2.3-4.1c-1.3-1.1-2.6-0.9-4-0.5c2-1.8,3.1-4.1,4-6.9
						c0.7-2,2-5.6,0-7.3c-2.1-1.8-6-1.6-8.5-1.8c-4-0.4-8.2-1.3-11.9-2.8c0.3-1.2,0.5-2.5,0.6-3.6c0-0.2,0.1-0.3,0.3-0.4
						c0-0.2,0.1-0.5,0.1-0.7c0.8-4.1,3.1-8.7,6.9-10.9c1.9-1.1,4.2-1.4,6.4-1.1c2.8,0.4,5.5,1.9,7.1,4.2c2,2.8,3.8,6.9,3.8,10.4
						c0.5-0.1,0.9,0,1.4,0.1c1.5,0.5,2,2.2,2.2,3.6c0.2,1.8-0.5,3.3-1.7,4.2c0.3,1.1,1,2,1.8,2.8s3.4,2.4,3.5,2.6
						c0.3,0.2-2.6,4.9,1.9,15.9C311.2,73.2,307.8,74.3,305.3,75.2z"/>
				</g>
				<path class="st9" d="M286.4,22.7c8.9-11.3,27.8-9.8,34.6,1.9c0.6,1,1.1,2.1,1.5,3.2c0.1,0.2,0.1,0.3,0.2,0.5
					c8.5-3.5,15.9,4.2,17.8,12.3c1.1,4.9,0.8,9.2-1.7,13.6c-1.5,2.6-3.1,5.1-3.9,8c-0.9,3.1-1.5,5.7-1.3,10c0,0-1.3-1.8-1.4-2.1
					c-0.4,3.4,0.6,5.2,0.8,5.7c0,0-7.2-6.2-8-17.2c-0.2-3.3,0.3-6.7,0.2-10c0-2-0.3-5.3-1.6-7.6c0.9,2.4,1.4,5,0.9,7.6
					c-0.7,3.8-3.5,6.6-7.3,7.3c-3.9,0.7-7-1.1-9.5-4c-0.9-1.1-1.4-1.8-0.4-3.1c1.2-1.8,2.7-4,0.4-5.8c-1.6-1.3-3.3,0.3-3.6,2
					c-0.1,0.6,0,1.3,0.1,1.9c0,0.5-0.6,0.6-0.8,0.2c-1-1.5-0.7-3-0.3-4.7c0.2-1,0.3-1,0.4-2c-0.5,0.3-23.8,0.3-23.9-1
					C279.5,37.1,277.1,26.7,286.4,22.7z"/>
				<path d="M321.9,28.5c0-1.3,0.6-2.2,1.5-1.9c0.1,0,0.3,0.3,0.4,0.4c0.3,0.2,0.5,0,0.7,0.4c0.2,0.5-0.4,1-0.5,1.5
					c-1.6,6.6,0.5,13.2,0.1,13.3C323.6,42.3,321.9,37.3,321.9,28.5z"/>
				<path class="st10" d="M249.3,249.4h-8.8c-11-25.1-22.2-57.9-23.1-79.2c-0.1-3.1,1.5-6,4.3-7.4c0,0,0,0,0.1,0
					c4.4-2.1,9.9-2.7,14.6-3.8c17.3-4.1,35.3-7.9,53.2-8.8c5.4-0.3,10.7-0.1,16,0.1c2.2,0.1,8.6,1.4,9,2.1c3,7,6.8,16.8,3.6,24.4
					c-3.6,8.5-13.8,8.5-21.6,8.5c-19.6,0-39.2-1.6-58.7-3.5C243.4,203.4,247.5,227.2,249.3,249.4z"/>
				<path class="st11" d="M251.3,251.2h-8.8c-11-25.1-22.2-57.9-23.1-79.2c-0.1-3.1,1.5-6,4.3-7.4c0,0,0,0,0.1,0
					c4.4-2.1,9.9-2.7,14.6-3.8c17.3-4.1,35.3-7.9,53.2-8.8c5.4-0.3,10.7-0.1,16,0.1c2.2,0.1,8.6,1.4,9,2.1c3,7,6.8,16.8,3.6,24.4
					c-3.6,8.5-13.8,8.5-21.6,8.5c-19.6,0-39.2-1.6-58.7-3.5C245.4,205.2,249.5,229,251.3,251.2z"/>
				<path class="st7" d="M242,248.9h0.1c0.2,0.4,0.3,0.7,0.5,1.1c0.7,1.2,1.9,1.7,3.2,1.9c1.4,0.2,3.3,0.4,4.5-0.4
					c0.5-0.4,0.8-0.9,1-1.5s0.5-1.1,0.9-1.5c0.1,0,0.2,0.1,0.3,0.2c0.3,0.5,0.5,1,0.7,1.5c-0.4,0.7-0.9,1.3-1.5,1.8
					c-1.3,1.1-3.2,1.2-4.9,1.2s-3.5-0.5-4.8-1.6c-0.7-0.5-1.2-1.2-1.7-1.8c-0.2-0.2-0.5-0.4-0.7-0.7
					C240.3,248.7,241.1,248.8,242,248.9z"/>
				<g>
					<path class="st6" d="M223,258c2.2,0,3.4-0.4,5.1-1.7c0.9-0.7,1.9-1.4,2.9-2c2.8-1.6,6-2.7,7.6-5.5c0,0,0.1,0,0.1-0.1
						c0.8-0.8,1.9-0.8,2.8-0.3c0.1,0.1,0.2,0.1,0.3,0c0.2,0.5,0.5,1,0.8,1.5c0.7,1.2,1.9,1.7,3.2,1.9c1.4,0.2,3.3,0.4,4.5-0.4
						c0.5-0.4,0.8-0.9,1-1.5s0.5-1.1,0.9-1.5c0.1,0,0.2,0.1,0.3,0.2c1.9,3,1,7,2.5,10.3c0.4,0.3,0.4,1-0.2,1.5
						c-2,1.7-3.8,1.7-6.3,1.9c-3.3,0.3-6.6,0.1-9.8,0.5c-5.4,0.7-11.8,3.2-17,0.5C218.1,261.7,219,257.9,223,258z"/>
					<path class="st7" d="M222.9,258c-0.4,0.6,0.1,1.4,0.9,1.6c0.5,0.1,1.1,0.1,1.6,0.1c1.2,0.1,2.4-0.1,3.5-0.5
						c2.4-0.9,4.5-3,6.6-4.4c0.9-0.6,1.9-1,2.9-1.5c0.5-0.2,1-0.5,1.4-1c0.3-0.3,1.2-1.1,1.2-1.5c-0.1-0.7,1.1-1.5,1.6-0.9
						c-0.3-0.6-0.4-0.8-0.5-1c-0.2-0.4-0.3-0.7-0.5-1.1c-0.2-0.3-0.4-0.7-0.7-1c-0.6-0.6-1.7-0.5-1.9,0.4c0,0.2,0,0.5,0,0.8
						c-1.5,3.3-5,4.4-7.9,6.1c-1,0.6-2,1.3-2.9,2c-1.7,1.3-3,1.7-5.1,1.7C223,258,222.9,258,222.9,258z"/>
					<path class="st4" d="M255,259L255,259c-1.1,0.7-2.6,1-3.8,1.3c-2.5,0.5-5,0.7-7.5,0.8c-3,0.1-5.8,0.7-8.7,1.3
						c-5.3,1-10.7,0.7-15.6-1.9c0,1.1,0.7,2.2,2.3,3c5.2,2.7,11.6,0.2,17-0.5c3.2-0.4,6.5-0.2,9.8-0.5c2.5-0.3,4.3-0.3,6.3-1.9
						C255.4,260.1,255.4,259.3,255,259z"/>
				</g>
				<path class="st7" d="M223.6,262.8c1.5,0.5,3,0.7,4.6,0.8c5.3,0.3,10.5-1.6,15.7-1.8c2.4-0.1,4.8,0.1,7.1-0.5c1-0.3,2-0.7,3-1.1
					c0.4-0.2,0.9-0.4,1.3-0.6c0-0.2-0.1-0.4-0.2-0.5c0,0,0,0,0-0.1c-1.1,0.8-2.6,1.1-3.8,1.3c-2.5,0.5-5,0.7-7.5,0.8
					c-3,0.1-5.8,0.7-8.7,1.3c-5.3,1-10.7,0.7-15.6-1.9c0,0.3,0,0.5,0.1,0.8C220.9,261.7,222.2,262.3,223.6,262.8z"/>
				<path class="st7" d="M251.1,250.5c0,0.8,0.4,1.5,0.9,2.1c0.6,0.6,1.3,1.1,1.9,1.6c-0.2-1.9-0.4-3.8-1.5-5.4
					c-0.1-0.1-0.2-0.2-0.3-0.2c-0.4,0.4-0.7,0.8-0.9,1.5C251.3,250.2,251.2,250.4,251.1,250.5z"/>
				<g>
					<path class="st12" d="M252.9,125.6c15.3-1.9,34.4,0,41.6,2.1c-0.8-9.5,0.8-21.9,2.1-29.7c4.7,0.1,9.4,0.9,13.5,2.8
						c-1.7,10.2-5.2,26-11.3,35.6c-0.2,0.3-26.4-3-46-7L252.9,125.6z"/>
					<path class="st12" d="M235.2,131.2c1.8-1.2,3-2.7,3.4-3.1c1.6-1.6,3.4-3.5,5.7-4c2.9-0.6,6.3,0.5,9,1.5
						c0.4,0.2,1.2,3.8,0.9,3.9c-2.5,0.8-4.9,0.8-7.4,0.2c-1.9-0.5-3.9-0.4-5.8,0.3c-0.9,0.3-1.8,0.8-2.6,1.3
						c-0.3,0.2-0.8,0.6-1.2,0.8c-0.6,0.3-1.2,0.5-1.7,0.2C235,132,234.8,131.5,235.2,131.2z"/>
				</g>
				<path class="st6" d="M280.6,101.3c-0.2-2.9,5-6.6,8.3-10.3c2.5-2.7,4-7,5.7-10.3c1.3-2.4,2.2-5.1,3.9-7.3c2-2.6,5.2-4.3,8.5-4.5
					c7.8-0.3,12.4,6.8,13.1,13.8c0.7,7.2-1.4,14.3-2.2,21.3c0,0.1,0,0.1,0,0.2c-3,13.6-4.7,28.2-2.6,42.2c0.2,0.6,0.5,1.1,0.9,1.6
					c0.4,0.4,1.1,0.8,1.3,1.3c0.2,0.6,0,1-0.4,1.3c0.3,0.8,0.7,1.4,1.3,2c0.3,0.3,0.7,0.7,0.9,1.1c0.3,0.6,0.4,1.5-0.2,2
					c-0.8,0.7-2.2,0.5-3.2,0.4c-1.5-0.2-3-0.6-4.5-1.1l0,0c-2.6-0.7-5.3-1.7-5.7-1.7c-5.9-1.2-12-1.7-18-1.3h-0.1
					c-3.4,0.2-4.4-0.6-4.4-1.4l3.9-37.2C282.7,108.8,280.9,106.3,280.6,101.3z"/>
				<path class="st13" d="M319.2,152.8c-0.4-0.7-6.9-2.4-9.1-2.6c-5.5-0.4-10.9-0.8-16.3-0.7c-18.3,0.4-36.9,4-54.6,8
					c-4.5,1-9.8,1.6-14.2,3.4l24.3,23.5c16.7,2.3,33.5,4.1,50.3,4.7c7.9,0.3,18.4,0.5,22.4-8.8C325.4,171.9,322,160.7,319.2,152.8z"
					/>
				<path class="st8" d="M295.8,125.8c-7.2-2.1-26.2-4-41.4-2.1c0.1,0,0.2,0.1,0.3,0.1c0.4,0.2,1.2,3.8,0.9,3.9
					c-0.1,0-0.3,0.1-0.4,0.1c19.4,3.9,44.8,7,44.9,6.8c2.5-3.9,4.6-8.9,6.3-14.1l-10.8-1.5C295.6,121.3,295.7,123.6,295.8,125.8z"/>
				<path class="st8" d="M254.3,123.7c0.1,0,0.1,0,0.2,0c-2.6-1-5.9-2-8.7-1.4c-2.3,0.5-4.1,2.3-5.7,4c-0.5,0.5-1.6,2-3.4,3.1
					c-0.4,0.3-0.2,0.8,0.2,1c0.6,0.3,1.2,0.1,1.7-0.2c0.4-0.2,0.9-0.6,1.2-0.8c0.8-0.5,1.7-0.9,2.6-1.3c1.9-0.7,3.9-0.8,5.8-0.3
					c2.4,0.6,4.7,0.7,7-0.1c-0.3-0.1-0.7-0.1-1-0.2L254.3,123.7z"/>
				<path class="st8" d="M254.7,123.8c-0.1,0-0.2-0.1-0.3-0.1s-0.1,0-0.2,0l-0.1,3.9c0.3,0.1,0.7,0.1,1,0.2c0.1,0,0.3-0.1,0.4-0.1
					C256,127.5,255.2,123.9,254.7,123.8z"/>
				<path class="st14" d="M311.2,100.6c0,0.2-0.1,0.4-0.1,0.6C311.1,101,311.2,100.8,311.2,100.6z"/>
				<path class="st14" d="M297.7,97.9c0.1-0.6,0.2-1.3,0.3-1.8C297.9,96.7,297.8,97.3,297.7,97.9z"/>
				<path class="st14" d="M310.5,104.6c-0.1,0.5-0.2,0.9-0.3,1.4C310.3,105.5,310.4,105.1,310.5,104.6z"/>
				<path class="st14" d="M297.7,98L297.7,98L297.7,98z"/>
				<path class="st14" d="M310.6,104.1c0,0.1-0.1,0.3-0.1,0.4C310.5,104.4,310.5,104.3,310.6,104.1z"/>
				<path class="st14" d="M311.1,101.2c-0.1,0.4-0.1,0.7-0.2,1.1C311,102,311,101.6,311.1,101.2z"/>
				<path class="st7" d="M304,75.8c1.8-3.1,4.5-5.3,7.4-6c-1.7-1.2-3.7-1.9-6-1.8c-3.5,0.2-6.9,2.6-9.1,6.3
					c-1.8,3.1-2.8,6.9-4.2,10.3c-0.5,1.4-1.1,2.9-1.6,4.4l8.2,0.1c0.4-1,0.7-2,1.1-2.9C301.2,82.7,302.2,78.9,304,75.8z"/>
				<path class="st9" d="M340.6,52c-1.7-7.5-8.3-14.7-16-12.9v6c2.6,0.8,5,2.8,6.5,5c2.6,3.8,1.6,8.1,0.1,12.1
					c-1.3,3.6-2.4,7-2.2,10.9c0.1,1.6,0.2,3.3,0.9,4.8c0.5,1.3,1.8,2.4,2.4,3.7l0,0l0,0c0.1,0.2,1.4,2.1,1.4,2.1
					c-0.2-4.3,0.4-7,1.3-10c0.8-3,2.4-5.4,3.9-8C341.4,61.2,341.7,56.8,340.6,52z"/>
				<path class="st9" d="M329.8,77.9c-0.6-1.5-0.8-3.2-0.9-4.8c-0.2-3.9,1-7.3,2.2-10.9c1.4-4,2.4-8.3-0.1-12.1
					c-1.5-2.2-3.9-4.2-6.5-5v9.6c0.5,1.9,0.7,4,0.7,5.4c0.1,3.3-0.5,6.7-0.2,10c0.7,11,8,17.2,8,17.2c-0.2-0.5-1.2-2.3-0.8-5.7l0,0
					C331.6,80.3,330.3,79.2,329.8,77.9z"/>
				<path class="st9" d="M329.8,77.9c-0.6-1.5-0.8-3.2-0.9-4.8c-0.2-3.9,1-7.3,2.2-10.9c1.4-4,2.4-8.3-0.1-12.1
					c-1.5-2.2-3.9-4.2-6.5-5v9.6c0.5,1.9,0.7,4,0.7,5.4c0.1,3.3-0.5,6.7-0.2,10c0.7,11,8,17.2,8,17.2c-0.2-0.5-1.2-2.3-0.8-5.7l0,0
					C331.6,80.3,330.3,79.2,329.8,77.9z"/>
			</g>
			
				<ellipse transform="matrix(0.1153 -0.9933 0.9933 0.1153 224.4982 343.2345)" class="st8" cx="304.9" cy="45.6" rx="5.5" ry="4.1"/>
		</g>
		
			<rect x="180.2" y="27.1" transform="matrix(0.9983 -5.907065e-02 5.907065e-02 0.9983 -4.1885 10.9171)" class="st15" width="4.7" height="98.4"/>
	</g>
</g>
<rect y="-2.5" class="st16" width="470" height="283.5"/>
<g>
	<path class="st16" d="M404.5,34.4c-1.5,0.1-1.7,0.2-1.8,1.8c-0.1-1.5-0.4-1.6-1.8-1.8c1.5-0.1,1.7-0.2,1.8-1.8
		C402.8,34,402.9,34.3,404.5,34.4z"/>
	<path class="st17" d="M426.3,54.2l12.3-9.1l-14.1,55.1l-0.2-44.5L426.3,54.2z M420.8,53.9l-12.3-9.1l14.1,55.1l0.2-44.5L420.8,53.9
		z"/>
	<path class="st18" d="M441.3,35.2l-14.1,55.1l-0.1-15.5l9.2-35.9L441.3,35.2z M408,42.5l14.1,55.1l0.1-15.5L413,46.2L408,42.5z"/>
	<path class="st19" d="M429.2,74.1l8,11.2h-27.1l9.1-11.3L429.2,74.1z"/>
	<path class="st20" d="M427.5,101c0,0-5.5,0-7-0.4c-1.6-0.4-1.4,0.5,0.6,0.7c2.1,0.2,4.9,0.9,6.9,0.7L427.5,101L427.5,101z"/>
	<path class="st21" d="M441.9,86.3h-36.2c-0.6,0-1.1-0.5-1.1-1.1c0-0.6,0.5-1.1,1.1-1.1h36.2c0.6,0,1.1,0.5,1.1,1.1
		C442.9,85.8,442.5,86.3,441.9,86.3z"/>
	<path class="st19" d="M402.1,85.5h43.1v15.2h-43.1V85.5z"/>
	<path class="st18" d="M402.1,85.5h43v15.2h-43V85.5z"/>
	<g>
		<path class="st21" d="M399.7,99.3h47.8v3.2h-47.8V99.3z"/>
		<path class="st22" d="M404.9,87.1h37.6V98h-37.6V87.1z"/>
		<circle class="st23" cx="423.3" cy="75.9" r="8.4"/>
	</g>
	<g class="st24">
		<g>
			<path id="B" class="st25" d="M426.3,72.2l-1-1.6c-0.1-0.2,0-0.5,0.2-0.6l0.8-0.4c-2.1-0.9-4.5-0.8-6.5,0.4
				c-2.1,1.2-3.3,3.3-3.5,5.5l0.8-0.4c0.2-0.1,0.5-0.1,0.6,0.1l1,1.6c0.1,0.2,0,0.5-0.2,0.6l-1.8,1.1c0.2,0.4,0.4,0.9,0.6,1.3
				c0.9,1.4,2.1,2.5,3.6,3l-0.3-0.5c-0.1-0.2-0.1-0.5,0.2-0.6l8.8-5.2c0.2-0.1,0.5-0.1,0.6,0.2l0.3,0.5c0.2-1.5-0.1-3.1-0.9-4.5
				c-0.2-0.4-0.5-0.8-0.9-1.2l-1.8,1.1C426.7,72.4,426.5,72.4,426.3,72.2L426.3,72.2z M421.9,72.6c-0.1-0.2,0-0.5,0.2-0.6l2-1.2
				c0.2-0.1,0.5-0.1,0.6,0.1l1,1.6c0.1,0.2,0,0.5-0.2,0.6l-2,1.2c-0.2,0.1-0.5,0.1-0.6-0.1L421.9,72.6z M418.5,74.6
				c-0.1-0.2,0-0.5,0.2-0.6l2-1.2c0.2-0.1,0.5-0.1,0.6,0.1l1,1.6c0.1,0.2,0,0.5-0.2,0.6l-2,1.2c-0.2,0.1-0.5,0.1-0.6-0.1L418.5,74.6
				z M422.4,78.8c0.1,0.2,0,0.5-0.2,0.6l-2,1.2c-0.2,0.1-0.5,0.1-0.6-0.1l-1-1.6c-0.1-0.2,0-0.5,0.2-0.6l2-1.2
				c0.2-0.1,0.5-0.1,0.6,0.1L422.4,78.8z M425.7,76.7c0.1,0.2,0,0.5-0.2,0.6l-2,1.2c-0.2,0.1-0.5,0.1-0.6-0.1l-1-1.6
				c-0.1-0.2,0-0.5,0.2-0.6l2-1.2c0.2-0.1,0.5-0.1,0.6,0.1L425.7,76.7z M428.3,73.1l1,1.6c0.1,0.2,0,0.5-0.2,0.6l-2,1.2
				c-0.2,0.1-0.5,0.1-0.6-0.1l-1-1.6c-0.1-0.2,0-0.5,0.2-0.6l2-1.2C427.9,72.8,428.2,72.9,428.3,73.1z"/>
		</g>
		<path class="st25" d="M427.1,82.1c1.2-0.7,2.1-1.7,2.7-2.8l-6.5,3.8C424.6,83.2,425.9,82.8,427.1,82.1z"/>
	</g>
	<g>
		<g>
			<path id="B_1_" class="st26" d="M426.2,71.8l-1-1.6c-0.1-0.2,0-0.5,0.2-0.6l0.8-0.4c-2.1-0.9-4.5-0.8-6.5,0.4
				c-2.1,1.2-3.3,3.3-3.5,5.5l0.8-0.4c0.2-0.1,0.5-0.1,0.6,0.1l1,1.6c0.1,0.2,0,0.5-0.2,0.6l-1.8,1.1c0.2,0.4,0.4,0.9,0.6,1.3
				c0.9,1.4,2.1,2.5,3.6,3l-0.3-0.5c-0.1-0.2-0.1-0.5,0.2-0.6l8.8-5.2c0.2-0.1,0.5-0.1,0.6,0.2l0.3,0.5c0.2-1.5-0.1-3.1-0.9-4.5
				c-0.2-0.4-0.5-0.8-0.9-1.2l-1.8,1.1C426.6,72.1,426.3,72,426.2,71.8L426.2,71.8z M421.8,72.3c-0.1-0.2,0-0.5,0.2-0.6l2-1.2
				c0.2-0.1,0.5-0.1,0.6,0.1l1,1.6c0.1,0.2,0,0.5-0.2,0.6l-2,1.2c-0.2,0.1-0.5,0.1-0.6-0.1L421.8,72.3z M418.3,74.3
				c-0.1-0.2,0-0.5,0.2-0.6l2-1.2c0.2-0.1,0.5-0.1,0.6,0.1l1,1.6c0.1,0.2,0,0.5-0.2,0.6l-2,1.2c-0.2,0.1-0.5,0.1-0.6-0.1L418.3,74.3
				z M422.2,78.4c0.1,0.2,0,0.5-0.2,0.6l-2,1.2c-0.2,0.1-0.5,0.1-0.6-0.1l-1-1.6c-0.1-0.2,0-0.5,0.2-0.6l2-1.2
				c0.2-0.1,0.5-0.1,0.6,0.1L422.2,78.4z M425.6,76.4c0.1,0.2,0,0.5-0.2,0.6l-2,1.2c-0.2,0.1-0.5,0.1-0.6-0.1l-1-1.6
				c-0.1-0.2,0-0.5,0.2-0.6l2-1.2c0.2-0.1,0.5-0.1,0.6,0.1L425.6,76.4z M428.1,72.8l1,1.6c0.1,0.2,0,0.5-0.2,0.6l-2,1.2
				c-0.2,0.1-0.5,0.1-0.6-0.1l-1-1.6c-0.1-0.2,0-0.5,0.2-0.6l2-1.2C427.7,72.5,428,72.6,428.1,72.8z"/>
		</g>
		<path class="st26" d="M426.9,81.8c1.2-0.7,2.1-1.7,2.7-2.8l-6.5,3.8C424.5,82.8,425.8,82.5,426.9,81.8z"/>
	</g>
	<path class="st25" d="M406.5,89.9c0.4-0.1,1-0.1,1.6-0.1c1,0,1.6,0.2,2.1,0.5c0.5,0.4,0.9,1.1,0.9,1.9c0,1-0.4,1.7-0.9,2.1
		c-0.5,0.4-1.4,0.7-2.4,0.7c-0.6,0-1.1,0-1.3-0.1C406.6,95.1,406.5,89.9,406.5,89.9z M407.7,94.2c0.1,0,0.3,0,0.4,0
		c1.1,0,1.8-0.6,1.8-1.8c0-1.1-0.6-1.6-1.6-1.6c-0.3,0-0.4,0-0.5,0C407.7,90.8,407.7,94.2,407.7,94.2z M413.1,89.9v5.2h-1.2v-5.2
		H413.1L413.1,89.9z M415.3,93.7l-0.4,1.3h-1.2l1.6-5.2h1.5l1.6,5.2h-1.3l-0.4-1.3H415.3z M416.6,92.9l-0.3-1.1
		c-0.1-0.3-0.2-0.7-0.3-1l-0.2,1l-0.3,1.1H416.6z M423.6,93.1l0-2.2h0l-0.6,2l-0.6,2h-0.9l-0.5-2l-0.5-2l-0.1,2.2l-0.1,2H419
		l0.3-5.2h1.6l0.5,1.7l0.4,1.8h0l0.5-1.9l0.5-1.7h1.5l0.3,5.2h-1.2L423.6,93.1L423.6,93.1z M430.5,92.4c0,1.7-1,2.7-2.6,2.7
		s-2.5-1.2-2.5-2.7c0-1.6,1-2.7,2.5-2.7C429.6,89.8,430.5,91,430.5,92.4z M426.7,92.5c0,1,0.5,1.7,1.3,1.7s1.3-0.8,1.3-1.8
		c0-0.9-0.4-1.7-1.3-1.7C427.2,90.7,426.7,91.5,426.7,92.5z M431.3,95.1v-5.2h1.4l1.1,1.9c0.3,0.5,0.6,1.2,0.9,1.8h0
		c-0.1-0.7-0.1-1.4-0.1-2.2v-1.5h1.1v5.2h-1.2l-1.1-2c-0.3-0.5-0.6-1.2-0.9-1.8h0l0,2.3V95L431.3,95.1L431.3,95.1z M436.6,89.9
		c0.4-0.1,1-0.1,1.6-0.1c1,0,1.6,0.2,2.1,0.5c0.5,0.4,0.9,1.1,0.9,1.9c0,1-0.4,1.7-0.9,2.1c-0.5,0.4-1.4,0.7-2.4,0.7
		c-0.6,0-1.1,0-1.3-0.1L436.6,89.9L436.6,89.9z M437.8,94.2c0.1,0,0.3,0,0.4,0c1.1,0,1.8-0.6,1.8-1.8c0-1.1-0.6-1.6-1.6-1.6
		c-0.3,0-0.4,0-0.5,0V94.2L437.8,94.2z"/>
	<g class="st27">
		<path d="M423.7,62.2L452,34.1l-0.1-0.1h-28.2V62.2z"/>
		<path d="M393.7,34l30,28.3V34H393.7z M423.7,16.4V34h28.2l-16.3-17.5H423.7z"/>
		<path d="M423.7,16.4h-13.4L393.7,34h30V16.4z"/>
		<path d="M410.3,16.4V34l13.4-17.5L410.3,16.4z M435.7,16.4V34l-12-17.5H435.7z"/>
		<path d="M435.5,16.4l0.2,17.5h16.1L435.5,16.4z M423.7,34v28.3l12-28.3H423.7z M423.6,34v28.3L410.3,34H423.6z"/>
	</g>
	<g>
		<path class="st28" d="M423.7,61.5L452,33.3l-0.1-0.1h-28.2V61.5z"/>
		<path class="st28" d="M393.7,33.2l30,28.3V33.2H393.7z M423.7,15.7v17.5h28.2l-16.3-17.5H423.7z"/>
	</g>
	<path class="st29" d="M423.7,15.7h-13.4l-16.7,17.5h30V15.7z"/>
	<path class="st30" d="M410.3,15.7v17.5l13.4-17.5H410.3z M435.7,15.7v17.5l-12-17.5H435.7z"/>
	<path class="st29" d="M435.5,15.7l0.2,17.5h16.1L435.5,15.7z M423.7,33.2v28.3l12-28.3H423.7z"/>
	<path class="st30" d="M423.6,33.2v28.3l-13.3-28.3H423.6z"/>
	<path class="st16" d="M414.3,18.4c-1.6,0.1-1.9,0.3-2.1,2c-0.1-1.6-0.4-1.7-2.1-2c1.6-0.1,1.9-0.3,2.1-2
		C412.3,18,412.5,18.2,414.3,18.4z M443.7,26.4c-1.9,0.2-2.2,0.3-2.4,2.3c-0.2-1.9-0.5-2-2.4-2.3c1.9-0.2,2.2-0.3,2.4-2.3
		C441.5,25.9,441.7,26.2,443.7,26.4z M399.9,32c-1.1,0.1-1.3,0.2-1.4,1.4c-0.1-1.1-0.3-1.2-1.4-1.4c1.1-0.1,1.3-0.2,1.4-1.4
		C398.6,31.8,398.7,32,399.9,32z M437.1,44.2c-1.1,0.1-1.3,0.2-1.4,1.4c-0.1-1.1-0.3-1.2-1.4-1.4c1.1-0.1,1.3-0.2,1.4-1.4
		C435.9,43.9,436,44.1,437.1,44.2z M416.9,40.8c-1,0.1-1.2,0.2-1.3,1.3c-0.1-1-0.3-1.1-1.3-1.3c1-0.1,1.2-0.2,1.3-1.3
		C415.7,40.5,415.8,40.7,416.9,40.8z"/>
</g>
</svg>
