<?xml version="1.0" encoding="utf-8"?>
<!-- Generator: Adobe Illustrator 21.1.0, SVG Export Plug-In . SVG Version: 6.00 Build 0)  -->
<svg version="1.1" id="Layer_1" xmlns="http://www.w3.org/2000/svg" xmlns:xlink="http://www.w3.org/1999/xlink" x="0px" y="0px"
	 viewBox="0 0 150 150" style="enable-background:new 0 0 150 150;" xml:space="preserve">
<style type="text/css">
	.st0{fill:#FFFFFF;}
</style>
<g>
	<path class="st0" d="M136.1,100.4c-1.3,1.4-2.2,4.4-4.8,3.1c-8.4-4.2-16.3-9-23-16c2.8-2.1,5.2-3.9,7.5-5.8
		c10-8.2,18.6-17.6,23.8-29.6c7.5-17.5-1.9-26-16.8-30c-1.5-0.4-2.7-0.1-3.7,1.1c-2.3,2.8-4.6,5.5-7.5,8.9c1.7,0.1,2.5,0.1,3.3,0.1
		c12.4,0.3,15.8,6,10.4,17.4c-4.8,10.1-12.6,17.5-21.1,24.4c-2.1,1.7-3.1,1.3-3.2-1.4c-0.2-3.7-0.2-7.3,0.5-11
		c1.7-8.2,6-15.2,10.6-22.2c-3.7-0.9-5.9,0.4-7.9,3.1c-13.1,18.1-29.7,29-53.2,25.2c-1.7-0.3-2.7,0.2-2.9,2.2
		c6.8,1.6,13.6,2.9,19.9,6c4.5,2.2,7.6,5.5,8.5,10.6c0.4,2.3,0,3.9-2.5,4.9c-11.3,4.5-22.9,7.5-34.9,9.2c-3.3,0.5-4.7-0.8-5.3-3.9
		c-1.4-7.1-1.5-14.2,0.3-21.3c7.1-26.9,24.3-45.1,48.7-57.2c1.5-0.7,3.8-0.8,4.3-3.5c-5.7-0.9-11.3-1.4-16.7-2.6
		c-3.2-0.7-5.7-0.1-8.4,1.6c-15.1,9.7-28,21.6-36.8,37.3c-5,8.9-8.8,18.5-16,26.1c-0.6,0.6-1,1.5-1.4,2.2
		c-5.8,10.7-2.7,20.9,8.1,26.5c2.1,1.1,3.6,2.3,4.8,4.5c7.9,15.2,20.6,24.4,37.2,26.9c37,5.5,63.4-13.3,87.1-39
		C139.4,96.6,139.5,96.7,136.1,100.4z M15.1,79.4c-0.3,7.3,0,13.4,1.4,19.7C8.4,95.2,7.7,88.2,15.1,79.4z M40.1,110.5
		c12-0.4,23.2-2.9,34.6-6.5c-0.8,5.9-3.2,10.7-5,15.8c-0.4,1.3-2.5,3-0.4,4c1.9,0.9,3.9,0.5,5.3-1.9c2.9-5,5.8-10,9.1-14.7
		c8.4-11.9,10.9-12.6,25-8.9c7.2,1.9,14.1,4.8,20.6,8.7C103,134.8,60.3,138.9,40.1,110.5z"/>
	<path class="st0" d="M75.8,40c-5.3-0.1-10,4.6-10,10c0.1,5.3,4.4,9.6,9.6,9.7c5.5,0.1,9.9-4.3,9.9-9.9C85.3,44.5,81,40.1,75.8,40z"
		/>
</g>
</svg>
