<?xml version="1.0" encoding="utf-8"?>
<!-- Generator: Adobe Illustrator 21.1.0, SVG Export Plug-In . SVG Version: 6.00 Build 0)  -->
<svg version="1.1" id="Layer_1" xmlns="http://www.w3.org/2000/svg" xmlns:xlink="http://www.w3.org/1999/xlink" x="0px" y="0px"
	 viewBox="0 0 150 50" style="enable-background:new 0 0 150 50;" xml:space="preserve">
<style type="text/css">
	.st0{fill:#469ADA;}
	.st1{fill:#283B81;}
	.st2{fill:#6EB0E2;}
	.st3{fill:#FEFEFE;}
</style>
<g>
	<path class="st0" d="M101.2,8c0.6,0.3,1.3,0.2,1.9,0.4c1.2,0.3,2.3,0.8,3.3,1.6c1.3,1.1,2,2.6,2.1,4.3c0.2,3.3-0.5,6.4-2.5,9.2
		c-1.7,2.3-4,3.4-6.7,3.8c-2,0.3-3.9,0.2-5.9,0.2c-1.2,0-1.7,0.4-1.8,1.6c-0.4,2.4-0.8,4.7-1.1,7.1c-0.1,0.8-0.4,1.1-1.3,1.1
		c-1.7,0-3.3,0-5,0c-0.9,0-1.2-0.4-1.1-1.2c0.9-5.7,1.8-11.4,2.7-17.1c0.5-3.1,1-6.3,1.5-9.4c0.1-0.8,0.5-1.2,1.2-1.5
		c3.8,0,7.6,0,11.3,0c0.2,0.1,0.4,0.1,0.6,0C100.8,8,101,8,101.2,8z"/>
	<path class="st1" d="M26,8c0.5,0.2,1,0.2,1.5,0.3c0.6,0.1,1.1,0.3,1.7,0.5c2.7,1.1,4.2,3.1,4.3,6c0.1,3.4-0.7,6.6-2.9,9.3
		c-1.6,1.9-3.8,2.8-6.2,3.3c-2,0.3-3.9,0.2-5.9,0.2c-1.3,0-1.7,0.4-1.9,1.6c-0.4,2.2-0.7,4.5-1.1,6.7c-0.2,1-0.7,1.4-1.7,1.4
		c-1.5,0-3,0-4.5,0c-0.5,0-0.9-0.1-1.2-0.6c0-0.3,0-0.6,0-0.8c0.5-4.1,1.2-8.2,1.9-12.3c0.7-4.7,1.4-9.3,2.2-13.9c0-0.1,0-0.1,0-0.2
		c0.1-0.8,0.5-1.3,1.3-1.4C17.6,8,21.8,8,26,8z"/>
	<path class="st1" d="M59.8,44c-0.5-0.5-0.6-0.9-0.1-1.5c1.6-2.3,3.2-4.6,4.9-6.9c0.2-0.3,0.2-0.5,0.1-0.8
		c-1.8-5.2-3.6-10.4-5.3-15.6c-0.4-1.1,0-1.5,1.1-1.5c1.5,0,2.9,0,4.4,0c0.9,0,1.4,0.4,1.7,1.2c1,3.2,1.9,6.4,2.9,9.6
		c0.2-0.1,0.3-0.3,0.4-0.5c2.2-3.2,4.3-6.3,6.4-9.5c0.4-0.6,0.9-0.9,1.7-0.9c1.5,0,3,0,4.6,0c0.4,0,0.8,0.1,1,0.5
		c0.2,0.4,0.1,0.7-0.2,1.1c-5.6,8-11.1,16.1-16.7,24.1c-0.2,0.3-0.4,0.4-0.6,0.6C63.9,44,61.8,44,59.8,44z"/>
	<path class="st0" d="M143.5,9.2c-0.7,4.4-1.4,8.8-2.1,13.2c-0.7,4.2-1.3,8.3-2,12.5c-0.1,0.4-0.1,0.8-0.2,1.2
		c-0.1,0.7-0.7,1.2-1.4,1.2c-1.5,0-2.9,0-4.4,0c-0.6,0-1-0.4-0.9-1.1c0.6-3.9,1.2-7.7,1.8-11.6c0.6-3.7,1.2-7.5,1.8-11.2
		c0.2-1.4,0.5-2.8,0.7-4.3c0.1-0.5,0.2-0.8,0.6-1.1c1.8,0,3.7,0,5.5,0c0.3,0.1,0.6,0.3,0.6,0.7C143.5,8.8,143.5,9,143.5,9.2z"/>
	<path class="st2" d="M100.6,8c-0.2,0.2-0.4,0.2-0.6,0C100.1,8,100.3,8,100.6,8z"/>
	<path class="st1" d="M49.6,19.8c0.1-0.4,0.1-0.8,0.2-1.2c0.1-0.6,0.4-0.9,1-0.9c1.6,0,3.1,0,4.7,0c0.9,0,1.2,0.4,1.1,1.2
		c-0.3,1.9-0.6,3.7-0.9,5.6c-0.6,3.7-1.2,7.4-1.7,11.1c-0.2,1.2-0.6,1.6-1.8,1.6c-1.3,0-2.7,0-4,0c-0.8,0-1.1-0.3-1-1.2
		c0-0.3,0.1-0.7,0.1-1c-0.2,0-0.3,0.1-0.4,0.2c-2.9,2.4-6.2,3.1-9.7,2c-3-0.9-4.5-3.2-5-6.1c-1-5.6,2.4-12,8.7-13.6
		c2.1-0.5,4.1-0.4,6.2,0.2C48,18.1,48.3,18.4,49.6,19.8z"/>
	<path class="st0" d="M124.7,19.8c0.2-0.4,0.2-0.8,0.3-1.2c0.1-0.6,0.4-0.9,1-0.9c1.6,0,3.2,0,4.8,0c0.7,0,1.1,0.4,1,1.2
		c-0.4,2.3-0.7,4.6-1.1,6.9c-0.5,3.3-1,6.5-1.5,9.8c-0.2,1.3-0.6,1.7-1.9,1.7c-1.3,0-2.6,0-4,0c-0.8,0-1.1-0.4-1-1.2
		c0-0.3,0.2-0.7,0.1-1.1c-0.6,0.6-1.3,1.1-2,1.4c-2.7,1.5-5.5,1.7-8.4,0.7c-2.8-1-4.2-3.1-4.7-5.9c-1-5.7,2.3-11.9,8.2-13.5
		c2.3-0.7,4.6-0.6,6.9,0.1C123.3,18.2,124.2,18.9,124.7,19.8z"/>
	<path class="st3" d="M94.8,21.7c-0.7,0-1.2,0-1.6,0c-0.3,0-0.3-0.1-0.3-0.3c0.4-2.2,0.7-4.5,1.1-6.7c0.1-0.5,0.4-0.7,0.9-0.8
		c1.2,0,2.4,0,3.6,0.2c1.6,0.3,2.5,1.5,2.3,3.1c-0.1,0.5-0.1,0.9-0.2,1.4c-0.5,1.8-1.7,2.9-3.7,3C96,21.6,95.3,21.7,94.8,21.7z"/>
	<path class="st3" d="M19.4,21.7c-0.5,0-1,0-1.5,0c-0.2,0-0.3-0.1-0.3-0.3c0.4-2.2,0.7-4.5,1.1-6.7c0.1-0.5,0.4-0.8,0.9-0.8
		c1.2,0,2.4-0.1,3.6,0.2c1.5,0.3,2.3,1.2,2.3,2.8c0,0.7-0.1,1.4-0.3,2.1c-0.6,1.7-1.9,2.4-3.6,2.6C20.9,21.6,20.2,21.7,19.4,21.7z"
		/>
	<path class="st3" d="M43,32.4c-2.3,0-3.8-1.1-4.2-3.1c-0.6-2.8,1.4-5.8,4.2-6.5c0.9-0.2,1.8-0.3,2.8-0.1c2.1,0.5,3.3,2.4,3,4.7
		C48.3,30.4,46,32.4,43,32.4z"/>
	<path class="st3" d="M118.2,32.4c-2.3,0-3.9-1.2-4.2-3.1c-0.2-1.6,0.1-3.1,1.1-4.4c1.3-1.8,3.7-2.6,5.8-2.1c2.1,0.5,3.3,2.3,3,4.6
		C123.5,30.3,121.2,32.4,118.2,32.4z"/>
</g>
</svg>
