<?xml version="1.0" encoding="utf-8"?>
<!-- Generator: Adobe Illustrator 21.1.0, SVG Export Plug-In . SVG Version: 6.00 Build 0)  -->
<svg version="1.1" id="Layer_1" xmlns="http://www.w3.org/2000/svg" xmlns:xlink="http://www.w3.org/1999/xlink" x="0px" y="0px"
	 viewBox="0 0 50 50" style="enable-background:new 0 0 50 50;" xml:space="preserve">
<path d="M34.8,1.3c0,1.8,0,3.7,0,5.5c-0.8,0-1.5,0-2.2,0c0,0.2,0,0.3,0,0.4c0,4.3,0,8.5,0,12.8c0,0.2,0.1,0.4,0.3,0.6
	c1.2,0.9,2.3,2,3.2,3.3c0.4,0.5,0.7,1,1,1.5c-0.2,0-0.4,0-0.5,0c-2.5,0-5,0-7.5,0c-0.4,0-0.5,0.1-0.5,0.5c-0.5,3.4-1.1,6.9-1.6,10.3
	c-0.4,2.8-0.9,5.5-1.3,8.3c-0.2,1.4-0.4,2.7-0.7,4.2c-0.1-0.2-0.1-0.2-0.1-0.3c-0.5-3.3-1.1-6.7-1.6-10c-0.6-4.1-1.3-8.3-1.9-12.5
	c-0.1-0.3-0.2-0.5-0.5-0.5c-2.5,0-5,0-7.5,0c-0.1,0-0.3,0-0.5,0c0.4-0.6,0.7-1.1,1-1.5c0.9-1.3,2-2.4,3.2-3.3
	c0.1-0.1,0.2-0.3,0.2-0.4c0-4.3,0-8.7,0-13c0-0.3-0.1-0.3-0.4-0.3c-0.6,0-1.2,0-1.8,0c0-1.9,0-3.7,0-5.6C21.7,1.3,28.3,1.3,34.8,1.3
	z"/>
</svg>
