<?xml version="1.0" encoding="utf-8"?>
<!-- Generator: Adobe Illustrator 21.1.0, SVG Export Plug-In . SVG Version: 6.00 Build 0)  -->
<svg version="1.1" id="Layer_1" xmlns="http://www.w3.org/2000/svg" xmlns:xlink="http://www.w3.org/1999/xlink" x="0px" y="0px"
	 viewBox="0 0 32 32" style="enable-background:new 0 0 32 32;" xml:space="preserve">
<style type="text/css">
	.st0{fill:#616161;}
</style>
<path class="st0" d="M16,1.1C7.8,1.1,1.1,7.8,1.1,16S7.8,30.9,16,30.9S30.9,24.2,30.9,16S24.2,1.1,16,1.1z M26.6,24L26.6,24
	c0,1.3,0,1.9-0.1,2.1h-8.3h-1.3h-1.8h-1.3H5.5c0-0.2,0-0.7,0-2.2v-0.1c0-3.8,8.4-1.4,8.4-5.9c0-1.8-2.9-1.4-2.9-8.2
	c0-0.3,0-0.6,0-0.8c0.3-3.3,2.5-5.2,5.1-5.1c1.8,0,3.5,1,4.4,2.8c0.4,0.7,0.6,1.6,0.6,2.5c0,0.3,0,0.6,0,0.8c0,6.7-2.9,6.3-2.9,8.2
	C18.2,22.4,26.6,20,26.6,24c0-0.1,0-0.1,0-0.1S26.6,23.9,26.6,24L26.6,24z"/>
</svg>
