<?xml version="1.0" encoding="utf-8"?>
<!-- Generator: Adobe Illustrator 21.1.0, SVG Export Plug-In . SVG Version: 6.00 Build 0)  -->
<svg version="1.1" id="Layer_1" xmlns="http://www.w3.org/2000/svg" xmlns:xlink="http://www.w3.org/1999/xlink" x="0px" y="0px"
	 viewBox="0 0 32 32" style="enable-background:new 0 0 32 32;" xml:space="preserve">
<style type="text/css">
	.st0{fill:#FFFFFF;}
</style>
<path class="st0" d="M16,0.1C7.3,0.1,0.1,7.3,0.1,16S7.3,31.9,16,31.9S31.9,24.7,31.9,16S24.7,0.1,16,0.1z M27.3,24.5L27.3,24.5
	c0,1.4,0,2-0.1,2.2h-8.8H17h-2h-1.4H4.8c0-0.2,0-0.7,0-2.3v-0.1c0-4,8.9-1.5,8.9-6.3c0-1.9-3.1-1.5-3.1-8.7c0-0.3,0-0.6,0-0.9
	C11,4.9,13.3,2.9,16.1,3c1.9,0,3.7,1.1,4.7,3c0.4,0.7,0.6,1.7,0.6,2.7c0,0.3,0,0.6,0,0.9c0,7.1-3.1,6.7-3.1,8.7
	C18.3,22.8,27.3,20.3,27.3,24.5c0-0.1,0-0.1,0-0.1S27.3,24.4,27.3,24.5L27.3,24.5z"/>
</svg>
