<?xml version="1.0" encoding="utf-8"?>
<!-- Generator: Adobe Illustrator 21.1.0, SVG Export Plug-In . SVG Version: 6.00 Build 0)  -->
<svg version="1.1" id="Layer_1" xmlns="http://www.w3.org/2000/svg" xmlns:xlink="http://www.w3.org/1999/xlink" x="0px" y="0px"
	 viewBox="0 0 24 24" style="enable-background:new 0 0 24 24;" xml:space="preserve">
<style type="text/css">
	.st0{fill:none;}
	.st1{fill:#757575;}
</style>
<path class="st0" d="M0,0h24v24H0V0z"/>
<path class="st1" d="M18,11c1.7,0,3-1.3,3-3s-1.3-3-3-3c-0.3,0-0.6,0.1-0.9,0.1C17.7,5.9,18,6.9,18,8s-0.3,2-0.9,2.9
	C17.4,10.9,17.7,11,18,11z"/>
<ellipse class="st1" cx="13" cy="8" rx="3" ry="3"/>
<path class="st1" d="M19.6,13.2c0.8,0.7,1.4,1.7,1.4,2.8v2h3v-2C24,14.5,21.6,13.5,19.6,13.2z"/>
<path class="st1" d="M13,13c-2,0-6,1-6,3v2h12v-2C19,14,15,13,13,13z"/>
<rect y="10" class="st1" width="8" height="2"/>
</svg>
