<?xml version="1.0" encoding="utf-8"?>
<!-- Generator: Adobe Illustrator 21.1.0, SVG Export Plug-In . SVG Version: 6.00 Build 0)  -->
<svg version="1.1" id="Layer_1" xmlns="http://www.w3.org/2000/svg" xmlns:xlink="http://www.w3.org/1999/xlink" x="0px" y="0px"
	 viewBox="0 0 187 209" style="enable-background:new 0 0 187 209;" xml:space="preserve">
<style type="text/css">
	.st0{fill:#FFFFFF;}
</style>
<g>
	<path class="st0" d="M77.7,151.5c-1.6-0.9-4.7-1.7-6.5-1.7H59.6c-3.9,0-8.1-2.4-10-5.8l-5.8-10c-0.2-0.3-0.4-0.6-0.7-1l-18.8,54.4
		l27.6-6.8L69.4,203l16.2-46.9l-0.5-0.3L77.7,151.5z"/>
	<path class="st0" d="M143.2,133.9l-5.8,10c-1.9,3.4-6.2,5.8-10,5.8h-11.6c-1.8,0-5,0.8-6.5,1.7l-7.5,4.3l-0.5,0.3l16.2,46.9
		l17.5-22.4l27.6,6.8l-18.8-54.4C143.6,133.3,143.4,133.6,143.2,133.9z"/>
	<path class="st0" d="M93.5,35.3c-24.3,0-44.2,19.8-44.2,44.2c0,24.3,19.8,44.2,44.2,44.2c24.3,0,44.2-19.8,44.2-44.2
		C137.7,55.1,117.8,35.3,93.5,35.3z M119.3,74.5l-10.8,10.6l2.6,14.9c0.5,3.1-1.3,4.5-4.2,3l-13.4-7l-13.4,7c-2.8,1.5-4.7,0.1-4.2-3
		l2.6-14.9L67.7,74.5c-2.3-2.2-1.6-4.4,1.6-4.9l15-2.2l6.7-13.6c1.4-2.9,3.7-2.9,5.1,0l6.7,13.6l15,2.2
		C120.9,70.1,121.6,72.3,119.3,74.5z"/>
	<path class="st0" d="M166.7,76.3l-5.8-10c-1.4-2.4-2.5-6.4-2.5-9.2V45.5c0-1.9-1.4-4.4-3.1-5.4l-10-5.8c-2.4-1.4-5.4-4.4-6.8-6.8
		l-5.8-10c-1-1.7-3.5-3.1-5.4-3.1h-11.6c-2.8,0-6.8-1.1-9.2-2.5l-10-5.8c-1.6-0.9-4.6-0.9-6.2,0l-10,5.8c-2.4,1.4-6.5,2.5-9.2,2.5
		H59.6c-1.9,0-4.4,1.4-5.4,3.1l-5.8,10c-1.4,2.4-4.3,5.4-6.7,6.8l-10,5.8c-1.7,1-3.1,3.5-3.1,5.4v11.6c0,2.8-1.1,6.8-2.5,9.2
		l-5.8,10c-1,1.7-1,4.5,0,6.2l5.8,10c1.4,2.4,2.5,6.5,2.5,9.2v11.6c0,1.9,1.4,4.4,3.1,5.4l10,5.8c1.3,0.8,2.9,2.1,4.3,3.6
		c0.7,0.8,1.7,1.9,2.4,3.2l5.8,10c1,1.7,3.5,3.1,5.4,3.1h11.6c2.8,0,6.8,1.1,9.2,2.5l10,5.8c1.6,0.9,4.6,0.9,6.2,0l10-5.8
		c2.4-1.4,6.4-2.5,9.2-2.5h11.6c1.9,0,4.4-1.4,5.4-3.1l5.8-10c0.7-1.2,1.7-2.4,2.4-3.2c1.4-1.5,3-2.8,4.3-3.6l10-5.8
		c1.7-1,3.1-3.5,3.1-5.4v-11.6c0-2.8,1.1-6.8,2.5-9.2l5.8-10C167.6,80.9,167.6,78,166.7,76.3z M93.5,134.6
		c-30.4,0-55.1-24.7-55.1-55.1c0-30.4,24.7-55.1,55.1-55.1c30.4,0,55.1,24.7,55.1,55.1C148.6,109.8,123.9,134.6,93.5,134.6z"/>
</g>
</svg>
