<?xml version="1.0" encoding="utf-8"?>
<!-- Generator: Adobe Illustrator 21.0.2, SVG Export Plug-In . SVG Version: 6.00 Build 0)  -->
<svg version="1.1" id="Layer_1" xmlns="http://www.w3.org/2000/svg" xmlns:xlink="http://www.w3.org/1999/xlink" x="0px" y="0px"
	 viewBox="0 0 100 103" style="enable-background:new 0 0 100 103;" xml:space="preserve">
<style type="text/css">
	.st0{fill:#09539D;}
</style>
<path class="st0" d="M45.2,32.9c-7.2,0-13.2,6-13.1,13.2c0.1,7.2,6,13.2,13.2,13.1c7.2-0.1,13.2-6,13.1-13.2
	C58.4,38.8,52.4,32.8,45.2,32.9z"/>
<path class="st0" d="M92.5,4.5h-85C5,4.5,3,6.5,3,9v85c0,2.5,2,4.5,4.5,4.5h85c2.5,0,4.5-2,4.5-4.5V9C97,6.5,95,4.5,92.5,4.5z
	 M78.6,79.6c-0.7,0.6-1.5,1-2.4,1.3c-0.7,0-1.5,0-2.2,0c-1.4-0.4-2.4-1.3-3.4-2.3c-4.6-4.5-9.2-8.9-13.8-13.4
	c-0.3-0.3-0.5-0.3-0.8-0.1c-0.8,0.4-1.6,0.9-2.5,1.2c-4.1,1.7-8.4,2.1-12.7,1.2c-4.1-0.8-7.6-2.6-10.6-5.5
	c-3.7-3.4-5.8-7.6-6.6-12.6c-0.1-0.7-0.2-1.5-0.3-2.3c0-0.8,0-1.5,0-2.3c0-0.2,0.1-0.3,0.1-0.5c0.2-1.4,0.3-2.8,0.7-4.1
	c2.7-8.9,8.6-14.2,17.8-15.9c0.7-0.1,1.4-0.2,2.1-0.3c0.8,0,1.6,0,2.4,0c0.2,0,0.3,0.1,0.5,0.1c1.2,0.2,2.4,0.3,3.6,0.6
	c5.7,1.4,10.2,4.6,13.3,9.5c2.8,4.3,3.8,9.1,3.3,14.2c-0.3,3-1.2,5.8-2.7,8.5c-0.4,0.6-0.4,0.6,0.1,1.1c1.4,1.4,2.9,2.8,4.3,4.2
	c3.3,3.2,6.6,6.4,9.9,9.6C80.9,74.1,80.9,77.5,78.6,79.6z"/>
</svg>
