<?xml version="1.0" encoding="utf-8"?>
<!-- Generator: Adobe Illustrator 21.1.0, SVG Export Plug-In . SVG Version: 6.00 Build 0)  -->
<svg version="1.1" id="Layer_1" xmlns="http://www.w3.org/2000/svg" xmlns:xlink="http://www.w3.org/1999/xlink" x="0px" y="0px"
	 viewBox="0 0 40 40" style="enable-background:new 0 0 40 40;" xml:space="preserve">
<style type="text/css">
	.st0{fill:#424242;}
</style>
<g>
	<path class="st0" d="M38.5,17.5c-0.1-0.4-0.3-0.6-0.7-0.7c-1.4-0.2-2.7-0.4-4.1-0.5c-0.1,0-0.2-0.1-0.2-0.2c-0.3-1-0.6-1.9-1.1-2.7
		c-0.1-0.1,0-0.2,0-0.3c0.8-1.1,1.7-2.2,2.5-3.3c0.3-0.4,0.3-0.7,0-1c-1-1.3-2.2-2.5-3.5-3.5c-0.4-0.3-0.7-0.3-1.2,0
		C29.1,6,28.1,6.8,27,7.7c-0.1,0.1-0.2,0.1-0.3,0c-0.9-0.5-1.8-0.9-2.7-1.1c-0.2,0-0.2-0.1-0.2-0.3c-0.2-1.4-0.4-2.7-0.5-4.1
		c0-0.4-0.3-0.6-0.7-0.7c-0.6-0.1-1.1-0.1-1.7-0.2c-1.1-0.1-2.3,0-3.4,0.2c-0.4,0.1-0.6,0.3-0.7,0.7c-0.2,1.4-0.4,2.8-0.5,4.2
		c0,0.1-0.1,0.2-0.2,0.2c-1,0.3-1.9,0.7-2.8,1.1c-0.1,0.1-0.2,0.1-0.3,0C11.9,6.8,10.8,6,9.7,5.2c-0.4-0.3-0.7-0.3-1,0
		c-1.3,1-2.5,2.2-3.5,3.5c-0.3,0.4-0.3,0.7,0,1.1C6,10.9,6.8,11.9,7.7,13c0.1,0.1,0.1,0.2,0,0.3c-0.5,0.9-0.9,1.8-1.1,2.7
		c0,0.1-0.1,0.2-0.2,0.2c-1.4,0.2-2.8,0.4-4.2,0.5c-0.3,0-0.6,0.3-0.7,0.6c0,0.3-0.1,0.6-0.1,0.9c0,0.2,0,0.4-0.1,0.5
		c0,0.1,0,0.1,0,0.2c0,0,0,0.1,0,0.1c0,0.1,0,0.1,0,0.2c0,0,0,0.1,0,0.1c0,0.4,0,0.9,0,1.3c0,0.1,0,0.1,0,0.2c0,0,0,0.1,0,0.1
		c0,0,0,0.1,0,0.1c0,0.1,0,0.1,0,0.2c0,0,0,0.1,0,0.1c0,0.4,0,0.8,0.1,1.2c0.1,0.5,0.3,0.7,0.8,0.8c0.1,0,0.1,0,0.2,0
		c1.3,0.2,2.5,0.3,3.8,0.5c0.2,0,0.3,0.1,0.3,0.3c0.3,0.9,0.6,1.8,1.1,2.6c0.1,0.1,0.1,0.2,0,0.3c-0.8,1.1-1.6,2.1-2.5,3.2
		c-0.3,0.4-0.3,0.7,0,1.1c0.3,0.4,0.6,0.8,0.9,1.1c0.8,0.9,1.6,1.7,2.6,2.4c0.4,0.3,0.8,0.3,1.2,0c1-0.8,2-1.5,3-2.3
		c0.4-0.3,0.3-0.3,0.7-0.1c0,0,0.1,0,0.1,0.1c0.8,0.4,1.5,0.7,2.3,0.9c0.1,0,0.2,0.1,0.2,0.2c0.1,0.8,0.2,1.6,0.3,2.3
		c0.1,0.6,0.1,1.2,0.2,1.8c0.1,0.4,0.3,0.6,0.7,0.7c0.2,0,0.4,0,0.6,0.1c0.3,0,0.6,0,0.9,0.1c0.1,0,0.3,0,0.4,0c0.1,0,0.2,0,0.2,0
		c0,0,0.1,0,0.1,0c0.1,0,0.2,0,0.3,0c0.1,0,0.1,0,0.2,0c0.1,0,0.2,0,0.2,0c0.1,0,0.1,0,0.2,0c0.1,0,0.1,0,0.2,0c0.1,0,0.2,0,0.3,0
		c0-0.1,0.1,0,0.1,0c0.5,0,1-0.1,1.4-0.1c0.4-0.1,0.6-0.3,0.7-0.7c0.2-1.4,0.4-2.7,0.5-4.1c0-0.1,0.1-0.2,0.2-0.3
		c0.9-0.3,1.9-0.6,2.7-1.1c0.1-0.1,0.2-0.1,0.3,0c1.1,0.8,2.2,1.7,3.3,2.5c0.4,0.3,0.7,0.3,1.1,0c1.3-1,2.5-2.2,3.5-3.5
		c0.3-0.4,0.3-0.7,0-1.1c-0.8-1.1-1.7-2.2-2.5-3.2c-0.1-0.1-0.1-0.1,0-0.2c0.5-0.9,0.9-1.8,1.2-2.8c0-0.1,0.1-0.1,0.2-0.1
		c0.3,0,0.7-0.1,1-0.1c1.1-0.1,2.1-0.3,3.2-0.4c0.4-0.1,0.6-0.3,0.7-0.7c0-0.1,0-0.2,0-0.3C38.7,20.6,38.7,19,38.5,17.5z M37.1,21.6
		c0,0.1-0.1,0.2-0.2,0.2c-1,0.1-2,0.3-3.1,0.4c-0.3,0-0.7,0.1-1,0.1c-0.4,0.1-0.6,0.3-0.7,0.6c-0.2,0.8-0.4,1.5-0.8,2.2
		c-0.2,0.4-0.4,0.9-0.7,1.3c-0.2,0.4-0.2,0.7,0.1,1c0.8,1.1,1.6,2.1,2.4,3.2c0,0,0.1,0.1,0.1,0.1c0,0-0.1,0.1-0.1,0.1
		c-0.7,0.8-1.5,1.6-2.3,2.3c-0.1,0.1-0.2,0.1-0.3,0c-1.1-0.8-2.1-1.6-3.2-2.4c-0.4-0.3-0.6-0.3-1-0.1c-1.1,0.6-2.2,1.1-3.4,1.4
		c-0.4,0.1-0.6,0.3-0.7,0.7c-0.2,1.2-0.3,2.5-0.5,3.7c-0.1,0.5-0.1,0.5-0.6,0.6c-1,0.1-2,0.1-2.9,0c-0.1,0-0.2,0-0.2-0.2
		c-0.2-1.4-0.4-2.7-0.5-4.1c0-0.4-0.2-0.6-0.6-0.7c-1.3-0.3-2.4-0.8-3.6-1.5c-0.3-0.2-0.6-0.2-0.9,0.1c-1.1,0.8-2.1,1.6-3.2,2.5
		c-0.1,0.1-0.2,0.1-0.3,0c-0.8-0.7-1.6-1.4-2.2-2.2c-0.1-0.1-0.1-0.2,0-0.3c0.8-1,1.6-2.1,2.4-3.1c0.3-0.4,0.3-0.6,0.1-1
		c-0.6-1.1-1.1-2.2-1.4-3.4c-0.1-0.4-0.3-0.6-0.7-0.7C6,22.2,4.8,22,3.6,21.9c-0.2,0-0.5,0-0.6-0.1c-0.1-0.1-0.1-0.4-0.1-0.6
		c-0.1-0.9,0-1.9,0-2.8c0-0.1,0.1-0.2,0.2-0.2c1.1-0.1,2.2-0.3,3.3-0.4c0.2,0,0.5-0.1,0.7-0.1c0.4-0.1,0.6-0.3,0.7-0.7
		c0.2-0.7,0.4-1.4,0.7-2.1C8.8,14.4,9,14,9.3,13.6c0.2-0.4,0.2-0.7-0.1-1c-0.8-1.1-1.6-2.1-2.4-3.2c-0.1-0.1-0.1-0.2,0-0.3
		c0.7-0.8,1.5-1.6,2.3-2.3c0.1-0.1,0.2-0.1,0.3,0c1,0.8,2.1,1.6,3.2,2.4c0.4,0.3,0.7,0.3,1.1,0.1c1.1-0.6,2.2-1.1,3.4-1.4
		c0.5-0.1,0.6-0.3,0.7-0.8c0.2-1.3,0.4-2.7,0.5-4c0-0.1,0.1-0.1,0.2-0.1c1-0.1,2-0.1,2.9,0c0,0,0.1,0,0.1,0c0.4,0,0.4,0,0.5,0.5
		c0.2,1.3,0.3,2.5,0.5,3.8c0.1,0.4,0.3,0.6,0.7,0.7c0.9,0.2,1.8,0.5,2.6,1c0.3,0.1,0.6,0.3,0.8,0.5c0.4,0.2,0.7,0.2,1-0.1
		c1.1-0.8,2.1-1.6,3.2-2.4c0.1-0.1,0.2-0.1,0.3,0c0.8,0.7,1.6,1.4,2.3,2.3c0.1,0.1,0.1,0.2,0,0.3c-0.8,1.1-1.6,2.1-2.4,3.2
		c-0.3,0.4-0.3,0.6-0.1,1c0.6,1.1,1.1,2.2,1.4,3.4c0.1,0.4,0.3,0.6,0.7,0.7c1.3,0.2,2.6,0.3,4,0.5c0.2,0,0.2,0.1,0.2,0.2
		C37.1,19.5,37.1,20.6,37.1,21.6z"/>
	<path class="st0" d="M20,12.6c-4.1,0-7.4,3.3-7.4,7.4c0,4.1,3.3,7.4,7.4,7.4c4.1,0,7.4-3.3,7.4-7.4C27.4,15.9,24.1,12.6,20,12.6z
		 M20,25.9c-3.2,0-5.9-2.6-5.8-5.9c0-3.2,2.6-5.9,5.9-5.9c3.2,0,5.9,2.6,5.8,5.9C25.9,23.2,23.2,25.9,20,25.9z"/>
</g>
</svg>
