<?xml version="1.0" encoding="utf-8"?>
<!-- Generator: Adobe Illustrator 21.0.2, SVG Export Plug-In . SVG Version: 6.00 Build 0)  -->
<svg version="1.1" id="Layer_1" xmlns="http://www.w3.org/2000/svg" xmlns:xlink="http://www.w3.org/1999/xlink" x="0px" y="0px"
	 viewBox="0 0 32 32" style="enable-background:new 0 0 32 32;" xml:space="preserve">
<style type="text/css">
	.st0{fill:#09539D;}
</style>
<g>
	<path class="st0" d="M17.6,16c0,3.5,0,6.9,0,10.4c0,0.4-0.1,0.7-0.4,0.9c-0.4,0.3-0.9,0.3-1.3,0c-0.3-0.2-0.6-0.5-0.8-0.7
		c-2.1-1.8-4.2-3.6-6.2-5.4c-0.1-0.1-0.2-0.1-0.3-0.1c-2.1,0-4.1,0-6.2,0c-0.4,0-0.7-0.2-1-0.5c-0.1-0.2-0.2-0.4-0.2-0.6
		c0-2.7,0-5.4,0-8.1c0-0.5,0.3-1,0.9-1.1c0.1,0,0.2,0,0.3,0c2.1,0,4.2,0,6.4,0c0.1,0,0.1,0,0.2-0.1c2.1-1.8,4.2-3.7,6.4-5.5
		c0.2-0.2,0.4-0.4,0.6-0.5c0.3-0.3,0.7-0.3,1.1-0.1c0.4,0.2,0.6,0.5,0.6,0.9c0,0,0,0.1,0,0.1C17.6,9.1,17.6,12.6,17.6,16z"/>
	<path class="st0" d="M30.7,16.1c0,3.5-1,6.8-2.9,9.7c-0.3,0.4-0.6,0.8-0.9,1.2c-0.3,0.4-0.8,0.5-1.2,0.3c-0.4-0.2-0.7-0.6-0.7-1.1
		c0-0.2,0.1-0.4,0.2-0.6c0.6-0.8,1.2-1.7,1.6-2.6c0.7-1.3,1.2-2.8,1.4-4.2c0.2-1.3,0.3-2.5,0.2-3.8c-0.2-3.2-1.3-6.1-3.3-8.7
		C25.1,6.2,25,6,25,5.7c0-0.5,0.4-1,0.9-1.1c0.4-0.1,0.8,0.1,1,0.4c1.5,1.9,2.6,4.1,3.2,6.4c0.2,0.8,0.4,1.7,0.5,2.5
		C30.7,14.7,30.7,15.4,30.7,16.1z"/>
	<path class="st0" d="M26.8,16.1c0,3-0.9,5.7-2.7,8.2c-0.3,0.4-0.6,0.5-1.1,0.4c-0.4-0.1-0.7-0.4-0.8-0.8c-0.1-0.3,0-0.6,0.2-0.8
		c0.3-0.4,0.6-0.9,0.9-1.4c0.6-1.1,1-2.2,1.2-3.4c0.2-1,0.3-2,0.2-2.9c-0.1-2-0.7-3.9-1.8-5.6c-0.2-0.3-0.3-0.5-0.5-0.7
		c-0.3-0.5-0.2-1.1,0.3-1.5c0.5-0.3,1.1-0.2,1.5,0.3c1.1,1.5,1.8,3.1,2.3,4.8c0.2,0.9,0.4,1.8,0.4,2.7
		C26.8,15.6,26.8,15.8,26.8,16.1C26.8,16.1,26.8,16.1,26.8,16.1z"/>
	<path class="st0" d="M22.7,15.9c0,1.9-0.5,3.6-1.4,5.1c-0.2,0.3-0.4,0.5-0.6,0.5c-0.4,0.1-0.9,0-1.1-0.3c-0.3-0.3-0.3-0.8-0.1-1.2
		c0.2-0.4,0.4-0.7,0.6-1.1c0.3-0.7,0.5-1.5,0.6-2.2c0.2-1.7-0.2-3.3-1.1-4.7c-0.4-0.6-0.1-1.4,0.6-1.6c0.5-0.1,1,0,1.2,0.5
		c0.3,0.5,0.6,1,0.8,1.5c0.4,0.9,0.6,1.9,0.7,2.8C22.7,15.5,22.7,15.8,22.7,15.9z"/>
</g>
</svg>
