<?xml version="1.0" encoding="utf-8"?>
<!-- Generator: Adobe Illustrator 21.1.0, SVG Export Plug-In . SVG Version: 6.00 Build 0)  -->
<svg version="1.1" id="Layer_1" xmlns="http://www.w3.org/2000/svg" xmlns:xlink="http://www.w3.org/1999/xlink" x="0px" y="0px"
	 viewBox="0 0 290 165" style="enable-background:new 0 0 290 165;" xml:space="preserve">
<style type="text/css">
	.st0{fill:#FFFFFF;}
	.st1{fill:none;}
</style>
<g>
	<path class="st0" d="M145,12c38.9,0,70.5,31.6,70.5,70.5S183.9,153,145,153s-70.5-31.6-70.5-70.5S106.1,12,145,12 M145,8
		c-41.1,0-74.5,33.4-74.5,74.5S103.9,157,145,157s74.5-33.4,74.5-74.5S186.1,8,145,8L145,8z"/>
</g>
<path class="st1" d="M171,104v29.8c18.7-9.5,31.5-28.9,31.5-51.3c0-31.8-25.7-57.5-57.5-57.5S87.5,50.7,87.5,82.5
	c0,22.4,12.8,41.8,31.5,51.3V104H171z"/>
<g>
	<path class="st0" d="M212.2,83.2c0.4-37.1-29.4-67.5-66.5-67.9S78.2,44.7,77.8,81.8c-0.2,24.4,12.6,45.9,32,57.9l6.3-7.5
		c-17.1-10-28.7-28.5-28.7-49.7C87.5,50.7,113.2,25,145,25s57.5,25.7,57.5,57.5c0,21.1-11.3,39.5-28.2,49.5l5.3,8.1
		C198.9,128.5,212,107.4,212.2,83.2z"/>
</g>
<circle class="st0" cx="145" cy="85.9" r="6.5"/>
</svg>
