<?xml version="1.0" encoding="utf-8"?>
<!-- Generator: Adobe Illustrator 17.0.0, SVG Export Plug-In . SVG Version: 6.00 Build 0)  -->
<!DOCTYPE svg PUBLIC "-//W3C//DTD SVG 1.1//EN" "http://www.w3.org/Graphics/SVG/1.1/DTD/svg11.dtd">
<svg version="1.1" id="Layer_1" xmlns="http://www.w3.org/2000/svg" xmlns:xlink="http://www.w3.org/1999/xlink" x="0px" y="0px"
	 width="217px" height="217px" viewBox="0 0 217 217" enable-background="new 0 0 217 217" xml:space="preserve">
<line display="none" fill="none" x1="-12.029" y1="102.334" x2="-12.051" y2="102.336"/>
<line display="none" fill="none" x1="-12.029" y1="102.334" x2="-12.051" y2="102.336"/>
<g>
	<path fill="#008D36" d="M154.194,35.076c-25.355-15.759-58.192-17.948-86.432-2.878c-28.241,15.07-44.713,43.57-45.737,73.406
		c-0.514,14.692,2.73,29.714,10.145,43.609c7.42,13.904,18.101,24.957,30.583,32.714c25.368,15.763,58.2,17.943,86.441,2.873
		c28.241-15.07,44.704-43.566,45.724-73.41c0.514-14.692-2.73-29.714-10.145-43.609C177.357,53.886,166.685,42.828,154.194,35.076z
		 M194.528,111.383c-1.041,29.72-17.439,58.124-45.504,73.1c-28.073,14.98-60.798,12.789-86.057-2.897
		c-12.454-7.727-23.094-18.723-30.471-32.547c-7.377-13.825-10.588-28.785-10.068-43.423c1.032-29.715,17.431-58.12,45.504-73.1
		c28.064-14.976,60.789-12.784,86.057,2.897c12.449,7.718,23.089,18.714,30.466,32.539
		C191.832,81.776,195.043,96.736,194.528,111.383z"/>
	<path fill="#2957A0" d="M202.982,58.064c9.18,17.204,13.177,35.802,12.537,54.018l-20.602-0.692
		c0.514-14.692-2.73-29.714-10.145-43.609c-7.415-13.895-18.087-24.953-30.578-32.706l10.899-17.491
		C180.581,27.195,193.806,40.869,202.982,58.064z"/>
	<path fill="#5997E7" d="M215.519,112.083c-1.301,36.965-21.698,72.298-56.609,90.927l-9.717-18.21
		c28.241-15.07,44.704-43.566,45.724-73.41L215.519,112.083z"/>
	<path fill="#3971C2" d="M149.193,184.8l9.717,18.21c-34.919,18.634-75.618,15.902-107.048-3.597l10.89-17.486
		C88.12,197.69,120.952,199.87,149.193,184.8z"/>
	<path fill="#5997E7" d="M32.169,149.213c7.42,13.904,18.101,24.957,30.583,32.714l-10.89,17.486
		c-15.488-9.61-28.713-23.284-37.893-40.488c-9.176-17.195-13.172-35.794-12.532-54.01l20.588,0.688
		C21.511,120.296,24.755,135.317,32.169,149.213z"/>
	<path fill="#2957A0" d="M58.045,13.988l9.717,18.21c-28.241,15.07-44.713,43.57-45.737,73.406l-20.588-0.688
		C2.737,67.95,23.125,32.622,58.045,13.988z"/>
	<path fill="#5997E7" d="M165.093,17.585l-10.899,17.491c-25.355-15.759-58.192-17.948-86.432-2.878l-9.717-18.21
		C92.955-4.641,133.663-1.914,165.093,17.585z"/>
</g>
<path fill="#3971C2" d="M189.652,65.402c7.848,14.707,11.281,30.607,10.738,46.157c-1.079,31.588-18.505,61.749-48.395,77.699
	c-29.891,15.95-64.642,13.643-91.492-3.041c-13.211-8.21-24.516-19.909-32.369-34.626c-7.848-14.707-11.282-30.607-10.738-46.157
	c1.084-31.579,18.519-61.745,48.41-77.695c29.891-15.95,64.646-13.634,91.483,3.046C170.508,38.991,181.804,50.695,189.652,65.402z"
	/>
<line fill="none" x1="58.045" y1="13.988" x2="55.672" y2="9.542"/>
<polyline fill="none" points="67.762,32.198 67.931,32.515 108.475,108.495 "/>
<polyline fill="none" points="108.475,108.495 67.931,32.515 67.762,32.198 "/>
<polyline fill="none" points="108.475,108.495 22.427,105.615 22.025,105.604 "/>
<polyline fill="none" points="108.475,108.495 62.967,181.586 62.752,181.927 "/>
<line fill="none" x1="51.862" y1="199.413" x2="51.849" y2="199.431"/>
<polyline fill="none" points="108.475,108.495 149.024,184.483 149.193,184.8 "/>
<polyline fill="none" points="108.475,108.495 194.528,111.383 194.917,111.39 "/>
<line fill="none" x1="215.63" y1="102.463" x2="215.608" y2="102.466"/>
<polyline fill="none" points="108.475,108.495 153.988,35.412 154.194,35.076 "/>
<line fill="none" x1="165.106" y1="17.567" x2="165.093" y2="17.585"/>
<polyline fill="none" points="108.475,108.495 67.931,32.515 67.762,32.198 "/>
<polyline fill="none" points="108.475,108.495 22.427,105.615 22.025,105.604 "/>
<circle display="none" fill="#FFFFFF" cx="108.475" cy="108.495" r="0.364"/>
</svg>
