<?xml version="1.0" encoding="utf-8"?>
<!-- Generator: Adobe Illustrator 21.1.0, SVG Export Plug-In . SVG Version: 6.00 Build 0)  -->
<svg version="1.1" id="Layer_1" xmlns="http://www.w3.org/2000/svg" xmlns:xlink="http://www.w3.org/1999/xlink" x="0px" y="0px"
	 viewBox="0 0 200 200" style="enable-background:new 0 0 200 200;" xml:space="preserve">
<style type="text/css">
	.st0{fill:#FFFFFF;}
</style>
<circle class="st0" cx="115.3" cy="142.7" r="6.6"/>
<circle class="st0" cx="132.8" cy="129.6" r="6.6"/>
<polygon class="st0" points="82.5,118.7 73.8,118.7 73.8,131.8 60.7,131.8 60.7,140.5 73.8,140.5 73.8,153.6 82.5,153.6 82.5,140.5 
	95.6,140.5 95.6,131.8 82.5,131.8 "/>
<path class="st0" d="M100,1.7c-54.3,0-98.3,44-98.3,98.3s44,98.3,98.3,98.3s98.3-44,98.3-98.3S154.3,1.7,100,1.7z M109.9,51.8
	c0.5-1,1.2-1.9,2.1-2.7c0.9-0.8,1.8-1.4,2.8-1.8c1.5-0.6,3.4-0.9,5.8-0.9c3.3,0,5.8,0.6,7.6,1.8c1.7,1.2,2.9,2.9,3.6,5.2l-7.3,1
	c-0.2-0.9-0.6-1.5-1.2-2c-0.6-0.4-1.4-0.7-2.4-0.7c-1.3,0-2.3,0.5-3.1,1.4c-0.8,0.9-1.2,2.3-1.2,4.2c0,1.7,0.4,2.9,1.2,3.8
	s1.8,1.3,3,1.3c1,0,1.9-0.3,2.6-0.8c0.7-0.5,1.2-1.3,1.6-2.4l7.4,0.8c-0.4,1.5-1.1,2.9-2,4c-0.9,1.1-2.1,2-3.6,2.6
	c-1.4,0.6-3.3,0.9-5.5,0.9c-2.1,0-3.9-0.2-5.4-0.6c-1.4-0.4-2.7-1-3.7-1.9c-1-0.9-1.8-1.9-2.4-3.1s-0.9-2.8-0.9-4.8
	C108.8,54.9,109.2,53.2,109.9,51.8z M83.8,39.1h7.8v9.7c0.8-0.8,1.7-1.4,2.6-1.8c1-0.4,2.1-0.6,3.3-0.6c2.5,0,4.5,0.9,6.1,2.7
	c1.6,1.8,2.4,4.3,2.4,7.6c0,2.2-0.4,4.2-1.1,5.8s-1.8,2.9-3.1,3.8c-1.3,0.8-2.7,1.2-4.3,1.2c-1.4,0-2.6-0.3-3.7-0.9
	C93,66.1,92,65.3,91,64v3h-7.3V39.1z M70.5,51.5c-0.4-0.4-1.1-0.6-2.1-0.6c-1.3,0-2.2,0.2-2.9,0.6c-0.5,0.3-0.9,0.9-1.2,1.8L57,52.5
	c0.3-1.3,0.7-2.3,1.2-3.1c0.5-0.7,1.3-1.4,2.3-1.9c0.7-0.4,1.7-0.7,2.9-0.9s2.6-0.3,4-0.3c2.3,0,4.2,0.1,5.6,0.4s2.6,0.8,3.5,1.6
	c0.7,0.6,1.2,1.4,1.6,2.4c0.4,1,0.6,2,0.6,3v8.9c0,1,0.1,1.7,0.2,2.2c0.1,0.5,0.4,1.2,0.8,2.1h-7.3c-0.3-0.5-0.5-0.9-0.6-1.2
	c-0.1-0.3-0.2-0.7-0.3-1.3c-1,1-2,1.7-3,2.1c-1.4,0.6-3,0.8-4.8,0.8c-2.4,0-4.2-0.6-5.5-1.7s-1.9-2.5-1.9-4.1c0-1.5,0.5-2.8,1.4-3.8
	s2.6-1.7,5-2.2c2.9-0.6,4.8-1,5.7-1.2c0.9-0.2,1.8-0.5,2.7-0.9C71.1,52.5,70.9,51.9,70.5,51.5z M148,153.6c0,4.8-3.9,8.7-8.7,8.7
	H60.7c-4.8,0-8.7-3.9-8.7-8.7v-34.9c0-4.8,3.9-8.7,8.7-8.7h78.6c4.8,0,8.7,3.9,8.7,8.7V153.6z M105.3,99.6L83.9,78.2l5.4-5.4
	l16.1,16.1l40.6-40.6l5.4,5.4L105.3,99.6z"/>
<path class="st0" d="M95,61.8c0.9,0,1.7-0.4,2.3-1.2c0.6-0.8,0.9-2.1,0.9-3.9c0-1.6-0.3-2.8-0.9-3.5c-0.6-0.7-1.4-1.1-2.2-1.1
	c-1.1,0-1.9,0.4-2.6,1.2c-0.7,0.8-1,2-1,3.6c0,1.7,0.3,3,1,3.8C93.2,61.4,94,61.8,95,61.8z"/>
<path class="st0" d="M64.8,59.6c-0.4,0.4-0.6,0.9-0.6,1.4c0,0.6,0.2,1.1,0.6,1.5c0.4,0.4,1.1,0.6,1.9,0.6c0.9,0,1.7-0.2,2.4-0.6
	c0.7-0.4,1.3-0.9,1.6-1.5c0.3-0.6,0.5-1.4,0.5-2.4v-1.2c-1.1,0.4-2.2,0.7-3.3,1C66.2,58.8,65.2,59.2,64.8,59.6z"/>
</svg>
