<?xml version="1.0" encoding="utf-8"?>
<!-- Generator: Adobe Illustrator 21.0.2, SVG Export Plug-In . SVG Version: 6.00 Build 0)  -->
<svg version="1.1" id="Layer_1" xmlns="http://www.w3.org/2000/svg" xmlns:xlink="http://www.w3.org/1999/xlink" x="0px" y="0px"
	 viewBox="0 0 155 155" style="enable-background:new 0 0 155 155;" xml:space="preserve">
<style type="text/css">
	.st0{fill:#DBDBDB;}
	.st1{fill:#BABABA;}
</style>
<rect class="st0" width="155" height="155"/>
<path class="st1" d="M127.9,120.8L127.9,120.8C127.9,120.4,127.9,120.4,127.9,120.8C127.9,120.4,127.9,120.4,127.9,120.8
	c0-18.9-40-7.5-40-28.6c0-9.2,14.1-7,14.1-39.1c0-1.3,0-2.6,0-4c-0.4-4.4-1.3-8.4-3.1-11.9c-4.4-8.4-12.3-13.2-21.1-13.2l0,0l0,0
	l0,0l0,0C65,23.6,54.4,32.9,53.1,48.7c0,1.3,0,2.6,0,4c0,32.5,14.1,30.3,14.1,39.1c0,21.6-40,10.1-40,28.1l0,0l0,0l0,0v0.4
	c0,7,0,9.7,0,10.6h39.6h6.2h9.2h6.2h39.6c0-0.9,0-3.5,0-10.6C127.9,121.3,127.9,120.8,127.9,120.8z"/>
</svg>
