<?xml version="1.0" encoding="utf-8"?>
<!-- Generator: Adobe Illustrator 21.1.0, SVG Export Plug-In . SVG Version: 6.00 Build 0)  -->
<svg version="1.1" id="Layer_1" xmlns="http://www.w3.org/2000/svg" xmlns:xlink="http://www.w3.org/1999/xlink" x="0px" y="0px"
	 viewBox="0 0 200 200" style="enable-background:new 0 0 200 200;" xml:space="preserve">
<style type="text/css">
	.st0{fill:#3F93D8;}
	.st1{fill:#FFFFFF;}
</style>
<g>
	<circle class="st0" cx="99.5" cy="99" r="67.5"/>
	<path class="st1" d="M100,13.5c-47.8,0-86.5,38.7-86.5,86.5s38.7,86.5,86.5,86.5s86.5-38.7,86.5-86.5S147.8,13.5,100,13.5z
		 M142.3,77.7c-0.1,0.1-0.2,0.1-0.3,0.2c-1.4,0.7-1.6,1.9-1.6,3.4c0.2,8-1.5,15.7-4.4,23.1c-2.3,5.8-5.4,11.1-9.4,15.9
		c-3.2,3.9-6.9,7.4-11,10.4c-4.6,3.3-9.5,5.8-14.9,7.6c-4.6,1.6-9.4,2.5-14.3,2.9c-5.9,0.5-11.8,0.2-17.6-1c-4.9-1-9.6-2.6-14.1-4.9
		c-1.9-1-3.7-2-5.5-3.1c11.3,0.9,21.4-1.8,30.3-8.7c-10.4-0.6-17.2-7.9-19.1-14.5c1.5,0.1,3,0.2,4.4,0.2c1.5-0.1,3-0.3,4.4-0.6
		c-10.2-3.2-15.7-10-16.4-20.8c1.6,0.6,3.1,1.3,4.6,1.7c1.5,0.4,3.1,0.6,4.6,0.8c-9.2-7.7-11.2-17-6.2-28
		c11.4,13.4,25.7,20.8,43.2,22c-0.1-1.3-0.3-2.5-0.4-3.7c-0.3-6.5,1.9-12,6.7-16.4c5.2-4.8,11.5-6.4,18.4-5.1
		c4,0.8,7.5,2.6,10.4,5.6c0.4,0.4,0.8,0.6,1.4,0.4c4.1-0.9,8-2.4,11.7-4.5c0.2-0.1,0.4-0.2,0.8-0.3c-1.6,4.9-4.6,8.5-8.6,11.3
		c3.9-0.3,7.6-1.5,11.4-3C148.3,72.1,145.6,75.1,142.3,77.7z"/>
</g>
</svg>
