<?xml version="1.0" encoding="utf-8"?>
<!-- Generator: Adobe Illustrator 21.1.0, SVG Export Plug-In . SVG Version: 6.00 Build 0)  -->
<svg version="1.1" id="Layer_1" xmlns="http://www.w3.org/2000/svg" xmlns:xlink="http://www.w3.org/1999/xlink" x="0px" y="0px"
	 viewBox="0 0 830 156" style="enable-background:new 0 0 830 156;" xml:space="preserve">
<style type="text/css">
	.st0{fill:#3F93D8;stroke:#3F93D8;stroke-width:6.7038;stroke-miterlimit:10;}
	.st1{fill:#3F93D8;stroke:#3F93D8;stroke-width:9.3853;stroke-miterlimit:10;}
	.st2{fill:#34AD07;}
	.st3{fill:none;}
	.st4{enable-background:new    ;}
	.st5{fill:#34AD07;stroke:#34AD07;stroke-width:4.7868;stroke-miterlimit:10;}
</style>
<g>
	<path class="st0" d="M115.8,33.7v-8.4h49.6v8.4h-20.2v77.6H136V33.7H115.8z"/>
	<path class="st0" d="M171.1,47.7h9.1l23,49l22.3-49h9.2l-39.9,86.9h-9.1l12.9-28.1L171.1,47.7z"/>
	<path class="st0" d="M247.2,47.7h8.6v11.7c3.4-4.4,7.3-7.8,11.7-10s9.4-3.3,14.8-3.3c9.5,0,17.6,3.3,24.4,9.8s10.1,14.3,10.1,23.5
		c0,9.4-3.4,17.3-10.1,23.8s-14.8,9.8-24.3,9.8c-5.3,0-10.2-1.1-14.7-3.2s-8.5-5.2-12.1-9.4v34.2H247V47.7H247.2z M281.7,53.9
		c-7.5,0-13.7,2.5-18.8,7.4c-5.1,4.9-7.6,11.1-7.6,18.4c0,4.8,1.1,9.2,3.4,13c2.3,3.9,5.5,6.9,9.8,9.2c4.2,2.3,8.7,3.4,13.4,3.4
		c4.6,0,9-1.1,13-3.4c4.1-2.3,7.3-5.5,9.7-9.5c2.4-4.1,3.6-8.4,3.6-12.8c0-4.5-1.2-8.8-3.6-12.8s-5.6-7.2-9.7-9.4
		C290.9,55.1,286.5,53.9,281.7,53.9z"/>
	<path class="st1" d="M345.5,100.5c5.2,4.5,11.4,6.8,18.6,6.8c7.7,0,14.3-2.6,19.8-7.8c0.7-0.7,1.4-1.3,2-2l5.8,2
		c-1.1,1.4-2.3,2.7-3.6,4c-6.6,6.3-14.6,9.4-23.9,9.4s-17.3-3.1-23.9-9.4s-9.9-13.9-9.9-22.7s3.3-16.4,9.9-22.7s14.6-9.4,23.9-9.4
		c8,0,15,2.3,21,6.8c1,0.8,2,1.6,3,2.6c0.4,0.4,0.7,0.7,1,1.1l-4.2,4L345.5,100.5z M380.8,59.6c-4.8-3.5-10.4-5.3-16.7-5.3
		c-7.7,0-14.2,2.6-19.7,7.7c-5.5,5.2-8.2,11.4-8.2,18.7c0,6,1.8,11.3,5.5,15.9L380.8,59.6z"/>
	<path class="st0" d="M449.9,54.6l-5.5,5.4c-4.6-4.2-9.1-6.4-13.5-6.4c-2.8,0-5.2,0.9-7.2,2.6c-2,1.8-3,3.8-3,6.1
		c0,2.1,0.8,4,2.5,5.9c1.6,1.9,5.1,4.2,10.4,6.7c6.4,3.2,10.8,6.2,13.1,9.1c2.3,3,3.4,6.3,3.4,10c0,5.2-1.9,9.6-5.8,13.3
		c-3.9,3.6-8.7,5.4-14.5,5.4c-3.9,0-7.6-0.8-11.1-2.4s-6.4-3.8-8.7-6.6l5.4-5.8c4.4,4.7,9.1,7.1,14,7.1c3.5,0,6.4-1.1,8.8-3.2
		s3.6-4.6,3.6-7.4c0-2.3-0.8-4.4-2.4-6.3c-1.6-1.8-5.2-4.1-10.9-6.8c-6-3-10.2-5.9-12.3-8.8c-2.2-2.9-3.3-6.2-3.3-9.9
		c0-4.8,1.7-8.8,5.2-12s7.9-4.8,13.2-4.8C437.4,46.1,443.6,48.9,449.9,54.6z"/>
	<path class="st0" d="M464.2,47.7h9.1l23,49l22.3-49h9.2l-39.9,86.9h-9.1l12.9-28.1L464.2,47.7z"/>
</g>
<g>
	<path class="st2" d="M70.4,47.8l-6.2-10.5c-0.8-1.3-0.2-3.1,1.3-4l5.1-3c-13.3-5.8-29.1-5.4-42.6,2.6S6.5,54.5,5.2,69l5.1-3
		c1.5-0.9,3.3-0.5,4.1,0.8l6.2,10.5c0.8,1.3,0.2,3.1-1.3,4l-11.8,7c1,3,2.4,5.9,4,8.8c5.6,9.4,13.9,16.1,23.3,19.8l-1.9-3.2
		c-0.9-1.5-0.4-3.4,1.1-4.3L91.9,75c1.5-0.9,3.4-0.4,4.3,1.1l1.8,3.1c1.3-10-0.6-20.5-6.1-29.9c-1.7-2.8-3.6-5.4-5.7-7.8l-11.8,7
		C73,49.4,71.1,49.1,70.4,47.8z M41.4,50.8c-0.8-1.3-0.2-3.1,1.3-4l12.9-7.7c1.5-0.9,3.3-0.5,4.1,0.8l6.2,10.5
		c0.8,1.3,0.2,3.1-1.3,4L51.7,62c-1.5,0.9-3.3,0.5-4.1-0.8L41.4,50.8z M18.8,64.2c-0.8-1.3-0.2-3.1,1.3-4L33,52.5
		c1.5-0.9,3.3-0.5,4.1,0.8l6.2,10.5c0.8,1.3,0.2,3.1-1.3,4l-12.9,7.7c-1.5,0.9-3.3,0.5-4.1-0.8L18.8,64.2z M44.3,91.1
		c0.8,1.3,0.2,3.1-1.3,4l-12.9,7.7c-1.5,0.9-3.3,0.5-4.1-0.8l-6.2-10.5c-0.8-1.3-0.2-3.1,1.3-4L34,79.8c1.5-0.9,3.3-0.5,4.1,0.8
		L44.3,91.1z M66.5,78c0.8,1.3,0.2,3.1-1.3,4l-12.9,7.7c-1.5,0.9-3.3,0.5-4.1-0.8L42,78.3c-0.8-1.3-0.2-3.1,1.3-4l12.9-7.7
		c1.5-0.9,3.3-0.5,4.1,0.8L66.5,78z M83.1,54l6.2,10.5c0.8,1.3,0.2,3.1-1.3,4l-12.9,7.7c-1.5,0.9-3.3,0.5-4.1-0.8l-6.2-10.5
		c-0.8-1.3-0.2-3.1,1.3-4L79,53.2C80.5,52.4,82.3,52.7,83.1,54z"/>
	<path class="st2" d="M75.5,113.4c7.8-4.6,13.7-11.1,17.6-18.6l-42.4,25.1C59.1,120.1,67.7,118,75.5,113.4z"/>
</g>
<rect id="_x3C_Slice_x3E_" x="3" y="8.9" class="st3" width="533.6" height="138.1"/>
<g class="st4">
	<path class="st5" d="M568.2,47.5l22.5,67h-6.9l-7.3-21.9H548l-12.5,21.9H528l38.6-67H568.2z M566,61.5l-14.3,24.7h22.6L566,61.5z"
		/>
	<path class="st5" d="M649.4,114.5h-6.5l1-7.7c-5.9,6-12.5,8.9-19.9,8.9c-6.7,0-12.2-2.2-16.5-6.5s-6.5-10-6.5-16.8
		c0-7.9,2.8-14.7,8.5-20.3c5.6-5.7,12.2-8.5,19.9-8.5c4.1,0,7.7,0.9,10.8,2.6c3.1,1.8,5.7,4.5,8,8.1l3.8-28.6h6.6L649.4,114.5z
		 M625,109.9c4.1,0,7.8-1,11.2-2.9s6.1-4.7,8-8.3c2-3.6,3-7.6,3-11.8c0-5.1-1.6-9.3-4.9-12.5s-7.5-4.9-12.6-4.9
		c-6.1,0-11.3,2.2-15.6,6.6s-6.5,9.8-6.5,16.2c0,5.3,1.6,9.5,4.9,12.7C615.6,108.3,619.8,109.9,625,109.9z"/>
	<path class="st5" d="M670.7,64.8h6.2l-1,7c1.9-2.6,4.4-4.6,7.3-6.1s6-2.2,9-2.2c3.7,0,7.1,1.1,10,3.4c2.2,1.8,3.9,4.3,5,7.7
		c2.2-3.5,5-6.2,8.4-8.2c3.3-1.9,6.7-2.9,10.1-2.9c4.6,0,8.4,1.4,11.3,4.4c3,3,4.5,6.8,4.5,11.4c0,2.2-0.2,4.7-0.6,7.8l-3.5,27.2
		h-6.2l3.2-23.8c0.6-4.9,1-8.6,1-10.9c0-2.9-1-5.3-2.9-7.2c-1.9-1.9-4.4-2.8-7.5-2.8c-3.3,0-6.3,1-9.2,3.1c-2.8,2.1-4.9,4.5-6,7.3
		c-1.2,2.8-2.1,6.3-2.6,10.6l-3.3,23.8h-6.3l3.7-27.2c0.4-2.9,0.6-5.3,0.6-7.1c0-3.2-1-5.7-2.9-7.7c-1.9-1.9-4.4-2.9-7.4-2.9
		c-2.6,0-5,0.6-7.4,1.8c-2.4,1.2-4.3,2.8-5.8,4.7s-2.6,4.4-3.4,7.3c-0.7,2.9-1.3,5.4-1.6,7.7l-3.1,23.4H664L670.7,64.8z"/>
	<path class="st5" d="M757.2,64.8h6.1l-6.5,49.6h-6.2L757.2,64.8z M762.2,44.4c1.4,0,2.6,0.5,3.6,1.5s1.5,2.2,1.5,3.6
		c0,1.4-0.5,2.6-1.5,3.6s-2.2,1.5-3.6,1.5c-1.4,0-2.6-0.5-3.6-1.5s-1.5-2.2-1.5-3.6c0-1.4,0.5-2.6,1.5-3.6
		C759.6,45,760.8,44.4,762.2,44.4z"/>
	<path class="st5" d="M777.1,64.8h6.1l-1,7.7c5-6,10.9-9,17.6-9c5.1,0,9.3,1.6,12.4,4.7c3.2,3.1,4.7,7.3,4.7,12.7
		c0,2.2-0.3,5.7-1,10.7l-3.1,22.7h-6.2l3.1-22.7c0.6-4.9,1-8.5,1-10.8c0-3.5-1-6.3-3.2-8.4c-2.1-2.2-4.9-3.2-8.3-3.2
		c-3.4,0-6.5,0.9-9.3,2.6c-2.9,1.8-5.1,4.1-6.7,7s-2.8,7.7-3.7,14l-2.9,21.5h-6.2L777.1,64.8z"/>
</g>
</svg>
