<svg id="Layer_1" data-name="Layer 1" xmlns="http://www.w3.org/2000/svg" viewBox="0 0 398 103"><defs><style>.cls-1,.cls-2{fill:#3f93d8;stroke:#3f93d8;stroke-miterlimit:10;}.cls-1{stroke-width:5px;}.cls-2{stroke-width:7px;}.cls-3{fill:#34ad07;}.cls-4{fill:none;}</style></defs><title>Typesy logo template</title><path class="cls-1" d="M215.12,92.51V86.24h37v6.28H237.06v57.85h-6.88V92.51Z" transform="translate(-131 -74)"/><path class="cls-1" d="M256.36,102.93h6.79l17.16,36.52L297,102.93h6.84L274,167.71h-6.79l9.61-20.94Z" transform="translate(-131 -74)"/><path class="cls-1" d="M313.16,102.93h6.43v8.72a25.4,25.4,0,0,1,8.76-7.45,24.29,24.29,0,0,1,11.05-2.48A25.31,25.31,0,0,1,357.6,109a23.44,23.44,0,0,1,7.57,17.52,23.87,23.87,0,0,1-7.5,17.77,25,25,0,0,1-18.09,7.3,25.39,25.39,0,0,1-11-2.35,27.35,27.35,0,0,1-9-7v25.5h-6.43Zm25.7,4.66a19.39,19.39,0,0,0-14,5.53,18.39,18.39,0,0,0-5.7,13.76,18.76,18.76,0,0,0,2.54,9.71,18.12,18.12,0,0,0,7.28,6.84A21,21,0,0,0,339,146a19.63,19.63,0,0,0,9.73-2.55,19.19,19.19,0,0,0,7.26-7.12,18.4,18.4,0,0,0,0-19.16,18.83,18.83,0,0,0-7.21-7A20.12,20.12,0,0,0,338.86,107.6Z" transform="translate(-131 -74)"/><path class="cls-2" d="M386.44,142.34A21.57,21.57,0,0,0,415,141.6q.78-.74,1.47-1.53l4.36,1.48a25.28,25.28,0,0,1-2.71,3,26.16,26.16,0,0,1-35.66,0,23.1,23.1,0,0,1,0-33.87,26.31,26.31,0,0,1,33.46-1.92q1.1.87,2.2,1.92.41.39.78.78l-3.12,3Zm26.35-30.56a21.68,21.68,0,0,0-27.17,1.85,18.53,18.53,0,0,0-6.11,14,18.29,18.29,0,0,0,4.13,11.86Z" transform="translate(-131 -74)"/><path class="cls-1" d="M464.31,108.12l-4.13,4.05q-5.15-4.75-10.08-4.75a7.85,7.85,0,0,0-5.36,2,5.94,5.94,0,0,0-2.23,4.58,6.6,6.6,0,0,0,1.84,4.4q1.84,2.14,7.73,5,7.17,3.53,9.75,6.8a12,12,0,0,1,2.53,7.46,13.05,13.05,0,0,1-4.32,9.9,15.17,15.17,0,0,1-10.8,4.05A19.7,19.7,0,0,1,441,149.8a17.79,17.79,0,0,1-6.51-4.93l4-4.36q4.92,5.27,10.44,5.28a9.69,9.69,0,0,0,6.58-2.35,7.12,7.12,0,0,0,2.71-5.54,6.89,6.89,0,0,0-1.79-4.66q-1.8-2-8.1-5.06-6.76-3.31-9.2-6.54a11.9,11.9,0,0,1-2.44-7.37,11.69,11.69,0,0,1,3.88-9,13.94,13.94,0,0,1,9.82-3.57Q457.32,101.71,464.31,108.12Z" transform="translate(-131 -74)"/><path class="cls-1" d="M475,102.93h6.79L499,139.46l16.67-36.52h6.84l-29.79,64.78H485.9l9.61-20.94Z" transform="translate(-131 -74)"/><path class="cls-3" d="M181.24,103l-4.62-7.81a2.2,2.2,0,0,1,1-3L181.35,90a34.85,34.85,0,0,0-48.75,28.84l3.77-2.23a2.2,2.2,0,0,1,3,.58L144,125a2.21,2.21,0,0,1-1,3l-8.77,5.19a35.06,35.06,0,0,0,3,6.53,34.71,34.71,0,0,0,17.39,14.74l-1.39-2.35a2.34,2.34,0,0,1,.8-3.22l43.19-25.55a2.34,2.34,0,0,1,3.2.85l1.38,2.33a34.88,34.88,0,0,0-8.83-28.09l-8.77,5.19A2.2,2.2,0,0,1,181.24,103Zm-21.58,2.23a2.2,2.2,0,0,1,1-3l9.65-5.71a2.2,2.2,0,0,1,3,.58l4.62,7.81a2.2,2.2,0,0,1-1,3l-9.65,5.71a2.2,2.2,0,0,1-3-.58Zm-16.86,10a2.2,2.2,0,0,1,1-3l9.65-5.71a2.2,2.2,0,0,1,3,.58l4.62,7.81a2.2,2.2,0,0,1-1,3l-9.65,5.71a2.2,2.2,0,0,1-3-.58Zm19,20.09a2.2,2.2,0,0,1-1,3L151.21,144a2.2,2.2,0,0,1-3-.58l-4.62-7.81a2.2,2.2,0,0,1,1-3l9.65-5.71a2.2,2.2,0,0,1,3,.58Zm16.55-9.79a2.2,2.2,0,0,1-1,3l-9.65,5.71a2.2,2.2,0,0,1-3-.58l-4.62-7.81a2.2,2.2,0,0,1,1-3l9.65-5.71a2.2,2.2,0,0,1,3,.58Zm12.37-17.86,4.62,7.81a2.2,2.2,0,0,1-1,3l-9.65,5.71a2.2,2.2,0,0,1-3-.58l-4.62-7.81a2.2,2.2,0,0,1,1-3l9.65-5.71A2.2,2.2,0,0,1,190.74,107.64Z" transform="translate(-131 -74)"/><path class="cls-3" d="M185.08,151.95a34.7,34.7,0,0,0,13.15-13.87l-31.64,18.72A34.7,34.7,0,0,0,185.08,151.95Z" transform="translate(-131 -74)"/><rect id="_Slice_" data-name="&lt;Slice&gt;" class="cls-4" width="398" height="103"/></svg>