<?xml version="1.0" encoding="utf-8"?>
<!-- Generator: Adobe Illustrator 21.1.0, SVG Export Plug-In . SVG Version: 6.00 Build 0)  -->
<svg version="1.1" id="Layer_1" xmlns="http://www.w3.org/2000/svg" xmlns:xlink="http://www.w3.org/1999/xlink" x="0px" y="0px"
	 viewBox="0 0 370 100" style="enable-background:new 0 0 370 100;" xml:space="preserve">
<style type="text/css">
	.st0{fill:#FFFFFF;stroke:#FFFFFF;stroke-width:5;stroke-miterlimit:10;}
	.st1{fill:#FFFFFF;stroke:#FFFFFF;stroke-width:7;stroke-miterlimit:10;}
	.st2{fill:#FFFFFF;}
</style>
<g>
	<path class="st0" d="M83,18.7V13h33.6v5.7h-13.7v52.5h-6.2V18.7H83z"/>
	<path class="st0" d="M120.4,28.2h6.2l15.6,33.1l15.1-33.1h6.2l-27,58.8h-6.2l8.7-19L120.4,28.2z"/>
	<path class="st0" d="M171.9,28.2h5.8v7.9c2.3-3,5-5.3,7.9-6.8c3-1.5,6.3-2.3,10-2.3c6.4,0,11.9,2.2,16.5,6.6s6.9,9.7,6.9,15.9
		c0,6.3-2.3,11.7-6.8,16.1s-10,6.6-16.4,6.6c-3.6,0-6.9-0.7-9.9-2.1s-5.8-3.5-8.2-6.4V87h-5.8V28.2z M195.3,32.4
		c-5,0-9.3,1.7-12.7,5s-5.2,7.5-5.2,12.5c0,3.3,0.8,6.2,2.3,8.8s3.7,4.7,6.6,6.2c2.9,1.5,5.9,2.3,9.1,2.3c3.1,0,6.1-0.8,8.8-2.3
		c2.8-1.5,5-3.7,6.6-6.5s2.5-5.7,2.5-8.7c0-3.1-0.8-6-2.4-8.7c-1.6-2.7-3.8-4.9-6.5-6.4C201.5,33.2,198.5,32.4,195.3,32.4z"/>
	<path class="st1" d="M238.5,63.9c3.5,3.1,7.7,4.6,12.6,4.6c5.2,0,9.7-1.8,13.4-5.3c0.5-0.4,0.9-0.9,1.3-1.4l4,1.3
		c-0.7,0.9-1.5,1.9-2.5,2.7c-4.5,4.2-9.9,6.4-16.2,6.4s-11.7-2.1-16.2-6.4c-4.5-4.2-6.7-9.4-6.7-15.4s2.2-11.1,6.7-15.4
		c4.5-4.2,9.9-6.4,16.2-6.4c5.4,0,10.2,1.5,14.2,4.6c0.7,0.5,1.3,1.1,2,1.7c0.2,0.2,0.5,0.5,0.7,0.7l-2.8,2.7L238.5,63.9z
		 M262.4,36.2c-3.2-2.4-7-3.6-11.3-3.6c-5.2,0-9.6,1.7-13.3,5.2s-5.5,7.7-5.5,12.7c0,4.1,1.2,7.7,3.7,10.8L262.4,36.2z"/>
	<path class="st0" d="M309.1,32.9l-3.7,3.7c-3.1-2.9-6.2-4.3-9.1-4.3c-1.9,0-3.5,0.6-4.9,1.8c-1.3,1.2-2,2.6-2,4.2
		c0,1.4,0.6,2.7,1.7,4s3.4,2.8,7,4.6c4.3,2.1,7.3,4.2,8.9,6.2c1.5,2,2.3,4.3,2.3,6.8c0,3.5-1.3,6.5-3.9,9s-5.9,3.7-9.8,3.7
		c-2.6,0-5.1-0.5-7.5-1.6s-4.3-2.6-5.9-4.5l3.7-4c3,3.2,6.1,4.8,9.5,4.8c2.3,0,4.3-0.7,6-2.1c1.6-1.4,2.5-3.1,2.5-5
		c0-1.6-0.5-3-1.6-4.2s-3.5-2.7-7.3-4.6c-4.1-2-6.9-4-8.3-5.9c-1.5-2-2.2-4.2-2.2-6.7c0-3.3,1.2-6,3.5-8.2c2.4-2.2,5.3-3.2,8.9-3.2
		C300.7,27.1,304.9,29,309.1,32.9z"/>
	<path class="st0" d="M318.9,28.2h6.2l15.6,33.1l15.1-33.1h6.2L335,87h-6.2l8.7-19L318.9,28.2z"/>
</g>
<g>
	<path class="st2" d="M52.2,28.2l-4.2-7c-0.5-0.9-0.1-2.1,0.9-2.7l3.4-2c-9-4-19.7-3.7-28.8,1.7S8.9,32.8,8.1,42.6l3.4-2
		c1-0.6,2.2-0.4,2.8,0.5l4.2,7.1c0.5,0.9,0.1,2.1-0.9,2.7l-8,4.7c0.7,2,1.6,4,2.7,5.9c3.8,6.4,9.4,10.9,15.8,13.4l-1.3-2.1
		c-0.6-1-0.3-2.3,0.7-2.9l39.2-23.2c1-0.6,2.3-0.3,2.9,0.8l1.3,2.1c0.9-6.8-0.4-13.9-4.1-20.3c-1.1-1.9-2.4-3.7-3.9-5.2l-8,4.7
		C54,29.4,52.7,29.1,52.2,28.2z M32.6,30.3c-0.5-0.9-0.1-2.1,0.9-2.7l8.8-5.2c1-0.6,2.2-0.4,2.8,0.5l4.2,7.1
		c0.5,0.9,0.1,2.1-0.9,2.7l-8.8,5.2c-1,0.6-2.2,0.4-2.8-0.5L32.6,30.3z M17.3,39.3c-0.5-0.9-0.1-2.1,0.9-2.7l8.8-5.2
		c1-0.6,2.2-0.4,2.8,0.5L34,39c0.5,0.9,0.1,2.1-0.9,2.7l-8.8,5.2c-1,0.6-2.2,0.4-2.8-0.5L17.3,39.3z M34.6,57.6
		c0.5,0.9,0.1,2.1-0.9,2.7L25,65.4c-1,0.6-2.2,0.4-2.8-0.5L18,57.8c-0.5-0.9-0.1-2.1,0.9-2.7l8.8-5.2c1-0.6,2.2-0.4,2.8,0.5
		L34.6,57.6z M49.6,48.7c0.5,0.9,0.1,2.1-0.9,2.7L40,56.5c-1,0.6-2.2,0.4-2.8-0.5L33,48.9c-0.5-0.9-0.1-2.1,0.9-2.7l8.8-5.2
		c1-0.6,2.2-0.4,2.8,0.5L49.6,48.7z M60.8,32.5l4.2,7.1c0.5,0.9,0.1,2.1-0.9,2.7l-8.8,5.2c-1,0.6-2.2,0.4-2.8-0.5l-4.2-7.1
		c-0.5-0.9-0.1-2.1,0.9-2.7L58,32C59.1,31.3,60.3,31.6,60.8,32.5z"/>
	<path class="st2" d="M55.7,72.7c5.3-3.1,9.3-7.5,11.9-12.6l-28.7,17C44.6,77.2,50.4,75.8,55.7,72.7z"/>
</g>
</svg>
