<?xml version="1.0" encoding="utf-8"?>
<!-- Generator: Adobe Illustrator 21.1.0, SVG Export Plug-In . SVG Version: 6.00 Build 0)  -->
<svg version="1.1" id="Layer_1" xmlns="http://www.w3.org/2000/svg" xmlns:xlink="http://www.w3.org/1999/xlink" x="0px" y="0px"
	 viewBox="0 0 109 115" style="enable-background:new 0 0 109 115;" xml:space="preserve">
<style type="text/css">
	.st0{fill:#34AD07;}
</style>
<g>
	<path class="st0" d="M75.3,29.1l-6.9-11.8c-0.9-1.5-0.2-3.5,1.5-4.5l5.7-3.4C60.7,3,43,3.5,27.8,12.4S3.8,36.6,2.3,52.9L8,49.5
		c1.7-1,3.7-0.6,4.6,0.9l6.9,11.8c0.9,1.5,0.2,3.5-1.5,4.5L4.9,74.5c1.1,3.4,2.7,6.6,4.5,9.9c6.3,10.5,15.6,18,26.1,22.2l-2.1-3.6
		c-1-1.7-0.4-3.8,1.2-4.8l64.9-38.5c1.7-1,3.8-0.4,4.8,1.2l2,3.5c1.5-11.2-0.7-23-6.8-33.5c-1.9-3.1-4-6-6.4-8.7l-13.2,7.8
		C78.3,30.9,76.1,30.6,75.3,29.1z M42.9,32.5C42,31,42.6,29,44.3,28l14.5-8.6c1.7-1,3.7-0.6,4.6,0.9L70.3,32
		c0.9,1.5,0.2,3.5-1.5,4.5L54.4,45c-1.7,1-3.7,0.6-4.6-0.9L42.9,32.5z M17.5,47.5C16.6,46,17.3,44,19,43l14.5-8.6
		c1.7-1,3.7-0.6,4.6,0.9L45,47c0.9,1.5,0.2,3.5-1.5,4.5l-14.5,8.6c-1.7,1-3.7,0.6-4.6-0.9L17.5,47.5z M46.1,77.6
		c0.9,1.5,0.2,3.5-1.5,4.5l-14.5,8.6c-1.7,1-3.7,0.6-4.6-0.9l-6.9-11.8c-0.9-1.5-0.2-3.5,1.5-4.5L34.6,65c1.7-1,3.7-0.6,4.6,0.9
		L46.1,77.6z M71,62.9c0.9,1.5,0.2,3.5-1.5,4.5l-14.5,8.6c-1.7,1-3.7,0.6-4.6-0.9l-6.9-11.9c-0.9-1.5-0.2-3.5,1.5-4.5l14.5-8.6
		c1.7-1,3.7-0.6,4.6,0.9L71,62.9z M89.6,36.1l6.9,11.8c0.9,1.5,0.2,3.5-1.5,4.5l-14.5,8.6c-1.7,1-3.7,0.6-4.6-0.9l-6.9-11.8
		c-0.9-1.5-0.2-3.5,1.5-4.5L85,35.2C86.7,34.3,88.7,34.6,89.6,36.1z"/>
	<path class="st0" d="M81.1,102.6c8.7-5.2,15.3-12.4,19.7-20.8l-47.5,28.1C62.7,110.1,72.3,107.8,81.1,102.6z"/>
</g>
</svg>
