<?xml version="1.0" encoding="utf-8"?>
<!-- Generator: Adobe Illustrator 21.1.0, SVG Export Plug-In . SVG Version: 6.00 Build 0)  -->
<svg version="1.1" id="Layer_1" xmlns="http://www.w3.org/2000/svg" xmlns:xlink="http://www.w3.org/1999/xlink" x="0px" y="0px"
	 viewBox="0 0 1300 800" style="enable-background:new 0 0 1300 800;" xml:space="preserve" preserveAspectRatio="none slice">
<style type="text/css">
	.st0{fill:#E4F2F7;}
	.st1{opacity:0.4;}
	.st2{fill:#FFFFFF;}
</style>
<g>
	<rect x="-2" y="-6" class="st0" width="1305" height="813"/>
</g>
<g class="st1">
	<path class="st2" d="M150.5,59l-12.8-21.4c-1.7-2.7-0.3-6.3,2.7-8.1l10.3-6.1c-27.2-12-59.7-11.1-87.2,5.3
		c-27.5,16.2-44,44.1-46.6,73.7l10.3-6.1c3-1.8,6.8-1.2,8.5,1.7l12.8,21.4c1.7,2.7,0.3,6.3-2.7,8.1l-24.2,14.3
		c2.2,6.1,4.8,12.1,8.3,17.9c11.4,19.2,28.3,33,47.7,40.4l-3.8-6.5c-1.8-3.1-0.8-7,2.2-8.8l118.7-70.1c3-1.8,7-0.8,8.8,2.3l3.8,6.5
		c2.7-20.6-1.2-42.1-12.4-61.3c-3.5-5.8-7.5-11.1-11.8-15.9l-24,14.3C155.8,62.3,152,61.7,150.5,59z M91.2,65.1
		c-1.7-2.7-0.3-6.3,2.7-8.1l26.5-15.7c3-1.8,6.8-1.2,8.5,1.7l12.8,21.4c1.7,2.7,0.3,6.3-2.7,8.1l-26.5,15.7c-3,1.8-6.8,1.2-8.5-1.7
		L91.2,65.1z M44.9,92.5c-1.7-2.7-0.3-6.3,2.7-8.1l26.5-15.7c3-1.8,6.8-1.2,8.5,1.7l12.6,21.4c1.7,2.7,0.3,6.3-2.7,8.1L66,115.5
		c-3,1.8-6.8,1.2-8.5-1.7L44.9,92.5z M97.1,147.7c1.7,2.7,0.3,6.3-2.7,8.1l-26.5,15.7c-3,1.8-6.8,1.2-8.5-1.7l-12.8-21.4
		c-1.7-2.7-0.3-6.3,2.7-8.1l26.5-15.7c3-1.8,6.8-1.2,8.5,1.7L97.1,147.7z M142.5,120.7c1.7,2.7,0.3,6.3-2.7,8.1l-26.5,15.7
		c-3,1.8-6.8,1.2-8.5-1.7L92,121.4c-1.7-2.7-0.3-6.3,2.7-8.1l26.5-15.7c3-1.8,6.8-1.2,8.3,1.7L142.5,120.7z M176.5,71.8l12.8,21.4
		c1.7,2.7,0.3,6.3-2.7,8.1L160.1,117c-3,1.8-6.8,1.2-8.5-1.7L138.9,94c-1.7-2.7-0.3-6.3,2.7-8.1l26.5-15.7
		C171.2,68.3,174.9,68.9,176.5,71.8z"/>
	<path class="st2" d="M160.9,193.3c15.9-9.4,28.2-22.7,36.1-38.1l-86.9,51.4C127.5,207,145,202.7,160.9,193.3z"/>
</g>
<g class="st1">
	<path class="st2" d="M371.5,244l-12.8-21.4c-1.7-2.7-0.3-6.3,2.7-8.1l10.3-6.1c-27.2-11.9-59.7-11.1-87.2,5.3
		c-27.5,16.2-43.9,44.1-46.6,73.8l10.3-6.1c3-1.8,6.8-1.2,8.5,1.7l12.8,21.4c1.7,2.7,0.3,6.3-2.7,8.1l-24.2,14.3
		c2.2,6.1,4.8,12.1,8.3,17.9c11.4,19.2,28.3,33,47.7,40.4l-3.8-6.5c-1.8-3.1-0.8-7,2.2-8.8l118.7-70.1c3-1.8,7-0.8,8.8,2.3l3.8,6.5
		c2.7-20.6-1.2-42.1-12.4-61.3c-3.5-5.8-7.5-11.1-11.8-15.9l-24,14.3C376.8,247.3,373,246.7,371.5,244z M312.2,250.1
		c-1.7-2.7-0.3-6.3,2.7-8.1l26.5-15.7c3-1.8,6.8-1.2,8.5,1.7l12.8,21.4c1.7,2.7,0.3,6.3-2.7,8.1l-26.5,15.7c-3,1.8-6.8,1.2-8.5-1.7
		L312.2,250.1z M265.9,277.5c-1.7-2.7-0.3-6.3,2.7-8.1l26.5-15.7c3-1.8,6.8-1.2,8.5,1.7l12.6,21.4c1.7,2.7,0.3,6.3-2.7,8.1
		L287,300.5c-3,1.8-6.8,1.2-8.5-1.7L265.9,277.5z M318.1,332.7c1.7,2.7,0.3,6.3-2.7,8.1l-26.5,15.7c-3,1.8-6.8,1.2-8.5-1.7
		l-12.8-21.4c-1.7-2.7-0.3-6.3,2.7-8.1l26.5-15.7c3-1.8,6.8-1.2,8.5,1.7L318.1,332.7z M363.5,305.7c1.7,2.7,0.3,6.3-2.7,8.1
		l-26.5,15.7c-3,1.8-6.8,1.2-8.5-1.7L313,306.4c-1.7-2.7-0.3-6.3,2.7-8.1l26.5-15.7c3-1.8,6.8-1.2,8.3,1.7L363.5,305.7z
		 M397.5,256.8l12.8,21.4c1.7,2.7,0.3,6.3-2.7,8.1L381.1,302c-3,1.8-6.8,1.2-8.5-1.7L359.9,279c-1.7-2.7-0.3-6.3,2.7-8.1l26.5-15.7
		C392.2,253.3,395.9,253.9,397.5,256.8z"/>
	<path class="st2" d="M381.9,378.3c15.9-9.4,28.2-22.7,36.1-38.1l-86.9,51.4C348.5,392,366,387.7,381.9,378.3z"/>
</g>
<g class="st1">
	<path class="st2" d="M562.5,56l-12.8-21.4c-1.7-2.7-0.3-6.3,2.7-8.1l10.3-6.1c-27.2-12-59.7-11.1-87.2,5.3
		c-27.5,16.2-43.9,44.1-46.6,73.8l10.3-6.1c3-1.8,6.8-1.2,8.5,1.7l12.8,21.4c1.7,2.7,0.3,6.3-2.7,8.1l-24.2,14.3
		c2.2,6.1,4.8,12.1,8.3,17.9c11.4,19.2,28.3,33,47.7,40.4l-3.8-6.5c-1.8-3.1-0.8-7,2.2-8.8l118.7-70.1c3-1.8,7-0.8,8.8,2.3l3.8,6.5
		c2.7-20.6-1.2-42.1-12.4-61.3c-3.5-5.8-7.5-11.1-11.8-15.9l-24,14.3C567.8,59.3,564,58.7,562.5,56z M503.2,62.1
		c-1.7-2.7-0.3-6.3,2.7-8.1l26.5-15.7c3-1.8,6.8-1.2,8.5,1.7l12.8,21.4c1.7,2.7,0.3,6.3-2.7,8.1l-26.5,15.7c-3,1.8-6.8,1.2-8.5-1.7
		L503.2,62.1z M456.9,89.5c-1.7-2.7-0.3-6.3,2.7-8.1l26.5-15.7c3-1.8,6.8-1.2,8.5,1.7l12.6,21.4c1.7,2.7,0.3,6.3-2.7,8.1L478,112.5
		c-3,1.8-6.8,1.2-8.5-1.7L456.9,89.5z M509.1,144.7c1.7,2.7,0.3,6.3-2.7,8.1l-26.5,15.7c-3,1.8-6.8,1.2-8.5-1.7l-12.8-21.4
		c-1.7-2.7-0.3-6.3,2.7-8.1l26.5-15.7c3-1.8,6.8-1.2,8.5,1.7L509.1,144.7z M554.5,117.7c1.7,2.7,0.3,6.3-2.7,8.1l-26.5,15.7
		c-3,1.8-6.8,1.2-8.5-1.7L504,118.4c-1.7-2.7-0.3-6.3,2.7-8.1l26.5-15.7c3-1.8,6.8-1.2,8.3,1.7L554.5,117.7z M588.5,68.8l12.8,21.4
		c1.7,2.7,0.3,6.3-2.7,8.1L572.1,114c-3,1.8-6.8,1.2-8.5-1.7L550.9,91c-1.7-2.7-0.3-6.3,2.7-8.1l26.5-15.7
		C583.2,65.3,586.9,65.9,588.5,68.8z"/>
	<path class="st2" d="M572.9,190.3c15.9-9.4,28.2-22.7,36.1-38.1l-86.9,51.4C539.5,204,557,199.7,572.9,190.3z"/>
</g>
<g class="st1">
	<path class="st2" d="M166.5,461l-12.8-21.4c-1.7-2.7-0.3-6.3,2.7-8.1l10.3-6.1c-27.2-11.9-59.7-11.1-87.2,5.3
		c-27.5,16.2-43.9,44.1-46.6,73.8l10.3-6.1c3-1.8,6.8-1.2,8.5,1.7l12.8,21.4c1.7,2.7,0.3,6.3-2.7,8.1l-24.2,14.3
		c2.2,6.1,4.8,12.1,8.3,17.9c11.4,19.2,28.3,33,47.7,40.4l-3.8-6.5c-1.8-3.1-0.8-7,2.2-8.8l118.7-70.1c3-1.8,7-0.8,8.8,2.3l3.8,6.5
		c2.7-20.6-1.2-42.1-12.4-61.3c-3.5-5.8-7.5-11.1-11.8-15.9l-24,14.3C171.8,464.3,168,463.7,166.5,461z M107.2,467.1
		c-1.7-2.7-0.3-6.3,2.7-8.1l26.5-15.7c3-1.8,6.8-1.2,8.5,1.7l12.8,21.4c1.7,2.7,0.3,6.3-2.7,8.1l-26.5,15.7c-3,1.8-6.8,1.2-8.5-1.7
		L107.2,467.1z M60.9,494.5c-1.7-2.7-0.3-6.3,2.7-8.1l26.5-15.7c3-1.8,6.8-1.2,8.5,1.7l12.6,21.4c1.7,2.7,0.3,6.3-2.7,8.1L82,517.5
		c-3,1.8-6.8,1.2-8.5-1.7L60.9,494.5z M113.1,549.7c1.7,2.7,0.3,6.3-2.7,8.1l-26.5,15.7c-3,1.8-6.8,1.2-8.5-1.7l-12.8-21.4
		c-1.7-2.7-0.3-6.3,2.7-8.1l26.5-15.7c3-1.8,6.8-1.2,8.5,1.7L113.1,549.7z M158.5,522.7c1.7,2.7,0.3,6.3-2.7,8.1l-26.5,15.7
		c-3,1.8-6.8,1.2-8.5-1.7L108,523.4c-1.7-2.7-0.3-6.3,2.7-8.1l26.5-15.7c3-1.8,6.8-1.2,8.3,1.7L158.5,522.7z M192.5,473.8l12.8,21.4
		c1.7,2.7,0.3,6.3-2.7,8.1L176.1,519c-3,1.8-6.8,1.2-8.5-1.7L154.9,496c-1.7-2.7-0.3-6.3,2.7-8.1l26.5-15.7
		C187.2,470.3,190.9,470.9,192.5,473.8z"/>
	<path class="st2" d="M176.9,595.3c15.9-9.4,28.2-22.7,36.1-38.1l-86.9,51.4C143.5,609,161,604.7,176.9,595.3z"/>
</g>
<g class="st1">
	<path class="st2" d="M387.5,646l-12.8-21.4c-1.7-2.7-0.3-6.3,2.7-8.1l10.3-6.1c-27.2-11.9-59.7-11.1-87.2,5.3
		c-27.5,16.2-43.9,44.1-46.6,73.8l10.3-6.1c3-1.8,6.8-1.2,8.5,1.7l12.8,21.4c1.7,2.7,0.3,6.3-2.7,8.1l-24.2,14.3
		c2.2,6.1,4.8,12.1,8.3,17.9c11.4,19.2,28.3,33,47.7,40.4l-3.8-6.5c-1.8-3.1-0.8-7,2.2-8.8l118.7-70.1c3-1.8,7-0.8,8.8,2.3l3.8,6.5
		c2.7-20.6-1.2-42.1-12.4-61.3c-3.5-5.8-7.5-11.1-11.8-15.9l-24,14.3C392.8,649.3,389,648.7,387.5,646z M328.2,652.1
		c-1.7-2.7-0.3-6.3,2.7-8.1l26.5-15.7c3-1.8,6.8-1.2,8.5,1.7l12.8,21.4c1.7,2.7,0.3,6.3-2.7,8.1l-26.5,15.7c-3,1.8-6.8,1.2-8.5-1.7
		L328.2,652.1z M281.9,679.5c-1.7-2.7-0.3-6.3,2.7-8.1l26.5-15.7c3-1.8,6.8-1.2,8.5,1.7l12.6,21.4c1.7,2.7,0.3,6.3-2.7,8.1
		L303,702.5c-3,1.8-6.8,1.2-8.5-1.7L281.9,679.5z M334.1,734.7c1.7,2.7,0.3,6.3-2.7,8.1l-26.5,15.7c-3,1.8-6.8,1.2-8.5-1.7
		l-12.8-21.4c-1.7-2.7-0.3-6.3,2.7-8.1l26.5-15.7c3-1.8,6.8-1.2,8.5,1.7L334.1,734.7z M379.5,707.7c1.7,2.7,0.3,6.3-2.7,8.1
		l-26.5,15.7c-3,1.8-6.8,1.2-8.5-1.7L329,708.4c-1.7-2.7-0.3-6.3,2.7-8.1l26.5-15.7c3-1.8,6.8-1.2,8.3,1.7L379.5,707.7z
		 M413.5,658.8l12.8,21.4c1.7,2.7,0.3,6.3-2.7,8.1L397.1,704c-3,1.8-6.8,1.2-8.5-1.7L375.9,681c-1.7-2.7-0.3-6.3,2.7-8.1l26.5-15.7
		C408.2,655.3,411.9,655.9,413.5,658.8z"/>
	<path class="st2" d="M397.9,780.3c15.9-9.4,28.2-22.7,36.1-38.1l-86.9,51.4C364.5,794,382,789.7,397.9,780.3z"/>
</g>
<g class="st1">
	<path class="st2" d="M578.5,458l-12.8-21.4c-1.7-2.7-0.3-6.3,2.7-8.1l10.3-6.1c-27.2-11.9-59.7-11.1-87.2,5.3
		c-27.5,16.2-43.9,44.1-46.6,73.8l10.3-6.1c3-1.8,6.8-1.2,8.5,1.7l12.8,21.4c1.7,2.7,0.3,6.3-2.7,8.1l-24.2,14.3
		c2.2,6.1,4.8,12.1,8.3,17.9c11.4,19.2,28.3,33,47.7,40.4l-3.8-6.5c-1.8-3.1-0.8-7,2.2-8.8l118.7-70.1c3-1.8,7-0.8,8.8,2.3l3.8,6.5
		c2.7-20.6-1.2-42.1-12.4-61.3c-3.5-5.8-7.5-11.1-11.8-15.9l-24,14.3C583.8,461.3,580,460.7,578.5,458z M519.2,464.1
		c-1.7-2.7-0.3-6.3,2.7-8.1l26.5-15.7c3-1.8,6.8-1.2,8.5,1.7l12.8,21.4c1.7,2.7,0.3,6.3-2.7,8.1l-26.5,15.7c-3,1.8-6.8,1.2-8.5-1.7
		L519.2,464.1z M472.9,491.5c-1.7-2.7-0.3-6.3,2.7-8.1l26.5-15.7c3-1.8,6.8-1.2,8.5,1.7l12.6,21.4c1.7,2.7,0.3,6.3-2.7,8.1
		L494,514.5c-3,1.8-6.8,1.2-8.5-1.7L472.9,491.5z M525.1,546.7c1.7,2.7,0.3,6.3-2.7,8.1l-26.5,15.7c-3,1.8-6.8,1.2-8.5-1.7
		l-12.8-21.4c-1.7-2.7-0.3-6.3,2.7-8.1l26.5-15.7c3-1.8,6.8-1.2,8.5,1.7L525.1,546.7z M570.5,519.7c1.7,2.7,0.3,6.3-2.7,8.1
		l-26.5,15.7c-3,1.8-6.8,1.2-8.5-1.7L520,520.4c-1.7-2.7-0.3-6.3,2.7-8.1l26.5-15.7c3-1.8,6.8-1.2,8.3,1.7L570.5,519.7z
		 M604.5,470.8l12.8,21.4c1.7,2.7,0.3,6.3-2.7,8.1L588.1,516c-3,1.8-6.8,1.2-8.5-1.7L566.9,493c-1.7-2.7-0.3-6.3,2.7-8.1l26.5-15.7
		C599.2,467.3,602.9,467.9,604.5,470.8z"/>
	<path class="st2" d="M588.9,592.3c15.9-9.4,28.2-22.7,36.1-38.1l-86.9,51.4C555.5,606,573,601.7,588.9,592.3z"/>
</g>
<g class="st1">
	<path class="st2" d="M797.5,249l-12.8-21.4c-1.7-2.7-0.3-6.3,2.7-8.1l10.3-6.1c-27.2-11.9-59.7-11.1-87.2,5.3
		c-27.5,16.2-43.9,44.1-46.6,73.8l10.3-6.1c3-1.8,6.8-1.2,8.5,1.7l12.8,21.4c1.7,2.7,0.3,6.3-2.7,8.1l-24.2,14.3
		c2.2,6.1,4.8,12.1,8.3,17.9c11.4,19.2,28.3,33,47.7,40.4l-3.8-6.5c-1.8-3.1-0.8-7,2.2-8.8l118.7-70.1c3-1.8,7-0.8,8.8,2.3l3.8,6.5
		c2.7-20.6-1.2-42.1-12.4-61.3c-3.5-5.8-7.5-11.1-11.8-15.9l-24,14.3C802.8,252.3,799,251.7,797.5,249z M738.2,255.1
		c-1.7-2.7-0.3-6.3,2.7-8.1l26.5-15.7c3-1.8,6.8-1.2,8.5,1.7l12.8,21.4c1.7,2.7,0.3,6.3-2.7,8.1l-26.5,15.7c-3,1.8-6.8,1.2-8.5-1.7
		L738.2,255.1z M691.9,282.5c-1.7-2.7-0.3-6.3,2.7-8.1l26.5-15.7c3-1.8,6.8-1.2,8.5,1.7l12.6,21.4c1.7,2.7,0.3,6.3-2.7,8.1
		L713,305.5c-3,1.8-6.8,1.2-8.5-1.7L691.9,282.5z M744.1,337.7c1.7,2.7,0.3,6.3-2.7,8.1l-26.5,15.7c-3,1.8-6.8,1.2-8.5-1.7
		l-12.8-21.4c-1.7-2.7-0.3-6.3,2.7-8.1l26.5-15.7c3-1.8,6.8-1.2,8.5,1.7L744.1,337.7z M789.5,310.7c1.7,2.7,0.3,6.3-2.7,8.1
		l-26.5,15.7c-3,1.8-6.8,1.2-8.5-1.7L739,311.4c-1.7-2.7-0.3-6.3,2.7-8.1l26.5-15.7c3-1.8,6.8-1.2,8.3,1.7L789.5,310.7z
		 M823.5,261.8l12.8,21.4c1.7,2.7,0.3,6.3-2.7,8.1L807.1,307c-3,1.8-6.8,1.2-8.5-1.7L785.9,284c-1.7-2.7-0.3-6.3,2.7-8.1l26.5-15.7
		C818.2,258.3,821.9,258.9,823.5,261.8z"/>
	<path class="st2" d="M807.9,383.3c15.9-9.4,28.2-22.7,36.1-38.1l-86.9,51.4C774.5,397,792,392.7,807.9,383.3z"/>
</g>
<g class="st1">
	<path class="st2" d="M988.5,61l-12.8-21.4c-1.7-2.7-0.3-6.3,2.7-8.1l10.3-6.1c-27.2-11.9-59.7-11.1-87.2,5.3
		c-27.5,16.2-43.9,44.1-46.6,73.8l10.3-6.1c3-1.8,6.8-1.2,8.5,1.7l12.8,21.4c1.7,2.7,0.3,6.3-2.7,8.1l-24.2,14.3
		c2.2,6.1,4.8,12.1,8.3,17.9c11.4,19.2,28.3,33,47.7,40.4l-3.8-6.5c-1.8-3.1-0.8-7,2.2-8.8l118.7-70.1c3-1.8,7-0.8,8.8,2.3l3.8,6.5
		c2.7-20.6-1.2-42.1-12.4-61.3c-3.5-5.8-7.5-11.1-11.8-15.9l-24,14.3C993.8,64.3,990,63.7,988.5,61z M929.2,67.1
		c-1.7-2.7-0.3-6.3,2.7-8.1l26.5-15.7c3-1.8,6.8-1.2,8.5,1.7l12.8,21.4c1.7,2.7,0.3,6.3-2.7,8.1l-26.5,15.7c-3,1.8-6.8,1.2-8.5-1.7
		L929.2,67.1z M882.9,94.5c-1.7-2.7-0.3-6.3,2.7-8.1l26.5-15.7c3-1.8,6.8-1.2,8.5,1.7l12.6,21.4c1.7,2.7,0.3,6.3-2.7,8.1L904,117.5
		c-3,1.8-6.8,1.2-8.5-1.7L882.9,94.5z M935.1,149.7c1.7,2.7,0.3,6.3-2.7,8.1l-26.5,15.7c-3,1.8-6.8,1.2-8.5-1.7l-12.8-21.4
		c-1.7-2.7-0.3-6.3,2.7-8.1l26.5-15.7c3-1.8,6.8-1.2,8.5,1.7L935.1,149.7z M980.5,122.7c1.7,2.7,0.3,6.3-2.7,8.1l-26.5,15.7
		c-3,1.8-6.8,1.2-8.5-1.7L930,123.4c-1.7-2.7-0.3-6.3,2.7-8.1l26.5-15.7c3-1.8,6.8-1.2,8.3,1.7L980.5,122.7z M1014.5,73.8l12.8,21.4
		c1.7,2.7,0.3,6.3-2.7,8.1L998.1,119c-3,1.8-6.8,1.2-8.5-1.7L976.9,96c-1.7-2.7-0.3-6.3,2.7-8.1l26.5-15.7
		C1009.2,70.3,1012.9,70.9,1014.5,73.8z"/>
	<path class="st2" d="M998.9,195.3c15.9-9.4,28.2-22.7,36.1-38.1l-86.9,51.4C965.5,209,983,204.7,998.9,195.3z"/>
</g>
<g class="st1">
	<path class="st2" d="M832.5,632l-12.8-21.4c-1.7-2.7-0.3-6.3,2.7-8.1l10.3-6.1c-27.2-11.9-59.7-11.1-87.2,5.3
		c-27.5,16.2-43.9,44.1-46.6,73.8l10.3-6.1c3-1.8,6.8-1.2,8.5,1.7l12.8,21.4c1.7,2.7,0.3,6.3-2.7,8.1l-24.2,14.3
		c2.2,6.1,4.8,12.1,8.3,17.9c11.4,19.2,28.3,33,47.7,40.4l-3.8-6.5c-1.8-3.1-0.8-7,2.2-8.8l118.7-70.1c3-1.8,7-0.8,8.8,2.3l3.8,6.5
		c2.7-20.6-1.2-42.1-12.4-61.3c-3.5-5.8-7.5-11.1-11.8-15.9l-24,14.3C837.8,635.3,834,634.7,832.5,632z M773.2,638.1
		c-1.7-2.7-0.3-6.3,2.7-8.1l26.5-15.7c3-1.8,6.8-1.2,8.5,1.7l12.8,21.4c1.7,2.7,0.3,6.3-2.7,8.1l-26.5,15.7c-3,1.8-6.8,1.2-8.5-1.7
		L773.2,638.1z M726.9,665.5c-1.7-2.7-0.3-6.3,2.7-8.1l26.5-15.7c3-1.8,6.8-1.2,8.5,1.7l12.6,21.4c1.7,2.7,0.3,6.3-2.7,8.1
		L748,688.5c-3,1.8-6.8,1.2-8.5-1.7L726.9,665.5z M779.1,720.7c1.7,2.7,0.3,6.3-2.7,8.1l-26.5,15.7c-3,1.8-6.8,1.2-8.5-1.7
		l-12.8-21.4c-1.7-2.7-0.3-6.3,2.7-8.1l26.5-15.7c3-1.8,6.8-1.2,8.5,1.7L779.1,720.7z M824.5,693.7c1.7,2.7,0.3,6.3-2.7,8.1
		l-26.5,15.7c-3,1.8-6.8,1.2-8.5-1.7L774,694.4c-1.7-2.7-0.3-6.3,2.7-8.1l26.5-15.7c3-1.8,6.8-1.2,8.3,1.7L824.5,693.7z
		 M858.5,644.8l12.8,21.4c1.7,2.7,0.3,6.3-2.7,8.1L842.1,690c-3,1.8-6.8,1.2-8.5-1.7L820.9,667c-1.7-2.7-0.3-6.3,2.7-8.1l26.5-15.7
		C853.2,641.3,856.9,641.9,858.5,644.8z"/>
	<path class="st2" d="M842.9,766.3c15.9-9.4,28.2-22.7,36.1-38.1l-86.9,51.4C809.5,780,827,775.7,842.9,766.3z"/>
</g>
<g class="st1">
	<path class="st2" d="M1023.5,444l-12.8-21.4c-1.7-2.7-0.3-6.3,2.7-8.1l10.3-6.1c-27.2-11.9-59.7-11.1-87.2,5.3
		c-27.5,16.2-43.9,44.1-46.6,73.8l10.3-6.1c3-1.8,6.8-1.2,8.5,1.7l12.8,21.4c1.7,2.7,0.3,6.3-2.7,8.1l-24.2,14.3
		c2.2,6.1,4.8,12.1,8.3,17.9c11.4,19.2,28.3,33,47.7,40.4l-3.8-6.5c-1.8-3.1-0.8-7,2.2-8.8l118.7-70.1c3-1.8,7-0.8,8.8,2.3l3.8,6.5
		c2.7-20.6-1.2-42.1-12.4-61.3c-3.5-5.8-7.5-11.1-11.8-15.9l-24,14.3C1028.8,447.3,1025,446.7,1023.5,444z M964.2,450.1
		c-1.7-2.7-0.3-6.3,2.7-8.1l26.5-15.7c3-1.8,6.8-1.2,8.5,1.7l12.8,21.4c1.7,2.7,0.3,6.3-2.7,8.1l-26.5,15.7c-3,1.8-6.8,1.2-8.5-1.7
		L964.2,450.1z M917.9,477.5c-1.7-2.7-0.3-6.3,2.7-8.1l26.5-15.7c3-1.8,6.8-1.2,8.5,1.7l12.6,21.4c1.7,2.7,0.3,6.3-2.7,8.1
		L939,500.5c-3,1.8-6.8,1.2-8.5-1.7L917.9,477.5z M970.1,532.7c1.7,2.7,0.3,6.3-2.7,8.1l-26.5,15.7c-3,1.8-6.8,1.2-8.5-1.7
		l-12.8-21.4c-1.7-2.7-0.3-6.3,2.7-8.1l26.5-15.7c3-1.8,6.8-1.2,8.5,1.7L970.1,532.7z M1015.5,505.7c1.7,2.7,0.3,6.3-2.7,8.1
		l-26.5,15.7c-3,1.8-6.8,1.2-8.5-1.7L965,506.4c-1.7-2.7-0.3-6.3,2.7-8.1l26.5-15.7c3-1.8,6.8-1.2,8.3,1.7L1015.5,505.7z
		 M1049.5,456.8l12.8,21.4c1.7,2.7,0.3,6.3-2.7,8.1l-26.5,15.7c-3,1.8-6.8,1.2-8.5-1.7l-12.8-21.4c-1.7-2.7-0.3-6.3,2.7-8.1
		l26.5-15.7C1044.2,453.3,1047.9,453.9,1049.5,456.8z"/>
	<path class="st2" d="M1033.9,578.3c15.9-9.4,28.2-22.7,36.1-38.1l-86.9,51.4C1000.5,592,1018,587.7,1033.9,578.3z"/>
</g>
<g class="st1">
	<path class="st2" d="M1224.5,246l-12.8-21.4c-1.7-2.7-0.3-6.3,2.7-8.1l10.3-6.1c-27.2-11.9-59.7-11.1-87.2,5.3
		c-27.5,16.2-43.9,44.1-46.6,73.8l10.3-6.1c3-1.8,6.8-1.2,8.5,1.7l12.8,21.4c1.7,2.7,0.3,6.3-2.7,8.1l-24.2,14.3
		c2.2,6.1,4.8,12.1,8.3,17.9c11.4,19.2,28.3,33,47.7,40.4l-3.8-6.5c-1.8-3.1-0.8-7,2.2-8.8l118.7-70.1c3-1.8,7-0.8,8.8,2.3l3.8,6.5
		c2.7-20.6-1.2-42.1-12.4-61.3c-3.5-5.8-7.5-11.1-11.8-15.9l-24,14.3C1229.8,249.3,1226,248.7,1224.5,246z M1165.2,252.1
		c-1.7-2.7-0.3-6.3,2.7-8.1l26.5-15.7c3-1.8,6.8-1.2,8.5,1.7l12.8,21.4c1.7,2.7,0.3,6.3-2.7,8.1l-26.5,15.7c-3,1.8-6.8,1.2-8.5-1.7
		L1165.2,252.1z M1118.9,279.5c-1.7-2.7-0.3-6.3,2.7-8.1l26.5-15.7c3-1.8,6.8-1.2,8.5,1.7l12.6,21.4c1.7,2.7,0.3,6.3-2.7,8.1
		l-26.5,15.7c-3,1.8-6.8,1.2-8.5-1.7L1118.9,279.5z M1171.1,334.7c1.7,2.7,0.3,6.3-2.7,8.1l-26.5,15.7c-3,1.8-6.8,1.2-8.5-1.7
		l-12.8-21.4c-1.7-2.7-0.3-6.3,2.7-8.1l26.5-15.7c3-1.8,6.8-1.2,8.5,1.7L1171.1,334.7z M1216.5,307.7c1.7,2.7,0.3,6.3-2.7,8.1
		l-26.5,15.7c-3,1.8-6.8,1.2-8.5-1.7l-12.8-21.4c-1.7-2.7-0.3-6.3,2.7-8.1l26.5-15.7c3-1.8,6.8-1.2,8.3,1.7L1216.5,307.7z
		 M1250.5,258.8l12.8,21.4c1.7,2.7,0.3,6.3-2.7,8.1l-26.5,15.7c-3,1.8-6.8,1.2-8.5-1.7l-12.8-21.4c-1.7-2.7-0.3-6.3,2.7-8.1
		l26.5-15.7C1245.2,255.3,1248.9,255.9,1250.5,258.8z"/>
	<path class="st2" d="M1234.9,380.3c15.9-9.4,28.2-22.7,36.1-38.1l-86.9,51.4C1201.5,394,1219,389.7,1234.9,380.3z"/>
</g>
<g class="st1">
	<path class="st2" d="M1236.5,629l-12.8-21.4c-1.7-2.7-0.3-6.3,2.7-8.1l10.3-6.1c-27.2-11.9-59.7-11.1-87.2,5.3
		c-27.5,16.2-43.9,44.1-46.6,73.8l10.3-6.1c3-1.8,6.8-1.2,8.5,1.7l12.8,21.4c1.7,2.7,0.3,6.3-2.7,8.1l-24.2,14.3
		c2.2,6.1,4.8,12.1,8.3,17.9c11.4,19.2,28.3,33,47.7,40.4l-3.8-6.5c-1.8-3.1-0.8-7,2.2-8.8l118.7-70.1c3-1.8,7-0.8,8.8,2.3l3.8,6.5
		c2.7-20.6-1.2-42.1-12.4-61.3c-3.5-5.8-7.5-11.1-11.8-15.9l-24,14.3C1241.8,632.3,1238,631.7,1236.5,629z M1177.2,635.1
		c-1.7-2.7-0.3-6.3,2.7-8.1l26.5-15.7c3-1.8,6.8-1.2,8.5,1.7l12.8,21.4c1.7,2.7,0.3,6.3-2.7,8.1l-26.5,15.7c-3,1.8-6.8,1.2-8.5-1.7
		L1177.2,635.1z M1130.9,662.5c-1.7-2.7-0.3-6.3,2.7-8.1l26.5-15.7c3-1.8,6.8-1.2,8.5,1.7l12.6,21.4c1.7,2.7,0.3,6.3-2.7,8.1
		l-26.5,15.7c-3,1.8-6.8,1.2-8.5-1.7L1130.9,662.5z M1183.1,717.7c1.7,2.7,0.3,6.3-2.7,8.1l-26.5,15.7c-3,1.8-6.8,1.2-8.5-1.7
		l-12.8-21.4c-1.7-2.7-0.3-6.3,2.7-8.1l26.5-15.7c3-1.8,6.8-1.2,8.5,1.7L1183.1,717.7z M1228.5,690.7c1.7,2.7,0.3,6.3-2.7,8.1
		l-26.5,15.7c-3,1.8-6.8,1.2-8.5-1.7l-12.8-21.4c-1.7-2.7-0.3-6.3,2.7-8.1l26.5-15.7c3-1.8,6.8-1.2,8.3,1.7L1228.5,690.7z
		 M1262.5,641.8l12.8,21.4c1.7,2.7,0.3,6.3-2.7,8.1l-26.5,15.7c-3,1.8-6.8,1.2-8.5-1.7l-12.8-21.4c-1.7-2.7-0.3-6.3,2.7-8.1
		l26.5-15.7C1257.2,638.3,1260.9,638.9,1262.5,641.8z"/>
	<path class="st2" d="M1246.9,763.3c15.9-9.4,28.2-22.7,36.1-38.1l-86.9,51.4C1213.5,777,1231,772.7,1246.9,763.3z"/>
</g>
</svg>
