<?xml version="1.0" encoding="utf-8"?>
<!-- Generator: Adobe Illustrator 21.1.0, SVG Export Plug-In . SVG Version: 6.00 Build 0)  -->
<svg version="1.1" id="Layer_1" xmlns="http://www.w3.org/2000/svg" xmlns:xlink="http://www.w3.org/1999/xlink" x="0px" y="0px"
	 viewBox="0 0 200 200" style="enable-background:new 0 0 200 200;" xml:space="preserve">
<style type="text/css">
	.st0{fill:#FFFFFF;}
	.st1{fill:#00A79D;}
</style>
<rect x="80.7" y="48.1" class="st0" width="9.7" height="9.7"/>
<rect x="66.2" y="62.6" class="st0" width="9.7" height="9.7"/>
<rect x="80.7" y="62.6" class="st0" width="9.7" height="9.7"/>
<rect x="95.2" y="62.6" class="st0" width="9.7" height="9.7"/>
<rect x="95.2" y="48.1" class="st0" width="9.7" height="9.7"/>
<circle class="st0" cx="115.3" cy="142.7" r="6.6"/>
<circle class="st0" cx="132.8" cy="129.6" r="6.6"/>
<polygon class="st0" points="82.5,118.7 73.8,118.7 73.8,131.8 60.7,131.8 60.7,140.5 73.8,140.5 73.8,153.6 82.5,153.6 82.5,140.5 
	95.6,140.5 95.6,131.8 82.5,131.8 "/>
<rect x="124.2" y="48.1" class="st0" width="9.7" height="9.7"/>
<path class="st0" d="M100,1.7c-54.3,0-98.3,44-98.3,98.3c0,54.3,44,98.3,98.3,98.3s98.3-44,98.3-98.3C198.3,45.7,154.3,1.7,100,1.7z
	 M148,153.6c0,4.8-3.9,8.7-8.7,8.7H60.7c-4.8,0-8.7-3.9-8.7-8.7v-34.9c0-4.8,3.9-8.7,8.7-8.7h78.6c4.8,0,8.7,3.9,8.7,8.7V153.6z
	 M148.3,91.6c0,5.3-4.3,9.7-9.7,9.7H61.3c-5.3,0-9.7-4.3-9.7-9.7l0-48.3c0-5.3,4.3-9.7,9.6-9.7h77.3c5.3,0,9.7,4.3,9.7,9.7V91.6z"/>
<rect x="124.2" y="62.6" class="st0" width="9.7" height="9.7"/>
<rect x="66.2" y="48.1" class="st0" width="9.7" height="9.7"/>
<rect x="109.7" y="62.6" class="st0" width="9.7" height="9.7"/>
<rect x="109.7" y="48.1" class="st0" width="9.7" height="9.7"/>
<rect x="80.7" y="81.9" class="st0" width="38.7" height="9.7"/>
</svg>
