<?xml version="1.0" encoding="utf-8"?>
<!-- Generator: Adobe Illustrator 21.1.0, SVG Export Plug-In . SVG Version: 6.00 Build 0)  -->
<svg version="1.1" id="Layer_1" xmlns="http://www.w3.org/2000/svg" xmlns:xlink="http://www.w3.org/1999/xlink" x="0px" y="0px"
	 viewBox="0 0 700 275" style="enable-background:new 0 0 700 275;" xml:space="preserve">
<style type="text/css">
	.st0{fill:#FFFFFF;}
	.st1{fill:none;}
	.st2{fill:#CCCCCC;}
	.st3{fill:#444444;}
	.st4{fill:#F9BF98;}
	.st5{opacity:0.85;}
	.st6{fill:#FFDAB5;}
	.st7{fill:#FCF0EB;}
</style>
<rect x="-44.5" y="-29.1" class="st0" width="801.5" height="347.4"/>
<path class="st1" d="M-7.6,85.4c-5.1-1.4-6.9,8.7-6.6,10.3c0,0,3.2,4.6,9.3,1.1C-4.9,96.8-3.8,86.5-7.6,85.4z"/>
<g id="Layer_2">
</g>
<path class="st2" d="M422,261H278c-10.7,0-19.5-8.8-19.5-19.5v-208c0-10.7,8.8-19.5,19.5-19.5h144c10.7,0,19.5,8.8,19.5,19.5v208
	C441.5,252.2,432.7,261,422,261z"/>
<path class="st0" d="M389.3,68.1v-32h31.6v32H389.3z"/>
<path class="st0" d="M315.6,68.1v-32h32v32H315.6z"/>
<path class="st0" d="M279.1,68.1v-32h32v32H279.1z"/>
<path class="st0" d="M351.9,68.1v-32h32.6v32H351.9z"/>
<path class="st0" d="M315.9,108.9v-32h32v32H315.9z"/>
<path class="st0" d="M279.4,108.9v-32h32v32H279.4z"/>
<path class="st0" d="M352.2,108.9v-32h32.6v32H352.2z"/>
<path class="st0" d="M315.9,148.9v-32h32v32H315.9z"/>
<path class="st0" d="M279.4,148.9v-32h32v32H279.4z"/>
<path class="st0" d="M352.2,148.9v-32h32.6v32H352.2z"/>
<path class="st0" d="M316.4,189.8v-32h32v32H316.4z"/>
<path class="st0" d="M279.9,189.8v-32h32v32H279.9z"/>
<path class="st0" d="M352.7,189.8v-32h32.6v32H352.7z"/>
<path class="st0" d="M279.4,229.7v-32.2h68.5v32L279.4,229.7L279.4,229.7z"/>
<path class="st0" d="M353.1,229.5v-32h32.6v32H353.1z"/>
<path class="st0" d="M422,149.3h-32V77.4h32V149.3z"/>
<path class="st0" d="M422.3,229.7h-32v-71.8h32V229.7z"/>
<g>
	<path class="st3" d="M290.8,49.8H290l-3.2-4.9v4.9H286v-6.4h0.8l3.2,5v-5h0.8V49.8z"/>
	<path class="st3" d="M295.1,49.3c-0.1,0.2-0.3,0.3-0.6,0.4c-0.2,0.1-0.5,0.1-0.8,0.1c-0.2,0-0.4,0-0.6-0.1s-0.4-0.2-0.5-0.3
		s-0.2-0.3-0.3-0.5c-0.1-0.2-0.1-0.5-0.1-0.8V45h0.8v3.1c0,0.2,0,0.4,0.1,0.5s0.1,0.2,0.2,0.3s0.2,0.1,0.3,0.2c0.1,0,0.2,0,0.3,0
		c0.3,0,0.6-0.1,0.8-0.2s0.3-0.3,0.4-0.5V45h0.8v4.8h-0.8L295.1,49.3z"/>
	<path class="st3" d="M297.9,45v0.5c0.2-0.2,0.4-0.3,0.6-0.5c0.2-0.1,0.5-0.2,0.8-0.2s0.6,0.1,0.8,0.2c0.2,0.1,0.4,0.3,0.5,0.6
		c0.2-0.2,0.4-0.4,0.6-0.6c0.3-0.1,0.6-0.2,0.9-0.2s0.5,0,0.7,0.1s0.4,0.2,0.5,0.3s0.2,0.3,0.3,0.5s0.1,0.5,0.1,0.8v3.1H303v-3.1
		c0-0.2,0-0.4-0.1-0.5c0-0.1-0.1-0.2-0.2-0.3s-0.2-0.1-0.3-0.2c-0.1,0-0.3,0-0.4,0c-0.2,0-0.3,0-0.4,0.1s-0.2,0.1-0.3,0.2
		c-0.1,0.1-0.2,0.2-0.2,0.3c-0.1,0.1-0.1,0.3-0.1,0.4v3.2h-1v-3.1c0-0.2,0-0.3-0.1-0.5c0-0.1-0.1-0.2-0.2-0.3s-0.2-0.1-0.3-0.2
		s-0.3-0.1-0.4-0.1c-0.3,0-0.5,0.1-0.7,0.2s-0.3,0.3-0.4,0.5v3.5h-0.8V45H297.9z"/>
	<path class="st3" d="M286.6,60.5h-0.8v-6.8h0.8V60.5z"/>
	<path class="st3" d="M287.7,58.1c0-0.3,0.1-0.7,0.2-1s0.2-0.5,0.4-0.8c0.2-0.2,0.4-0.4,0.7-0.5s0.6-0.2,0.9-0.2s0.6,0.1,0.9,0.2
		c0.3,0.1,0.5,0.3,0.7,0.5s0.3,0.5,0.4,0.8s0.1,0.6,0.1,1v0.1c0,0.3,0,0.7-0.1,1s-0.2,0.5-0.4,0.8c-0.2,0.2-0.4,0.4-0.7,0.5
		c-0.3,0.1-0.6,0.2-0.9,0.2s-0.6-0.1-0.9-0.2c-0.3-0.1-0.5-0.3-0.7-0.5s-0.3-0.5-0.4-0.8C287.8,58.9,287.7,58.6,287.7,58.1
		L287.7,58.1z M288.5,58.2c0,0.2,0,0.5,0.1,0.7s0.1,0.4,0.3,0.6c0.1,0.2,0.3,0.3,0.4,0.4c0.2,0.1,0.4,0.1,0.6,0.1s0.4,0,0.6-0.1
		s0.3-0.2,0.4-0.4s0.2-0.3,0.3-0.6c0.1-0.2,0.1-0.4,0.1-0.7v-0.1c0-0.2,0-0.5-0.1-0.7s-0.1-0.4-0.3-0.6c-0.1-0.2-0.3-0.3-0.4-0.4
		c-0.2-0.1-0.4-0.1-0.6-0.1s-0.4,0-0.6,0.1s-0.3,0.2-0.4,0.4s-0.2,0.3-0.3,0.6C288.6,57.7,288.5,57.9,288.5,58.2L288.5,58.2z"/>
	<path class="st3" d="M295,60c0.1,0,0.3,0,0.4-0.1s0.2-0.1,0.3-0.2c0.1-0.1,0.2-0.2,0.2-0.3c0.1-0.1,0.1-0.2,0.1-0.4h0.8
		c0,0.2-0.1,0.4-0.2,0.6c-0.1,0.2-0.2,0.4-0.4,0.5c-0.2,0.1-0.4,0.3-0.6,0.3c-0.2,0.1-0.5,0.1-0.7,0.1c-0.4,0-0.7-0.1-0.9-0.2
		c-0.3-0.1-0.5-0.3-0.7-0.5s-0.3-0.5-0.4-0.8s-0.1-0.6-0.1-0.9v-0.2c0-0.3,0-0.6,0.1-0.9c0.1-0.3,0.2-0.5,0.4-0.8s0.4-0.4,0.7-0.5
		c0.3-0.1,0.6-0.2,0.9-0.2s0.5,0,0.8,0.1c0.2,0.1,0.4,0.2,0.6,0.4s0.3,0.3,0.4,0.5s0.1,0.4,0.2,0.7h-0.8c0-0.1,0-0.3-0.1-0.4
		c-0.1-0.1-0.1-0.2-0.2-0.3s-0.2-0.2-0.3-0.2s-0.3-0.1-0.4-0.1c-0.3,0-0.5,0-0.6,0.1s-0.3,0.2-0.4,0.4s-0.2,0.3-0.2,0.5
		s-0.1,0.4-0.1,0.6V58c0,0.2,0,0.4,0.1,0.6s0.1,0.4,0.2,0.5s0.2,0.3,0.4,0.4S294.7,60,295,60z"/>
	<path class="st3" d="M299.1,58.3l-0.5,0.5v1.7h-0.8v-6.8h0.8v4.1l0.4-0.5l1.5-1.6h1l-1.9,2l2.1,2.8h-1L299.1,58.3z"/>
</g>
<g>
	<path class="st3" d="M330.1,55.5h-0.8l3-7.7h0.8L330.1,55.5z"/>
</g>
<g>
	<path class="st3" d="M367.5,50.1l-1.5-0.4l0.2-0.7l1.5,0.5v-1.7h0.7v1.7l1.5-0.5l0.2,0.7l-1.5,0.4l1,1.3l-0.6,0.5l-0.9-1.4
		l-0.9,1.4l-0.6-0.4L367.5,50.1z"/>
</g>
<g>
	<path class="st3" d="M406.3,52.2h-2.4v-0.7h2.4V52.2z"/>
</g>
<g>
	<path class="st3" d="M297.4,90.1l-2.9,6.6h-0.9l2.9-6.4h-3.8v-0.7h4.8v0.5H297.4z"/>
</g>
<g>
	<path class="st3" d="M334.2,91.5c0,0.4-0.1,0.7-0.3,0.9s-0.4,0.5-0.8,0.6c0.2,0.1,0.3,0.2,0.5,0.3s0.3,0.3,0.4,0.4s0.2,0.3,0.2,0.5
		s0.1,0.4,0.1,0.6c0,0.3-0.1,0.6-0.2,0.9s-0.3,0.5-0.5,0.6s-0.4,0.3-0.7,0.4s-0.6,0.1-0.9,0.1s-0.6,0-0.9-0.1s-0.5-0.2-0.7-0.4
		s-0.4-0.4-0.5-0.6s-0.2-0.5-0.2-0.9c0-0.2,0-0.4,0.1-0.6s0.1-0.3,0.2-0.5s0.2-0.3,0.4-0.4s0.3-0.2,0.5-0.3
		c-0.3-0.2-0.6-0.4-0.7-0.6s-0.3-0.6-0.3-0.9s0.1-0.6,0.2-0.8s0.2-0.4,0.4-0.6s0.4-0.3,0.7-0.4s0.5-0.1,0.8-0.1s0.6,0,0.8,0.1
		s0.5,0.2,0.7,0.4s0.3,0.4,0.4,0.6S334.2,91.1,334.2,91.5z M333.4,94.8c0-0.2,0-0.4-0.1-0.5s-0.2-0.3-0.3-0.4s-0.3-0.2-0.4-0.3
		s-0.4-0.1-0.6-0.1s-0.4,0-0.6,0.1s-0.3,0.2-0.4,0.3s-0.2,0.3-0.3,0.4s-0.1,0.3-0.1,0.5s0,0.4,0.1,0.5s0.2,0.3,0.3,0.4
		s0.3,0.2,0.4,0.3s0.4,0.1,0.6,0.1s0.4,0,0.6-0.1s0.3-0.1,0.4-0.3s0.2-0.2,0.3-0.4S333.4,95,333.4,94.8z M333.2,91.5
		c0-0.2,0-0.3-0.1-0.5s-0.1-0.3-0.2-0.4s-0.2-0.2-0.4-0.3s-0.3-0.1-0.5-0.1s-0.3,0-0.5,0.1s-0.3,0.1-0.4,0.2S331,90.8,331,91
		s-0.1,0.3-0.1,0.5s0,0.3,0.1,0.5s0.1,0.3,0.2,0.4s0.2,0.2,0.4,0.2s0.3,0.1,0.5,0.1s0.3,0,0.5-0.1s0.3-0.1,0.4-0.2s0.2-0.2,0.2-0.4
		S333.2,91.7,333.2,91.5z"/>
</g>
<g>
	<path class="st3" d="M367.5,96c0.5,0,0.9-0.1,1.2-0.2s0.6-0.3,0.8-0.5c0.2-0.2,0.3-0.5,0.4-0.8s0.1-0.6,0.1-0.9
		c-0.2,0.2-0.4,0.4-0.7,0.5c-0.3,0.1-0.5,0.2-0.9,0.2s-0.7-0.1-0.9-0.2c-0.3-0.1-0.5-0.3-0.6-0.5c-0.2-0.2-0.3-0.5-0.4-0.8
		s-0.1-0.6-0.1-0.9s0-0.7,0.1-1s0.2-0.6,0.4-0.8c0.2-0.2,0.4-0.4,0.7-0.5c0.3-0.1,0.6-0.2,1-0.2s0.8,0.1,1,0.2s0.5,0.4,0.7,0.7
		s0.3,0.6,0.4,0.9s0.1,0.7,0.1,1.1v0.3c0,0.3,0,0.6,0,0.9s-0.1,0.6-0.2,0.9s-0.2,0.6-0.4,0.8c-0.2,0.3-0.4,0.5-0.6,0.7
		s-0.6,0.3-0.9,0.5c-0.4,0.1-0.8,0.2-1.3,0.2h-0.1L367.5,96L367.5,96z M368.5,93.6c0.2,0,0.3,0,0.4-0.1s0.3-0.1,0.4-0.2
		s0.2-0.2,0.3-0.3c0.1-0.1,0.2-0.2,0.2-0.4v-0.4c0-0.3,0-0.6-0.1-0.9s-0.2-0.5-0.3-0.6c-0.1-0.2-0.3-0.3-0.4-0.4
		c-0.2-0.1-0.3-0.1-0.5-0.1s-0.4,0-0.6,0.1s-0.3,0.2-0.4,0.3c-0.1,0.1-0.2,0.3-0.3,0.5s-0.1,0.4-0.1,0.7c0,0.2,0,0.4,0.1,0.6
		s0.1,0.4,0.2,0.5c0.1,0.2,0.2,0.3,0.4,0.4C368.1,93.5,368.3,93.6,368.5,93.6z"/>
</g>
<g>
	<path class="st3" d="M296.7,135.1h1v0.7h-1v1.7h-0.9v-1.7h-3.2v-0.5l3.2-4.9h1v4.7H296.7z M293.5,135.1h2.2v-3.5l-0.1,0.2
		L293.5,135.1z"/>
</g>
<g>
	<path class="st3" d="M330.3,133.9l0.4-3.5h3.6v0.8h-2.9l-0.2,1.9c0.1-0.1,0.3-0.1,0.5-0.2s0.4-0.1,0.7-0.1c0.3,0,0.6,0.1,0.9,0.2
		s0.5,0.3,0.7,0.5s0.3,0.5,0.4,0.7s0.1,0.6,0.1,1c0,0.3,0,0.7-0.1,0.9s-0.2,0.5-0.4,0.7s-0.4,0.4-0.7,0.5s-0.6,0.2-1,0.2
		c-0.3,0-0.6,0-0.8-0.1s-0.5-0.2-0.7-0.4s-0.4-0.4-0.5-0.6s-0.2-0.5-0.2-0.9h0.9c0.1,0.4,0.2,0.7,0.4,0.9s0.5,0.3,0.9,0.3
		c0.2,0,0.4,0,0.6-0.1s0.3-0.2,0.4-0.3s0.2-0.3,0.3-0.5s0.1-0.4,0.1-0.7c0-0.2,0-0.4-0.1-0.6s-0.2-0.4-0.3-0.5s-0.3-0.3-0.4-0.3
		s-0.4-0.1-0.6-0.1s-0.3,0-0.4,0s-0.2,0.1-0.3,0.1s-0.2,0.1-0.2,0.1s-0.2,0.1-0.2,0.2L330.3,133.9z"/>
</g>
<g>
	<path class="st3" d="M370,130.4v0.8h-0.1c-0.4,0-0.8,0.1-1.1,0.2s-0.6,0.3-0.7,0.5s-0.3,0.5-0.4,0.7c-0.1,0.3-0.2,0.6-0.2,0.9
		c0.2-0.2,0.4-0.4,0.7-0.5c0.3-0.1,0.5-0.2,0.8-0.2c0.4,0,0.7,0.1,0.9,0.2c0.3,0.1,0.5,0.3,0.6,0.5s0.3,0.5,0.4,0.7
		c0.1,0.3,0.1,0.6,0.1,0.9c0,0.3,0,0.7-0.1,0.9c-0.1,0.3-0.2,0.6-0.4,0.8s-0.4,0.4-0.7,0.5s-0.6,0.2-1,0.2s-0.7-0.1-1-0.2
		c-0.3-0.2-0.5-0.4-0.7-0.6s-0.3-0.6-0.4-0.9c-0.1-0.3-0.1-0.7-0.1-1v-0.4c0-0.3,0-0.7,0.1-1c0-0.3,0.1-0.6,0.2-0.9
		c0.1-0.3,0.2-0.6,0.4-0.8c0.2-0.3,0.4-0.5,0.6-0.7c0.3-0.2,0.6-0.3,0.9-0.4S369.5,130.4,370,130.4L370,130.4z M368.8,133.6
		c-0.2,0-0.3,0-0.5,0.1s-0.3,0.1-0.4,0.2s-0.2,0.2-0.3,0.3s-0.2,0.2-0.2,0.4v0.3c0,0.3,0,0.6,0.1,0.8s0.2,0.4,0.3,0.6
		c0.1,0.2,0.3,0.3,0.4,0.4s0.3,0.1,0.5,0.1s0.4,0,0.6-0.1s0.3-0.2,0.4-0.3s0.2-0.3,0.3-0.5s0.1-0.4,0.1-0.7c0-0.2,0-0.4-0.1-0.6
		s-0.1-0.4-0.2-0.5s-0.2-0.3-0.4-0.4C369.2,133.6,369,133.6,368.8,133.6z"/>
</g>
<g>
	<path class="st3" d="M296.8,177.7h-0.9v-6l-1.8,0.7v-0.8l2.6-1h0.1L296.8,177.7L296.8,177.7z"/>
</g>
<g>
	<path class="st3" d="M334.5,177.7h-4.7V177l2.3-2.6c0.2-0.2,0.4-0.4,0.5-0.6c0.1-0.2,0.3-0.3,0.3-0.5s0.1-0.3,0.2-0.4s0-0.3,0-0.4
		c0-0.2,0-0.3-0.1-0.5s-0.1-0.3-0.2-0.4c-0.1-0.1-0.2-0.2-0.4-0.3c-0.2-0.1-0.3-0.1-0.5-0.1s-0.5,0-0.6,0.1
		c-0.2,0.1-0.3,0.2-0.4,0.3s-0.2,0.3-0.3,0.5c-0.1,0.2-0.1,0.4-0.1,0.6h-0.9c0-0.3,0-0.6,0.1-0.8c0.1-0.3,0.2-0.5,0.4-0.7
		c0.2-0.2,0.4-0.4,0.7-0.5c0.3-0.1,0.6-0.2,1-0.2c0.3,0,0.6,0,0.9,0.1s0.5,0.2,0.7,0.4s0.3,0.4,0.4,0.6s0.1,0.5,0.1,0.8
		c0,0.2,0,0.4-0.1,0.6c-0.1,0.2-0.2,0.4-0.3,0.6s-0.3,0.4-0.4,0.6c-0.2,0.2-0.3,0.4-0.5,0.6l-1.9,2.1h3.6v0.8H334.5z"/>
</g>
<g>
	<path class="st3" d="M367.8,173.7h0.6c0.2,0,0.4,0,0.6-0.1s0.3-0.1,0.4-0.3c0.1-0.1,0.2-0.2,0.3-0.4c0.1-0.1,0.1-0.3,0.1-0.5
		c0-0.4-0.1-0.7-0.3-0.9c-0.2-0.2-0.5-0.3-0.9-0.3c-0.2,0-0.4,0-0.5,0.1c-0.2,0.1-0.3,0.1-0.4,0.2c-0.1,0.1-0.2,0.2-0.3,0.4
		c-0.1,0.2-0.1,0.3-0.1,0.5h-0.9c0-0.3,0.1-0.5,0.2-0.8c0.1-0.2,0.3-0.4,0.4-0.6c0.2-0.2,0.4-0.3,0.7-0.4s0.6-0.2,0.9-0.2
		s0.6,0,0.9,0.1s0.5,0.2,0.7,0.4s0.3,0.4,0.4,0.6c0.1,0.3,0.2,0.5,0.2,0.9c0,0.1,0,0.3-0.1,0.4s-0.1,0.3-0.2,0.4
		c-0.1,0.1-0.2,0.3-0.3,0.4s-0.3,0.2-0.5,0.3c0.2,0.1,0.4,0.2,0.6,0.3s0.3,0.3,0.4,0.4c0.1,0.1,0.2,0.3,0.2,0.5s0.1,0.3,0.1,0.5
		c0,0.3-0.1,0.6-0.2,0.9c-0.1,0.3-0.3,0.5-0.5,0.7s-0.4,0.3-0.7,0.4s-0.6,0.1-0.9,0.1s-0.6,0-0.9-0.1s-0.5-0.2-0.7-0.4
		s-0.4-0.4-0.5-0.6c-0.1-0.2-0.2-0.5-0.2-0.8h0.9c0,0.2,0,0.4,0.1,0.5c0.1,0.2,0.2,0.3,0.3,0.4c0.1,0.1,0.3,0.2,0.4,0.3
		s0.4,0.1,0.6,0.1s0.4,0,0.6-0.1s0.3-0.1,0.4-0.2c0.1-0.1,0.2-0.2,0.3-0.4c0.1-0.2,0.1-0.4,0.1-0.6c0-0.2,0-0.4-0.1-0.6
		c-0.1-0.2-0.2-0.3-0.3-0.4c-0.1-0.1-0.3-0.2-0.5-0.2c-0.2-0.1-0.4-0.1-0.6-0.1H368v-0.8H367.8z"/>
</g>
<g>
	<path class="st3" d="M316.9,214.6c0,0.6-0.1,1.1-0.2,1.5s-0.3,0.7-0.4,1c-0.2,0.2-0.4,0.4-0.7,0.5s-0.6,0.2-0.9,0.2
		s-0.7-0.1-0.9-0.2s-0.5-0.3-0.7-0.5s-0.3-0.6-0.5-1c-0.1-0.4-0.2-0.9-0.2-1.5v-1.1c0-0.6,0.1-1.1,0.2-1.5s0.3-0.7,0.5-1
		c0.2-0.2,0.4-0.4,0.7-0.5c0.3-0.1,0.6-0.2,0.9-0.2s0.7,0.1,0.9,0.2c0.3,0.1,0.5,0.3,0.7,0.5s0.3,0.6,0.4,1s0.2,0.9,0.2,1.5V214.6z
		 M316,213.4c0-0.4,0-0.7-0.1-1s-0.1-0.5-0.3-0.7c-0.1-0.2-0.3-0.3-0.4-0.4s-0.4-0.1-0.6-0.1s-0.4,0-0.6,0.1s-0.3,0.2-0.4,0.4
		s-0.2,0.4-0.3,0.7c-0.1,0.3-0.1,0.6-0.1,1v1.4c0,0.4,0,0.7,0.1,1s0.1,0.5,0.3,0.7c0.1,0.2,0.3,0.3,0.4,0.4c0.2,0.1,0.4,0.1,0.6,0.1
		s0.4,0,0.6-0.1s0.3-0.2,0.4-0.4s0.2-0.4,0.3-0.7c0.1-0.3,0.1-0.6,0.1-1V213.4z"/>
</g>
<g>
	<path class="st3" d="M400.1,194.5h-2.8v2.3h3.2v0.7h-4.1v-6.4h4v0.7h-3.2v2.1h2.8v0.6H400.1z"/>
	<path class="st3" d="M402.2,192.7v0.6c0.2-0.2,0.4-0.4,0.6-0.5s0.5-0.2,0.8-0.2c0.2,0,0.4,0,0.6,0.1s0.3,0.2,0.5,0.3
		c0.1,0.1,0.2,0.3,0.3,0.5c0.1,0.2,0.1,0.5,0.1,0.8v3.1h-0.8v-3.1c0-0.2,0-0.3-0.1-0.5c0-0.1-0.1-0.2-0.2-0.3s-0.2-0.1-0.3-0.2
		c-0.1,0-0.3-0.1-0.4-0.1c-0.3,0-0.5,0.1-0.7,0.2s-0.4,0.3-0.5,0.6v3.4h-0.8v-4.8L402.2,192.7L402.2,192.7z"/>
	<path class="st3" d="M407.5,191.6v1.2h0.9v0.6h-0.9v2.9c0,0.1,0,0.2,0,0.3s0.1,0.1,0.1,0.2c0,0,0.1,0.1,0.2,0.1s0.1,0,0.2,0
		s0.1,0,0.2,0s0.1,0,0.2,0v0.7c-0.1,0-0.1,0-0.3,0.1s-0.2,0-0.4,0c-0.1,0-0.3,0-0.4-0.1c-0.1,0-0.3-0.1-0.3-0.2s-0.2-0.2-0.2-0.4
		c-0.1-0.2-0.1-0.4-0.1-0.6v-2.9h-0.9v-0.6h0.9v-1.2h0.8V191.6z"/>
	<path class="st3" d="M411.3,197.6c-0.3,0-0.6-0.1-0.9-0.2c-0.3-0.1-0.5-0.3-0.7-0.5s-0.3-0.4-0.4-0.7s-0.2-0.6-0.2-0.9v-0.2
		c0-0.4,0.1-0.7,0.2-1s0.3-0.6,0.5-0.8s0.4-0.4,0.7-0.5c0.2-0.1,0.5-0.2,0.8-0.2s0.6,0.1,0.9,0.2c0.2,0.1,0.4,0.3,0.6,0.5
		s0.3,0.5,0.4,0.7s0.1,0.6,0.1,0.9v0.4H410c0,0.2,0,0.4,0.1,0.6c0.1,0.2,0.2,0.4,0.3,0.5c0.1,0.1,0.3,0.3,0.4,0.3
		c0.2,0.1,0.4,0.1,0.6,0.1c0.3,0,0.5-0.1,0.7-0.2s0.4-0.3,0.5-0.5l0.5,0.4c-0.1,0.1-0.2,0.2-0.3,0.3c-0.1,0.1-0.2,0.2-0.4,0.3
		c-0.1,0.1-0.3,0.2-0.5,0.2S411.6,197.6,411.3,197.6z M411.2,193.3c-0.2,0-0.3,0-0.5,0.1c-0.1,0.1-0.3,0.1-0.4,0.3s-0.2,0.3-0.3,0.4
		c-0.1,0.2-0.1,0.4-0.1,0.6h2.4v-0.1c0-0.2,0-0.3-0.1-0.5c0-0.2-0.1-0.3-0.2-0.4c-0.1-0.1-0.2-0.2-0.3-0.3S411.4,193.3,411.2,193.3z
		"/>
	<path class="st3" d="M416.4,193.5c-0.1,0-0.1,0-0.2,0s-0.1,0-0.2,0c-0.3,0-0.5,0.1-0.7,0.2c-0.2,0.1-0.3,0.3-0.4,0.5v3.4h-0.8v-4.8
		h0.8v0.5c0.1-0.2,0.3-0.4,0.5-0.5s0.4-0.2,0.7-0.2c0.1,0,0.1,0,0.2,0s0.1,0,0.2,0v0.9H416.4z"/>
</g>
<g>
	<path class="st3" d="M406,113.1h2v0.9h-2v2.2h-0.9V114h-2v-0.9h2V111h0.9V113.1z"/>
</g>
<g>
	<path class="st4" d="M362.4,202.2c0,0-5.8,5.8-2.7,16.8C359.7,219.1,365.8,212.9,362.4,202.2z"/>
	<path class="st4" d="M335.9,201.6c0,0-5.5,7-1.4,17.8C334.4,219.4,340.3,211.9,335.9,201.6z"/>
	<path class="st4" d="M383.7,227.7c0,0,5.3-2.1,4.3-12.9C387.9,214.9,382.8,216.5,383.7,227.7z"/>
	<g>
		<g class="st5">
			<g>
				<path class="st6" d="M298.9,237.2L276,241c2.2,7.9,5,18.6,7.7,28.4c2.5,9.2,16.5,31.8,32.3,44.8l1.5,64.1
					c-0.4,7.8,7,14.8,16.1,15.5c0,0,27,3.4,31,3.7l5.6,0.2c9.2,0.4,17.2-18.2,17.3-26l-0.5-55c7.4-21.9,12.5-37.5,13.6-45
					c1.7-11.4,4.1-40.7,4.1-45.8c0.2-4.5,3.9-23.5,5.4-29.6c1-4.3-0.7-26.3-1.2-29.1c-1.8-8.8-13.9-9.9-14.9,0.6
					c0,1.2-2.5,23.5-2.5,23.5c-1.5,3.9-3.3,18.7-3.6,19.9c0-3.9,0.6-21.8,1.5-33.7c0.7-12.5-9-43.4-9.8-45.9
					c-2.5-9.9-17.7-11.5-18.3,0.9c0,1.2,6.5,25.1,5.1,41.8c-0.1,2.5-4,22.7-4.2,24.4c-0.1-3.3-0.5-24.7-0.9-30.4
					c-0.5-9-8.1-43.2-9.1-46c-5.2-13.9-18.4-9.8-20.7-1.5c-0.9,2.7,5.1,27.4,5.5,46.4c0.1,5.3-1.3,25.7-1.6,28.4
					c-1.2-4.1-9.8-21.4-10.8-26c-2-8.7-8-20.6-10.3-27c-5.1-14.6-15.8-20.5-19.2-7.4c-1.4,6.7-0.3,17.3,5.4,36.3
					c8.4,27.2,10.8,33.1,0.4,74.8C300.6,246,299.9,242.3,298.9,237.2z M312.5,143.3c0,0-4.8,5.6-13.8,0.8c0,0-2.7-11.5,3.3-12.6
					C309.3,129.8,312.8,141.3,312.5,143.3z M349.5,130.5c-0.1,0-5,5.6-14,0.7c0,0-1.6-13.2,4.3-14.3
					C347.3,115.4,349.8,128.5,349.5,130.5z M396.4,174.2c0,0-0.1-10.4,4.5-10.8c6-0.8,6.8,9.7,6.2,11.1
					C406.9,174.3,402.8,178.3,396.4,174.2z M387.9,214.9c1.1,10.8-4.3,12.9-4.3,12.9C382.8,216.5,387.9,214.9,387.9,214.9z
					 M379.3,139.1c0,0.1-4,5.6-12.6,1.7c0,0-2.9-12,2.4-13.6C375.8,125.2,379.5,137.3,379.3,139.1z M362.4,202.2
					c3.4,10.7-2.7,16.8-2.7,16.8C356.6,208,362.4,202.2,362.4,202.2z M335.9,201.6c4.4,10.3-1.5,17.8-1.4,17.8
					C330.4,208.6,335.9,201.6,335.9,201.6z"/>
			</g>
			<path class="st7" d="M312.5,143.3c0.3-2-3.2-13.4-10.5-11.7c-5.9,1.1-3.3,12.6-3.3,12.6C307.7,148.9,312.5,143.3,312.5,143.3z"/>
			<path class="st7" d="M349.5,130.5c0.3-2-2.2-15.1-9.6-13.6c-5.9,1.1-4.3,14.3-4.3,14.3C344.5,136.1,349.4,130.5,349.5,130.5z"/>
			<path class="st7" d="M379.3,139.1c0.2-1.8-3.5-13.9-10.2-12c-5.3,1.6-2.4,13.6-2.4,13.6C375.2,144.7,379.3,139.2,379.3,139.1z"/>
			<path class="st7" d="M396.4,174.2c6.5,4.2,10.6,0.1,10.7,0.3c0.6-1.4-0.3-11.9-6.2-11.1C396.2,163.8,396.4,174.2,396.4,174.2z"/>
			<path class="st6" d="M272.5,228.7c0,0,1.5,5,3.5,12.3l22.9-3.8c-3.4-16-11.5-46.8-25.1-41.4C267.2,198.4,274.2,208.6,272.5,228.7
				z M274.9,215.3c0,0-0.5-6.3-1.7-13.5c-0.3-0.6,0.4-1.7,1.7-0.8c2.3,1.8,5.9,6,2.2,14.2C275.8,218.1,274.9,215.3,274.9,215.3z"/>
		</g>
		<path class="st7" d="M277.1,215.2c3.8-8.2,0.2-12.4-2.2-14.2c-1.3-0.8-2,0.2-1.7,0.8c1.2,7.2,1.7,13.5,1.7,13.5
			S275.8,218.1,277.1,215.2z"/>
	</g>
</g>
</svg>
