<?xml version="1.0" encoding="utf-8"?>
<!-- Generator: Adobe Illustrator 21.1.0, SVG Export Plug-In . SVG Version: 6.00 Build 0)  -->
<svg version="1.1" id="Layer_1" xmlns="http://www.w3.org/2000/svg" xmlns:xlink="http://www.w3.org/1999/xlink" x="0px" y="0px"
	 viewBox="0 0 450 177" style="enable-background:new 0 0 450 177;" xml:space="preserve">
<style type="text/css">
	.st0{fill:#FFFFFF;}
	.st1{fill:#CCCCCC;}
	.st2{fill:#444444;}
	.st3{enable-background:new    ;}
	.st4{font-family:'Roboto-Regular';}
	.st5{font-size:6.1305px;}
	.st6{fill:#FFDAB5;}
	.st7{fill:none;}
	.st8{fill:#FCF0EB;}
	.st9{fill:#F9BF98;}
</style>
<rect class="st0" width="450" height="177"/>
<g>
	<path class="st1" d="M414.6,166.2H39.8c-4.7,0-8.5-3.8-8.5-8.5V13.5c0-4.7,3.8-8.5,8.5-8.5h374.7c4.7,0,8.5,3.8,8.5,8.5v144.2
		C423.1,162.4,419.3,166.2,414.6,166.2z"/>
</g>
<path class="st0" d="M46,149.6v-23.5h28.7v23.5H46z"/>
<path class="st0" d="M77.6,149.6v-23.5h20.9v23.5H77.6z"/>
<path class="st0" d="M101.5,149.6v-23.5h20.9v23.5H101.5z"/>
<path class="st0" d="M125.8,149.6v-23.5h154.8v23.5H125.8z"/>
<path class="st0" d="M283.6,149.6v-23.5h20.9v23.5H283.6z"/>
<path class="st0" d="M307.5,149.6v-23.5h20.9v23.5H307.5z"/>
<path class="st0" d="M46,120.9V100h39.2v20.9H46z"/>
<path class="st0" d="M46,94.8v-21h43.8v20.9L46,94.8L46,94.8z"/>
<path class="st0" d="M331.8,42.5V21.6h20.9v20.9H331.8z"/>
<path class="st0" d="M46,68.6V47.7h39.2v20.9H46z"/>
<path class="st0" d="M307.5,42.5V21.6h20.9v20.9H307.5z"/>
<path class="st0" d="M46,42.5V21.6h21.9v20.9H46z"/>
<path class="st0" d="M260.2,42.5V21.6h21.3v20.9H260.2z"/>
<path class="st0" d="M213.2,42.5V21.6h20.9v20.9H213.2z"/>
<path class="st0" d="M166.2,42.5V21.6h20.6v20.9H166.2z"/>
<path class="st0" d="M118.4,42.5V21.6h20.9v20.9H118.4z"/>
<path class="st0" d="M71.1,42.5V21.6H92v20.9H71.1z"/>
<path class="st0" d="M284,42.5V21.6h20.9v20.9H284z"/>
<path class="st0" d="M94.8,42.5V21.6h20.9v20.9H94.8z"/>
<path class="st0" d="M142.1,42.5V21.6h21.3v20.9H142.1z"/>
<path class="st0" d="M189.5,42.5V21.6h20.9v20.9H189.5z"/>
<path class="st0" d="M236.8,42.5V21.6h20.6v20.9H236.8z"/>
<path class="st0" d="M356.1,42.5V21.6h53.3v20.9H356.1z"/>
<g>
	<path class="st2" d="M50.2,59.6v0.8h0.6v0.4h-0.6v2c0,0.1,0,0.2,0,0.2s0,0.1,0.1,0.1c0,0,0.1,0,0.1,0.1h0.1h0.1c0.1,0,0.1,0,0.1,0
		v0.4c0,0-0.1,0-0.2,0c-0.1,0-0.2,0-0.3,0s-0.2,0-0.3,0s-0.2-0.1-0.2-0.1c-0.1-0.1-0.1-0.2-0.2-0.3c0-0.1-0.1-0.2-0.1-0.4v-2H49
		v-0.4h0.6v-0.8H50.2z"/>
	<path class="st2" d="M53.4,63.6c0,0,0-0.1,0-0.2c0-0.1,0-0.1,0-0.2c-0.1,0.1-0.1,0.1-0.2,0.2c-0.1,0-0.1,0.1-0.2,0.1
		c-0.1,0-0.2,0.1-0.3,0.1s-0.2,0-0.3,0c-0.2,0-0.3,0-0.5-0.1s-0.2-0.1-0.3-0.2c-0.1-0.1-0.2-0.2-0.2-0.3c-0.1-0.1-0.1-0.2-0.1-0.4
		s0-0.3,0.1-0.5s0.2-0.2,0.3-0.3s0.3-0.2,0.5-0.2s0.4-0.1,0.6-0.1h0.6v-0.3c0-0.2-0.1-0.3-0.2-0.5s-0.3-0.2-0.5-0.2
		c-0.1,0-0.2,0-0.3,0s-0.2,0.1-0.2,0.1c-0.1,0-0.1,0.1-0.1,0.2c0,0.1-0.1,0.1-0.1,0.2h-0.6c0-0.1,0-0.2,0.1-0.3s0.1-0.2,0.3-0.3
		s0.2-0.2,0.4-0.2c0.2-0.1,0.3-0.1,0.5-0.1s0.3,0,0.5,0.1c0.1,0,0.3,0.1,0.4,0.2s0.2,0.2,0.2,0.3c0.1,0.1,0.1,0.3,0.1,0.5v1.5
		c0,0.1,0,0.2,0,0.3s0,0.2,0.1,0.3l0,0h-0.6V63.6z M52.5,63.2c0.1,0,0.2,0,0.3,0s0.2-0.1,0.2-0.1s0.1-0.1,0.2-0.2
		c0.1-0.1,0.1-0.1,0.1-0.2V62h-0.5c-0.3,0-0.6,0-0.7,0.1c-0.2,0.1-0.3,0.2-0.3,0.4c0,0.1,0,0.2,0,0.2s0.1,0.1,0.1,0.2S52,63,52.1,63
		C52.3,63.2,52.4,63.2,52.5,63.2z"/>
	<path class="st2" d="M57.5,62.1c0,0.2,0,0.5-0.1,0.7s-0.1,0.4-0.2,0.5c-0.1,0.1-0.2,0.3-0.4,0.3c-0.2,0.1-0.3,0.1-0.5,0.1
		s-0.4,0-0.6-0.1c-0.2-0.1-0.3-0.2-0.4-0.3v0.4h-0.5V59h0.6v1.7c0.1-0.1,0.2-0.2,0.4-0.3s0.3-0.1,0.5-0.1s0.4,0,0.5,0.1
		c0.2,0.1,0.3,0.2,0.4,0.3c0.1,0.1,0.2,0.3,0.2,0.5C57.5,61.5,57.5,61.7,57.5,62.1L57.5,62.1z M57,62c0-0.2,0-0.3,0-0.5
		c0-0.1-0.1-0.3-0.1-0.4s-0.2-0.2-0.3-0.3s-0.2-0.1-0.4-0.1c-0.1,0-0.2,0-0.3,0s-0.2,0.1-0.2,0.1s-0.1,0.1-0.2,0.2s-0.1,0.1-0.1,0.2
		v1.4c0,0.1,0.1,0.1,0.1,0.2c0,0.1,0.1,0.1,0.2,0.2c0.1,0,0.1,0.1,0.2,0.1c0.1,0,0.2,0,0.3,0s0.3,0,0.4-0.1c0.1-0.1,0.2-0.1,0.3-0.3
		c0.1-0.1,0.1-0.2,0.1-0.4C56.9,62.4,57,62.2,57,62L57,62z"/>
</g>
<g>
	<path class="st2" d="M50.7,89.9c0.1,0,0.2,0,0.3,0s0.2-0.1,0.2-0.1c0.1-0.1,0.1-0.1,0.2-0.2c0-0.1,0.1-0.2,0.1-0.2H52
		c0,0.1,0,0.3-0.1,0.4s-0.2,0.2-0.3,0.3c-0.1,0.1-0.3,0.2-0.4,0.2c-0.2,0.1-0.3,0.1-0.5,0.1s-0.5,0-0.6-0.1s-0.3-0.2-0.5-0.4
		c-0.1-0.1-0.2-0.3-0.3-0.5s-0.1-0.4-0.1-0.6v-0.1c0-0.2,0-0.4,0.1-0.6s0.1-0.4,0.3-0.5c0.1-0.1,0.3-0.3,0.4-0.4s0.4-0.1,0.6-0.1
		c0.2,0,0.4,0,0.5,0.1c0.2,0.1,0.3,0.1,0.4,0.2c0.1,0.1,0.2,0.2,0.3,0.4S52,88,52,88.2h-0.5c0-0.1,0-0.2-0.1-0.3s-0.1-0.2-0.2-0.2
		s-0.1-0.1-0.2-0.2c-0.1,0-0.2-0.1-0.3-0.1c-0.2,0-0.3,0-0.4,0.1c-0.1,0.1-0.2,0.2-0.3,0.3s-0.1,0.2-0.1,0.4c0,0.1,0,0.3,0,0.4v0.1
		c0,0.1,0,0.3,0,0.4s0.1,0.3,0.1,0.4c0.1,0.1,0.2,0.2,0.3,0.3C50.4,89.9,50.6,89.9,50.7,89.9z"/>
	<path class="st2" d="M54.6,90.3c0,0,0-0.1,0-0.2s0-0.1,0-0.2c-0.1,0.1-0.1,0.1-0.2,0.2c-0.1,0-0.1,0.1-0.2,0.1s-0.2,0.1-0.3,0.1
		s-0.2,0-0.3,0c-0.2,0-0.3,0-0.5-0.1c-0.1,0-0.2-0.1-0.3-0.2s-0.2-0.2-0.2-0.3c-0.1-0.1-0.1-0.2-0.1-0.4c0-0.2,0-0.3,0.1-0.5
		s0.2-0.2,0.3-0.3c0.1-0.1,0.3-0.2,0.5-0.2s0.4-0.1,0.6-0.1h0.6v-0.3c0-0.2-0.1-0.3-0.2-0.5s-0.3-0.2-0.5-0.2c-0.1,0-0.2,0-0.3,0
		s-0.2,0.1-0.2,0.1c-0.1,0-0.1,0.1-0.1,0.2s-0.1,0.1-0.1,0.2h-0.6c0-0.1,0-0.2,0.1-0.3s0.1-0.2,0.3-0.3s0.2-0.2,0.4-0.2
		c0.2-0.1,0.3-0.1,0.5-0.1s0.3,0,0.5,0.1c0.1,0,0.3,0.1,0.4,0.2s0.2,0.2,0.2,0.3c0.1,0.1,0.1,0.3,0.1,0.5v1.5c0,0.1,0,0.2,0,0.3
		c0,0.1,0,0.2,0.1,0.3l0,0h-0.6V90.3z M53.7,89.9c0.1,0,0.2,0,0.3,0s0.2-0.1,0.2-0.1s0.1-0.1,0.2-0.2s0.1-0.1,0.1-0.2v-0.7H54
		c-0.3,0-0.6,0-0.7,0.1C53.1,88.9,53,89,53,89.2c0,0.1,0,0.2,0,0.2c0,0.1,0.1,0.1,0.1,0.2s0.1,0.1,0.2,0.1
		C53.5,89.9,53.6,89.9,53.7,89.9z"/>
	<path class="st2" d="M58.7,88.7c0,0.2,0,0.5-0.1,0.7s-0.1,0.4-0.2,0.5c-0.1,0.1-0.2,0.3-0.4,0.3s-0.3,0.1-0.5,0.1s-0.4,0-0.5-0.1
		c-0.2-0.1-0.3-0.2-0.4-0.3v1.6H56V87h0.5v0.4c0.1-0.1,0.2-0.2,0.4-0.3s0.3-0.1,0.5-0.1s0.4,0,0.5,0.1c0.2,0.1,0.3,0.2,0.4,0.3
		c0.1,0.1,0.2,0.3,0.2,0.5C58.7,88.2,58.7,88.4,58.7,88.7L58.7,88.7z M58.2,88.7c0-0.2,0-0.3-0.1-0.5c0-0.1-0.1-0.3-0.2-0.4
		s-0.2-0.2-0.3-0.3c-0.1-0.1-0.2-0.1-0.4-0.1c-0.1,0-0.2,0-0.3,0s-0.1,0.1-0.2,0.1s-0.1,0.1-0.2,0.1c0,0.1-0.1,0.1-0.1,0.2v1.5
		c0,0.1,0.1,0.1,0.1,0.2s0.1,0.1,0.2,0.1c0.1,0,0.1,0.1,0.2,0.1c0.1,0,0.2,0,0.3,0s0.3,0,0.4-0.1c0.1-0.1,0.2-0.1,0.3-0.3
		c0.1-0.1,0.1-0.2,0.2-0.4C58.1,89,58.2,88.9,58.2,88.7L58.2,88.7z"/>
	<path class="st2" d="M61.3,89.4c0-0.1,0-0.1,0-0.2s-0.1-0.1-0.1-0.1c-0.1,0-0.1-0.1-0.2-0.1c-0.1,0-0.2-0.1-0.4-0.1
		s-0.3-0.1-0.5-0.1c-0.1-0.1-0.3-0.1-0.4-0.2c-0.1-0.1-0.2-0.2-0.2-0.3c-0.1-0.1-0.1-0.2-0.1-0.4c0-0.1,0-0.2,0.1-0.4
		c0.1-0.1,0.1-0.2,0.2-0.3c0.1-0.1,0.2-0.2,0.4-0.2c0.1-0.1,0.3-0.1,0.5-0.1s0.4,0,0.5,0.1c0.2,0.1,0.3,0.1,0.4,0.2s0.2,0.2,0.2,0.3
		c0.1,0.1,0.1,0.3,0.1,0.4h-0.6c0-0.1,0-0.1,0-0.2s-0.1-0.1-0.1-0.2c-0.1-0.1-0.1-0.1-0.2-0.1c-0.1,0-0.2,0-0.3,0s-0.2,0-0.3,0
		s-0.1,0.1-0.2,0.1c-0.1,0-0.1,0.1-0.1,0.2s0,0.1,0,0.2s0,0.1,0,0.2l0.1,0.1c0.1,0,0.1,0.1,0.2,0.1c0.1,0,0.2,0.1,0.4,0.1
		s0.4,0.1,0.5,0.2s0.3,0.1,0.4,0.2c0.1,0.1,0.2,0.2,0.2,0.3c0,0.1,0.1,0.2,0.1,0.3c0,0.1,0,0.3-0.1,0.4s-0.1,0.2-0.3,0.3
		c-0.1,0.1-0.2,0.2-0.4,0.2s-0.3,0.1-0.5,0.1s-0.4,0-0.6-0.1c-0.2-0.1-0.3-0.1-0.4-0.2c-0.1-0.1-0.2-0.2-0.3-0.3
		c-0.1-0.1-0.1-0.3-0.1-0.4h0.6c0,0.1,0,0.2,0.1,0.3s0.1,0.1,0.2,0.2c0.1,0,0.2,0.1,0.2,0.1s0.2,0,0.3,0s0.2,0,0.3,0
		s0.2-0.1,0.2-0.1c0.1,0,0.1-0.1,0.1-0.1C61.3,89.6,61.3,89.5,61.3,89.4z"/>
	<path class="st2" d="M64.7,90.3h-0.6v-4.6h0.6V90.3z"/>
	<path class="st2" d="M65.4,88.7c0-0.2,0-0.5,0.1-0.7s0.2-0.4,0.3-0.5c0.1-0.1,0.3-0.3,0.5-0.3c0.2-0.1,0.4-0.1,0.6-0.1
		s0.4,0,0.6,0.1s0.3,0.2,0.5,0.3c0.1,0.1,0.2,0.3,0.3,0.5c0.1,0.2,0.1,0.4,0.1,0.7v0.1c0,0.2,0,0.5-0.1,0.7S68.1,89.9,68,90
		s-0.3,0.3-0.5,0.3c-0.2,0.1-0.4,0.1-0.6,0.1s-0.4,0-0.6-0.1S66,90.1,65.8,90c-0.1-0.1-0.2-0.3-0.3-0.5C65.5,89.2,65.4,89,65.4,88.7
		L65.4,88.7z M66,88.7c0,0.2,0,0.3,0.1,0.5c0,0.1,0.1,0.3,0.2,0.4s0.2,0.2,0.3,0.3C66.7,90,66.8,90,67,90s0.3,0,0.4-0.1
		s0.2-0.2,0.3-0.3s0.1-0.2,0.2-0.4c0-0.1,0.1-0.3,0.1-0.5v-0.1c0-0.2,0-0.3-0.1-0.5c0-0.1-0.1-0.3-0.2-0.4s-0.2-0.2-0.3-0.3
		c-0.1-0.1-0.3-0.1-0.4-0.1c-0.2,0-0.3,0-0.4,0.1s-0.2,0.2-0.3,0.3c-0.1,0.1-0.1,0.2-0.2,0.4S66,88.5,66,88.7L66,88.7z"/>
	<path class="st2" d="M70.4,89.9c0.1,0,0.2,0,0.3,0c0.1,0,0.2-0.1,0.2-0.1c0.1-0.1,0.1-0.1,0.2-0.2c0-0.1,0.1-0.2,0.1-0.2h0.5
		c0,0.1,0,0.3-0.1,0.4s-0.2,0.2-0.3,0.3c-0.1,0.1-0.3,0.2-0.4,0.2c-0.2,0.1-0.3,0.1-0.5,0.1s-0.5,0-0.6-0.1s-0.3-0.2-0.5-0.4
		c-0.1-0.1-0.2-0.3-0.3-0.5c-0.1-0.2-0.1-0.4-0.1-0.6v-0.1c0-0.2,0-0.4,0.1-0.6s0.1-0.4,0.3-0.5c0.1-0.1,0.3-0.3,0.4-0.4
		s0.4-0.1,0.6-0.1s0.4,0,0.5,0.1c0.2,0.1,0.3,0.1,0.4,0.2s0.2,0.2,0.3,0.4s0.1,0.3,0.1,0.5h-0.5c0-0.1,0-0.2-0.1-0.3
		s-0.1-0.2-0.2-0.2s-0.1-0.1-0.2-0.2c-0.1,0-0.2-0.1-0.3-0.1c-0.2,0-0.3,0-0.4,0.1s-0.2,0.2-0.3,0.3s-0.1,0.2-0.1,0.4
		c0,0.1,0,0.3,0,0.4v0.1c0,0.1,0,0.3,0,0.4s0.1,0.3,0.1,0.4c0.1,0.1,0.2,0.2,0.3,0.3C70.1,89.9,70.2,89.9,70.4,89.9z"/>
	<path class="st2" d="M73.2,88.8l-0.3,0.4v1.1h-0.6v-4.6h0.6v2.8l0.3-0.4l1-1.1h0.7l-1.3,1.4l1.4,1.9h-0.6L73.2,88.8z"/>
</g>
<g>
	<path class="st2" d="M51.3,116.4c0-0.1,0-0.1,0-0.2s-0.1-0.1-0.1-0.1c-0.1,0-0.1-0.1-0.2-0.1c-0.1,0-0.2-0.1-0.4-0.1
		s-0.3-0.1-0.5-0.1s-0.3-0.1-0.4-0.2c-0.1-0.1-0.2-0.2-0.2-0.3c-0.1-0.1-0.1-0.2-0.1-0.3c0-0.1,0-0.2,0.1-0.4
		c0.1-0.1,0.1-0.2,0.2-0.3c0.1-0.1,0.2-0.2,0.4-0.2c0.1-0.1,0.3-0.1,0.5-0.1s0.4,0,0.5,0.1s0.3,0.1,0.4,0.2s0.2,0.2,0.2,0.3
		c0.1,0.1,0.1,0.3,0.1,0.4h-0.6c0-0.1,0-0.1,0-0.2s-0.1-0.1-0.1-0.2c-0.1-0.1-0.1-0.1-0.2-0.1c-0.1,0-0.2,0-0.3,0s-0.2,0-0.3,0
		s-0.1,0.1-0.2,0.1s-0.1,0.1-0.1,0.2s0,0.1,0,0.2s0,0.1,0,0.2l0.1,0.1c0.1,0,0.1,0.1,0.2,0.1c0.1,0,0.2,0.1,0.4,0.1s0.4,0.1,0.5,0.2
		s0.3,0.1,0.4,0.2c0.1,0.1,0.2,0.2,0.2,0.3c0,0.1,0.1,0.2,0.1,0.3c0,0.1,0,0.3-0.1,0.4s-0.1,0.2-0.3,0.3c-0.1,0.1-0.2,0.1-0.4,0.2
		c-0.2,0-0.3,0.1-0.5,0.1s-0.4,0-0.6-0.1c-0.2-0.1-0.3-0.1-0.4-0.2s-0.2-0.2-0.3-0.3c-0.1-0.1-0.1-0.3-0.1-0.4h0.6
		c0,0.1,0,0.2,0.1,0.3s0.1,0.1,0.2,0.2s0.2,0.1,0.2,0.1c0.1,0,0.2,0,0.3,0s0.2,0,0.3,0s0.2-0.1,0.2-0.1c0.1,0,0.1-0.1,0.1-0.1
		C51.3,116.6,51.3,116.5,51.3,116.4z"/>
	<path class="st2" d="M53.1,114.4c0.1-0.1,0.3-0.3,0.4-0.3c0.2-0.1,0.3-0.1,0.5-0.1s0.3,0,0.4,0.1c0.1,0,0.2,0.1,0.3,0.2
		s0.2,0.2,0.2,0.4c0,0.1,0.1,0.3,0.1,0.5v2.1h-0.6v-2.1c0-0.1,0-0.2,0-0.3c0-0.1-0.1-0.2-0.1-0.2c-0.1-0.1-0.1-0.1-0.2-0.1
		c-0.1,0-0.2,0-0.3,0c-0.2,0-0.3,0-0.5,0.1c-0.1,0.1-0.2,0.2-0.3,0.4v2.3h-0.6v-4.6H53L53.1,114.4L53.1,114.4z"/>
	<path class="st2" d="M56,113.2c0-0.1,0-0.2,0.1-0.2c0.1-0.1,0.1-0.1,0.2-0.1c0.1,0,0.2,0,0.2,0.1c0.1,0.1,0.1,0.1,0.1,0.2
		s0,0.2-0.1,0.2c-0.1,0.1-0.1,0.1-0.2,0.1c-0.1,0-0.2,0-0.2-0.1C56,113.3,56,113.3,56,113.2z M56.6,117.3H56V114h0.6V117.3z"/>
	<path class="st2" d="M57.7,117.3v-2.8h-0.5V114h0.5v-0.3c0-0.2,0-0.3,0.1-0.5s0.1-0.2,0.2-0.3c0.1-0.1,0.2-0.2,0.3-0.2
		s0.3-0.1,0.4-0.1c0.1,0,0.3,0,0.4,0.1v0.4H59c-0.1,0-0.1,0-0.2,0c-0.2,0-0.3,0.1-0.4,0.2c-0.1,0.1-0.1,0.3-0.1,0.5v0.3H59v0.4h-0.7
		v2.8H57.7z"/>
	<path class="st2" d="M60.3,113.3v0.8h0.6v0.4h-0.6v2c0,0.1,0,0.2,0,0.2c0,0.1,0,0.1,0.1,0.1c0,0,0.1,0,0.1,0.1s0.1,0,0.1,0h0.1h0.1
		v0.4c0,0-0.1,0-0.2,0c-0.1,0-0.2,0-0.3,0s-0.2,0-0.3,0s-0.2-0.1-0.2-0.1c-0.1-0.1-0.1-0.2-0.2-0.3c0-0.1-0.1-0.2-0.1-0.4v-2h-0.6
		V114h0.6v-0.8h0.8C60.3,113.2,60.3,113.3,60.3,113.3z"/>
</g>
<g>
	<path class="st2" d="M50.7,144.7c0.1,0,0.2,0,0.3,0s0.2-0.1,0.2-0.1c0.1-0.1,0.1-0.1,0.2-0.2c0-0.1,0.1-0.2,0.1-0.3H52
		c0,0.1,0,0.3-0.1,0.4s-0.2,0.2-0.3,0.3s-0.3,0.2-0.4,0.2s-0.3,0.1-0.5,0.1s-0.5,0-0.6-0.1s-0.3-0.2-0.5-0.4
		c-0.1-0.1-0.2-0.3-0.3-0.5s-0.1-0.4-0.1-0.6v-0.1c0-0.2,0-0.4,0.1-0.6c0.1-0.2,0.1-0.4,0.3-0.5c0.1-0.1,0.3-0.3,0.4-0.4
		c0.2-0.1,0.4-0.1,0.6-0.1c0.2,0,0.4,0,0.5,0.1c0.2,0.1,0.3,0.1,0.4,0.2s0.2,0.2,0.3,0.4c0.1,0.1,0.1,0.3,0.1,0.5h-0.5
		c0-0.1,0-0.2-0.1-0.3s-0.1-0.2-0.2-0.2c-0.1-0.1-0.1-0.1-0.2-0.2s-0.2-0.1-0.3-0.1c-0.2,0-0.3,0-0.4,0.1c-0.1,0.1-0.2,0.2-0.3,0.3
		s-0.1,0.2-0.1,0.4s0,0.3,0,0.4v0.1c0,0.1,0,0.3,0,0.4s0.1,0.3,0.1,0.4c0.1,0.1,0.2,0.2,0.3,0.3C50.4,144.7,50.6,144.7,50.7,144.7z"
		/>
	<path class="st2" d="M53.4,141.1v0.8H54v0.4h-0.6v2c0,0.1,0,0.2,0,0.2c0,0.1,0,0.1,0.1,0.1c0,0,0.1,0,0.1,0.1s0.1,0,0.1,0h0.1h0.1
		v0.4c0,0-0.1,0-0.2,0c-0.1,0-0.2,0-0.3,0s-0.2,0-0.3,0s-0.2-0.1-0.2-0.1c-0.1-0.1-0.1-0.2-0.2-0.3c0-0.1-0.1-0.2-0.1-0.4v-2H52
		v-0.4h0.6v-0.8H53.4z"/>
	<path class="st2" d="M56.2,142.3L56.2,142.3H56c-0.2,0-0.3,0-0.5,0.1c-0.1,0.1-0.2,0.2-0.3,0.3v2.3h-0.6v-3.2h0.5v0.4
		c0.1-0.1,0.2-0.2,0.3-0.3s0.3-0.1,0.5-0.1H56c0.1,0,0.1,0,0.1,0L56.2,142.3L56.2,142.3z"/>
	<path class="st2" d="M57.3,145.1h-0.6v-4.6h0.6V145.1z"/>
</g>
<g>
	<path class="st2" d="M59.3,28.4c0,0.2,0,0.3-0.1,0.4s-0.1,0.3-0.2,0.4s-0.2,0.2-0.3,0.2c-0.1,0.1-0.2,0.1-0.4,0.1
		c-0.1,0-0.2,0-0.2,0c-0.1,0-0.1,0-0.2-0.1c-0.1,0-0.1-0.1-0.2-0.1c-0.1-0.1-0.1-0.1-0.2-0.2c-0.1-0.1-0.2-0.2-0.3-0.2
		c-0.1-0.1-0.2-0.1-0.3-0.1c-0.2,0-0.3,0.1-0.4,0.2c-0.1,0.1-0.1,0.3-0.1,0.4h-0.5c0-0.2,0-0.3,0.1-0.4s0.1-0.2,0.2-0.3
		s0.2-0.2,0.3-0.2s0.2-0.1,0.4-0.1c0.1,0,0.2,0,0.2,0c0.1,0,0.2,0,0.2,0.1c0.1,0,0.1,0.1,0.2,0.1s0.1,0.1,0.2,0.2
		c0.1,0.1,0.1,0.1,0.2,0.1L58,29c0,0,0.1,0,0.1,0.1h0.1c0.1,0,0.1,0,0.2,0c0.1,0,0.1-0.1,0.2-0.1c0-0.1,0.1-0.1,0.1-0.2s0-0.2,0-0.3
		L59.3,28.4z"/>
	<path class="st2" d="M58.1,34.4h-0.5l-0.8-0.9h0.7L58.1,34.4z"/>
</g>
<g>
	<path class="st2" d="M81.1,30.5c0-0.1,0-0.2,0.1-0.2c0.1-0.1,0.1-0.1,0.2-0.1s0.2,0,0.2,0.1c0.1,0.1,0.1,0.1,0.1,0.2s0,0.2-0.1,0.2
		c-0.1,0.1-0.1,0.1-0.2,0.1s-0.2,0-0.2-0.1C81.1,30.6,81.1,30.6,81.1,30.5z M81.6,29.5h-0.5v-3.1h0.6L81.6,29.5z"/>
	<path class="st2" d="M81.8,38.1h-0.6v-3.7l-1.1,0.4v-0.5l1.6-0.6h0.1V38.1z"/>
</g>
<g>
	<path class="st2" d="M107.3,29.2c0,0.1,0,0.2,0,0.4c0,0.1-0.1,0.2-0.1,0.4c0,0.1-0.1,0.2-0.2,0.3c-0.1,0.1-0.1,0.2-0.2,0.3
		s-0.2,0.1-0.3,0.2s-0.2,0.1-0.4,0.1c-0.2,0-0.3,0-0.5-0.1s-0.2-0.2-0.3-0.4c-0.1,0.2-0.2,0.3-0.4,0.4c-0.1,0.1-0.3,0.1-0.4,0.1
		s-0.3,0-0.4-0.1s-0.2-0.2-0.3-0.3s-0.1-0.3-0.1-0.4s0-0.3,0-0.5c0-0.3,0.1-0.5,0.2-0.7s0.2-0.4,0.3-0.5c0.1-0.1,0.2-0.3,0.4-0.3
		c0.1-0.1,0.3-0.1,0.4-0.1s0.2,0,0.3,0c0.1,0,0.2,0,0.2,0.1s0.1,0.1,0.2,0.1s0.1,0.1,0.2,0.1l-0.2,1.7c0,0.1,0,0.3,0,0.4
		s0,0.2,0.1,0.2l0.1,0.1c0.1,0,0.1,0,0.1,0c0.1,0,0.2,0,0.3-0.1s0.2-0.1,0.2-0.3s0.1-0.2,0.2-0.4c0-0.1,0.1-0.3,0.1-0.5
		c0-0.4,0-0.7-0.1-1s-0.2-0.5-0.3-0.8c-0.2-0.2-0.4-0.4-0.6-0.5c-0.3-0.1-0.5-0.2-0.9-0.2c-0.3,0-0.6,0.1-0.9,0.2s-0.5,0.3-0.7,0.5
		s-0.3,0.5-0.4,0.8s-0.2,0.6-0.2,1s0,0.7,0.1,1s0.2,0.6,0.4,0.8c0.2,0.2,0.4,0.4,0.6,0.5s0.5,0.2,0.8,0.2c0.1,0,0.2,0,0.3,0
		s0.2,0,0.3,0s0.2,0,0.2-0.1c0.1,0,0.1-0.1,0.2-0.1l0.1,0.3c-0.1,0-0.1,0.1-0.2,0.1s-0.2,0.1-0.3,0.1s-0.2,0-0.3,0.1
		c-0.1,0-0.2,0-0.3,0c-0.4,0-0.7-0.1-1-0.2c-0.3-0.1-0.5-0.3-0.7-0.6c-0.2-0.2-0.4-0.5-0.4-0.9s-0.1-0.7-0.1-1.2
		c0-0.4,0.1-0.8,0.2-1.1c0.1-0.3,0.3-0.6,0.5-0.9s0.5-0.5,0.8-0.6s0.6-0.2,1-0.2s0.7,0.1,1,0.2s0.5,0.3,0.7,0.6
		c0.2,0.2,0.3,0.5,0.4,0.9C107.3,28.4,107.3,28.8,107.3,29.2z M104.2,29.5c0,0.3,0,0.5,0.1,0.7s0.2,0.2,0.4,0.2c0.1,0,0.1,0,0.2,0
		s0.1-0.1,0.2-0.1s0.1-0.1,0.2-0.2s0.1-0.2,0.1-0.3l0,0l0.1-1.5c0,0-0.1,0-0.2-0.1c-0.1,0-0.1,0-0.2,0s-0.2,0-0.3,0.1
		c-0.1,0.1-0.2,0.1-0.3,0.3c-0.1,0.1-0.1,0.3-0.2,0.4C104.3,29.1,104.2,29.3,104.2,29.5z"/>
	<path class="st2" d="M106.3,38.1h-2.9v-0.4l1.4-1.6c0.1-0.1,0.2-0.3,0.3-0.4c0.1-0.1,0.2-0.2,0.2-0.3c0.1-0.1,0.1-0.2,0.1-0.3
		s0-0.2,0-0.2c0-0.1,0-0.2-0.1-0.3s-0.1-0.2-0.1-0.2c-0.1-0.1-0.1-0.1-0.2-0.2s-0.2-0.1-0.3-0.1c-0.1,0-0.3,0-0.4,0.1
		c-0.1,0-0.2,0.1-0.3,0.2s-0.1,0.2-0.2,0.3c0,0.1-0.1,0.2-0.1,0.4h-0.6c0-0.2,0-0.4,0.1-0.5s0.2-0.3,0.3-0.4
		c0.1-0.1,0.3-0.2,0.4-0.3c0.2-0.1,0.4-0.1,0.6-0.1s0.4,0,0.6,0.1s0.3,0.1,0.4,0.2c0.1,0.1,0.2,0.2,0.3,0.4c0.1,0.1,0.1,0.3,0.1,0.5
		c0,0.1,0,0.3-0.1,0.4s-0.1,0.3-0.2,0.4s-0.2,0.3-0.3,0.4c-0.1,0.1-0.2,0.3-0.3,0.4l-1.2,1.3h2.2v0.2
		C106,38.1,106.3,38.1,106.3,38.1z"/>
</g>
<g>
	<path class="st2" d="M129.1,29.5h-0.8l-0.2,1.2h-0.4l0.2-1.2h-0.7v-0.4h0.8l0.2-1.1h-0.8v-0.4h0.9l0.2-1.2h0.4l-0.2,1.2h0.8
		l0.2-1.2h0.4l-0.2,1.2h0.6V28h-0.7l-0.2,1.1h0.7v0.4h-0.8l-0.2,1.2h-0.4L129.1,29.5z M128.4,29.1h0.8l0.2-1.1h-0.8L128.4,29.1z"/>
	<path class="st2" d="M128.3,35.7h0.4c0.1,0,0.3,0,0.4-0.1c0.1,0,0.2-0.1,0.3-0.2s0.1-0.1,0.2-0.2c0-0.1,0.1-0.2,0.1-0.3
		c0-0.2-0.1-0.4-0.2-0.6c-0.1-0.1-0.3-0.2-0.6-0.2c-0.1,0-0.2,0-0.3,0.1c-0.1,0-0.2,0.1-0.2,0.1s-0.1,0.1-0.2,0.2
		c0,0.1-0.1,0.2-0.1,0.3h-0.6c0-0.2,0-0.3,0.1-0.5c0.1-0.1,0.2-0.3,0.3-0.4s0.3-0.2,0.4-0.3c0.2-0.1,0.3-0.1,0.5-0.1s0.4,0,0.5,0.1
		s0.3,0.1,0.4,0.2c0.1,0.1,0.2,0.2,0.3,0.4s0.1,0.3,0.1,0.5c0,0.1,0,0.2,0,0.3s-0.1,0.2-0.1,0.3c-0.1,0.1-0.1,0.2-0.2,0.2
		c-0.1,0.1-0.2,0.1-0.3,0.2c0.1,0,0.3,0.1,0.4,0.2c0.1,0.1,0.2,0.2,0.2,0.3c0.1,0.1,0.1,0.2,0.1,0.3s0,0.2,0,0.3
		c0,0.2,0,0.4-0.1,0.5s-0.2,0.3-0.3,0.4c-0.1,0.1-0.3,0.2-0.4,0.2c-0.2,0.1-0.4,0.1-0.5,0.1c-0.2,0-0.4,0-0.5-0.1
		c-0.2-0.1-0.3-0.1-0.4-0.2c-0.1-0.1-0.2-0.2-0.3-0.4c-0.1-0.2-0.1-0.3-0.1-0.5h0.6c0,0.1,0,0.2,0.1,0.3s0.1,0.2,0.2,0.2
		s0.2,0.1,0.3,0.2c0.1,0,0.2,0.1,0.3,0.1s0.2,0,0.3,0s0.2-0.1,0.3-0.2s0.1-0.2,0.2-0.3c0-0.1,0.1-0.2,0.1-0.4s0-0.3-0.1-0.4
		c0-0.1-0.1-0.2-0.2-0.2c-0.1-0.1-0.2-0.1-0.3-0.1s-0.2,0-0.4,0h-0.4v-0.3C128.6,35.7,128.3,35.7,128.3,35.7z"/>
</g>
<g>
	<path class="st2" d="M153.6,29.6c0-0.1,0-0.2,0-0.2c0-0.1-0.1-0.1-0.1-0.2s-0.2-0.1-0.3-0.2s-0.2-0.1-0.4-0.2s-0.4-0.1-0.5-0.2
		c-0.2-0.1-0.3-0.2-0.4-0.3c-0.1-0.1-0.2-0.2-0.2-0.4c-0.1-0.1-0.1-0.3-0.1-0.5s0-0.3,0.1-0.5c0-0.1,0.1-0.3,0.2-0.4
		s0.2-0.2,0.3-0.2s0.3-0.1,0.4-0.1v-0.7h0.4v0.7c0.3,0,0.6,0.2,0.8,0.4c0.2,0.2,0.3,0.6,0.3,1h-0.6c0-0.1,0-0.3,0-0.4
		s-0.1-0.2-0.1-0.3c-0.1-0.1-0.1-0.1-0.2-0.2s-0.2-0.1-0.3-0.1s-0.2,0-0.3,0.1c-0.1,0-0.2,0.1-0.2,0.1c-0.1,0.1-0.1,0.1-0.1,0.2
		s0,0.2,0,0.3c0,0.1,0,0.2,0,0.3c0,0.1,0.1,0.1,0.1,0.2c0.1,0.1,0.2,0.1,0.3,0.2s0.2,0.1,0.4,0.2s0.4,0.1,0.5,0.2s0.3,0.2,0.4,0.3
		c0.1,0.1,0.2,0.2,0.2,0.4c0.1,0.1,0.1,0.3,0.1,0.5s0,0.3-0.1,0.5c-0.1,0.1-0.1,0.3-0.2,0.4c-0.1,0.1-0.2,0.2-0.4,0.2
		c-0.1,0.1-0.3,0.1-0.5,0.1v0.6h-0.4v-0.6c-0.2,0-0.3,0-0.4-0.1c-0.1-0.1-0.3-0.1-0.4-0.2c-0.1-0.1-0.2-0.2-0.3-0.4
		c-0.1-0.2-0.1-0.4-0.1-0.6h0.6c0,0.2,0,0.3,0.1,0.4c0,0.1,0.1,0.2,0.2,0.3c0.1,0.1,0.2,0.1,0.3,0.1s0.2,0,0.3,0s0.3,0,0.4,0
		c0.1,0,0.2-0.1,0.3-0.1c0.1-0.1,0.1-0.1,0.2-0.2C153.6,29.8,153.6,29.7,153.6,29.6z"/>
	<path class="st2" d="M153.7,36.6h0.6v0.5h-0.6v1h-0.6v-1h-2v-0.3l2-3h0.6V36.6z M151.8,36.6h1.4v-2.1l-0.1,0.1L151.8,36.6z"/>
</g>
<g>
	<path class="st2" d="M174.5,27.2c0-0.1,0-0.2,0.1-0.3c0-0.1,0.1-0.2,0.2-0.3s0.2-0.1,0.3-0.2c0.1,0,0.2-0.1,0.4-0.1
		c0.1,0,0.3,0,0.4,0.1s0.2,0.1,0.3,0.2s0.1,0.2,0.2,0.3c0,0.1,0.1,0.2,0.1,0.3v0.2c0,0.1,0,0.2-0.1,0.3c0,0.1-0.1,0.2-0.2,0.3
		c-0.1,0.1-0.2,0.1-0.3,0.2c-0.1,0-0.2,0.1-0.4,0.1c-0.1,0-0.3,0-0.4-0.1c-0.1,0-0.2-0.1-0.3-0.2s-0.1-0.2-0.2-0.3
		c0-0.1-0.1-0.2-0.1-0.3V27.2z M174.9,27.5c0,0.1,0,0.1,0,0.2s0,0.1,0.1,0.2s0.1,0.1,0.2,0.1c0.1,0,0.1,0,0.2,0c0.1,0,0.1,0,0.2,0
		s0.1-0.1,0.1-0.1s0.1-0.1,0.1-0.2s0-0.1,0-0.2v-0.2c0-0.1,0-0.1,0-0.2s0-0.1-0.1-0.2l-0.1-0.1c-0.1,0-0.1,0-0.2,0
		c-0.1,0-0.2,0-0.2,0c-0.1,0-0.1,0.1-0.1,0.1L175,27c0,0,0,0.1,0,0.2v0.3H174.9z M175.5,30.4l-0.3-0.2l2.1-3.4l0.3,0.2L175.5,30.4z
		 M176.6,29.7c0-0.1,0-0.2,0.1-0.3c0-0.1,0.1-0.2,0.2-0.3c0.1-0.1,0.2-0.1,0.3-0.2s0.2-0.1,0.4-0.1c0.1,0,0.3,0,0.4,0.1
		c0.1,0,0.2,0.1,0.3,0.2s0.1,0.2,0.2,0.3c0,0.1,0.1,0.2,0.1,0.3v0.2c0,0.1,0,0.2-0.1,0.3c0,0.1-0.1,0.2-0.2,0.3
		c-0.1,0.1-0.2,0.1-0.3,0.2c-0.1,0-0.2,0.1-0.4,0.1c-0.1,0-0.3,0-0.4-0.1s-0.2-0.1-0.3-0.2s-0.1-0.2-0.2-0.3s-0.1-0.2-0.1-0.3V29.7z
		 M177,29.9c0,0.1,0,0.1,0,0.2s0,0.1,0.1,0.2c0,0,0.1,0.1,0.2,0.1s0.1,0,0.2,0c0.1,0,0.1,0,0.2,0c0.1,0,0.1-0.1,0.1-0.1
		s0.1-0.1,0.1-0.2s0-0.1,0-0.2v-0.2c0-0.1,0-0.1,0-0.2s0-0.1-0.1-0.2s-0.1-0.1-0.1-0.1c-0.1,0-0.1,0-0.2,0c-0.1,0-0.1,0-0.2,0
		s-0.1,0.1-0.1,0.1s-0.1,0.1-0.1,0.2s0,0.1,0,0.2L177,29.9L177,29.9z"/>
	<path class="st2" d="M175.3,35.9l0.2-2.2h2.2v0.5H176l-0.1,1.2c0.1,0,0.2-0.1,0.3-0.1s0.3-0.1,0.4-0.1c0.2,0,0.4,0,0.5,0.1
		c0.2,0.1,0.3,0.2,0.4,0.3c0.1,0.1,0.2,0.3,0.3,0.5s0.1,0.4,0.1,0.6c0,0.2,0,0.4-0.1,0.6c-0.1,0.2-0.1,0.3-0.3,0.5
		c-0.1,0.1-0.3,0.2-0.4,0.3c-0.2,0.1-0.4,0.1-0.6,0.1c-0.2,0-0.3,0-0.5-0.1c-0.2,0-0.3-0.1-0.4-0.2c-0.1-0.1-0.2-0.2-0.3-0.4
		s-0.1-0.3-0.1-0.5h0.5c0,0.2,0.1,0.4,0.3,0.6c0.1,0.1,0.3,0.2,0.6,0.2c0.1,0,0.2,0,0.4-0.1c0.1,0,0.2-0.1,0.3-0.2
		c0.1-0.1,0.1-0.2,0.2-0.3c0-0.1,0.1-0.3,0.1-0.4c0-0.1,0-0.3-0.1-0.4c0-0.1-0.1-0.2-0.2-0.3c-0.1-0.1-0.2-0.2-0.3-0.2
		s-0.2-0.1-0.4-0.1c-0.1,0-0.2,0-0.2,0c-0.1,0-0.1,0-0.2,0.1s-0.1,0.1-0.1,0.1l-0.1,0.1L175.3,35.9z"/>
</g>
<g>
	<path class="st2" d="M199.9,27.1l-0.6,1.4h-0.5l0.9-2.2h0.4l0.9,2.2h-0.5L199.9,27.1z"/>
	<path class="st2" d="M200.8,33.7v0.5h-0.1c-0.3,0-0.5,0-0.7,0.1s-0.3,0.2-0.5,0.3c-0.1,0.1-0.2,0.3-0.3,0.5s-0.1,0.3-0.1,0.5
		c0.1-0.1,0.3-0.2,0.4-0.3c0.2-0.1,0.3-0.1,0.5-0.1s0.4,0,0.6,0.1c0.2,0.1,0.3,0.2,0.4,0.3c0.1,0.1,0.2,0.3,0.2,0.5s0.1,0.3,0.1,0.5
		s0,0.4-0.1,0.6c-0.1,0.2-0.1,0.3-0.3,0.5s-0.3,0.2-0.4,0.3c-0.2,0.1-0.4,0.1-0.6,0.1c-0.2,0-0.4,0-0.6-0.1
		c-0.2-0.1-0.3-0.2-0.4-0.4c-0.1-0.2-0.2-0.3-0.3-0.5s-0.1-0.4-0.1-0.6v-0.3c0-0.2,0-0.4,0-0.6s0.1-0.4,0.1-0.6
		c0.1-0.2,0.1-0.4,0.2-0.5c0.1-0.2,0.2-0.3,0.4-0.4s0.3-0.2,0.6-0.3S200.4,33.7,200.8,33.7L200.8,33.7z M200,35.7
		c-0.1,0-0.2,0-0.3,0s-0.2,0.1-0.2,0.1c-0.1,0.1-0.1,0.1-0.2,0.2c-0.1,0.1-0.1,0.2-0.1,0.2v0.2c0,0.2,0,0.4,0.1,0.5s0.1,0.3,0.2,0.4
		c0.1,0.1,0.2,0.2,0.3,0.2c0.1,0.1,0.2,0.1,0.3,0.1s0.2,0,0.3-0.1c0.1,0,0.2-0.1,0.3-0.2c0.1-0.1,0.1-0.2,0.2-0.3
		c0-0.1,0.1-0.3,0.1-0.4c0-0.1,0-0.3,0-0.4c0-0.1-0.1-0.2-0.1-0.3s-0.1-0.2-0.2-0.2C200.3,35.7,200.2,35.7,200,35.7z"/>
</g>
<g>
	<path class="st2" d="M222,29.6c0-0.1,0-0.3,0.1-0.4c0-0.1,0.1-0.2,0.2-0.3c0.1-0.1,0.2-0.2,0.3-0.3c0.1-0.1,0.2-0.2,0.3-0.3
		c-0.1-0.1-0.1-0.2-0.2-0.3c-0.1-0.1-0.1-0.2-0.2-0.2c0-0.1-0.1-0.2-0.1-0.2c0-0.1,0-0.2,0-0.3c0-0.2,0-0.3,0.1-0.5s0.1-0.2,0.2-0.3
		s0.2-0.2,0.3-0.2s0.3-0.1,0.4-0.1c0.2,0,0.3,0,0.4,0.1s0.2,0.1,0.3,0.2s0.2,0.2,0.2,0.3s0.1,0.2,0.1,0.4c0,0.1,0,0.2,0,0.3
		c0,0.1-0.1,0.2-0.1,0.2s-0.1,0.1-0.2,0.2s-0.2,0.1-0.2,0.2l-0.3,0.2l1,1.2c0.1-0.1,0.1-0.3,0.1-0.4s0.1-0.3,0.1-0.5h0.5
		c0,0.2,0,0.5-0.1,0.7s-0.2,0.4-0.3,0.6l0.6,0.7h-0.7l-0.3-0.3c-0.1,0.1-0.2,0.1-0.2,0.2s-0.2,0.1-0.3,0.1s-0.2,0.1-0.3,0.1
		s-0.2,0-0.3,0c-0.2,0-0.4,0-0.6-0.1c-0.2-0.1-0.3-0.1-0.4-0.3c-0.1-0.1-0.2-0.2-0.3-0.4C222.1,29.9,222,29.8,222,29.6z M223.4,30.4
		c0.1,0,0.3,0,0.4-0.1c0.1-0.1,0.3-0.1,0.4-0.2l-1.1-1.3l-0.1,0.1c-0.1,0.1-0.2,0.2-0.3,0.2s-0.1,0.1-0.1,0.2s-0.1,0.1-0.1,0.2
		s0,0.1,0,0.1c0,0.1,0,0.2,0.1,0.3c0,0.1,0.1,0.2,0.2,0.2c0.1,0.1,0.2,0.1,0.3,0.2C223.2,30.3,223.3,30.4,223.4,30.4z M222.9,27.4
		c0,0.1,0,0.2,0.1,0.3s0.1,0.2,0.3,0.4l0.3-0.2c0.1,0,0.1-0.1,0.2-0.1s0.1-0.1,0.1-0.1s0.1-0.1,0.1-0.2s0-0.1,0-0.2s0-0.1,0-0.2
		s-0.1-0.1-0.1-0.1s-0.1-0.1-0.2-0.1s-0.1,0-0.2,0c-0.1,0-0.2,0-0.2,0c-0.1,0-0.1,0.1-0.2,0.1c0,0.1-0.1,0.1-0.1,0.2
		S222.9,27.3,222.9,27.4z"/>
	<path class="st2" d="M225.1,34.1l-1.8,4h-0.6l1.8-3.9h-2.4v-0.5h2.9v0.4H225.1z"/>
</g>
<g>
	<path class="st2" d="M246.8,27.8l-0.9-0.3L246,27l0.9,0.3v-1h0.5v1l0.9-0.3l0.1,0.5l-0.9,0.3l0.6,0.8l-0.4,0.3l-0.6-0.9l-0.5,0.8
		l-0.4-0.3L246.8,27.8z"/>
	<path class="st2" d="M248.4,34.9c0,0.2-0.1,0.4-0.2,0.6c-0.1,0.2-0.3,0.3-0.5,0.4c0.1,0,0.2,0.1,0.3,0.2s0.2,0.2,0.2,0.2
		c0.1,0.1,0.1,0.2,0.1,0.3s0.1,0.2,0.1,0.3c0,0.2,0,0.4-0.1,0.5c-0.1,0.2-0.2,0.3-0.3,0.4c-0.1,0.1-0.3,0.2-0.4,0.2
		s-0.4,0.1-0.5,0.1c-0.2,0-0.4,0-0.5-0.1c-0.2-0.1-0.3-0.1-0.4-0.2c-0.1-0.1-0.2-0.2-0.3-0.4s-0.1-0.3-0.1-0.5c0-0.1,0-0.2,0.1-0.3
		c0-0.1,0.1-0.2,0.1-0.3s0.1-0.2,0.2-0.2s0.2-0.1,0.3-0.2c-0.2-0.1-0.3-0.2-0.5-0.4c-0.1-0.2-0.2-0.4-0.2-0.6c0-0.2,0-0.4,0.1-0.5
		s0.2-0.3,0.3-0.4c0.1-0.1,0.3-0.2,0.4-0.2c0.2-0.1,0.3-0.1,0.5-0.1s0.4,0,0.5,0.1c0.2,0.1,0.3,0.1,0.4,0.2c0.1,0.1,0.2,0.2,0.3,0.4
		C248.4,34.5,248.4,34.7,248.4,34.9z M248,36.9c0-0.1,0-0.2-0.1-0.3c0-0.1-0.1-0.2-0.2-0.3c-0.1-0.1-0.2-0.1-0.3-0.2
		c-0.1,0-0.2-0.1-0.3-0.1s-0.2,0-0.3,0.1s-0.2,0.1-0.3,0.2c-0.1,0.1-0.1,0.2-0.2,0.3c0,0.1-0.1,0.2-0.1,0.3s0,0.2,0.1,0.3
		c0,0.1,0.1,0.2,0.2,0.3c0.1,0.1,0.2,0.1,0.3,0.2c0.1,0,0.2,0.1,0.3,0.1s0.2,0,0.3-0.1c0.1,0,0.2-0.1,0.3-0.2
		c0.1-0.1,0.1-0.2,0.2-0.3S248,37,248,36.9z M247.9,34.9c0-0.1,0-0.2-0.1-0.3s-0.1-0.2-0.1-0.2c-0.1-0.1-0.1-0.1-0.2-0.2
		c-0.1,0-0.2-0.1-0.3-0.1s-0.2,0-0.3,0.1c-0.1,0-0.2,0.1-0.2,0.1c-0.1,0.1-0.1,0.1-0.2,0.2s-0.1,0.2-0.1,0.3s0,0.2,0.1,0.3
		s0.1,0.2,0.1,0.2c0.1,0.1,0.1,0.1,0.2,0.1c0.1,0,0.2,0.1,0.3,0.1s0.2,0,0.3-0.1c0.1,0,0.2-0.1,0.2-0.1c0.1-0.1,0.1-0.1,0.1-0.2
		S247.9,35,247.9,34.9z"/>
</g>
<g>
	<path class="st2" d="M270.2,29c0-0.3,0-0.6,0.1-0.8s0.1-0.5,0.2-0.7s0.2-0.4,0.3-0.6c0.1-0.2,0.2-0.3,0.3-0.5
		c0.1-0.1,0.2-0.3,0.3-0.3c0.1-0.1,0.2-0.2,0.3-0.2l0.1,0.4c-0.1,0.1-0.2,0.2-0.4,0.4c-0.1,0.2-0.2,0.4-0.3,0.6s-0.2,0.5-0.2,0.8
		c-0.1,0.3-0.1,0.6-0.1,1l0,0c0,0.4,0,0.7,0.1,1s0.1,0.6,0.2,0.8s0.2,0.4,0.3,0.6c0.1,0.2,0.2,0.3,0.4,0.4l-0.1,0.3
		c-0.1-0.1-0.2-0.1-0.3-0.2s-0.2-0.2-0.3-0.3c-0.1-0.1-0.2-0.3-0.3-0.5c-0.1-0.2-0.2-0.4-0.3-0.6c-0.1-0.2-0.1-0.4-0.2-0.7
		S270.2,29.3,270.2,29L270.2,29z"/>
	<path class="st2" d="M270.1,37.6c0.3,0,0.5,0,0.7-0.1s0.3-0.2,0.5-0.3c0.1-0.1,0.2-0.3,0.2-0.5s0.1-0.4,0.1-0.5
		c-0.1,0.1-0.3,0.2-0.4,0.3c-0.2,0.1-0.3,0.1-0.5,0.1s-0.4,0-0.6-0.1s-0.3-0.2-0.4-0.3s-0.2-0.3-0.2-0.5s-0.1-0.3-0.1-0.5
		s0-0.4,0.1-0.6c0.1-0.2,0.1-0.3,0.3-0.5c0.1-0.1,0.3-0.2,0.4-0.3c0.2-0.1,0.4-0.1,0.6-0.1s0.5,0.1,0.6,0.2s0.3,0.2,0.4,0.4
		s0.2,0.4,0.2,0.6c0.1,0.2,0.1,0.4,0.1,0.6v0.2c0,0.2,0,0.4,0,0.6c0,0.2-0.1,0.4-0.1,0.6s-0.1,0.4-0.2,0.5s-0.2,0.3-0.4,0.4
		c-0.2,0.1-0.3,0.2-0.6,0.3c-0.2,0.1-0.5,0.1-0.8,0.1l0,0L270.1,37.6L270.1,37.6z M270.7,36.2c0.1,0,0.2,0,0.3,0
		c0.1,0,0.2-0.1,0.2-0.1c0.1-0.1,0.1-0.1,0.2-0.2c0.1-0.1,0.1-0.1,0.1-0.2v-0.2c0-0.2,0-0.4-0.1-0.5s-0.1-0.3-0.2-0.4
		c-0.1-0.1-0.2-0.2-0.3-0.2c-0.1-0.1-0.2-0.1-0.3-0.1c-0.1,0-0.2,0-0.3,0.1c-0.1,0.1-0.2,0.1-0.3,0.2c-0.1,0.1-0.1,0.2-0.2,0.3
		c0,0.1-0.1,0.3-0.1,0.4c0,0.1,0,0.3,0,0.4c0,0.1,0.1,0.2,0.1,0.3c0.1,0.1,0.1,0.2,0.2,0.2C270.5,36.2,270.6,36.2,270.7,36.2z"/>
</g>
<g>
	<path class="st2" d="M295.1,29c0,0.3,0,0.6-0.1,0.8s-0.1,0.5-0.2,0.7s-0.2,0.4-0.3,0.6s-0.2,0.3-0.3,0.5c-0.1,0.1-0.2,0.3-0.3,0.3
		c-0.1,0.1-0.2,0.2-0.3,0.2l-0.1-0.3c0.1-0.1,0.2-0.2,0.4-0.4c0.1-0.2,0.2-0.4,0.3-0.6c0.1-0.2,0.2-0.5,0.2-0.8
		c0.1-0.3,0.1-0.6,0.1-1l0,0c0-0.4,0-0.7-0.1-1s-0.2-0.6-0.3-0.8c-0.1-0.2-0.2-0.4-0.3-0.6s-0.2-0.3-0.3-0.4l0.1-0.3
		c0.1,0.1,0.2,0.1,0.3,0.2c0.1,0.1,0.2,0.2,0.3,0.3c0.1,0.1,0.2,0.3,0.3,0.5s0.2,0.4,0.3,0.6c0.1,0.2,0.1,0.5,0.2,0.7
		S295.1,28.7,295.1,29L295.1,29z"/>
	<path class="st2" d="M295.9,36.2c0,0.4,0,0.7-0.1,0.9s-0.2,0.4-0.3,0.6c-0.1,0.2-0.3,0.3-0.4,0.3c-0.2,0.1-0.4,0.1-0.6,0.1
		s-0.4,0-0.6-0.1s-0.3-0.2-0.4-0.3c-0.1-0.2-0.2-0.3-0.3-0.6c-0.1-0.2-0.1-0.5-0.1-0.9v-0.7c0-0.4,0-0.7,0.1-0.9s0.2-0.4,0.3-0.6
		c0.1-0.1,0.3-0.3,0.4-0.3c0.2-0.1,0.4-0.1,0.6-0.1s0.4,0,0.6,0.1s0.3,0.2,0.4,0.3s0.2,0.3,0.3,0.6c0.1,0.2,0.1,0.5,0.1,0.9V36.2z
		 M295.3,35.5c0-0.2,0-0.5-0.1-0.6c0-0.2-0.1-0.3-0.2-0.4c-0.1-0.1-0.2-0.2-0.3-0.2c-0.1,0-0.2-0.1-0.4-0.1c-0.1,0-0.2,0-0.4,0.1
		c-0.1,0-0.2,0.1-0.3,0.2c-0.1,0.1-0.1,0.2-0.2,0.4c0,0.2-0.1,0.4-0.1,0.6v0.8c0,0.2,0,0.5,0.1,0.6c0,0.2,0.1,0.3,0.2,0.4
		c0.1,0.1,0.2,0.2,0.3,0.2c0.1,0.1,0.2,0.1,0.4,0.1c0.1,0,0.3,0,0.4-0.1s0.2-0.1,0.3-0.2c0.1-0.1,0.1-0.3,0.2-0.4
		c0-0.2,0.1-0.4,0.1-0.6V35.5z"/>
</g>
<g>
	<path class="st2" d="M319.4,31.3h-2.7v-0.5h2.7V31.3z"/>
	<path class="st2" d="M318.7,36.5h-1.5V36h1.5V36.5z"/>
</g>
<g>
	<path class="st2" d="M342.6,29.7h1.2v0.5h-1.2v1.4H342v-1.4h-1.2v-0.5h1.2v-1.3h0.6V29.7z"/>
	<path class="st2" d="M343.6,37h-2.5v-0.5h2.5V37z M343.6,38.2h-2.5v-0.5h2.5V38.2z"/>
</g>
<g>
	<path class="st2" d="M389.7,36.6c0-0.2,0-0.5,0.1-0.7s0.1-0.4,0.3-0.5c0.1-0.1,0.2-0.3,0.4-0.3c0.2-0.1,0.3-0.1,0.5-0.1
		s0.4,0,0.5,0.1s0.3,0.2,0.4,0.3v-1.7h0.6v4.6H392V38c-0.1,0.1-0.2,0.2-0.4,0.3c-0.2,0.1-0.3,0.1-0.5,0.1s-0.4,0-0.5-0.1
		c-0.2-0.1-0.3-0.2-0.4-0.3s-0.2-0.3-0.3-0.5C389.7,37.1,389.7,36.9,389.7,36.6L389.7,36.6z M390.2,36.6c0,0.2,0,0.3,0,0.5
		s0.1,0.3,0.2,0.4c0.1,0.1,0.2,0.2,0.3,0.3c0.1,0.1,0.2,0.1,0.4,0.1c0.1,0,0.2,0,0.3,0c0.1,0,0.1-0.1,0.2-0.1s0.1-0.1,0.2-0.1
		c0-0.1,0.1-0.1,0.1-0.2V36c0-0.1-0.1-0.1-0.1-0.2c0-0.1-0.1-0.1-0.2-0.1s-0.1-0.1-0.2-0.1s-0.2,0-0.3,0c-0.2,0-0.3,0-0.4,0.1
		s-0.2,0.1-0.3,0.3c-0.1,0.1-0.1,0.2-0.2,0.4C390.2,36.2,390.2,36.4,390.2,36.6L390.2,36.6z"/>
	<path class="st2" d="M394.6,38.3c-0.2,0-0.4,0-0.6-0.1s-0.3-0.2-0.5-0.3s-0.2-0.3-0.3-0.5c-0.1-0.2-0.1-0.4-0.1-0.6v-0.1
		c0-0.3,0-0.5,0.1-0.7s0.2-0.4,0.3-0.5c0.1-0.1,0.3-0.3,0.5-0.3c0.2-0.1,0.3-0.1,0.5-0.1s0.4,0,0.6,0.1s0.3,0.2,0.4,0.3
		s0.2,0.3,0.2,0.5s0.1,0.4,0.1,0.6v0.2h-2.2c0,0.1,0,0.3,0.1,0.4c0,0.1,0.1,0.2,0.2,0.3s0.2,0.2,0.3,0.2c0.1,0.1,0.2,0.1,0.4,0.1
		c0.2,0,0.4,0,0.5-0.1s0.3-0.2,0.4-0.3l0.3,0.3c-0.1,0.1-0.1,0.2-0.2,0.2c-0.1,0.1-0.2,0.1-0.3,0.2c-0.1,0.1-0.2,0.1-0.3,0.1
		C394.9,38.2,394.8,38.3,394.6,38.3z M394.5,35.4c-0.1,0-0.2,0-0.3,0.1s-0.2,0.1-0.3,0.2c-0.1,0.1-0.1,0.2-0.2,0.3s-0.1,0.2-0.1,0.4
		h1.6l0,0c0-0.1,0-0.2-0.1-0.3c0-0.1-0.1-0.2-0.1-0.3c-0.1-0.1-0.1-0.2-0.2-0.2C394.8,35.4,394.7,35.4,394.5,35.4z"/>
	<path class="st2" d="M397.1,38.2h-0.6v-4.6h0.6V38.2z"/>
	<path class="st2" d="M399.3,38.3c-0.2,0-0.4,0-0.6-0.1s-0.3-0.2-0.5-0.3s-0.2-0.3-0.3-0.5c-0.1-0.2-0.1-0.4-0.1-0.6v-0.1
		c0-0.3,0-0.5,0.1-0.7s0.2-0.4,0.3-0.5c0.1-0.1,0.3-0.3,0.5-0.3c0.2-0.1,0.3-0.1,0.5-0.1s0.4,0,0.6,0.1s0.3,0.2,0.4,0.3
		s0.2,0.3,0.2,0.5s0.1,0.4,0.1,0.6v0.2h-2.2c0,0.1,0,0.3,0.1,0.4c0,0.1,0.1,0.2,0.2,0.3s0.2,0.2,0.3,0.2c0.1,0.1,0.2,0.1,0.4,0.1
		c0.2,0,0.4,0,0.5-0.1s0.3-0.2,0.4-0.3l0.3,0.3c-0.1,0.1-0.1,0.2-0.2,0.2c-0.1,0.1-0.2,0.1-0.3,0.2c-0.1,0.1-0.2,0.1-0.3,0.1
		C399.6,38.2,399.5,38.3,399.3,38.3z M399.3,35.4c-0.1,0-0.2,0-0.3,0.1s-0.2,0.1-0.3,0.2c-0.1,0.1-0.1,0.2-0.2,0.3s-0.1,0.2-0.1,0.4
		h1.6l0,0c0-0.1,0-0.2-0.1-0.3c0-0.1-0.1-0.2-0.1-0.3c-0.1-0.1-0.1-0.2-0.2-0.2C399.5,35.4,399.4,35.4,399.3,35.4z"/>
	<path class="st2" d="M402,34.2V35h0.6v0.4H402v2c0,0.1,0,0.2,0,0.2c0,0.1,0,0.1,0.1,0.1c0,0,0.1,0,0.1,0.1h0.1h0.1
		c0.1,0,0.1,0,0.1,0v0.4c0,0-0.1,0-0.2,0s-0.2,0-0.3,0c-0.1,0-0.2,0-0.3,0s-0.2-0.1-0.2-0.1c-0.1-0.1-0.1-0.2-0.2-0.3
		s-0.1-0.2-0.1-0.4v-2h-0.6V35h0.6v-0.8H402z"/>
	<path class="st2" d="M404.6,38.3c-0.2,0-0.4,0-0.6-0.1s-0.3-0.2-0.5-0.3s-0.2-0.3-0.3-0.5c-0.1-0.2-0.1-0.4-0.1-0.6v-0.1
		c0-0.3,0-0.5,0.1-0.7s0.2-0.4,0.3-0.5c0.1-0.1,0.3-0.3,0.5-0.3c0.2-0.1,0.3-0.1,0.5-0.1s0.4,0,0.6,0.1s0.3,0.2,0.4,0.3
		s0.2,0.3,0.2,0.5s0.1,0.4,0.1,0.6v0.2h-2.2c0,0.1,0,0.3,0.1,0.4c0,0.1,0.1,0.2,0.2,0.3s0.2,0.2,0.3,0.2c0.1,0.1,0.2,0.1,0.4,0.1
		c0.2,0,0.4,0,0.5-0.1s0.3-0.2,0.4-0.3l0.3,0.3c-0.1,0.1-0.1,0.2-0.2,0.2c-0.1,0.1-0.2,0.1-0.3,0.2c-0.1,0.1-0.2,0.1-0.3,0.1
		C404.9,38.2,404.8,38.3,404.6,38.3z M404.5,35.4c-0.1,0-0.2,0-0.3,0.1s-0.2,0.1-0.3,0.2c-0.1,0.1-0.1,0.2-0.2,0.3s-0.1,0.2-0.1,0.4
		h1.6l0,0c0-0.1,0-0.2-0.1-0.3c0-0.1-0.1-0.2-0.1-0.3c-0.1-0.1-0.1-0.2-0.2-0.2C404.8,35.4,404.7,35.4,404.5,35.4z"/>
</g>
<path class="st0" d="M252.8,68.6V47.7h21.3v20.9H252.8z"/>
<path class="st0" d="M206.9,68.6V47.7h20.9v20.9H206.9z"/>
<path class="st0" d="M160,68.6V47.7h20.6v20.9H160z"/>
<path class="st0" d="M111.9,68.6V47.7h20.9v20.9H111.9z"/>
<path class="st0" d="M371.6,68.6V47.7h37.8v20.9H371.6z"/>
<path class="st0" d="M88.1,68.6V47.7H109v20.9H88.1z"/>
<path class="st0" d="M135.6,68.6V47.7h21.3v20.9H135.6z"/>
<path class="st0" d="M183.4,68.6V47.7h20.9v20.9H183.4z"/>
<path class="st0" d="M230,68.6V47.7h20.6v20.9H230z"/>
<g class="st3">
	<path class="st2" d="M100.1,57.9c0,0.4-0.1,0.8-0.2,1.1s-0.3,0.5-0.6,0.7l0.8,0.6l-0.4,0.4L98.8,60c-0.1,0-0.3,0.1-0.5,0.1
		c-0.3,0-0.5,0-0.7-0.1s-0.4-0.2-0.6-0.4s-0.3-0.4-0.4-0.7s-0.1-0.6-0.1-0.9v-0.3c0-0.3,0-0.6,0.1-0.9s0.2-0.5,0.4-0.7
		c0.2-0.2,0.3-0.3,0.6-0.4c0.2-0.1,0.5-0.1,0.7-0.1c0.3,0,0.5,0,0.7,0.1s0.4,0.2,0.6,0.4s0.3,0.4,0.4,0.7s0.1,0.6,0.1,0.9V57.9z
		 M99.5,57.6c0-0.3,0-0.5-0.1-0.7s-0.1-0.4-0.2-0.5s-0.2-0.2-0.4-0.3C98.7,56,98.5,56,98.3,56s-0.3,0-0.5,0.1
		c-0.1,0.1-0.3,0.2-0.4,0.3s-0.2,0.3-0.2,0.5c-0.1,0.2-0.1,0.4-0.1,0.7v0.3c0,0.3,0,0.5,0.1,0.7s0.1,0.4,0.2,0.5s0.2,0.2,0.4,0.3
		c0.1,0.1,0.3,0.1,0.5,0.1s0.4,0,0.5-0.1s0.3-0.2,0.4-0.3s0.2-0.3,0.2-0.5c0.1-0.2,0.1-0.4,0.1-0.7V57.6z"/>
</g>
<g class="st3">
	<path class="st2" d="M121.3,59.2l0.1,0.6l0.1-0.5l0.9-3h0.5l0.8,3l0.1,0.5l0.1-0.6l0.7-3h0.6l-1.1,4.4h-0.5l-0.9-3.2l-0.1-0.3
		l-0.1,0.3l-0.9,3.2h-0.5l-1.1-4.4h0.6L121.3,59.2z"/>
</g>
<g class="st3">
	<path class="st2" d="M147,58.6h-1.9v1.5h2.2v0.5h-2.8v-4.4h2.7v0.5H145v1.4h1.9v0.5H147z"/>
</g>
<g class="st3">
	<path class="st2" d="M170,58.8h-1v1.8h-0.6v-4.4h1.4c0.5,0,0.9,0.1,1.1,0.3c0.3,0.2,0.4,0.5,0.4,1c0,0.3-0.1,0.5-0.2,0.7
		s-0.4,0.4-0.6,0.5l1,1.8l0,0H171L170,58.8z M169,58.3h0.9c0.2,0,0.3,0,0.4-0.1c0.1,0,0.2-0.1,0.3-0.2c0.1-0.1,0.1-0.2,0.2-0.3
		c0-0.1,0.1-0.2,0.1-0.3s0-0.2-0.1-0.3c0-0.1-0.1-0.2-0.2-0.3c-0.1-0.1-0.2-0.1-0.3-0.2c-0.1,0-0.3-0.1-0.4-0.1H169V58.3z"/>
</g>
<g class="st3">
	<path class="st2" d="M195.5,56.7h-1.4v3.9h-0.6v-3.9h-1.4v-0.5h3.4V56.7z"/>
</g>
<g class="st3">
	<path class="st2" d="M217.4,58.4l1.1-2.2h0.7l-1.5,2.7v1.6h-0.6V59l-1.5-2.7h0.7L217.4,58.4z"/>
</g>
<g class="st3">
	<path class="st2" d="M241.7,56v3c0,0.2,0,0.5-0.1,0.6s-0.2,0.3-0.3,0.5c-0.1,0.1-0.3,0.2-0.5,0.3s-0.4,0.1-0.6,0.1
		c-0.2,0-0.4,0-0.6-0.1c-0.2-0.1-0.4-0.2-0.5-0.3s-0.3-0.3-0.3-0.5c-0.1-0.2-0.1-0.4-0.1-0.6v-3h0.6v3c0,0.2,0,0.3,0.1,0.4
		c0,0.1,0.1,0.2,0.2,0.3s0.2,0.1,0.3,0.2s0.3,0.1,0.4,0.1s0.3,0,0.4-0.1c0.1,0,0.2-0.1,0.3-0.2c0.1-0.1,0.2-0.2,0.2-0.3
		s0.1-0.3,0.1-0.4v-3H241.7z"/>
</g>
<g class="st3">
	<path class="st2" d="M264,60.6h-0.6v-4.4h0.6V60.6z"/>
</g>
<path class="st0" d="M276.9,68.6V47.7h20.9v20.9H276.9z"/>
<g class="st3">
	<path class="st2" d="M288.9,58.5c0,0.3,0,0.6-0.1,0.9c-0.1,0.3-0.2,0.5-0.4,0.7c-0.2,0.2-0.3,0.3-0.6,0.4c-0.2,0.1-0.5,0.1-0.7,0.1
		c-0.3,0-0.5,0-0.7-0.1s-0.4-0.2-0.6-0.4s-0.3-0.4-0.4-0.7s-0.1-0.6-0.1-0.9v-0.3c0-0.3,0-0.6,0.1-0.9s0.2-0.5,0.4-0.7
		c0.2-0.2,0.3-0.3,0.6-0.4c0.2-0.1,0.5-0.1,0.7-0.1c0.3,0,0.5,0,0.7,0.1s0.4,0.2,0.6,0.4s0.3,0.4,0.4,0.7s0.1,0.6,0.1,0.9V58.5z
		 M288.3,58.3c0-0.3,0-0.5-0.1-0.7s-0.1-0.4-0.2-0.5s-0.2-0.2-0.4-0.3c-0.1-0.1-0.3-0.1-0.5-0.1s-0.3,0-0.5,0.1
		c-0.1,0.1-0.3,0.2-0.4,0.3s-0.2,0.3-0.2,0.5c-0.1,0.2-0.1,0.4-0.1,0.7v0.3c0,0.3,0,0.5,0.1,0.7s0.1,0.4,0.2,0.5s0.2,0.2,0.4,0.3
		c0.1,0.1,0.3,0.1,0.5,0.1s0.4,0,0.5-0.1s0.3-0.2,0.4-0.3s0.2-0.3,0.2-0.5c0.1-0.2,0.1-0.4,0.1-0.7V58.3z"/>
</g>
<path class="st0" d="M300.5,68.6V47.7h20.9v20.9H300.5z"/>
<g class="st3">
	<path class="st2" d="M309.8,58.9v1.7h-0.6v-4.4h1.6c0.2,0,0.5,0,0.7,0.1s0.3,0.2,0.5,0.3c0.1,0.1,0.2,0.3,0.3,0.4
		c0.1,0.2,0.1,0.3,0.1,0.5s0,0.4-0.1,0.6c-0.1,0.2-0.2,0.3-0.3,0.4c-0.1,0.1-0.3,0.2-0.5,0.3s-0.4,0.1-0.7,0.1
		C310.8,58.9,309.8,58.9,309.8,58.9z M309.8,58.4h1c0.2,0,0.3,0,0.4-0.1c0.1,0,0.2-0.1,0.3-0.2c0.1-0.1,0.1-0.2,0.2-0.3
		s0.1-0.2,0.1-0.3s0-0.2-0.1-0.3c0-0.1-0.1-0.2-0.2-0.3s-0.2-0.1-0.3-0.2c-0.1,0-0.3-0.1-0.4-0.1h-1V58.4z"/>
</g>
<path class="st0" d="M324.2,68.6V47.7h20.9v20.9H324.2z"/>
<text transform="matrix(1 0 0 1 333.5801 56.8975)" class="st2 st4 st5">{</text>
<text transform="matrix(1 0 0 1 333.5801 64.2975)" class="st2 st4 st5">[</text>
<path class="st0" d="M347.9,68.6V47.7h20.9v20.9H347.9z"/>
<text transform="matrix(1 0 0 1 358.3555 56.8975)" class="st2 st4 st5">}</text>
<text transform="matrix(1 0 0 1 358.3555 64.2975)" class="st2 st4 st5">]</text>
<path class="st0" d="M257.1,94.8v-21h21.3v20.9L257.1,94.8L257.1,94.8z"/>
<path class="st0" d="M210.7,94.8v-21h20.9v20.9L210.7,94.8L210.7,94.8z"/>
<path class="st0" d="M164.4,94.8v-21H185v20.9L164.4,94.8L164.4,94.8z"/>
<g>
	<path class="st0" d="M116.5,94.8v-21h20.9v20.9L116.5,94.8L116.5,94.8z"/>
</g>
<path class="st0" d="M93.1,94.8v-21H114v20.9L93.1,94.8L93.1,94.8z"/>
<path class="st0" d="M140.4,94.8v-21h21.3v20.9L140.4,94.8L140.4,94.8z"/>
<path class="st0" d="M187.4,94.8v-21h20.9v20.9L187.4,94.8L187.4,94.8z"/>
<path class="st0" d="M234.1,94.8v-21h20.6v20.9L234.1,94.8L234.1,94.8z"/>
<g class="st3">
	<path class="st2" d="M104.3,85h-1.8l-0.4,1.1h-0.6l1.7-4.4h0.5l1.7,4.4h-0.6L104.3,85z M102.6,84.5h1.5l-0.7-2L102.6,84.5z"/>
</g>
<g class="st3">
	<path class="st2" d="M127.5,85.6c0-0.1,0-0.2,0-0.3c0-0.1-0.1-0.1-0.2-0.2s-0.2-0.1-0.3-0.2s-0.3-0.1-0.5-0.2s-0.4-0.1-0.6-0.2
		s-0.3-0.2-0.4-0.3c-0.1-0.1-0.2-0.2-0.3-0.4c-0.1-0.1-0.1-0.3-0.1-0.5s0-0.3,0.1-0.5s0.2-0.3,0.3-0.4c0.1-0.1,0.3-0.2,0.5-0.3
		c0.2-0.1,0.4-0.1,0.6-0.1s0.5,0,0.7,0.1s0.4,0.2,0.5,0.3c0.1,0.1,0.2,0.3,0.3,0.4c0.1,0.2,0.1,0.3,0.1,0.5h-0.6
		c0-0.1,0-0.2-0.1-0.3c0-0.1-0.1-0.2-0.2-0.3c-0.1-0.1-0.2-0.1-0.3-0.2c-0.1,0-0.3-0.1-0.4-0.1c-0.2,0-0.3,0-0.4,0.1
		s-0.2,0.1-0.3,0.1s-0.1,0.1-0.2,0.2c0,0.1-0.1,0.2-0.1,0.3c0,0.1,0,0.2,0.1,0.3c0,0.1,0.1,0.1,0.2,0.2s0.2,0.1,0.3,0.2
		s0.3,0.1,0.5,0.2s0.5,0.1,0.6,0.2s0.3,0.2,0.4,0.3c0.1,0.1,0.2,0.2,0.3,0.4c0.1,0.1,0.1,0.3,0.1,0.5s0,0.3-0.1,0.5
		s-0.2,0.3-0.3,0.4c-0.1,0.1-0.3,0.2-0.5,0.2c-0.2,0.1-0.4,0.1-0.6,0.1c-0.1,0-0.3,0-0.4,0s-0.3-0.1-0.4-0.1s-0.2-0.1-0.3-0.2
		c-0.1-0.1-0.2-0.2-0.3-0.3c-0.1-0.1-0.1-0.2-0.2-0.3c0-0.1-0.1-0.3-0.1-0.4h0.6c0,0.2,0,0.3,0.1,0.4s0.1,0.2,0.2,0.3
		c0.1,0.1,0.2,0.1,0.3,0.2c0.1,0,0.3,0,0.4,0c0.3,0,0.5-0.1,0.7-0.2S127.5,85.8,127.5,85.6z"/>
</g>
<g class="st3">
	<path class="st2" d="M149.3,86.7v-4.4h1.2c0.3,0,0.5,0,0.8,0.1s0.4,0.2,0.6,0.4c0.2,0.2,0.3,0.4,0.4,0.6c0.1,0.3,0.1,0.5,0.1,0.9
		v0.3c0,0.3,0,0.6-0.1,0.9s-0.2,0.5-0.4,0.6c-0.2,0.2-0.4,0.3-0.6,0.4s-0.5,0.1-0.8,0.1L149.3,86.7L149.3,86.7z M149.9,82.8v3.4h0.6
		c0.2,0,0.4,0,0.6-0.1c0.2-0.1,0.3-0.2,0.4-0.3s0.2-0.3,0.3-0.5s0.1-0.4,0.1-0.7v-0.3c0-0.3,0-0.5-0.1-0.7s-0.1-0.4-0.3-0.5
		s-0.3-0.2-0.4-0.3c-0.2-0.1-0.4-0.1-0.6-0.1L149.9,82.8L149.9,82.8z"/>
</g>
<g class="st3">
	<path class="st2" d="M175.2,84.8h-1.8v1.9h-0.6v-4.4h2.7v0.5h-2.1v1.5h1.8L175.2,84.8L175.2,84.8z"/>
</g>
<g class="st3">
	<path class="st2" d="M199.8,86.1c0,0.1-0.1,0.1-0.2,0.2c-0.1,0.1-0.2,0.1-0.3,0.2s-0.3,0.1-0.4,0.2c-0.2,0-0.4,0.1-0.6,0.1
		c-0.3,0-0.5,0-0.7-0.1s-0.4-0.2-0.6-0.4s-0.3-0.4-0.4-0.6c-0.1-0.3-0.1-0.5-0.1-0.9v-0.3c0-0.3,0-0.6,0.1-0.9s0.2-0.5,0.3-0.6
		c0.1-0.2,0.3-0.3,0.5-0.4s0.5-0.1,0.7-0.1s0.5,0,0.7,0.1s0.3,0.2,0.5,0.3c0.1,0.1,0.2,0.3,0.3,0.4c0.1,0.2,0.1,0.3,0.2,0.5h-0.6
		c0-0.1-0.1-0.2-0.1-0.3S199,83.1,199,83c-0.1-0.1-0.2-0.1-0.3-0.2s-0.3-0.1-0.4-0.1c-0.2,0-0.4,0-0.5,0.1s-0.3,0.2-0.4,0.3
		c-0.1,0.1-0.2,0.3-0.2,0.5s-0.1,0.4-0.1,0.7v0.3c0,0.3,0,0.5,0.1,0.7s0.1,0.4,0.3,0.5s0.2,0.2,0.4,0.3c0.2,0.1,0.3,0.1,0.5,0.1
		s0.3,0,0.4,0c0.1,0,0.2,0,0.3-0.1c0.1,0,0.1-0.1,0.2-0.1s0.1-0.1,0.1-0.1v-1h-1v-0.5h1.6v1.7C200,86.1,199.8,86.1,199.8,86.1z"/>
</g>
<g class="st3">
	<path class="st2" d="M223.2,86.7h-0.6v-2h-2.2v2h-0.6v-4.4h0.6v1.9h2.2v-1.9h0.6V86.7z"/>
</g>
<g class="st3">
	<path class="st2" d="M244.5,82.4h0.6v3.1c0,0.2,0,0.4-0.1,0.6s-0.2,0.3-0.3,0.4s-0.3,0.2-0.4,0.3c-0.2,0.1-0.4,0.1-0.6,0.1
		c-0.2,0-0.4,0-0.6-0.1s-0.3-0.1-0.4-0.2c-0.1-0.1-0.2-0.2-0.3-0.4c-0.1-0.2-0.1-0.3-0.1-0.6h0.6c0,0.1,0,0.3,0.1,0.4
		c0,0.1,0.1,0.2,0.2,0.2c0.1,0.1,0.2,0.1,0.3,0.1s0.2,0,0.3,0s0.2,0,0.3-0.1c0.1,0,0.2-0.1,0.3-0.2s0.1-0.2,0.2-0.3
		c0-0.1,0.1-0.2,0.1-0.4v-2.9H244.5z"/>
</g>
<g class="st3">
	<path class="st2" d="M267.6,84.7l-0.5,0.6v1.5h-0.6v-4.4h0.6v2.2l0.5-0.5l1.5-1.6h0.7l-1.7,1.9l1.9,2.4h-0.7L267.6,84.7z"/>
</g>
<path class="st0" d="M280.5,94.8v-21h20.9v20.9L280.5,94.8L280.5,94.8z"/>
<g class="st3">
	<path class="st2" d="M289.8,86.2h2.1v0.5h-2.6v-4.4h0.6v3.9H289.8z"/>
</g>
<path class="st0" d="M304.2,94.8v-21h20.9v20.9L304.2,94.8L304.2,94.8z"/>
<g class="st3">
	<path class="st2" d="M314,82.7c0-0.1,0-0.2,0.1-0.2c0.1-0.1,0.1-0.1,0.3-0.1c0.1,0,0.2,0,0.3,0.1c0.1,0.1,0.1,0.1,0.1,0.2
		s0,0.2-0.1,0.2c-0.1,0.1-0.1,0.1-0.3,0.1c-0.1,0-0.2,0-0.3-0.1C314,82.9,314,82.8,314,82.7z M314,80.1c0-0.1,0-0.2,0.1-0.2
		c0.1-0.1,0.1-0.1,0.3-0.1s0.2,0,0.3,0.1c0.1,0.1,0.1,0.1,0.1,0.2s0,0.2-0.1,0.2s-0.1,0.1-0.3,0.1s-0.2,0-0.3-0.1S314,80.2,314,80.1
		z"/>
</g>
<g class="st3">
	<path class="st2" d="M314.5,90.2c0,0.1,0,0.2,0,0.3c0,0.1-0.1,0.2-0.1,0.3s-0.1,0.2-0.2,0.3s-0.1,0.2-0.2,0.2l-0.3-0.2
		c0.1-0.1,0.2-0.3,0.2-0.4s0.1-0.3,0.1-0.5v-0.5h0.5V90.2z M313.9,87.5c0-0.1,0-0.2,0.1-0.2c0.1-0.1,0.1-0.1,0.3-0.1
		c0.1,0,0.2,0,0.3,0.1c0.1,0.1,0.1,0.1,0.1,0.2s0,0.2-0.1,0.2c-0.1,0.1-0.1,0.1-0.3,0.1c-0.1,0-0.2,0-0.3-0.1
		C313.9,87.7,313.9,87.6,313.9,87.5z"/>
</g>
<path class="st0" d="M327.9,94.8v-21h20.9v20.9L327.9,94.8L327.9,94.8z"/>
<g class="st3">
	<path class="st2" d="M337.6,79.5c0-0.1,0-0.2,0-0.3c0-0.1,0.1-0.2,0.1-0.3s0.1-0.2,0.2-0.3c0.1-0.1,0.1-0.2,0.2-0.2l0.3,0.2
		c-0.1,0.1-0.2,0.3-0.2,0.4s-0.1,0.3-0.1,0.5v0.4h-0.6v-0.4C337.5,79.5,337.6,79.5,337.6,79.5z M338.5,79.5c0-0.1,0-0.2,0-0.3
		c0-0.1,0.1-0.2,0.1-0.3s0.1-0.2,0.2-0.3c0.1-0.1,0.1-0.2,0.2-0.2l0.3,0.2c-0.1,0.1-0.2,0.3-0.2,0.4s-0.1,0.3-0.1,0.5v0.4h-0.6v-0.4
		C338.4,79.5,338.5,79.5,338.5,79.5z"/>
</g>
<g class="st3">
	<path class="st2" d="M337.5,86.9c0-0.1,0-0.2,0-0.3c0-0.1,0.1-0.2,0.1-0.3c0-0.1,0.1-0.2,0.2-0.3s0.1-0.2,0.2-0.2l0.3,0.2
		c-0.1,0.1-0.2,0.3-0.2,0.4s-0.1,0.3-0.1,0.5v0.4h-0.6v-0.4C337.4,86.9,337.5,86.9,337.5,86.9z"/>
</g>
<path class="st0" d="M351.6,94.8v-21h20.9v20.9L351.6,94.8L351.6,94.8z"/>
<g class="st3">
	<path class="st2" d="M390.2,57.2h-0.4V52h0.4V57.2z"/>
</g>
<g class="st3">
	<path class="st2" d="M389.3,59.5h0.5l1.8,4.7h-0.5L389.3,59.5z"/>
</g>
<path class="st0" d="M367.8,94.8v-21h41.6v20.9L367.8,94.8L367.8,94.8z"/>
<g>
	<path class="st2" d="M393.7,90.4c-0.2,0-0.4,0-0.6-0.1s-0.3-0.2-0.5-0.3s-0.2-0.3-0.3-0.5c-0.1-0.2-0.1-0.4-0.1-0.6v-0.1
		c0-0.3,0-0.5,0.1-0.7s0.2-0.4,0.3-0.5c0.1-0.1,0.3-0.3,0.5-0.3c0.2-0.1,0.3-0.1,0.5-0.1s0.4,0,0.6,0.1s0.3,0.2,0.4,0.3
		c0.1,0.1,0.2,0.3,0.2,0.5s0.1,0.4,0.1,0.6v0.2h-2.2c0,0.1,0,0.3,0.1,0.4c0,0.1,0.1,0.2,0.2,0.3c0.1,0.1,0.2,0.2,0.3,0.2
		c0.1,0.1,0.2,0.1,0.4,0.1c0.2,0,0.4,0,0.5-0.1s0.3-0.2,0.4-0.3l0.3,0.3c-0.1,0.1-0.1,0.2-0.2,0.2c-0.1,0.1-0.2,0.1-0.3,0.2
		s-0.2,0.1-0.3,0.1S393.9,90.4,393.7,90.4z M393.6,87.5c-0.1,0-0.2,0-0.3,0.1s-0.2,0.1-0.3,0.2c-0.1,0.1-0.1,0.2-0.2,0.3
		s-0.1,0.2-0.1,0.4h1.6l0,0c0-0.1,0-0.2-0.1-0.3c0-0.1-0.1-0.2-0.1-0.3c-0.1-0.1-0.1-0.2-0.2-0.2C393.9,87.5,393.8,87.5,393.6,87.5z
		"/>
	<path class="st2" d="M396.1,87.1v0.4c0.1-0.1,0.3-0.3,0.4-0.3c0.2-0.1,0.3-0.1,0.6-0.1c0.2,0,0.3,0,0.4,0.1c0.1,0,0.2,0.1,0.3,0.2
		c0.1,0.1,0.2,0.2,0.2,0.4c0,0.1,0.1,0.3,0.1,0.5v2.1h-0.6v-2.1c0-0.1,0-0.2,0-0.3c0-0.1-0.1-0.2-0.1-0.2c-0.1-0.1-0.1-0.1-0.2-0.1
		s-0.2,0-0.3,0c-0.2,0-0.3,0-0.5,0.1s-0.2,0.2-0.3,0.4v2.3h-0.6v-3.2h0.6V87.1z"/>
	<path class="st2" d="M399.7,86.3v0.8h0.6v0.4h-0.6v2c0,0.1,0,0.2,0,0.2c0,0.1,0,0.1,0.1,0.1c0,0,0.1,0,0.1,0.1s0.1,0,0.1,0h0.1h0.1
		v0.4c0,0-0.1,0-0.2,0s-0.2,0-0.3,0c-0.1,0-0.2,0-0.3,0s-0.2-0.1-0.2-0.1c-0.1-0.1-0.1-0.2-0.2-0.3s-0.1-0.2-0.1-0.4v-2h-0.6v-0.4
		h0.6v-0.8C398.9,86.3,399.7,86.3,399.7,86.3z"/>
	<path class="st2" d="M402.3,90.4c-0.2,0-0.4,0-0.6-0.1s-0.3-0.2-0.5-0.3s-0.2-0.3-0.3-0.5c-0.1-0.2-0.1-0.4-0.1-0.6v-0.1
		c0-0.3,0-0.5,0.1-0.7s0.2-0.4,0.3-0.5c0.1-0.1,0.3-0.3,0.5-0.3c0.2-0.1,0.3-0.1,0.5-0.1s0.4,0,0.6,0.1s0.3,0.2,0.4,0.3
		c0.1,0.1,0.2,0.3,0.2,0.5s0.1,0.4,0.1,0.6v0.2h-2.2c0,0.1,0,0.3,0.1,0.4c0,0.1,0.1,0.2,0.2,0.3c0.1,0.1,0.2,0.2,0.3,0.2
		c0.1,0.1,0.2,0.1,0.4,0.1c0.2,0,0.4,0,0.5-0.1s0.3-0.2,0.4-0.3l0.3,0.3c-0.1,0.1-0.1,0.2-0.2,0.2c-0.1,0.1-0.2,0.1-0.3,0.2
		s-0.2,0.1-0.3,0.1S402.5,90.4,402.3,90.4z M402.3,87.5c-0.1,0-0.2,0-0.3,0.1s-0.2,0.1-0.3,0.2c-0.1,0.1-0.1,0.2-0.2,0.3
		s-0.1,0.2-0.1,0.4h1.6l0,0c0-0.1,0-0.2-0.1-0.3c0-0.1-0.1-0.2-0.1-0.3c-0.1-0.1-0.1-0.2-0.2-0.2C402.5,87.5,402.4,87.5,402.3,87.5z
		"/>
	<path class="st2" d="M405.8,87.6h-0.1h-0.1c-0.2,0-0.3,0-0.5,0.1c-0.1,0.1-0.2,0.2-0.3,0.3v2.3h-0.6v-3.2h0.5v0.4
		c0.1-0.1,0.2-0.2,0.3-0.3c0.1-0.1,0.3-0.1,0.5-0.1h0.1c0.1,0,0.1,0,0.1,0v0.5C405.7,87.6,405.8,87.6,405.8,87.6z"/>
</g>
<path class="st0" d="M206.3,120.9V100h20.9v20.9H206.3z"/>
<path class="st0" d="M159.3,120.9V100h20.6v20.9H159.3z"/>
<path class="st0" d="M111.6,120.9V100h20.9v20.9H111.6z"/>
<path class="st0" d="M87.9,120.9V100h20.9v20.9H87.9z"/>
<path class="st0" d="M135.3,120.9V100h21.3v20.9H135.3z"/>
<path class="st0" d="M182.6,120.9V100h20.9v20.9H182.6z"/>
<path class="st0" d="M230,120.9V100h20.6v20.9H230z"/>
<g class="st3">
	<path class="st2" d="M97,111.8h2.5v0.5h-3.2v-0.4l2.4-3.5h-2.3v-0.5h3v0.4L97,111.8z"/>
</g>
<g class="st3">
	<path class="st2" d="M122.3,110.2l1-1.7h0.7l-1.4,2.2l1.4,2.2h-0.7l-1.1-1.7l-1.1,1.7h-0.7l1.4-2.2l-1.4-2.2h0.7L122.3,110.2z"/>
</g>
<g class="st3">
	<path class="st2" d="M147.4,111.5c0,0.2-0.1,0.4-0.2,0.6c-0.1,0.2-0.2,0.3-0.3,0.5s-0.3,0.2-0.5,0.3c-0.2,0.1-0.4,0.1-0.7,0.1
		s-0.5,0-0.7-0.1s-0.4-0.2-0.5-0.4c-0.1-0.2-0.3-0.4-0.3-0.6c-0.1-0.2-0.1-0.5-0.1-0.8v-0.4c0-0.3,0-0.6,0.1-0.8
		c0.1-0.2,0.2-0.5,0.4-0.6c0.2-0.2,0.3-0.3,0.6-0.4c0.2-0.1,0.5-0.1,0.7-0.1s0.5,0,0.7,0.1s0.4,0.2,0.5,0.3c0.1,0.1,0.2,0.3,0.3,0.5
		s0.1,0.4,0.1,0.6h-0.6c0-0.2-0.1-0.3-0.1-0.4s-0.1-0.2-0.2-0.3c-0.1-0.1-0.2-0.2-0.3-0.2s-0.3-0.1-0.4-0.1c-0.2,0-0.4,0-0.5,0.1
		s-0.3,0.2-0.4,0.3c-0.1,0.1-0.2,0.3-0.2,0.5s-0.1,0.4-0.1,0.6v0.4c0,0.2,0,0.4,0.1,0.6c0,0.2,0.1,0.4,0.2,0.5s0.2,0.3,0.4,0.3
		s0.3,0.1,0.5,0.1s0.3,0,0.5-0.1s0.2-0.1,0.3-0.2s0.1-0.2,0.2-0.3c0-0.1,0.1-0.3,0.1-0.4h0.4V111.5z"/>
</g>
<g class="st3">
	<path class="st2" d="M167.7,112.8v-4.4h1.2c0.3,0,0.5,0,0.8,0.1s0.4,0.2,0.6,0.4c0.2,0.2,0.3,0.4,0.4,0.6c0.1,0.3,0.1,0.5,0.1,0.9
		v0.3c0,0.3,0,0.6-0.1,0.9s-0.2,0.5-0.4,0.6c-0.2,0.2-0.4,0.3-0.6,0.4s-0.5,0.1-0.8,0.1L167.7,112.8L167.7,112.8z M168.3,109v3.4
		h0.6c0.2,0,0.4,0,0.6-0.1c0.2-0.1,0.3-0.2,0.4-0.3s0.2-0.3,0.3-0.5s0.1-0.4,0.1-0.7v-0.3c0-0.3,0-0.5-0.1-0.7s-0.1-0.4-0.3-0.5
		s-0.3-0.2-0.4-0.3c-0.2-0.1-0.4-0.1-0.6-0.1L168.3,109L168.3,109z"/>
</g>
<g class="st3">
	<path class="st2" d="M193.2,112.1l1.2-3.6h0.6l-1.6,4.4H193l-1.6-4.4h0.6L193.2,112.1z"/>
</g>
<g class="st3">
	<path class="st2" d="M215.5,112.8v-4.4h1.4c0.2,0,0.4,0,0.6,0.1c0.2,0,0.3,0.1,0.4,0.2c0.1,0.1,0.2,0.2,0.3,0.4s0.1,0.3,0.1,0.5
		s-0.1,0.4-0.2,0.5c-0.1,0.2-0.3,0.3-0.5,0.4c0.1,0,0.2,0.1,0.3,0.1c0.1,0.1,0.2,0.1,0.2,0.2c0.1,0.1,0.1,0.2,0.1,0.3
		c0,0.1,0.1,0.2,0.1,0.4c0,0.2,0,0.4-0.1,0.5c-0.1,0.2-0.2,0.3-0.3,0.4s-0.3,0.2-0.5,0.2c-0.2,0.1-0.4,0.1-0.6,0.1h-1.3V112.8z
		 M216.1,110.3h0.9c0.1,0,0.2,0,0.3,0s0.2-0.1,0.3-0.1c0.1-0.1,0.1-0.1,0.2-0.2c0-0.1,0.1-0.2,0.1-0.3c0-0.2-0.1-0.4-0.2-0.5
		c-0.1-0.1-0.4-0.2-0.6-0.2h-0.9v1.3C216.2,110.3,216.1,110.3,216.1,110.3z M216.1,110.8v1.6h0.9c0.1,0,0.3,0,0.4-0.1
		c0.1,0,0.2-0.1,0.3-0.2s0.1-0.1,0.2-0.2c0-0.1,0.1-0.2,0.1-0.3c0-0.1,0-0.2,0-0.3s-0.1-0.2-0.2-0.2c-0.1-0.1-0.2-0.1-0.3-0.2
		s-0.2-0.1-0.4-0.1C217.1,110.8,216.1,110.8,216.1,110.8z"/>
</g>
<g class="st3">
	<path class="st2" d="M241.9,112.8h-0.6l-2.2-3.4v3.4h-0.6v-4.4h0.6l2.2,3.4v-3.4h0.6V112.8z"/>
</g>
<path class="st0" d="M253.3,120.9V100h21.3v20.9H253.3z"/>
<g class="st3">
	<path class="st2" d="M262.6,108.5l1.4,3.6l1.4-3.6h0.7v4.4h-0.6v-1.7l0.1-1.8l-1.4,3.5h-0.4l-1.4-3.5l0.1,1.8v1.7h-0.6v-4.4H262.6z
		"/>
</g>
<path class="st0" d="M276.9,120.9V100h21.3v20.9H276.9z"/>
<g class="st3">
	<path class="st2" d="M286.4,107.2l1.9,0.8v0.6l-2.4-1.1V107l2.4-1.1v0.6L286.4,107.2z"/>
</g>
<g class="st3">
	<path class="st2" d="M287.5,116.4c0,0.1,0,0.2,0,0.3c0,0.1-0.1,0.2-0.1,0.3s-0.1,0.2-0.2,0.3c-0.1,0.1-0.1,0.2-0.2,0.2l-0.3-0.2
		c0.1-0.1,0.2-0.3,0.2-0.4s0.1-0.3,0.1-0.5v-0.5h0.5V116.4z"/>
</g>
<path class="st0" d="M300.8,120.9V100h21.3v20.9H300.8z"/>
<g class="st3">
	<path class="st2" d="M311.9,107.2l-2-0.8v-0.6l2.6,1.1v0.4l-2.6,1.1V108L311.9,107.2z"/>
</g>
<g class="st3">
	<path class="st2" d="M310.7,116.3c0-0.1,0-0.2,0.1-0.2c0.1-0.1,0.1-0.1,0.3-0.1s0.2,0,0.3,0.1c0.1,0.1,0.1,0.1,0.1,0.2
		s0,0.2-0.1,0.2c-0.1,0.1-0.1,0.1-0.3,0.1s-0.2,0-0.3-0.1C310.7,116.4,310.7,116.4,310.7,116.3z"/>
</g>
<path class="st0" d="M325.3,120.9V100h21.3v20.9H325.3z"/>
<g class="st3">
	<path class="st2" d="M335.6,107.9c0-0.1,0-0.3,0-0.4s0-0.2,0.1-0.3s0.1-0.2,0.2-0.2c0.1-0.1,0.1-0.2,0.2-0.3
		c0.1-0.1,0.1-0.1,0.2-0.2s0.1-0.1,0.2-0.2s0.1-0.1,0.1-0.2s0-0.2,0-0.3c0-0.2-0.1-0.4-0.2-0.5s-0.3-0.2-0.5-0.2c-0.1,0-0.2,0-0.3,0
		c-0.1,0-0.2,0.1-0.2,0.1c-0.1,0-0.1,0.1-0.2,0.2c0,0.1-0.1,0.2-0.1,0.3h-0.6c0-0.2,0-0.3,0.1-0.5c0.1-0.1,0.2-0.2,0.3-0.3
		s0.2-0.2,0.4-0.2s0.3-0.1,0.5-0.1s0.4,0,0.5,0.1s0.3,0.1,0.4,0.2s0.2,0.2,0.2,0.4s0.1,0.3,0.1,0.5c0,0.1,0,0.3-0.1,0.4
		c0,0.1-0.1,0.2-0.2,0.3c-0.1,0.1-0.2,0.2-0.2,0.3s-0.2,0.2-0.3,0.3c-0.1,0.1-0.2,0.2-0.2,0.3s-0.1,0.3-0.1,0.4L335.6,107.9
		L335.6,107.9z M335.6,108.9c0-0.1,0-0.2,0.1-0.2c0.1-0.1,0.1-0.1,0.2-0.1s0.2,0,0.2,0.1c0.1,0.1,0.1,0.1,0.1,0.2s0,0.2-0.1,0.2
		c-0.1,0.1-0.1,0.1-0.2,0.1s-0.2,0-0.2-0.1C335.6,109.1,335.6,109,335.6,108.9z"/>
</g>
<g class="st3">
	<path class="st2" d="M335.1,116.9h-0.5l1.8-4.7h0.5L335.1,116.9z"/>
</g>
<path class="st0" d="M349.6,120.9V100h59.8v20.9H349.6z"/>
<g>
	<path class="st2" d="M395.3,116.4c0-0.1,0-0.1,0-0.2s-0.1-0.1-0.1-0.1s-0.1-0.1-0.2-0.1s-0.2-0.1-0.4-0.1c-0.2,0-0.3-0.1-0.5-0.1
		c-0.1-0.1-0.3-0.1-0.4-0.2s-0.2-0.2-0.2-0.3c-0.1-0.1-0.1-0.2-0.1-0.3c0-0.1,0-0.2,0.1-0.4c0.1-0.1,0.1-0.2,0.2-0.3
		c0.1-0.1,0.2-0.2,0.4-0.2s0.3-0.1,0.5-0.1s0.4,0,0.5,0.1c0.2,0.1,0.3,0.1,0.4,0.2s0.2,0.2,0.2,0.3s0.1,0.3,0.1,0.4h-0.6
		c0-0.1,0-0.1,0-0.2s-0.1-0.1-0.1-0.2c-0.1-0.1-0.1-0.1-0.2-0.1s-0.2,0-0.3,0c-0.1,0-0.2,0-0.3,0c-0.1,0-0.1,0.1-0.2,0.1
		s-0.1,0.1-0.1,0.2s0,0.1,0,0.2s0,0.1,0,0.2l0.1,0.1c0,0,0.1,0.1,0.2,0.1s0.2,0.1,0.4,0.1c0.2,0,0.4,0.1,0.5,0.2s0.3,0.1,0.4,0.2
		s0.2,0.2,0.2,0.3s0.1,0.2,0.1,0.3c0,0.1,0,0.3-0.1,0.4s-0.1,0.2-0.3,0.3c-0.1,0.1-0.2,0.1-0.4,0.2c-0.2,0-0.3,0.1-0.5,0.1
		s-0.4,0-0.6-0.1s-0.3-0.1-0.4-0.2s-0.2-0.2-0.3-0.3c-0.1-0.1-0.1-0.3-0.1-0.4h0.6c0,0.1,0,0.2,0.1,0.3c0,0.1,0.1,0.1,0.2,0.2
		s0.2,0.1,0.2,0.1c0.1,0,0.2,0,0.3,0c0.1,0,0.2,0,0.3,0c0.1,0,0.2-0.1,0.2-0.1c0.1,0,0.1-0.1,0.1-0.1
		C395.3,116.6,395.3,116.5,395.3,116.4z"/>
	<path class="st2" d="M397.1,114.4c0.1-0.1,0.3-0.3,0.4-0.3c0.2-0.1,0.3-0.1,0.5-0.1s0.3,0,0.4,0.1c0.1,0,0.2,0.1,0.3,0.2
		c0.1,0.1,0.2,0.2,0.2,0.4c0,0.1,0.1,0.3,0.1,0.5v2.1h-0.6v-2.1c0-0.1,0-0.2,0-0.3c0-0.1-0.1-0.2-0.1-0.2c-0.1-0.1-0.1-0.1-0.2-0.1
		s-0.2,0-0.3,0c-0.2,0-0.3,0-0.5,0.1c-0.1,0.1-0.2,0.2-0.3,0.4v2.3h-0.6v-4.6h0.6v1.6H397.1z"/>
	<path class="st2" d="M400,113.2c0-0.1,0-0.2,0.1-0.2c0.1-0.1,0.1-0.1,0.2-0.1s0.2,0,0.2,0.1c0.1,0.1,0.1,0.1,0.1,0.2s0,0.2-0.1,0.2
		c-0.1,0.1-0.1,0.1-0.2,0.1s-0.2,0-0.2-0.1C400,113.3,400,113.3,400,113.2z M400.6,117.3H400V114h0.6V117.3z"/>
	<path class="st2" d="M401.7,117.3v-2.8h-0.5V114h0.5v-0.3c0-0.2,0-0.3,0.1-0.5s0.1-0.2,0.2-0.3c0.1-0.1,0.2-0.2,0.3-0.2
		c0.1,0,0.3-0.1,0.4-0.1s0.3,0,0.4,0.1v0.4H403c-0.1,0-0.1,0-0.2,0c-0.2,0-0.3,0.1-0.4,0.2s-0.1,0.3-0.1,0.5v0.3h0.7v0.4h-0.7v2.8
		H401.7z"/>
	<path class="st2" d="M404.3,113.3v0.8h0.6v0.4h-0.6v2c0,0.1,0,0.2,0,0.2c0,0.1,0,0.1,0.1,0.1c0,0,0.1,0,0.1,0.1s0.1,0,0.1,0h0.1
		h0.1v0.4c0,0-0.1,0-0.2,0s-0.2,0-0.3,0c-0.1,0-0.2,0-0.3,0c-0.1,0-0.2-0.1-0.2-0.1c-0.1-0.1-0.1-0.2-0.2-0.3c0-0.1-0.1-0.2-0.1-0.4
		v-2h-0.6V114h0.6v-0.8h0.8V113.3z"/>
</g>
<text transform="matrix(1 0 0 1 104.5615 145.083)" class="st2 st4 st5">alt</text>
<text transform="matrix(0.8668 0 0 1 296.7529 145.084)" class="st2 st4 st5">alt</text>
<path class="st0" d="M331.9,149.5V126h23.5v23.5H331.9z"/>
<g>
	<path class="st2" d="M345.3,144.5c0.1,0,0.2,0,0.3,0c0.1,0,0.2-0.1,0.2-0.1c0.1-0.1,0.1-0.1,0.2-0.2c0-0.1,0.1-0.2,0.1-0.3h0.5
		c0,0.1,0,0.3-0.1,0.4c-0.1,0.1-0.2,0.2-0.3,0.3c-0.1,0.1-0.3,0.2-0.4,0.2c-0.2,0.1-0.3,0.1-0.5,0.1s-0.5,0-0.6-0.1
		s-0.3-0.2-0.5-0.4c-0.1-0.1-0.2-0.3-0.3-0.5c-0.1-0.2-0.1-0.4-0.1-0.6v-0.1c0-0.2,0-0.4,0.1-0.6c0.1-0.2,0.1-0.4,0.3-0.5
		c0.1-0.1,0.3-0.3,0.4-0.4c0.2-0.1,0.4-0.1,0.6-0.1s0.4,0,0.5,0.1s0.3,0.1,0.4,0.2c0.1,0.1,0.2,0.2,0.3,0.4c0.1,0.1,0.1,0.3,0.1,0.5
		H346c0-0.1,0-0.2-0.1-0.3s-0.1-0.2-0.2-0.2c-0.1-0.1-0.1-0.1-0.2-0.2c-0.1,0-0.2-0.1-0.3-0.1c-0.2,0-0.3,0-0.4,0.1
		s-0.2,0.2-0.3,0.3c-0.1,0.1-0.1,0.2-0.1,0.4s0,0.3,0,0.4v0.1c0,0.1,0,0.3,0,0.4s0.1,0.3,0.1,0.4c0.1,0.1,0.2,0.2,0.3,0.3
		C345,144.5,345.1,144.5,345.3,144.5z"/>
	<path class="st2" d="M347.9,140.9v0.8h0.6v0.4h-0.6v2c0,0.1,0,0.2,0,0.2c0,0.1,0,0.1,0.1,0.1c0,0,0.1,0,0.1,0.1s0.1,0,0.1,0h0.1
		h0.1v0.4c0,0-0.1,0-0.2,0s-0.2,0-0.3,0c-0.1,0-0.2,0-0.3,0c-0.1,0-0.2-0.1-0.2-0.1c-0.1-0.1-0.1-0.2-0.2-0.3c0-0.1-0.1-0.2-0.1-0.4
		v-2h-0.6v-0.4h0.6v-0.8H347.9z"/>
	<path class="st2" d="M350.8,142.2h-0.1h-0.1c-0.2,0-0.3,0-0.5,0.1c-0.1,0.1-0.2,0.2-0.3,0.3v2.3h-0.6v-3.2h0.5v0.4
		c0.1-0.1,0.2-0.2,0.3-0.3c0.1-0.1,0.3-0.1,0.5-0.1h0.1h0.1v0.5H350.8z"/>
	<path class="st2" d="M351.9,144.9h-0.6v-4.6h0.6V144.9z"/>
</g>
<path class="st0" d="M358.4,149.6v-23.5h51.1v23.5H358.4z"/>
<path class="st6" d="M111.9,104.7v2.4C112,106.1,112,105.3,111.9,104.7z"/>
<path class="st7" d="M3.5,55.4c-3.3-0.9-4.5,5.7-4.3,6.7c0,0,2.1,3,6.1,0.7C5.3,62.8,6,56.1,3.5,55.4z"/>
<path class="st6" d="M164.4,172c6.1-11.2,13.4-24.1,13.4-24.1c2.1-13,8.1-18.4,4.4-21.1c-10.3-7.3-24.2,26.7-24.9,27.9
	c-0.1-28.1,2.5-31.4,11.9-47.4c6.6-11.1,9-17.6,9.1-22.2c0-8.9-7.8-6.8-13.3,1.7c-2.4,3.7-8.1,10.3-10.7,15.5
	c-1.4,2.7-9.5,12.4-10.9,14.8c0.2-1.8,2.5-15,3.4-18.3c3.2-12,10.8-26.9,10.7-28.6c-0.3-5.6-7.9-10.3-13.4-2.3
	c-1.1,1.6-11.2,22-12.9,27.7c-1.1,3.4-4.7,17-5.3,19.1c0.1-1.1,0.8-14.5,1.1-16.1c1.7-10.8,9.5-24.9,9.7-25.7
	c1.5-8-8.4-9.3-11.5-3.4c-0.9,1.5-11.8,19.7-13.3,27.6c-1.3,7.7-3.7,19.1-4.3,21.6c-0.1-0.8,1-10.5,0.8-13.2c0,0,1.9-14.5,2-15.3
	c1-6.8-6.7-8-9.3-2.7c-0.8,1.7-5.3,15.4-5.3,18.3c-0.1,4.1-0.6,16.6-1.2,19.6c-0.8,3.3-3.8,22.2-4.5,29.7
	c-0.3,3.9,0.1,11.4,0.9,21.9h69.6C162.3,175.1,163.7,173.3,164.4,172z M180.6,129.4c0.9-0.3,1.2,0.5,1,0.8c-2,4.4-3.2,8.3-3.2,8.3
	s-1,1.6-1.4-0.4C175.8,132.3,178.8,130.2,180.6,129.4z M174.3,81.2c3.6,1.6,0.1,8.5,0.1,8.5c-6.6,1.6-8.7-2.7-8.6-2.7
	C165.8,85.7,169.9,79,174.3,81.2z M152.4,66.1c3.5,1.7,0.5,9.7,0.5,9.7c-6.4,1.8-8.6-2.6-8.7-2.6C144.3,71.9,147.9,64,152.4,66.1z
	 M101,92.1c-0.2-1,2-7.5,5.7-6.1c2.8,1,1.2,7.6,1.2,7.6C103,95.3,101,92,101,92.1z M107.5,129.4c0,0.1-3.1-2.1-0.7-8.8
	C106.8,120.6,109.8,122.5,107.5,129.4z M132.4,68c3.2,1.8-0.6,9-0.6,9c-6.1,1.2-7.8-2.9-7.7-3C124.1,72.8,128.4,65.7,132.4,68z
	 M123.9,127.8c0.1-0.1-2.8-4.9,0.9-11.1C124.8,116.7,127.6,121.2,123.9,127.8z M139.8,131.8c0.2,0.1-2.4-5.6,1.9-11.5
	C141.7,120.3,144.2,125.7,139.8,131.8z"/>
<path class="st8" d="M174.4,89.7c0,0,3.5-6.9-0.1-8.5c-4.4-2.2-8.5,4.5-8.5,5.8C165.7,87,167.8,91.3,174.4,89.7z"/>
<path class="st8" d="M152.9,75.8c0,0,3-8-0.5-9.7c-4.5-2.1-8.1,5.8-8.2,7.1C144.3,73.2,146.5,77.6,152.9,75.8z"/>
<path class="st8" d="M131.8,77c0,0,3.8-7.2,0.6-9c-4-2.3-8.3,4.8-8.3,6C124,74.1,125.7,78.2,131.8,77z"/>
<path class="st8" d="M106.7,86c-3.7-1.4-5.9,5.1-5.7,6.1c0-0.1,2,3.2,6.9,1.5C107.9,93.6,109.5,87,106.7,86z"/>
<path class="st9" d="M123.9,127.8c3.7-6.6,0.9-11.1,0.9-11.1C121.1,122.9,124,127.7,123.9,127.8z"/>
<path class="st9" d="M139.8,131.8c4.4-6.1,1.9-11.5,1.9-11.5C137.4,126.2,140,131.9,139.8,131.8z"/>
<path class="st9" d="M106.8,120.6c-2.4,6.7,0.7,8.9,0.7,8.8C109.8,122.5,106.8,120.6,106.8,120.6z"/>
<path class="st8" d="M178.4,138.5c0,0,1.2-3.9,3.2-8.3c0.2-0.3-0.1-1.1-1-0.8c-1.8,0.8-4.8,2.9-3.6,8.7
	C177.4,140.1,178.4,138.5,178.4,138.5z"/>
<path class="st6" d="M328.7,153.4c-0.7-7.5-3.7-26.4-4.5-29.7c-0.6-2.9-1.2-15.5-1.2-19.6c0-2.9-4.5-16.6-5.3-18.3
	c-2.5-5.3-10.3-4.1-9.3,2.7c0.2,0.8,2,15.3,2,15.3c-0.3,2.7,0.8,12.4,0.8,13.2c-0.6-2.5-3-13.9-4.3-21.6c-1.5-8-12.4-26.1-13.3-27.6
	c-3.1-5.9-13-4.6-11.5,3.4c0.2,0.8,8,14.9,9.7,25.7c0.3,1.6,1,15,1.1,16.1c-0.6-2.1-4.2-15.6-5.3-19.1c-1.7-5.6-11.8-26.1-12.9-27.7
	c-5.5-8-13.2-3.3-13.4,2.3c-0.1,1.8,7.5,16.6,10.7,28.6c0.9,3.3,3.2,16.5,3.4,18.3c-1.4-2.4-9.5-12.1-10.9-14.8
	c-2.6-5.2-8.3-11.8-10.7-15.5c-5.5-8.5-13.2-10.6-13.3-1.7c0.1,4.5,2.5,11,9.1,22.2c9.5,15.9,12,19.3,11.9,47.4
	c-0.7-1.2-14.7-35.1-24.9-27.9c-3.7,2.7,2.3,8.1,4.4,21.1c0,0,7.3,12.9,13.4,24.1c0.9,1.7,2.8,4.1,5.3,6.7h68
	C328.6,165.7,329.1,157.5,328.7,153.4z M265.8,74.4c0,0-3.1-8.1,0.5-9.7c4.5-2.1,8.1,5.8,8.2,7.1C274.4,71.8,272.2,76.1,265.8,74.4z
	 M244.4,88.3c0,0-3.5-6.9,0.1-8.5c4.4-2.2,8.4,4.5,8.5,5.8C253,85.6,250.9,89.9,244.4,88.3z M241.8,136.7c-0.4,2-1.4,0.4-1.4,0.4
	s-1.3-3.9-3.2-8.3c-0.3-0.3,0-1.1,1-0.8C240,128.8,242.9,130.9,241.8,136.7z M278.8,130.4c-4.3-6.2-1.9-11.5-1.9-11.5
	C281.3,124.8,278.7,130.4,278.8,130.4z M287,75.6c0,0-3.7-7.2-0.6-9c3.9-2.3,8.2,4.8,8.3,6C294.7,72.7,293,76.8,287,75.6z
	 M294.7,126.3c-3.7-6.5-0.9-11.1-0.9-11.1C297.6,121.5,294.7,126.3,294.7,126.3z M311.2,128.1c-2.3-7,0.7-8.8,0.7-8.8
	C314.3,125.9,311.2,128.1,311.2,128.1z M310.9,92.2c0,0-1.7-6.6,1.2-7.6c3.7-1.4,5.8,5.1,5.7,6.1C317.7,90.6,315.7,93.8,310.9,92.2z
	"/>
<path class="st8" d="M244.5,79.8c-3.6,1.6-0.1,8.5-0.1,8.5c6.5,1.6,8.6-2.7,8.6-2.7C252.9,84.3,248.9,77.6,244.5,79.8z"/>
<path class="st8" d="M266.3,64.7c-3.6,1.6-0.5,9.7-0.5,9.7c6.4,1.7,8.6-2.6,8.7-2.6C274.4,70.5,270.8,62.6,266.3,64.7z"/>
<path class="st8" d="M294.7,72.6c-0.1-1.2-4.4-8.3-8.3-6c-3.1,1.8,0.6,9,0.6,9C293,76.8,294.7,72.7,294.7,72.6z"/>
<path class="st8" d="M312.1,84.6c-2.9,1-1.2,7.6-1.2,7.6c4.8,1.6,6.8-1.6,6.9-1.5C317.9,89.7,315.8,83.2,312.1,84.6z"/>
<path class="st9" d="M294.7,126.3c0,0,2.9-4.8-0.9-11.1C293.8,115.2,291,119.8,294.7,126.3z"/>
<path class="st9" d="M278.8,130.4c-0.1,0,2.5-5.6-1.9-11.5C276.9,118.9,274.5,124.2,278.8,130.4z"/>
<path class="st9" d="M311.2,128.1c0,0,3.1-2.2,0.7-8.8C311.9,119.3,308.9,121.1,311.2,128.1z"/>
<path class="st8" d="M238.2,128c-1-0.3-1.3,0.5-1,0.8c1.9,4.4,3.2,8.3,3.2,8.3s1,1.6,1.4-0.4C242.9,130.9,240,128.8,238.2,128z"/>
</svg>
