<?xml version="1.0" encoding="utf-8"?>
<!-- Generator: Adobe Illustrator 21.1.0, SVG Export Plug-In . SVG Version: 6.00 Build 0)  -->
<svg version="1.1" id="Layer_1" xmlns="http://www.w3.org/2000/svg" xmlns:xlink="http://www.w3.org/1999/xlink" x="0px" y="0px"
	 viewBox="0 0 72.7 50" style="enable-background:new 0 0 72.7 50;" xml:space="preserve">
<style type="text/css">
	.st0{fill:#00589D;}
	.st1{fill:#F8A31B;}
	.st2{fill:#044F98;}
	.st3{fill:#104C96;}
	.st4{fill:#507FB3;}
	.st5{fill:#3C75AE;}
	.st6{fill:#F8A51C;}
	.st7{fill:#02549D;}
	.st8{fill:#00529A;}
	.st9{fill:#4176AE;}
	.st10{fill:#0E4D97;}
	.st11{fill:#F3A11E;}
	.st12{fill:#EBA228;}
	.st13{fill:#FFFFFF;}
	.st14{fill:#054F98;}
	.st15{fill:#00549B;}
</style>
<g>
	<path class="st0" d="M70.8,35.5c0,0.1,0,0.2,0,0.3c-0.3,0.3-0.7,0.2-1.1,0.2c-1.2,0-2.4,0-3.5,0c-0.4,0-0.8-0.1-0.8-0.6
		c-0.2-0.9-0.5-1.8-0.5-2.8c0,0,0,0,0.1-0.1c0,0,0,0,0,0c-2.1,0.1-4.2,0-6.3,0c-0.2,0-0.4,0-0.6,0.1c-0.4,0.8-0.7,1.6-0.9,2.4
		c-0.2,0.6-0.6,0.9-1.2,0.9c-1.4,0-2.7,0-4.1,0c-1.2,0-1.3-0.1-0.8-1.2c1.4-3.4,2.9-6.8,4.3-10.2c1.1-2.8,2.3-5.5,3.5-8.3
		c0.6-1.6,1.7-2.3,3.4-2.3c1.1,0,2.2,0,3.2,0c1,0,1.2,0.1,1.4,1.1c0.4,2.1,0.9,4.2,1.3,6.3c0.8,4,1.6,7.9,2.5,11.9
		C70.7,34,70.6,34.8,70.8,35.5z"/>
	<path class="st0" d="M48.3,13.8c0,0,0,0.1,0,0.1c0.3,0.2,0.5,0.1,0.8,0.1c0.8,0.1,1.6,0.3,2.3,0.5c0.3,0.1,0.5,0.2,0.4,0.7
		c-0.3,1.4-0.5,2.7-0.7,4.2c-1.6-0.8-3.3-1.2-5.1-1c-0.4,0-0.8,0.1-1.1,0.2c-0.8,0.2-1.6,0.6-1.6,1.6c-0.1,1,0.6,1.5,1.4,1.9
		c1.5,0.8,3,1.5,4.4,2.6c1,0.8,1.7,1.8,1.9,3.1c-0.1,0.8-0.1,1.5,0,2.3c-0.5,3.1-2.9,5.2-6.4,5.9c-0.3,0.1-0.6,0.1-0.9,0.1
		c-0.4-0.1-0.8,0-1.2,0.2c-0.1,0-0.2,0-0.3,0c-0.4-0.1-0.8-0.1-1.2,0c-0.1,0-0.1,0-0.2,0c-0.5-0.3-1-0.2-1.6-0.2
		c-1.2-0.1-2.3-0.4-3.4-0.7c-0.4-0.1-0.5-0.3-0.5-0.7c0.2-1,0.3-2,0.6-3c0.2-0.2,0.1-0.4,0.1-0.7c0-0.5,0.3-0.5,0.6-0.3
		c1.1,0.5,2.3,0.9,3.5,1.2c0.3,0.2,0.7,0.1,1,0.1c0.9-0.1,1.8,0.1,2.7-0.3c0.7-0.4,1.3-0.7,1.5-1.6c0.1-0.9-0.4-1.4-1-1.9
		c-0.7-0.5-1.6-0.9-2.3-1.3c-1.4-0.7-2.7-1.6-3.6-2.9c-0.3-0.5-0.6-1.1-0.7-1.7c0.1-0.7,0.1-1.4,0-2.1c0.5-2.9,2.4-4.4,4.9-5.4
		c0.7-0.3,1.4-0.5,2.2-0.5c0.3,0.2,0.6,0,0.9-0.1c0.2-0.1,0.5,0.1,0.7-0.1C47,13.8,47.6,13.8,48.3,13.8z"/>
	<path class="st1" d="M1.9,14.4c0.3-0.2,0.6-0.1,0.8-0.1c2.6,0,5.2,0,7.8,0c0.3,0,0.7-0.2,0.8,0.3c-0.4,0.4-0.9,0.3-1.3,0.3
		c-2.6,0-5.1,0.1-7.7-0.1c-0.2,0-0.3,0-0.5,0C1.9,14.6,1.9,14.5,1.9,14.4z"/>
	<path class="st2" d="M39.2,36c0.5-0.1,1.1-0.4,1.6,0.2c-0.4,0-0.8,0-1.2,0C39.5,36,39.3,36,39.2,36z"/>
	<path class="st3" d="M42.5,36.2c0.3-0.6,0.8-0.4,1.2-0.2c-0.2,0.1-0.4-0.1-0.5,0.2C43,36.2,42.8,36.2,42.5,36.2z"/>
	<path class="st4" d="M41,36.2c0.4-0.3,0.8-0.3,1.2,0C41.8,36.2,41.4,36.2,41,36.2z"/>
	<path class="st5" d="M46.4,13.8c-0.2,0.3-0.5,0.2-0.7,0.2c-0.1,0-0.2,0.1-0.3-0.1c0,0,0-0.1,0-0.2C45.7,13.8,46,13.8,46.4,13.8z"/>
	<path class="st0" d="M27.2,14.7c-2.3,5.8-4.7,11.6-7,17.4c-0.5,1.1-1,2.3-1.4,3.4c-0.7,0.3-1.4,0.1-2.1,0.1c-1,0-1.9,0-2.9,0
		c-0.4,0-0.7,0-1-0.3c-0.9-2.8-1.5-5.6-2.3-8.4c-0.8-3.2-1.7-6.4-2.5-9.6c0.4-0.3,0.8,0,1.1,0.2c2.4,1.5,4.3,3.6,5.6,6.1
		c0.1,0.2,0.2,0.5,0.4,0.8c0.1,0.2,0.1,0.5,0.2,0.7c0.3,1.2,0.6,2.4,1,3.8c1.1-3,2.2-5.9,3.3-8.8c0.7-1.8,1.4-3.6,2.1-5.4
		c0.3-0.2,0.5-0.3,0.8-0.3c1.4,0,2.8,0,4.2,0C26.7,14.4,27,14.4,27.2,14.7z"/>
	<path class="st0" d="M35.1,14.7c-1.1,6.8-2.2,13.6-3.3,20.4c-0.1,0.5-0.2,0.7-0.8,0.7c-1.6-0.1-3.2,0-4.9,0
		c1.1-6.8,2.2-13.6,3.3-20.4c0.2-1,0.8-1.1,1.6-1.1c1.1,0.1,2.1,0,3.2,0C34.6,14.4,35,14.3,35.1,14.7z"/>
	<path class="st6" d="M14.5,23.8c-1.4-2.5-3.3-4.6-5.8-6.1c-0.3-0.2-0.5-0.5-0.8-0.3c-0.1-0.4-0.5-0.5-0.8-0.7
		c-1.5-0.8-3.1-1.3-4.7-1.9c0.3-0.2,0.7-0.2,1.1-0.2c2.6,0,5.3,0,7.9,0c1-0.3,1.9,0.5,2.2,1.8c0.5,2.4,0.9,4.8,1.4,7.1
		C14.8,23.7,14.9,24,14.5,23.8z"/>
	<path class="st7" d="M35.1,14.7c-0.7-0.3-1.5-0.1-2.3-0.2c-0.4,0-0.8,0-1.2,0c-0.9,0-1.7-0.2-2.1,0.9c0-1,0.4-1.3,1.4-1.2
		c1.3,0.1,2.5,0,3.8,0C35,14.2,35.4,14.2,35.1,14.7z"/>
	<path class="st8" d="M12.7,35.3c1.4,0.3,2.8,0.1,4.2,0.1c0.6,0,1.2,0,1.8,0c-0.1,0.3-0.3,0.3-0.5,0.3c-1.7,0-3.3,0-5,0
		C12.8,35.8,12.6,35.7,12.7,35.3z"/>
	<path class="st8" d="M27.2,14.7c-0.7-0.3-1.4-0.2-2-0.2c-1.2,0-2.5-0.2-3.7,0.1c0-0.1,0-0.2,0.1-0.3c1.8-0.2,3.7-0.1,5.5-0.1
		c0.2,0,0.3,0.1,0.2,0.3C27.2,14.6,27.2,14.7,27.2,14.7z"/>
	<path class="st9" d="M27.2,14.6c-0.2-0.3-0.5-0.2-0.8-0.2c-1.7,0-3.3,0-5,0c0.1-0.2,0.3-0.2,0.5-0.2c1.6,0,3.2,0,4.8,0
		C27,14.2,27.5,14,27.2,14.6z"/>
	<path class="st10" d="M37.7,19.9c0.2,0.7,0.2,1.4,0,2.1C37.5,21.3,37.6,20.6,37.7,19.9z"/>
	<path class="st11" d="M14.5,23.8c0.2,0,0.3-0.2,0.5-0.3c0,0.2,0.1,0.4,0.1,0.6c0,0.2,0.2,0.4-0.2,0.4C14.7,24.2,14.6,24,14.5,23.8z
		"/>
	<path class="st12" d="M14.8,24.5c0.1-0.1,0.1-0.3,0.2-0.4c0.2,0.3,0.2,0.6,0.1,1C15,24.9,14.9,24.7,14.8,24.5z"/>
	<path class="st10" d="M41.1,31.7c-0.4,0.2-0.7,0.3-1-0.1C40.4,31.6,40.8,31.6,41.1,31.7z"/>
	<path class="st3" d="M45.3,14c0.1,0,0.2,0,0.3,0.1c-0.3,0.2-0.6,0.2-0.8,0C45,14,45.1,14,45.3,14z"/>
	<path class="st10" d="M35.9,30.8c0.2,0.2,0.3,0.5-0.1,0.7C35.9,31.2,35.9,31,35.9,30.8z"/>
	<path class="st13" d="M62.4,20.1c0.6,2.7,1.1,5.1,1.6,7.6c0.1,0.4,0,0.5-0.4,0.5c-1.2,0-2.4,0-3.7,0c-0.3,0-0.5,0-0.3-0.4
		C60.5,25.2,61.4,22.7,62.4,20.1z"/>
	<path class="st14" d="M64.8,32.5c-2.3,0-4.6,0-6.9,0c-0.1-0.2,0-0.2,0.1-0.2c2.2,0,4.4,0,6.6,0c0.1,0,0.1,0,0.1,0
		C64.9,32.4,64.8,32.5,64.8,32.5z"/>
	<path class="st15" d="M59.6,28.4c1.4,0,2.8,0,4.1,0c0,0,0,0.1,0,0.1C62.4,28.4,61,28.4,59.6,28.4C59.6,28.4,59.6,28.4,59.6,28.4z"
		/>
	<path class="st10" d="M51,29.9c-0.2-0.8-0.2-1.5,0-2.3C51.2,28.4,51.2,29.1,51,29.9z"/>
	<path class="st2" d="M49.2,14c-0.3,0.2-0.6,0.2-0.9,0.1c0,0,0-0.1,0-0.1c0,0,0,0,0.1-0.1C48.6,14,48.9,14,49.2,14z"/>
</g>
</svg>
