<?xml version="1.0" encoding="utf-8"?>
<!-- Generator: Adobe Illustrator 21.1.0, SVG Export Plug-In . SVG Version: 6.00 Build 0)  -->
<svg version="1.1" id="Layer_1" xmlns="http://www.w3.org/2000/svg" xmlns:xlink="http://www.w3.org/1999/xlink" x="0px" y="0px"
	 viewBox="0 0 200 200" style="enable-background:new 0 0 200 200;" xml:space="preserve">
<style type="text/css">
	.st0{fill:#FFFFFF;}
</style>
<circle class="st0" cx="115.3" cy="142.7" r="6.6"/>
<circle class="st0" cx="132.8" cy="129.6" r="6.6"/>
<polygon class="st0" points="82.5,118.7 73.8,118.7 73.8,131.8 60.7,131.8 60.7,140.5 73.8,140.5 73.8,153.6 82.5,153.6 82.5,140.5 
	95.6,140.5 95.6,131.8 82.5,131.8 "/>
<path class="st0" d="M75,68.5c0.4,0.5,0.8,0.9,1.2,1.1c0.5,0.2,1,0.4,1.6,0.4c0.7,0,1.3-0.2,1.8-0.5s1-0.9,1.3-1.6
	c0.3-0.7,0.5-1.5,0.5-2.5c0-1.4-0.3-2.5-1-3.2c-0.7-0.8-1.6-1.1-2.6-1.1c-0.5,0-1,0.1-1.4,0.3c-0.4,0.2-0.8,0.4-1.1,0.8v-4.1h-3.3
	v11.9H75V68.5z M75.6,63.9c0.3-0.3,0.6-0.5,1.1-0.5c0.4,0,0.7,0.2,1,0.5c0.3,0.3,0.4,0.8,0.4,1.5c0,0.8-0.1,1.3-0.4,1.6
	c-0.3,0.3-0.6,0.5-1,0.5c-0.4,0-0.8-0.2-1.1-0.5c-0.3-0.3-0.4-0.9-0.4-1.6C75.2,64.8,75.4,64.3,75.6,63.9z"/>
<path class="st0" d="M63,65c-1,0.2-1.7,0.5-2.1,0.9s-0.6,1-0.6,1.6c0,0.7,0.3,1.3,0.8,1.8c0.5,0.5,1.3,0.7,2.3,0.7
	c0.8,0,1.4-0.1,2-0.4c0.4-0.2,0.9-0.5,1.3-0.9c0,0.2,0.1,0.4,0.1,0.5c0,0.1,0.1,0.3,0.2,0.5h3.1c-0.2-0.4-0.3-0.6-0.3-0.9
	s-0.1-0.5-0.1-1v-3.8c0-0.4-0.1-0.8-0.2-1.3s-0.4-0.8-0.7-1c-0.4-0.4-0.9-0.6-1.5-0.7C66.8,61,66,61,65,61c-0.6,0-1.2,0-1.7,0.1
	c-0.5,0.1-0.9,0.2-1.2,0.4c-0.4,0.2-0.7,0.5-1,0.8c-0.2,0.3-0.4,0.7-0.5,1.3l3.1,0.3c0.1-0.4,0.3-0.6,0.5-0.8
	c0.3-0.2,0.7-0.3,1.2-0.3c0.4,0,0.7,0.1,0.9,0.2c0.2,0.2,0.3,0.4,0.3,0.8c-0.4,0.2-0.8,0.3-1.2,0.4S64.2,64.7,63,65z M66.5,66.2
	c0,0.4-0.1,0.7-0.2,1c-0.1,0.3-0.4,0.5-0.7,0.7c-0.3,0.2-0.7,0.3-1,0.3c-0.4,0-0.6-0.1-0.8-0.2c-0.2-0.2-0.3-0.4-0.3-0.6
	c0-0.2,0.1-0.4,0.3-0.6c0.2-0.2,0.6-0.3,1.3-0.5c0.5-0.1,1-0.3,1.4-0.4V66.2z"/>
<path class="st0" d="M84,68.9c0.4,0.4,1,0.7,1.6,0.8c0.6,0.2,1.4,0.3,2.3,0.3c0.9,0,1.7-0.1,2.3-0.4s1.1-0.6,1.5-1.1
	c0.4-0.5,0.7-1,0.8-1.7l-3.1-0.4c-0.1,0.5-0.4,0.8-0.7,1s-0.7,0.3-1.1,0.3c-0.5,0-0.9-0.2-1.3-0.5c-0.3-0.4-0.5-0.9-0.5-1.6
	c0-0.8,0.2-1.4,0.5-1.8s0.8-0.6,1.3-0.6c0.4,0,0.8,0.1,1,0.3c0.3,0.2,0.4,0.5,0.5,0.8l3.1-0.4c-0.3-1-0.8-1.7-1.5-2.2S89,61,87.6,61
	c-1,0-1.8,0.1-2.5,0.4c-0.4,0.2-0.8,0.4-1.2,0.8c-0.4,0.3-0.7,0.7-0.9,1.2c-0.3,0.6-0.5,1.3-0.5,2.2c0,0.8,0.1,1.5,0.4,2
	S83.5,68.5,84,68.9z"/>
<path class="st0" d="M100,1.7c-54.3,0-98.3,44-98.3,98.3s44,98.3,98.3,98.3s98.3-44,98.3-98.3S154.3,1.7,100,1.7z M52.5,37.9
	c0-4.8,3.9-8.6,8.6-8.6h77.7c4.8,0,8.6,3.9,8.6,8.6v56.1c0,4.8-3.9,8.6-8.6,8.6H61.1c-4.8,0-8.6-3.9-8.6-8.6V37.9z M148,153.6
	c0,4.8-3.9,8.7-8.7,8.7H60.7c-4.8,0-8.7-3.9-8.7-8.7v-34.9c0-4.8,3.9-8.7,8.7-8.7h78.6c4.8,0,8.7,3.9,8.7,8.7V153.6z"/>
<path class="st0" d="M138.9,37.9H100v56.1h38.9V37.9z M134.5,81.1h-30.2v-6.5h30.2V81.1z M134.5,70.3h-30.2v-6.5h30.2V70.3z
	 M134.5,59.5h-30.2V53h30.2V59.5z"/>
</svg>
