<?xml version="1.0" encoding="utf-8"?>
<!-- Generator: Adobe Illustrator 21.0.2, SVG Export Plug-In . SVG Version: 6.00 Build 0)  -->
<svg version="1.1" id="Layer_1" xmlns="http://www.w3.org/2000/svg" xmlns:xlink="http://www.w3.org/1999/xlink" x="0px" y="0px"
	 viewBox="0 0 46 31" style="enable-background:new 0 0 46 31;" xml:space="preserve">
<g>
	<rect x="18" y="10.5" width="1" height="1"/>
	<rect x="19" y="11.5" width="1" height="1"/>
	<rect x="20" y="12.5" width="1" height="1"/>
	<rect x="21" y="13.5" width="1" height="1"/>
	<rect x="24" y="13.5" width="1" height="1"/>
	<rect x="25" y="12.5" width="1" height="1"/>
	<rect x="26" y="11.5" width="1" height="1"/>
	<rect x="27" y="10.5" width="1" height="1"/>
	<rect x="18" y="19.5" width="1" height="1"/>
	<rect x="19" y="18.5" width="1" height="1"/>
	<rect x="20" y="17.5" width="1" height="1"/>
	<rect x="21" y="16.5" width="1" height="1"/>
	<rect x="24" y="16.5" width="1" height="1"/>
	<rect x="25" y="17.5" width="1" height="1"/>
	<rect x="26" y="18.5" width="1" height="1"/>
	<rect x="27" y="19.5" width="1" height="1"/>
	<rect x="22" y="14.5" width="2" height="2"/>
</g>
</svg>
