<?xml version="1.0" encoding="utf-8"?>
<!-- Generator: Adobe Illustrator 21.1.0, SVG Export Plug-In . SVG Version: 6.00 Build 0)  -->
<svg version="1.1" id="Layer_1" xmlns="http://www.w3.org/2000/svg" xmlns:xlink="http://www.w3.org/1999/xlink" x="0px" y="0px"
	 viewBox="0 0 200 200" style="enable-background:new 0 0 200 200;" xml:space="preserve">
<style type="text/css">
	.st0{fill:#FFFFFF;}
	.st1{fill:#15202B;}
</style>
<circle class="st0" cx="99.5" cy="99" r="67.5"/>
<path class="st0" d="M148,60.2c-0.3,0.1-0.5,0.2-0.6,0.3c0.1,0.1,0.3,0.2,0.4,0.3C147.9,60.6,147.9,60.4,148,60.2z"/>
<path class="st1" d="M98.3,113.6c-0.1-0.2-0.3-0.4-0.5-0.4c-1.6,0-3.2,0-4.8,0c0,0.6,0,1,0,1.4c0,5.4-0.1,10.8,0,16.2
	c0,1.7-0.7,2.5-2,3.2c-1.5,0.7-2.3,0.3-2.3-1.4c0-5.5,0-11,0-16.5c0-0.7,0-1.5,0-2.2c0-0.3-0.3-0.7-0.5-0.7c-1.6-0.1-3.1,0-4.8,0
	c0,2.2,0,4.2,0,6.2c0,5.3,0,10.5,0,15.8c0,3,2.1,4.6,5,3.7c1.4-0.4,2.6-1.3,3.8-2.1c0.3-0.2,0.5-0.4,0.9-0.8c0,1,0,1.8,0,2.6
	c1.4,0,2.6,0,3.9,0c1.4,0,1.4,0,1.4-1.4c0-7.6,0-15.1,0-22.7C98.3,114.2,98.4,113.9,98.3,113.6z"/>
<path class="st1" d="M99.1,84.9c1.7,0,2.6-1,2.6-2.7c0-2.4,0-4.9,0-7.3s0-4.9,0-7.3c0-1.6-1-2.5-2.6-2.5s-2.5,1-2.5,2.6
	c0,4.9,0,9.8,0,14.7C96.6,83.9,97.5,84.9,99.1,84.9z"/>
<path class="st1" d="M110.7,113c-1.2,0.3-2.2,1.1-3.4,1.7c0-3.5,0-7,0-10.6c-1.4,0-2.7,0-4,0s-1.3,0-1.3,1.4c0,10.6,0,21.2,0,31.8
	c0,0.3,0,0.6,0,0.8c0.1,0.2,0.3,0.4,0.4,0.5c1.6,0,3.2,0,4.9,0c0-0.6,0.1-1,0.1-1.6c0.6,0.4,1.2,0.9,1.7,1.2c3.6,2,7.7,0.1,7.8-3.8
	c0.1-5.5,0.1-11,0-16.5C116.9,114.3,114.1,112.1,110.7,113z M111.5,132.9c0,1.6-0.6,2-2.2,1.8c-1.3-0.2-1.9-0.8-1.9-2.1
	c0-2.3,0-4.5,0-6.8s0-4.6,0-6.9c0-1.1,0.7-1.8,1.9-1.9c1.2-0.1,2,0.5,2.2,1.6c0,0.2,0,0.4,0,0.6
	C111.5,123.8,111.5,128.4,111.5,132.9z"/>
<path class="st1" d="M81.2,104.1c-5.9,0-11.7,0-17.4,0c-0.2,0-0.6,0.4-0.6,0.7c-0.1,1.2,0,2.4,0,3.7c0,0.6,0.2,0.8,0.8,0.8
	c1.4,0,2.7,0,4.1,0c0.9,0,1.1,0.2,1.1,1.1c0,5,0,10,0,15.1c0,4,0,8.1,0,12.1c0,0.5-0.1,1.1,0.8,1c1.5,0,3.1,0,4.6,0
	c0.3,0,0.6-0.4,0.7-0.7s0-0.7,0-1c0-8.8,0-17.6,0-26.4c0-0.9,0.2-1.2,1.2-1.2c1.3,0.1,2.7,0,4,0c0.5,0,0.8,0,0.8-0.7
	C81.2,107.2,81.2,105.7,81.2,104.1z"/>
<path class="st1" d="M126.4,126.6c2.5,0,5,0,7.5,0c0.8,0,1.1-0.2,1.1-1.1c-0.1-2.1,0-4.1,0-6.2c-0.1-3.8-2.1-6.1-5.7-6.8
	c-0.8-0.2-1.7-0.1-2.5-0.1c-4,0.1-7.2,3.3-7.2,7.4c0,2,0,4,0,6c0,2.1,0,4.2,0,6.3c0.1,3.6,2.2,6.4,5.6,7c1.1,0.2,2.3,0.2,3.4,0.1
	c3.2-0.2,5.4-2,6.1-5.1c0.2-1.1,0.2-2.2,0.3-3.3c0.1-0.6-0.2-0.9-0.8-0.9c-1.3,0-2.6,0-3.9,0c-0.6,0-0.9,0.2-0.9,0.9s0,1.3,0,2
	c-0.1,1.3-0.7,1.8-1.9,1.9c-1.5,0.1-2.2-0.6-2.3-2.2c-0.1-1.6,0-3.1,0-4.7C125.1,126.8,125.5,126.6,126.4,126.6z M125.2,119.2
	c0.1-1.4,0.8-2.2,2.2-2.2c1.2,0,2,0.8,2.1,2.1c0,0.7,0,1.3,0,2c0.1,1-0.3,1.4-1.3,1.3c-0.3,0-0.6,0-0.8,0c-2.2,0-2.2,0-2.2-2.2
	C125.2,119.9,125.2,119.6,125.2,119.2z"/>
<path class="st1" d="M100,13.5c-47.8,0-86.5,38.7-86.5,86.5s38.7,86.5,86.5,86.5s86.5-38.7,86.5-86.5S147.8,13.5,100,13.5z
	 M148,60.2c-0.1,0.2-0.2,0.4-0.2,0.6c-0.1-0.1-0.3-0.2-0.4-0.3C147.5,60.4,147.7,60.3,148,60.2z M113.3,61.1c1.3,0,2.5,0,3.8,0
	c0.8,0,1,0.3,0.9,1c0,1.7,0,3.4,0,5.1c0,4.7,0,9.4,0,14.1c0,0.3,0,0.7,0,1c0.2,1.9,1.2,2.4,2.9,1.6c1.6-0.8,2.5-1.8,2.4-3.8
	c-0.1-6,0-11.9-0.1-17.9c0-0.9,0.2-1.3,1.2-1.3c1.1,0.1,2.3,0,3.5,0c0.6,0,0.9,0.1,0.9,0.9c0,8.7,0,17.4,0,26.1
	c0,0.7-0.3,0.8-0.9,0.8c-1.3,0-2.6,0-3.9,0c-0.6,0-0.9-0.2-0.9-0.9c0-0.6,0-1.3,0-1.9c-0.1,0-0.2,0-0.3-0.1
	c-0.3,0.2-0.5,0.5-0.8,0.7c-1.3,0.8-2.5,1.8-3.9,2.3c-3.5,1.2-5.8-0.6-5.8-4.3c0-7.5,0-14.9,0-22.4c0-0.1,0-0.1,0-0.2
	C112.3,61.3,112.6,61.1,113.3,61.1z M97.3,60.5c1.7-0.2,3.6-0.1,5.3,0.4c3.1,0.8,4.9,3.4,4.9,6.6c0,4.9,0,9.7,0,14.6
	c0,4.3-2.9,7.3-7.3,7.4c-1.6,0-3.3-0.1-4.8-0.6c-2.9-0.9-4.5-3.5-4.6-6.5c0-0.1,0-0.1,0-0.2c0-2.5,0-5,0-7.5c0-2.3,0.1-4.6,0-6.9
	C90.6,63.2,93.9,60.9,97.3,60.5z M74.2,51.1c0.3,0,0.7,0.5,0.8,0.9c1.2,4.2,2.4,8.5,3.6,12.8c0.1,0.5,0.3,1,0.5,1.5
	c0.1,0,0.2,0,0.3,0c0.1-0.3,0.3-0.6,0.4-1c1.2-4.3,2.4-8.7,3.5-13c0.2-0.9,0.6-1.3,1.5-1.2c1.7,0.1,3.4,0,5.3,0
	c-0.5,1.6-1,3.1-1.5,4.5c-1.9,5.5-3.8,11-5.7,16.6c-0.2,0.5-0.3,1.2-0.3,1.7c0,4.6,0,9.2,0,13.8c0,0.9-0.3,1.1-1.1,1.1
	c-1.4-0.1-2.7-0.1-4.1,0c-0.9,0-1.2-0.2-1.2-1.2c0.1-4-0.1-8,0.1-11.9c0.1-2.1-0.8-3.9-1.4-5.7c-2-6-4.1-11.9-6.1-17.9
	c-0.1-0.3-0.2-0.6-0.3-1.1C70.4,51.1,72.3,51,74.2,51.1z M151,130.9c0,8.4-6.3,16-14.5,17.6c-1.4,0.3-2.9,0.4-4.4,0.4
	c-10.7,0-21.4,0-32.1,0c-10.8,0-21.6,0-32.4,0c-9.1,0-16.4-5.8-18.4-14.7c-0.2-0.9-0.3-1.9-0.3-2.9c0-5.2,0-10.4,0-15.6
	c0-8.4,6.5-16.1,14.8-17.6c1.5-0.3,3.1-0.4,4.7-0.4c21.3,0,42.5,0,63.8,0c9.2,0,16.6,6,18.5,14.9c0.2,1,0.3,2,0.3,3
	C151.1,120.8,151,125.9,151,130.9z"/>
</svg>
