<?xml version="1.0" encoding="utf-8"?>
<!-- Generator: Adobe Illustrator 21.1.0, SVG Export Plug-In . SVG Version: 6.00 Build 0)  -->
<svg version="1.1" id="Layer_1" xmlns="http://www.w3.org/2000/svg" xmlns:xlink="http://www.w3.org/1999/xlink" x="0px" y="0px"
	 viewBox="0 0 170 177" style="enable-background:new 0 0 170 177;" xml:space="preserve">
<style type="text/css">
	.st0{fill:#A3A5A8;}
	.st1{fill:#D1D5DB;}
	.st2{fill:#898B90;}
	.st3{fill:#FFFFFF;}
	.st4{fill:#54AF19;}
	.st5{fill:#444444;}
	.st6{font-family:'ArialMT';}
	.st7{font-size:6px;}
	.st8{opacity:0.8;fill:#FFDAB5;stroke:#F9BF98;stroke-width:0.729;stroke-miterlimit:10;enable-background:new    ;}
	.st9{fill:#F9BF98;}
	.st10{opacity:0.75;fill:#FCF0EB;enable-background:new    ;}
	.st11{opacity:0.5;fill:#F9AA62;enable-background:new    ;}
	text{font-family: arial !important;}
</style>
<g>
	<path class="st0" d="M134.3,166H35.7c-3.7,0-6.8-3.1-6.8-6.8V18.8c0-3.7,3.1-6.8,6.8-6.8h98.6c3.7,0,6.8,3.1,6.8,6.8v140.4
		C141.1,162.9,138,166,134.3,166z"/>
	<path class="st1" d="M134.4,165H35.7c-3.7,0-6.8-3.1-6.8-6.8V17.8c0-3.7,3.1-6.8,6.8-6.8h98.7c3.7,0,6.8,3.1,6.8,6.8v140.4
		C141.2,161.9,138.1,165,134.4,165z"/>
</g>
<g>
	<path class="st2" d="M131.6,46.7h-17.7c-1.4,0-2.6-1.2-2.6-2.6V27.7c0-1.4,1.2-2.6,2.6-2.6h17.7c1.4,0,2.6,1.2,2.6,2.6v16.4
		C134.2,45.6,133.1,46.7,131.6,46.7z"/>
	<path class="st3" d="M131.6,46.1h-17.7c-1.4,0-2.6-1.2-2.6-2.6V27.1c0-1.4,1.2-2.6,2.6-2.6h17.7c1.4,0,2.6,1.2,2.6,2.6v16.4
		C134.2,44.9,133.1,46.1,131.6,46.1z"/>
	<path class="st2" d="M106.4,46.7H88.7c-1.4,0-2.6-1.2-2.6-2.6V27.7c0-1.4,1.2-2.6,2.6-2.6h17.7c1.4,0,2.6,1.2,2.6,2.6v16.4
		C109,45.6,107.8,46.7,106.4,46.7z"/>
	<path class="st3" d="M106.4,46.1H88.7c-1.4,0-2.6-1.2-2.6-2.6V27.1c0-1.4,1.2-2.6,2.6-2.6h17.7c1.4,0,2.6,1.2,2.6,2.6v16.4
		C109,44.9,107.8,46.1,106.4,46.1z"/>
	<path class="st2" d="M81.1,46.7H63.4c-1.4,0-2.6-1.2-2.6-2.6V27.7c0-1.4,1.2-2.6,2.6-2.6h17.7c1.4,0,2.6,1.2,2.6,2.6v16.4
		C83.8,45.6,82.6,46.7,81.1,46.7z"/>
	<path class="st3" d="M81.1,46.1H63.4c-1.4,0-2.6-1.2-2.6-2.6V27.1c0-1.4,1.2-2.6,2.6-2.6h17.7c1.4,0,2.6,1.2,2.6,2.6v16.4
		C83.8,44.9,82.6,46.1,81.1,46.1z"/>
	<path class="st2" d="M55.9,46.7H38.2c-1.4,0-2.6-1.2-2.6-2.6V27.7c0-1.4,1.2-2.6,2.6-2.6h17.7c1.4,0,2.6,1.2,2.6,2.6v16.4
		C58.5,45.6,57.4,46.7,55.9,46.7z"/>
	<path class="st3" d="M55.9,46.1H38.2c-1.4,0-2.6-1.2-2.6-2.6V27.1c0-1.4,1.2-2.6,2.6-2.6h17.7c1.4,0,2.6,1.2,2.6,2.6v16.4
		C58.5,44.9,57.4,46.1,55.9,46.1z"/>
</g>
<g>
	<path class="st2" d="M106.8,100H89.1c-1.4,0-2.6-1.2-2.6-2.6V81c0-1.4,1.2-2.6,2.6-2.6h17.7c1.4,0,2.6,1.2,2.6,2.6v16.4
		C109.4,98.9,108.2,100,106.8,100z"/>
	<path class="st3" d="M106.8,99.4H89.1c-1.4,0-2.6-1.2-2.6-2.6V80.4c0-1.4,1.2-2.6,2.6-2.6h17.7c1.4,0,2.6,1.2,2.6,2.6v16.4
		C109.4,98.2,108.2,99.4,106.8,99.4z"/>
	<path class="st2" d="M81.5,100H63.8c-1.4,0-2.6-1.2-2.6-2.6V81c0-1.4,1.2-2.6,2.6-2.6h17.7c1.4,0,2.6,1.2,2.6,2.6v16.4
		C84.2,98.9,83,100,81.5,100z"/>
	<path class="st3" d="M81.5,99.4H63.8c-1.4,0-2.6-1.2-2.6-2.6V80.4c0-1.4,1.2-2.6,2.6-2.6h17.7c1.4,0,2.6,1.2,2.6,2.6v16.4
		C84.2,98.2,83,99.4,81.5,99.4z"/>
	<path class="st2" d="M56.3,100H38.6c-1.4,0-2.6-1.2-2.6-2.6V81c0-1.4,1.2-2.6,2.6-2.6h17.7c1.4,0,2.6,1.2,2.6,2.6v16.4
		C58.9,98.9,57.8,100,56.3,100z"/>
	<path class="st3" d="M56.3,99.4H38.6c-1.4,0-2.6-1.2-2.6-2.6V80.4c0-1.4,1.2-2.6,2.6-2.6h17.7c1.4,0,2.6,1.2,2.6,2.6v16.4
		C58.9,98.2,57.8,99.4,56.3,99.4z"/>
</g>
<g>
	<path class="st2" d="M106.4,73.3H88.7c-1.4,0-2.6-1.2-2.6-2.6V54.3c0-1.4,1.2-2.6,2.6-2.6h17.7c1.4,0,2.6,1.2,2.6,2.6v16.4
		C109,72.2,107.8,73.3,106.4,73.3z"/>
	<path class="st3" d="M106.4,72.7H88.7c-1.4,0-2.6-1.2-2.6-2.6V53.7c0-1.4,1.2-2.6,2.6-2.6h17.7c1.4,0,2.6,1.2,2.6,2.6v16.4
		C109,71.5,107.8,72.7,106.4,72.7z"/>
	<path class="st2" d="M81.1,73.3H63.4c-1.4,0-2.6-1.2-2.6-2.6V54.3c0-1.4,1.2-2.6,2.6-2.6h17.7c1.4,0,2.6,1.2,2.6,2.6v16.4
		C83.8,72.2,82.6,73.3,81.1,73.3z"/>
	<path class="st3" d="M81.1,72.7H63.4c-1.4,0-2.6-1.2-2.6-2.6V53.7c0-1.4,1.2-2.6,2.6-2.6h17.7c1.4,0,2.6,1.2,2.6,2.6v16.4
		C83.8,71.5,82.6,72.7,81.1,72.7z"/>
	<path class="st2" d="M55.9,73.3H38.2c-1.4,0-2.6-1.2-2.6-2.6V54.3c0-1.4,1.2-2.6,2.6-2.6h17.7c1.4,0,2.6,1.2,2.6,2.6v16.4
		C58.5,72.2,57.4,73.3,55.9,73.3z"/>
	<path class="st3" d="M55.9,72.7H38.2c-1.4,0-2.6-1.2-2.6-2.6V53.7c0-1.4,1.2-2.6,2.6-2.6h17.7c1.4,0,2.6,1.2,2.6,2.6v16.4
		C58.5,71.5,57.4,72.7,55.9,72.7z"/>
</g>
<path class="st2" d="M106.8,126.7H89.1c-1.4,0-2.6-1.2-2.6-2.6v-16.4c0-1.4,1.2-2.6,2.6-2.6h17.7c1.4,0,2.6,1.2,2.6,2.6v16.4
	C109.4,125.6,108.2,126.7,106.8,126.7z"/>
<path class="st3" d="M106.8,126.1H89.1c-1.4,0-2.6-1.2-2.6-2.6v-16.4c0-1.4,1.2-2.6,2.6-2.6h17.7c1.4,0,2.6,1.2,2.6,2.6v16.4
	C109.4,124.9,108.2,126.1,106.8,126.1z"/>
<path class="st2" d="M81.5,126.7H63.8c-1.4,0-2.6-1.2-2.6-2.6v-16.4c0-1.4,1.2-2.6,2.6-2.6h17.7c1.4,0,2.6,1.2,2.6,2.6v16.4
	C84.2,125.6,83,126.7,81.5,126.7z"/>
<path class="st3" d="M81.5,126.1H63.8c-1.4,0-2.6-1.2-2.6-2.6v-16.4c0-1.4,1.2-2.6,2.6-2.6h17.7c1.4,0,2.6,1.2,2.6,2.6v16.4
	C84.2,124.9,83,126.1,81.5,126.1z"/>
<path class="st2" d="M56.3,126.7H38.6c-1.4,0-2.6-1.2-2.6-2.6v-16.4c0-1.4,1.2-2.6,2.6-2.6h17.7c1.4,0,2.6,1.2,2.6,2.6v16.4
	C58.9,125.6,57.8,126.7,56.3,126.7z"/>
<path class="st4" d="M56.3,126.1H38.6c-1.4,0-2.6-1.2-2.6-2.6v-16.4c0-1.4,1.2-2.6,2.6-2.6h17.7c1.4,0,2.6,1.2,2.6,2.6v16.4
	C58.9,124.9,57.8,126.1,56.3,126.1z"/>
<path class="st2" d="M81.7,153.5H38.6c-1.2,0-2.4-1-2.4-2.3v-17.1c0-1.3,1-2.3,2.4-2.3h43.1c1.3,0,2.4,1,2.4,2.3v17.1
	C84.1,152.5,83,153.5,81.7,153.5z"/>
<path class="st3" d="M81.7,152.9H38.5c-1.2,0-2.4-1-2.4-2.3v-17.1c0-1.3,1-2.3,2.4-2.3h43.2c1.3,0,2.4,1,2.4,2.3v17.1
	C84.1,151.9,83.1,152.9,81.7,152.9z"/>
<g>
	<path class="st2" d="M106.6,153.6H88.9c-1.4,0-2.6-1.2-2.6-2.6v-16.4c0-1.4,1.2-2.6,2.6-2.6h17.7c1.4,0,2.6,1.2,2.6,2.6V151
		C109.2,152.4,108,153.6,106.6,153.6z"/>
	<path class="st3" d="M106.6,152.9H88.9c-1.4,0-2.6-1.2-2.6-2.6v-16.4c0-1.4,1.2-2.6,2.6-2.6h17.7c1.4,0,2.6,1.2,2.6,2.6v16.4
		C109.2,151.7,108,152.9,106.6,152.9z"/>
</g>
<path class="st2" d="M133.2,53.7v44.1c0,1.2-1.2,2.2-2.6,2.2H114c-1.4,0-2.6-1-2.6-2.2V53.7c0-1.2,1.2-2.2,2.6-2.2h16.5
	C132,51.5,133.2,52.4,133.2,53.7z"/>
<path class="st3" d="M133.4,53.3v43.9c0,1.2-1.2,2.2-2.6,2.2H114c-1.4,0-2.6-1-2.6-2.2V53.3c0-1.2,1.2-2.2,2.6-2.2h16.7
	C132.1,51.1,133.4,52,133.4,53.3z"/>
<g>
	<path class="st2" d="M133.4,107v44.1c0,1.2-1.2,2.2-2.6,2.2h-16.6c-1.4,0-2.6-1-2.6-2.2V107c0-1.2,1.2-2.2,2.6-2.2h16.5
		C132.2,104.7,133.4,105.7,133.4,107z"/>
	<path class="st3" d="M133.6,106.6v43.9c0,1.2-1.2,2.2-2.6,2.2h-16.8c-1.4,0-2.6-1-2.6-2.2v-43.9c0-1.2,1.2-2.2,2.6-2.2h16.7
		C132.4,104.3,133.6,105.3,133.6,106.6z"/>
</g>
<path class="st5" d="M62.6,142.7c0,1.2-0.5,2-1.4,2s-1.3-0.8-1.4-2c0-1.2,0.5-2,1.4-2C62.2,140.8,62.6,141.6,62.6,142.7z
	 M60.6,142.8c0,0.9,0.3,1.4,0.7,1.4s0.7-0.5,0.7-1.4s-0.2-1.4-0.7-1.4C60.9,141.3,60.6,141.8,60.6,142.8z"/>
<text transform="matrix(1 0 0 1 115.6375 129.8417)" class="st5 st6 st7">enter</text>
<path class="st5" d="M122.5,73.7V75h1.3v0.5h-1.3v1.3H122v-1.3h-1.3V75h1.3v-1.3H122.5z"/>
<path class="st5" d="M124,36.2v0.3h-2.9v-0.3H124z"/>
<path class="st5" d="M47.6,117.9H47V114l-1.1,0.4v-0.6l1.7-0.6h0.1L47.6,117.9L47.6,117.9z"/>
<path class="st5" d="M71,117.8v-0.5l0.5-0.4c0.9-0.9,1.3-1.3,1.3-1.8c0-0.3-0.2-0.7-0.7-0.7c-0.3,0-0.6,0.2-0.8,0.3l-0.2-0.5
	c0.3-0.2,0.7-0.4,1.2-0.4c0.9,0,1.3,0.5,1.3,1.1c0,0.7-0.5,1.2-1.1,1.8l-0.3,0.3l0,0h1.6v0.6L71,117.8L71,117.8L71,117.8z"/>
<path class="st5" d="M96.7,116.9c0.2,0.1,0.5,0.2,0.9,0.2c0.6,0,0.8-0.3,0.8-0.6c0-0.5-0.4-0.7-0.9-0.7h-0.3v-0.5h0.3
	c0.3,0,0.8-0.2,0.8-0.5s-0.2-0.5-0.6-0.5c-0.3,0-0.6,0.1-0.8,0.2l-0.2-0.5c0.2-0.2,0.7-0.3,1.1-0.3c0.8,0,1.2,0.4,1.2,1
	c0,0.4-0.2,0.7-0.7,0.9l0,0c0.5,0.1,0.9,0.4,0.9,1c0,0.7-0.6,1.1-1.5,1.1c-0.5,0-0.9-0.1-1.1-0.3L96.7,116.9z"/>
<path class="st5" d="M47.1,92.1v-1h-1.7v-0.5l1.6-2.4h0.9v2.3h0.5v0.6h-0.5v1H47.1L47.1,92.1z M47.1,90.6v-1c0-0.2,0-0.5,0-0.7l0,0
	c-0.1,0.2-0.2,0.4-0.3,0.7l-0.7,1l0,0H47.1z"/>
<path class="st5" d="M73.2,88.9h-1.5l-0.1,0.8c0.1,0,0.2,0,0.3,0c0.3,0,0.7,0.1,0.9,0.3c0.3,0.2,0.5,0.5,0.5,1
	c0,0.7-0.6,1.3-1.5,1.3c-0.5,0-0.8-0.1-1-0.2l0.2-0.6c0.2,0.1,0.5,0.2,0.9,0.2s0.8-0.2,0.8-0.7c0-0.4-0.3-0.7-1.1-0.7
	c-0.2,0-0.4,0-0.5,0l0.3-1.9h2v0.5C73.4,88.9,73.2,88.9,73.2,88.9z"/>
<path class="st5" d="M98,88.8c-0.1,0-0.2,0-0.4,0c-0.8,0.1-1.2,0.6-1.3,1.1l0,0c0.2-0.2,0.5-0.4,0.9-0.4c0.7,0,1.2,0.5,1.2,1.2
	s-0.5,1.4-1.3,1.4c-0.9,0-1.4-0.7-1.4-1.6c0-0.8,0.3-1.3,0.7-1.7c0.4-0.3,0.8-0.5,1.4-0.6c0.2,0,0.3,0,0.4,0L98,88.8z M97.6,90.8
	c0-0.5-0.2-0.8-0.7-0.8c-0.3,0-0.5,0.2-0.6,0.4c0,0.1,0,0.1,0,0.2c0,0.5,0.3,0.9,0.7,0.9C97.4,91.6,97.6,91.3,97.6,90.8z"/>
<path class="st5" d="M47.6,60.2v0.5L46,64.1h-0.8l1.6-3.2l0,0H45v-0.6L47.6,60.2L47.6,60.2z"/>
<path class="st5" d="M69.8,63.1c0-0.5,0.3-0.8,0.7-1l0,0c-0.4-0.2-0.6-0.5-0.6-0.9c0-0.6,0.6-1,1.3-1c0.8,0,1.2,0.5,1.2,1
	c0,0.3-0.2,0.7-0.6,0.9l0,0c0.4,0.2,0.7,0.5,0.7,1c0,0.7-0.6,1.1-1.4,1.1C70.3,64.1,69.8,63.6,69.8,63.1z M71.8,63
	c0-0.4-0.3-0.6-0.7-0.7c-0.4,0.1-0.6,0.4-0.6,0.7s0.2,0.6,0.7,0.6C71.6,63.6,71.8,63.4,71.8,63z M70.6,61.2c0,0.3,0.3,0.5,0.6,0.6
	c0.3-0.1,0.5-0.3,0.5-0.6s-0.2-0.6-0.6-0.6C70.8,60.7,70.6,60.9,70.6,61.2z"/>
<path class="st5" d="M95.4,63.6c0.1,0,0.2,0,0.4,0c0.3,0,0.6-0.1,0.8-0.3c0.3-0.2,0.4-0.5,0.5-0.9l0,0c-0.2,0.2-0.5,0.3-0.9,0.3
	c-0.7,0-1.1-0.5-1.1-1.2s0.6-1.4,1.4-1.4c0.9,0,1.4,0.7,1.4,1.6c0,0.8-0.3,1.4-0.7,1.8c-0.3,0.3-0.8,0.5-1.3,0.5c-0.2,0-0.3,0-0.4,0
	L95.4,63.6L95.4,63.6z M95.8,61.5c0,0.4,0.2,0.7,0.6,0.7c0.3,0,0.5-0.1,0.6-0.3c0,0,0-0.1,0-0.2c0-0.5-0.2-1-0.7-1
	C96,60.7,95.8,61,95.8,61.5z"/>
<path class="st5" d="M71.2,38.1l1.4-4.3h0.5l-1.4,4.3H71.2z"/>
<path class="st5" d="M98.5,35.1l-0.6,0.8l0,0l0.9-0.2v0.5l-0.9-0.1l0,0l0.6,0.7L98,37.1l-0.4-0.9l0,0l-0.4,0.9l-0.4-0.3l0.6-0.7l0,0
	l-0.9,0.2v-0.5l0.9,0.2l0,0l-0.6-0.7l0.5-0.3l0.3,0.9l0,0l0.3-0.9L98.5,35.1z"/>
<text transform="matrix(1 0 0 1 40.9708 33.675)" class="st5 st6 st7">num </text>
<text transform="matrix(1 0 0 1 40.9708 40.875)" class="st5 st6 st7">lock</text>
<g>
	<path class="st8" d="M134.9,223.5c-6.3,1.2-6.1,1.4-12.7,2.8c-24.6,4.9-38.5,7.7-49.7,1.4c-3.9-2.2-10.3-7.1-14.8-18.9
		c0.2-3.5,0.1-8.6-1.9-14.3c-1.6-4.6-2.7-4.5-5.6-11.1c-1-2.4-3.3-7.8-4.9-15.2c-1.4-5.9-0.5-5-1.5-8.8c-2.6-9.3-7.5-13.7-5.5-17.4
		c0.7-1,1.6-1.6,2.2-2.1c1.7-0.7,4.4-1.5,7.5-1c6.5,0.9,10.4,6.7,14.4,12.5c4.6,6.7,7,13.8,8,16.9c0.7,2.1,1.3,3.9,1.3,3.9
		c2.8,8.7,2.9,11.4,3.6,11.4c1.1,0,3.1-5.9,1.2-11.1c-0.9-2.3-1.7-2.3-5.2-6.9c-3.1-4-3.1-4.9-6.8-10.1c-2.7-3.8-5-6.6-6.2-8.1
		c-2.4-2.9-5.2-5.9-10.6-11.7c-4.4-4.7-4.4-4.6-4.9-5.4c-2.3-3.2-6.8-9.6-4.4-15.4c1.3-3.2,4.6-5.3,7.6-6c4.7-1,8.6,1.6,10.8,3.2
		c5.1,3.5,4.3,5.9,11.6,12.9c2.1,2,3.7,3.5,6.2,5.3c3.4,2.5,5.1,3.1,7.1,5.3c1.3,1.4,2.7,3.4,3.7,6.2c3.3,6.4,6.3,10.9,7.7,12.3
		c0.6,0.6,1.8,1.8,3.5,1.7c0.1,0,0.3,0,0.4,0c2.2-0.6,2.8-4.7,2.9-5.4c0.6-4.5-1.4-6.5-7.8-19.6c-1.8-3.5-3-6.1-5.8-8.8
		c-2.3-2.1-4.2-3.3-5.4-3.9c-3.4-1.6-7.9-5.6-11.2-16c-0.7-1.2-2.4-4.1-2.2-8.1c0.3-6.1,4.7-9.7,5.4-10.4c4.2-1,6.8-0.3,8.5,0.6
		c3.8,1.9,3.8,4.9,9,10.5c3.5,3.7,6.9,6.1,7.2,5.8c0.3-0.3-2.2-2.4-4.2-6.6c-1-2-2-4.2-1.9-7.3c0.1-1.5,0.2-4.5,2.3-6.4
		c2.9-2.6,7.6-1.2,8.3-1c2,0.5,4.3,2.2,8.6,5.3c2.1,1.5,3.2,2.4,4.4,2.1c1.6-0.4,1.5-2.5,3.6-3.8s4.5-0.7,4.7-0.6
		c2.9,0.7,3.6,3.5,7.2,7.6c2.1,2.2,3.1,2.8,5.1,4.7c1.5,1.5,4.8,4.6,12.5,18c4.2,7.2,6.3,10.7,7.6,14.1c2.7,6.8,2.1,8.3,4.8,18.6
		c3.2,12.4,5.2,13.7,7.5,23.5c1.7,7.4,2.3,13.7,2.5,18.4c0.9,3.4,1.6,7.2,2,11.4c0.8,8.1,0.1,15.1-0.8,20.4
		C157.1,219.6,145,221.2,134.9,223.5z"/>
	<path class="st9" d="M119.5,91.7c3.8,3.4,5.7,5.1,7.5,6.7c3.6,3.2,5.4,4.8,5.9,5.1c1.3,1,3.5,2.4,5.4,5.1c0.3,0.4,0.2,0.3,0.6,0.9
		c1.9,2.5,3.4,3.9,4.3,4.8c2.2,2.2,3,4.7,3.7,6.5c0.9,2.3,0.8,3.7,1.2,8.5c0,0,0.4,4.9,1,9.8c0.4,3.2,1.1,7.7,2.7,13.2
		c-0.3-2.1-0.6-5.3-1.1-9.3c-0.4-4.1-0.5-4.6-0.8-7.7c-1.6-14-2.5-16.1-3.2-17.2c-1.2-2.2-2.7-4.1-4.6-6.4c-1.3-1.8-2.7-3.3-4.5-5.1
		c-2.1-1.9-2.8-2.1-5.6-4.5c-2.3-1.8-3.7-3.2-4.8-4.3c-2.5-2.3-6.5-5.8-13.3-11.3C115.3,87.7,117.3,89.4,119.5,91.7z"/>
	<path class="st9" d="M152.1,154.2c1.8,9,4.1,10.7,4.1,10.7C154.1,155.6,152,154.2,152.1,154.2z"/>
	<path class="st9" d="M129.1,157.3c1.8,9,4.1,10.7,4.1,10.7C131.1,158.7,129,157.3,129.1,157.3z"/>
	<path class="st9" d="M95.7,164c3.9,8.2,6.6,9.4,6.6,9.4C98.1,164.8,95.8,164.1,95.7,164z"/>
	<path class="st10" d="M129.1,89.1c-0.4-0.6-0.9-1.5-1.7-2.5c-1.1-1.6-1.8-2.4-2.7-2.9c-0.4-0.3-2.2-1.2-3.8-0.6
		c-1.5,0.5-1.9,2.1-1.8,3.4c0.1,0.7,0.4,1.3,0.9,1.9c0.7,1.2,1.7,2.9,2.6,5c0.7,0,1.9-0.4,3.1-0.9C127.8,91.4,128.7,89.9,129.1,89.1
		z"/>
	<path class="st11" d="M81.5,135.8c-2-2.2-3.8-2.8-7.1-5.3c-2.4-1.8-4-3.3-6.2-5.3c-7.4-7-6.5-9.5-11.6-12.9
		c-2.3-1.6-6.2-4.2-10.8-3.2c-3,0.6-6.3,2.7-7.6,6c-2.4,5.8,2.1,12.2,4.4,15.4c0.5,0.8,0.5,0.7,4.9,5.4c1.5,1.6,2.7,2.9,3.9,4.2
		c4.5,2.1,7.6,6.8,10.8,11.4c1.6,2.3,2.9,4.7,4,7c1.6,2.4,2.2,3.7,3.8,5.8l20.7-12.7c-1.5-2.2-3.5-5.5-5.5-9.5
		C84.2,139.2,82.8,137.2,81.5,135.8z"/>
	<path class="st10" d="M106.8,84.8c-0.5-0.6-1.1-1.2-2.1-2c-1-1.1-1.9-1.7-3.1-2.2c-0.7-0.3-3.5-1.4-5.6,0.6c-1.3,1.1-1.8,3-1.8,4.4
		c0,1.5,0.7,2.6,1.7,4.2c0.4,0.6,0.8,1.2,1.7,2.1c1.1,1.3,1.8,1.9,2.2,1.9c0.5,0,0.9-0.5,3.5-3c1.3-1.2,1.2-1.2,1.4-1.3
		C106.2,87.4,106.8,85.4,106.8,84.8z"/>
	<path class="st10" d="M55.6,115.2c-0.5-0.6-1.1-1.2-2.1-1.9c-1.2-1.1-1.9-1.6-3.1-2.1c-2.3-1-4.5-0.2-5.3,0.1
		c-0.7,0.1-3.2,1.2-4.2,4c-0.2,0.7-0.7,2.2-0.1,4.1c0.8,2.1,2.2,3.1,3.1,3.8c0.9,0.7,1.6,1.2,2.4,1.1c0.8,0.1,0.9-0.4,2.8-2
		c1.6-1.2,2.7-1.8,4.2-3.4l0,0C54.9,117.5,55.2,115.8,55.6,115.2z"/>
	<path class="st10" d="M85.9,92.5c-0.3-0.6-0.7-1.4-1.4-2.5c-0.8-1.3-1.4-2.2-2.3-2.9c-2-1.6-4.5-1.5-5.3-1.4
		c-0.7,0.1-3.6,0.4-5.5,3c-0.5,0.5-1.5,1.9-1.5,4c0.1,2.2,1.2,3.9,1.8,4.8c0.6,1,1.1,1.8,2,1.9c0.9,0.4,1-0.1,3.6-1.1
		c2-0.8,3.2-1,5.3-2.2l0,0C84.5,95,85.5,93.3,85.9,92.5z"/>
	<path class="st10" d="M50.7,151.9c-1.4-1.8-2.6-3.3-3.3-4.5c-2.2-3.5-2.9-4.8-4.5-5.4c-0.7-0.2-2.1-0.4-4.4,1
		c-0.2,0.8-0.2,2.1,0.2,3.6c0.5,2,1.4,3.3,2.2,4.2c1.8,2.4,3,4,4.9,4.1C48.5,155.3,50.3,152.3,50.7,151.9z"/>
	<path class="st9" d="M111.2,111.8c3.3,4.1,5,8.3,6.1,10.8c1.8,4.5,2,6.5,3.4,11.5c3,10.7,7,18.1,7.1,18.1c0.2-0.1-3.4-8.8-6.7-20.3
		c-0.2-0.8-0.2-0.9-0.4-1.6c-1.8-6.5-3-10.5-5.7-14.8c-3.1-4.9-6.8-7.9-8.3-9.1c-1.2-1-2.4-1.7-3.2-2.2c-3.3-2.1-6.7-3.7-6.8-3.5
		C96.7,101,105,103.9,111.2,111.8z"/>
</g>
</svg>
