<?xml version="1.0" encoding="utf-8"?>
<!-- Generator: Adobe Illustrator 21.1.0, SVG Export Plug-In . SVG Version: 6.00 Build 0)  -->
<svg version="1.1" id="Layer_1" xmlns="http://www.w3.org/2000/svg" xmlns:xlink="http://www.w3.org/1999/xlink" x="0px" y="0px"
	 viewBox="0 0 170 177" style="enable-background:new 0 0 170 177;" xml:space="preserve">
<style type="text/css">
	.st0{fill:#A3A5A8;}
	.st1{fill:#D1D5DB;}
	.st2{fill:#898B90;}
	.st3{fill:#FFFFFF;}
	.st4{fill:#54AF19;}
	.st5{fill:#444444;}
	.st6{font-family:'ArialMT';}
	.st7{font-size:6px;}
	.st8{opacity:0.8;fill:#FFDAB5;stroke:#F9BF98;stroke-width:0.729;stroke-miterlimit:10;enable-background:new    ;}
	.st9{opacity:0.5;fill:#F9AA62;enable-background:new    ;}
	.st10{fill:#F9BF98;}
	.st11{opacity:0.75;fill:#FCF0EB;enable-background:new    ;}
text{font-family: arial !important;}
</style>
<g>
	<path class="st0" d="M134.3,166H35.7c-3.7,0-6.8-3.1-6.8-6.8V18.8c0-3.7,3.1-6.8,6.8-6.8h98.6c3.7,0,6.8,3.1,6.8,6.8v140.4
		C141.1,162.9,138,166,134.3,166z"/>
	<path class="st1" d="M134.4,165H35.7c-3.7,0-6.8-3.1-6.8-6.8V17.8c0-3.7,3.1-6.8,6.8-6.8h98.7c3.7,0,6.8,3.1,6.8,6.8v140.4
		C141.2,161.9,138.1,165,134.4,165z"/>
</g>
<g>
	<path class="st2" d="M131.6,46.7h-17.7c-1.4,0-2.6-1.2-2.6-2.6V27.7c0-1.4,1.2-2.6,2.6-2.6h17.7c1.4,0,2.6,1.2,2.6,2.6v16.4
		C134.2,45.6,133.1,46.7,131.6,46.7z"/>
	<path class="st3" d="M131.6,46.1h-17.7c-1.4,0-2.6-1.2-2.6-2.6V27.1c0-1.4,1.2-2.6,2.6-2.6h17.7c1.4,0,2.6,1.2,2.6,2.6v16.4
		C134.2,44.9,133.1,46.1,131.6,46.1z"/>
	<path class="st2" d="M106.4,46.7H88.7c-1.4,0-2.6-1.2-2.6-2.6V27.7c0-1.4,1.2-2.6,2.6-2.6h17.7c1.4,0,2.6,1.2,2.6,2.6v16.4
		C109,45.6,107.8,46.7,106.4,46.7z"/>
	<path class="st3" d="M106.4,46.1H88.7c-1.4,0-2.6-1.2-2.6-2.6V27.1c0-1.4,1.2-2.6,2.6-2.6h17.7c1.4,0,2.6,1.2,2.6,2.6v16.4
		C109,44.9,107.8,46.1,106.4,46.1z"/>
	<path class="st2" d="M81.1,46.7H63.4c-1.4,0-2.6-1.2-2.6-2.6V27.7c0-1.4,1.2-2.6,2.6-2.6h17.7c1.4,0,2.6,1.2,2.6,2.6v16.4
		C83.8,45.6,82.6,46.7,81.1,46.7z"/>
	<path class="st3" d="M81.1,46.1H63.4c-1.4,0-2.6-1.2-2.6-2.6V27.1c0-1.4,1.2-2.6,2.6-2.6h17.7c1.4,0,2.6,1.2,2.6,2.6v16.4
		C83.8,44.9,82.6,46.1,81.1,46.1z"/>
	<path class="st2" d="M55.9,46.7H38.2c-1.4,0-2.6-1.2-2.6-2.6V27.7c0-1.4,1.2-2.6,2.6-2.6h17.7c1.4,0,2.6,1.2,2.6,2.6v16.4
		C58.5,45.6,57.4,46.7,55.9,46.7z"/>
	<path class="st3" d="M55.9,46.1H38.2c-1.4,0-2.6-1.2-2.6-2.6V27.1c0-1.4,1.2-2.6,2.6-2.6h17.7c1.4,0,2.6,1.2,2.6,2.6v16.4
		C58.5,44.9,57.4,46.1,55.9,46.1z"/>
</g>
<g>
	<path class="st2" d="M106.8,100H89.1c-1.4,0-2.6-1.2-2.6-2.6V81c0-1.4,1.2-2.6,2.6-2.6h17.7c1.4,0,2.6,1.2,2.6,2.6v16.4
		C109.4,98.9,108.2,100,106.8,100z"/>
	<path class="st3" d="M106.8,99.4H89.1c-1.4,0-2.6-1.2-2.6-2.6V80.4c0-1.4,1.2-2.6,2.6-2.6h17.7c1.4,0,2.6,1.2,2.6,2.6v16.4
		C109.4,98.2,108.2,99.4,106.8,99.4z"/>
	<path class="st2" d="M81.5,100H63.8c-1.4,0-2.6-1.2-2.6-2.6V81c0-1.4,1.2-2.6,2.6-2.6h17.7c1.4,0,2.6,1.2,2.6,2.6v16.4
		C84.2,98.9,83,100,81.5,100z"/>
	<path class="st3" d="M81.5,99.4H63.8c-1.4,0-2.6-1.2-2.6-2.6V80.4c0-1.4,1.2-2.6,2.6-2.6h17.7c1.4,0,2.6,1.2,2.6,2.6v16.4
		C84.2,98.2,83,99.4,81.5,99.4z"/>
	<path class="st2" d="M56.3,100H38.6c-1.4,0-2.6-1.2-2.6-2.6V81c0-1.4,1.2-2.6,2.6-2.6h17.7c1.4,0,2.6,1.2,2.6,2.6v16.4
		C58.9,98.9,57.8,100,56.3,100z"/>
	<path class="st3" d="M56.3,99.4H38.6c-1.4,0-2.6-1.2-2.6-2.6V80.4c0-1.4,1.2-2.6,2.6-2.6h17.7c1.4,0,2.6,1.2,2.6,2.6v16.4
		C58.9,98.2,57.8,99.4,56.3,99.4z"/>
</g>
<g>
	<path class="st2" d="M106.4,73.3H88.7c-1.4,0-2.6-1.2-2.6-2.6V54.3c0-1.4,1.2-2.6,2.6-2.6h17.7c1.4,0,2.6,1.2,2.6,2.6v16.4
		C109,72.2,107.8,73.3,106.4,73.3z"/>
	<path class="st3" d="M106.4,72.7H88.7c-1.4,0-2.6-1.2-2.6-2.6V53.7c0-1.4,1.2-2.6,2.6-2.6h17.7c1.4,0,2.6,1.2,2.6,2.6v16.4
		C109,71.5,107.8,72.7,106.4,72.7z"/>
	<path class="st2" d="M81.1,73.3H63.4c-1.4,0-2.6-1.2-2.6-2.6V54.3c0-1.4,1.2-2.6,2.6-2.6h17.7c1.4,0,2.6,1.2,2.6,2.6v16.4
		C83.8,72.2,82.6,73.3,81.1,73.3z"/>
	<path class="st3" d="M81.1,72.7H63.4c-1.4,0-2.6-1.2-2.6-2.6V53.7c0-1.4,1.2-2.6,2.6-2.6h17.7c1.4,0,2.6,1.2,2.6,2.6v16.4
		C83.8,71.5,82.6,72.7,81.1,72.7z"/>
	<path class="st2" d="M55.9,73.3H38.2c-1.4,0-2.6-1.2-2.6-2.6V54.3c0-1.4,1.2-2.6,2.6-2.6h17.7c1.4,0,2.6,1.2,2.6,2.6v16.4
		C58.5,72.2,57.4,73.3,55.9,73.3z"/>
	<path class="st3" d="M55.9,72.7H38.2c-1.4,0-2.6-1.2-2.6-2.6V53.7c0-1.4,1.2-2.6,2.6-2.6h17.7c1.4,0,2.6,1.2,2.6,2.6v16.4
		C58.5,71.5,57.4,72.7,55.9,72.7z"/>
</g>
<path class="st2" d="M106.8,126.7H89.1c-1.4,0-2.6-1.2-2.6-2.6v-16.4c0-1.4,1.2-2.6,2.6-2.6h17.7c1.4,0,2.6,1.2,2.6,2.6v16.4
	C109.4,125.6,108.2,126.7,106.8,126.7z"/>
<path class="st3" d="M106.8,126.1H89.1c-1.4,0-2.6-1.2-2.6-2.6v-16.4c0-1.4,1.2-2.6,2.6-2.6h17.7c1.4,0,2.6,1.2,2.6,2.6v16.4
	C109.4,124.9,108.2,126.1,106.8,126.1z"/>
<path class="st2" d="M81.5,126.7H63.8c-1.4,0-2.6-1.2-2.6-2.6v-16.4c0-1.4,1.2-2.6,2.6-2.6h17.7c1.4,0,2.6,1.2,2.6,2.6v16.4
	C84.2,125.6,83,126.7,81.5,126.7z"/>
<path class="st4" d="M81.5,126.1H63.8c-1.4,0-2.6-1.2-2.6-2.6v-16.4c0-1.4,1.2-2.6,2.6-2.6h17.7c1.4,0,2.6,1.2,2.6,2.6v16.4
	C84.2,124.9,83,126.1,81.5,126.1z"/>
<path class="st2" d="M56.3,126.7H38.6c-1.4,0-2.6-1.2-2.6-2.6v-16.4c0-1.4,1.2-2.6,2.6-2.6h17.7c1.4,0,2.6,1.2,2.6,2.6v16.4
	C58.9,125.6,57.8,126.7,56.3,126.7z"/>
<path class="st3" d="M56.3,126.1H38.6c-1.4,0-2.6-1.2-2.6-2.6v-16.4c0-1.4,1.2-2.6,2.6-2.6h17.7c1.4,0,2.6,1.2,2.6,2.6v16.4
	C58.9,124.9,57.8,126.1,56.3,126.1z"/>
<path class="st2" d="M81.7,153.5H38.6c-1.2,0-2.4-1-2.4-2.3v-17.1c0-1.3,1-2.3,2.4-2.3h43.1c1.3,0,2.4,1,2.4,2.3v17.1
	C84.1,152.5,83,153.5,81.7,153.5z"/>
<path class="st3" d="M81.7,152.9H38.5c-1.2,0-2.4-1-2.4-2.3v-17.1c0-1.3,1-2.3,2.4-2.3h43.2c1.3,0,2.4,1,2.4,2.3v17.1
	C84.1,151.9,83.1,152.9,81.7,152.9z"/>
<g>
	<path class="st2" d="M106.6,153.6H88.9c-1.4,0-2.6-1.2-2.6-2.6v-16.4c0-1.4,1.2-2.6,2.6-2.6h17.7c1.4,0,2.6,1.2,2.6,2.6V151
		C109.2,152.4,108,153.6,106.6,153.6z"/>
	<path class="st3" d="M106.6,152.9H88.9c-1.4,0-2.6-1.2-2.6-2.6v-16.4c0-1.4,1.2-2.6,2.6-2.6h17.7c1.4,0,2.6,1.2,2.6,2.6v16.4
		C109.2,151.7,108,152.9,106.6,152.9z"/>
</g>
<path class="st2" d="M133.2,53.7v44.1c0,1.2-1.2,2.2-2.6,2.2H114c-1.4,0-2.6-1-2.6-2.2V53.7c0-1.2,1.2-2.2,2.6-2.2h16.5
	C132,51.5,133.2,52.4,133.2,53.7z"/>
<path class="st3" d="M133.4,53.3v43.9c0,1.2-1.2,2.2-2.6,2.2H114c-1.4,0-2.6-1-2.6-2.2V53.3c0-1.2,1.2-2.2,2.6-2.2h16.7
	C132.1,51.1,133.4,52,133.4,53.3z"/>
<g>
	<path class="st2" d="M133.4,107v44.1c0,1.2-1.2,2.2-2.6,2.2h-16.6c-1.4,0-2.6-1-2.6-2.2V107c0-1.2,1.2-2.2,2.6-2.2h16.5
		C132.2,104.7,133.4,105.7,133.4,107z"/>
	<path class="st3" d="M133.6,106.6v43.9c0,1.2-1.2,2.2-2.6,2.2h-16.8c-1.4,0-2.6-1-2.6-2.2v-43.9c0-1.2,1.2-2.2,2.6-2.2h16.7
		C132.4,104.3,133.6,105.3,133.6,106.6z"/>
</g>
<path class="st5" d="M62.6,142.7c0,1.2-0.5,2-1.4,2s-1.3-0.8-1.4-2c0-1.2,0.5-2,1.4-2C62.2,140.8,62.6,141.6,62.6,142.7z
	 M60.6,142.8c0,0.9,0.3,1.4,0.7,1.4s0.7-0.5,0.7-1.4s-0.2-1.4-0.7-1.4C60.9,141.3,60.6,141.8,60.6,142.8z"/>
<text transform="matrix(1 0 0 1 115.6375 129.8417)" class="st5 st6 st7">enter</text>
<path class="st5" d="M122.5,73.7V75h1.3v0.5h-1.3v1.3H122v-1.3h-1.3V75h1.3v-1.3H122.5z"/>
<path class="st5" d="M124,36.2v0.3h-2.9v-0.3H124z"/>
<path class="st5" d="M47.6,117.9H47V114l-1.1,0.4v-0.6l1.7-0.6h0.1L47.6,117.9L47.6,117.9z"/>
<path class="st5" d="M71,117.8v-0.5l0.5-0.4c0.9-0.9,1.3-1.3,1.3-1.8c0-0.3-0.2-0.7-0.7-0.7c-0.3,0-0.6,0.2-0.8,0.3l-0.2-0.5
	c0.3-0.2,0.7-0.4,1.2-0.4c0.9,0,1.3,0.5,1.3,1.1c0,0.7-0.5,1.2-1.1,1.8l-0.3,0.3l0,0h1.6v0.6L71,117.8L71,117.8L71,117.8z"/>
<path class="st5" d="M96.7,116.9c0.2,0.1,0.5,0.2,0.9,0.2c0.6,0,0.8-0.3,0.8-0.6c0-0.5-0.4-0.7-0.9-0.7h-0.3v-0.5h0.3
	c0.3,0,0.8-0.2,0.8-0.5s-0.2-0.5-0.6-0.5c-0.3,0-0.6,0.1-0.8,0.2l-0.2-0.5c0.2-0.2,0.7-0.3,1.1-0.3c0.8,0,1.2,0.4,1.2,1
	c0,0.4-0.2,0.7-0.7,0.9l0,0c0.5,0.1,0.9,0.4,0.9,1c0,0.7-0.6,1.1-1.5,1.1c-0.5,0-0.9-0.1-1.1-0.3L96.7,116.9z"/>
<path class="st5" d="M47.1,92.1v-1h-1.7v-0.5l1.6-2.4h0.9v2.3h0.5v0.6h-0.5v1H47.1L47.1,92.1z M47.1,90.6v-1c0-0.2,0-0.5,0-0.7l0,0
	c-0.1,0.2-0.2,0.4-0.3,0.7l-0.7,1l0,0H47.1z"/>
<path class="st5" d="M73.2,88.9h-1.5l-0.1,0.8c0.1,0,0.2,0,0.3,0c0.3,0,0.7,0.1,0.9,0.3c0.3,0.2,0.5,0.5,0.5,1
	c0,0.7-0.6,1.3-1.5,1.3c-0.5,0-0.8-0.1-1-0.2l0.2-0.6c0.2,0.1,0.5,0.2,0.9,0.2s0.8-0.2,0.8-0.7c0-0.4-0.3-0.7-1.1-0.7
	c-0.2,0-0.4,0-0.5,0l0.3-1.9h2v0.5C73.4,88.9,73.2,88.9,73.2,88.9z"/>
<path class="st5" d="M98,88.8c-0.1,0-0.2,0-0.4,0c-0.8,0.1-1.2,0.6-1.3,1.1l0,0c0.2-0.2,0.5-0.4,0.9-0.4c0.7,0,1.2,0.5,1.2,1.2
	s-0.5,1.4-1.3,1.4c-0.9,0-1.4-0.7-1.4-1.6c0-0.8,0.3-1.3,0.7-1.7c0.4-0.3,0.8-0.5,1.4-0.6c0.2,0,0.3,0,0.4,0L98,88.8z M97.6,90.8
	c0-0.5-0.2-0.8-0.7-0.8c-0.3,0-0.5,0.2-0.6,0.4c0,0.1,0,0.1,0,0.2c0,0.5,0.3,0.9,0.7,0.9C97.4,91.6,97.6,91.3,97.6,90.8z"/>
<path class="st5" d="M47.6,60.2v0.5L46,64.1h-0.8l1.6-3.2l0,0H45v-0.6L47.6,60.2L47.6,60.2z"/>
<path class="st5" d="M69.8,63.1c0-0.5,0.3-0.8,0.7-1l0,0c-0.4-0.2-0.6-0.5-0.6-0.9c0-0.6,0.6-1,1.3-1c0.8,0,1.2,0.5,1.2,1
	c0,0.3-0.2,0.7-0.6,0.9l0,0c0.4,0.2,0.7,0.5,0.7,1c0,0.7-0.6,1.1-1.4,1.1C70.3,64.1,69.8,63.6,69.8,63.1z M71.8,63
	c0-0.4-0.3-0.6-0.7-0.7c-0.4,0.1-0.6,0.4-0.6,0.7s0.2,0.6,0.7,0.6C71.6,63.6,71.8,63.4,71.8,63z M70.6,61.2c0,0.3,0.3,0.5,0.6,0.6
	c0.3-0.1,0.5-0.3,0.5-0.6s-0.2-0.6-0.6-0.6C70.8,60.7,70.6,60.9,70.6,61.2z"/>
<path class="st5" d="M95.4,63.6c0.1,0,0.2,0,0.4,0c0.3,0,0.6-0.1,0.8-0.3c0.3-0.2,0.4-0.5,0.5-0.9l0,0c-0.2,0.2-0.5,0.3-0.9,0.3
	c-0.7,0-1.1-0.5-1.1-1.2s0.6-1.4,1.4-1.4c0.9,0,1.4,0.7,1.4,1.6c0,0.8-0.3,1.4-0.7,1.8c-0.3,0.3-0.8,0.5-1.3,0.5c-0.2,0-0.3,0-0.4,0
	L95.4,63.6L95.4,63.6z M95.8,61.5c0,0.4,0.2,0.7,0.6,0.7c0.3,0,0.5-0.1,0.6-0.3c0,0,0-0.1,0-0.2c0-0.5-0.2-1-0.7-1
	C96,60.7,95.8,61,95.8,61.5z"/>
<path class="st5" d="M71.2,38.1l1.4-4.3h0.5l-1.4,4.3H71.2z"/>
<path class="st5" d="M98.5,35.1l-0.6,0.8l0,0l0.9-0.2v0.5l-0.9-0.1l0,0l0.6,0.7L98,37.1l-0.4-0.9l0,0l-0.4,0.9l-0.4-0.3l0.6-0.7l0,0
	l-0.9,0.2v-0.5l0.9,0.2l0,0l-0.6-0.7l0.5-0.3l0.3,0.9l0,0l0.3-0.9L98.5,35.1z"/>
<text transform="matrix(1 0 0 1 40.9708 33.675)" class="st5 st6 st7">num </text>
<text transform="matrix(1 0 0 1 40.9708 40.875)" class="st5 st6 st7">lock</text>
<g>
	<path class="st8" d="M52.4,224.8c-0.9-0.9-5.3-6.2-12.5-12.3c-5.2-4.4-9.8-7.6-12.8-9.5c-1.6-0.9-4-2.6-6-5.5
		c-0.6-0.9-2.4-3.5-3.5-8.5c-1.2-5.3-0.1-6.3-0.7-12c-0.7-6.6-2.5-7.6-4-15.8c-0.8-4.3-1-7.8-1.1-10c0.7-4.6,0.5-8.3,0.3-10.8
		c-0.4-3.3-1.1-7.9-1.3-8.8c-0.4-2.3-0.5-4.7-1-7c-0.5-1.8-0.9-3.2-0.2-4.3c0.6-1,1.6-1.3,2.9-1.6c2.9-0.8,5.3-0.4,5.8-0.3
		c4.8,0.9,8.1,4.3,9.3,5.6c5.1,5.4,6.3,11.7,7,15.6c0.8,3.9,0.8,7.1,0.7,9.3c1.5,2.5,2.1,4.7,2.3,6.2c0.7,3.8-0.3,5.9,1.3,8.4
		c0.8,1.3,1.2,0.9,2.8,2.8c2.6,3,2,4.3,3.5,5.2c2.3,1.3,4-1.3,8.7-0.7c3,0.4,4,1.6,5.3,0.9c1.8-1,1.9-4.1,1.9-6
		c0.1-5.3-1.8-9.3-2-9.8c-2.2-4.9-4.8-12.2-8-23.8c-2.2-7.9-4.3-14-6-18.3c-1.8-4.6-3.8-9.2-4.2-15.8c-0.1-2.5,0-4.7,0.1-6.1
		c0-0.5,0.1-4.5,3.4-6.9c3-2.2,7.3-2.1,10.6,0.4c4,4.5,5.6,8.6,6.3,11.5c0.8,3.4,0.6,5.9,2.5,7c2,1.2,3.5-1,8.1-0.4
		c2.9,0.4,3.4,1.3,5.9,1.1c1.8-0.2,2-0.8,4.6-1.4c3.6-0.8,5.2,0,5.6-0.8c0.9-1.6-7.3-4.9-7.3-10.8c0-0.8,0.1-3.6,2.2-5.8
		c0.6-0.7,2.3-2.5,4.7-2.2c1.4,0.2,2.4,1.1,2.8,1.5c6.4,2,10.6,4.7,13.3,6.8c1.5,1.2,3.9,3.2,5.5,2.5c1.2-0.5,0.8-2,2-3.8
		c1.9-2.8,6-5.4,8.8-4.3c2,0.8,2.8,3.4,4.3,8.7c1.1,3.7,1.6,5.6,1.5,8s-0.7,4.1,0.3,6.3c0.6,1.2,1.1,1.3,2,2.5
		c1.9,2.5,2.3,5.2,2.8,8.5c0.6,4.6-0.2,5.2,0.3,8.3c0.7,4.3,2.8,7,4.3,9.2c3.3,4.9,5,11.8,8.3,25.8c2.2,9.2,3.3,13.9,2.2,17.3
		c-0.5,1.4-0.5,0.8-6,12.2c-1.1,2.3-2,4.1-3,6.5c-0.4,1-1.9,4.4-3,7.8s-2.5,8.5-3.3,15.3C76.1,234.6,58.1,231.1,52.4,224.8z"/>
	<path class="st9" d="M88.4,103.1c-0.6,0.4-2.2-0.1-5.4,0.6c-2.6,0.6-2.8,1.2-4.6,1.4c-2.5,0.2-3-0.7-5.9-1.1
		c-4.6-0.6-6.1,1.6-8.1,0.4c-0.2-0.1-0.4-0.2-0.6-0.4c1.5,2.2,5.1,8.5,8.4,14.4c4.9,9,7.3,13.4,7.9,15.7c0.5,1.6,2.2,8.2,5.2,12.4
		c0.5,0.7,1,1.2,1.4,1.7l26.9-5.3c-1.5-3.2-2.4-5.9-2.9-7.1c-2.8-7.6-4.2-11.5-5.2-15.1c-0.6-2.1-1.1-3.8-2.1-6.2
		c-0.8-1.8-1.6-3.2-3-5.8c-1.4-2.4-1.7-2.8-1.9-3c-1.9-1.9-4.5-2.3-5.8-2.5C90.4,102.8,88.8,103.1,88.4,103.1z"/>
	<path class="st10" d="M84,137.3c0.6,0.6,1.3,1.4,2.6,2.9c0.7,0.9,1.4,1.6,1.6,2.5c0,0.1,0.1,0.5,0.2,1c0.1,0.7,0.2,1.1,0.2,1.4
		c0.1,0.5,0.2,1,0.6,2c0.8,2,2,5,2.1,5c0,0-0.7-1.5-1.5-4.1c-0.5-1.6-0.7-2.5-0.8-3.1c-0.1-1.1-0.1-1.7-0.5-2.6
		c-0.2-0.5-0.5-0.9-1-1.5c-0.7-0.9-1.3-1.5-1.6-1.8c-2-2.1-3.2-3.8-3.3-3.8C82.6,135.1,83.4,136.1,84,137.3z"/>
	<path class="st10" d="M111.5,97.8c1.2,1.1,1.5,1.3,3.9,3.4c2.7,2.3,2.5,2.2,3.9,3.4c3.5,2.9,3.2,2.3,4.4,3.5c0,0,3.8,3.9,4.3,3.9
		l0,0c0-0.1-1.5-1.9-2.8-3.2c-1.5-1.5-1.9-1.5-4.7-3.9c-0.9-0.8-0.7-0.6-2.2-2c-0.8-0.7-2.1-1.8-5.4-4.6c-3.1-2.7-4.6-4-4.7-3.9
		C108.3,94.4,110,96.2,111.5,97.8z"/>
	<path class="st10" d="M120.4,156.1c2.5,8.8,4.9,10.4,4.9,10.4C122.6,157.3,120.4,156.1,120.4,156.1z"/>
	<path class="st10" d="M91.9,153.9c2.7,8.7,5.2,10.2,5.2,10.2C94.1,155.1,91.9,153.9,91.9,153.9z"/>
	<path class="st11" d="M123.4,96.8c-0.1-0.8-0.1-1.8-0.3-3c-0.3-2-0.5-2.9-1-3.9c-0.2-0.5-1.4-2.1-3.1-2.3c-1.6-0.2-2.7,0.9-3.2,2.1
		c-0.3,0.7-0.3,1.4-0.2,2.1c0.1,1.4,0.2,3.3,0,5.7c0.6,0.4,1.8,0.6,3.1,0.7C121,98.2,122.5,97.3,123.4,96.8z"/>
	<path class="st11" d="M95.1,88.9c-0.5-0.5-1.1-1.1-2.1-2c-1.1-1-2-1.7-3.1-2.1c-0.8-0.3-3.6-1.4-5.6,0.6c-1.2,1.1-1.7,2.9-1.7,4.3
		c0,1.6,0.7,2.7,1.8,4.2c0.5,0.7,0.8,1.2,1.7,2.1c1.1,1.3,1.7,1.9,2.1,1.9c0.6,0,0.9-0.4,3.5-3c1.2-1.2,1.1-1.2,1.3-1.3
		C94.5,91.8,95,89.8,95.1,88.9z"/>
	<path class="st11" d="M57.1,95.6c-0.1-0.7-0.2-1.6-0.4-2.8c-0.3-1.5-0.5-2.6-1.1-3.6c-1.3-2.2-3.7-2.9-4.5-3.1
		c-0.7-0.2-3.5-0.9-6.2,0.8c-0.6,0.4-2.1,1.3-2.8,3.3c-0.8,2.1-0.3,4,0,5.1s0.5,2,1.2,2.5c0.7,0.6,1,0.2,3.7,0.2
		c2.1,0,3.3,0.2,5.8-0.2l0,0C55.1,97.4,56.6,96.1,57.1,95.6z"/>
	<path class="st11" d="M20.4,132.1c-0.9-2.1-1.5-3.9-2-5.2c-1.2-3.9-1.5-5.4-2.9-6.3c-0.7-0.4-2-1-4.5-0.1c-0.4,0.7-0.7,1.9-0.7,3.5
		c0,2,0.6,3.5,1.1,4.7c1.1,2.7,1.9,4.7,3.7,5.2C17.8,134.9,20.3,132.6,20.4,132.1z"/>
	<path class="st10" d="M115.5,147.3c-0.8-1.3-1.5-2.6-2.3-4.4c-1.5-3.4-2.5-6.2-3-7.5c-2.7-7.7-4.1-11.5-5.1-15.1
		c-0.6-2.1-1-3.8-2-6.2c-0.8-1.8-1.5-3.2-2.9-5.8c-1.3-2.5-1.6-2.8-1.8-3c-1.8-1.8-4.3-2.2-5.6-2.4c-2.5-0.4-4.3,0-4.3-0.1
		c0-0.2,1.9-0.8,4.1-0.6c2.7,0.2,4.6,1.5,5.2,1.9c1.6,1.1,3.5,3,6.3,10.9c1.5,4.1,1.2,4.5,3.1,10.4c1,3.2,2.1,6.7,3.9,11.1
		c1.2,2.8,2.4,5.9,4.5,9.8c1.7,3.2,3.1,5.3,3,5.4S116.9,149.6,115.5,147.3z"/>
	<path class="st10" d="M65.3,108.4c1.4,2.7,2.6,4.3,3.4,5.6c0.6,0.9,0.6,1,4.1,7.6c4.3,8.1,5.3,9.7,6.4,13c0.6,1.7,0.5,1.6,1.1,3.3
		c1.4,3.9,2.6,7.2,5.2,10c2.8,3,6.3,4,6.3,4s-1.9-0.8-4-2.6c-0.1-0.1-1.6-1.4-2.8-3.1c-2.9-4-4.6-10.3-5-11.8
		c-0.6-2.1-2.9-6.4-7.6-14.9c-3.9-7.1-8.4-14.7-8.6-14.6C63.6,105.1,64.6,107.1,65.3,108.4z"/>
</g>
</svg>
