<?xml version="1.0" encoding="utf-8"?>
<!-- Generator: Adobe Illustrator 21.1.0, SVG Export Plug-In . SVG Version: 6.00 Build 0)  -->
<svg version="1.1" id="Layer_1" xmlns="http://www.w3.org/2000/svg" xmlns:xlink="http://www.w3.org/1999/xlink" x="0px" y="0px"
	 viewBox="0 0 170 177" style="enable-background:new 0 0 170 177;" xml:space="preserve">
<style type="text/css">
	.st0{fill:#A3A5A8;}
	.st1{fill:#D1D5DB;}
	.st2{fill:#898B90;}
	.st3{fill:#FFFFFF;}
	.st4{fill:#54AF19;}
	.st5{fill:#444444;}
	.st6{font-family:'ArialMT';}
	.st7{font-size:6px;}
	.st8{opacity:0.8;fill:#FFDAB5;stroke:#F9BF98;stroke-width:0.729;stroke-miterlimit:10;enable-background:new    ;}
	.st9{opacity:0.5;fill:#F9AA62;enable-background:new    ;}
	.st10{fill:#F9BF98;}
	.st11{opacity:0.75;fill:#FCF0EB;enable-background:new    ;}
text{font-family: arial !important;}
</style>
<g>
	<path class="st0" d="M134.3,166H35.7c-3.7,0-6.8-3.1-6.8-6.8V18.8c0-3.7,3.1-6.8,6.8-6.8h98.6c3.7,0,6.8,3.1,6.8,6.8v140.4
		C141.1,162.9,138,166,134.3,166z"/>
	<path class="st1" d="M134.4,165H35.7c-3.7,0-6.8-3.1-6.8-6.8V17.8c0-3.7,3.1-6.8,6.8-6.8h98.7c3.7,0,6.8,3.1,6.8,6.8v140.4
		C141.2,161.9,138.1,165,134.4,165z"/>
</g>
<g>
	<path class="st2" d="M131.6,46.7h-17.7c-1.4,0-2.6-1.2-2.6-2.6V27.7c0-1.4,1.2-2.6,2.6-2.6h17.7c1.4,0,2.6,1.2,2.6,2.6v16.4
		C134.2,45.6,133.1,46.7,131.6,46.7z"/>
	<path class="st3" d="M131.6,46.1h-17.7c-1.4,0-2.6-1.2-2.6-2.6V27.1c0-1.4,1.2-2.6,2.6-2.6h17.7c1.4,0,2.6,1.2,2.6,2.6v16.4
		C134.2,44.9,133.1,46.1,131.6,46.1z"/>
	<path class="st2" d="M106.4,46.7H88.7c-1.4,0-2.6-1.2-2.6-2.6V27.7c0-1.4,1.2-2.6,2.6-2.6h17.7c1.4,0,2.6,1.2,2.6,2.6v16.4
		C109,45.6,107.8,46.7,106.4,46.7z"/>
	<path class="st3" d="M106.4,46.1H88.7c-1.4,0-2.6-1.2-2.6-2.6V27.1c0-1.4,1.2-2.6,2.6-2.6h17.7c1.4,0,2.6,1.2,2.6,2.6v16.4
		C109,44.9,107.8,46.1,106.4,46.1z"/>
	<path class="st2" d="M81.1,46.7H63.4c-1.4,0-2.6-1.2-2.6-2.6V27.7c0-1.4,1.2-2.6,2.6-2.6h17.7c1.4,0,2.6,1.2,2.6,2.6v16.4
		C83.8,45.6,82.6,46.7,81.1,46.7z"/>
	<path class="st3" d="M81.1,46.1H63.4c-1.4,0-2.6-1.2-2.6-2.6V27.1c0-1.4,1.2-2.6,2.6-2.6h17.7c1.4,0,2.6,1.2,2.6,2.6v16.4
		C83.8,44.9,82.6,46.1,81.1,46.1z"/>
	<path class="st2" d="M55.9,46.7H38.2c-1.4,0-2.6-1.2-2.6-2.6V27.7c0-1.4,1.2-2.6,2.6-2.6h17.7c1.4,0,2.6,1.2,2.6,2.6v16.4
		C58.5,45.6,57.4,46.7,55.9,46.7z"/>
	<path class="st3" d="M55.9,46.1H38.2c-1.4,0-2.6-1.2-2.6-2.6V27.1c0-1.4,1.2-2.6,2.6-2.6h17.7c1.4,0,2.6,1.2,2.6,2.6v16.4
		C58.5,44.9,57.4,46.1,55.9,46.1z"/>
</g>
<path class="st2" d="M106.8,100H89.1c-1.4,0-2.6-1.2-2.6-2.6V81c0-1.4,1.2-2.6,2.6-2.6h17.7c1.4,0,2.6,1.2,2.6,2.6v16.4
	C109.4,98.9,108.2,100,106.8,100z"/>
<path class="st3" d="M106.8,99.4H89.1c-1.4,0-2.6-1.2-2.6-2.6V80.4c0-1.4,1.2-2.6,2.6-2.6h17.7c1.4,0,2.6,1.2,2.6,2.6v16.4
	C109.4,98.2,108.2,99.4,106.8,99.4z"/>
<path class="st2" d="M81.5,100H63.8c-1.4,0-2.6-1.2-2.6-2.6V81c0-1.4,1.2-2.6,2.6-2.6h17.7c1.4,0,2.6,1.2,2.6,2.6v16.4
	C84.2,98.9,83,100,81.5,100z"/>
<path class="st3" d="M81.5,99.4H63.8c-1.4,0-2.6-1.2-2.6-2.6V80.4c0-1.4,1.2-2.6,2.6-2.6h17.7c1.4,0,2.6,1.2,2.6,2.6v16.4
	C84.2,98.2,83,99.4,81.5,99.4z"/>
<path class="st2" d="M56.3,100H38.6c-1.4,0-2.6-1.2-2.6-2.6V81c0-1.4,1.2-2.6,2.6-2.6h17.7c1.4,0,2.6,1.2,2.6,2.6v16.4
	C58.9,98.9,57.8,100,56.3,100z"/>
<path class="st3" d="M56.3,99.4H38.6c-1.4,0-2.6-1.2-2.6-2.6V80.4c0-1.4,1.2-2.6,2.6-2.6h17.7c1.4,0,2.6,1.2,2.6,2.6v16.4
	C58.9,98.2,57.8,99.4,56.3,99.4z"/>
<path class="st2" d="M106.4,73.3H88.7c-1.4,0-2.6-1.2-2.6-2.6V54.3c0-1.4,1.2-2.6,2.6-2.6h17.7c1.4,0,2.6,1.2,2.6,2.6v16.4
	C109,72.2,107.8,73.3,106.4,73.3z"/>
<path class="st3" d="M106.4,72.7H88.7c-1.4,0-2.6-1.2-2.6-2.6V53.7c0-1.4,1.2-2.6,2.6-2.6h17.7c1.4,0,2.6,1.2,2.6,2.6v16.4
	C109,71.5,107.8,72.7,106.4,72.7z"/>
<path class="st2" d="M81.1,73.3H63.4c-1.4,0-2.6-1.2-2.6-2.6V54.3c0-1.4,1.2-2.6,2.6-2.6h17.7c1.4,0,2.6,1.2,2.6,2.6v16.4
	C83.8,72.2,82.6,73.3,81.1,73.3z"/>
<path class="st3" d="M81.1,72.7H63.4c-1.4,0-2.6-1.2-2.6-2.6V53.7c0-1.4,1.2-2.6,2.6-2.6h17.7c1.4,0,2.6,1.2,2.6,2.6v16.4
	C83.8,71.5,82.6,72.7,81.1,72.7z"/>
<path class="st2" d="M55.9,73.3H38.2c-1.4,0-2.6-1.2-2.6-2.6V54.3c0-1.4,1.2-2.6,2.6-2.6h17.7c1.4,0,2.6,1.2,2.6,2.6v16.4
	C58.5,72.2,57.4,73.3,55.9,73.3z"/>
<path class="st4" d="M55.9,72.7H38.2c-1.4,0-2.6-1.2-2.6-2.6V53.7c0-1.4,1.2-2.6,2.6-2.6h17.7c1.4,0,2.6,1.2,2.6,2.6v16.4
	C58.5,71.5,57.4,72.7,55.9,72.7z"/>
<path class="st2" d="M106.8,126.7H89.1c-1.4,0-2.6-1.2-2.6-2.6v-16.4c0-1.4,1.2-2.6,2.6-2.6h17.7c1.4,0,2.6,1.2,2.6,2.6v16.4
	C109.4,125.6,108.2,126.7,106.8,126.7z"/>
<path class="st3" d="M106.8,126.1H89.1c-1.4,0-2.6-1.2-2.6-2.6v-16.4c0-1.4,1.2-2.6,2.6-2.6h17.7c1.4,0,2.6,1.2,2.6,2.6v16.4
	C109.4,124.9,108.2,126.1,106.8,126.1z"/>
<path class="st2" d="M81.5,126.7H63.8c-1.4,0-2.6-1.2-2.6-2.6v-16.4c0-1.4,1.2-2.6,2.6-2.6h17.7c1.4,0,2.6,1.2,2.6,2.6v16.4
	C84.2,125.6,83,126.7,81.5,126.7z"/>
<path class="st3" d="M81.5,126.1H63.8c-1.4,0-2.6-1.2-2.6-2.6v-16.4c0-1.4,1.2-2.6,2.6-2.6h17.7c1.4,0,2.6,1.2,2.6,2.6v16.4
	C84.2,124.9,83,126.1,81.5,126.1z"/>
<path class="st2" d="M56.3,126.7H38.6c-1.4,0-2.6-1.2-2.6-2.6v-16.4c0-1.4,1.2-2.6,2.6-2.6h17.7c1.4,0,2.6,1.2,2.6,2.6v16.4
	C58.9,125.6,57.8,126.7,56.3,126.7z"/>
<path class="st3" d="M56.3,126.1H38.6c-1.4,0-2.6-1.2-2.6-2.6v-16.4c0-1.4,1.2-2.6,2.6-2.6h17.7c1.4,0,2.6,1.2,2.6,2.6v16.4
	C58.9,124.9,57.8,126.1,56.3,126.1z"/>
<path class="st2" d="M81.7,153.5H38.6c-1.2,0-2.4-1-2.4-2.3v-17.1c0-1.3,1-2.3,2.4-2.3h43.1c1.3,0,2.4,1,2.4,2.3v17.1
	C84.1,152.5,83,153.5,81.7,153.5z"/>
<path class="st3" d="M81.7,152.9H38.5c-1.2,0-2.4-1-2.4-2.3v-17.1c0-1.3,1-2.3,2.4-2.3h43.2c1.3,0,2.4,1,2.4,2.3v17.1
	C84.1,151.9,83.1,152.9,81.7,152.9z"/>
<g>
	<path class="st2" d="M106.6,153.6H88.9c-1.4,0-2.6-1.2-2.6-2.6v-16.4c0-1.4,1.2-2.6,2.6-2.6h17.7c1.4,0,2.6,1.2,2.6,2.6V151
		C109.2,152.4,108,153.6,106.6,153.6z"/>
	<path class="st3" d="M106.6,152.9H88.9c-1.4,0-2.6-1.2-2.6-2.6v-16.4c0-1.4,1.2-2.6,2.6-2.6h17.7c1.4,0,2.6,1.2,2.6,2.6v16.4
		C109.2,151.7,108,152.9,106.6,152.9z"/>
</g>
<path class="st2" d="M133.2,53.7v44.1c0,1.2-1.2,2.2-2.6,2.2H114c-1.4,0-2.6-1-2.6-2.2V53.7c0-1.2,1.2-2.2,2.6-2.2h16.5
	C132,51.5,133.2,52.4,133.2,53.7z"/>
<path class="st3" d="M133.4,53.3v43.9c0,1.2-1.2,2.2-2.6,2.2H114c-1.4,0-2.6-1-2.6-2.2V53.3c0-1.2,1.2-2.2,2.6-2.2h16.7
	C132.1,51.1,133.4,52,133.4,53.3z"/>
<g>
	<path class="st2" d="M133.4,107v44.1c0,1.2-1.2,2.2-2.6,2.2h-16.6c-1.4,0-2.6-1-2.6-2.2V107c0-1.2,1.2-2.2,2.6-2.2h16.5
		C132.2,104.7,133.4,105.7,133.4,107z"/>
	<path class="st3" d="M133.6,106.6v43.9c0,1.2-1.2,2.2-2.6,2.2h-16.8c-1.4,0-2.6-1-2.6-2.2v-43.9c0-1.2,1.2-2.2,2.6-2.2h16.7
		C132.4,104.3,133.6,105.3,133.6,106.6z"/>
</g>
<path class="st5" d="M62.6,142.7c0,1.2-0.5,2-1.4,2s-1.3-0.8-1.4-2c0-1.2,0.5-2,1.4-2C62.2,140.8,62.6,141.6,62.6,142.7z
	 M60.6,142.8c0,0.9,0.3,1.4,0.7,1.4s0.7-0.5,0.7-1.4s-0.2-1.4-0.7-1.4C60.9,141.3,60.6,141.8,60.6,142.8z"/>
<text transform="matrix(1 0 0 1 115.6375 129.8417)" class="st5 st6 st7">enter</text>
<path class="st5" d="M122.5,73.7V75h1.3v0.5h-1.3v1.3H122v-1.3h-1.3V75h1.3v-1.3H122.5z"/>
<path class="st5" d="M124,36.2v0.3h-2.9v-0.3H124z"/>
<path class="st5" d="M47.6,117.9H47V114l-1.1,0.4v-0.6l1.7-0.6h0.1L47.6,117.9L47.6,117.9z"/>
<path class="st5" d="M71,117.8v-0.5l0.5-0.4c0.9-0.9,1.3-1.3,1.3-1.8c0-0.3-0.2-0.7-0.7-0.7c-0.3,0-0.6,0.2-0.8,0.3l-0.2-0.5
	c0.3-0.2,0.7-0.4,1.2-0.4c0.9,0,1.3,0.5,1.3,1.1c0,0.7-0.5,1.2-1.1,1.8l-0.3,0.3l0,0h1.6v0.6L71,117.8L71,117.8L71,117.8z"/>
<path class="st5" d="M96.7,116.9c0.2,0.1,0.5,0.2,0.9,0.2c0.6,0,0.8-0.3,0.8-0.6c0-0.5-0.4-0.7-0.9-0.7h-0.3v-0.5h0.3
	c0.3,0,0.8-0.2,0.8-0.5s-0.2-0.5-0.6-0.5c-0.3,0-0.6,0.1-0.8,0.2l-0.2-0.5c0.2-0.2,0.7-0.3,1.1-0.3c0.8,0,1.2,0.4,1.2,1
	c0,0.4-0.2,0.7-0.7,0.9l0,0c0.5,0.1,0.9,0.4,0.9,1c0,0.7-0.6,1.1-1.5,1.1c-0.5,0-0.9-0.1-1.1-0.3L96.7,116.9z"/>
<path class="st5" d="M47.1,92.1v-1h-1.7v-0.5l1.6-2.4h0.9v2.3h0.5v0.6h-0.5v1H47.1L47.1,92.1z M47.1,90.6v-1c0-0.2,0-0.5,0-0.7l0,0
	c-0.1,0.2-0.2,0.4-0.3,0.7l-0.7,1l0,0H47.1z"/>
<path class="st5" d="M73.2,88.9h-1.5l-0.1,0.8c0.1,0,0.2,0,0.3,0c0.3,0,0.7,0.1,0.9,0.3c0.3,0.2,0.5,0.5,0.5,1
	c0,0.7-0.6,1.3-1.5,1.3c-0.5,0-0.8-0.1-1-0.2l0.2-0.6c0.2,0.1,0.5,0.2,0.9,0.2s0.8-0.2,0.8-0.7c0-0.4-0.3-0.7-1.1-0.7
	c-0.2,0-0.4,0-0.5,0l0.3-1.9h2v0.5C73.4,88.9,73.2,88.9,73.2,88.9z"/>
<path class="st5" d="M98,88.8c-0.1,0-0.2,0-0.4,0c-0.8,0.1-1.2,0.6-1.3,1.1l0,0c0.2-0.2,0.5-0.4,0.9-0.4c0.7,0,1.2,0.5,1.2,1.2
	s-0.5,1.4-1.3,1.4c-0.9,0-1.4-0.7-1.4-1.6c0-0.8,0.3-1.3,0.7-1.7c0.4-0.3,0.8-0.5,1.4-0.6c0.2,0,0.3,0,0.4,0L98,88.8z M97.6,90.8
	c0-0.5-0.2-0.8-0.7-0.8c-0.3,0-0.5,0.2-0.6,0.4c0,0.1,0,0.1,0,0.2c0,0.5,0.3,0.9,0.7,0.9C97.4,91.6,97.6,91.3,97.6,90.8z"/>
<path class="st5" d="M47.6,60.2v0.5L46,64.1h-0.8l1.6-3.2l0,0H45v-0.6L47.6,60.2L47.6,60.2z"/>
<path class="st5" d="M69.8,63.1c0-0.5,0.3-0.8,0.7-1l0,0c-0.4-0.2-0.6-0.5-0.6-0.9c0-0.6,0.6-1,1.3-1c0.8,0,1.2,0.5,1.2,1
	c0,0.3-0.2,0.7-0.6,0.9l0,0c0.4,0.2,0.7,0.5,0.7,1c0,0.7-0.6,1.1-1.4,1.1C70.3,64.1,69.8,63.6,69.8,63.1z M71.8,63
	c0-0.4-0.3-0.6-0.7-0.7c-0.4,0.1-0.6,0.4-0.6,0.7s0.2,0.6,0.7,0.6C71.6,63.6,71.8,63.4,71.8,63z M70.6,61.2c0,0.3,0.3,0.5,0.6,0.6
	c0.3-0.1,0.5-0.3,0.5-0.6s-0.2-0.6-0.6-0.6C70.8,60.7,70.6,60.9,70.6,61.2z"/>
<path class="st5" d="M95.4,63.6c0.1,0,0.2,0,0.4,0c0.3,0,0.6-0.1,0.8-0.3c0.3-0.2,0.4-0.5,0.5-0.9l0,0c-0.2,0.2-0.5,0.3-0.9,0.3
	c-0.7,0-1.1-0.5-1.1-1.2s0.6-1.4,1.4-1.4c0.9,0,1.4,0.7,1.4,1.6c0,0.8-0.3,1.4-0.7,1.8c-0.3,0.3-0.8,0.5-1.3,0.5c-0.2,0-0.3,0-0.4,0
	L95.4,63.6L95.4,63.6z M95.8,61.5c0,0.4,0.2,0.7,0.6,0.7c0.3,0,0.5-0.1,0.6-0.3c0,0,0-0.1,0-0.2c0-0.5-0.2-1-0.7-1
	C96,60.7,95.8,61,95.8,61.5z"/>
<path class="st5" d="M71.2,38.1l1.4-4.3h0.5l-1.4,4.3H71.2z"/>
<path class="st5" d="M98.5,35.1l-0.6,0.8l0,0l0.9-0.2v0.5l-0.9-0.1l0,0l0.6,0.7L98,37.1l-0.4-0.9l0,0l-0.4,0.9l-0.4-0.3l0.6-0.7l0,0
	l-0.9,0.2v-0.5l0.9,0.2l0,0l-0.6-0.7l0.5-0.3l0.3,0.9l0,0l0.3-0.9L98.5,35.1z"/>
<text transform="matrix(1 0 0 1 40.9708 33.675)" class="st5 st6 st7">num </text>
<text transform="matrix(1 0 0 1 40.9708 40.875)" class="st5 st6 st7">lock</text>
<g>
	<g>
		<path class="st8" d="M123.8,217.9c-0.4,0.1-2,0.3-4.3,0.8c-1.6,0.3-2.7,0.6-4.4,0.9c-1.3,0.3-2.4,0.5-4.1,0.8
			c-23.8,4.2-37.1,7.1-49.8,3.3c-4.9-1.5-12.5-4.7-20.6-12.9c-3.9-6.5-5.5-12-6.3-15.9c-0.8-4.4-0.8-7.4-2.6-13.3
			c-1.3-4-2.8-7.4-3.3-8.6c-3.1-7.1-5.3-9-5.1-13.3c0.1-0.6,0.4-2.2,1.3-5.4c1.6-5.5,2.5-8.5,2.9-11c1.6-9-1.9-13,1.3-16.5
			c0.3-0.4,1.9-1.9,4.1-2.1c6.8-0.5,16.2,12.3,15.5,23.6c-0.3,3.3-1.3,6.1-0.3,10.9c0.9,4.2,3,8.3,3.9,8.1s0.2-4.3-2-25.1
			c-1.5-13.3-1.7-16.3-2.8-22.4c-0.9-5.1-1.7-7.2-2.8-14c-1.2-7.1-0.9-7.3-2-14c-1.3-7.8-2.1-10-3-17.3c-1.1-9-0.6-11.3,0.8-13.3
			c1.6-2.3,4.7-4.1,8-4c0.7,0.1,2.9,0.3,5.5,2.3c3.9,3.1,5.3,7.5,7.5,17c2.3,9.6,2.1,10.1,4.3,19.3c2.1,8.9,2.1,7.8,3.5,14.3
			c0.4,1.7,2,8.9,2.3,8.8c0.2,0,0-1.7,0.3-3.3c0.1-0.6,0.3-1,0.6-2.4c0.1-0.4,0.2-0.8,0.3-1.4c0.2-1.1,0.9-5,0.4-8.2
			c-0.8-5.9-5-6.1-7-13.3c-0.7-2.5-1.3-4.6-0.3-6.7c1.8-3.7,7.3-4.3,8.7-4.5c1.1-0.1,5.4-0.6,9.6,1.5c2.3,1.2,4.2,2.9,6.8,2.4
			c0.9-0.2,1-0.5,2-0.7c2-0.5,3.5,0.1,6.7,1.3c7.2,2.7,6.9,2.3,8.9,3.4c1.5,0.8,4.1,2.3,4.3,2.1c0-0.1-0.4-0.3-0.4-0.6
			c0-0.6,1.7-1.2,4.3-1.8c4.1-0.9,6.1-1.3,8-0.9s2.4,1.2,5,2.8c5.1,3.2,6.9,2.5,9.3,4.3c4.6,3.4,5.4,9.6,6,14.3
			c1.1,8.5-1.7,9.3-1.3,18.7c0.3,7.1,2,7.7,3,17.3c0.3,2.8,0.5,5.7,0.3,14.3c-0.3,17.1-1.3,30.4-1.7,34.7c-0.4,5-1,11.8-2,20
			C131.2,216.1,126.2,217.4,123.8,217.9z"/>
		<path class="st9" d="M47.1,120.3c0.1,1,0.3,1.9,0.4,2.7l22.8-6c-0.6-2.3-1.3-5.5-1.5-6.5c-1.4-6.4-1.4-5.3-3.5-14.2
			C63.1,87,63.2,86.6,61,77c-2.2-9.5-3.6-13.9-7.5-17c-2.6-2.1-4.8-2.3-5.5-2.3c-3.3-0.1-6.4,1.7-8,4c-1.5,1.9-1.9,4.3-0.8,13.2
			c0.9,7.3,1.7,9.6,3,17.3c1.1,6.7,0.8,6.9,2,14C45.3,112.9,46.1,115.1,47.1,120.3z"/>
		<path class="st10" d="M70.2,115.6c-0.1,0,0,1.7,0.1,2.5c0.2,2.4,0.6,5.9,1.7,10.1c1.3,4.5,2.9,7.8,3,7.6c0.2-0.1-1.2-3.6-2.7-9.9
			C71,120.3,70.4,115.6,70.2,115.6z"/>
		<path class="st10" d="M95.8,89.9c1.4,2.4,1.8,4.6,2.4,7.6c0.5,2.8,0.7,5,0.8,6c0.2,4-0.2,5.1-0.4,11.5c-0.1,3.4-0.2,5.1,0,6.1
			c0.9,4.4,4.1,7.3,6.5,9.1c-2.8-2.2-3.9-4.6-4.4-5.9c-0.6-1.7-0.8-3.4-1-5.5c-0.2-1.8-0.2-3.3-0.1-4.8c0-2.4,0.2-3.4,0.3-5.2
			c0.2-3.9-0.1-7-0.3-8.6c-0.3-2.9-0.6-5.4-1.6-8.5c-0.8-2.3-1.5-4.2-3.3-6c-1.6-1.6-3.4-2.4-4.6-2.8c0.7,0.6,1.6,1.5,2.6,2.6
			C93.5,86.7,94.8,88.1,95.8,89.9z"/>
		<path class="st10" d="M121.8,98.9c0.6,1.5,0.6,2.8,0.6,3.4c0.2,4.7,1.1,5.4,1.5,12.1c0.3,4.5-0.2,3.9,0.1,8.4
			c0.3,5.1,1.1,9.5,1.3,9.5c0.1,0-0.1-1.8-0.3-4.9c-0.3-6.1,0.2-6.9,0-11.6c-0.2-4.6-0.7-3.8-1-9.3c-0.3-4.7,0-5.9-0.9-8.3
			c-1.2-3.1-3.3-4.9-4.4-5.9c-2.8-2.4-5.7-3.4-7.4-3.9c1.4,0.6,3,1.5,4.6,2.8c2,1.6,3.1,3.2,4,4.4C120.7,96.8,121.4,97.7,121.8,98.9
			z"/>
		<path class="st11" d="M46.4,72.4c1.6-0.5,2.6-1,5.1-2.3c1.1-0.6,2.7-1.3,4.7-2.2c0.1-1.5-0.2-2.7-0.5-3.3
			c-0.6-1.5-1.5-2.3-2.9-3.7c-0.5-0.5-0.9-0.7-1.3-1c-1-0.6-1.9-0.7-2.4-0.8c-3-0.4-5.2,1.4-5.6,2c-0.7,0.6-2.5,2.2-2.7,4.9
			c-0.1,1.3,0.1,2.2,0.4,3.8c0.3,1.2,0.5,2.1,0.8,2.8C42.7,72.6,44.4,73.1,46.4,72.4z"/>
		<path class="st11" d="M36.9,140.6c-0.6-2.2-1-4.1-1.2-5.5c-0.6-4.1-0.7-5.6-1.9-6.7c-0.6-0.4-1.7-1.2-4.4-0.8
			c-0.5,0.7-1.1,1.9-1.3,3.4c-0.4,2-0.1,3.6,0.3,4.8c0.7,2.9,1.2,4.9,2.9,5.7C33.6,142.9,36.5,140.9,36.9,140.6z"/>
	</g>
	<g>
		<path class="st10" d="M125.6,137.4c0.5,9.1,2.5,11.2,2.5,11.2C127.5,139.1,125.6,137.4,125.6,137.4z"/>
		<path class="st10" d="M107.4,137.4c0.5,9.1,2.5,11.2,2.5,11.2C109.3,139.1,107.4,137.4,107.4,137.4z"/>
		<path class="st10" d="M80.7,141.6c0.5,9.1,2.5,11.2,2.5,11.2C82.6,143.4,80.7,141.8,80.7,141.6z"/>
	</g>
</g>
</svg>
