<?xml version="1.0" encoding="utf-8"?>
<!-- Generator: Adobe Illustrator 21.1.0, SVG Export Plug-In . SVG Version: 6.00 Build 0)  -->
<svg version="1.1" id="Layer_1" xmlns="http://www.w3.org/2000/svg" xmlns:xlink="http://www.w3.org/1999/xlink" x="0px" y="0px"
	 viewBox="0 0 170 177" style="enable-background:new 0 0 170 177;" xml:space="preserve">
<style type="text/css">
	.st0{fill:#A3A5A8;}
	.st1{fill:#D1D5DB;}
	.st2{fill:#898B90;}
	.st3{fill:#FFFFFF;}
	.st4{fill:#54AF19;}
	.st5{fill:#444444;}
	.st6{font-family:'ArialMT';}
	.st7{font-size:6px;}
	.st8{opacity:0.8;fill:#FFDAB5;stroke:#F9BF98;stroke-width:0.7021;stroke-miterlimit:10;enable-background:new    ;}
	.st9{fill:#F9BF98;}
	.st10{opacity:0.75;fill:#FCF0EB;enable-background:new    ;}
	.st11{opacity:0.5;fill:#F9AA62;enable-background:new    ;}
	.st12{fill:#FCF0EB;}
	text{font-family: arial !important;}
</style>
<g>
	<path class="st0" d="M134.3,166H35.7c-3.7,0-6.8-3.1-6.8-6.8V18.8c0-3.7,3.1-6.8,6.8-6.8h98.6c3.7,0,6.8,3.1,6.8,6.8v140.4
		C141.1,162.9,138,166,134.3,166z"/>
	<path class="st1" d="M134.4,165H35.7c-3.7,0-6.8-3.1-6.8-6.8V17.8c0-3.7,3.1-6.8,6.8-6.8h98.7c3.7,0,6.8,3.1,6.8,6.8v140.4
		C141.2,161.9,138.1,165,134.4,165z"/>
</g>
<path class="st2" d="M131.6,46.7h-17.7c-1.4,0-2.6-1.2-2.6-2.6V27.7c0-1.4,1.2-2.6,2.6-2.6h17.7c1.4,0,2.6,1.2,2.6,2.6v16.4
	C134.2,45.6,133.1,46.7,131.6,46.7z"/>
<path class="st3" d="M131.6,46.1h-17.7c-1.4,0-2.6-1.2-2.6-2.6V27.1c0-1.4,1.2-2.6,2.6-2.6h17.7c1.4,0,2.6,1.2,2.6,2.6v16.4
	C134.2,44.9,133.1,46.1,131.6,46.1z"/>
<path class="st2" d="M106.4,46.7H88.7c-1.4,0-2.6-1.2-2.6-2.6V27.7c0-1.4,1.2-2.6,2.6-2.6h17.7c1.4,0,2.6,1.2,2.6,2.6v16.4
	C109,45.6,107.8,46.7,106.4,46.7z"/>
<path class="st3" d="M106.4,46.1H88.7c-1.4,0-2.6-1.2-2.6-2.6V27.1c0-1.4,1.2-2.6,2.6-2.6h17.7c1.4,0,2.6,1.2,2.6,2.6v16.4
	C109,44.9,107.8,46.1,106.4,46.1z"/>
<path class="st2" d="M81.1,46.7H63.4c-1.4,0-2.6-1.2-2.6-2.6V27.7c0-1.4,1.2-2.6,2.6-2.6h17.7c1.4,0,2.6,1.2,2.6,2.6v16.4
	C83.8,45.6,82.6,46.7,81.1,46.7z"/>
<path class="st3" d="M81.1,46.1H63.4c-1.4,0-2.6-1.2-2.6-2.6V27.1c0-1.4,1.2-2.6,2.6-2.6h17.7c1.4,0,2.6,1.2,2.6,2.6v16.4
	C83.8,44.9,82.6,46.1,81.1,46.1z"/>
<path class="st2" d="M55.9,46.7H38.2c-1.4,0-2.6-1.2-2.6-2.6V27.7c0-1.4,1.2-2.6,2.6-2.6h17.7c1.4,0,2.6,1.2,2.6,2.6v16.4
	C58.5,45.6,57.4,46.7,55.9,46.7z"/>
<path class="st3" d="M55.9,46.1H38.2c-1.4,0-2.6-1.2-2.6-2.6V27.1c0-1.4,1.2-2.6,2.6-2.6h17.7c1.4,0,2.6,1.2,2.6,2.6v16.4
	C58.5,44.9,57.4,46.1,55.9,46.1z"/>
<path class="st2" d="M106.8,100H89.1c-1.4,0-2.6-1.2-2.6-2.6V81c0-1.4,1.2-2.6,2.6-2.6h17.7c1.4,0,2.6,1.2,2.6,2.6v16.4
	C109.4,98.9,108.2,100,106.8,100z"/>
<path class="st3" d="M106.8,99.4H89.1c-1.4,0-2.6-1.2-2.6-2.6V80.4c0-1.4,1.2-2.6,2.6-2.6h17.7c1.4,0,2.6,1.2,2.6,2.6v16.4
	C109.4,98.2,108.2,99.4,106.8,99.4z"/>
<path class="st2" d="M81.5,100H63.8c-1.4,0-2.6-1.2-2.6-2.6V81c0-1.4,1.2-2.6,2.6-2.6h17.7c1.4,0,2.6,1.2,2.6,2.6v16.4
	C84.2,98.9,83,100,81.5,100z"/>
<path class="st3" d="M81.5,99.4H63.8c-1.4,0-2.6-1.2-2.6-2.6V80.4c0-1.4,1.2-2.6,2.6-2.6h17.7c1.4,0,2.6,1.2,2.6,2.6v16.4
	C84.2,98.2,83,99.4,81.5,99.4z"/>
<path class="st2" d="M56.3,100H38.6c-1.4,0-2.6-1.2-2.6-2.6V81c0-1.4,1.2-2.6,2.6-2.6h17.7c1.4,0,2.6,1.2,2.6,2.6v16.4
	C58.9,98.9,57.8,100,56.3,100z"/>
<path class="st3" d="M56.3,99.4H38.6c-1.4,0-2.6-1.2-2.6-2.6V80.4c0-1.4,1.2-2.6,2.6-2.6h17.7c1.4,0,2.6,1.2,2.6,2.6v16.4
	C58.9,98.2,57.8,99.4,56.3,99.4z"/>
<path class="st2" d="M106.4,73.3H88.7c-1.4,0-2.6-1.2-2.6-2.6V54.3c0-1.4,1.2-2.6,2.6-2.6h17.7c1.4,0,2.6,1.2,2.6,2.6v16.4
	C109,72.2,107.8,73.3,106.4,73.3z"/>
<path class="st3" d="M106.4,72.7H88.7c-1.4,0-2.6-1.2-2.6-2.6V53.7c0-1.4,1.2-2.6,2.6-2.6h17.7c1.4,0,2.6,1.2,2.6,2.6v16.4
	C109,71.5,107.8,72.7,106.4,72.7z"/>
<path class="st2" d="M81.1,73.3H63.4c-1.4,0-2.6-1.2-2.6-2.6V54.3c0-1.4,1.2-2.6,2.6-2.6h17.7c1.4,0,2.6,1.2,2.6,2.6v16.4
	C83.8,72.2,82.6,73.3,81.1,73.3z"/>
<path class="st3" d="M81.1,72.7H63.4c-1.4,0-2.6-1.2-2.6-2.6V53.7c0-1.4,1.2-2.6,2.6-2.6h17.7c1.4,0,2.6,1.2,2.6,2.6v16.4
	C83.8,71.5,82.6,72.7,81.1,72.7z"/>
<path class="st2" d="M55.9,73.3H38.2c-1.4,0-2.6-1.2-2.6-2.6V54.3c0-1.4,1.2-2.6,2.6-2.6h17.7c1.4,0,2.6,1.2,2.6,2.6v16.4
	C58.5,72.2,57.4,73.3,55.9,73.3z"/>
<path class="st3" d="M55.9,72.7H38.2c-1.4,0-2.6-1.2-2.6-2.6V53.7c0-1.4,1.2-2.6,2.6-2.6h17.7c1.4,0,2.6,1.2,2.6,2.6v16.4
	C58.5,71.5,57.4,72.7,55.9,72.7z"/>
<path class="st2" d="M106.8,126.7H89.1c-1.4,0-2.6-1.2-2.6-2.6v-16.4c0-1.4,1.2-2.6,2.6-2.6h17.7c1.4,0,2.6,1.2,2.6,2.6v16.4
	C109.4,125.6,108.2,126.7,106.8,126.7z"/>
<path class="st3" d="M106.8,126.1H89.1c-1.4,0-2.6-1.2-2.6-2.6v-16.4c0-1.4,1.2-2.6,2.6-2.6h17.7c1.4,0,2.6,1.2,2.6,2.6v16.4
	C109.4,124.9,108.2,126.1,106.8,126.1z"/>
<path class="st2" d="M81.5,126.7H63.8c-1.4,0-2.6-1.2-2.6-2.6v-16.4c0-1.4,1.2-2.6,2.6-2.6h17.7c1.4,0,2.6,1.2,2.6,2.6v16.4
	C84.2,125.6,83,126.7,81.5,126.7z"/>
<path class="st3" d="M81.5,126.1H63.8c-1.4,0-2.6-1.2-2.6-2.6v-16.4c0-1.4,1.2-2.6,2.6-2.6h17.7c1.4,0,2.6,1.2,2.6,2.6v16.4
	C84.2,124.9,83,126.1,81.5,126.1z"/>
<path class="st2" d="M56.3,126.7H38.6c-1.4,0-2.6-1.2-2.6-2.6v-16.4c0-1.4,1.2-2.6,2.6-2.6h17.7c1.4,0,2.6,1.2,2.6,2.6v16.4
	C58.9,125.6,57.8,126.7,56.3,126.7z"/>
<path class="st3" d="M56.3,126.1H38.6c-1.4,0-2.6-1.2-2.6-2.6v-16.4c0-1.4,1.2-2.6,2.6-2.6h17.7c1.4,0,2.6,1.2,2.6,2.6v16.4
	C58.9,124.9,57.8,126.1,56.3,126.1z"/>
<path class="st2" d="M81.7,153.5H38.6c-1.2,0-2.4-1-2.4-2.3v-17.1c0-1.3,1-2.3,2.4-2.3h43.1c1.3,0,2.4,1,2.4,2.3v17.1
	C84.1,152.5,83,153.5,81.7,153.5z"/>
<path class="st3" d="M81.7,152.9H38.5c-1.2,0-2.4-1-2.4-2.3v-17.1c0-1.3,1-2.3,2.4-2.3h43.2c1.3,0,2.4,1,2.4,2.3v17.1
	C84.1,151.9,83.1,152.9,81.7,152.9z"/>
<g>
	<path class="st2" d="M106.6,153.6H88.9c-1.4,0-2.6-1.2-2.6-2.6v-16.4c0-1.4,1.2-2.6,2.6-2.6h17.7c1.4,0,2.6,1.2,2.6,2.6V151
		C109.2,152.4,108,153.6,106.6,153.6z"/>
	<path class="st3" d="M106.6,152.9H88.9c-1.4,0-2.6-1.2-2.6-2.6v-16.4c0-1.4,1.2-2.6,2.6-2.6h17.7c1.4,0,2.6,1.2,2.6,2.6v16.4
		C109.2,151.7,108,152.9,106.6,152.9z"/>
</g>
<path class="st2" d="M133.2,53.7v44.1c0,1.2-1.2,2.2-2.6,2.2H114c-1.4,0-2.6-1-2.6-2.2V53.7c0-1.2,1.2-2.2,2.6-2.2h16.5
	C132,51.5,133.2,52.4,133.2,53.7z"/>
<path class="st3" d="M133.4,53.3v43.9c0,1.2-1.2,2.2-2.6,2.2H114c-1.4,0-2.6-1-2.6-2.2V53.3c0-1.2,1.2-2.2,2.6-2.2h16.7
	C132.1,51.1,133.4,52,133.4,53.3z"/>
<path class="st2" d="M133.4,107v44.1c0,1.2-1.2,2.2-2.6,2.2h-16.6c-1.4,0-2.6-1-2.6-2.2V107c0-1.2,1.2-2.2,2.6-2.2h16.5
	C132.2,104.7,133.4,105.7,133.4,107z"/>
<path class="st4" d="M133.6,106.6v43.9c0,1.2-1.2,2.2-2.6,2.2h-16.8c-1.4,0-2.6-1-2.6-2.2v-43.9c0-1.2,1.2-2.2,2.6-2.2h16.7
	C132.4,104.3,133.6,105.3,133.6,106.6z"/>
<path class="st5" d="M62.6,142.7c0,1.2-0.5,2-1.4,2s-1.3-0.8-1.4-2c0-1.2,0.5-2,1.4-2C62.2,140.8,62.6,141.6,62.6,142.7z
	 M60.6,142.8c0,0.9,0.3,1.4,0.7,1.4s0.7-0.5,0.7-1.4s-0.2-1.4-0.7-1.4C60.9,141.3,60.6,141.8,60.6,142.8z"/>
<text transform="matrix(1 0 0 1 115.6375 129.8417)" class="st5 st6 st7">enter</text>
<path class="st5" d="M122.5,73.7V75h1.3v0.5h-1.3v1.3H122v-1.3h-1.3V75h1.3v-1.3H122.5z"/>
<path class="st5" d="M124,36.2v0.3h-2.9v-0.3H124z"/>
<path class="st5" d="M47.6,117.9H47V114l-1.1,0.4v-0.6l1.7-0.6h0.1L47.6,117.9L47.6,117.9z"/>
<path class="st5" d="M71,117.8v-0.5l0.5-0.4c0.9-0.9,1.3-1.3,1.3-1.8c0-0.3-0.2-0.7-0.7-0.7c-0.3,0-0.6,0.2-0.8,0.3l-0.2-0.5
	c0.3-0.2,0.7-0.4,1.2-0.4c0.9,0,1.3,0.5,1.3,1.1c0,0.7-0.5,1.2-1.1,1.8l-0.3,0.3l0,0h1.6v0.6L71,117.8L71,117.8L71,117.8z"/>
<path class="st5" d="M96.7,116.9c0.2,0.1,0.5,0.2,0.9,0.2c0.6,0,0.8-0.3,0.8-0.6c0-0.5-0.4-0.7-0.9-0.7h-0.3v-0.5h0.3
	c0.3,0,0.8-0.2,0.8-0.5s-0.2-0.5-0.6-0.5c-0.3,0-0.6,0.1-0.8,0.2l-0.2-0.5c0.2-0.2,0.7-0.3,1.1-0.3c0.8,0,1.2,0.4,1.2,1
	c0,0.4-0.2,0.7-0.7,0.9l0,0c0.5,0.1,0.9,0.4,0.9,1c0,0.7-0.6,1.1-1.5,1.1c-0.5,0-0.9-0.1-1.1-0.3L96.7,116.9z"/>
<path class="st5" d="M47.1,92.1v-1h-1.7v-0.5l1.6-2.4h0.9v2.3h0.5v0.6h-0.5v1H47.1L47.1,92.1z M47.1,90.6v-1c0-0.2,0-0.5,0-0.7l0,0
	c-0.1,0.2-0.2,0.4-0.3,0.7l-0.7,1l0,0H47.1z"/>
<path class="st5" d="M73.2,88.9h-1.5l-0.1,0.8c0.1,0,0.2,0,0.3,0c0.3,0,0.7,0.1,0.9,0.3c0.3,0.2,0.5,0.5,0.5,1
	c0,0.7-0.6,1.3-1.5,1.3c-0.5,0-0.8-0.1-1-0.2l0.2-0.6c0.2,0.1,0.5,0.2,0.9,0.2s0.8-0.2,0.8-0.7c0-0.4-0.3-0.7-1.1-0.7
	c-0.2,0-0.4,0-0.5,0l0.3-1.9h2v0.5C73.4,88.9,73.2,88.9,73.2,88.9z"/>
<path class="st5" d="M98,88.8c-0.1,0-0.2,0-0.4,0c-0.8,0.1-1.2,0.6-1.3,1.1l0,0c0.2-0.2,0.5-0.4,0.9-0.4c0.7,0,1.2,0.5,1.2,1.2
	s-0.5,1.4-1.3,1.4c-0.9,0-1.4-0.7-1.4-1.6c0-0.8,0.3-1.3,0.7-1.7c0.4-0.3,0.8-0.5,1.4-0.6c0.2,0,0.3,0,0.4,0L98,88.8z M97.6,90.8
	c0-0.5-0.2-0.8-0.7-0.8c-0.3,0-0.5,0.2-0.6,0.4c0,0.1,0,0.1,0,0.2c0,0.5,0.3,0.9,0.7,0.9C97.4,91.6,97.6,91.3,97.6,90.8z"/>
<path class="st5" d="M47.6,60.2v0.5L46,64.1h-0.8l1.6-3.2l0,0H45v-0.6L47.6,60.2L47.6,60.2z"/>
<path class="st5" d="M69.8,63.1c0-0.5,0.3-0.8,0.7-1l0,0c-0.4-0.2-0.6-0.5-0.6-0.9c0-0.6,0.6-1,1.3-1c0.8,0,1.2,0.5,1.2,1
	c0,0.3-0.2,0.7-0.6,0.9l0,0c0.4,0.2,0.7,0.5,0.7,1c0,0.7-0.6,1.1-1.4,1.1C70.3,64.1,69.8,63.6,69.8,63.1z M71.8,63
	c0-0.4-0.3-0.6-0.7-0.7c-0.4,0.1-0.6,0.4-0.6,0.7s0.2,0.6,0.7,0.6C71.6,63.6,71.8,63.4,71.8,63z M70.6,61.2c0,0.3,0.3,0.5,0.6,0.6
	c0.3-0.1,0.5-0.3,0.5-0.6s-0.2-0.6-0.6-0.6C70.8,60.7,70.6,60.9,70.6,61.2z"/>
<path class="st5" d="M95.4,63.6c0.1,0,0.2,0,0.4,0c0.3,0,0.6-0.1,0.8-0.3c0.3-0.2,0.4-0.5,0.5-0.9l0,0c-0.2,0.2-0.5,0.3-0.9,0.3
	c-0.7,0-1.1-0.5-1.1-1.2s0.6-1.4,1.4-1.4c0.9,0,1.4,0.7,1.4,1.6c0,0.8-0.3,1.4-0.7,1.8c-0.3,0.3-0.8,0.5-1.3,0.5c-0.2,0-0.3,0-0.4,0
	L95.4,63.6L95.4,63.6z M95.8,61.5c0,0.4,0.2,0.7,0.6,0.7c0.3,0,0.5-0.1,0.6-0.3c0,0,0-0.1,0-0.2c0-0.5-0.2-1-0.7-1
	C96,60.7,95.8,61,95.8,61.5z"/>
<path class="st5" d="M71.2,38.1l1.4-4.3h0.5l-1.4,4.3H71.2z"/>
<path class="st5" d="M98.5,35.1l-0.6,0.8l0,0l0.9-0.2v0.5l-0.9-0.1l0,0l0.6,0.7L98,37.1l-0.4-0.9l0,0l-0.4,0.9l-0.4-0.3l0.6-0.7l0,0
	l-0.9,0.2v-0.5l0.9,0.2l0,0l-0.6-0.7l0.5-0.3l0.3,0.9l0,0l0.3-0.9L98.5,35.1z"/>
<text transform="matrix(1 0 0 1 40.9708 33.675)" class="st5 st6 st7">num </text>
<text transform="matrix(1 0 0 1 40.9708 40.875)" class="st5 st6 st7">lock</text>
<g>
	<path class="st8" d="M50.4,230c-1.5-2.8-4-9.4-4.6-11c-3.8-9.7-6.2-15.9-7-23.8c-0.4-3.9-0.6-9.8,0.7-17l-0.2-10
		c-0.3-7.9-0.5-8.5-0.2-10.7c0.8-4.5,2.8-7.8,5.5-12.5c2.7-4.6,3.4-4.6,4-6.7c1-3.9-1.4-6.1-3.4-13.6c-0.2-0.7-0.7-3.4-1.6-8.7
		l-3.1-17.9c-0.4-1.5-0.5-3-0.9-4.6c-1-4.6-1.6-5.8-1.3-7.9c0.2-1.1,0.6-2.7,2.2-4.5c0.9-0.7,2.9-2,5.5-1.9c2.8,0.1,4.6,1.9,6.3,3.4
		c1.4,1.4,3.4,3.7,5.8,9.8c1.4,3.6,1.3,4.1,3.2,10.3c2,6.4,2.2,6.2,4.6,13.8l2.8,9.2l2.5,8.5c1.5,5,2,6.1,2.6,9
		c0.6,2.6,0.7,3.8,0.9,3.8c0.6-0.1,1.6-6.6,0.7-13.7c-0.3-3.3-0.7-2.8-2.1-10.7c-0.9-5.1-0.8-6-1.6-8.4c-1.2-3.9-2.1-3.8-4.2-8.8
		c-2.1-4.9-1.2-4.8-3.6-11c-1.7-4.4-2.8-5.8-2.3-7.9c0.9-3.8,4.3-5.2,4.6-5.4c1.7-0.8,4.3-1.5,6.9-0.7c3.1,0.9,4.6,3.5,9.8,13.5
		c4.8,9.5,7.3,14.3,8.5,17.8c1.9,5.5,3,9.9,3.7,13.8c2.5,11.5,2.7,19.6,3,19.6c0.4,0,0.3-6,0-11c-0.4-6.8-0.6-10.9-2-15.9
		c-1-3.6-2.2-6.2-4.1-10.5c-1.1-2.5-2.8-6-4.5-11.1c-0.7-2-1.2-3.7-1.2-6.1c0-1.9,0-4.5,1.8-6.4c2.3-2.5,5.9-1.9,6.6-1.8
		c1.9,0.3,3.6,1.3,5.4,3.1c4.2,4.2,6.4,9.1,7.7,12.3c3.7,8.9,5.8,14,8.3,23.1c0.5,1.8,0.5,2,1.3,5.3c0.1,0.4,0.6,2.6,1.6,6.9
		c0.4,1.7,4.4,18.8,5.4,18.7c0.3,0,0.2-1.4,0.1-3.5c-0.2-3.8-0.7-6.8-2.1-14.2c-0.2-1.3-0.5-2.4-0.6-3.2c-0.7-3.5-1.3-7-2.1-10.4
		c-1.1-5-1.6-6.5-1-8.6c0.8-3.4,3.9-7.1,6.8-7.1c4.1,0.1,6.7,7.7,9,14.6c2.1,6.4,2.4,12.4,4.5,22.4c0,0,3.7,30.4,0.8,43.2
		c-0.1,0.3-0.5,2.5-1.2,5.5c-0.3,1.4-0.7,3.4-1.2,6.8c-1.3,8.4-2.7,16.7-4,25.1c-1.5,10.1-1.6,11.4-1.8,12.3
		c-0.1,0.3-0.2,0.4-0.2,0.4C130.4,236.8,122.5,240.4,50.4,230z"/>
	<path class="st9" d="M121.4,162.2c-1.2,9,0.3,11.4,0.3,11.4C122.8,164.1,121.4,162.2,121.4,162.2z M98.7,157.4
		c-0.2,9.1,1.5,11.3,1.5,11.3C100.4,159.2,98.7,157.5,98.7,157.4z M76,156.7c-0.2,9.1,1.6,11.3,1.6,11.3
		C77.7,158.6,76,156.7,76,156.7z"/>
	<path class="st10" d="M102.1,93.8c-0.2-0.7-0.6-1.7-1.2-3c-0.8-1.6-1.4-2.7-2.4-3.6c-0.6-0.5-3-2.9-5.9-1.8
		c-1.7,0.7-2.9,2.2-3.4,3.7c-0.6,1.7-0.3,3.1,0.2,5.1c0.1,0.8,0.4,1.5,0.9,2.9c0.6,1.8,0.9,2.7,1.4,2.9c0.5,0.3,1,0,4.7-1.5l1.9-0.8
		C100.4,96.4,101.6,94.6,102.1,93.8L102.1,93.8z M77.5,89.7c-0.1-0.6-0.6-1.4-1.1-2.5c-0.7-1.2-1.2-2.2-2-2.9
		c-1.8-1.7-4-1.6-4.7-1.5c-0.6,0.1-3.3,0.2-4.9,2.5c-0.4,0.5-1.3,1.7-1.3,3.8c-0.1,2.1,1,3.7,1.5,4.6c0.7,0.8,1,1.6,1.7,1.8
		c0.7,0.3,0.9-0.1,3.1-0.9c1.7-0.6,2.8-0.8,4.7-1.8l0.1-0.1C76.3,91.8,77.1,90.3,77.5,89.7L77.5,89.7z"/>
	<path class="st10" d="M52.7,88.8c-0.1-0.7-0.5-1.5-0.8-2.7c-0.5-1.3-0.9-2.4-1.6-3.1c-1.4-1.8-3.5-1.8-4.2-1.8c-0.6,0-3,0-4.8,2.5
		c-0.4,0.5-1.4,1.8-1.7,3.9c-0.2,2.2,0.5,3.8,0.9,4.9c0.5,1,0.7,1.8,1.4,2.1c0.6,0.3,0.8-0.1,3-0.9c1.7-0.7,2.8-0.8,4.6-1.8
		c0,0,0.1,0,0.1-0.1C51.4,90.9,52.4,89.4,52.7,88.8L52.7,88.8z"/>
	<path class="st11" d="M139.2,141.9c-2.1-10-2.4-16-4.5-22.4c-2.3-6.9-4.9-14.5-9-14.6c-2.9-0.1-5.9,3.6-6.8,7.1v0.1l0.9,7.7
		c0.1,0.3,0.1,0.5,0.2,0.8c0.8,3.5,1.4,6.9,2.1,10.4c0.2,0.8,0.4,1.9,0.6,3.2c1.2,6.5,1.8,9.6,2,12.8l14.9-1.7
		C139.3,143.1,139.2,141.9,139.2,141.9z"/>
	<path class="st12" d="M129.3,118.5l3.2-1.1l-1.6-4.2c0,0-0.5-1.3-1.6-3.3c-0.1-0.2-0.1-0.3-0.3-0.4c-0.5-0.7-1.5-1.7-2.4-1.6
		c-1,0.1-1.5,1.7-1.8,2.8c-0.2,0.6-0.5,1.8-0.4,3.7c0,1.2,0.2,3,1,5.2l-0.7,0.2c0,0,0.6,0,1.7-0.2L129.3,118.5L129.3,118.5z"/>
	<path class="st9" d="M49.4,139.7c-0.2-0.7-0.5-1.3-0.8-2.1c0.9,3.5,1.7,7.4,2.2,11.8c1.1,10.2,0,18.8-1.2,25.2
		C52.3,164.3,53.8,151.8,49.4,139.7L49.4,139.7z"/>
</g>
</svg>
