<?xml version="1.0" encoding="utf-8"?>
<!-- Generator: Adobe Illustrator 21.1.0, SVG Export Plug-In . SVG Version: 6.00 Build 0)  -->
<svg version="1.1" id="Layer_1" xmlns="http://www.w3.org/2000/svg" xmlns:xlink="http://www.w3.org/1999/xlink" x="0px" y="0px"
	 viewBox="0 0 77 88" style="enable-background:new 0 0 77 88;" xml:space="preserve">
<style type="text/css">
	.st0{opacity:0.15;enable-background:new    ;}
	.st1{fill:url(#SVGID_1_);}
	.st2{fill:url(#SVGID_2_);}
	.st3{opacity:0.321;fill:#FFFFFF;stroke:#FFFFFF;stroke-width:0.5;stroke-miterlimit:10;enable-background:new    ;}
</style>
<g>
	<path class="st0" d="M73.6,35.5c-1.8-4.6-5.1-13.3-6.1-16v-0.1v0.1c-0.2-0.5-0.3-0.8-0.3-0.8h-0.3c-0.4-1.5-2-2.7-4.1-2.5
		c-15.9,2.5-32,2.2-47.9,0c-1.8-0.2-3.8,1.3-4.1,3.1c-1,2.4-4.5,11.5-6.7,15.9c-0.8,1.5-1.5,3.8-1.5,5.5v36.2c0,3.5,3,5.9,6.4,6.4
		c19.9,3.3,39.8,2.7,59.9,0c3.5-0.4,6.4-2.9,6.4-6.4V40.6C75.3,39.1,74.1,36.7,73.6,35.5z"/>
	
		<linearGradient id="SVGID_1_" gradientUnits="userSpaceOnUse" x1="1619.9641" y1="1372.3113" x2="1574.9746" y2="1385.7166" gradientTransform="matrix(1.016 0 0 -1.5046 -1607.934 2101.2915)">
		<stop  offset="0" style="stop-color:#000000"/>
		<stop  offset="0.3" style="stop-color:#000000"/>
		<stop  offset="0.5" style="stop-color:#323232"/>
		<stop  offset="0.7" style="stop-color:#000000"/>
		<stop  offset="1" style="stop-color:#000000"/>
	</linearGradient>
	<path class="st1" d="M11,4.1h56.2c0,0,4.2,11.4,6.4,16.8c0.5,1.3,1.7,3.7,1.7,5.2v36.2c0,3.5-2.9,6-6.4,6.4
		c-20.1,2.7-40,3.3-59.9,0c-3.4-0.5-6.4-2.9-6.4-6.4V26.1c0-1.7,0.7-4,1.5-5.5C6.6,15.5,11,4.1,11,4.1L11,4.1z"/>
	
		<linearGradient id="SVGID_2_" gradientUnits="userSpaceOnUse" x1="1592.995" y1="1379.9761" x2="1649.3043" y2="1379.9761" gradientTransform="matrix(1.016 0 0 -1.5046 -1607.934 2101.2915)">
		<stop  offset="0" style="stop-color:#191919"/>
		<stop  offset="1" style="stop-color:#000000"/>
	</linearGradient>
	<path class="st2" d="M14.9,1.6c15.9,2.2,32,2.5,47.9,0C65.3,1.4,67,3.1,67,5.1V43c0,1.7-1.7,2.9-4.2,3.5c-15.9,2.5-32,2.5-47.9,0
		c-2.5-0.2-4.2-1.5-4.2-3.5V5.1C10.8,3.1,13,1.4,14.9,1.6z"/>
	<g>
		<path class="st3" d="M11,4.1v4.4L10.5,43c0,1.7,1.7,2.9,4.2,3.5c16.2,2.5,32.9,2.5,49.1,0c2.5-0.2,3.9-1.5,3.9-3.5V8.5l-0.2-3.7
			v37.9c0,1.7-1,2.9-3.4,3.5c-15.9,2.5-32.4,2.2-48.6-0.5c-2.5-0.2-4.2-1.5-4.2-3.5L11,4.1z"/>
	</g>
</g>
</svg>
