<?xml version="1.0" encoding="utf-8"?>
<!-- Generator: Adobe Illustrator 21.1.0, SVG Export Plug-In . SVG Version: 6.00 Build 0)  -->
<svg version="1.1" id="Layer_1" xmlns="http://www.w3.org/2000/svg" xmlns:xlink="http://www.w3.org/1999/xlink" x="0px" y="0px"
	 viewBox="0 0 63 87" style="enable-background:new 0 0 63 87;" xml:space="preserve">
<style type="text/css">
	.st0{opacity:0.4;fill:#FFFFFF;enable-background:new    ;}
	.st1{fill:#62B446;}
	.st2{fill:#77C04C;}
	.st3{fill:#60A845;}
	.st4{fill:#81C354;}
	.st5{fill:#F9ED36;}
	.st6{fill:#D3C43C;}
	.st7{fill:url(#SVGID_1_);}
	.st8{fill:#B7A737;}
	.st9{fill:url(#SVGID_2_);}
	.st10{fill:#2A8C43;}
	.st11{fill:#5EBB47;}
	.st12{fill:url(#SVGID_3_);}
	.st13{fill:#D7CD29;}
	.st14{fill:#1F1A10;}
	.st15{opacity:0.1;fill:#FFFFFF;enable-background:new    ;}
	.st16{fill:url(#SVGID_4_);}
	.st17{opacity:0.5;fill:#66A83B;stroke:#87CC5A;stroke-width:1.8315;stroke-miterlimit:10;enable-background:new    ;}
	.st18{opacity:0.5;fill:#2A8C43;enable-background:new    ;}
	.st19{fill:#EDEA57;}
	.st20{fill:#873A83;}
	.st21{fill:#A53F97;}
	.st22{fill:#8D8030;}
	.st23{fill:#C5B12F;}
	.st24{fill:#9E2624;}
	.st25{fill:#D71F28;}
	.st26{fill:#D63646;}
	.st27{fill:#4671B7;}
	.st28{fill:#3E699B;}
	.st29{fill:#3960AD;}
	.st30{fill:#355B93;}
	.st31{fill:#4677BB;}
	.st32{fill:#335791;}
	.st33{fill:url(#SVGID_5_);}
	.st34{opacity:0.2;enable-background:new    ;}
	.st35{fill:url(#SVGID_6_);}
	.st36{fill:#233F97;}
	.st37{fill:url(#SVGID_7_);}
	.st38{fill:#81C341;}
	.st39{fill:#B0D46E;}
</style>
<g>
	<ellipse class="st0" cx="32.4" cy="79.9" rx="20.9" ry="3.8"/>
	<path class="st1" d="M54,1.7c-7.6,0.1-15.2,0.2-22.8,0.2C23.7,2,16.2,2.1,8.7,2.1C8.1,2.7,7.3,3.6,6.6,4.7C6,5.7,5.4,6.6,5.2,7.5
		c0,4.8,0,9.6,0,14.4c1.5,5.8,3,11.6,4.5,17.4c1.8,1.6,3.5,3.3,5.3,4.9C27.2,44.1,39.2,44,51.4,44c1.3-1.7,2.6-3.4,3.9-5.1
		c1.2-5.5,2.2-10.9,3.4-16.4V6.7c-0.5-0.7-1.1-1.5-1.8-2.4C55.7,3.3,54.8,2.4,54,1.7z"/>
	<path class="st2" d="M52.1,15c-6.7-0.2-13.5-0.4-20.2-0.6c-6.9,0.4-13.8,0.7-20.6,1.1c-1.9,2.8-3.8,5.6-5.7,8.4
		C7.7,32.3,9.9,40.6,12,49c0.3,0.6,0.8,1.5,1.6,2.4c1.2,1.2,2.4,1.8,3.1,2c10.9-0.1,21.8-0.1,32.8-0.2c0.4-0.2,1.6-0.6,2.6-2
		c0.7-1.1,0.9-2.2,1-2.7c1.8-8.8,3.7-17.6,5.5-26.4C56.4,19.8,54.3,17.4,52.1,15z"/>
	<polygon class="st3" points="9.5,2.2 10.8,15 52.3,14.8 53.8,1.8 	"/>
	<path class="st4" d="M58.6,22.3c-0.6-1.1-1.5-2.4-2.7-3.7c-1.3-1.5-2.7-2.7-3.8-3.5c-6.3-0.5-13-1-20.1-0.6
		c-6.8,0.4-13.7,0.7-20.5,1.1c-0.8,0.5-2.3,1.5-3.6,3.4s-1.7,3.7-1.8,4.7c17.4-0.3,34.9-0.6,52.4-0.9C58.5,22.6,58.6,22.4,58.6,22.3
		z"/>
	<polygon class="st5" points="4.8,14.6 10.4,8.7 53,8.7 58.5,15.8 58.5,19.3 58.6,22.3 60.7,15.7 60.1,10.8 53.5,4.9 9.7,4.9 
		4.8,9.7 3,11.7 3,14.7 5,21.9 	"/>
	<polygon class="st6" points="10.2,8.9 52.8,8.9 58.4,15.9 58.4,19.5 58.4,22.5 59.7,18.4 59.1,13.5 52.7,7.6 10.3,7.6 5.5,12.4 
		3.8,14.4 3.7,17.4 4.8,21.6 4.7,14.7 	"/>
	<g>
		
			<radialGradient id="SVGID_1_" cx="3712.6646" cy="695.0424" r="4.1716" gradientTransform="matrix(-0.9598 0 0 1.0322 3568.0481 -692.3843)" gradientUnits="userSpaceOnUse">
			<stop  offset="0" style="stop-color:#F1FF81"/>
			<stop  offset="1" style="stop-color:#D3BA37"/>
		</radialGradient>
		<path class="st7" d="M5.5,19.9c-0.9-0.5-2-0.6-2.7-0.1c-0.8,0.5-0.7,1.3-0.6,1.4c0.1,1.1,0.3,2.2,0.4,3.4C2.8,25.8,3,26.9,3.1,28
			c0.1,1.1,0.8,2.1,1.7,2.4C6,30.8,6.9,29.9,7,29.9C6.5,26.5,6,23.2,5.5,19.9z"/>
		<path class="st8" d="M2.9,27.5c-0.2-1-0.3-2.1-0.4-3.2s-0.3-2.2-0.4-3.2c0-0.1-0.1-0.6,0.2-1c0.4,0.5,0.8,2.3,1.1,4.6
			c0.3,2,0.3,3.8,0.1,4.6C3.1,28.8,3,28.2,2.9,27.5z"/>
	</g>
	<g>
		
			<radialGradient id="SVGID_2_" cx="-192.7678" cy="695.663" r="4.1788" gradientTransform="matrix(0.9598 0 0 1.0322 244.4156 -692.3843)" gradientUnits="userSpaceOnUse">
			<stop  offset="0" style="stop-color:#F1FF81"/>
			<stop  offset="1" style="stop-color:#D3BA37"/>
		</radialGradient>
		<path class="st9" d="M58.5,20.5c0.9-0.5,2-0.6,2.7-0.1c0.8,0.5,0.7,1.3,0.6,1.4c-0.1,1.1-0.3,2.2-0.4,3.4
			c-0.2,1.2-0.4,2.3-0.5,3.4s-0.8,2.1-1.7,2.4c-1.2,0.4-2.1-0.5-2.2-0.5C57.4,27.1,57.9,23.8,58.5,20.5z"/>
		<path class="st8" d="M61.1,28.1c0.2-1,0.3-2.1,0.4-3.2s0.3-2.2,0.4-3.2c0-0.1,0.1-0.6-0.2-1c-0.4,0.5-0.8,2.3-1.1,4.6
			c-0.3,2-0.3,3.8-0.1,4.6C60.8,29.5,61,28.8,61.1,28.1z"/>
	</g>
	<g>
		<g>
			<ellipse class="st10" cx="20.2" cy="33.6" rx="7.2" ry="5.5"/>
			<ellipse class="st11" cx="20" cy="33.5" rx="6.9" ry="5.2"/>
		</g>
		
			<radialGradient id="SVGID_3_" cx="-233.7309" cy="703.3099" r="5.0543" gradientTransform="matrix(0.9598 0 0 1.0322 244.4156 -692.3843)" gradientUnits="userSpaceOnUse">
			<stop  offset="7.772021e-02" style="stop-color:#E2FFB3"/>
			<stop  offset="0.785" style="stop-color:#F8EE3B"/>
			<stop  offset="0.8264" style="stop-color:#F7EF41"/>
			<stop  offset="1" style="stop-color:#F9ED36"/>
		</radialGradient>
		<ellipse class="st12" cx="20" cy="33.5" rx="5.6" ry="4.3"/>
		<path class="st13" d="M23.2,30.2c1.3,0.8,2.1,2,2.1,3.3c0,2.4-2.5,4.3-5.6,4.3c-1.1,0-2.1-0.2-3-0.6c1,0.6,2.2,1,3.5,1
			c3.1,0,5.6-1.9,5.6-4.3C25.9,32.3,24.9,30.9,23.2,30.2z"/>
		<path class="st13" d="M14.4,33.5c0,0.7,0.2,1.3,0.6,1.9c-0.1-0.4-0.3-1.1-0.1-2.1s0.6-1.6,0.8-1.9c1.1-1.5,2.6-2,3.1-2.1
			C16.3,29.7,14.4,31.4,14.4,33.5z"/>
		<path class="st14" d="M21.7,32.3c-0.4-0.2-0.8-0.3-1.3-0.3c-1.4,0-2.5,0.9-2.5,1.9c0,0.6,0.4,1.1,0.9,1.5c0.4,0.2,0.8,0.3,1.3,0.3
			c1.4,0,2.5-0.9,2.5-1.9C22.6,33.1,22.3,32.6,21.7,32.3z M21.5,33.7c0,0.6-0.6,1-1.3,1c-0.3,0-0.5-0.1-0.7-0.2
			c-0.3-0.2-0.4-0.5-0.4-0.8c0-0.6,0.6-1,1.3-1c0.3,0,0.5,0.1,0.7,0.2C21.3,33.1,21.5,33.4,21.5,33.7z"/>
		<path class="st15" d="M19.6,33v-0.9c-0.4,0.1-0.9,0.3-1.2,0.6l0.8,0.5C19.2,33.1,19.4,33,19.6,33z"/>
	</g>
	<g>
		<g>
			<ellipse class="st10" cx="45.2" cy="33.8" rx="7.2" ry="5.5"/>
			<ellipse class="st11" cx="45.1" cy="33.7" rx="6.9" ry="5.2"/>
		</g>
		
			<radialGradient id="SVGID_4_" cx="-207.6637" cy="703.5141" r="5.0543" gradientTransform="matrix(0.9598 0 0 1.0322 244.4156 -692.3843)" gradientUnits="userSpaceOnUse">
			<stop  offset="7.772021e-02" style="stop-color:#E2FFB3"/>
			<stop  offset="0.785" style="stop-color:#F8EE3B"/>
			<stop  offset="0.8264" style="stop-color:#F7EF41"/>
			<stop  offset="1" style="stop-color:#F9ED36"/>
		</radialGradient>
		<ellipse class="st16" cx="45.1" cy="33.7" rx="5.6" ry="4.3"/>
		<path class="st13" d="M48.3,30.4c1.3,0.8,2.1,2,2.1,3.3c0,2.4-2.5,4.3-5.6,4.3c-1.1,0-2.1-0.2-3-0.6c1,0.6,2.2,1,3.5,1
			c3.1,0,5.6-1.9,5.6-4.3C50.9,32.5,49.9,31.1,48.3,30.4z"/>
		<path class="st13" d="M39.4,33.7c0,0.7,0.2,1.3,0.6,1.9c-0.1-0.4-0.3-1.1-0.1-2.1s0.6-1.6,0.8-1.9c1.1-1.5,2.6-2,3.1-2.1
			C41.3,29.9,39.4,31.6,39.4,33.7z"/>
		<path class="st14" d="M46.8,32.5c-0.4-0.2-0.8-0.3-1.3-0.3c-1.4,0-2.5,0.9-2.5,1.9c0,0.6,0.4,1.1,0.9,1.5c0.4,0.2,0.8,0.3,1.3,0.3
			c1.4,0,2.5-0.9,2.5-1.9C47.6,33.4,47.3,32.8,46.8,32.5z M46.5,34c0,0.6-0.6,1-1.3,1c-0.3,0-0.5-0.1-0.7-0.2
			c-0.3-0.2-0.4-0.5-0.4-0.8c0-0.6,0.6-1,1.3-1c0.3,0,0.5,0.1,0.7,0.2C46.3,33.4,46.5,33.6,46.5,34z"/>
		<path class="st15" d="M44.6,33.2v-0.9c-0.4,0.1-0.9,0.3-1.2,0.6l0.8,0.5C44.3,33.4,44.4,33.3,44.6,33.2z"/>
	</g>
	<path class="st17" d="M24.2,46.7c0,0.1,3.3,2.2,7.7,2.4c5.2,0.2,9.3-2.3,9.3-2.4s-1.8,0.7-5,1.2c-1.3,0.2-3.3,0.5-5.6,0.3
		C26.7,47.9,24.2,46.6,24.2,46.7z"/>
	<g>
		<path class="st18" d="M35,38.8c-1.3,0.2-2.8,0.3-4.1,0.5c-0.6,1.6-1.3,3.2-1.9,4.7c2.5,0.1,4.9,0.2,7.4,0.3
			C36,42.5,35.5,40.6,35,38.8z"/>
		<polygon class="st19" points="35,38.8 30.5,38.8 29,43.9 36,43.9 		"/>
	</g>
	<path class="st10" d="M24.4,46.8c0,0.1,3.3,2.2,7.7,2.4c5.2,0.2,9.3-2.3,9.3-2.4s-1.8,0.7-5,1.2c-1.3,0.2-3.3,0.5-5.6,0.3
		C27,48,24.4,46.7,24.4,46.8z"/>
	<g>
		<g>
			<g>
				<g>
					<polygon class="st20" points="42,70.7 41.2,72.8 35.6,72.8 34.7,70.7 34.2,70.7 35.3,72.9 41.5,72.9 42.6,70.7 					"/>
					<polygon class="st21" points="41.2,72.8 42,70.7 34.7,70.7 35.6,72.8 					"/>
				</g>
				<g>
					<polygon class="st22" points="42.1,76.5 41.3,73.3 35.7,73.3 34.8,76.5 34.3,76.5 35.4,73 41.6,73 42.6,76.5 					"/>
					<polygon class="st23" points="41.3,73.3 42.1,76.5 34.8,76.5 35.7,73.3 					"/>
				</g>
				<g>
					<polygon class="st24" points="43.2,78.2 42.1,76.6 34.8,76.6 33.7,78.2 33.1,78.2 34.5,76.4 42.4,76.4 43.8,78.2 					"/>
					<polygon class="st25" points="42.1,76.6 43.2,78.2 33.7,78.2 34.8,76.6 					"/>
				</g>
				<g>
					<polygon class="st26" points="43.8,78.4 43.8,79.4 33.1,79.4 33.1,78.1 43.7,78.1 					"/>
					<polygon class="st24" points="43.8,78.8 43.8,79.3 38.4,79.3 38.4,78.7 43.8,78.7 					"/>
				</g>
			</g>
			<g>
				<g>
					<polygon class="st20" points="22.4,70.8 23.3,72.8 29,72.8 29.9,70.8 30.3,70.8 29.2,73 23.1,73 22,70.8 					"/>
					<polygon class="st21" points="23.3,72.8 22.4,70.8 29.9,70.8 29,72.8 					"/>
				</g>
				<g>
					<polygon class="st22" points="22.3,76.5 23.2,73.3 28.9,73.3 29.8,76.5 30.2,76.5 29.1,73 23,73 21.9,76.5 					"/>
					<polygon class="st23" points="23.2,73.3 22.3,76.5 29.8,76.5 28.9,73.3 					"/>
				</g>
				<g>
					<polygon class="st24" points="21.4,78.2 22.4,76.6 29.7,76.6 30.8,78.2 31.4,78.2 30,76.5 22.1,76.5 20.7,78.2 					"/>
					<polygon class="st25" points="22.4,76.6 21.4,78.2 30.8,78.2 29.7,76.6 					"/>
				</g>
				<g>
					<polygon class="st26" points="20.7,78.4 20.7,79.4 31.4,79.4 31.4,78.2 20.7,78.2 					"/>
					<polygon class="st24" points="20.7,78.9 20.7,79.4 26.1,79.4 26.1,78.8 20.7,78.8 					"/>
				</g>
			</g>
		</g>
		<g>
			<g>
				<polygon class="st27" points="52.6,62.2 49.5,59.9 44.3,62 47.1,64.6 				"/>
				<polygon class="st28" points="44.3,62 44.3,62 49.4,59.8 52.6,62.2 52.1,62.4 49.1,60.1 				"/>
				<polygon class="st29" points="49.5,59.9 40.1,52.8 38,58.3 44.3,62 				"/>
				<polygon class="st30" points="40,52.8 49.4,59.9 49.2,60 39.9,53.3 				"/>
			</g>
			<polygon class="st31" points="58.3,65.4 52.8,61.6 45.9,64.4 51.1,68.4 			"/>
			<polygon class="st32" points="18.3,68.7 18.2,66.2 23.9,58.4 41.5,58.5 45.9,65.2 46.9,69 			"/>
			<g>
				<polygon class="st27" points="11.4,62.5 14.5,60.1 19.7,62.3 16.9,64.9 				"/>
				<polygon class="st28" points="19.6,62.3 19.7,62.2 14.5,60.1 11.4,62.4 11.9,62.6 14.9,60.3 				"/>
				<polygon class="st29" points="14.5,60.1 23.8,53.1 26,58.5 19.7,62.3 				"/>
				<polygon class="st30" points="23.9,53.1 14.6,60.1 14.8,60.2 24.1,53.6 				"/>
			</g>
			
				<radialGradient id="SVGID_5_" cx="-220.705" cy="784.6988" r="14.7256" gradientTransform="matrix(0.9598 0 0 0.5506 244.4156 -371.0038)" gradientUnits="userSpaceOnUse">
				<stop  offset="0" style="stop-color:#68A3D8"/>
				<stop  offset="1" style="stop-color:#436FB5"/>
			</radialGradient>
			<polygon class="st33" points="23.7,53.1 22.9,59.4 18.1,68.6 46.8,69 41.1,59.2 40.6,53 			"/>
			<polygon class="st31" points="5.7,65.7 11.2,61.8 18,64.6 12.9,68.7 			"/>
			<path class="st28" d="M41.2,59.1l-0.6-6.2L23.7,53l-0.8,6.3l-4.7,9.2l28.6,0.3L41.2,59.1z M23.9,59.2l0.7-6.1L40.2,53l0.5,5.9
				l5.3,9.4L19.6,68L23.9,59.2z"/>
			<g>
				<polygon class="st34" points="21.9,63.3 25.3,60.2 25,52.9 38.8,54.9 32.8,59 35.8,59.8 33,62.1 35.1,63.3 20.9,68.3 				"/>
				
					<radialGradient id="SVGID_6_" cx="-224.5305" cy="784.1942" r="11.8783" gradientTransform="matrix(0.9598 0 0 0.5506 244.4156 -371.0038)" gradientUnits="userSpaceOnUse">
					<stop  offset="0" style="stop-color:#B0B0B0"/>
					<stop  offset="1" style="stop-color:#575D65"/>
				</radialGradient>
				<polygon class="st35" points="20.9,63.4 24.3,60.3 24,53 37.8,55 31.7,59.1 34.7,59.8 31.9,62.2 34.1,63.4 19.8,68.4 				"/>
			</g>
			<polygon class="st36" points="18.4,65.9 18.6,68.4 46.6,68.7 45.6,65.1 45.8,64.9 46.8,67.6 47.6,70.7 18.2,70.7 18,67.3 			"/>
			
				<radialGradient id="SVGID_7_" cx="-215.0244" cy="795.4265" r="7.4711" gradientTransform="matrix(0.9501 0 0 0.5683 258.845 -384.5979)" gradientUnits="userSpaceOnUse">
				<stop  offset="0" style="stop-color:#68A3D8"/>
				<stop  offset="1" style="stop-color:#436FB5"/>
			</radialGradient>
			<polygon class="st37" points="18.3,65.9 18.4,68.6 46.8,68.9 45.8,65.1 45.9,64.9 47,67.8 47.7,71 18.1,71 17.8,67.4 			"/>
			<g>
				<g>
					<g>
						<g>
							<path class="st36" d="M8.5,65.3c-0.1,0.2-0.4,0.9,0.1,1.7c0,0,0.6,1,2.4,1.5c0.4,0.1,0.5,0.1,0.7,0s0-0.3,0.3-0.4
								c0.3-0.2,0.7,0,1-0.2s0.2-0.4,0-0.6s-0.4-0.3-0.8-0.5c-0.7-0.4-1-0.9-0.9-0.9c0,0,0.1,0,0.8,0.6c0.9,0.6,1.1,0.8,1.6,0.9
								c0.1,0,0.4,0,0.6-0.1c0.4-0.1,0.5-0.4,0.5-0.6s-0.4-0.4-0.9-0.8c-0.5-0.3-0.7-0.4-0.6-0.5c0.1-0.2,0.6-0.3,1-0.2
								c0.4,0.1,0.3,0.3,0.8,0.5c0.3,0.2,0.6,0.4,1.1,0.4c0.4,0,0.6-0.2,0.8-0.4c0.1-0.2,0.1-0.5-0.5-1.1c-0.9-0.8-1.7-1.5-3-1.6
								C11.4,62.7,9.1,64,8.5,65.3z"/>
						</g>
						<g>
							<g>
								<g>
									<path class="st36" d="M12.1,68c-0.2,0.1-0.1,0.3-0.3,0.4s-0.4,0-0.7,0c-1.8-0.5-2.4-1.5-2.4-1.5c-0.2-0.3-0.3-0.6-0.3-0.9
										c0,0.3,0.1,0.6,0.3,1c0,0,0.6,1,2.4,1.5c0.4,0.1,0.5,0.1,0.7,0S11.8,68.2,12.1,68c0.3-0.1,0.7,0.1,1-0.1
										c0.2-0.1,0.2-0.2,0.2-0.3c0,0.1-0.1,0.2-0.2,0.2C12.8,67.9,12.3,67.8,12.1,68z"/>
								</g>
								<g>
									<path class="st36" d="M14.4,67.1c-0.3,0.1-0.6,0.1-0.6,0.1c-0.4,0-0.7-0.2-1.6-0.9c-0.8-0.6-0.8-0.6-0.8-0.6s0,0,0,0.1
										c0,0,0.2,0.1,0.8,0.6c0.9,0.6,1.1,0.8,1.6,0.9C13.9,67.3,14.1,67.3,14.4,67.1c0.4,0,0.5-0.3,0.5-0.5l0,0
										C14.9,66.8,14.8,67,14.4,67.1z"/>
								</g>
								<g>
									<path class="st36" d="M17,65.6c-0.1,0.2-0.4,0.4-0.8,0.4s-0.8-0.2-1.1-0.4c-0.4-0.3-0.4-0.5-0.8-0.5c-0.4-0.1-0.9,0-1,0.2
										v0.1c0.1-0.1,0.6-0.3,1-0.2c0.4,0.1,0.3,0.3,0.8,0.5c0.3,0.2,0.6,0.4,1.1,0.4C16.6,66.1,16.9,65.9,17,65.6
										c0.1,0,0.1-0.1,0.1-0.2C17.1,65.5,17.1,65.5,17,65.6z"/>
								</g>
								<g>
									<path class="st36" d="M14,65.9c0.6,0.4,0.9,0.6,0.9,0.8v-0.1C14.9,66.3,14.7,66.2,14,65.9c-0.4-0.3-0.5-0.4-0.6-0.5l0,0
										C13.3,65.5,13.5,65.6,14,65.9z"/>
								</g>
								<g>
									<path class="st36" d="M11.4,65.9c-0.1,0,0.2,0.5,0.9,0.9c0.4,0.2,0.6,0.2,0.8,0.5c0.1,0.1,0.1,0.2,0.1,0.3
										c0-0.1,0-0.3-0.1-0.4c-0.2-0.2-0.4-0.3-0.8-0.5C11.7,66.4,11.4,66,11.4,65.9L11.4,65.9z"/>
								</g>
							</g>
						</g>
					</g>
				</g>
				<g>
					<path class="st38" d="M8.5,65.4c-0.1,0.2-0.4,0.9,0.1,1.7c0,0,0.6,1,2.4,1.5c0.4,0.1,0.5,0.1,0.7,0s0-0.3,0.3-0.4
						c0.3-0.2,0.7,0,1-0.2s0.2-0.4,0-0.6s-0.4-0.3-0.8-0.5c-0.7-0.4-1-0.9-0.9-0.9c0,0,0.1,0,0.8,0.6c0.9,0.6,1.1,0.8,1.6,0.9
						c0.1,0,0.4,0,0.6-0.1c0.4-0.1,0.5-0.4,0.5-0.6s-0.4-0.4-0.9-0.8c-0.5-0.3-0.7-0.4-0.6-0.5c0.1-0.2,0.6-0.3,1-0.2
						c0.4,0.1,0.3,0.3,0.8,0.5c0.3,0.2,0.6,0.4,1.1,0.4c0.4,0,0.6-0.2,0.8-0.4c0.1-0.2,0.1-0.5-0.5-1.1c-0.9-0.8-1.7-1.5-3-1.6
						C11.4,62.8,9.1,64.1,8.5,65.4z"/>
					<g>
						<g>
							<g>
								<path class="st39" d="M12.1,68.1c-0.2,0.1-0.1,0.3-0.3,0.4s-0.4,0-0.7,0C9.3,68,8.7,67,8.7,67c-0.2-0.3-0.3-0.6-0.3-0.9
									c0,0.3,0.1,0.6,0.3,1c0,0,0.6,1,2.4,1.5c0.4,0.1,0.5,0.1,0.7,0S11.8,68.3,12.1,68.1c0.3-0.1,0.7,0.1,1-0.1
									c0.2-0.1,0.2-0.2,0.2-0.3c0,0.1-0.1,0.2-0.2,0.2C12.8,68,12.3,67.9,12.1,68.1z"/>
							</g>
							<g>
								<path class="st39" d="M14.4,67.2c-0.3,0.1-0.6,0.1-0.6,0.1c-0.4,0-0.7-0.2-1.6-0.9c-0.8-0.6-0.8-0.6-0.8-0.6s0,0,0,0.1
									c0,0,0.2,0.1,0.8,0.6c0.9,0.6,1.1,0.8,1.6,0.9C13.9,67.4,14.1,67.4,14.4,67.2c0.4,0,0.5-0.3,0.5-0.5l0,0
									C14.9,66.9,14.8,67.1,14.4,67.2z"/>
							</g>
							<g>
								<path class="st39" d="M17.1,65.7c-0.1,0.2-0.4,0.4-0.8,0.4s-0.8-0.2-1.1-0.4c-0.4-0.3-0.4-0.5-0.8-0.5c-0.4-0.1-0.9,0-1,0.2
									v0.1c0.1-0.1,0.6-0.3,1-0.2c0.4,0.1,0.3,0.3,0.8,0.5c0.3,0.2,0.6,0.4,1.1,0.4C16.6,66.2,16.9,66,17.1,65.7
									c0.1,0,0.1-0.1,0.1-0.2C17.1,65.6,17.1,65.6,17.1,65.7z"/>
							</g>
							<g>
								<path class="st39" d="M14,66c0.6,0.4,0.9,0.6,0.9,0.8v-0.1C14.9,66.4,14.7,66.2,14,66c-0.4-0.3-0.5-0.4-0.6-0.5l0,0
									C13.3,65.6,13.5,65.7,14,66z"/>
							</g>
							<g>
								<path class="st39" d="M11.4,65.9c-0.1,0,0.2,0.5,0.9,0.9c0.4,0.2,0.6,0.2,0.8,0.5c0.1,0.1,0.1,0.2,0.1,0.3
									c0-0.1,0-0.3-0.1-0.4c-0.2-0.2-0.4-0.3-0.8-0.5C11.7,66.5,11.4,66.1,11.4,65.9L11.4,65.9z"/>
							</g>
						</g>
					</g>
				</g>
			</g>
			<g>
				<g>
					<g>
						<g>
							<path class="st36" d="M55.5,65.3c0.1,0.2,0.4,0.9-0.1,1.7c0,0-0.6,1-2.4,1.5c-0.4,0.1-0.5,0.1-0.7,0s0-0.3-0.3-0.4
								c-0.3-0.2-0.7,0-1-0.2s-0.2-0.4,0-0.6s0.4-0.3,0.8-0.5c0.7-0.4,1-0.9,0.9-0.9c0,0-0.1,0-0.8,0.6c-0.9,0.6-1.1,0.8-1.6,0.9
								c-0.1,0-0.4,0-0.6-0.1c-0.4-0.1-0.5-0.4-0.5-0.6s0.4-0.4,0.9-0.8c0.5-0.3,0.7-0.4,0.6-0.5c-0.1-0.2-0.6-0.3-1-0.2
								c-0.4,0.1-0.3,0.3-0.8,0.5c-0.3,0.2-0.6,0.4-1.1,0.4c-0.4,0-0.6-0.2-0.8-0.4c-0.1-0.2-0.1-0.5,0.5-1.1c0.9-0.8,1.7-1.5,3-1.6
								C52.7,62.7,54.9,64,55.5,65.3z"/>
						</g>
						<g>
							<g>
								<g>
									<path class="st36" d="M51.9,68c0.2,0.1,0.1,0.3,0.3,0.4s0.4,0,0.7,0c1.8-0.5,2.4-1.5,2.4-1.5c0.2-0.3,0.3-0.6,0.3-0.9
										c0,0.3-0.1,0.6-0.3,1c0,0-0.6,1-2.4,1.5c-0.4,0.1-0.5,0.1-0.7,0S52.2,68.2,51.9,68c-0.3-0.1-0.7,0.1-1-0.1
										c-0.2-0.1-0.2-0.2-0.2-0.3c0,0.1,0.1,0.2,0.2,0.2C51.2,67.9,51.7,67.8,51.9,68z"/>
								</g>
								<g>
									<path class="st36" d="M49.6,67.1c0.3,0.1,0.6,0.1,0.6,0.1c0.4,0,0.7-0.2,1.6-0.9c0.8-0.6,0.8-0.6,0.8-0.6s0,0,0,0.1
										c0,0-0.2,0.1-0.8,0.6c-0.9,0.6-1.1,0.8-1.6,0.9C50.2,67.3,49.9,67.3,49.6,67.1c-0.4,0-0.5-0.3-0.5-0.5l0,0
										C49.1,66.8,49.3,67,49.6,67.1z"/>
								</g>
								<g>
									<path class="st36" d="M46.9,65.6c0.1,0.2,0.4,0.4,0.8,0.4s0.8-0.2,1.1-0.4c0.4-0.3,0.4-0.5,0.8-0.5c0.4-0.1,0.9,0,1,0.2
										v0.1c-0.1-0.1-0.6-0.3-1-0.2c-0.4,0.1-0.3,0.3-0.8,0.5c-0.3,0.2-0.6,0.4-1.1,0.4C47.4,66.1,47.1,65.9,46.9,65.6
										c-0.1,0-0.1-0.1-0.1-0.2C46.9,65.5,46.9,65.5,46.9,65.6z"/>
								</g>
								<g>
									<path class="st36" d="M50,65.9c-0.6,0.4-0.9,0.6-0.9,0.8v-0.1C49.1,66.3,49.3,66.2,50,65.9c0.4-0.3,0.5-0.4,0.6-0.5l0,0
										C50.7,65.5,50.5,65.6,50,65.9z"/>
								</g>
								<g>
									<path class="st36" d="M52.7,65.9c0.1,0-0.2,0.5-0.9,0.9C51.4,67,51.2,67,51,67.3c-0.1,0.1-0.1,0.2-0.1,0.3
										c0-0.1,0-0.3,0.1-0.4c0.2-0.2,0.4-0.3,0.8-0.5C52.2,66.4,52.6,66,52.7,65.9L52.7,65.9z"/>
								</g>
							</g>
						</g>
					</g>
				</g>
				<g>
					<path class="st38" d="M55.5,65.4c0.1,0.2,0.4,0.9-0.1,1.7c0,0-0.6,1-2.4,1.5c-0.4,0.1-0.5,0.1-0.7,0s0-0.3-0.3-0.4
						c-0.3-0.2-0.7,0-1-0.2s-0.2-0.4,0-0.6s0.4-0.3,0.8-0.5c0.7-0.4,1-0.9,0.9-0.9c0,0-0.1,0-0.8,0.6c-0.9,0.6-1.1,0.8-1.6,0.9
						c-0.1,0-0.4,0-0.6-0.1c-0.4-0.1-0.5-0.4-0.5-0.6s0.4-0.4,0.9-0.8c0.5-0.3,0.7-0.4,0.6-0.5c-0.1-0.2-0.6-0.3-1-0.2
						c-0.4,0.1-0.3,0.3-0.8,0.5c-0.3,0.2-0.6,0.4-1.1,0.4c-0.4,0-0.6-0.2-0.8-0.4c-0.1-0.2-0.1-0.5,0.5-1.1c0.9-0.8,1.7-1.5,3-1.6
						C52.7,62.8,54.9,64.1,55.5,65.4z"/>
					<g>
						<g>
							<g>
								<path class="st39" d="M51.9,68.1c0.2,0.1,0.1,0.3,0.3,0.4s0.4,0,0.7,0c1.8-0.5,2.4-1.5,2.4-1.5c0.2-0.3,0.3-0.6,0.3-0.9
									c0,0.3-0.1,0.6-0.3,1c0,0-0.6,1-2.4,1.5c-0.4,0.1-0.5,0.1-0.7,0S52.2,68.3,51.9,68.1c-0.3-0.1-0.7,0.1-1-0.1
									c-0.2-0.1-0.2-0.2-0.2-0.3c0,0.1,0.1,0.2,0.2,0.2C51.2,68,51.7,67.9,51.9,68.1z"/>
							</g>
							<g>
								<path class="st39" d="M49.6,67.2c0.3,0.1,0.6,0.1,0.6,0.1c0.4,0,0.7-0.2,1.6-0.9c0.8-0.6,0.8-0.6,0.8-0.6s0,0,0,0.1
									c0,0-0.2,0.1-0.8,0.6c-0.9,0.6-1.1,0.8-1.6,0.9C50.2,67.4,49.9,67.4,49.6,67.2c-0.4,0-0.5-0.3-0.5-0.5l0,0
									C49.1,66.9,49.3,67.1,49.6,67.2z"/>
							</g>
							<g>
								<path class="st39" d="M46.9,65.7c0.1,0.2,0.4,0.4,0.8,0.4s0.8-0.2,1.1-0.4c0.4-0.3,0.4-0.5,0.8-0.5c0.4-0.1,0.9,0,1,0.2v0.1
									c-0.1-0.1-0.6-0.3-1-0.2c-0.4,0.1-0.3,0.3-0.8,0.5c-0.3,0.2-0.6,0.4-1.1,0.4C47.4,66.2,47.1,66,46.9,65.7
									c-0.1,0-0.1-0.1-0.1-0.2C46.9,65.6,46.9,65.6,46.9,65.7z"/>
							</g>
							<g>
								<path class="st39" d="M50,66c-0.6,0.4-0.9,0.6-0.9,0.8v-0.1C49.1,66.4,49.3,66.2,50,66c0.4-0.3,0.5-0.4,0.6-0.5l0,0
									C50.7,65.6,50.5,65.7,50,66z"/>
							</g>
							<g>
								<path class="st39" d="M52.7,65.9c0.1,0-0.2,0.5-0.9,0.9C51.4,67,51.2,67,51,67.3c-0.1,0.1-0.1,0.2-0.1,0.3
									c0-0.1,0-0.3,0.1-0.4c0.2-0.2,0.4-0.3,0.8-0.5C52.2,66.5,52.6,66.1,52.7,65.9L52.7,65.9z"/>
							</g>
						</g>
					</g>
				</g>
			</g>
			<polygon class="st34" points="40.6,53.2 40.6,53 40.3,53 40,52.8 40,52.9 40,52.8 40,53 26,53.1 24.9,52.9 24.9,53.1 24.5,53.1 
				23.9,53 24,53.1 23.9,53.1 23.9,53.1 23.9,53.1 23.8,53.1 23.8,53.1 23.8,53.1 23.7,53.1 23.7,53.1 23.6,53.1 23.6,53.2 
				21.1,55.1 43.1,55.1 			"/>
		</g>
		<polygon class="st34" points="40.4,53.1 40.4,52.9 40,52.9 39.9,52.7 39.9,52.8 39.9,52.7 39.9,52.7 39.8,52.7 39.8,52.8 
			39.8,52.7 39.7,52.9 26.2,53 25.2,52.8 25.2,52.8 25.1,52.8 25.1,53 24.8,53 24.2,52.9 24.2,52.9 24.1,52.9 24.1,53 24.1,53 
			24.1,53 24.1,53 24,53 24,53 24,53 24,53 24,53 24,53 24,53 24,53 24,53 24,53 24,53 24,53 24,53 23.9,53 23.9,53 23.9,53 
			23.9,53.1 21.4,55 21.5,55 18.2,57.5 46,57.5 		"/>
	</g>
</g>
</svg>
