<?xml version="1.0" encoding="utf-8"?>
<!-- Generator: Adobe Illustrator 21.1.0, SVG Export Plug-In . SVG Version: 6.00 Build 0)  -->
<svg version="1.1" id="Layer_1" xmlns="http://www.w3.org/2000/svg" xmlns:xlink="http://www.w3.org/1999/xlink" x="0px" y="0px"
	 viewBox="0 0 110 275" style="enable-background:new 0 0 110 275;" xml:space="preserve">
<style type="text/css">
	.st0{opacity:0.1;enable-background:new    ;}
	.st1{fill:url(#SVGID_1_);}
	.st2{fill:#BD9132;}
</style>
<g>
	<path class="st0" d="M106.1,245.9c1.1,7.6-24.3,26.3-51.3,26.1c-28.4-0.2-52.4-21.3-51.3-26.1c0.3-1.5,2.8-0.9,7.6-4.1
		c5-3.3,7.6-7.6,9.1-9.4c8.1-10.9,24.4-11.9,34.6-12.5c10.5-0.6,16.1-0.9,22.6,2.9c6.9,4.1,8.4,9,19.6,16.6
		C103.9,244,105.8,244,106.1,245.9z"/>
	<path class="st0" d="M106.5,29.1C107.6,21.5,82.2,2.8,55.2,3C26.8,3.2,2.8,24.3,3.9,29.1c0.3,1.5,2.8,0.9,7.6,4.1
		c5,3.3,7.6,7.6,9.1,9.4C28.7,53.5,45,54.5,55.2,55.1c10.5,0.6,16.1,0.9,22.6-2.9c6.9-4.1,8.4-9,19.6-16.6
		C104.2,31.1,106.2,31.3,106.5,29.1z"/>
	<g>
		
			<radialGradient id="SVGID_1_" cx="-27.094" cy="1268.1429" r="85.6064" gradientTransform="matrix(0.8595 0 0 -1.0677 78.4382 1491.7963)" gradientUnits="userSpaceOnUse">
			<stop  offset="0" style="stop-color:#A6951F"/>
			<stop  offset="1" style="stop-color:#A37C2A"/>
		</radialGradient>
		<path class="st1" d="M92.6,258.4H17.7c4-35.4,6.8-76.7,6.6-122.8c-0.1-44.2-2.9-84-6.6-118.4c24.9,0,49.9,0,74.8,0
			c-3.9,37.7-6.6,81.3-6.2,129.6C86.6,188.1,89.1,225.4,92.6,258.4z"/>
		<path class="st0" d="M27.1,17.3c-3,0-5.9,0-9,0c4.7,34.3,8.1,74.1,8.3,118.4c0.1,46-3.4,87.4-8.3,122.8h9.4
			c4.7-35.2,8-76,7.9-121.2C35.2,92.3,31.8,52.1,27.1,17.3z"/>
		<path class="st0" d="M85,17.3c3,0,5.9,0,9,0c-4.7,34.3-8.1,74.1-8.3,118.4c-0.1,46,3.4,87.4,8.3,122.8h-9.4
			c-4.7-35.2-8-76-7.9-121.2C77,92.3,80.3,52.1,85,17.3z"/>
		<path class="st2" d="M86.4,17.3c2.3,0,4.8,0,7.2,0C89.7,51.6,87,91.4,87,135.7c-0.1,46,2.8,87.4,6.6,122.8H86
			c-3.7-35.2-6.3-76-6.3-121.2C79.8,92.3,82.5,52.1,86.4,17.3z"/>
		<path class="st2" d="M25.2,17.3c-2.3,0-4.8,0-7.2,0c3.9,34.3,6.6,74.1,6.6,118.4c0.1,46-2.8,87.4-6.6,122.8h7.6
			c3.7-35.2,6.3-76,6.3-121.2C31.7,92.3,28.9,52.1,25.2,17.3z"/>
	</g>
</g>
</svg>
