<?xml version="1.0" encoding="utf-8"?>
<!-- Generator: Adobe Illustrator 21.1.0, SVG Export Plug-In . SVG Version: 6.00 Build 0)  -->
<svg version="1.1" id="Layer_1" xmlns="http://www.w3.org/2000/svg" xmlns:xlink="http://www.w3.org/1999/xlink" x="0px" y="0px"
	 viewBox="0 0 60 61" style="enable-background:new 0 0 60 61;" xml:space="preserve">
<style type="text/css">
	.st0{fill:#1D771D;}
	.st1{fill:url(#SVGID_1_);}
	.st2{opacity:0.5;fill:#FFFFFF;enable-background:new    ;}
	.st3{opacity:0.5;fill:#595B59;enable-background:new    ;}
</style>
<g>
	<path class="st0" d="M1.6,33.5c0.5-0.7,1.1-1.5,1.8-2.3c0.9-1,1.8-1.8,2.7-2.4c1.3-0.3,2.5-0.6,3.8-1c0.3,0.1,0.8,0.2,1.3,0.4
		c2.2,0.9,3.3,3,4.4,5.2c0.5,1.1,1.2,2.6,1.7,4.4c3.3-5.1,7.5-10.8,12.9-16.6c8.5-9.2,17.3-15.6,24.3-20c0.9-0.1,1.9-0.3,2.8-0.4
		c-6,6.1-12.2,12.7-18.4,20c-7.3,8.5-13.7,16.8-19.4,24.7C13.6,41.5,7.6,37.5,1.6,33.5z"/>
	
		<linearGradient id="SVGID_1_" gradientUnits="userSpaceOnUse" x1="1.6" y1="1185.65" x2="58.5998" y2="1185.65" gradientTransform="matrix(1 0 0 -1 0 1212)">
		<stop  offset="0.3472" style="stop-color:#009409"/>
		<stop  offset="0.6788" style="stop-color:#44B549"/>
	</linearGradient>
	<path class="st1" d="M1.6,33.5c0.7-0.8,1.9-1.9,3.5-2.9s3.1-1.4,4.1-1.7c1.1,0.7,2.4,1.7,3.7,3.1c2.5,2.7,3.6,5.6,4.1,7.4
		c4.2-6.1,9.8-13.2,17.2-20.4c8.3-8.1,16.4-14,23.2-18.3c0.4,0.8,0.8,1.6,1.3,2.4c-2.1,1.6-4.9,3.8-8.1,6.7c-2.2,2-6.4,6-12.1,12.9
		C34.1,28.1,28,36.1,21.6,47c-2.4,1.7-4.8,3.4-7.2,5c-1-2-1.8-3.7-2.5-5c-3.7-7.2-5-8.9-6.3-10.3C4,35.2,2.5,34.1,1.6,33.5z"/>
	<ellipse class="st2" cx="16.4" cy="55.7" rx="14.3" ry="3.8"/>
	<ellipse class="st3" cx="16.4" cy="55.7" rx="5.7" ry="1.5"/>
</g>
</svg>
