<?xml version="1.0" encoding="utf-8"?>
<!-- Generator: Adobe Illustrator 21.1.0, SVG Export Plug-In . SVG Version: 6.00 Build 0)  -->
<svg version="1.1" id="Layer_1" xmlns="http://www.w3.org/2000/svg" xmlns:xlink="http://www.w3.org/1999/xlink" x="0px" y="0px"
	 viewBox="0 0 119 185" style="enable-background:new 0 0 119 185;" xml:space="preserve">
<style type="text/css">
	.st0{opacity:0.15;enable-background:new    ;}
	.st1{fill:url(#SVGID_1_);}
	.st2{fill:url(#SVGID_2_);}
	.st3{opacity:0.321;fill:#7A410E;stroke:#7A410E;stroke-width:0.5;stroke-miterlimit:10;enable-background:new    ;}
	.st4{opacity:0.2;fill:#7A410E;enable-background:new    ;}
	.st5{opacity:0.321;fill:#7A410E;enable-background:new    ;}
	.st6{fill:url(#SVGID_3_);}
	.st7{opacity:0.3;fill:#7A410E;enable-background:new    ;}
	.st8{fill:url(#SVGID_4_);}
	.st9{fill:#FFFFFF;}
	.st10{fill:#62B446;}
	.st11{fill:#77C04C;}
	.st12{fill:#60A845;}
	.st13{fill:#81C354;}
	.st14{fill:#F9ED36;}
	.st15{fill:#D3C43C;}
	.st16{fill:url(#SVGID_5_);}
	.st17{fill:#B7A737;}
	.st18{fill:url(#SVGID_6_);}
	.st19{fill:#2A8C43;}
	.st20{fill:#5EBB47;}
	.st21{fill:url(#SVGID_7_);}
	.st22{fill:#D7CD29;}
	.st23{fill:#1F1A10;}
	.st24{opacity:0.1;fill:#FFFFFF;enable-background:new    ;}
	.st25{fill:url(#SVGID_8_);}
	.st26{opacity:0.5;fill:#66A83B;stroke:#87CC5A;stroke-width:0.7579;stroke-miterlimit:10;enable-background:new    ;}
	.st27{opacity:0.5;fill:#2A8C43;enable-background:new    ;}
	.st28{fill:#EDEA57;}
</style>
<g>
	<g>
		<path class="st0" d="M93.9,117.6c-2.9-7.3-8.3-21.8-8.3-21.8h-0.2c-0.3-1-1-2-2-2.6c0.1,0.2,0.2,0.3,0.2,0.5c-0.9-1-2.4-1.6-4-1.5
			c-20.5,3-41.2,2.7-61.7,0c-1.7-0.4-3.2,0.3-4.2,1.5c-0.7,0.7-1.2,1.7-1.3,2.8c-1.2,3-5.9,14.7-8.6,20.4c-1,2.1-1.9,4.8-1.9,7.3
			v46.6c0,4.5,3.8,7.6,8.3,8.2c25.5,3.9,51.6,3.3,77.7,0c4.5-0.6,8.3-3.6,8.3-8.2v-46.6C96.1,122.5,94.5,119.4,93.9,117.6z"/>
		<g>
			
				<linearGradient id="SVGID_1_" gradientUnits="userSpaceOnUse" x1="451.4604" y1="1694.9178" x2="393.7336" y2="1712.1185" gradientTransform="matrix(1.004 0 0 -1.1075 -405.2947 2000.8649)">
				<stop  offset="0" style="stop-color:#FFB815"/>
				<stop  offset="0.3" style="stop-color:#FF9F15"/>
				<stop  offset="0.5" style="stop-color:#CB8215"/>
				<stop  offset="0.7" style="stop-color:#FF9F15"/>
				<stop  offset="1" style="stop-color:#FFB815"/>
			</linearGradient>
			<path class="st1" d="M13.2,82h72.1c0,0,5.3,14.5,8.2,21.8c0.6,1.8,2.2,4.8,2.2,6.7v46.6c0,4.5-3.8,7.6-8.2,8.2
				c-25.8,3.3-51.6,3.9-76.8,0c-4.4-0.6-8.2-3.6-8.2-8.2v-46.6c0-2.4,0.9-5.1,1.9-7.3C7.5,96.5,13.2,82,13.2,82L13.2,82z"/>
			
				<linearGradient id="SVGID_2_" gradientUnits="userSpaceOnUse" x1="416.5287" y1="1708.5774" x2="488.833" y2="1708.5774" gradientTransform="matrix(1.004 0 0 -1.1075 -405.2947 2000.8649)">
				<stop  offset="0" style="stop-color:#FF8315"/>
				<stop  offset="1" style="stop-color:#FFCA00"/>
			</linearGradient>
			<path class="st2" d="M18.2,78.7c20.5,2.7,41.2,3,61.7,0c3.1-0.3,5.3,2.1,5.3,4.5v48.7c0,2.4-2.2,3.6-5.3,4.5
				c-20.5,3-41.2,3-61.7,0c-3.1-0.3-5.3-2.1-5.3-4.5V83.2C12.9,80.5,15.4,78,18.2,78.7z"/>
			<g>
				<path class="st3" d="M13.2,82v5.7l-0.6,44.2c0,2.4,2.2,3.6,5.3,4.5c20.8,3,42.2,3,62.9,0c3.1-0.3,5-2.1,5-4.5V87.7l-0.3-4.8
					v48.7c0,2.4-1.3,3.6-4.4,4.5c-20.5,3-41.8,2.7-62.3-0.6c-3.1-0.3-5.3-2.1-5.3-4.5L13.2,82z"/>
			</g>
			<polygon class="st4" points="50.2,87.6 60.4,100.7 83.3,102.9 66.8,113.2 70.7,127.7 50.2,120.8 29.7,127.7 33.7,113.2 
				17.1,102.9 39.9,100.7 			"/>
			<path class="st5" d="M94.2,104.1c-2.9-7.3-8.3-21.8-8.3-21.8h-0.2c-0.3-1-1-2-2-2.6c0.2,0.3,0.3,0.6,0.4,1h0.2
				c0,0,5.1,14.4,7.8,21.5c0.6,1.8,2.1,4.8,2.1,6.6v46.1c0,4.5-3.6,7.5-7.8,8.1c-24.7,3.3-49.4,3.9-73.5,0c-4.2-0.6-7.8-3.6-7.8-8.1
				v-46.1c0-2.4,0.9-5.1,1.8-7.2c2.6-5.7,7-17.2,8.2-20.2c0.1-0.9,0.4-1.7,0.9-2.4c-1.8,0.5-3.1,2.1-3.3,4c-1.2,3-5.9,14.7-8.6,20.4
				c-1,2.1-1.9,4.8-1.9,7.3v46.6c0,4.5,3.8,7.6,8.3,8.2c25.5,3.9,51.6,3.3,77.7,0c4.5-0.6,8.3-3.6,8.3-8.2v-46.6
				C96.4,109,94.8,105.9,94.2,104.1z"/>
		</g>
	</g>
	<ellipse class="st4" cx="49.6" cy="111.9" rx="11.9" ry="4.6"/>
	<g>
		<g>
			
				<linearGradient id="SVGID_3_" gradientUnits="userSpaceOnUse" x1="41.7661" y1="119.8981" x2="57.9661" y2="119.8981" gradientTransform="matrix(1 0 0 -1 0 186)">
				<stop  offset="0" style="stop-color:#FF8315"/>
				<stop  offset="0.3472" style="stop-color:#FFCA00"/>
				<stop  offset="0.7383" style="stop-color:#FFAA0A"/>
				<stop  offset="1" style="stop-color:#FF8814"/>
			</linearGradient>
			<path class="st6" d="M58,110.6c-1.1,0.8-3.9,2.5-7.8,2.6c-4.2,0.1-7.3-1.8-8.3-2.6c0-30.5,0-61,0-91.6c1.1,0.8,3.7,2.4,7.4,2.6
				c4.5,0.2,7.7-1.8,8.8-2.6C58,49.5,58,80.1,58,110.6z"/>
			<path class="st7" d="M49.9,39c-3.3,0-6.1-0.7-7.9-1.4c0,1.2,0,2.4,0,3.6c1.9,0.7,4.6,1.5,7.9,1.4c3.6-0.1,6.5-1,8.2-1.8
				c0-1.2,0-2.4,0-3.6C56.3,38,53.5,38.9,49.9,39z"/>
			<path class="st7" d="M49.9,58.1c-3.3,0-6.1-0.7-7.9-1.4c0,1.2,0,2.4,0,3.6c1.9,0.7,4.6,1.5,7.9,1.4c3.6-0.1,6.5-1,8.2-1.8
				c0-1.2,0-2.4,0-3.6C56.3,57.1,53.5,58.1,49.9,58.1z"/>
			<path class="st7" d="M49.9,76.6c-3.3,0-6.1-0.7-7.9-1.4c0,1.2,0,2.4,0,3.6c1.9,0.7,4.6,1.5,7.9,1.4c3.6-0.1,6.5-1,8.2-1.8
				c0-1.2,0-2.4,0-3.6C56.3,75.6,53.5,76.5,49.9,76.6z"/>
			<path class="st7" d="M49.9,109.5c-3.3,0-6.1-0.7-7.9-1.4c0,1.2,0,2.4,0,3.6c1.9,0.7,4.6,1.5,7.9,1.4c3.6-0.1,6.5-1,8.2-1.8
				c0-1.2,0-2.4,0-3.6C56.3,108.5,53.5,109.5,49.9,109.5z"/>
			<path class="st7" d="M49.9,94.7c-3.3,0-6.1-0.7-7.9-1.4c0,1.2,0,2.4,0,3.6c1.9,0.7,4.6,1.5,7.9,1.4c3.6-0.1,6.5-1,8.2-1.8
				c0-1.2,0-2.4,0-3.6C56.3,93.7,53.5,94.7,49.9,94.7z"/>
		</g>
		
			<linearGradient id="SVGID_4_" gradientUnits="userSpaceOnUse" x1="41.2" y1="156.0519" x2="115.5" y2="156.0519" gradientTransform="matrix(1 0 0 -1 0 186)">
			<stop  offset="0.3472" style="stop-color:#009409"/>
			<stop  offset="0.6788" style="stop-color:#44B549"/>
		</linearGradient>
		<path class="st8" d="M115.2,57.2c-27.5-1.6-38.1-1.5-42.4-0.9C72,56.4,69,56.8,65,57.1c-2.8,0.2-5.4,0.3-8.9,0.4
			c-0.6,0-1.4,0-2.4,0c-1.8,0-4.2-0.2-7.1-0.8c-2.1-0.4-3.8-0.9-4.9-1.2c0-8.2,0-16.4-0.1-24.7c-0.1-9-0.2-18-0.4-26.8
			c14-2.1,25.1-1.8,32.8-1c4.5,0.4,6.7,0.9,11.7,1.3c12.7,1.2,23,0.5,29.8-0.3C115.4,21.8,115.3,39.5,115.2,57.2z"/>
		<g>
			<circle class="st9" cx="78.2" cy="29.7" r="21.1"/>
			<g>
				<path class="st10" d="M86.8,18.2c-3,0-6,0.1-9,0.1s-5.9,0.1-8.9,0.1c-0.2,0.3-0.6,0.7-0.8,1.1c-0.2,0.4-0.5,0.8-0.6,1.2
					c0,2.1,0,4.2,0,6.3c0.6,2.5,1.2,5,1.8,7.6c0.7,0.7,1.4,1.4,2.1,2.1c4.8,0,9.5-0.1,14.4-0.1c0.5-0.7,1-1.5,1.5-2.2
					c0.5-2.4,0.9-4.7,1.3-7.1v-6.9c-0.2-0.3-0.4-0.7-0.7-1C87.4,18.9,87.1,18.5,86.8,18.2z"/>
				<path class="st11" d="M86,24c-2.6-0.1-5.3-0.2-8-0.3c-2.7,0.2-5.4,0.3-8.1,0.5c-0.7,1.2-1.5,2.4-2.2,3.6
					c0.8,3.6,1.7,7.3,2.5,10.9c0.1,0.3,0.3,0.7,0.6,1c0.5,0.5,0.9,0.8,1.2,0.9c4.3,0,8.6,0,12.9-0.1c0.2-0.1,0.6-0.3,1-0.9
					c0.3-0.5,0.4-1,0.4-1.2c0.7-3.8,1.5-7.6,2.2-11.5C87.7,26.1,86.9,25,86,24z"/>
				<polygon class="st12" points="69.2,18.4 69.7,24 86.1,23.9 86.7,18.2 				"/>
				<path class="st13" d="M88.6,27.1c-0.2-0.5-0.6-1-1.1-1.6C87,24.8,86.4,24.3,86,24c-2.5-0.2-5.1-0.4-7.9-0.3
					c-2.7,0.2-5.4,0.3-8.1,0.5c-0.3,0.2-0.9,0.7-1.4,1.5s-0.7,1.6-0.7,2c6.9-0.1,13.8-0.3,20.7-0.4C88.6,27.3,88.6,27.2,88.6,27.1z"
					/>
				<polygon class="st14" points="67.4,23.8 69.6,21.2 86.4,21.2 88.6,24.3 88.6,25.8 88.6,27.1 89.4,24.3 89.2,22.1 86.6,19.6 
					69.3,19.6 67.4,21.7 66.7,22.5 66.7,23.8 67.5,27 				"/>
				<polygon class="st15" points="69.5,21.3 86.3,21.3 88.5,24.4 88.5,25.9 88.5,27.2 89,25.4 88.8,23.3 86.3,20.8 69.5,20.8 
					67.7,22.8 67,23.7 66.9,25 67.4,26.8 67.3,23.8 				"/>
				<g>
					
						<radialGradient id="SVGID_5_" cx="3704.5493" cy="598.649" r="1.6458" gradientTransform="matrix(-0.9598 0 0 1.1371 3622.9226 -652.4058)" gradientUnits="userSpaceOnUse">
						<stop  offset="0" style="stop-color:#F1FF81"/>
						<stop  offset="1" style="stop-color:#D3BA37"/>
					</radialGradient>
					<path class="st16" d="M67.7,26.1c-0.4-0.2-0.8-0.3-1.1,0c-0.3,0.2-0.3,0.6-0.2,0.6c0,0.5,0.1,1,0.2,1.5s0.2,1,0.2,1.5
						s0.3,0.9,0.7,1c0.5,0.2,0.8-0.2,0.9-0.2C68.1,29,67.9,27.5,67.7,26.1z"/>
					<path class="st17" d="M66.6,29.4c-0.1-0.4-0.1-0.9-0.2-1.4c0-0.5-0.1-1-0.2-1.4c0,0,0-0.3,0.1-0.4c0.2,0.2,0.3,1,0.4,2
						c0.1,0.9,0.1,1.7,0,2C66.7,30,66.7,29.7,66.6,29.4z"/>
				</g>
				<g>
					
						<radialGradient id="SVGID_6_" cx="-163.215" cy="598.8937" r="1.6475" gradientTransform="matrix(0.9598 0 0 1.1371 245.5412 -652.4058)" gradientUnits="userSpaceOnUse">
						<stop  offset="0" style="stop-color:#F1FF81"/>
						<stop  offset="1" style="stop-color:#D3BA37"/>
					</radialGradient>
					<path class="st18" d="M88.6,26.4c0.4-0.2,0.8-0.3,1.1,0C90,26.6,90,27,89.9,27c0,0.5-0.1,1-0.2,1.5c-0.1,0.5-0.2,1-0.2,1.5
						s-0.3,0.9-0.7,1c-0.5,0.2-0.8-0.2-0.9-0.2C88.1,29.2,88.3,27.8,88.6,26.4z"/>
					<path class="st17" d="M89.6,29.7c0.1-0.4,0.1-0.9,0.2-1.4c0-0.5,0.1-1,0.2-1.4c0,0,0-0.3-0.1-0.4c-0.2,0.2-0.3,1-0.4,2
						c-0.1,0.9-0.1,1.7,0,2C89.5,30.3,89.5,30,89.6,29.7z"/>
				</g>
				<g>
					<g>
						<ellipse class="st19" cx="73.5" cy="32" rx="2.8" ry="2.4"/>
						<ellipse class="st20" cx="73.4" cy="32" rx="2.7" ry="2.3"/>
					</g>
					
						<radialGradient id="SVGID_7_" cx="-179.365" cy="601.9085" r="1.9927" gradientTransform="matrix(0.9598 0 0 1.1371 245.5412 -652.4058)" gradientUnits="userSpaceOnUse">
						<stop  offset="7.772021e-02" style="stop-color:#E2FFB3"/>
						<stop  offset="0.785" style="stop-color:#F8EE3B"/>
						<stop  offset="0.8264" style="stop-color:#F7EF41"/>
						<stop  offset="1" style="stop-color:#F9ED36"/>
					</radialGradient>
					<ellipse class="st21" cx="73.4" cy="32" rx="2.2" ry="1.9"/>
					<path class="st22" d="M74.6,30.6c0.5,0.3,0.8,0.9,0.8,1.4c0,1-1,1.9-2.2,1.9c-0.4,0-0.8-0.1-1.2-0.3c0.4,0.3,0.9,0.4,1.4,0.4
						c1.2,0,2.2-0.8,2.2-1.9C75.7,31.5,75.3,30.9,74.6,30.6z"/>
					<path class="st22" d="M71.2,32c0,0.3,0.1,0.6,0.2,0.8c0-0.2-0.1-0.5,0-0.9s0.2-0.7,0.3-0.8c0.4-0.7,1-0.9,1.2-0.9
						C71.9,30.4,71.2,31.1,71.2,32z"/>
					<path class="st23" d="M74,31.5c-0.2-0.1-0.3-0.1-0.5-0.1c-0.6,0-1,0.4-1,0.8c0,0.3,0.2,0.5,0.4,0.7c0.2,0.1,0.3,0.1,0.5,0.1
						c0.6,0,1-0.4,1-0.8C74.4,31.8,74.3,31.6,74,31.5z M74,32.1c0,0.3-0.2,0.4-0.5,0.4c-0.1,0-0.2,0-0.3-0.1S73,32.2,73,32.1
						c0-0.3,0.2-0.4,0.5-0.4c0.1,0,0.2,0,0.3,0.1C73.9,31.8,74,32,74,32.1z"/>
					<path class="st24" d="M73.2,31.8v-0.4c-0.2,0-0.4,0.1-0.5,0.3l0.3,0.2C73.1,31.8,73.1,31.8,73.2,31.8z"/>
				</g>
				<g>
					<g>
						<ellipse class="st19" cx="83.3" cy="32.1" rx="2.8" ry="2.4"/>
						<ellipse class="st20" cx="83.3" cy="32.1" rx="2.7" ry="2.3"/>
					</g>
					
						<radialGradient id="SVGID_8_" cx="-169.0878" cy="601.9891" r="1.9927" gradientTransform="matrix(0.9598 0 0 1.1371 245.5412 -652.4058)" gradientUnits="userSpaceOnUse">
						<stop  offset="7.772021e-02" style="stop-color:#E2FFB3"/>
						<stop  offset="0.785" style="stop-color:#F8EE3B"/>
						<stop  offset="0.8264" style="stop-color:#F7EF41"/>
						<stop  offset="1" style="stop-color:#F9ED36"/>
					</radialGradient>
					<ellipse class="st25" cx="83.3" cy="32.1" rx="2.2" ry="1.9"/>
					<path class="st22" d="M84.5,30.7c0.5,0.3,0.8,0.9,0.8,1.4c0,1-1,1.9-2.2,1.9c-0.4,0-0.8-0.1-1.2-0.3c0.4,0.3,0.9,0.4,1.4,0.4
						c1.2,0,2.2-0.8,2.2-1.9C85.6,31.6,85.2,31,84.5,30.7z"/>
					<path class="st22" d="M81,32.1c0,0.3,0.1,0.6,0.2,0.8c0-0.2-0.1-0.5,0-0.9s0.2-0.7,0.3-0.8c0.4-0.7,1-0.9,1.2-0.9
						C81.8,30.4,81,31.2,81,32.1z"/>
					<path class="st23" d="M83.9,31.6c-0.2-0.1-0.3-0.1-0.5-0.1c-0.6,0-1,0.4-1,0.8c0,0.3,0.2,0.5,0.4,0.7c0.2,0.1,0.3,0.1,0.5,0.1
						c0.6,0,1-0.4,1-0.8C84.3,32,84.1,31.7,83.9,31.6z M83.8,32.2c0,0.3-0.2,0.4-0.5,0.4c-0.1,0-0.2,0-0.3-0.1s-0.2-0.2-0.2-0.3
						c0-0.3,0.2-0.4,0.5-0.4c0.1,0,0.2,0,0.3,0.1C83.7,32,83.8,32,83.8,32.2z"/>
					<path class="st24" d="M83.1,31.9v-0.4c-0.2,0-0.4,0.1-0.5,0.3l0.3,0.2C83,32,83,31.9,83.1,31.9z"/>
				</g>
				<path class="st26" d="M75,37.7c0,0,1.3,1,3,1c2.1,0.1,3.7-1,3.7-1s-0.7,0.3-2,0.5c-0.5,0.1-1.3,0.2-2.2,0.1
					C76,38.3,75,37.7,75,37.7z"/>
				<g>
					<path class="st27" d="M79.3,34.3c-0.5,0.1-1.1,0.1-1.6,0.2c-0.2,0.7-0.5,1.4-0.7,2c1,0,1.9,0.1,2.9,0.1
						C79.7,35.9,79.5,35.1,79.3,34.3z"/>
					<polygon class="st28" points="79.3,34.3 77.5,34.3 76.9,36.5 79.7,36.5 					"/>
				</g>
				<path class="st19" d="M75.1,37.8c0,0,1.3,1,3,1c2.1,0.1,3.7-1,3.7-1s-0.7,0.3-2,0.5c-0.5,0.1-1.3,0.2-2.2,0.1
					C76.1,38.3,75.1,37.7,75.1,37.8z"/>
			</g>
		</g>
	</g>
</g>
</svg>
