<?xml version="1.0" encoding="utf-8"?>
<!-- Generator: Adobe Illustrator 21.1.0, SVG Export Plug-In . SVG Version: 6.00 Build 0)  -->
<svg version="1.1" id="Layer_1" xmlns="http://www.w3.org/2000/svg" xmlns:xlink="http://www.w3.org/1999/xlink" x="0px" y="0px"
	 viewBox="0 0 97 105" style="enable-background:new 0 0 97 105;" xml:space="preserve">
<style type="text/css">
	.st0{opacity:0.15;enable-background:new    ;}
	.st1{fill:url(#SVGID_1_);}
	.st2{fill:url(#SVGID_2_);}
	.st3{opacity:0.321;fill:#7A410E;stroke:#7A410E;stroke-width:0.5;stroke-miterlimit:10;enable-background:new    ;}
	.st4{opacity:0.2;fill:#7A410E;enable-background:new    ;}
	.st5{opacity:0.321;fill:#7A410E;enable-background:new    ;}
</style>
<g>
	<path class="st0" d="M93.9,40.2c-2.9-7.3-8.3-21.8-8.3-21.8h-0.2c-0.3-1-1-2-2-2.6c0.1,0.2,0.2,0.3,0.2,0.5c-0.9-1-2.4-1.6-4-1.5
		c-20.5,3-41.2,2.7-61.7,0c-1.7-0.4-3.2,0.3-4.2,1.5C13,17,12.5,18,12.4,19.1c-1.2,3-5.9,14.7-8.6,20.4c-1,2.1-1.9,4.8-1.9,7.3v46.6
		c0,4.5,3.8,7.6,8.3,8.2c25.5,3.9,51.6,3.3,77.7,0c4.5-0.6,8.3-3.6,8.3-8.2V46.8C96.1,45.1,94.5,42,93.9,40.2z"/>
	<g>
		
			<linearGradient id="SVGID_1_" gradientUnits="userSpaceOnUse" x1="451.4095" y1="1689.6411" x2="393.6827" y2="1706.8418" gradientTransform="matrix(1.004 0 0 -1.1075 -405.2507 1917.6187)">
			<stop  offset="0" style="stop-color:#FFB815"/>
			<stop  offset="0.3" style="stop-color:#FF9F15"/>
			<stop  offset="0.5" style="stop-color:#CB8215"/>
			<stop  offset="0.7" style="stop-color:#FF9F15"/>
			<stop  offset="1" style="stop-color:#FFB815"/>
		</linearGradient>
		<path class="st1" d="M13.2,4.6h72.1c0,0,5.3,14.5,8.2,21.8c0.6,1.8,2.2,4.8,2.2,6.7v46.6c0,4.5-3.8,7.6-8.2,8.2
			c-25.8,3.3-51.6,3.9-76.8,0c-4.4-0.6-8.2-3.6-8.2-8.2V33.1c0-2.4,0.9-5.1,1.9-7.3C7.4,19.1,13.2,4.6,13.2,4.6L13.2,4.6z"/>
		
			<linearGradient id="SVGID_2_" gradientUnits="userSpaceOnUse" x1="416.4819" y1="1703.2987" x2="488.7864" y2="1703.2987" gradientTransform="matrix(1.004 0 0 -1.1075 -405.2507 1917.6187)">
			<stop  offset="0" style="stop-color:#FF8315"/>
			<stop  offset="1" style="stop-color:#FFCA00"/>
		</linearGradient>
		<path class="st2" d="M18.2,1.3c20.5,2.7,41.2,3,61.7,0C83,1,85.2,3.4,85.2,5.8v48.7c0,2.4-2.2,3.6-5.3,4.5c-20.5,3-41.2,3-61.7,0
			c-3.1-0.3-5.3-2.1-5.3-4.5V5.8C12.8,3.1,15.3,0.6,18.2,1.3z"/>
		<g>
			<path class="st3" d="M13.2,4.6v5.7l-0.6,44.2c0,2.4,2.2,3.6,5.3,4.5c20.8,3,42.2,3,62.9,0c3.1-0.3,5-2.1,5-4.5V10.3l-0.3-4.8
				v48.7c0,2.4-1.3,3.6-4.4,4.5c-20.5,3-41.8,2.7-62.3-0.6c-3.1-0.3-5.3-2.1-5.3-4.5L13.2,4.6z"/>
		</g>
		<polygon class="st4" points="50.2,10.2 60.3,23.3 83.3,25.5 66.8,35.8 70.7,50.3 50.2,43.4 29.7,50.3 33.7,35.8 17.1,25.5 
			39.8,23.3 		"/>
		<path class="st5" d="M94.2,26.7c-2.9-7.3-8.3-21.8-8.3-21.8h-0.2c-0.3-1-1-2-2-2.6c0.2,0.3,0.3,0.6,0.4,1h0.2
			c0,0,5.1,14.4,7.8,21.5c0.6,1.8,2.1,4.8,2.1,6.6v46.1c0,4.5-3.6,7.5-7.8,8.1c-24.7,3.3-49.4,3.9-73.5,0C8.7,85,5.1,82,5.1,77.5
			V31.4c0-2.4,0.9-5.1,1.8-7.2C9.5,18.5,13.9,7,15.1,4c0.1-0.9,0.4-1.7,0.9-2.4c-1.8,0.5-3.1,2.1-3.3,4c-1.2,3-5.9,14.7-8.6,20.4
			c-1,2.1-1.9,4.8-1.9,7.3v46.6c0,4.5,3.8,7.6,8.3,8.2c25.5,3.9,51.6,3.3,77.7,0c4.5-0.6,8.3-3.6,8.3-8.2V33.3
			C96.3,31.6,94.8,28.5,94.2,26.7z"/>
	</g>
</g>
</svg>
