<?xml version="1.0" encoding="utf-8"?>
<!-- Generator: Adobe Illustrator 21.1.0, SVG Export Plug-In . SVG Version: 6.00 Build 0)  -->
<svg version="1.1" id="Layer_1" xmlns="http://www.w3.org/2000/svg" xmlns:xlink="http://www.w3.org/1999/xlink" x="0px" y="0px"
	 viewBox="0 0 178 67" style="enable-background:new 0 0 178 67;" xml:space="preserve">
<style type="text/css">
	.st0{opacity:0.15;enable-background:new    ;}
	.st1{opacity:0.8;fill:#68C63C;enable-background:new    ;}
	.st2{opacity:0.8;fill:#47A520;enable-background:new    ;}
</style>
<g>
	<path class="st0" d="M176.3,42.7c0-12,0-24,0-36c-0.6-0.6-3.8-3.8-9.1-4.3c0,0.1,0,0.1,0,0.1c-0.3-0.1-0.7-0.1-1-0.1
		c-6,0-9.8,3.8-10.4,4.4v17.3c0,4.1-3.4,7.4-7.5,7.4H32.1c-4.1,0-7.5-3.3-7.5-7.4c0-5.8,0-11.5,0-17.3C23.5,5.9,18.8,2.3,12,2.7
		c-0.4,0-0.8,0-1.2,0.1v27.4c0,6.1,4.4,11,9.9,11h-0.1c-5.4,0-9.9-5-9.9-11V2.8C6,3.5,2.8,5.8,1.4,6.7v36c0,6.1,5,11,11.1,11h152.7
		C171.3,53.7,176.3,48.7,176.3,42.7z"/>
	<path class="st1" d="M1.4,18.7v36c0,6.1,5,11,11.1,11h152.7c6.1,0,11.1-5,11.1-11c0-12,0-24,0-36c-0.6-0.6-3.8-3.8-9.1-4.3
		c0,9.3,0,18.5,0,27.8c0,6.1-4.4,11-9.9,11H20.6c-5.4,0-9.9-5-9.9-11V14.8C6,15.5,2.8,17.8,1.4,18.7z"/>
	<path class="st2" d="M167.4,42.3c0-9.3,0-18.5,0-27.8c-0.4-0.1-0.8-0.1-1.2-0.1c-6,0-9.8,3.8-10.4,4.4v17.3c0,4.1-3.4,7.4-7.5,7.4
		H32.1c-4.1,0-7.5-3.3-7.5-7.4c0-5.8,0-11.5,0-17.3c-1.1-0.9-5.8-4.5-12.6-4.1c-0.4,0-0.8,0-1.2,0.1v27.4c0,6.1,4.4,11,9.9,11h136.7
		C162.9,53.2,167.3,48.3,167.4,42.3z"/>
</g>
</svg>
