<?xml version="1.0" encoding="utf-8"?>
<!-- Generator: Adobe Illustrator 21.1.0, SVG Export Plug-In . SVG Version: 6.00 Build 0)  -->
<svg version="1.1" id="Layer_1" xmlns="http://www.w3.org/2000/svg" xmlns:xlink="http://www.w3.org/1999/xlink" x="0px" y="0px"
	 viewBox="0 0 178 67" style="enable-background:new 0 0 178 67;" xml:space="preserve">
<style type="text/css">
	.st0{opacity:0.15;enable-background:new    ;}
	.st1{opacity:0.8;fill:#FFFFFF;enable-background:new    ;}
	.st2{opacity:0.8;fill:#DDDDDD;enable-background:new    ;}
</style>
<g>
	<path class="st0" d="M165.2,14.1H12.5c-6.1,0-11.1,4.9-11.1,11v36C2.8,62,6,64.3,10.7,65V37.6c0-6,4.5-11,9.9-11h0.1
		c-5.5,0-9.9,4.9-9.9,11V65c0.4,0.1,0.8,0.1,1.2,0.1c6.8,0.4,11.5-3.2,12.6-4.1c0-5.8,0-11.5,0-17.3c0-4.1,3.4-7.4,7.5-7.4h116.2
		c4.1,0,7.5,3.3,7.5,7.4V61c0.6,0.6,4.4,4.4,10.4,4.4c0.3,0,0.7,0,1-0.1c0,0,0,0,0,0.1c5.3-0.5,8.5-3.7,9.1-4.3c0-12,0-24,0-36
		C176.3,19.1,171.3,14.1,165.2,14.1z"/>
	<g>
		<path class="st1" d="M10.7,53V25.6c0-6,4.5-11,9.9-11h136.7c5.5,0,9.9,4.9,9.9,11c0,9.3,0,18.5,0,27.8c5.3-0.5,8.5-3.7,9.1-4.3
			c0-12,0-24,0-36c0-6-5-11-11.1-11H12.5C6.4,2.1,1.4,7,1.4,13.1v36C2.8,50,6,52.3,10.7,53z"/>
		<path class="st2" d="M157.4,14.6H20.7c-5.5,0-9.9,4.9-9.9,11V53c0.4,0.1,0.8,0.1,1.2,0.1c6.8,0.4,11.5-3.2,12.6-4.1
			c0-5.8,0-11.5,0-17.3c0-4.1,3.4-7.4,7.5-7.4h116.2c4.1,0,7.5,3.3,7.5,7.4V49c0.6,0.6,4.4,4.4,10.4,4.4c0.4,0,0.8,0,1.2-0.1
			c0-9.3,0-18.5,0-27.8C167.3,19.5,162.9,14.6,157.4,14.6z"/>
	</g>
</g>
</svg>
