<svg xmlns="http://www.w3.org/2000/svg" xmlns:xlink="http://www.w3.org/1999/xlink" viewBox="0 0 450 177"><style><![CDATA[.R{fill:#fff}.S{fill:#898b90}.T{fill:#444}.U{font-family:ArialMT}.V{font-size:6px}.W{enable-background:new}.X{fill:#f9bf98}.Y{fill:#fcf0eb}.Z{stroke-width:.729}.a{stroke-miterlimit:10}text{font-family:arial !important;}]]></style><path d="M421.2 165.3H28.9c-4.9 0-8.9-3.6-8.9-8.1V20.1c0-4.5 4-8.1 8.9-8.1h392.2c4.9 0 8.9 3.6 8.9 8.1v137.2c.1 4.5-3.9 8-8.8 8z" fill="#a3a5a8"/><path d="M357.5,44.5V22.6h55.8v21.9H357.5z" fill="#999"/><use xlink:href="#B" fill="#b3b3b3"/><use xlink:href="#C" class="R"/><path d="M421.2 164H28.9c-4.9 0-8.9-3.6-8.9-8.1V18.7c0-4.5 4-8.1 8.9-8.1h392.2c4.9 0 8.9 3.6 8.9 8.1V156c.1 4.5-3.9 8-8.8 8z" fill="#d1d5db"/><use xlink:href="#D" class="S"/><use xlink:href="#D" y="-0.7" class="R"/><use xlink:href="#D" x="-50.8" class="S"/><use xlink:href="#D" x="-50.8" y="-0.7" class="R"/><g class="S"><use xlink:href="#E"/><use xlink:href="#F"/></g><use xlink:href="#F" y="-0.7" class="R"/><use xlink:href="#G" class="S"/><use xlink:href="#G" y="-0.7" class="R"/><path d="M413.9 127h-74.4a2.65 2.65 0 0 1-2.6-2.6V108a2.65 2.65 0 0 1 2.6-2.6h74.4a2.65 2.65 0 0 1 2.6 2.6v16.4c0 1.4-1.1 2.6-2.6 2.6z" class="S"/><path d="M413.9 126.3h-74.4a2.65 2.65 0 0 1-2.6-2.6v-16.4a2.65 2.65 0 0 1 2.6-2.6h74.4a2.65 2.65 0 0 1 2.6 2.6v16.4c0 1.4-1.1 2.6-2.6 2.6z" class="R"/><path d="M331.7 127H314a2.65 2.65 0 0 1-2.6-2.6V108a2.65 2.65 0 0 1 2.6-2.6h17.7a2.65 2.65 0 0 1 2.6 2.6v16.4a2.65 2.65 0 0 1-2.6 2.6z" class="S"/><path d="M331.7 126.3H314a2.65 2.65 0 0 1-2.6-2.6v-16.4a2.65 2.65 0 0 1 2.6-2.6h17.7a2.65 2.65 0 0 1 2.6 2.6v16.4a2.65 2.65 0 0 1-2.6 2.6z" class="R"/><use xlink:href="#H" class="S"/><use xlink:href="#I" class="R"/><use xlink:href="#H" x="-24.9" class="S"/><use xlink:href="#I" x="-24.9" class="R"/><use xlink:href="#J" class="S"/><use xlink:href="#D" x="-95.7" y="-27.9" class="R"/><path d="M231.7 127H214a2.65 2.65 0 0 1-2.6-2.6V108a2.65 2.65 0 0 1 2.6-2.6h17.7a2.65 2.65 0 0 1 2.6 2.6v16.4c0 1.4-1.1 2.6-2.6 2.6z" class="S"/><path d="M231.7 126.3H214a2.65 2.65 0 0 1-2.6-2.6v-16.4a2.65 2.65 0 0 1 2.6-2.6h17.7a2.65 2.65 0 0 1 2.6 2.6v16.4c0 1.4-1.1 2.6-2.6 2.6z" fill="#54af19"/><use xlink:href="#J" x="-49.8" class="S"/><use xlink:href="#D" x="-145.5" y="-27.9" class="R"/><use xlink:href="#K" class="S"/><use xlink:href="#L" class="R"/><path d="M157 127h-17.7a2.65 2.65 0 0 1-2.6-2.6V108a2.65 2.65 0 0 1 2.6-2.6H157a2.65 2.65 0 0 1 2.6 2.6v16.4a2.65 2.65 0 0 1-2.6 2.6z" class="S"/><path d="M157 126.3h-17.7a2.65 2.65 0 0 1-2.6-2.6v-16.4a2.65 2.65 0 0 1 2.6-2.6H157a2.65 2.65 0 0 1 2.6 2.6v16.4a2.65 2.65 0 0 1-2.6 2.6z" class="R"/><use xlink:href="#K" x="-49.8" class="S"/><use xlink:href="#L" x="-49.8" class="R"/><path d="M107.2 127H89.5a2.65 2.65 0 0 1-2.6-2.6V108a2.65 2.65 0 0 1 2.6-2.6h17.7a2.65 2.65 0 0 1 2.6 2.6v16.4a2.65 2.65 0 0 1-2.6 2.6z" class="S"/><path d="M107.2 126.3H89.5a2.65 2.65 0 0 1-2.6-2.6v-16.4a2.65 2.65 0 0 1 2.6-2.6h17.7a2.65 2.65 0 0 1 2.6 2.6v16.4a2.65 2.65 0 0 1-2.6 2.6z" class="R"/><path d="M82.3 127H35.4a2.65 2.65 0 0 1-2.6-2.6V108a2.65 2.65 0 0 1 2.6-2.6h46.9a2.65 2.65 0 0 1 2.6 2.6v16.4a2.65 2.65 0 0 1-2.6 2.6z" class="S"/><path d="M82.3 126.3H35.4a2.65 2.65 0 0 1-2.6-2.6v-16.4a2.65 2.65 0 0 1 2.6-2.6h46.9a2.65 2.65 0 0 1 2.6 2.6v16.4a2.65 2.65 0 0 1-2.6 2.6z" class="R"/><path d="M413.9 99.4h-54.4a2.65 2.65 0 0 1-2.6-2.6V80.4a2.65 2.65 0 0 1 2.6-2.6h54.4a2.65 2.65 0 0 1 2.6 2.6v16.4c0 1.5-1.1 2.6-2.6 2.6z" class="S"/><path d="M413.9 98.8h-54.4a2.65 2.65 0 0 1-2.6-2.6V79.8a2.65 2.65 0 0 1 2.6-2.6h54.4a2.65 2.65 0 0 1 2.6 2.6v16.4c0 1.4-1.1 2.6-2.6 2.6z" class="R"/><path d="M352 99.4h-17.7a2.65 2.65 0 0 1-2.6-2.6V80.4a2.65 2.65 0 0 1 2.6-2.6H352a2.65 2.65 0 0 1 2.6 2.6v16.4c0 1.5-1.2 2.6-2.6 2.6z" class="S"/><path d="M352 98.8h-17.7a2.65 2.65 0 0 1-2.6-2.6V79.8a2.65 2.65 0 0 1 2.6-2.6H352a2.65 2.65 0 0 1 2.6 2.6v16.4a2.65 2.65 0 0 1-2.6 2.6z" class="R"/><use xlink:href="#M" class="S"/><use xlink:href="#N" class="R"/><use xlink:href="#O" class="S"/><use xlink:href="#P" class="R"/><use xlink:href="#O" x="-24.9" class="S"/><use xlink:href="#P" x="-24.9" class="R"/><path d="M251.7 99.4H234a2.65 2.65 0 0 1-2.6-2.6V80.4a2.65 2.65 0 0 1 2.6-2.6h17.7a2.65 2.65 0 0 1 2.6 2.6v16.4c0 1.5-1.2 2.6-2.6 2.6z" class="S"/><path d="M251.7 98.8H234a2.65 2.65 0 0 1-2.6-2.6V79.8a2.65 2.65 0 0 1 2.6-2.6h17.7a2.65 2.65 0 0 1 2.6 2.6v16.4a2.65 2.65 0 0 1-2.6 2.6z" class="R"/><use xlink:href="#M" x="-124.9" class="S"/><use xlink:href="#N" x="-124.9" class="R"/><use xlink:href="#M" x="-100" class="S"/><use xlink:href="#N" x="-100" class="R"/><path d="M177 99.4h-17.7a2.65 2.65 0 0 1-2.6-2.6V80.4a2.65 2.65 0 0 1 2.6-2.6H177a2.65 2.65 0 0 1 2.6 2.6v16.4c0 1.5-1.2 2.6-2.6 2.6z" class="S"/><path d="M177 98.8h-17.7a2.65 2.65 0 0 1-2.6-2.6V79.8a2.65 2.65 0 0 1 2.6-2.6H177a2.65 2.65 0 0 1 2.6 2.6v16.4a2.65 2.65 0 0 1-2.6 2.6z" class="R"/><use xlink:href="#M" x="-174.7" class="S"/><use xlink:href="#N" x="-174.7" class="R"/><path d="M126.8 99.4h-17.7a2.65 2.65 0 0 1-2.6-2.6V80.4a2.65 2.65 0 0 1 2.6-2.6h17.7a2.65 2.65 0 0 1 2.6 2.6v16.4c.1 1.5-1.1 2.6-2.6 2.6z" class="S"/><path d="M126.8 98.8h-17.7a2.65 2.65 0 0 1-2.6-2.6V79.8a2.65 2.65 0 0 1 2.6-2.6h17.7a2.65 2.65 0 0 1 2.6 2.6v16.4c.1 1.4-1.1 2.6-2.6 2.6z" class="R"/><path d="M101.6 99.4H83.9a2.65 2.65 0 0 1-2.6-2.6V80.4a2.65 2.65 0 0 1 2.6-2.6h17.7a2.65 2.65 0 0 1 2.6 2.6v16.4c0 1.5-1.1 2.6-2.6 2.6z" class="S"/><path d="M101.6 98.8H83.9a2.65 2.65 0 0 1-2.6-2.6V79.8a2.65 2.65 0 0 1 2.6-2.6h17.7a2.65 2.65 0 0 1 2.6 2.6v16.4c0 1.4-1.1 2.6-2.6 2.6z" class="R"/><path d="M76.7 99.4H35.1c-1.2 0-2.3-1-2.3-2.3v-17a2.26 2.26 0 0 1 2.3-2.3h41.6a2.26 2.26 0 0 1 2.3 2.3v17.1c0 1.2-1 2.2-2.3 2.2z" class="S"/><path d="M76.7,98.8H35.1c-1.2,0-2.3-1-2.3-2.3V79.4c0-1.3,1-2.3,2.3-2.3h41.6c1.3,0,2.3,1,2.3,2.3v17.1 C79,97.8,78,98.8,76.7,98.8z" class="R"/><use xlink:href="#Q" class="S"/><use xlink:href="#Q" y="-0.6" class="R"/><path d="M370.7 72.2H353a2.65 2.65 0 0 1-2.6-2.6V53.2a2.65 2.65 0 0 1 2.6-2.6h17.7a2.65 2.65 0 0 1 2.6 2.6v16.4c0 1.5-1.2 2.6-2.6 2.6z" class="S"/><path d="M370.7 71.6H353a2.65 2.65 0 0 1-2.6-2.6V52.6A2.65 2.65 0 0 1 353 50h17.7a2.65 2.65 0 0 1 2.6 2.6V69a2.65 2.65 0 0 1-2.6 2.6z" class="R"/><use xlink:href="#R" class="S"/><use xlink:href="#S" class="R"/><use xlink:href="#R" x="-24.9" class="S"/><use xlink:href="#S" x="-24.9" class="R"/><use xlink:href="#T" class="S"/><use xlink:href="#U" class="R"/><path d="M271 72.2h-17.7a2.65 2.65 0 0 1-2.6-2.6V53.2a2.65 2.65 0 0 1 2.6-2.6H271a2.65 2.65 0 0 1 2.6 2.6v16.4c.1 1.5-1.1 2.6-2.6 2.6z" class="S"/><path d="M271 71.6h-17.7a2.65 2.65 0 0 1-2.6-2.6V52.6a2.65 2.65 0 0 1 2.6-2.6H271a2.65 2.65 0 0 1 2.6 2.6V69c.1 1.4-1.1 2.6-2.6 2.6z" class="R"/><use xlink:href="#T" x="-49.8" class="S"/><use xlink:href="#U" x="-49.8" class="R"/><use xlink:href="#T" x="-74.7" class="S"/><use xlink:href="#U" x="-74.7" class="R"/><use xlink:href="#V" class="S"/><path d="M196.3 71.6h-17.7A2.65 2.65 0 0 1 176 69V52.6a2.65 2.65 0 0 1 2.6-2.6h17.7a2.65 2.65 0 0 1 2.6 2.6V69c0 1.4-1.1 2.6-2.6 2.6z" class="R"/><use xlink:href="#V" x="-24.9" class="S"/><use xlink:href="#W" class="R"/><use xlink:href="#V" x="-49.8" class="S"/><use xlink:href="#W" x="-24.9" class="R"/><use xlink:href="#R" x="-224.5" class="S"/><path d="M121.3 71.6h-17.7A2.65 2.65 0 0 1 101 69V52.6a2.65 2.65 0 0 1 2.6-2.6h17.7a2.65 2.65 0 0 1 2.6 2.6V69a2.65 2.65 0 0 1-2.6 2.6z" class="R"/><use xlink:href="#X" class="S"/><use xlink:href="#X" y="-0.6" class="R"/><path d="M96.4 72.2H78.7a2.65 2.65 0 0 1-2.6-2.6V53.2a2.65 2.65 0 0 1 2.6-2.6h17.7a2.65 2.65 0 0 1 2.6 2.6v16.4c0 1.5-1.2 2.6-2.6 2.6z" class="S"/><path d="M96.4 71.6H78.7a2.65 2.65 0 0 1-2.6-2.6V52.6a2.65 2.65 0 0 1 2.6-2.6h17.7a2.65 2.65 0 0 1 2.6 2.6V69a2.65 2.65 0 0 1-2.6 2.6z" class="R"/><path d="M413.9 45h-51.1a2.65 2.65 0 0 1-2.6-2.6V25.7a2.65 2.65 0 0 1 2.6-2.6h51.1a2.65 2.65 0 0 1 2.6 2.6v16.7c0 1.5-1.1 2.6-2.6 2.6z" class="S"/><path d="M413.9 44.4h-51.1a2.65 2.65 0 0 1-2.6-2.6V25a2.65 2.65 0 0 1 2.6-2.6h51.1a2.65 2.65 0 0 1 2.6 2.6v16.7c0 1.5-1.1 2.7-2.6 2.7z" class="R"/><path d="M329.4 45h-17.7a2.65 2.65 0 0 1-2.6-2.6V26a2.65 2.65 0 0 1 2.6-2.6h17.7A2.65 2.65 0 0 1 332 26v16.4c0 1.5-1.2 2.6-2.6 2.6z" class="S"/><use xlink:href="#C" x="2.3" class="R"/><use xlink:href="#B" x="-48.2" class="S"/><use xlink:href="#C" x="-48.2" class="R"/><use xlink:href="#Y" class="S"/><use xlink:href="#Z" class="R"/><path d="M253.7 45H236a2.65 2.65 0 0 1-2.6-2.6V26a2.65 2.65 0 0 1 2.6-2.6h17.7a2.65 2.65 0 0 1 2.6 2.6v16.4c0 1.5-1.2 2.6-2.6 2.6z" class="S"/><path d="M253.7 44.4H236a2.65 2.65 0 0 1-2.6-2.6V25.4a2.65 2.65 0 0 1 2.6-2.6h17.7a2.65 2.65 0 0 1 2.6 2.6v16.4a2.65 2.65 0 0 1-2.6 2.6z" class="R"/><use xlink:href="#B" x="-98.3" class="S"/><use xlink:href="#C" x="-98.3" class="R"/><use xlink:href="#Y" x="-100.6" class="S"/><use xlink:href="#Z" x="-100.6" class="R"/><use xlink:href="#a" class="S"/><use xlink:href="#b" class="R"/><path d="M153.7 45H136a2.65 2.65 0 0 1-2.6-2.6V26a2.65 2.65 0 0 1 2.6-2.6h17.7a2.65 2.65 0 0 1 2.6 2.6v16.4c0 1.5-1.1 2.6-2.6 2.6z" class="S"/><path d="M153.7 44.4H136a2.65 2.65 0 0 1-2.6-2.6V25.4a2.65 2.65 0 0 1 2.6-2.6h17.7a2.65 2.65 0 0 1 2.6 2.6v16.4c0 1.4-1.1 2.6-2.6 2.6z" class="R"/><use xlink:href="#a" x="-49.8" class="S"/><use xlink:href="#b" x="-49.8" class="R"/><path d="M103.6 45H85.9a2.65 2.65 0 0 1-2.6-2.6V26a2.65 2.65 0 0 1 2.6-2.6h17.7a2.65 2.65 0 0 1 2.6 2.6v16.4c0 1.5-1.2 2.6-2.6 2.6z" class="S"/><path d="M103.6 44.4H85.9a2.65 2.65 0 0 1-2.6-2.6V25.4a2.65 2.65 0 0 1 2.6-2.6h17.7a2.65 2.65 0 0 1 2.6 2.6v16.4a2.65 2.65 0 0 1-2.6 2.6z" class="R"/><path d="M78.3,45H60.6c-1.4,0-2.6-1.2-2.6-2.6V26c0-1.4,1.2-2.6,2.6-2.6h17.7c1.4,0,2.6,1.2,2.6,2.6v16.4 C81,43.9,79.8,45,78.3,45z" class="S"/><path d="M78.3 44.4H60.6a2.65 2.65 0 0 1-2.6-2.6V25.4a2.65 2.65 0 0 1 2.6-2.6h17.7a2.65 2.65 0 0 1 2.6 2.6v16.4c.1 1.4-1.1 2.6-2.6 2.6z" class="R"/><path d="M53.1 45H35.4a2.65 2.65 0 0 1-2.6-2.6V26a2.65 2.65 0 0 1 2.6-2.6h17.7a2.65 2.65 0 0 1 2.6 2.6v16.4c0 1.5-1.1 2.6-2.6 2.6z" class="S"/><path d="M53.1 44.4H35.4a2.65 2.65 0 0 1-2.6-2.6V25.4a2.65 2.65 0 0 1 2.6-2.6h17.7a2.65 2.65 0 0 1 2.6 2.6v16.4c0 1.4-1.1 2.6-2.6 2.6z" class="R"/><path d="M69.7 32c0-.1 0-.2.1-.2.1-.1.1-.1.2-.1s.2 0 .2.1c.1.1.1.1.1.2s0 .2-.1.2c-.1.1-.1.1-.2.1s-.2 0-.2-.1l-.1-.2zm.5-1.1h-.6v-3.2h.6v3.2zm.2 9h-.6V36l-1.1.4v-.6l1.7-.6h.1l-.1 4.7z" class="T"/><use xlink:href="#Y" x="50.8" class="S"/><use xlink:href="#Z" x="50.8" class="R"/><use xlink:href="#c" class="S"/><g class="R"><use xlink:href="#c" y="-0.7"/><use xlink:href="#E" y="-0.7"/></g><use xlink:href="#L" x="144.9" y="27.9" class="S"/><use xlink:href="#L" x="144.9" y="27.2" class="R"/><use xlink:href="#d" class="S"/><use xlink:href="#d" y="-0.7" class="R"/><g class="T"><path d="M42.5 30.5c0-.7.3-1 .8-1 .3 0 .5.1.8.3.3.1.5.2.7.2s.3-.2.3-.5h.5c0 .8-.3 1-.8 1-.3 0-.5-.1-.9-.3-.3-.1-.5-.3-.6-.3-.2 0-.3.1-.3.5l-.5.1zm1.4 5.3l.5.9h-.5l-.7-.9h.7zm51.5-3.7c-.3.2-.7.2-1.1.2-1 0-1.8-.7-1.8-1.9s.9-2.3 2.2-2.3c1 0 1.7.7 1.7 1.7 0 .9-.5 1.4-1.1 1.4a.47.47 0 0 1-.5-.5c-.2.3-.5.5-.8.5-.4 0-.7-.3-.7-.8 0-.7.6-1.4 1.4-1.4.3 0 .5.1.7.1l-.2 1.1c-.1.4 0 .6.2.6.3 0 .6-.4.6-1 0-.8-.5-1.4-1.4-1.4s-1.7.7-1.7 1.9c0 1 .6 1.6 1.5 1.6.3 0 .6-.1.9-.2l.1.4zm-.4-2.5h-.2c-.5 0-.8.4-.8 1 0 .2.1.4.3.4.3 0 .6-.4.6-.7l.1-.7zm-1.8 10.3v-.5l.5-.4c.9-.9 1.3-1.3 1.3-1.8 0-.3-.2-.7-.7-.7-.3 0-.6.2-.8.3l-.2-.5c.3-.2.7-.4 1.2-.4.9 0 1.3.5 1.3 1.1 0 .7-.5 1.2-1.1 1.8l-.3.3H96v.6l-2.8.2zm25.8-8.2l.2-1.1h-.5v-.5h.6l.1-.8h-.5v-.5h.6l.2-1.1h.5l-.1 1.1h.6l.2-1.1h.5l-.2 1.1h.5v.5h-.6l-.1.8h.5v.5h-.6l-.2 1.1h-.5l.2-1.1h-.6l-.2 1.1h-.6zm1.3-1.6l.1-.8h-.6l-.1.8h.6zm-1.4 9c.2.1.5.2.9.2.6 0 .8-.3.8-.6 0-.5-.4-.7-.9-.7h-.3v-.5h.3c.3 0 .8-.2.8-.5s-.2-.5-.6-.5c-.3 0-.6.1-.8.2l-.2-.5c.2-.2.7-.3 1.1-.3.8 0 1.2.4 1.2 1 0 .4-.2.7-.7.9.5.1.9.4.9 1 0 .7-.6 1.1-1.5 1.1-.5 0-.9-.1-1.1-.3l.1-.5zm25.4-6.9v-.6c-.4 0-.8-.1-1-.3l.2-.6c.2.1.6.3.9.3s.6-.2.6-.5-.2-.4-.7-.6c-.6-.2-1-.5-1-1s.4-.9 1-1v-.6h.5v.6c.4 0 .6.1.8.2l-.2.6c-.1-.1-.4-.2-.8-.2s-.6.2-.6.4.2.4.7.6c.7.3 1 .6 1 1.1s-.4 1-1 1v.6h-.4zm.6 7.7v-1h-1.7v-.5l1.6-2.4h.9v2.3h.5v.6h-.5v1h-.8zm0-1.5v-1.7c-.1.2-.2.4-.3.7l-.7 1h1zm24.6-9.5c0 .8-.5 1.2-1 1.2s-1-.4-1-1.1.4-1.2 1-1.2 1 .4 1 1.1zm-1.4 0c0 .5.2.8.5.8s.4-.3.4-.8c0-.4-.1-.8-.4-.8-.4.1-.5.4-.5.8zm.4 2.8l2.2-4h.4l-2.2 4h-.4zm3.7-1.2c0 .8-.5 1.2-1 1.2s-1-.4-1-1.1.4-1.2 1-1.2 1 .4 1 1.1zm-1.4.1c0 .4.2.8.5.8s.4-.3.4-.8c0-.4-.1-.8-.4-.8-.4 0-.5.3-.5.8zm.2 6.1h-1.5l-.1.8h.3c.3 0 .7.1.9.3.3.2.5.5.5 1 0 .7-.6 1.3-1.5 1.3-.5 0-.8-.1-1-.2l.2-.6c.2.1.5.2.9.2s.8-.2.8-.7c0-.4-.3-.7-1.1-.7h-.5l.3-1.9h2v.5h-.2zm24.7-6.1l-.9-2.2-.9 2.2h-.5l1.2-2.8h.5l1.2 2.8h-.6zm.1 6h-.4c-.8.1-1.2.6-1.3 1.1.2-.2.5-.4.9-.4.7 0 1.2.5 1.2 1.2s-.5 1.4-1.3 1.4c-.9 0-1.4-.7-1.4-1.6 0-.8.3-1.3.7-1.7.4-.3.8-.5 1.4-.6h.4l-.2.6zm-.4 2c0-.5-.2-.8-.7-.8-.3 0-.5.2-.6.4v.2c0 .5.3.9.7.9.4.1.6-.2.6-.7zm25.3-6.9l-.3-.3c-.3.3-.7.4-1.1.4-.9 0-1.3-.6-1.3-1.1s.3-.9.8-1.1c-.2-.2-.3-.5-.3-.8 0-.5.4-1 1.1-1 .6 0 1 .4 1 .9 0 .4-.2.8-.8 1 .3.3.6.7.8.9.2-.3.3-.6.4-1h.7c-.1.6-.3 1.1-.6 1.5.2.2.4.5.7.8l-1.1-.2zm-.7-.8c-.2-.3-.6-.7-1-1.1-.2.1-.4.3-.4.7a.68.68 0 0 0 .7.7c.4 0 .6-.1.7-.3zm-.9-2.3c0 .2.1.4.3.6.3-.2.5-.4.5-.7 0-.2-.1-.5-.4-.5-.3.1-.4.4-.4.6zM221 36v.5l-1.6 3.4h-.8l1.6-3.2h-1.8v-.6l2.6-.1zm24.4-8.1l-.6.8.9-.2v.5l-.9-.1.6.7-.5.3-.4-.9-.4.9-.4-.3.6-.7-.9.2v-.5l.9.2-.6-.7.5-.3.3.9.3-.9.6.1zm-2.2 11c0-.5.3-.8.7-1-.4-.2-.6-.5-.6-.9 0-.6.6-1 1.3-1 .8 0 1.2.5 1.2 1 0 .3-.2.7-.6.9.4.2.7.5.7 1 0 .7-.6 1.1-1.4 1.1-.8-.1-1.3-.6-1.3-1.1zm2-.1c0-.4-.3-.6-.7-.7-.4.1-.6.4-.6.7s.2.6.7.6c.4 0 .6-.2.6-.6zM244 37c0 .3.3.5.6.6.3-.1.5-.3.5-.6s-.2-.6-.6-.6c-.3.1-.5.3-.5.6zm26.6-9.4c-.4.6-.7 1.3-.7 2.4 0 1 .3 1.8.7 2.4h-.6c-.3-.5-.7-1.2-.7-2.4 0-1.1.4-1.9.7-2.4h.6zm-1.8 11.8h.4c.3 0 .6-.1.8-.3.3-.2.4-.5.5-.9-.2.2-.5.3-.9.3-.7 0-1.1-.5-1.1-1.2s.6-1.4 1.4-1.4c.9 0 1.4.7 1.4 1.6 0 .8-.3 1.4-.7 1.8-.3.3-.8.5-1.3.5h-.4l-.1-.4zm.4-2.1c0 .4.2.7.6.7.3 0 .5-.1.6-.3v-.2c0-.5-.2-1-.7-1-.3 0-.5.3-.5.8zm25.1-4.9c.4-.6.7-1.3.7-2.4s-.3-1.8-.7-2.4h.5c.3.5.7 1.2.7 2.4 0 1.1-.4 1.9-.7 2.4h-.5zm2.1 5.5c0 1.2-.5 2-1.4 2s-1.3-.8-1.4-2c0-1.2.5-2 1.4-2 1 .1 1.4.9 1.4 2zm-2 .1c0 .9.3 1.4.7 1.4s.7-.5.7-1.4-.2-1.4-.7-1.4c-.4-.1-.7.4-.7 1.4zm27.4-8.5v.3h-2.9v-.3h2.9zm-.8 8.2v.5h-1.5v-.5h1.5zm25.4-8.5v1.3h1.3v.5h-1.3v1.3h-.5V31h-1.3v-.5h1.3v-1.3h.5zm-1.8 9.4v-.5h3v.5h-3zm0 1.2v-.5h3v.5h-3zM336 56.7c.4 0 .5-.2.5-.4v-1c0-.6.4-.8.9-.8h.2v.4h-.1c-.3 0-.4.2-.4.5v.8c0 .4-.2.6-.5.7.3.1.5.3.5.7v.8c0 .3.1.5.4.5h.1v.4h-.2c-.5 0-.9-.2-.9-.8v-1c0-.2 0-.4-.5-.4v-.4zm.2 10.7v-4.7h1.1v.4h-.6V67h.6v.4h-1.1zm26.7-9.3c-.4 0-.5.3-.5.4v1c0 .6-.4.8-.9.8h-.2v-.4h.1c.3 0 .4-.2.4-.5v-.8c0-.4.2-.6.5-.7-.3-.1-.5-.3-.5-.7v-.8c0-.3-.1-.5-.4-.5h-.1v-.4h.2c.5 0 .9.2.9.8v1c0 .2.1.4.5.4v.4zm-.2 5.6v4.7h-1.1V68h.6v-3.9h-.6v-.4h1.1zm33.6-8.6V61h-.5v-5.9h.5zm.1 12.9l-1.4-4.3h.5l1.4 4.3h-.5zM88.8 63.5l-1.5-.5c-.1 0-.2-.1-.3-.1-.9 0-1.7-.7-1.7-2 0-1.2.8-2.1 1.9-2.1s1.8.9 1.8 2c0 1-.5 1.6-1 1.8.3.1.7.2 1 .2l-.2.7zm-.6-2.7c0-.8-.4-1.4-1.1-1.4s-1.1.7-1.1 1.5.4 1.4 1.1 1.4 1.1-.6 1.1-1.5zm23 2.7l-1-4h.8l.4 1.8.3 1.4.3-1.4.4-1.8h.8l.4 1.8c.1.5.2.9.2 1.3l.3-1.4.4-1.8h.8l-1.1 4h-.8l-.4-1.9c-.1-.5-.2-.8-.2-1.3l-.3 1.3-.5 1.9-.8.1zm27.2-1.8h-1.5v1.2h1.7v.6h-2.4v-4h2.3v.6h-1.6v1h1.5v.6zm22.9-2.1c.3 0 .7-.1 1.1-.1.6 0 1 .1 1.2.3s.3.5.3.8a1.13 1.13 0 0 1-.7 1c.3.1.5.4.6.8.1.5.2 1 .3 1.1h-.8c-.1-.1-.2-.5-.3-1s-.3-.7-.7-.7h-.4v1.6h-.7l.1-3.8zm.7 1.7h.4c.5 0 .8-.3.8-.7s-.3-.6-.8-.6h-.5l.1 1.3zm25-1.2h-1.1v-.6h3v.6h-1.1v3.4h-.8v-3.4zm24.6 3.4v-1.7l-1.2-2.3h.8l.5 1 .3.8c.1-.3.2-.5.4-.8l.5-1h.8l-1.3 2.3v1.7h-.8zm24.5-4v2.3c0 .8.3 1.1.8 1.1s.9-.4.9-1.1v-2.3h.7v2.3c0 1.2-.6 1.8-1.6 1.8-.9 0-1.5-.5-1.5-1.8v-2.3h.7zm26.4 0v4h-.7v-4h.7zm47.9.1c.3 0 .6-.1 1.1-.1s.9.1 1.2.3c.2.2.4.5.4.9s-.1.7-.3.9c-.3.3-.8.4-1.2.4h-.4v1.5h-.7l-.1-3.9zm.7 1.8h.4c.6 0 .9-.3.9-.7 0-.5-.3-.7-.8-.7h-.4v1.4h-.1zm-19.5 25.7h.7v3.4h1.6v.6h-2.4l.1-4z"/><text transform="translate(317.156 85.458)" font-size="5.899" class="U">:</text><text transform="translate(317.156 94.634)" font-size="5.899" class="U">;</text><path d="M342.4 84.3l.6-1.5h.5c-.2.4-.3 1-.4 1.5h-.7zm1 0l.6-1.5h.5c-.2.4-.3 1-.4 1.5h-.7zm-.5 9.1l.6-1.5h.5c-.2.4-.3 1-.4 1.5h-.7zm-76.5-6.3h.7v1.8c.1-.2.2-.3.3-.4l1-1.4h.9l-1.4 1.7 1.4 2.3h-.9l-1.1-1.8-.4.4v1.4h-.7l.2-4zm-23.5 0h.7v2.6c0 1.1-.5 1.5-1.3 1.5-.2 0-.5 0-.6-.1l.1-.6c.1 0 .3.1.5.1.4 0 .7-.2.7-.9l-.1-2.6zm-25.5 0v1.6h1.7v-1.6h.7v4h-.7v-1.7h-1.7V91h-.7v-4l.7.1zm-22.8 3.8a4.44 4.44 0 0 1-1.3.2c-.7 0-1.2-.2-1.6-.5s-.6-.9-.6-1.5c0-1.2.9-2.1 2.2-2.1.5 0 .9.1 1 .2l-.2.6c-.2-.1-.5-.2-.9-.2-.9 0-1.4.5-1.4 1.4s.6 1.4 1.4 1.4c.3 0 .5 0 .6-.1v-1h-.7v-.6h1.4v2.2h.1zM167 87.1h2.3v.6h-1.6v1.1h1.5v.6h-1.5V91h-.7v-3.9zm-25.4 0c.3-.1.7-.1 1.1-.1.8 0 1.2.2 1.6.5s.6.8.6 1.5-.2 1.2-.6 1.6-1 .6-1.8.6c-.4 0-.8 0-1-.1l.1-4zm.7 3.4h.4c1 0 1.5-.5 1.5-1.5 0-.9-.5-1.4-1.4-1.4h-.5v2.9zm-25.5-.3c.2.1.6.3 1 .3.5 0 .7-.2.7-.6 0-.3-.2-.5-.7-.7-.7-.2-1.1-.6-1.1-1.1 0-.7.6-1.1 1.4-1.1.4 0 .8.1 1 .2l-.2.6c-.1-.1-.4-.2-.8-.2-.5 0-.7.3-.7.5 0 .3.2.5.8.7.7.3 1 .6 1 1.2s-.5 1.2-1.5 1.2c-.4 0-.9-.1-1.1-.3l.2-.7zm-25.1-.3l-.3 1.1h-.8l1.3-4h.9l1.3 4h-.8l-.3-1.1h-1.3zm1.2-.6l-.3-1c-.1-.2-.1-.5-.2-.8-.1.2-.1.5-.2.8l-.3 1h1zm3.9 28.2l2-2.9h-1.9v-.6h2.8v.4l-2 2.9h2v.6h-3l.1-.4zm27.5.4l-.4-.8c-.2-.3-.3-.5-.4-.8l-.8 1.6h-.8l1.2-2-1.1-2h.8l.4.8c.1.3.2.4.3.7.1-.3.2-.4.3-.7l.4-.8h.8l-1.1 1.9 1.2 2-.8.1zm25.4-.1c-.2.1-.6.2-1 .2-1.3 0-2-.8-2-2 0-1.3.9-2.1 2.1-2.1.5 0 .8.1 1 .2l-.2.6c-.2-.1-.5-.2-.8-.2-.8 0-1.4.5-1.4 1.5 0 .9.5 1.4 1.4 1.4.3 0 .6-.1.8-.2l.1.6zm22.9.1l-1.3-4h.8l.6 1.8c.2.5.3 1 .4 1.4.1-.5.3-1 .4-1.4l.6-1.8h.8l-1.4 4h-.9zm24-3.9c.2 0 .7-.1 1-.1.5 0 .9.1 1.1.3.3.2.4.4.4.8s-.2.7-.7.9c.4.1.8.4.8 1 0 .4-.2.6-.4.8-.3.3-.8.4-1.5.4-.4 0-.7 0-.9-.1v-4h.2zm.7 1.5h.4c.5 0 .8-.2.8-.6s-.3-.6-.8-.6h-.4v1.2zm0 1.9h.4c.5 0 .9-.2.9-.7s-.4-.7-.9-.7h-.4v1.4zm24.3.5v-4h.8l1 1.7.7 1.3c0-.5-.1-1-.1-1.6V114h.7v4h-.8l-1-1.7c-.3-.4-.5-.9-.7-1.4v3.1l-.6-.1zm27.5-1.6c0-.5-.1-1.1 0-1.7-.1.5-.3 1-.5 1.5l-.6 1.7h-.6l-.5-1.7c-.2-.5-.3-1-.4-1.5 0 .5 0 1.1-.1 1.7l-.1 1.6h-.7l.3-4h1l.5 1.6c.1.5.3 1 .4 1.4.1-.4.2-.9.4-1.4l.6-1.6h1l.2 4h-.7l-.2-1.6zm22.1-4.8l2.8-1.3v.5l-2.2 1 2.2 1v.5l-2.8-1.3v-.4zm.8 11.7c.2-.5.3-1.1.4-1.6l.8-.1c-.2.6-.4 1.2-.7 1.6l-.5.1zm26.9-11.2l-2.8 1.3v-.5l2.3-1-2.3-1v-.5l2.8 1.3v.4zm-1.8 10.1a.5.5 0 1 1 1 0 .47.47 0 0 1-.5.5c-.3-.1-.5-.3-.5-.5zm25.6-9.4v-.2c0-.3.1-.6.4-1 .2-.3.4-.5.4-.7 0-.3-.2-.4-.5-.4-.2 0-.5.1-.6.2l-.2-.5a2.39 2.39 0 0 1 .9-.2c.7 0 1.1.4 1.1.9 0 .4-.3.7-.5 1s-.3.5-.3.8v.1h-.7zm-.2.9a.5.5 0 1 1 1 0 .47.47 0 0 1-.5.5c-.3 0-.5-.3-.5-.5zm-.4 9.8l1.4-4.3h.5l-1.4 4.3h-.5zm-33.2-61.6c0 1.5-1 2.1-2 2.1-1.1 0-1.9-.8-1.9-2 0-1.3.9-2.1 2-2.1s1.9.8 1.9 2zm-3.1 0c0 .9.5 1.5 1.2 1.5s1.2-.6 1.2-1.5c0-.7-.3-1.5-1.2-1.5s-1.2.8-1.2 1.5zm65.9 88.8h-.5m0-4.5h.5"/><text transform="translate(35.425 68.425)" class="U V">tab</text><text transform="translate(34.95 95.675)" class="U V">caps lock</text><text transform="translate(35.2 121.988)" class="U V">shift</text><text transform="translate(35.138 150.175)" class="U V">ctrl</text><text transform="translate(396.138 40.425)" class="U V">delete</text><text transform="translate(398.138 95.175)" class="U V">enter</text><text transform="translate(400.513 121.925)" class="U V">shift</text><text transform="translate(343.304 150.05)" class="U V">ctrl</text><text transform="translate(294.638 150.05)" class="U V">alt</text><text transform="translate(93.388 150.3)" class="U V">alt</text></g><path d="M53.7 228.2c-.5-15.9.7-28.8 2-38 0 0 2.8-19.9 9.3-44.5.4-1.6 1.1-4 1.9-7.7.7-3.4.7-3.9 1.3-5.8.4-1.2 1.2-4.1 3.1-7.2 1.7-2.8 2.6-3.1 4.4-6.4.9-1.6 1.5-3.1 1.6-3.3 1-2.4 1.2-4 3.4-9 2.3-5.2 5.8-12 11.3-16.7 1.2-1 2.7-2.1 4.7-2 .5 0 2.4.1 3.8 1.7 1 1.1 1.2 2.5 1.3 3 .8-.4 1.9-1 3.1-2 1.9-1.6 2.6-2.9 3.7-4.4.8-1 3.4-4.4 7.3-6.3 1.9-.9 4.6-2.2 7.6-1 .2.1 3.2 1.4 4.3 4.6.9 2.8-.4 5.1.2 5.4.8.4 2.8-4.8 6.6-7 3.7-2.1 9.2-1.9 12.3 1.3.4.3 2.4 2.5 2.6 5.7.1 3.1-1.6 5.4-2.6 6.7 0 0-7.2 9.9-13.5 25.3-.7 1.5-1.6 3.8-2.6 7-2.5 8-1.2 9.3-3.5 15-1.1 2.8-2.2 4.4-2.8 8-.4 1.9-.9 5.2.3 6s4.2-1.2 5.7-3.7c1.2-2.1.9-3.3 1.9-6.7.9-2.5 1.7-3.9 2.8-6 3-5.7 2.9-7.7 5.7-14 2.2-4.9 3.1-5.7 4.6-8.2 0 0 .9-1.6 1.8-3.5 1.8-4 2.8-8.4 4.4-13.3 1.7-5.3 2.6-8 4.4-10 .7-.8 3.6-3.9 7.9-4.7h.3c.6-.1 5.7-.5 8.5 3 2.3 2.8 1.9 6.8 1.6 9-2 15.4-9.3 32.6-14.8 48.7-.5 1.2-1.8 5.2-3.2 10.6-2.6 9.7-4 19.8-3.1 20.1.4.1.8-2 3.3-5.9 1.8-2.7 2.9-3.6 3.3-5.8.2-1.2-.1-1.5-.3-3.9 0 0-.3-3.4.2-7.2.1-.7.5-3.7 1.9-7.8 1.8-5.1 3.2-9 6.8-11.8.8-.6 5.3-4.1 8.9-2.3 2.4 1.2 3.2 4.3 3.5 5.7 1.2 4.9-1 7.5-1.2 13-.1 2.5.2 6.1 2.1 10.4 1.3 4.1 1.2 7.2.9 9.2-.8 5.6-3.8 6.7-6.9 15.3-1.3 3.6-2.5 7.8-2.5 7.8-.3 1.1-.6 2.3-1 3.6-2.3 9.1-1.7 11.3-3.5 16 0 0-2.3 6.4-9.1 13.3-9.1 9-50.9 11.2-106 .7z" opacity=".8" fill="#ffdab5" stroke="#f9bf98" class="W Z a"/><path d="M102.2 92.3c-.2-.1-3.9 6.4-9.9 14.2-.8 1-2.6 3.4-4.7 6.8-1.4 2.3-2.3 3.7-3 5.7-1.3 3.5-1.1 5.8-1.4 9.7-.2 2.4-1 5.5-2.5 11.7-2.4 9.6-4.5 15.5-4.4 15.5.2.1 4-11.3 6.1-18.8 1.1-3.8 1.5-5.5 1.7-7.6.1-1.2.2-2.7.5-5.1.2-1.8.5-3.2.6-3.6.7-3.4 2.6-6.1 4.8-9.3l7.6-11c2.5-4.2 4.7-8.1 4.6-8.2zm25.9-3.6c-.1-.1-5.9 6.6-11.2 13.2-1 1.3-2.4 3.1-4 5.5-.9 1.3-2.2 3.4-3.5 6-1.4 2.8-2.1 4.9-3.3 8.4-.5 1.6-1.3 4.1-3.4 11.8l-2.1 8c-2.6 9.3-5.5 15.6-5.4 15.6s2.6-6.1 5.3-13.4l2.5-7.1c1.2-4 1-4.8 2.2-9.3 1.2-4.3 2.4-7.3 2.7-8.1 1.3-3.3 2.6-5.7 3.1-6.6.4-.7 1.4-2.6 3.5-5.9a138.9 138.9 0 0 1 6.6-9.3l7-8.8zm-54.4 85.8s2-2.1 2.5-11.2c0 0-1.9 1.7-2.5 11.2zm18.2 0s2-2.1 2.5-11.2c0 0-1.9 1.7-2.5 11.2zm26.7 4.2s2-2.1 2.5-11.2c0 .1-1.9 1.7-2.5 11.2z" class="X"/><path d="M91.3 99c1.1.8 2.2 1.4 2.9 1.5 1.3-2.3 2.5-4 3.4-5.2.5-.6.9-1.2 1.1-2 .3-1.4.1-3.2-1.3-4.1-1.5-1-3.4-.3-3.9 0-1 .5-1.7 1.3-3.1 2.9-.9 1-1.5 1.9-2 2.5.3.9 1 2.8 2.9 4.4zm23.7-9.9c.2.1.1.1 1.5 1.1 3 2.1 3.4 2.5 3.9 2.4.4-.1.9-.8 1.8-2.2.7-1 1-1.6 1.3-2.3.8-1.7 1.3-2.9 1.1-4.4-.2-1.4-1-3.1-2.4-4-2.3-1.6-4.9-.1-5.6.3-1 .6-1.8 1.4-2.7 2.6l-1.7 2.3c.2.7 1 2.6 2.8 4.2zm19.6 2.2c1.8 1.4 2.9 1.8 4.7 2.8 2.2 1.2 2.3 1.7 3.1 1.5.8-.1 1.4-.7 2.2-1.5s2.1-2.1 2.5-4.2c.4-2-.4-3.4-.7-4-1.4-2.6-4-3.3-4.7-3.4-.8-.2-3.1-.7-5.3.6-1 .6-1.7 1.3-2.7 2.5a19.06 19.06 0 0 0-1.7 2.2c.4.5 1 2.2 2.6 3.5zm26.8 8c2.5.4 3.7.2 5.8.2 2.7 0 3 .4 3.7-.2.7-.5.9-1.4 1.2-2.5s.8-3 0-5.1c-.7-2-2.2-2.9-2.8-3.3-2.7-1.7-5.5-1-6.2-.8-.8.2-3.2.9-4.5 3.1-.6 1-.8 2.1-1.1 3.6l-.4 2.8c.6.6 2.1 1.9 4.3 2.2zm17.7 49.8c1.5-1.1 1.6-3.2 1.8-6.1.1-1.3.2-2.9-.5-4.8-.5-1.5-1.2-2.5-1.8-3.1-2.7 0-3.7 1-4.2 1.6-1 1.3-.8 2.8-.7 6.9l-.2 5.6c.4.2 3.5 1.6 5.6-.1z" opacity=".75" class="Y W"/><path d="M329.4 224.6c-6.2 1.3-6 1.5-12.7 3-24.5 5.4-38.3 8.4-49.6 2.4-3.9-2.1-10.4-6.9-15.2-18.6.1-3.5-.1-8.6-2.2-14.2-1.7-4.5-2.8-4.5-5.8-11-1-2.4-3.5-7.7-5.2-15.1-1.5-5.8-.6-5-1.7-8.7-2.7-9.3-7.8-13.5-5.8-17.2.7-1 1.5-1.7 2.2-2.1 0-.1 3.1-2.2 7.5-1.2s5.6 4.9 10.4 12.5c8.9 14.1 12.3 12.8 14 20.4.9 3.6.8 7.2 3.8 11.3 2 2.8 5.1 5.3 5.7 4.7 1.2-1-4.3-10.4-7.2-15-8.1-12.9-11.1-12.4-19.2-25.1-2.1-3.1-4.4-7.1-8.9-12.1-3.5-3.8-3.9-3.4-6.8-6.7-2.7-3.1-10.7-12-8.9-20.4.3-1 .8-3 2.5-4.6 2.8-2.5 6.8-1.8 7.9-1.7 3.1.6 5.3 2.1 8.5 4.9 7 5.9 11.7 11.1 12.1 11.4 6.1 6.7 5.3 6.7 10.1 11.5 5.6 5.7 6.5 5.6 9.5 9.6 1.5 2 3.1 4.5 6.4 8.7.2.2 2.2 2.7 5.5 5 2.5 1.8 3.3 1.7 3.9 1.6 2.2-.6 2.7-4.7 2.7-5.4.5-4.5-1.5-6.4-8.2-19.4-1.9-3.4-3.1-6.1-6-8.7-2.3-2.1-4.3-3.2-5.5-3.7-3.5-1.5-8-5.4-11.6-15.8-.8-1.2-2.5-4.1-2.4-8.1.2-6.1 4.5-9.8 5.2-10.5 4.2-1.1 6.8-.4 8.5.4 3.8 1.8 3.9 4.8 9.2 10.3 3.6 3.6 7 6 7.3 5.7s-2.2-2.4-4.3-6.5c-1-2-2.1-4.2-2-7.2 0-1.5.1-4.5 2.2-6.4 2.9-2.6 7.5-1.4 8.3-1.2 2 .5 4.3 2.1 8.8 5.1 2.2 1.5 3.2 2.3 4.4 2 1.6-.5 1.5-2.6 3.5-3.9s4.5-.8 4.7-.7c2.9.7 3.7 3.4 7.4 7.5 2.1 2.2 3.1 2.8 5.2 4.6 1.6 1.4 4.9 4.5 12.9 17.7 4.3 7.1 6.5 10.6 7.9 13.9 2.8 6.8 2.3 8.3 5.2 18.5 3.5 12.3 5.5 13.6 7.9 23.3 1.9 7.3 2.6 13.7 2.9 18.4 1 3.4 1.7 7.1 2.2 11.4 1 8.1.4 15.1-.4 20.4-14.7.7-26.8 2.6-36.8 5z" opacity=".8" fill="#ffdab5" stroke="#f9bf98" class="W Z a"/><path d="M311.3 93.1l7.6 6.5 6 5c1.3.9 3.5 2.3 5.5 4.9.3.4.2.3.6.9 1.9 2.5 3.5 3.8 4.4 4.7 2.2 2.2 3.1 4.7 3.8 6.4.9 2.3.9 3.7 1.4 8.4l1.2 9.8c.5 3.2 1.3 7.6 2.9 13.2-.3-2.1-.8-5.3-1.2-9.3l-1-7.7c-1.9-13.9-2.9-16.1-3.5-17.2-1.2-2.1-2.8-4.1-4.7-6.3-1.4-1.7-2.8-3.3-4.6-5-2.1-1.9-2.8-2.1-5.7-4.4-2.3-1.8-3.8-3.1-4.9-4.2-2.5-2.3-6.6-5.7-13.5-11.1 1.5 1.5 3.5 3.3 5.7 5.4zm33.9 61.9c2 8.9 4.3 10.6 4.3 10.6-2.2-9.2-4.4-10.6-4.3-10.6zm-23 3.6c2 8.9 4.3 10.6 4.3 10.6-2.2-9.3-4.4-10.6-4.3-10.6zm-33.2 7.3c4.1 8.1 6.8 9.3 6.8 9.3-4.4-8.5-6.8-9.2-6.8-9.3z" class="X"/><path d="M320.9 90.4l-1.7-2.4c-1.2-1.5-1.8-2.3-2.7-2.9-.4-.3-2.3-1.2-3.8-.5-1.5.6-1.9 2.1-1.7 3.4.1.7.5 1.3.9 1.9.8 1.2 1.7 2.8 2.7 5 .7 0 1.9-.4 3.1-.9 1.9-1.2 2.8-2.8 3.2-3.6z" opacity=".75" class="W Y"/><path d="M265.1 171.4l21.1-15.6c-3.3-2.3-5.3-4.8-5.4-4.9-3.3-4.2-4.9-6.7-6.4-8.7-3-4-3.9-3.8-9.5-9.6-4.7-4.9-3.9-4.8-10.1-11.5-.3-.4-5.1-5.6-12.1-11.4-3.3-2.8-5.4-4.3-8.5-4.9-1.1-.1-5.1-.8-7.9 1.7-1.8 1.6-2.2 3.6-2.5 4.6-1.8 8.5 6.1 17.3 8.9 20.4 3 3.3 3.3 2.8 6.8 6.7 1.3 1.4 2.3 2.7 3.3 3.9 2.9 1.7 4.5 5.5 8.5 11.8 1.4 2.2 2.7 4.2 3.9 5.7 3.2 3.8 5.8 6.2 9.9 11.8z" opacity=".5" fill="#f9aa62" class="W"/><path d="M298.5 86.6c-.5-.6-1.2-1.1-2.1-2-1.1-1.1-2-1.7-3.1-2.2-.7-.3-3.6-1.3-5.6.7-1.2 1.2-1.8 3-1.7 4.4.1 1.5.7 2.6 1.8 4.1.4.6.9 1.2 1.7 2 1.2 1.2 1.8 1.8 2.2 1.9.5 0 .9-.5 3.5-3.1l1.3-1.4c1.5-1.8 2-3.8 2-4.4zm-58.6 25.3c-.5-.6-1.2-1.1-2.1-1.9-1.3-1-2-1.6-3.1-2.1-2.3-1-4.5-.1-5.3.3-.7.1-3.1 1.3-4.1 4.1-.2.7-.7 2.2 0 4.1.8 2.1 2.3 3.1 3.2 3.8s1.7 1.1 2.5 1.1c.8.1.9-.4 2.8-2 1.5-1.3 2.6-1.8 4.1-3.5 1.3-1.7 1.6-3.4 2-3.9zm37.8-17.2c-.3-.6-.8-1.4-1.4-2.4-.9-1.3-1.4-2.1-2.3-2.9-2.1-1.6-4.6-1.4-5.4-1.2-.7.1-3.6.5-5.5 3.1-.5.5-1.5 2-1.4 4.1.1 2.2 1.3 3.8 1.9 4.7.6 1 1.2 1.7 2 1.9.9.4 1-.1 3.5-1.2 2-.8 3.2-1.1 5.3-2.4 2-1.2 3-2.9 3.3-3.7zm-33.9 60c-1.5-1.7-2.7-3.3-3.4-4.4-2.3-3.5-3-4.8-4.6-5.3-.7-.2-2.1-.4-4.4 1.1-.2.8-.2 2.1.3 3.6.5 2 1.5 3.2 2.3 4.2 1.8 2.3 3.1 4 5 4 2.6.2 4.4-2.7 4.8-3.2z" opacity=".75" class="Y W"/><path d="M303.4 113.4c3.4 4 5.2 8.2 6.3 10.7 1.9 4.4 2.1 6.5 3.7 11.4 3.2 10.7 7.4 18 7.5 18 .2-.1-3.6-8.7-7.1-20.2-.2-.8-.2-.9-.5-1.6-1.9-6.4-3.2-10.5-6-14.7-3.2-4.9-7-7.8-8.4-8.9-1.2-.9-2.5-1.7-3.2-2.1-3.3-2-6.8-3.6-6.9-3.4-.1.3 8.3 3 14.6 10.8z" class="X"/><defs ><path id="B" d="M327.1 45h-17.7a2.65 2.65 0 0 1-2.6-2.6V26a2.65 2.65 0 0 1 2.6-2.6h17.7a2.65 2.65 0 0 1 2.6 2.6v16.4c0 1.5-1.2 2.6-2.6 2.6z"/><path id="C" d="M327.1 44.4h-17.7a2.65 2.65 0 0 1-2.6-2.6V25.4a2.65 2.65 0 0 1 2.6-2.6h17.7a2.65 2.65 0 0 1 2.6 2.6v16.4a2.65 2.65 0 0 1-2.6 2.6z"/><path id="D" d="M352.3 154.2h-17.7a2.65 2.65 0 0 1-2.6-2.6v-16.4a2.65 2.65 0 0 1 2.6-2.6h17.7a2.65 2.65 0 0 1 2.6 2.6v16.4c0 1.4-1.1 2.6-2.6 2.6z"/><path id="E" d="M276 154.2H119a2.65 2.65 0 0 1-2.6-2.6v-16.4a2.65 2.65 0 0 1 2.6-2.6h157a2.65 2.65 0 0 1 2.6 2.6v16.4a2.65 2.65 0 0 1-2.6 2.6z"/><path id="F" d="M111.1 154.2H93.4a2.65 2.65 0 0 1-2.6-2.6v-16.4a2.65 2.65 0 0 1 2.6-2.6h17.7a2.65 2.65 0 0 1 2.6 2.6v16.4c0 1.4-1.1 2.6-2.6 2.6z"/><path id="G" d="M60.3 154.2H35.4a2.65 2.65 0 0 1-2.6-2.6v-16.4a2.65 2.65 0 0 1 2.6-2.6h24.9a2.65 2.65 0 0 1 2.6 2.6v16.4c0 1.4-1.1 2.6-2.6 2.6z"/><path id="H" d="M306.4 127h-17.7a2.65 2.65 0 0 1-2.6-2.6V108a2.65 2.65 0 0 1 2.6-2.6h17.7a2.65 2.65 0 0 1 2.6 2.6v16.4c.1 1.4-1.1 2.6-2.6 2.6z"/><path id="I" d="M306.4 126.3h-17.7a2.65 2.65 0 0 1-2.6-2.6v-16.4a2.65 2.65 0 0 1 2.6-2.6h17.7a2.65 2.65 0 0 1 2.6 2.6v16.4c.1 1.4-1.1 2.6-2.6 2.6z"/><path id="J" d="M256.6 127h-17.7a2.65 2.65 0 0 1-2.6-2.6V108a2.65 2.65 0 0 1 2.6-2.6h17.7a2.65 2.65 0 0 1 2.6 2.6v16.4c0 1.4-1.1 2.6-2.6 2.6z"/><path id="K" d="M181.9 127h-17.7a2.65 2.65 0 0 1-2.6-2.6V108a2.65 2.65 0 0 1 2.6-2.6h17.7a2.65 2.65 0 0 1 2.6 2.6v16.4a2.65 2.65 0 0 1-2.6 2.6z"/><path id="L" d="M181.9 126.3h-17.7a2.65 2.65 0 0 1-2.6-2.6v-16.4a2.65 2.65 0 0 1 2.6-2.6h17.7a2.65 2.65 0 0 1 2.6 2.6v16.4a2.65 2.65 0 0 1-2.6 2.6z"/><path id="M" d="M326.8 99.4h-17.7a2.65 2.65 0 0 1-2.6-2.6V80.4a2.65 2.65 0 0 1 2.6-2.6h17.7a2.65 2.65 0 0 1 2.6 2.6v16.4c0 1.5-1.2 2.6-2.6 2.6z"/><path id="N" d="M326.8 98.8h-17.7a2.65 2.65 0 0 1-2.6-2.6V79.8a2.65 2.65 0 0 1 2.6-2.6h17.7a2.65 2.65 0 0 1 2.6 2.6v16.4a2.65 2.65 0 0 1-2.6 2.6z"/><path id="O" d="M301.5 99.4h-17.7a2.65 2.65 0 0 1-2.6-2.6V80.4a2.65 2.65 0 0 1 2.6-2.6h17.7a2.65 2.65 0 0 1 2.6 2.6v16.4c0 1.5-1.1 2.6-2.6 2.6z"/><path id="P" d="M301.5 98.8h-17.7a2.65 2.65 0 0 1-2.6-2.6V79.8a2.65 2.65 0 0 1 2.6-2.6h17.7a2.65 2.65 0 0 1 2.6 2.6v16.4c0 1.4-1.1 2.6-2.6 2.6z"/><path id="Q" d="M414.3 72.2h-36.7c-1.2 0-2.3-1-2.3-2.3v-17a2.26 2.26 0 0 1 2.3-2.3h36.7c1.2 0 2.3 1 2.3 2.3v17c-.1 1.3-1.1 2.3-2.3 2.3z"/><path id="R" d="M345.8 72.2h-17.7a2.65 2.65 0 0 1-2.6-2.6V53.2a2.65 2.65 0 0 1 2.6-2.6h17.7a2.65 2.65 0 0 1 2.6 2.6v16.4c0 1.5-1.2 2.6-2.6 2.6z"/><path id="S" d="M345.8 71.6h-17.7a2.65 2.65 0 0 1-2.6-2.6V52.6a2.65 2.65 0 0 1 2.6-2.6h17.7a2.65 2.65 0 0 1 2.6 2.6V69a2.65 2.65 0 0 1-2.6 2.6z"/><path id="T" d="M295.9 72.2h-17.7a2.65 2.65 0 0 1-2.6-2.6V53.2a2.65 2.65 0 0 1 2.6-2.6h17.7a2.65 2.65 0 0 1 2.6 2.6v16.4c.1 1.5-1.1 2.6-2.6 2.6z"/><path id="U" d="M295.9 71.6h-17.7a2.65 2.65 0 0 1-2.6-2.6V52.6a2.65 2.65 0 0 1 2.6-2.6h17.7a2.65 2.65 0 0 1 2.6 2.6V69c.1 1.4-1.1 2.6-2.6 2.6z"/><path id="V" d="M196.3 72.2h-17.7a2.65 2.65 0 0 1-2.6-2.6V53.2a2.65 2.65 0 0 1 2.6-2.6h17.7a2.65 2.65 0 0 1 2.6 2.6v16.4c0 1.5-1.1 2.6-2.6 2.6z"/><path id="W" d="M171.4 71.6h-17.7a2.65 2.65 0 0 1-2.6-2.6V52.6a2.65 2.65 0 0 1 2.6-2.6h17.7a2.65 2.65 0 0 1 2.6 2.6V69c0 1.4-1.1 2.6-2.6 2.6z"/><path id="X" d="M71.8 72.2H35.1c-1.2 0-2.3-1-2.3-2.3v-17a2.26 2.26 0 0 1 2.3-2.3h36.7a2.26 2.26 0 0 1 2.3 2.3v17a2.26 2.26 0 0 1-2.3 2.3z"/><path id="Y" d="M304.1 45h-17.7a2.65 2.65 0 0 1-2.6-2.6V26a2.65 2.65 0 0 1 2.6-2.6h17.7a2.65 2.65 0 0 1 2.6 2.6v16.4c.1 1.5-1.1 2.6-2.6 2.6z"/><path id="Z" d="M304.1 44.4h-17.7a2.65 2.65 0 0 1-2.6-2.6V25.4a2.65 2.65 0 0 1 2.6-2.6h17.7a2.65 2.65 0 0 1 2.6 2.6v16.4c.1 1.4-1.1 2.6-2.6 2.6z"/><path id="a" d="M178.6 45h-17.7a2.65 2.65 0 0 1-2.6-2.6V26a2.65 2.65 0 0 1 2.6-2.6h17.7a2.65 2.65 0 0 1 2.6 2.6v16.4c0 1.5-1.1 2.6-2.6 2.6z"/><path id="b" d="M178.6 44.4h-17.7a2.65 2.65 0 0 1-2.6-2.6V25.4a2.65 2.65 0 0 1 2.6-2.6h17.7a2.65 2.65 0 0 1 2.6 2.6v16.4c0 1.4-1.1 2.6-2.6 2.6z"/><path id="c" d="M85.9 154.2H68.2a2.65 2.65 0 0 1-2.6-2.6v-16.4a2.65 2.65 0 0 1 2.6-2.6h17.7a2.65 2.65 0 0 1 2.6 2.6v16.4a2.65 2.65 0 0 1-2.6 2.6z"/><path id="d" d="M413.9 154.2h-53.7a2.65 2.65 0 0 1-2.6-2.6v-16.4a2.65 2.65 0 0 1 2.6-2.6h53.7a2.65 2.65 0 0 1 2.6 2.6v16.4c0 1.4-1.1 2.6-2.6 2.6z"/></defs></svg>