<?xml version="1.0" encoding="utf-8"?>
<!-- Generator: Adobe Illustrator 21.1.0, SVG Export Plug-In . SVG Version: 6.00 Build 0)  -->
<svg version="1.1" id="Layer_1" xmlns="http://www.w3.org/2000/svg" xmlns:xlink="http://www.w3.org/1999/xlink" x="0px" y="0px"
	 viewBox="0 0 450 177" style="enable-background:new 0 0 450 177;" xml:space="preserve">
<style type="text/css">
	.st0{fill:#A3A5A8;}
	.st1{fill:#999999;}
	.st2{fill:#B3B3B3;}
	.st3{fill:#FFFFFF;}
	.st4{fill:#D1D5DB;}
	.st5{fill:#898B90;}
	.st6{fill:#54AF19;}
	.st7{fill:#444444;}
	.st8{enable-background:new    ;}
	.st9{fill:none;}
	.st10{font-family:'ArialMT';}
	.st11{font-size:5.8989px;}
	.st12{font-size:6px;}
	.st13{opacity:0.8;fill:#FFDAB5;stroke:#F9BF98;stroke-width:0.729;stroke-miterlimit:10;enable-background:new    ;}
	.st14{fill:#F9BF98;}
	.st15{opacity:0.75;fill:#FCF0EB;enable-background:new    ;}
	.st16{opacity:0.5;fill:#F9AA62;enable-background:new    ;}
	.st17{fill:#FCF0EB;}
	.st18{fill:#FFDAB5;stroke:#F9BF98;stroke-width:0.729;stroke-miterlimit:10;}
	.st19{opacity:0.8;fill:#FFDAB5;stroke:#F9BF98;stroke-width:0.7522;stroke-miterlimit:10;enable-background:new    ;}
</style>
<g>
	<path class="st0" d="M421.2,165.3H28.9c-4.9,0-8.9-3.6-8.9-8.1V20.1c0-4.5,4-8.1,8.9-8.1h392.2c4.9,0,8.9,3.6,8.9,8.1v137.2
		C430.1,161.8,426.1,165.3,421.2,165.3z"/>
</g>
<path class="st1" d="M357.5,44.5V22.6h55.8v21.9H357.5z"/>
<g>
	<path class="st2" d="M327.1,45h-17.7c-1.4,0-2.6-1.2-2.6-2.6V26c0-1.4,1.2-2.6,2.6-2.6h17.7c1.4,0,2.6,1.2,2.6,2.6v16.4
		C329.7,43.9,328.5,45,327.1,45z"/>
	<path class="st3" d="M327.1,44.4h-17.7c-1.4,0-2.6-1.2-2.6-2.6V25.4c0-1.4,1.2-2.6,2.6-2.6h17.7c1.4,0,2.6,1.2,2.6,2.6v16.4
		C329.7,43.2,328.5,44.4,327.1,44.4z"/>
</g>
<g>
	<path class="st4" d="M421.2,164H28.9c-4.9,0-8.9-3.6-8.9-8.1V18.7c0-4.5,4-8.1,8.9-8.1h392.2c4.9,0,8.9,3.6,8.9,8.1V156
		C430.1,160.5,426.1,164,421.2,164z"/>
</g>
<path class="st5" d="M352.3,154.2h-17.7c-1.4,0-2.6-1.2-2.6-2.6v-16.4c0-1.4,1.2-2.6,2.6-2.6h17.7c1.4,0,2.6,1.2,2.6,2.6v16.4
	C354.9,153,353.8,154.2,352.3,154.2z"/>
<path class="st3" d="M352.3,153.5h-17.7c-1.4,0-2.6-1.2-2.6-2.6v-16.4c0-1.4,1.2-2.6,2.6-2.6h17.7c1.4,0,2.6,1.2,2.6,2.6v16.4
	C354.9,152.3,353.8,153.5,352.3,153.5z"/>
<path class="st5" d="M301.5,154.2h-17.7c-1.4,0-2.6-1.2-2.6-2.6v-16.4c0-1.4,1.2-2.6,2.6-2.6h17.7c1.4,0,2.6,1.2,2.6,2.6v16.4
	C304.1,153,303,154.2,301.5,154.2z"/>
<path class="st3" d="M301.5,153.5h-17.7c-1.4,0-2.6-1.2-2.6-2.6v-16.4c0-1.4,1.2-2.6,2.6-2.6h17.7c1.4,0,2.6,1.2,2.6,2.6v16.4
	C304.1,152.3,303,153.5,301.5,153.5z"/>
<path class="st5" d="M276,154.2H119c-1.4,0-2.6-1.2-2.6-2.6v-16.4c0-1.4,1.2-2.6,2.6-2.6h157c1.4,0,2.6,1.2,2.6,2.6v16.4
	C278.6,153,277.4,154.2,276,154.2z"/>
<path class="st5" d="M111.1,154.2H93.4c-1.4,0-2.6-1.2-2.6-2.6v-16.4c0-1.4,1.2-2.6,2.6-2.6h17.7c1.4,0,2.6,1.2,2.6,2.6v16.4
	C113.7,153,112.6,154.2,111.1,154.2z"/>
<path class="st3" d="M111.1,153.5H93.4c-1.4,0-2.6-1.2-2.6-2.6v-16.4c0-1.4,1.2-2.6,2.6-2.6h17.7c1.4,0,2.6,1.2,2.6,2.6v16.4
	C113.7,152.3,112.6,153.5,111.1,153.5z"/>
<path class="st5" d="M60.3,154.2H35.4c-1.4,0-2.6-1.2-2.6-2.6v-16.4c0-1.4,1.2-2.6,2.6-2.6h24.9c1.4,0,2.6,1.2,2.6,2.6v16.4
	C62.9,153,61.8,154.2,60.3,154.2z"/>
<path class="st3" d="M60.3,153.5H35.4c-1.4,0-2.6-1.2-2.6-2.6v-16.4c0-1.4,1.2-2.6,2.6-2.6h24.9c1.4,0,2.6,1.2,2.6,2.6v16.4
	C62.9,152.3,61.8,153.5,60.3,153.5z"/>
<path class="st5" d="M413.9,127h-74.4c-1.4,0-2.6-1.2-2.6-2.6V108c0-1.4,1.2-2.6,2.6-2.6h74.4c1.4,0,2.6,1.2,2.6,2.6v16.4
	C416.5,125.8,415.4,127,413.9,127z"/>
<path class="st6" d="M413.9,126.3h-74.4c-1.4,0-2.6-1.2-2.6-2.6v-16.4c0-1.4,1.2-2.6,2.6-2.6h74.4c1.4,0,2.6,1.2,2.6,2.6v16.4
	C416.5,125.1,415.4,126.3,413.9,126.3z"/>
<path class="st5" d="M331.7,127H314c-1.4,0-2.6-1.2-2.6-2.6V108c0-1.4,1.2-2.6,2.6-2.6h17.7c1.4,0,2.6,1.2,2.6,2.6v16.4
	C334.3,125.8,333.1,127,331.7,127z"/>
<path class="st3" d="M331.7,126.3H314c-1.4,0-2.6-1.2-2.6-2.6v-16.4c0-1.4,1.2-2.6,2.6-2.6h17.7c1.4,0,2.6,1.2,2.6,2.6v16.4
	C334.3,125.1,333.1,126.3,331.7,126.3z"/>
<path class="st5" d="M306.4,127h-17.7c-1.4,0-2.6-1.2-2.6-2.6V108c0-1.4,1.2-2.6,2.6-2.6h17.7c1.4,0,2.6,1.2,2.6,2.6v16.4
	C309.1,125.8,307.9,127,306.4,127z"/>
<path class="st3" d="M306.4,126.3h-17.7c-1.4,0-2.6-1.2-2.6-2.6v-16.4c0-1.4,1.2-2.6,2.6-2.6h17.7c1.4,0,2.6,1.2,2.6,2.6v16.4
	C309.1,125.1,307.9,126.3,306.4,126.3z"/>
<path class="st5" d="M281.5,127h-17.7c-1.4,0-2.6-1.2-2.6-2.6V108c0-1.4,1.2-2.6,2.6-2.6h17.7c1.4,0,2.6,1.2,2.6,2.6v16.4
	C284.2,125.8,283,127,281.5,127z"/>
<path class="st3" d="M281.5,126.3h-17.7c-1.4,0-2.6-1.2-2.6-2.6v-16.4c0-1.4,1.2-2.6,2.6-2.6h17.7c1.4,0,2.6,1.2,2.6,2.6v16.4
	C284.2,125.1,283,126.3,281.5,126.3z"/>
<path class="st5" d="M256.6,127h-17.7c-1.4,0-2.6-1.2-2.6-2.6V108c0-1.4,1.2-2.6,2.6-2.6h17.7c1.4,0,2.6,1.2,2.6,2.6v16.4
	C259.2,125.8,258.1,127,256.6,127z"/>
<path class="st3" d="M256.6,126.3h-17.7c-1.4,0-2.6-1.2-2.6-2.6v-16.4c0-1.4,1.2-2.6,2.6-2.6h17.7c1.4,0,2.6,1.2,2.6,2.6v16.4
	C259.2,125.1,258.1,126.3,256.6,126.3z"/>
<path class="st5" d="M231.7,127H214c-1.4,0-2.6-1.2-2.6-2.6V108c0-1.4,1.2-2.6,2.6-2.6h17.7c1.4,0,2.6,1.2,2.6,2.6v16.4
	C234.3,125.8,233.2,127,231.7,127z"/>
<path class="st3" d="M231.7,126.3H214c-1.4,0-2.6-1.2-2.6-2.6v-16.4c0-1.4,1.2-2.6,2.6-2.6h17.7c1.4,0,2.6,1.2,2.6,2.6v16.4
	C234.3,125.1,233.2,126.3,231.7,126.3z"/>
<path class="st5" d="M206.8,127h-17.7c-1.4,0-2.6-1.2-2.6-2.6V108c0-1.4,1.2-2.6,2.6-2.6h17.7c1.4,0,2.6,1.2,2.6,2.6v16.4
	C209.4,125.8,208.3,127,206.8,127z"/>
<path class="st3" d="M206.8,126.3h-17.7c-1.4,0-2.6-1.2-2.6-2.6v-16.4c0-1.4,1.2-2.6,2.6-2.6h17.7c1.4,0,2.6,1.2,2.6,2.6v16.4
	C209.4,125.1,208.3,126.3,206.8,126.3z"/>
<path class="st5" d="M181.9,127h-17.7c-1.4,0-2.6-1.2-2.6-2.6V108c0-1.4,1.2-2.6,2.6-2.6h17.7c1.4,0,2.6,1.2,2.6,2.6v16.4
	C184.5,125.8,183.3,127,181.9,127z"/>
<path class="st3" d="M181.9,126.3h-17.7c-1.4,0-2.6-1.2-2.6-2.6v-16.4c0-1.4,1.2-2.6,2.6-2.6h17.7c1.4,0,2.6,1.2,2.6,2.6v16.4
	C184.5,125.1,183.3,126.3,181.9,126.3z"/>
<path class="st5" d="M157,127h-17.7c-1.4,0-2.6-1.2-2.6-2.6V108c0-1.4,1.2-2.6,2.6-2.6H157c1.4,0,2.6,1.2,2.6,2.6v16.4
	C159.6,125.8,158.4,127,157,127z"/>
<path class="st3" d="M157,126.3h-17.7c-1.4,0-2.6-1.2-2.6-2.6v-16.4c0-1.4,1.2-2.6,2.6-2.6H157c1.4,0,2.6,1.2,2.6,2.6v16.4
	C159.6,125.1,158.4,126.3,157,126.3z"/>
<path class="st5" d="M132.1,127h-17.7c-1.4,0-2.6-1.2-2.6-2.6V108c0-1.4,1.2-2.6,2.6-2.6h17.7c1.4,0,2.6,1.2,2.6,2.6v16.4
	C134.7,125.8,133.5,127,132.1,127z"/>
<path class="st3" d="M132.1,126.3h-17.7c-1.4,0-2.6-1.2-2.6-2.6v-16.4c0-1.4,1.2-2.6,2.6-2.6h17.7c1.4,0,2.6,1.2,2.6,2.6v16.4
	C134.7,125.1,133.5,126.3,132.1,126.3z"/>
<path class="st5" d="M107.2,127H89.5c-1.4,0-2.6-1.2-2.6-2.6V108c0-1.4,1.2-2.6,2.6-2.6h17.7c1.4,0,2.6,1.2,2.6,2.6v16.4
	C109.8,125.8,108.6,127,107.2,127z"/>
<path class="st3" d="M107.2,126.3H89.5c-1.4,0-2.6-1.2-2.6-2.6v-16.4c0-1.4,1.2-2.6,2.6-2.6h17.7c1.4,0,2.6,1.2,2.6,2.6v16.4
	C109.8,125.1,108.6,126.3,107.2,126.3z"/>
<path class="st5" d="M82.3,127H35.4c-1.4,0-2.6-1.2-2.6-2.6V108c0-1.4,1.2-2.6,2.6-2.6h46.9c1.4,0,2.6,1.2,2.6,2.6v16.4
	C84.9,125.8,83.7,127,82.3,127z"/>
<path class="st3" d="M82.3,126.3H35.4c-1.4,0-2.6-1.2-2.6-2.6v-16.4c0-1.4,1.2-2.6,2.6-2.6h46.9c1.4,0,2.6,1.2,2.6,2.6v16.4
	C84.9,125.1,83.7,126.3,82.3,126.3z"/>
<path class="st5" d="M413.9,99.4h-54.4c-1.4,0-2.6-1.2-2.6-2.6V80.4c0-1.4,1.2-2.6,2.6-2.6h54.4c1.4,0,2.6,1.2,2.6,2.6v16.4
	C416.5,98.3,415.4,99.4,413.9,99.4z"/>
<path class="st3" d="M413.9,98.8h-54.4c-1.4,0-2.6-1.2-2.6-2.6V79.8c0-1.4,1.2-2.6,2.6-2.6h54.4c1.4,0,2.6,1.2,2.6,2.6v16.4
	C416.5,97.6,415.4,98.8,413.9,98.8z"/>
<path class="st5" d="M352,99.4h-17.7c-1.4,0-2.6-1.2-2.6-2.6V80.4c0-1.4,1.2-2.6,2.6-2.6H352c1.4,0,2.6,1.2,2.6,2.6v16.4
	C354.6,98.3,353.4,99.4,352,99.4z"/>
<path class="st3" d="M352,98.8h-17.7c-1.4,0-2.6-1.2-2.6-2.6V79.8c0-1.4,1.2-2.6,2.6-2.6H352c1.4,0,2.6,1.2,2.6,2.6v16.4
	C354.6,97.6,353.4,98.8,352,98.8z"/>
<path class="st5" d="M326.8,99.4h-17.7c-1.4,0-2.6-1.2-2.6-2.6V80.4c0-1.4,1.2-2.6,2.6-2.6h17.7c1.4,0,2.6,1.2,2.6,2.6v16.4
	C329.4,98.3,328.2,99.4,326.8,99.4z"/>
<path class="st3" d="M326.8,98.8h-17.7c-1.4,0-2.6-1.2-2.6-2.6V79.8c0-1.4,1.2-2.6,2.6-2.6h17.7c1.4,0,2.6,1.2,2.6,2.6v16.4
	C329.4,97.6,328.2,98.8,326.8,98.8z"/>
<path class="st5" d="M301.5,99.4h-17.7c-1.4,0-2.6-1.2-2.6-2.6V80.4c0-1.4,1.2-2.6,2.6-2.6h17.7c1.4,0,2.6,1.2,2.6,2.6v16.4
	C304.1,98.3,303,99.4,301.5,99.4z"/>
<path class="st3" d="M301.5,98.8h-17.7c-1.4,0-2.6-1.2-2.6-2.6V79.8c0-1.4,1.2-2.6,2.6-2.6h17.7c1.4,0,2.6,1.2,2.6,2.6v16.4
	C304.1,97.6,303,98.8,301.5,98.8z"/>
<path class="st5" d="M276.6,99.4h-17.7c-1.4,0-2.6-1.2-2.6-2.6V80.4c0-1.4,1.2-2.6,2.6-2.6h17.7c1.4,0,2.6,1.2,2.6,2.6v16.4
	C279.2,98.3,278.1,99.4,276.6,99.4z"/>
<path class="st3" d="M276.6,98.8h-17.7c-1.4,0-2.6-1.2-2.6-2.6V79.8c0-1.4,1.2-2.6,2.6-2.6h17.7c1.4,0,2.6,1.2,2.6,2.6v16.4
	C279.2,97.6,278.1,98.8,276.6,98.8z"/>
<path class="st5" d="M251.7,99.4H234c-1.4,0-2.6-1.2-2.6-2.6V80.4c0-1.4,1.2-2.6,2.6-2.6h17.7c1.4,0,2.6,1.2,2.6,2.6v16.4
	C254.3,98.3,253.1,99.4,251.7,99.4z"/>
<path class="st3" d="M251.7,98.8H234c-1.4,0-2.6-1.2-2.6-2.6V79.8c0-1.4,1.2-2.6,2.6-2.6h17.7c1.4,0,2.6,1.2,2.6,2.6v16.4
	C254.3,97.6,253.1,98.8,251.7,98.8z"/>
<path class="st5" d="M201.9,99.4h-17.7c-1.4,0-2.6-1.2-2.6-2.6V80.4c0-1.4,1.2-2.6,2.6-2.6h17.7c1.4,0,2.6,1.2,2.6,2.6v16.4
	C204.5,98.3,203.3,99.4,201.9,99.4z"/>
<path class="st3" d="M201.9,98.8h-17.7c-1.4,0-2.6-1.2-2.6-2.6V79.8c0-1.4,1.2-2.6,2.6-2.6h17.7c1.4,0,2.6,1.2,2.6,2.6v16.4
	C204.5,97.6,203.3,98.8,201.9,98.8z"/>
<path class="st5" d="M226.8,99.4h-17.7c-1.4,0-2.6-1.2-2.6-2.6V80.4c0-1.4,1.2-2.6,2.6-2.6h17.7c1.4,0,2.6,1.2,2.6,2.6v16.4
	C229.4,98.3,228.2,99.4,226.8,99.4z"/>
<path class="st3" d="M226.8,98.8h-17.7c-1.4,0-2.6-1.2-2.6-2.6V79.8c0-1.4,1.2-2.6,2.6-2.6h17.7c1.4,0,2.6,1.2,2.6,2.6v16.4
	C229.4,97.6,228.2,98.8,226.8,98.8z"/>
<path class="st5" d="M177,99.4h-17.7c-1.4,0-2.6-1.2-2.6-2.6V80.4c0-1.4,1.2-2.6,2.6-2.6H177c1.4,0,2.6,1.2,2.6,2.6v16.4
	C179.6,98.3,178.4,99.4,177,99.4z"/>
<path class="st3" d="M177,98.8h-17.7c-1.4,0-2.6-1.2-2.6-2.6V79.8c0-1.4,1.2-2.6,2.6-2.6H177c1.4,0,2.6,1.2,2.6,2.6v16.4
	C179.6,97.6,178.4,98.8,177,98.8z"/>
<path class="st5" d="M152.1,99.4h-17.7c-1.4,0-2.6-1.2-2.6-2.6V80.4c0-1.4,1.2-2.6,2.6-2.6h17.7c1.4,0,2.6,1.2,2.6,2.6v16.4
	C154.7,98.3,153.5,99.4,152.1,99.4z"/>
<path class="st3" d="M152.1,98.8h-17.7c-1.4,0-2.6-1.2-2.6-2.6V79.8c0-1.4,1.2-2.6,2.6-2.6h17.7c1.4,0,2.6,1.2,2.6,2.6v16.4
	C154.7,97.6,153.5,98.8,152.1,98.8z"/>
<path class="st5" d="M126.8,99.4h-17.7c-1.4,0-2.6-1.2-2.6-2.6V80.4c0-1.4,1.2-2.6,2.6-2.6h17.7c1.4,0,2.6,1.2,2.6,2.6v16.4
	C129.5,98.3,128.3,99.4,126.8,99.4z"/>
<path class="st3" d="M126.8,98.8h-17.7c-1.4,0-2.6-1.2-2.6-2.6V79.8c0-1.4,1.2-2.6,2.6-2.6h17.7c1.4,0,2.6,1.2,2.6,2.6v16.4
	C129.5,97.6,128.3,98.8,126.8,98.8z"/>
<path class="st5" d="M101.6,99.4H83.9c-1.4,0-2.6-1.2-2.6-2.6V80.4c0-1.4,1.2-2.6,2.6-2.6h17.7c1.4,0,2.6,1.2,2.6,2.6v16.4
	C104.2,98.3,103.1,99.4,101.6,99.4z"/>
<path class="st3" d="M101.6,98.8H83.9c-1.4,0-2.6-1.2-2.6-2.6V79.8c0-1.4,1.2-2.6,2.6-2.6h17.7c1.4,0,2.6,1.2,2.6,2.6v16.4
	C104.2,97.6,103.1,98.8,101.6,98.8z"/>
<path class="st5" d="M76.7,99.4H35.1c-1.2,0-2.3-1-2.3-2.3v-17c0-1.3,1-2.3,2.3-2.3h41.6c1.3,0,2.3,1,2.3,2.3v17.1
	C79,98.4,78,99.4,76.7,99.4z"/>
<path class="st3" d="M76.7,98.8H35.1c-1.2,0-2.3-1-2.3-2.3V79.4c0-1.3,1-2.3,2.3-2.3h41.6c1.3,0,2.3,1,2.3,2.3v17.1
	C79,97.8,78,98.8,76.7,98.8z"/>
<path class="st5" d="M414.3,72.2h-36.7c-1.2,0-2.3-1-2.3-2.3v-17c0-1.3,1-2.3,2.3-2.3h36.7c1.2,0,2.3,1,2.3,2.3v17
	C416.5,71.2,415.5,72.2,414.3,72.2z"/>
<path class="st3" d="M414.3,71.6h-36.7c-1.2,0-2.3-1-2.3-2.3v-17c0-1.3,1-2.3,2.3-2.3h36.7c1.2,0,2.3,1,2.3,2.3v17
	C416.5,70.6,415.5,71.6,414.3,71.6z"/>
<path class="st5" d="M370.7,72.2H353c-1.4,0-2.6-1.2-2.6-2.6V53.2c0-1.4,1.2-2.6,2.6-2.6h17.7c1.4,0,2.6,1.2,2.6,2.6v16.4
	C373.3,71.1,372.1,72.2,370.7,72.2z"/>
<path class="st3" d="M370.7,71.6H353c-1.4,0-2.6-1.2-2.6-2.6V52.6c0-1.4,1.2-2.6,2.6-2.6h17.7c1.4,0,2.6,1.2,2.6,2.6V69
	C373.3,70.4,372.1,71.6,370.7,71.6z"/>
<path class="st5" d="M345.8,72.2h-17.7c-1.4,0-2.6-1.2-2.6-2.6V53.2c0-1.4,1.2-2.6,2.6-2.6h17.7c1.4,0,2.6,1.2,2.6,2.6v16.4
	C348.4,71.1,347.2,72.2,345.8,72.2z"/>
<path class="st3" d="M345.8,71.6h-17.7c-1.4,0-2.6-1.2-2.6-2.6V52.6c0-1.4,1.2-2.6,2.6-2.6h17.7c1.4,0,2.6,1.2,2.6,2.6V69
	C348.4,70.4,347.2,71.6,345.8,71.6z"/>
<path class="st5" d="M320.9,72.2h-17.7c-1.4,0-2.6-1.2-2.6-2.6V53.2c0-1.4,1.2-2.6,2.6-2.6h17.7c1.4,0,2.6,1.2,2.6,2.6v16.4
	C323.5,71.1,322.3,72.2,320.9,72.2z"/>
<path class="st3" d="M320.9,71.6h-17.7c-1.4,0-2.6-1.2-2.6-2.6V52.6c0-1.4,1.2-2.6,2.6-2.6h17.7c1.4,0,2.6,1.2,2.6,2.6V69
	C323.5,70.4,322.3,71.6,320.9,71.6z"/>
<path class="st5" d="M295.9,72.2h-17.7c-1.4,0-2.6-1.2-2.6-2.6V53.2c0-1.4,1.2-2.6,2.6-2.6h17.7c1.4,0,2.6,1.2,2.6,2.6v16.4
	C298.6,71.1,297.4,72.2,295.9,72.2z"/>
<path class="st3" d="M295.9,71.7h-17.7c-1.4,0-2.6-1.2-2.6-2.6V52.7c0-1.4,1.2-2.6,2.6-2.6h17.7c1.4,0,2.6,1.2,2.6,2.6v16.4
	C298.6,70.5,297.4,71.7,295.9,71.7z"/>
<path class="st5" d="M271,72.2h-17.7c-1.4,0-2.6-1.2-2.6-2.6V53.2c0-1.4,1.2-2.6,2.6-2.6H271c1.4,0,2.6,1.2,2.6,2.6v16.4
	C273.7,71.1,272.5,72.2,271,72.2z"/>
<path class="st3" d="M271,71.6h-17.7c-1.4,0-2.6-1.2-2.6-2.6V52.6c0-1.4,1.2-2.6,2.6-2.6H271c1.4,0,2.6,1.2,2.6,2.6V69
	C273.7,70.4,272.5,71.6,271,71.6z"/>
<path class="st5" d="M246.1,72.2h-17.7c-1.4,0-2.6-1.2-2.6-2.6V53.2c0-1.4,1.2-2.6,2.6-2.6h17.7c1.4,0,2.6,1.2,2.6,2.6v16.4
	C248.8,71.1,247.6,72.2,246.1,72.2z"/>
<path class="st3" d="M246.1,71.6h-17.7c-1.4,0-2.6-1.2-2.6-2.6V52.6c0-1.4,1.2-2.6,2.6-2.6h17.7c1.4,0,2.6,1.2,2.6,2.6V69
	C248.8,70.4,247.6,71.6,246.1,71.6z"/>
<path class="st5" d="M221.2,72.2h-17.7c-1.4,0-2.6-1.2-2.6-2.6V53.2c0-1.4,1.2-2.6,2.6-2.6h17.7c1.4,0,2.6,1.2,2.6,2.6v16.4
	C223.9,71.1,222.7,72.2,221.2,72.2z"/>
<path class="st3" d="M221.2,71.6h-17.7c-1.4,0-2.6-1.2-2.6-2.6V52.6c0-1.4,1.2-2.6,2.6-2.6h17.7c1.4,0,2.6,1.2,2.6,2.6V69
	C223.9,70.4,222.7,71.6,221.2,71.6z"/>
<path class="st5" d="M196.3,72.2h-17.7c-1.4,0-2.6-1.2-2.6-2.6V53.2c0-1.4,1.2-2.6,2.6-2.6h17.7c1.4,0,2.6,1.2,2.6,2.6v16.4
	C198.9,71.1,197.8,72.2,196.3,72.2z"/>
<path class="st3" d="M196.3,71.6h-17.7c-1.4,0-2.6-1.2-2.6-2.6V52.6c0-1.4,1.2-2.6,2.6-2.6h17.7c1.4,0,2.6,1.2,2.6,2.6V69
	C198.9,70.4,197.8,71.6,196.3,71.6z"/>
<path class="st5" d="M171.4,72.2h-17.7c-1.4,0-2.6-1.2-2.6-2.6V53.2c0-1.4,1.2-2.6,2.6-2.6h17.7c1.4,0,2.6,1.2,2.6,2.6v16.4
	C174,71.1,172.9,72.2,171.4,72.2z"/>
<path class="st3" d="M171.4,71.6h-17.7c-1.4,0-2.6-1.2-2.6-2.6V52.6c0-1.4,1.2-2.6,2.6-2.6h17.7c1.4,0,2.6,1.2,2.6,2.6V69
	C174,70.4,172.9,71.6,171.4,71.6z"/>
<path class="st5" d="M146.5,72.2h-17.7c-1.4,0-2.6-1.2-2.6-2.6V53.2c0-1.4,1.2-2.6,2.6-2.6h17.7c1.4,0,2.6,1.2,2.6,2.6v16.4
	C149.1,71.1,148,72.2,146.5,72.2z"/>
<path class="st3" d="M146.5,71.6h-17.7c-1.4,0-2.6-1.2-2.6-2.6V52.6c0-1.4,1.2-2.6,2.6-2.6h17.7c1.4,0,2.6,1.2,2.6,2.6V69
	C149.1,70.4,148,71.6,146.5,71.6z"/>
<path class="st5" d="M121.3,72.2h-17.7c-1.4,0-2.6-1.2-2.6-2.6V53.2c0-1.4,1.2-2.6,2.6-2.6h17.7c1.4,0,2.6,1.2,2.6,2.6v16.4
	C123.9,71.1,122.7,72.2,121.3,72.2z"/>
<path class="st3" d="M121.3,71.6h-17.7c-1.4,0-2.6-1.2-2.6-2.6V52.6c0-1.4,1.2-2.6,2.6-2.6h17.7c1.4,0,2.6,1.2,2.6,2.6V69
	C123.9,70.4,122.7,71.6,121.3,71.6z"/>
<path class="st5" d="M71.8,72.2H35.1c-1.2,0-2.3-1-2.3-2.3v-17c0-1.3,1-2.3,2.3-2.3h36.7c1.3,0,2.3,1,2.3,2.3v17
	C74.1,71.2,73.1,72.2,71.8,72.2z"/>
<path class="st3" d="M71.8,71.6H35.1c-1.2,0-2.3-1-2.3-2.3v-17c0-1.3,1-2.3,2.3-2.3h36.7c1.3,0,2.3,1,2.3,2.3v17
	C74.1,70.6,73.1,71.6,71.8,71.6z"/>
<path class="st5" d="M96.4,72.2H78.7c-1.4,0-2.6-1.2-2.6-2.6V53.2c0-1.4,1.2-2.6,2.6-2.6h17.7c1.4,0,2.6,1.2,2.6,2.6v16.4
	C99,71.1,97.8,72.2,96.4,72.2z"/>
<path class="st3" d="M96.4,71.6H78.7c-1.4,0-2.6-1.2-2.6-2.6V52.6c0-1.4,1.2-2.6,2.6-2.6h17.7c1.4,0,2.6,1.2,2.6,2.6V69
	C99,70.4,97.8,71.6,96.4,71.6z"/>
<path class="st5" d="M413.9,45h-51.1c-1.4,0-2.6-1.2-2.6-2.6V25.7c0-1.4,1.2-2.6,2.6-2.6h51.1c1.4,0,2.6,1.2,2.6,2.6v16.7
	C416.5,43.9,415.4,45,413.9,45z"/>
<path class="st3" d="M413.9,44.4h-51.1c-1.4,0-2.6-1.2-2.6-2.6V25c0-1.4,1.2-2.6,2.6-2.6h51.1c1.4,0,2.6,1.2,2.6,2.6v16.7
	C416.5,43.2,415.4,44.4,413.9,44.4z"/>
<path class="st5" d="M329.4,45h-17.7c-1.4,0-2.6-1.2-2.6-2.6V26c0-1.4,1.2-2.6,2.6-2.6h17.7c1.4,0,2.6,1.2,2.6,2.6v16.4
	C332,43.9,330.8,45,329.4,45z"/>
<path class="st3" d="M329.4,44.4h-17.7c-1.4,0-2.6-1.2-2.6-2.6V25.4c0-1.4,1.2-2.6,2.6-2.6h17.7c1.4,0,2.6,1.2,2.6,2.6v16.4
	C332,43.2,330.8,44.4,329.4,44.4z"/>
<path class="st5" d="M278.9,45h-17.7c-1.4,0-2.6-1.2-2.6-2.6V26c0-1.4,1.2-2.6,2.6-2.6h17.7c1.4,0,2.6,1.2,2.6,2.6v16.4
	C281.5,43.9,280.3,45,278.9,45z"/>
<path class="st3" d="M278.9,44.4h-17.7c-1.4,0-2.6-1.2-2.6-2.6V25.4c0-1.4,1.2-2.6,2.6-2.6h17.7c1.4,0,2.6,1.2,2.6,2.6v16.4
	C281.5,43.2,280.3,44.4,278.9,44.4z"/>
<path class="st5" d="M304.1,45h-17.7c-1.4,0-2.6-1.2-2.6-2.6V26c0-1.4,1.2-2.6,2.6-2.6h17.7c1.4,0,2.6,1.2,2.6,2.6v16.4
	C306.8,43.9,305.6,45,304.1,45z"/>
<path class="st3" d="M304.1,44.4h-17.7c-1.4,0-2.6-1.2-2.6-2.6V25.4c0-1.4,1.2-2.6,2.6-2.6h17.7c1.4,0,2.6,1.2,2.6,2.6v16.4
	C306.8,43.2,305.6,44.4,304.1,44.4z"/>
<path class="st5" d="M253.7,45H236c-1.4,0-2.6-1.2-2.6-2.6V26c0-1.4,1.2-2.6,2.6-2.6h17.7c1.4,0,2.6,1.2,2.6,2.6v16.4
	C256.3,43.9,255.1,45,253.7,45z"/>
<path class="st3" d="M253.7,44.4H236c-1.4,0-2.6-1.2-2.6-2.6V25.4c0-1.4,1.2-2.6,2.6-2.6h17.7c1.4,0,2.6,1.2,2.6,2.6v16.4
	C256.3,43.2,255.1,44.4,253.7,44.4z"/>
<path class="st5" d="M228.8,45h-17.7c-1.4,0-2.6-1.2-2.6-2.6V26c0-1.4,1.2-2.6,2.6-2.6h17.7c1.4,0,2.6,1.2,2.6,2.6v16.4
	C231.4,43.9,230.2,45,228.8,45z"/>
<path class="st3" d="M228.8,44.4h-17.7c-1.4,0-2.6-1.2-2.6-2.6V25.4c0-1.4,1.2-2.6,2.6-2.6h17.7c1.4,0,2.6,1.2,2.6,2.6v16.4
	C231.4,43.2,230.2,44.4,228.8,44.4z"/>
<path class="st5" d="M203.5,45h-17.7c-1.4,0-2.6-1.2-2.6-2.6V26c0-1.4,1.2-2.6,2.6-2.6h17.7c1.4,0,2.6,1.2,2.6,2.6v16.4
	C206.2,43.9,205,45,203.5,45z"/>
<path class="st3" d="M203.5,44.4h-17.7c-1.4,0-2.6-1.2-2.6-2.6V25.4c0-1.4,1.2-2.6,2.6-2.6h17.7c1.4,0,2.6,1.2,2.6,2.6v16.4
	C206.2,43.2,205,44.4,203.5,44.4z"/>
<path class="st5" d="M178.6,45h-17.7c-1.4,0-2.6-1.2-2.6-2.6V26c0-1.4,1.2-2.6,2.6-2.6h17.7c1.4,0,2.6,1.2,2.6,2.6v16.4
	C181.2,43.9,180.1,45,178.6,45z"/>
<path class="st3" d="M178.6,44.4h-17.7c-1.4,0-2.6-1.2-2.6-2.6V25.4c0-1.4,1.2-2.6,2.6-2.6h17.7c1.4,0,2.6,1.2,2.6,2.6v16.4
	C181.2,43.2,180.1,44.4,178.6,44.4z"/>
<path class="st5" d="M153.7,45H136c-1.4,0-2.6-1.2-2.6-2.6V26c0-1.4,1.2-2.6,2.6-2.6h17.7c1.4,0,2.6,1.2,2.6,2.6v16.4
	C156.3,43.9,155.2,45,153.7,45z"/>
<path class="st3" d="M153.7,44.4H136c-1.4,0-2.6-1.2-2.6-2.6V25.4c0-1.4,1.2-2.6,2.6-2.6h17.7c1.4,0,2.6,1.2,2.6,2.6v16.4
	C156.3,43.2,155.2,44.4,153.7,44.4z"/>
<path class="st5" d="M128.8,45h-17.7c-1.4,0-2.6-1.2-2.6-2.6V26c0-1.4,1.2-2.6,2.6-2.6h17.7c1.4,0,2.6,1.2,2.6,2.6v16.4
	C131.4,43.9,130.3,45,128.8,45z"/>
<path class="st3" d="M128.8,44.4h-17.7c-1.4,0-2.6-1.2-2.6-2.6V25.4c0-1.4,1.2-2.6,2.6-2.6h17.7c1.4,0,2.6,1.2,2.6,2.6v16.4
	C131.4,43.2,130.3,44.4,128.8,44.4z"/>
<path class="st5" d="M103.6,45H85.9c-1.4,0-2.6-1.2-2.6-2.6V26c0-1.4,1.2-2.6,2.6-2.6h17.7c1.4,0,2.6,1.2,2.6,2.6v16.4
	C106.2,43.9,105,45,103.6,45z"/>
<path class="st3" d="M103.6,44.4H85.9c-1.4,0-2.6-1.2-2.6-2.6V25.4c0-1.4,1.2-2.6,2.6-2.6h17.7c1.4,0,2.6,1.2,2.6,2.6v16.4
	C106.2,43.2,105,44.4,103.6,44.4z"/>
<path class="st5" d="M78.3,45H60.6c-1.4,0-2.6-1.2-2.6-2.6V26c0-1.4,1.2-2.6,2.6-2.6h17.7c1.4,0,2.6,1.2,2.6,2.6v16.4
	C81,43.9,79.8,45,78.3,45z"/>
<path class="st3" d="M78.3,44.4H60.6c-1.4,0-2.6-1.2-2.6-2.6V25.4c0-1.4,1.2-2.6,2.6-2.6h17.7c1.4,0,2.6,1.2,2.6,2.6v16.4
	C81,43.2,79.8,44.4,78.3,44.4z"/>
<path class="st5" d="M53.1,45H35.4c-1.4,0-2.6-1.2-2.6-2.6V26c0-1.4,1.2-2.6,2.6-2.6h17.7c1.4,0,2.6,1.2,2.6,2.6v16.4
	C55.7,43.9,54.6,45,53.1,45z"/>
<path class="st6" d="M53.1,44.4H35.4c-1.4,0-2.6-1.2-2.6-2.6V25.4c0-1.4,1.2-2.6,2.6-2.6h17.7c1.4,0,2.6,1.2,2.6,2.6v16.4
	C55.7,43.2,54.6,44.4,53.1,44.4z"/>
<g>
	<path class="st7" d="M69.7,32c0-0.1,0-0.2,0.1-0.2c0.1-0.1,0.1-0.1,0.2-0.1s0.2,0,0.2,0.1c0.1,0.1,0.1,0.1,0.1,0.2
		c0,0.1,0,0.2-0.1,0.2c-0.1,0.1-0.1,0.1-0.2,0.1s-0.2,0-0.2-0.1C69.7,32,69.7,32,69.7,32z M70.2,30.9h-0.6v-3.2h0.6V30.9z"/>
	<path class="st7" d="M70.4,39.9h-0.6V36l-1.1,0.4v-0.6l1.7-0.6h0.1L70.4,39.9L70.4,39.9z"/>
</g>
<path class="st5" d="M354.9,45h-17.7c-1.4,0-2.6-1.2-2.6-2.6V26c0-1.4,1.2-2.6,2.6-2.6h17.7c1.4,0,2.6,1.2,2.6,2.6v16.4
	C357.6,43.9,356.4,45,354.9,45z"/>
<path class="st3" d="M354.9,44.4h-17.7c-1.4,0-2.6-1.2-2.6-2.6V25.4c0-1.4,1.2-2.6,2.6-2.6h17.7c1.4,0,2.6,1.2,2.6,2.6v16.4
	C357.6,43.2,356.4,44.4,354.9,44.4z"/>
<g class="st8">
	<path class="st9" d="M246,113.6l1.4,3.8l1.4-3.8h0.8v4.6H249v-1.8l0.1-1.9l-1.4,3.7h-0.4l-1.4-3.7l0.1,1.9v1.8h-0.6v-4.6H246z"/>
</g>
<path class="st5" d="M85.9,154.2H68.2c-1.4,0-2.6-1.2-2.6-2.6v-16.4c0-1.4,1.2-2.6,2.6-2.6h17.7c1.4,0,2.6,1.2,2.6,2.6v16.4
	C88.5,153,87.3,154.2,85.9,154.2z"/>
<path class="st3" d="M85.9,153.5H68.2c-1.4,0-2.6-1.2-2.6-2.6v-16.4c0-1.4,1.2-2.6,2.6-2.6h17.7c1.4,0,2.6,1.2,2.6,2.6v16.4
	C88.5,152.3,87.3,153.5,85.9,153.5z"/>
<path class="st3" d="M276,153.5H119c-1.4,0-2.6-1.2-2.6-2.6v-16.4c0-1.4,1.2-2.6,2.6-2.6h157c1.4,0,2.6,1.2,2.6,2.6v16.4
	C278.6,152.3,277.4,153.5,276,153.5z"/>
<path class="st5" d="M326.8,154.2h-17.7c-1.4,0-2.6-1.2-2.6-2.6v-16.4c0-1.4,1.2-2.6,2.6-2.6h17.7c1.4,0,2.6,1.2,2.6,2.6v16.4
	C329.4,153,328.2,154.2,326.8,154.2z"/>
<path class="st3" d="M326.8,153.5h-17.7c-1.4,0-2.6-1.2-2.6-2.6v-16.4c0-1.4,1.2-2.6,2.6-2.6h17.7c1.4,0,2.6,1.2,2.6,2.6v16.4
	C329.4,152.3,328.2,153.5,326.8,153.5z"/>
<path class="st5" d="M413.9,154.2h-53.7c-1.4,0-2.6-1.2-2.6-2.6v-16.4c0-1.4,1.2-2.6,2.6-2.6h53.7c1.4,0,2.6,1.2,2.6,2.6v16.4
	C416.5,153,415.4,154.2,413.9,154.2z"/>
<path class="st3" d="M413.9,153.5h-53.7c-1.4,0-2.6-1.2-2.6-2.6v-16.4c0-1.4,1.2-2.6,2.6-2.6h53.7c1.4,0,2.6,1.2,2.6,2.6v16.4
	C416.5,152.3,415.4,153.5,413.9,153.5z"/>
<g>
	<path class="st7" d="M42.5,30.5c0-0.7,0.3-1,0.8-1c0.3,0,0.5,0.1,0.8,0.3c0.3,0.1,0.5,0.2,0.7,0.2s0.3-0.2,0.3-0.5h0.5
		c0,0.8-0.3,1-0.8,1c-0.3,0-0.5-0.1-0.9-0.3c-0.3-0.1-0.5-0.3-0.6-0.3c-0.2,0-0.3,0.1-0.3,0.5L42.5,30.5L42.5,30.5z"/>
	<path class="st7" d="M43.9,35.8l0.5,0.9h-0.5l-0.7-0.9H43.9z"/>
</g>
<g>
	<path class="st7" d="M95.4,32.1c-0.3,0.2-0.7,0.2-1.1,0.2c-1,0-1.8-0.7-1.8-1.9c0-1.2,0.9-2.3,2.2-2.3c1,0,1.7,0.7,1.7,1.7
		c0,0.9-0.5,1.4-1.1,1.4c-0.3,0-0.5-0.2-0.5-0.5l0,0c-0.2,0.3-0.5,0.5-0.8,0.5c-0.4,0-0.7-0.3-0.7-0.8c0-0.7,0.6-1.4,1.4-1.4
		c0.3,0,0.5,0.1,0.7,0.1l-0.2,1.1c-0.1,0.4,0,0.6,0.2,0.6c0.3,0,0.6-0.4,0.6-1c0-0.8-0.5-1.4-1.4-1.4s-1.7,0.7-1.7,1.9
		c0,1,0.6,1.6,1.5,1.6c0.3,0,0.6-0.1,0.9-0.2L95.4,32.1z M95,29.6c-0.1,0-0.1,0-0.2,0c-0.5,0-0.8,0.4-0.8,1c0,0.2,0.1,0.4,0.3,0.4
		c0.3,0,0.6-0.4,0.6-0.7L95,29.6z"/>
	<path class="st7" d="M93.2,39.9v-0.5l0.5-0.4c0.9-0.9,1.3-1.3,1.3-1.8c0-0.3-0.2-0.7-0.7-0.7c-0.3,0-0.6,0.2-0.8,0.3l-0.2-0.5
		c0.3-0.2,0.7-0.4,1.2-0.4c0.9,0,1.3,0.5,1.3,1.1c0,0.7-0.5,1.2-1.1,1.8l-0.3,0.3l0,0H96v0.6L93.2,39.9L93.2,39.9L93.2,39.9z"/>
</g>
<g>
	<path class="st7" d="M119,31.7l0.2-1.1h-0.5v-0.5h0.6l0.1-0.8h-0.5v-0.5h0.6l0.2-1.1h0.5l-0.1,1.1h0.6l0.2-1.1h0.5l-0.2,1.1h0.5
		v0.5h-0.6l-0.1,0.8h0.5v0.5h-0.6l-0.2,1.1h-0.5l0.2-1.1h-0.6l-0.2,1.1H119L119,31.7z M120.3,30.1l0.1-0.8h-0.6l-0.1,0.8H120.3z"/>
	<path class="st7" d="M118.9,39.1c0.2,0.1,0.5,0.2,0.9,0.2c0.6,0,0.8-0.3,0.8-0.6c0-0.5-0.4-0.7-0.9-0.7h-0.3v-0.5h0.3
		c0.3,0,0.8-0.2,0.8-0.5s-0.2-0.5-0.6-0.5c-0.3,0-0.6,0.1-0.8,0.2l-0.2-0.5c0.2-0.2,0.7-0.3,1.1-0.3c0.8,0,1.2,0.4,1.2,1
		c0,0.4-0.2,0.7-0.7,0.9l0,0c0.5,0.1,0.9,0.4,0.9,1c0,0.7-0.6,1.1-1.5,1.1c-0.5,0-0.9-0.1-1.1-0.3L118.9,39.1z"/>
</g>
<g>
	<path class="st7" d="M144.3,32.2v-0.6c-0.4,0-0.8-0.1-1-0.3l0.2-0.6c0.2,0.1,0.6,0.3,0.9,0.3s0.6-0.2,0.6-0.5s-0.2-0.4-0.7-0.6
		c-0.6-0.2-1-0.5-1-1s0.4-0.9,1-1v-0.6h0.5v0.6c0.4,0,0.6,0.1,0.8,0.2l-0.2,0.6c-0.1-0.1-0.4-0.2-0.8-0.2c-0.4,0-0.6,0.2-0.6,0.4
		c0,0.2,0.2,0.4,0.7,0.6c0.7,0.3,1,0.6,1,1.1s-0.4,1-1,1v0.6H144.3L144.3,32.2L144.3,32.2z"/>
	<path class="st7" d="M144.9,39.9v-1h-1.7v-0.5l1.6-2.4h0.9v2.3h0.5v0.6h-0.5v1L144.9,39.9L144.9,39.9z M144.9,38.4v-1
		c0-0.2,0-0.5,0-0.7l0,0c-0.1,0.2-0.2,0.4-0.3,0.7l-0.7,1l0,0H144.9z"/>
</g>
<g>
	<path class="st7" d="M169.5,28.9c0,0.8-0.5,1.2-1,1.2s-1-0.4-1-1.1s0.4-1.2,1-1.2S169.5,28.2,169.5,28.9z M168.1,28.9
		c0,0.5,0.2,0.8,0.5,0.8s0.4-0.3,0.4-0.8c0-0.4-0.1-0.8-0.4-0.8C168.2,28.2,168.1,28.5,168.1,28.9z M168.5,31.7l2.2-4h0.4l-2.2,4
		H168.5z M172.2,30.5c0,0.8-0.5,1.2-1,1.2s-1-0.4-1-1.1s0.4-1.2,1-1.2S172.2,29.8,172.2,30.5z M170.8,30.6c0,0.4,0.2,0.8,0.5,0.8
		s0.4-0.3,0.4-0.8c0-0.4-0.1-0.8-0.4-0.8C170.9,29.8,170.8,30.1,170.8,30.6z"/>
	<path class="st7" d="M171,36.7h-1.5l-0.1,0.8c0.1,0,0.2,0,0.3,0c0.3,0,0.7,0.1,0.9,0.3c0.3,0.2,0.5,0.5,0.5,1
		c0,0.7-0.6,1.3-1.5,1.3c-0.5,0-0.8-0.1-1-0.2l0.2-0.6c0.2,0.1,0.5,0.2,0.9,0.2s0.8-0.2,0.8-0.7c0-0.4-0.3-0.7-1.1-0.7
		c-0.2,0-0.4,0-0.5,0l0.3-1.9h2v0.5C171.2,36.7,171,36.7,171,36.7z"/>
</g>
<g>
	<path class="st7" d="M195.7,30.6l-0.9-2.2l0,0l-0.9,2.2h-0.5l1.2-2.8h0.5l1.2,2.8H195.7z"/>
	<path class="st7" d="M195.8,36.6c-0.1,0-0.2,0-0.4,0c-0.8,0.1-1.2,0.6-1.3,1.1l0,0c0.2-0.2,0.5-0.4,0.9-0.4c0.7,0,1.2,0.5,1.2,1.2
		s-0.5,1.4-1.3,1.4c-0.9,0-1.4-0.7-1.4-1.6c0-0.8,0.3-1.3,0.7-1.7c0.4-0.3,0.8-0.5,1.4-0.6c0.2,0,0.3,0,0.4,0L195.8,36.6z
		 M195.4,38.6c0-0.5-0.2-0.8-0.7-0.8c-0.3,0-0.5,0.2-0.6,0.4c0,0.1,0,0.1,0,0.2c0,0.5,0.3,0.9,0.7,0.9
		C195.2,39.4,195.4,39.1,195.4,38.6z"/>
</g>
<g>
	<path class="st7" d="M220.7,31.7c-0.1-0.1-0.2-0.2-0.3-0.3c-0.3,0.3-0.7,0.4-1.1,0.4c-0.9,0-1.3-0.6-1.3-1.1s0.3-0.9,0.8-1.1l0,0
		c-0.2-0.2-0.3-0.5-0.3-0.8c0-0.5,0.4-1,1.1-1c0.6,0,1,0.4,1,0.9c0,0.4-0.2,0.8-0.8,1l0,0c0.3,0.3,0.6,0.7,0.8,0.9
		c0.2-0.3,0.3-0.6,0.4-1h0.7c-0.1,0.6-0.3,1.1-0.6,1.5c0.2,0.2,0.4,0.5,0.7,0.8L220.7,31.7L220.7,31.7L220.7,31.7z M220,30.9
		c-0.2-0.3-0.6-0.7-1-1.1c-0.2,0.1-0.4,0.3-0.4,0.7c0,0.4,0.3,0.7,0.7,0.7S219.9,31.1,220,30.9z M219.1,28.6c0,0.2,0.1,0.4,0.3,0.6
		c0.3-0.2,0.5-0.4,0.5-0.7c0-0.2-0.1-0.5-0.4-0.5C219.2,28.1,219.1,28.4,219.1,28.6z"/>
	<path class="st7" d="M221,36v0.5l-1.6,3.4h-0.8l1.6-3.2l0,0h-1.8v-0.6L221,36L221,36z"/>
</g>
<g>
	<path class="st7" d="M245.4,27.9l-0.6,0.8l0,0l0.9-0.2V29l-0.9-0.1l0,0l0.6,0.7l-0.5,0.3l-0.4-0.9l0,0l-0.4,0.9l-0.4-0.3l0.6-0.7
		l0,0l-0.9,0.2v-0.5l0.9,0.2l0,0l-0.6-0.7l0.5-0.3l0.3,0.9l0,0l0.3-0.9L245.4,27.9z"/>
	<path class="st7" d="M243.2,38.9c0-0.5,0.3-0.8,0.7-1l0,0c-0.4-0.2-0.6-0.5-0.6-0.9c0-0.6,0.6-1,1.3-1c0.8,0,1.2,0.5,1.2,1
		c0,0.3-0.2,0.7-0.6,0.9l0,0c0.4,0.2,0.7,0.5,0.7,1c0,0.7-0.6,1.1-1.4,1.1C243.7,39.9,243.2,39.4,243.2,38.9z M245.2,38.8
		c0-0.4-0.3-0.6-0.7-0.7c-0.4,0.1-0.6,0.4-0.6,0.7s0.2,0.6,0.7,0.6C245,39.4,245.2,39.2,245.2,38.8z M244,37c0,0.3,0.3,0.5,0.6,0.6
		c0.3-0.1,0.5-0.3,0.5-0.6s-0.2-0.6-0.6-0.6C244.2,36.5,244,36.7,244,37z"/>
</g>
<g>
	<path class="st7" d="M270.6,27.6c-0.4,0.6-0.7,1.3-0.7,2.4c0,1,0.3,1.8,0.7,2.4H270c-0.3-0.5-0.7-1.2-0.7-2.4
		c0-1.1,0.4-1.9,0.7-2.4C270,27.6,270.6,27.6,270.6,27.6z"/>
	<path class="st7" d="M268.8,39.4c0.1,0,0.2,0,0.4,0c0.3,0,0.6-0.1,0.8-0.3c0.3-0.2,0.4-0.5,0.5-0.9l0,0c-0.2,0.2-0.5,0.3-0.9,0.3
		c-0.7,0-1.1-0.5-1.1-1.2s0.6-1.4,1.4-1.4c0.9,0,1.4,0.7,1.4,1.6c0,0.8-0.3,1.4-0.7,1.8c-0.3,0.3-0.8,0.5-1.3,0.5
		c-0.2,0-0.3,0-0.4,0L268.8,39.4L268.8,39.4z M269.2,37.3c0,0.4,0.2,0.7,0.6,0.7c0.3,0,0.5-0.1,0.6-0.3c0,0,0-0.1,0-0.2
		c0-0.5-0.2-1-0.7-1C269.4,36.5,269.2,36.8,269.2,37.3z"/>
</g>
<g>
	<path class="st7" d="M294.3,32.4c0.4-0.6,0.7-1.3,0.7-2.4s-0.3-1.8-0.7-2.4h0.5c0.3,0.5,0.7,1.2,0.7,2.4c0,1.1-0.4,1.9-0.7,2.4
		H294.3z"/>
	<path class="st7" d="M296.4,37.9c0,1.2-0.5,2-1.4,2s-1.3-0.8-1.4-2c0-1.2,0.5-2,1.4-2C296,36,296.4,36.8,296.4,37.9z M294.4,38
		c0,0.9,0.3,1.4,0.7,1.4c0.4,0,0.7-0.5,0.7-1.4s-0.2-1.4-0.7-1.4C294.7,36.5,294.4,37,294.4,38z"/>
</g>
<g>
	<path class="st7" d="M321.8,29.5v0.3h-2.9v-0.3H321.8z"/>
	<path class="st7" d="M321,37.7v0.5h-1.5v-0.5H321z"/>
</g>
<g>
	<path class="st7" d="M346.4,29.2v1.3h1.3V31h-1.3v1.3h-0.5V31h-1.3v-0.5h1.3v-1.3H346.4z"/>
	<path class="st7" d="M344.6,38.6v-0.5h3v0.5H344.6z M344.6,39.8v-0.5h3v0.5H344.6z"/>
</g>
<g>
	<path class="st7" d="M336,56.7c0.4,0,0.5-0.2,0.5-0.4s0-0.3,0-0.5s0-0.3,0-0.5c0-0.6,0.4-0.8,0.9-0.8h0.2v0.4h-0.1
		c-0.3,0-0.4,0.2-0.4,0.5c0,0.1,0,0.2,0,0.4c0,0.1,0,0.3,0,0.4c0,0.4-0.2,0.6-0.5,0.7l0,0c0.3,0.1,0.5,0.3,0.5,0.7
		c0,0.2,0,0.3,0,0.4c0,0.1,0,0.3,0,0.4c0,0.3,0.1,0.5,0.4,0.5h0.1v0.4h-0.2c-0.5,0-0.9-0.2-0.9-0.8c0-0.2,0-0.3,0-0.5s0-0.3,0-0.5
		s0-0.4-0.5-0.4V56.7z"/>
	<path class="st7" d="M336.2,67.4v-4.7h1.1v0.4h-0.6V67h0.6v0.4H336.2z"/>
</g>
<g>
	<path class="st7" d="M362.9,58.1c-0.4,0-0.5,0.3-0.5,0.4c0,0.2,0,0.3,0,0.5s0,0.3,0,0.5c0,0.6-0.4,0.8-0.9,0.8h-0.2v-0.4h0.1
		c0.3,0,0.4-0.2,0.4-0.5c0-0.1,0-0.2,0-0.4c0-0.1,0-0.3,0-0.4c0-0.4,0.2-0.6,0.5-0.7l0,0c-0.3-0.1-0.5-0.3-0.5-0.7
		c0-0.2,0-0.3,0-0.4c0-0.1,0-0.3,0-0.4c0-0.3-0.1-0.5-0.4-0.5h-0.1v-0.4h0.2c0.5,0,0.9,0.2,0.9,0.8c0,0.2,0,0.3,0,0.5s0,0.3,0,0.5
		s0.1,0.4,0.5,0.4V58.1z"/>
	<path class="st7" d="M362.7,63.7v4.7h-1.1V68h0.6v-3.9h-0.6v-0.4C361.6,63.7,362.7,63.7,362.7,63.7z"/>
</g>
<g>
	<path class="st7" d="M396.3,55.1V61h-0.5v-5.9H396.3z"/>
	<path class="st7" d="M396.4,68l-1.4-4.3h0.5l1.4,4.3H396.4z"/>
</g>
<g>
	<path class="st7" d="M88.8,63.5c-0.6-0.2-1-0.3-1.5-0.5c-0.1,0-0.2-0.1-0.3-0.1c-0.9,0-1.7-0.7-1.7-2c0-1.2,0.8-2.1,1.9-2.1
		s1.8,0.9,1.8,2c0,1-0.5,1.6-1,1.8l0,0c0.3,0.1,0.7,0.2,1,0.2L88.8,63.5z M88.2,60.8c0-0.8-0.4-1.4-1.1-1.4S86,60.1,86,60.9
		s0.4,1.4,1.1,1.4C87.8,62.3,88.2,61.7,88.2,60.8z"/>
</g>
<g>
	<path class="st7" d="M111.2,63.5l-1-4h0.8l0.4,1.8c0.1,0.5,0.2,1,0.3,1.4l0,0c0.1-0.4,0.2-0.9,0.3-1.4l0.4-1.8h0.8l0.4,1.8
		c0.1,0.5,0.2,0.9,0.2,1.3l0,0c0.1-0.4,0.2-0.9,0.3-1.4l0.4-1.8h0.8l-1.1,4h-0.8l-0.4-1.9c-0.1-0.5-0.2-0.8-0.2-1.3l0,0
		c-0.1,0.4-0.2,0.8-0.3,1.3l-0.5,1.9L111.2,63.5L111.2,63.5z"/>
</g>
<g>
	<path class="st7" d="M138.4,61.7h-1.5v1.2h1.7v0.6h-2.4v-4h2.3v0.6h-1.6v1h1.5V61.7L138.4,61.7L138.4,61.7z"/>
</g>
<g>
	<path class="st7" d="M161.3,59.6c0.3,0,0.7-0.1,1.1-0.1c0.6,0,1,0.1,1.2,0.3s0.3,0.5,0.3,0.8c0,0.5-0.4,0.9-0.7,1l0,0
		c0.3,0.1,0.5,0.4,0.6,0.8c0.1,0.5,0.2,1,0.3,1.1h-0.8c-0.1-0.1-0.2-0.5-0.3-1s-0.3-0.7-0.7-0.7h-0.4v1.6h-0.7L161.3,59.6
		L161.3,59.6z M162,61.3h0.4c0.5,0,0.8-0.3,0.8-0.7s-0.3-0.6-0.8-0.6c-0.2,0-0.4,0-0.5,0L162,61.3L162,61.3L162,61.3z"/>
</g>
<g>
	<path class="st7" d="M187,60.1h-1.1v-0.6h3v0.6h-1.1v3.4H187V60.1z"/>
</g>
<g>
	<path class="st7" d="M211.6,63.5v-1.7l-1.2-2.3h0.8l0.5,1c0.1,0.3,0.2,0.5,0.3,0.8l0,0c0.1-0.3,0.2-0.5,0.4-0.8l0.5-1h0.8l-1.3,2.3
		v1.7H211.6L211.6,63.5z"/>
</g>
<g>
	<path class="st7" d="M236.1,59.5v2.3c0,0.8,0.3,1.1,0.8,1.1s0.9-0.4,0.9-1.1v-2.3h0.7v2.3c0,1.2-0.6,1.8-1.6,1.8
		c-0.9,0-1.5-0.5-1.5-1.8v-2.3H236.1L236.1,59.5z"/>
</g>
<g>
	<path class="st7" d="M262.5,59.5v4h-0.7v-4H262.5z"/>
</g>
<g>
	<path class="st7" d="M310.4,59.6c0.3,0,0.6-0.1,1.1-0.1s0.9,0.1,1.2,0.3c0.2,0.2,0.4,0.5,0.4,0.9s-0.1,0.7-0.3,0.9
		c-0.3,0.3-0.8,0.4-1.2,0.4c-0.1,0-0.3,0-0.4,0v1.5h-0.7L310.4,59.6L310.4,59.6z M311.1,61.4c0.1,0,0.2,0,0.4,0
		c0.6,0,0.9-0.3,0.9-0.7c0-0.5-0.3-0.7-0.8-0.7c-0.2,0-0.3,0-0.4,0v1.4H311.1z"/>
</g>
<g>
	<path class="st7" d="M291.6,87.1h0.7v3.4h1.6v0.6h-2.4L291.6,87.1L291.6,87.1z"/>
</g>
<text transform="matrix(1 0 0 1 317.1555 85.4582)" class="st7 st10 st11">:</text>
<text transform="matrix(1 0 0 1 317.1555 94.634)" class="st7 st10 st11">;</text>
<g>
	<path class="st7" d="M342.4,84.3c0.2-0.5,0.4-1.1,0.6-1.5h0.5c-0.2,0.4-0.3,1-0.4,1.5H342.4z M343.4,84.3c0.2-0.5,0.4-1.1,0.6-1.5
		h0.5c-0.2,0.4-0.3,1-0.4,1.5H343.4z"/>
	<path class="st7" d="M342.9,93.4c0.2-0.5,0.4-1.1,0.6-1.5h0.5c-0.2,0.4-0.3,1-0.4,1.5H342.9z"/>
</g>
<g>
	<path class="st7" d="M266.4,87.1h0.7v1.8l0,0c0.1-0.2,0.2-0.3,0.3-0.4l1-1.4h0.9l-1.4,1.7l1.4,2.3h-0.9l-1.1-1.8l-0.4,0.4v1.4h-0.7
		L266.4,87.1L266.4,87.1z"/>
</g>
<g>
	<path class="st7" d="M242.9,87.1h0.7v2.6c0,1.1-0.5,1.5-1.3,1.5c-0.2,0-0.5,0-0.6-0.1l0.1-0.6c0.1,0,0.3,0.1,0.5,0.1
		c0.4,0,0.7-0.2,0.7-0.9L242.9,87.1L242.9,87.1z"/>
</g>
<g>
	<path class="st7" d="M217.4,87.1v1.6h1.7v-1.6h0.7v4h-0.7v-1.7h-1.7V91h-0.7v-4L217.4,87.1L217.4,87.1z"/>
</g>
<g>
	<path class="st7" d="M194.6,90.9c-0.3,0.1-0.8,0.2-1.3,0.2c-0.7,0-1.2-0.2-1.6-0.5c-0.4-0.3-0.6-0.9-0.6-1.5c0-1.2,0.9-2.1,2.2-2.1
		c0.5,0,0.9,0.1,1,0.2l-0.2,0.6c-0.2-0.1-0.5-0.2-0.9-0.2c-0.9,0-1.4,0.5-1.4,1.4s0.6,1.4,1.4,1.4c0.3,0,0.5,0,0.6-0.1v-1h-0.7v-0.6
		h1.4v2.2H194.6z"/>
</g>
<g>
	<path class="st7" d="M167,87.1h2.3v0.6h-1.6v1.1h1.5v0.6h-1.5V91H167V87.1z"/>
</g>
<g>
	<path class="st7" d="M141.6,87.1c0.3-0.1,0.7-0.1,1.1-0.1c0.8,0,1.2,0.2,1.6,0.5c0.4,0.3,0.6,0.8,0.6,1.5s-0.2,1.2-0.6,1.6
		c-0.4,0.4-1,0.6-1.8,0.6c-0.4,0-0.8,0-1-0.1L141.6,87.1L141.6,87.1z M142.3,90.5c0.1,0,0.3,0,0.4,0c1,0,1.5-0.5,1.5-1.5
		c0-0.9-0.5-1.4-1.4-1.4c-0.2,0-0.4,0-0.5,0V90.5L142.3,90.5z"/>
</g>
<g>
	<path class="st7" d="M116.8,90.2c0.2,0.1,0.6,0.3,1,0.3c0.5,0,0.7-0.2,0.7-0.6c0-0.3-0.2-0.5-0.7-0.7c-0.7-0.2-1.1-0.6-1.1-1.1
		c0-0.7,0.6-1.1,1.4-1.1c0.4,0,0.8,0.1,1,0.2l-0.2,0.6c-0.1-0.1-0.4-0.2-0.8-0.2c-0.5,0-0.7,0.3-0.7,0.5c0,0.3,0.2,0.5,0.8,0.7
		c0.7,0.3,1,0.6,1,1.2s-0.5,1.2-1.5,1.2c-0.4,0-0.9-0.1-1.1-0.3L116.8,90.2z"/>
</g>
<g>
	<path class="st7" d="M91.7,89.9L91.4,91h-0.8l1.3-4h0.9l1.3,4h-0.8L93,89.9H91.7z M92.9,89.3l-0.3-1c-0.1-0.2-0.1-0.5-0.2-0.8l0,0
		c-0.1,0.2-0.1,0.5-0.2,0.8l-0.3,1H92.9z"/>
</g>
<g>
	<path class="st7" d="M96.8,117.5l2-2.9l0,0h-1.9V114h2.8v0.4l-2,2.9l0,0h2v0.6h-3L96.8,117.5L96.8,117.5L96.8,117.5z"/>
</g>
<g>
	<path class="st7" d="M124.3,117.9l-0.4-0.8c-0.2-0.3-0.3-0.5-0.4-0.8l0,0c-0.1,0.2-0.2,0.4-0.4,0.8l-0.4,0.8h-0.8l1.2-2l-1.1-2h0.8
		l0.4,0.8c0.1,0.3,0.2,0.4,0.3,0.7l0,0c0.1-0.3,0.2-0.4,0.3-0.7l0.4-0.8h0.8l-1.1,1.9l1.2,2L124.3,117.9L124.3,117.9z"/>
</g>
<g>
	<path class="st7" d="M149.7,117.8c-0.2,0.1-0.6,0.2-1,0.2c-1.3,0-2-0.8-2-2c0-1.3,0.9-2.1,2.1-2.1c0.5,0,0.8,0.1,1,0.2l-0.2,0.6
		c-0.2-0.1-0.5-0.2-0.8-0.2c-0.8,0-1.4,0.5-1.4,1.5c0,0.9,0.5,1.4,1.4,1.4c0.3,0,0.6-0.1,0.8-0.2L149.7,117.8z"/>
</g>
<g>
	<path class="st7" d="M172.6,117.9l-1.3-4h0.8l0.6,1.8c0.2,0.5,0.3,1,0.4,1.4l0,0c0.1-0.5,0.3-1,0.4-1.4l0.6-1.8h0.8l-1.4,4H172.6z"
		/>
</g>
<g>
	<path class="st7" d="M196.6,114c0.2,0,0.7-0.1,1-0.1c0.5,0,0.9,0.1,1.1,0.3c0.3,0.2,0.4,0.4,0.4,0.8s-0.2,0.7-0.7,0.9l0,0
		c0.4,0.1,0.8,0.4,0.8,1c0,0.4-0.2,0.6-0.4,0.8c-0.3,0.3-0.8,0.4-1.5,0.4c-0.4,0-0.7,0-0.9-0.1v-4L196.6,114L196.6,114z
		 M197.3,115.5h0.4c0.5,0,0.8-0.2,0.8-0.6s-0.3-0.6-0.8-0.6c-0.2,0-0.3,0-0.4,0V115.5L197.3,115.5z M197.3,117.4c0.1,0,0.2,0,0.4,0
		c0.5,0,0.9-0.2,0.9-0.7s-0.4-0.7-0.9-0.7h-0.4V117.4L197.3,117.4z"/>
</g>
<g>
	<path class="st7" d="M221.6,117.9v-4h0.8l1,1.7c0.3,0.5,0.5,0.9,0.7,1.3l0,0c0-0.5-0.1-1-0.1-1.6V114h0.7v4h-0.8l-1-1.7
		c-0.3-0.4-0.5-0.9-0.7-1.4l0,0c0,0.5,0,1,0,1.7v1.4L221.6,117.9L221.6,117.9L221.6,117.9z"/>
</g>
<g>
	<path class="st7" d="M249.1,116.3c0-0.5-0.1-1.1,0-1.7l0,0c-0.1,0.5-0.3,1-0.5,1.5l-0.6,1.7h-0.6l-0.5-1.7c-0.2-0.5-0.3-1-0.4-1.5
		l0,0c0,0.5,0,1.1-0.1,1.7l-0.1,1.6h-0.7l0.3-4h1l0.5,1.6c0.1,0.5,0.3,1,0.4,1.4l0,0c0.1-0.4,0.2-0.9,0.4-1.4l0.6-1.6h1l0.2,4h-0.7
		L249.1,116.3z"/>
</g>
<g>
	<path class="st7" d="M271.2,111.5l2.8-1.3v0.5l-2.2,1l0,0l2.2,1v0.5l-2.8-1.3V111.5z"/>
	<path class="st7" d="M272,123.2c0.2-0.5,0.3-1.1,0.4-1.6l0.8-0.1c-0.2,0.6-0.4,1.2-0.7,1.6L272,123.2z"/>
</g>
<g>
	<path class="st7" d="M298.9,112l-2.8,1.3v-0.5l2.3-1l0,0l-2.3-1v-0.5l2.8,1.3V112z"/>
	<path class="st7" d="M297.1,122.1c0-0.3,0.2-0.5,0.5-0.5s0.5,0.2,0.5,0.5s-0.2,0.5-0.5,0.5C297.3,122.5,297.1,122.3,297.1,122.1z"
		/>
</g>
<g>
	<path class="st7" d="M322.7,112.7v-0.2c0-0.3,0.1-0.6,0.4-1c0.2-0.3,0.4-0.5,0.4-0.7c0-0.3-0.2-0.4-0.5-0.4c-0.2,0-0.5,0.1-0.6,0.2
		l-0.2-0.5c0.2-0.1,0.6-0.2,0.9-0.2c0.7,0,1.1,0.4,1.1,0.9c0,0.4-0.3,0.7-0.5,1s-0.3,0.5-0.3,0.8v0.1L322.7,112.7L322.7,112.7z
		 M322.5,113.6c0-0.3,0.2-0.5,0.5-0.5s0.5,0.2,0.5,0.5s-0.2,0.5-0.5,0.5S322.5,113.8,322.5,113.6z"/>
	<path class="st7" d="M322.1,123.4l1.4-4.3h0.5l-1.4,4.3H322.1z"/>
</g>
<g>
	<path class="st7" d="M288.9,61.8c0,1.5-1,2.1-2,2.1c-1.1,0-1.9-0.8-1.9-2c0-1.3,0.9-2.1,2-2.1S288.9,60.6,288.9,61.8z M285.8,61.8
		c0,0.9,0.5,1.5,1.2,1.5s1.2-0.6,1.2-1.5c0-0.7-0.3-1.5-1.2-1.5C286.1,60.3,285.8,61.1,285.8,61.8z"/>
</g>
<g>
	<path class="st7" d="M351.7,150.6h-0.5"/>
	<path class="st7" d="M351.2,146.1h0.5"/>
</g>
<text transform="matrix(1 0 0 1 35.425 68.425)" class="st7 st10 st12">tab</text>
<text transform="matrix(1 0 0 1 34.95 95.675)" class="st7 st10 st12">caps lock</text>
<text transform="matrix(1 0 0 1 35.2 121.9875)" class="st7 st10 st12">shift</text>
<text transform="matrix(1 0 0 1 35.1375 150.175)" class="st7 st10 st12">ctrl</text>
<text transform="matrix(1 0 0 1 396.1375 40.425)" class="st7 st10 st12">delete</text>
<text transform="matrix(1 0 0 1 398.1375 95.175)" class="st7 st10 st12">enter</text>
<text transform="matrix(1 0 0 1 400.5125 121.925)" class="st7 st10 st12">shift</text>
<text transform="matrix(1 0 0 1 343.3042 150.05)" class="st7 st10 st12">ctrl</text>
<text transform="matrix(1 0 0 1 294.6375 150.05)" class="st7 st10 st12">alt</text>
<text transform="matrix(1 0 0 1 93.3875 150.3)" class="st7 st10 st12">alt</text>
<g>
	<path class="st13" d="M263.3,229.7c-1.8-2.7-5-9.1-5.8-10.7c-4.8-9.4-7.8-15.4-9.3-23.3c-0.7-3.9-1.4-9.7-0.5-17
		c-0.2-2.2-0.5-5.7-1-10c-0.9-7.9-1.2-8.4-1-10.7c0.5-4.5,2.4-8,5-12.8s3.3-4.8,3.8-7c0.8-4-2-6-4.7-13.3c-0.3-0.7-1-3.3-2.4-8.6
		c-2.2-8.4-2.7-10.8-4.6-17.7c-0.5-1.5-0.8-3-1.3-4.5c-1.4-4.5-2.2-5.7-2-7.8c0.1-1.1,0.5-2.7,2-4.6c0.9-0.8,3-2.2,5.8-2.3
		c3-0.1,5.1,1.6,7,3c1.6,1.3,3.9,3.5,7,9.4c1.8,3.5,1.7,4,4.2,10.1c2.6,6.3,2.8,6,6,13.5c0.8,1.9,1.8,4.3,3.7,9
		c2.8,6.9,2.2,5.6,3.3,8.3c2,4.9,2.6,5.9,3.5,8.8c0.8,2.6,1,3.7,1.2,3.7c0.6-0.1,1.2-6.7-0.2-13.7c-0.6-3.3-1-2.7-3-10.5
		c-1.3-5-1.3-5.9-2.3-8.3c-1.6-3.8-2.5-3.7-5.2-8.5c-2.6-4.7-1.6-4.7-4.7-10.7c-2.2-4.3-3.4-5.6-3-7.7c0.7-3.9,4.2-5.5,4.5-5.7
		c1.8-0.9,4.5-1.8,7.4-1.2c3.4,0.7,5.2,3.2,11.5,12.8c5.9,9.1,8.9,13.8,10.5,17.2c2.5,5.4,3.9,9.7,5,13.5
		c3.5,11.3,4.3,19.4,4.7,19.3c0.4,0-0.1-6-0.8-11c-0.9-6.8-1.4-10.8-3.3-15.7c-1.3-3.5-2.8-6-5.2-10.2c-1.4-2.4-3.5-5.8-5.7-10.8
		c-0.9-1.9-1.6-3.6-1.7-6c-0.1-1.9-0.3-4.5,1.5-6.5c2.3-2.7,6.2-2.3,7-2.2c2.1,0.2,4,1.1,6,2.7c3.7,2.8,5,5.4,9.2,11.7
		c5.3,7.9,5.7,7.7,8,12c0.6,1.1,2.4,4.7,4.3,9.7c0.8,2.3,2.3,6.2,3.3,11.5c1,5.4,0.4,5.7,1.3,10.5c0.6,3.1,2.5,12.8,5.7,13
		c1.7,0.1,3.3-2.8,6.3-8.8c1.4-2.8,2.9-5.8,3.8-10c0.5-2.6,0.6-4.5,0.8-7.8c0.3-6.4-0.3-6.6,0-10.7c0.4-5.1,0.7-10.8,4.8-13.6
		c0.4-0.3,3.7-2.4,6.2-1.2c1.9,0.9,2.3,3.1,4.2,14.2c0.8,4.4,1.2,6.7,1.2,7c0.9,7.7,0.5,13.6,0.2,17.8c-0.4,5.8-0.7,8.7-2,11.9
		c-1.3,3.1-2.3,3.7-3.8,6.8c-2.3,4.8-2.5,9-2.7,12.7c-0.1,0.5,0.6-9.7-2.7,22.2c-1.4,13.2-2,19.8-2.5,25.3
		c-1,11.9-0.8,11.7-1.2,12.8C342.8,249.3,277.8,251.7,263.3,229.7z"/>
	<path class="st14" d="M334.7,157.3c-0.6,9.1,1.2,11.4,1.2,11.4C336.4,159.1,334.7,157.3,334.7,157.3z"/>
	<path class="st14" d="M310,154c0.4,9.1,2.4,11.2,2.4,11.2C311.9,155.7,310,154.1,310,154z"/>
	<path class="st14" d="M285.5,154.9c0.5,9.1,2.5,11.2,2.5,11.2C287.4,156.6,285.5,154.9,285.5,154.9z"/>
	<path class="st15" d="M308.9,90.3c-0.3-0.7-0.8-1.7-1.5-2.9c-1-1.5-1.7-2.6-2.8-3.4c-0.7-0.5-3.4-2.7-6.5-1.4
		c-1.8,0.8-3,2.4-3.4,3.9c-0.5,1.7-0.1,3.1,0.6,5.1c0.2,0.8,0.5,1.5,1.2,2.8c0.8,1.8,1.2,2.6,1.7,2.8c0.6,0.3,1.1-0.1,4.9-1.8
		c1.8-0.8,1.7-0.8,2-0.9C307.3,93,308.5,91.2,308.9,90.3z"/>
	<path class="st15" d="M282.2,87.9c-0.2-0.6-0.7-1.4-1.4-2.4c-0.8-1.2-1.4-2.1-2.4-2.8c-2.1-1.6-4.4-1.3-5.2-1.2
		c-0.6,0.1-3.5,0.4-5.1,2.8c-0.4,0.5-1.3,1.8-1.1,3.9c0.1,2.1,1.3,3.6,1.9,4.5c0.8,0.8,1.2,1.5,2,1.7c0.8,0.3,1-0.2,3.3-1.1
		c1.8-0.7,2.9-1,4.9-2.1c0,0,0,0,0.1-0.1C281.1,90.1,281.8,88.5,282.2,87.9z"/>
	<path class="st16" d="M345.4,139.1l19,6c0.4-2,0.6-4.3,0.8-7.4c0.3-4.1,0.7-10-0.2-17.8c-0.1-0.3-0.5-2.6-1.2-7
		c-1.9-11.1-2.4-13.3-4.2-14.2c-2.6-1.2-5.9,1-6.2,1.2c-4,2.8-4.4,8.5-4.8,13.6c-0.3,4.1,0.3,4.2,0,10.7c-0.1,3.3-0.2,5.2-0.8,7.8
		C347.2,134.8,346.3,137,345.4,139.1z"/>
	<path class="st15" d="M255.5,88.7c-0.2-0.7-0.6-1.5-1.1-2.6c-0.6-1.3-1.1-2.3-1.9-3c-1.6-1.7-3.9-1.6-4.6-1.5c-0.6,0-3.2,0.2-5,2.8
		c-0.4,0.5-1.4,1.9-1.5,4c-0.1,2.2,0.8,3.8,1.3,4.8c0.6,1,0.9,1.7,1.7,2c0.7,0.3,0.9-0.2,3.2-1.1c1.8-0.8,2.9-1,4.8-2.1
		c0,0,0.1,0,0.1-0.1C254.2,90.9,255.2,89.3,255.5,88.7z"/>
	<path class="st17" d="M359.3,112c1.3-0.1,2.4-0.2,3.6-0.4c-0.2-1.3-0.5-2.9-0.8-4.5c0,0-0.3-1.4-1-3.6c-0.1-0.2-0.1-0.3-0.2-0.5
		c-0.4-0.8-1.2-2-2.2-2.1c-1.1-0.1-1.9,1.3-2.5,2.3c-0.3,0.5-0.9,1.6-1.2,3.5c-0.2,1.2-0.4,3,0,5.3c-0.5,0-0.8,0-0.8,0
		s0.6,0.1,1.8,0.2C357.1,112.1,358.1,112,359.3,112z"/>
	<path class="st18" d="M263.1,97"/>
	<path class="st14" d="M255.6,139.7c-0.3-0.7-0.6-1.3-1-2c1.2,3.4,2.4,7.3,3.2,11.6c1.9,10.1,1.4,18.8,0.5,25.2
		C260.6,164,261.2,151.5,255.6,139.7z"/>
</g>
<g>
	<path class="st19" d="M41.8,195c-2.8-8.1-3.8-14.9-4.2-19.4c-0.5-6,0.1-13.5,1.3-28.3c0.8-9.9,1.2-14.8,1.6-16.9
		c1.9-10.7,4.2-14,6.8-27.7c0.4-2,0.5-2.9,0.7-4.2c1.3-9.6-0.1-14.5-1.3-27.8c-1.2-12.7,0-9.6-1-17.3c-0.9-7.2-2.3-11.8,0.3-15
		c1.8-2.2,4.7-2.8,6.8-2.9c2.6,1,3.9,2.3,4.5,3.4c0.7,1.2,0.5,1.8,1.8,6.5c0.6,2.3,0.7,2.2,0.9,3.5c0.5,2.9,0.2,4.7,1.8,10.5
		c2.5,9.4,1.3,12.2,2.7,12.7c1,0.3,3.4-0.4,9-9.9c0.6-0.6,1.6-1.4,2.9-2.1c3.5-1.7,5.8-0.6,10.8-1.1c5.6-0.5,5-2.1,8.2-1.6
		c4.1,0.6,5.1,3.1,9.6,3.2c1.6,0,1.3-0.3,5.1-0.9c3.9-0.6,6.7-1,9.7-0.3c3.1,0.7,5.1,2.3,7.1,4c2.9,2.3,9.7,8,8.2,12.8
		c-1,3.1-5.4,5.2-9,4.8c-3.4-0.4-4.2-3-6.9-2.6c-1.3,0.2-2.1,0.9-5.8,5.6c-5.7,7.2-6.2,8.6-6.5,9.8c-0.7,2.8-1,7.3,0.6,8
		c1,0.4,2.3-0.8,11.8-11.2c1.9-2.1,3.8-4.1,6.5-6.9c5.3-5.5,6.8-6.5,8-7.3c1.5-1,4.6-2.9,9.1-3.5c3-0.4,6.9-1,10.4,1.3
		c0.2,0.1,5.2,3.5,5,8.4c-0.1,3-2.1,5.2-4.1,7.5c-1.3,1.5-2.1,2.1-3.6,3.4c-3.4,3-5.5,5.6-8.8,10c-1.7,2.2-3.8,4.8-6.1,8.7
		c-1.4,2.4-2.3,4-3.9,7.3c-2.7,5.5-4.1,8.3-4.4,10.4c-0.3,2.1,0.1,1.5,0.1,8.5c0,5.2-0.3,6,0.5,6.7c2.2,1.9,9.3-1.1,11.5-6.1
		c0.4-0.9,0.5-1.5,0.6-2.3c0.4-2.2,2-9.9,6.5-16c1.1-1.5,3.7-4.7,8-6.8c2.1-1,4-1.9,5.9-1.2c2.7,1,4.2,4.8,3.9,7.7
		c-0.2,2.7-1.6,3-2.6,6.7c-0.7,2.6-0.6,4.7-0.5,7c0.3,6,2,7.2,1.7,10.6c-0.3,3.5-2.5,5.8-4.9,8.4c-12.2,13.1-18.2,19.6-22,21.9
		c-9.8,5.8-10.9,2.4-18.6,7.8c-10.9,7.7-7.9,14.1-17,18.3c0,0-9.5,4.4-25.6,1.9c-2.2-0.4-4.3-0.7-4.3-0.7c-1.8-0.3-2.8-0.5-4.5-0.8
		c-2.4-0.4-4.1-0.6-4.5-0.7C59.1,200.4,53.8,199.1,41.8,195z"/>
	<path class="st14" d="M98.7,62.3c1.5-0.9,2.9-1.8,4-2.3c-1.7,0.2-4.5,0.7-7.1,2.2c-2.8,1.5-3.9,3.2-5.2,5.3c-1.9,2.8-2.3,5-2.9,7.8
		c-0.9,4-0.3,4.5-0.9,8c-0.5,3-0.9,5.8-2.7,8.7c-0.6,1-1.2,1.7-2.2,2.9c-1.7,1.9-4.1,4.7-7.4,8.6c2.9-2.3,5-4.6,6.4-6.3
		c2.4-2.8,4.9-6,6.3-10.7c0.7-2.4,0.9-4.5,1-6c0-0.5,0-1.2,0.2-2.1c0.1-0.9,0.5-3,1.5-5.6c1-2.8,1.7-4.8,3.9-6.9
		C95.1,64.5,97.1,63.2,98.7,62.3z"/>
	<path class="st14" d="M56.8,98.7c0.8-1.2,1.8-3,2.7-5.4c0.9-2.2,0.9-3.3,1.4-5.4c1-4.2,2-4.5,5.2-12c1.1-2.6,2.5-6.1,2.3-6.2
		c-0.2,0-1.8,3.4-3.7,7c-0.4,0.8-0.9,1.9-1.6,3.2c0,0.2-0.8,1.8-1.4,3.6c-1,2.8-1.6,4.8-2.1,6.8C59.1,92.4,58.2,95.3,56.8,98.7z"/>
	<path class="st14" d="M51.8,112.1c0,0,2.5-1.6,5.2-10.7C56.9,101.5,54.6,102.7,51.8,112.1z"/>
	<path class="st16" d="M61.4,59.2c-1.6-5.9-1.2-7.6-1.8-10.5c-0.2-1.2-0.3-1.2-0.9-3.5c-1.2-4.7-1-5.3-1.8-6.5
		c-0.6-1.1-1.9-2.4-4.5-3.4c-2,0.2-4.9,0.7-6.8,2.9c-2.7,3.2-1.3,7.8-0.3,15c1,7.7-0.2,4.6,1,17.3c0.1,1.3,0.2,2.5,0.4,3.7l16.4-5.3
		C63,66.9,62.6,63.8,61.4,59.2z"/>
	<path class="st14" d="M68.2,118c0,0,2.4-1.8,4.6-10.9C72.8,107,70.5,108.4,68.2,118z"/>
	<path class="st15" d="M51.7,49.2c0.2,0,0.1,0.1,1.6-0.2c3.1-0.6,3.5-0.6,3.7-1c0.2-0.3,0-1.1-0.4-2.6c-0.3-1.2-0.5-1.8-0.7-2.4
		c-0.6-1.8-1.1-2.9-2.2-3.8c-1-0.9-2.5-1.5-3.9-1.1c-2.3,0.5-2.9,3.1-3.1,4c-0.2,1.1-0.2,2.1,0.2,3.6c0.2,1.1,0.4,2,0.5,2.7
		C48,48.4,49.6,49.3,51.7,49.2z"/>
	<path class="st15" d="M159,126.3c1.5-0.3,2.2-1.8,3.3-3.9c0.4-1,1-2.1,1.1-3.7c0.1-1.2,0-2.2-0.3-2.9c-2-0.8-3.1-0.5-3.6-0.1
		c-1.1,0.7-1.5,1.9-2.7,4.9c-0.5,1-1.1,2.4-1.9,4.1C155,124.9,156.9,126.9,159,126.3z"/>
	<path class="st14" d="M94.5,123.3c0,0,2.4-1.8,4.6-10.9C99,112.3,96.8,113.7,94.5,123.3z"/>
</g>
</svg>
